<svg xmlns="http://www.w3.org/2000/svg" width="328" height="86" viewBox="0 0 328 86" fill="none"><g clip-path="url(#clip0_5185_32308)"><mask id="mask0_5185_32308" style="mask-type:alpha" maskUnits="userSpaceOnUse" x="0" y="0" width="86" height="86"><circle cx="43" cy="43" r="43" fill="#D9D9D9"></circle></mask><g mask="url(#mask0_5185_32308)"><circle cx="43" cy="43" r="43" fill="#84D200"></circle><path d="M20.482 45.3264C21.3378 43.8346 22.5035 42.5765 23.6362 41.294C23.8204 41.084 24.0045 40.874 24.1885 40.6639C24.6345 40.1549 25.0818 39.647 25.5296 39.1396C24.8622 38.4446 24.1844 37.7974 23.4374 37.1866C21.6861 35.6688 20.7068 33.6676 20.488 31.3491C20.4191 29.4048 20.7739 27.8033 21.7923 26.1422C21.8701 26.0133 21.9479 25.8843 22.028 25.7514C23.2189 23.9924 25.1239 22.8226 27.1881 22.406C29.5214 22.0291 31.843 22.3567 33.8202 23.7101C34.7949 24.4891 35.7232 25.3224 36.6436 26.1644C37.8372 25.0364 38.8741 23.7836 39.9243 22.5229C41.7634 20.3652 43.5675 19.2762 46.3879 19.0415C47.7419 18.9548 48.8891 19.0052 50.1478 19.563C50.3062 19.631 50.4645 19.699 50.6277 19.7691C52.4618 20.6285 53.5224 21.8426 54.6652 23.4899C54.7518 23.437 54.8383 23.384 54.9275 23.3294C56.979 22.1491 59.307 21.8198 61.6064 22.419C64.0936 23.2361 65.8769 24.5864 67.0773 26.9553C68.0471 29.3086 68.0873 31.7241 67.19 34.1035C66.4257 35.762 64.9515 37.1532 63.759 38.5173C63.5996 38.7003 63.4403 38.8833 63.281 39.0663C62.8674 39.5415 62.4532 40.0161 62.0388 40.4906C61.6139 40.9775 61.1894 41.4649 60.7649 41.9523C59.9362 42.9036 59.1069 43.8544 58.2771 44.8049C58.9995 45.5543 59.7405 46.266 60.5279 46.9466C60.6334 47.0384 60.7389 47.1303 60.8476 47.2249C61.1974 47.5293 61.5478 47.833 61.8982 48.1367C62.1506 48.3561 62.403 48.5755 62.6553 48.7949C63.3377 49.3882 64.0206 49.9808 64.7036 50.5734C65.4183 51.1936 66.1325 51.8144 66.8468 52.4351C68.1983 53.6094 69.5501 54.7832 70.9021 55.9568C72.4418 57.2934 73.9811 58.6306 75.5203 59.9677C78.6855 62.7174 81.8512 65.4665 85.0173 68.215C85.6873 67.5664 86.3349 66.9126 86.9405 66.2022C87.0791 66.0403 87.2177 65.8784 87.3605 65.7116C87.5799 65.4542 87.5799 65.4542 87.8036 65.1917C87.9592 65.0104 88.1149 64.8291 88.2708 64.648C88.9268 63.8852 89.5824 63.122 90.2348 62.3561C90.6362 61.8851 91.0394 61.4158 91.4439 60.9474C91.6691 60.6856 91.8923 60.4221 92.1154 60.1585C93.912 58.0831 95.9346 56.8559 98.7049 56.6509C100.99 56.5981 103.132 57.3709 104.887 58.8427C106.583 60.5203 107.461 62.6846 107.601 65.0448C107.587 66.3967 107.342 67.5744 106.803 68.813C107.013 68.9207 107.013 68.9207 107.227 69.0306C109.505 70.2563 111.14 71.7707 112.056 74.2634C112.648 76.3237 112.595 78.7963 111.646 80.7168C110.808 82.1661 109.734 83.3732 108.627 84.6181C108.435 84.8363 108.243 85.0545 108.051 85.273C107.586 85.8018 107.119 86.3291 106.651 86.8556C107.318 87.5506 107.996 88.1978 108.743 88.8085C110.494 90.3263 111.474 92.3275 111.693 94.6461C111.779 97.0828 111.11 99.0825 109.591 100.99C107.821 102.866 105.686 103.6 103.173 103.755C99.9053 103.787 97.8566 101.891 95.5369 99.8307C94.3361 100.967 93.2895 102.226 92.2264 103.49C90.4086 105.615 88.5984 106.741 85.7714 106.966C84.4285 107.046 83.2799 106.985 82.0326 106.432C81.7951 106.33 81.7951 106.33 81.5528 106.226C79.7187 105.367 78.6581 104.153 77.5153 102.505C77.4287 102.558 77.3422 102.611 77.253 102.666C75.2015 103.846 72.8735 104.175 70.5741 103.576C68.087 102.759 66.3026 101.409 65.1032 99.0392C64.1893 96.8238 64.0234 94.4652 64.8734 92.2077C65.7452 90.3586 67.2139 88.858 68.5493 87.3308C68.705 87.152 68.8607 86.9733 69.0163 86.7944C69.4203 86.3304 69.8248 85.867 70.2294 85.4036C70.6445 84.928 71.0591 84.452 71.4737 83.976C72.2831 83.0469 73.093 82.1184 73.9034 81.1902C73.181 80.4408 72.44 79.7291 71.6526 79.0486C71.5471 78.9567 71.4416 78.8649 71.3329 78.7702C70.9831 78.4659 70.6327 78.1622 70.2822 77.8585C70.0298 77.6391 69.7775 77.4197 69.5251 77.2002C68.8428 76.607 68.1599 76.0143 67.4769 75.4218C66.7622 74.8015 66.0479 74.1808 65.3337 73.5601C63.9822 72.3858 62.6304 71.212 61.2784 70.0384C59.7386 68.7017 58.1994 67.3646 56.6602 66.0274C53.495 63.2777 50.3293 60.5287 47.1632 57.7801C46.4878 58.4331 45.8379 59.0919 45.2305 59.8098C45.0898 59.9754 44.949 60.141 44.804 60.3116C44.581 60.5751 44.581 60.5751 44.3534 60.8438C44.0314 61.2209 43.7086 61.5975 43.386 61.9742C42.8819 62.5632 42.3787 63.1528 41.8785 63.745C41.4707 64.2276 41.0601 64.7076 40.6476 65.1862C40.4185 65.4535 40.1923 65.7234 39.9663 65.9934C38.2372 67.991 36.1151 69.1183 33.4756 69.3442C31.1916 69.4003 29.047 68.6227 27.2931 67.1524C25.5977 65.4749 24.7194 63.3106 24.5798 60.9503C24.5933 59.5985 24.8389 58.4208 25.377 57.1822C25.1675 57.0744 25.1675 57.0744 24.9537 56.9645C22.6772 55.7397 21.0365 54.2243 20.1253 51.7309C19.5337 49.686 19.5909 47.2584 20.482 45.3264ZM26.7046 51.6753C27.7126 52.0853 28.5171 52.1335 29.5378 51.7424C30.3858 51.1808 30.9859 50.5751 31.5806 49.7635C32.3248 48.7756 33.1401 47.8524 33.9559 46.9237C34.1281 46.7268 34.3003 46.5299 34.4725 46.333C34.8408 45.9118 35.2094 45.4909 35.5781 45.0701C36.1615 44.4044 36.7438 43.7377 37.3259 43.0709C37.5257 42.8419 37.7256 42.613 37.9255 42.384C38.0255 42.2695 38.1255 42.1549 38.2286 42.0369C39.5822 40.4865 40.9368 38.9369 42.2933 37.389C43.2108 36.3419 44.1271 35.2937 45.0418 34.2441C45.5252 33.6896 46.0092 33.1357 46.4949 32.5832C46.951 32.0644 47.4054 31.5441 47.8584 31.0226C48.0248 30.8318 48.1918 30.6415 48.3594 30.4518C48.5885 30.1925 48.8151 29.9309 49.0415 29.6693C49.1689 29.5237 49.2963 29.3781 49.4275 29.2281C49.9193 28.5121 50.0916 27.7801 49.9444 26.9248C49.7623 26.0861 49.4025 25.5258 48.7577 24.9637C47.9624 24.4709 47.2737 24.4716 46.3679 24.5128C44.8174 24.9156 43.8546 26.3417 42.8544 27.4992C42.6681 27.7128 42.4817 27.9262 42.2951 28.1396C41.7908 28.7171 41.2883 29.2962 40.7862 29.8756C40.2597 30.4828 39.7318 31.0887 39.2041 31.6949C38.3185 32.7126 37.4341 33.7313 36.5503 34.7507C35.5293 35.9283 34.5063 37.1041 33.4823 38.2791C32.602 39.2891 31.7228 40.3001 30.8446 41.3119C30.3205 41.9157 29.796 42.5191 29.2706 43.1217C28.7767 43.6882 28.2843 44.2558 27.7929 44.8244C27.6126 45.0326 27.4318 45.2403 27.2505 45.4476C27.0026 45.7312 26.7566 46.0162 26.5109 46.3017C26.3729 46.4607 26.2348 46.6197 26.0927 46.7834C25.3908 47.7351 25.2007 48.5279 25.3213 49.679C25.5147 50.5866 25.9664 51.1096 26.7046 51.6753ZM28.037 33.9149C28.1412 34.0032 28.2454 34.0915 28.3527 34.1825C28.6063 34.3973 28.8615 34.6102 29.117 34.8227C29.7433 34.5068 30.1239 34.0885 30.5783 33.559C30.7237 33.3905 30.8692 33.2219 31.019 33.0483C31.2446 32.784 31.2446 32.784 31.4748 32.5144C31.6292 32.3348 31.7838 32.1552 31.9384 31.9758C32.316 31.537 32.6926 31.0974 33.0685 30.6572C32.7055 29.9998 32.2392 29.5508 31.6754 29.0641C31.5877 28.9851 31.4999 28.9062 31.4094 28.8248C30.7244 28.2285 30.0423 27.7867 29.1258 27.6804C28.162 27.7599 27.4682 27.9803 26.8054 28.7355C26.1408 29.5964 25.9528 30.1608 25.965 31.2727C26.2607 32.4274 27.1554 33.1847 28.037 33.9149ZM31.1283 63.111C31.8843 63.6186 32.5609 63.9326 33.4871 63.8597C34.2543 63.6837 34.7472 63.389 35.2903 62.8221C35.4046 62.7031 35.5189 62.5841 35.6366 62.4614C36.1399 61.9199 36.6324 61.3704 37.118 60.813C37.225 60.6908 37.3321 60.5686 37.4424 60.4427C37.7973 60.0374 38.1515 59.6315 38.5058 59.2256C38.7616 58.9332 39.0174 58.6408 39.2733 58.3484C40.1094 57.3924 40.9446 56.4356 41.7795 55.4786C41.9218 55.3155 42.0642 55.1524 42.2108 54.9844C43.5535 53.4456 44.8958 51.9065 46.2372 50.3666C46.5469 50.0112 46.8565 49.6558 47.1661 49.3004C47.2815 49.1679 47.2815 49.1679 47.3993 49.0327C48.6476 47.5999 49.8982 46.1691 51.1497 44.7391C52.437 43.268 53.7222 41.7951 55.0054 40.3204C55.7249 39.4936 56.4454 38.6676 57.1683 37.8436C57.8476 37.0691 58.5242 36.2923 59.1989 35.5138C59.4466 35.2288 59.6953 34.9446 59.9451 34.6614C60.2864 34.274 60.6241 33.8837 60.9611 33.4925C61.0602 33.3817 61.1593 33.2709 61.2614 33.1567C61.9339 32.3653 62.2899 31.5904 62.407 30.5503C62.2901 29.5814 61.8573 28.9047 61.1433 28.2493C60.4637 27.7534 59.8211 27.5434 58.9788 27.6127C58.2106 27.786 57.7179 28.0821 57.1747 28.6489C57.0033 28.8274 57.0033 28.8274 56.8285 29.0096C56.325 29.5514 55.8326 30.1013 55.3472 30.6593C55.2401 30.7816 55.1331 30.9039 55.0228 31.03C54.6679 31.4357 54.3137 31.8419 53.9595 32.2482C53.7037 32.541 53.4479 32.8337 53.1921 33.1263C52.356 34.0832 51.5209 35.0409 50.686 35.9987C50.3978 36.3292 50.1097 36.6596 49.8215 36.9901C48.6234 38.3642 47.4256 39.7386 46.2285 41.1136C45.9189 41.4692 45.6093 41.8248 45.2996 42.1804C45.2227 42.2688 45.1458 42.3571 45.0665 42.4482C43.818 43.882 42.5676 45.3141 41.3164 46.7456C40.0294 48.2179 38.7443 49.6919 37.4609 51.1673C36.7411 51.9946 36.0206 52.8211 35.2981 53.6461C34.6192 54.4214 33.9426 55.1985 33.2676 55.9772C33.0197 56.2624 32.771 56.5469 32.5215 56.8307C32.1806 57.2185 31.8427 57.6087 31.5055 57.9997C31.4064 58.1111 31.3074 58.2224 31.2053 58.3371C29.8805 59.8905 29.7327 61.5542 31.1283 63.111ZM51.4656 54.2927C51.5695 54.3821 51.6734 54.4715 51.7805 54.5635C51.9442 54.7063 51.9442 54.7063 52.1113 54.852C52.4798 55.1729 52.8495 55.4924 53.2192 55.8119C53.4826 56.0408 53.7459 56.2698 54.0092 56.4988C54.7262 57.1222 55.4442 57.7445 56.1625 58.3665C56.9121 59.0161 57.6608 59.6667 58.4096 60.3173C59.8287 61.5498 61.2486 62.7814 62.6687 64.0126C64.2851 65.414 65.9006 66.8165 67.516 68.2191C70.8399 71.105 74.1649 73.9896 77.4907 76.8734C78.1068 76.53 78.4905 76.1474 78.952 75.6097C79.0974 75.4411 79.2429 75.2726 79.3928 75.0989C79.5431 74.9227 79.6935 74.7465 79.8485 74.565C80.003 74.3854 80.1575 74.2059 80.3122 74.0264C80.6897 73.5876 81.0664 73.1481 81.4422 72.7078C81.1076 72.0136 80.566 71.5705 79.9926 71.0774C79.8846 70.9833 79.7767 70.8892 79.6654 70.7922C79.3033 70.4769 78.94 70.1629 78.5767 69.8489C78.3169 69.6232 78.0573 69.3974 77.7977 69.1715C77.0923 68.5583 76.3859 67.9462 75.6794 67.3343C74.9413 66.6948 74.2042 66.0542 73.467 65.4137C72.0706 64.2009 70.6734 62.989 69.2758 61.7775C67.6849 60.3982 66.0949 59.0179 64.505 57.6375C61.2343 54.7977 57.9624 51.9593 54.6897 49.1218C54.0784 49.4632 53.6898 49.8429 53.2276 50.3731C53.0821 50.5401 52.9365 50.707 52.7865 50.8791C52.5608 51.141 52.5608 51.141 52.3305 51.4082C52.1006 51.6703 52.1006 51.6703 51.8662 51.9378C51.7215 52.1047 51.5768 52.2716 51.4278 52.4436C51.2949 52.5969 51.162 52.7502 51.0251 52.9082C50.5004 53.6017 50.8887 53.7872 51.4656 54.2927ZM70.8437 97.6351C71.5997 98.1427 72.2763 98.4567 73.2025 98.3838C73.9697 98.2078 74.4626 97.9131 75.0057 97.3463C75.12 97.2272 75.2343 97.1082 75.352 96.9856C75.8555 96.4438 76.3478 95.8938 76.8333 95.3359C76.9403 95.2135 77.0474 95.0912 77.1577 94.9652C77.5126 94.5595 77.8668 94.1532 78.221 93.7469C78.4767 93.4542 78.7325 93.1615 78.9884 92.8688C79.8245 91.912 80.6595 90.9543 81.4945 89.9965C81.7827 89.666 82.0708 89.3355 82.359 89.0051C83.5571 87.6309 84.7549 86.2566 85.952 84.8816C86.2616 84.526 86.5712 84.1704 86.8808 83.8148C86.9578 83.7264 87.0347 83.638 87.114 83.547C88.3625 82.1131 89.6129 80.681 90.8641 79.2496C92.151 77.7772 93.4362 76.3033 94.7196 74.8279C95.4394 74.0006 96.1599 73.174 96.8824 72.3491C97.5613 71.5738 98.2379 70.7966 98.9129 70.0179C99.1608 69.7327 99.4094 69.4482 99.659 69.1645C99.9999 68.7767 100.338 68.3864 100.675 67.9954C100.774 67.8841 100.873 67.7728 100.975 67.6581C101.69 66.8194 102.165 65.9509 102.116 64.8089C101.804 63.8349 101.388 63.1195 100.531 62.5339C99.7605 62.176 99.0333 62.0263 98.2002 62.2328C96.903 62.7813 95.9689 64.1417 95.0626 65.1834C94.9555 65.3057 94.8485 65.428 94.7382 65.554C94.3833 65.9597 94.0291 66.366 93.6749 66.7723C93.4191 67.065 93.1633 67.3577 92.9075 67.6504C92.0714 68.6072 91.2363 69.565 90.4014 70.5228C90.1132 70.8532 89.8251 71.1837 89.5369 71.5141C88.3388 72.8883 87.141 74.2627 85.9439 75.6376C85.6343 75.9932 85.3247 76.3489 85.015 76.7045C84.9381 76.7928 84.8612 76.8812 84.7819 76.9723C83.5334 78.4061 82.283 79.8382 81.0317 81.2696C79.7448 82.742 78.4597 84.216 77.1763 85.6913C76.4565 86.5186 75.736 87.3452 75.0135 88.1701C74.3346 88.9454 73.658 89.7226 72.983 90.5013C72.7351 90.7865 72.4864 91.071 72.2369 91.3547C71.896 91.7426 71.5581 92.1328 71.2209 92.5238C71.1218 92.6351 71.0228 92.7464 70.9207 92.8612C69.5959 94.4145 69.4481 96.0783 70.8437 97.6351ZM83.5272 101.101C84.1563 101.445 84.6508 101.51 85.3547 101.482C85.4994 101.478 85.6441 101.475 85.7932 101.471C87.3558 101.118 88.3303 99.6484 89.3261 98.4959C89.5124 98.2824 89.6988 98.0689 89.8854 97.8556C90.3897 97.278 90.8922 96.6989 91.3943 96.1195C91.9208 95.5124 92.4487 94.9064 92.9764 94.3003C93.862 93.2826 94.7464 92.2638 95.6302 91.2445C96.6511 90.0669 97.6741 88.891 98.6982 87.7161C99.5785 86.7061 100.458 85.695 101.336 84.6832C101.86 84.0795 102.384 83.476 102.91 82.8734C103.404 82.307 103.896 81.7394 104.388 81.1708C104.568 80.9626 104.749 80.7548 104.93 80.5475C105.178 80.2639 105.424 79.9789 105.67 79.6935C105.808 79.5345 105.946 79.3755 106.088 79.2117C106.79 78.26 106.98 77.4673 106.859 76.3162C106.666 75.4085 106.214 74.8855 105.476 74.3198C104.735 74.0184 104.073 73.8831 103.278 74.0095C102.389 74.4055 101.843 74.8038 101.196 75.5474C101.074 75.6854 101.074 75.6854 100.95 75.8262C100.682 76.1324 100.416 76.4408 100.149 76.7493C99.9564 76.9703 99.7633 77.1912 99.5699 77.4119C99.047 78.0101 98.5264 78.6103 98.0063 79.211C97.4612 79.84 96.9142 80.4674 96.3676 81.0951C95.4502 82.149 94.5343 83.2044 93.6194 84.2605C92.562 85.4811 91.5019 86.6993 90.4403 87.9162C89.5283 88.962 88.6177 90.009 87.7084 91.057C87.1656 91.6827 86.6223 92.3078 86.0776 92.9319C85.5658 93.5185 85.0558 94.1067 84.5472 94.6961C84.3604 94.912 84.1729 95.1274 83.9848 95.3421C83.7279 95.6356 83.4733 95.9311 83.2193 96.2271C83.0048 96.4742 83.0048 96.4742 82.786 96.7264C82.3201 97.3944 82.1881 97.9966 82.1399 98.8008C82.3251 99.7679 82.7707 100.476 83.5272 101.101ZM100.031 96.5208C100.153 96.6258 100.274 96.7308 100.399 96.839C100.517 96.9442 100.635 97.0495 100.757 97.1579C101.62 97.9094 102.199 98.2664 103.372 98.2774C104.22 98.1893 104.804 97.9108 105.375 97.2596C106.04 96.3988 106.228 95.8343 106.216 94.7225C105.92 93.5677 105.025 92.8104 104.143 92.0803C104.039 91.9919 103.935 91.9036 103.828 91.8126C103.574 91.5979 103.319 91.385 103.063 91.1724C102.442 91.4875 102.057 91.9012 101.601 92.4237C101.456 92.5907 101.31 92.7577 101.16 92.9297C101.01 93.1043 100.859 93.2789 100.704 93.4588C100.551 93.6336 100.398 93.8084 100.24 93.9885C100.095 94.1554 99.9506 94.3223 99.8015 94.4942C99.6686 94.6475 99.5357 94.8009 99.3988 94.9588C98.818 95.7265 99.4376 95.9987 100.031 96.5208Z" fill="white"></path></g><path d="M119.9 23.2002L124.9 50.1002L128.9 23.2002H137.5L129.9 65.9002H121.2L116.2 40.8002L111.3 65.9002H102.6L95 23.2002H103.6L107.6 50.0002L112.6 23.2002H119.9ZM169.8 41.1002V48.4002C169.8 54.1335 168.433 58.5669 165.7 61.7002C163.033 64.9002 159.3 66.5002 154.5 66.5002C149.7 66.5002 145.933 64.9335 143.2 61.8002C140.467 58.6669 139.067 54.2669 139 48.6002V41.3002C139 35.4335 140.367 30.8669 143.1 27.6002C145.833 24.3335 149.6 22.7002 154.4 22.7002C159.2 22.7002 162.967 24.3002 165.7 27.5002C168.433 30.7669 169.8 35.3002 169.8 41.1002ZM161.2 48.7002V41.3002C161.2 37.4335 160.633 34.5669 159.5 32.7002C158.433 30.8335 156.733 29.9002 154.4 29.9002C152.133 29.9002 150.467 30.8002 149.4 32.6002C148.267 34.4002 147.7 37.1335 147.7 40.8002V48.4002C147.7 52.1335 148.233 54.9002 149.3 56.7002C150.433 58.4335 152.167 59.3002 154.5 59.3002C156.767 59.3002 158.433 58.4335 159.5 56.7002C160.567 54.9669 161.133 52.3002 161.2 48.7002ZM192.9 65.9002L186.5 50.3002H182.2V65.9002H173.6V23.2002H187.4C191.667 23.2002 195 24.3335 197.4 26.6002C199.733 28.8669 200.9 32.0335 200.9 36.1002C200.9 41.7669 198.833 45.7335 194.7 48.0002L202.2 65.5002V65.9002H192.9ZM182.2 30.4002V43.1002H187.1C188.833 43.1002 190.133 42.5335 191 41.4002C191.867 40.2669 192.3 38.7335 192.3 36.8002C192.3 32.5335 190.6 30.4002 187.2 30.4002H182.2ZM224.2 65.9002L216.4 49.4002L213 53.7002V65.9002H204.4V23.2002H213V41.8002L215.8 37.2002L223.7 23.2002H234.3L222 42.0002L234.5 65.9002H224.2ZM264.3 41.1002V48.4002C264.3 54.1335 262.933 58.5669 260.2 61.7002C257.533 64.9002 253.8 66.5002 249 66.5002C244.2 66.5002 240.433 64.9335 237.7 61.8002C234.967 58.6669 233.567 54.2669 233.5 48.6002V41.3002C233.5 35.4335 234.867 30.8669 237.6 27.6002C240.333 24.3335 244.1 22.7002 248.9 22.7002C253.633 22.7002 257.367 24.3002 260.1 27.5002C262.833 30.7669 264.233 35.3002 264.3 41.1002ZM255.6 48.7002V41.3002C255.6 37.4335 255.067 34.5669 254 32.7002C252.933 30.8335 251.233 29.9002 248.9 29.9002C246.633 29.9002 244.933 30.8002 243.8 32.6002C242.733 34.4002 242.167 37.1335 242.1 40.8002V48.4002C242.1 52.1335 242.667 54.9002 243.8 56.7002C244.933 58.4335 246.667 59.3002 249 59.3002C251.2 59.3002 252.867 58.4335 254 56.7002C255.067 54.9669 255.6 52.3002 255.6 48.7002ZM287.2 23.2002H295.8V52.8002C295.8 57.2002 294.6 60.6002 292.2 63.0002C289.733 65.3335 286.267 66.5002 281.8 66.5002C277.267 66.5002 273.767 65.3002 271.3 62.9002C268.9 60.5002 267.7 57.0669 267.7 52.6002V23.2002H276.4V52.6002C276.4 55.0002 276.8 56.7335 277.6 57.8002C278.333 58.8002 279.733 59.3002 281.8 59.3002C283.867 59.3002 285.267 58.8002 286 57.8002C286.8 56.8002 287.2 55.1002 287.2 52.7002V23.2002ZM327.6 23.2002V30.4002H317V65.9002H308.4V30.4002H298V23.2002H327.6Z" fill="#232323"></path></g><defs><clipPath id="clip0_5185_32308"><rect width="328" height="86" fill="white"></rect></clipPath></defs></svg>