<svg xmlns="http://www.w3.org/2000/svg" width="234" height="56" viewBox="0 0 234 56" fill="none"><g clip-path="url(#clip0_558_989)"><path d="M135.475 29.8036C135.475 24.2728 133.107 19.386 125.1 19.386C120.992 19.386 117.728 20.5569 115.959 21.5818L117.256 26.0191C118.885 24.9971 121.484 24.1554 123.938 24.1554C127.991 24.1497 128.655 26.4428 128.655 27.9171V28.2721C119.807 28.2577 114.213 31.3152 114.213 37.5417C114.213 41.3463 117.053 44.9133 122.017 44.9133C125.046 44.9133 127.605 43.6909 129.134 41.7614H129.282C129.282 41.7614 130.29 45.9783 135.864 44.3665C135.581 42.6002 135.475 40.7394 135.475 38.4778V29.8036ZM128.873 35.6437C128.873 36.0903 128.836 36.554 128.704 36.952C128.195 38.6553 126.437 40.081 124.25 40.081C122.403 40.081 120.955 39.0361 120.955 36.846C120.955 33.4966 124.653 32.5748 128.873 32.5977" fill="#353642"></path><path d="M0 11.8607C0 11.8607 5.77987 35.5071 6.69886 39.3375C7.78095 43.8149 9.71905 45.4696 15.3129 44.3674L18.9257 29.7043C19.8389 26.0715 20.4601 23.4664 21.0499 19.7648H21.15C21.5594 23.5036 22.1492 26.0715 22.8963 29.7158C22.8963 29.7158 24.3706 36.3774 25.1351 39.8671C25.8793 43.3568 27.9748 45.5583 33.4628 44.3674L42.0626 11.8607H35.1203L32.1689 25.9226C31.3873 29.9963 30.6773 33.2055 30.1248 36.9385H30.0246C29.5265 33.2456 28.8938 30.1681 28.0808 26.1774L25.0234 11.8607H17.7806L14.517 25.811C13.5866 30.0708 12.7164 33.486 12.1695 37.1017H12.0751C11.5112 33.7093 10.7468 29.3894 9.93659 25.2899C9.93659 25.2899 7.99849 15.3018 7.31434 11.8607" fill="#353642"></path><path d="M61.409 29.8036C61.409 24.2728 59.0357 19.386 51.0285 19.386C46.932 19.386 43.6627 20.5569 41.8936 21.5818L43.1904 26.0191C44.8136 24.9971 47.4102 24.1554 49.8721 24.1554C53.9257 24.1497 54.5899 26.4428 54.5899 27.9171V28.2721C45.7411 28.2577 40.1416 31.3152 40.1416 37.5417C40.1416 41.3463 42.9929 44.9133 47.934 44.9133C50.9913 44.9133 53.5279 43.6909 55.0566 41.7614H55.211C55.211 41.7614 56.2245 45.9783 61.7926 44.3665C61.5064 42.6002 61.409 40.7394 61.409 38.4778V29.8036ZM54.8018 35.6437C54.8018 36.0903 54.7646 36.554 54.6386 36.952C54.1232 38.6553 52.3656 40.081 50.1727 40.081C48.3376 40.081 46.8834 39.0361 46.8834 36.846C46.8834 33.4966 50.5819 32.5748 54.8018 32.5977" fill="#353642"></path><path d="M65.0117 11.8607V44.3559H71.6189V37.4653V11.8607H65.0117Z" fill="#353642"></path><path d="M155.753 11.8607V35.8364C155.753 39.1457 156.374 41.4531 157.711 42.8673C158.885 44.1069 160.806 44.9142 163.093 44.9142C165.057 44.9142 166.978 44.5363 167.885 44.2071L167.805 39.0455C167.127 39.203 166.351 39.3375 165.286 39.3375C163.03 39.3375 162.286 37.909 162.286 34.9375V25.7594H168.04V19.5501H162.286V11.8607" fill="#353642"></path><path d="M138.676 19.9501V44.3666H145.506V31.862C145.506 31.1893 145.549 30.6081 145.655 30.0699C146.165 27.4333 148.166 25.7643 151.049 25.7643C151.853 25.7643 152.4 25.8531 153.007 25.9475V19.5464C152.497 19.4548 152.151 19.4061 151.524 19.4061C148.967 19.4061 146.07 21.0293 144.848 24.5648H144.679V19.9501" fill="#353642"></path><path d="M75.4561 19.9501V44.3666H82.1118V30.0356C82.1118 29.3628 82.1863 28.6758 82.4239 28.0545C82.965 26.6031 84.3077 24.9227 86.4633 24.9227C89.1428 24.9227 90.4082 27.1843 90.4082 30.4478V44.3666H97.047V29.8638C97.047 29.2311 97.1358 28.4553 97.3217 27.8942C97.8542 26.2481 99.3085 24.9227 101.318 24.9227C104.026 24.9227 105.338 27.1356 105.338 30.9831V44.3666H111.97V29.9697C111.97 22.4063 108.123 19.4061 103.754 19.4061C101.834 19.4061 100.305 19.8785 98.9306 20.7259C97.7683 21.4387 96.7493 22.4435 95.8359 23.7575H95.7358C94.6852 21.1295 92.2175 19.4061 88.9939 19.4061C84.8602 19.4061 82.9822 21.4931 81.8772 23.2565H81.7769V19.9501" fill="#353642"></path><path d="M203.786 18.8542C205.092 18.8542 206.191 18.1728 206.334 17.2968L207.628 2.63947C207.628 1.18805 205.919 0 203.786 0C201.642 0 199.944 1.18805 199.944 2.63947L201.25 17.2968C201.387 18.1728 202.481 18.8542 203.786 18.8542Z" fill="#353642"></path><path d="M195.847 23.4406C196.494 22.2955 196.457 21.0244 195.758 20.4576L183.677 12.0096C182.421 11.2767 180.54 12.1499 179.463 13.9992C178.39 15.8457 178.607 17.9183 179.838 18.6369L193.213 24.8376C194.069 25.1583 195.188 24.5628 195.847 23.4291" fill="#353642"></path><path d="M211.724 23.4286C212.408 24.5622 213.528 25.1577 214.361 24.8542L227.735 18.6363C228.978 17.9034 229.164 15.8508 228.113 14.0043C227.04 12.155 225.148 11.2876 223.894 12.0061L211.81 20.4456C211.14 21.021 211.091 22.2978 211.738 23.44" fill="#353642"></path><path d="M203.786 37.163C205.092 37.163 206.191 37.8443 206.334 38.7203L207.628 53.3777C207.628 54.8291 205.919 56.0057 203.786 56.0057C201.642 56.0057 199.944 54.8291 199.944 53.3777L201.25 38.7203C201.387 37.8443 202.481 37.163 203.786 37.163Z" fill="#353642"></path><path d="M211.724 32.5894C212.408 31.4529 213.528 30.846 214.361 31.1752L227.735 37.3817C228.978 38.1002 229.164 40.17 228.113 42.0193C227.04 43.8544 225.148 44.7275 223.894 44.0089L211.81 35.5581C211.14 34.9884 211.091 33.7173 211.738 32.5894" fill="#353642"></path><path d="M195.847 32.5768C196.494 33.7191 196.457 34.9873 195.758 35.5598L183.677 43.9964C182.421 44.7293 180.54 43.8533 179.463 42.0182C178.39 40.1717 178.607 38.0991 179.838 37.3805L193.213 31.1741C194.069 30.8477 195.188 31.4489 195.847 32.5768Z" fill="#353642"></path><path d="M231.649 42.7227H231.815C232.041 42.7227 232.133 42.7943 232.159 42.9746C232.207 43.175 232.233 43.3096 232.282 43.3668H232.711C232.674 43.3239 232.625 43.2151 232.6 42.9632C232.551 42.7456 232.439 42.6225 232.282 42.5796V42.5395C232.499 42.4908 232.625 42.3448 232.625 42.1645C232.625 42.0013 232.551 41.8839 232.476 41.8095C232.333 41.7408 232.196 41.6864 231.893 41.6864C231.623 41.6864 231.426 41.7093 231.268 41.7465V43.3668H231.649V42.7227ZM231.661 41.9841L231.855 41.9584C232.084 41.9584 232.207 42.0643 232.207 42.2132C232.207 42.3792 232.041 42.4565 231.83 42.4565H231.661V41.9841ZM231.904 40.8848C230.965 40.8848 230.221 41.6177 230.221 42.5166C230.221 43.4384 230.965 44.1713 231.904 44.1713C232.854 44.1713 233.576 43.4384 233.576 42.5166C233.576 41.6177 232.854 40.8848 231.904 40.8848ZM231.904 41.214C232.625 41.214 233.161 41.798 233.161 42.5166C233.161 43.2409 232.625 43.8421 231.904 43.8306C231.183 43.8306 230.636 43.2409 230.636 42.5166C230.636 41.798 231.183 41.214 231.893 41.214" fill="#353642"></path></g><defs><clipPath id="clip0_558_989"><rect width="234" height="56" fill="white"></rect></clipPath></defs></svg>