<svg xmlns="http://www.w3.org/2000/svg" width="310" height="68" viewBox="0 0 310 68" fill="none"><g clip-path="url(#clip0_5209_1775)"><path d="M93.397 54.6913H85.8008V8.51415H93.397V54.6913ZM115.186 54.6913H91.0482V47.7448H115.186V54.6913ZM126.131 54.6913H118.884V23.057H126.131V54.6913ZM122.483 17.2099C121.25 17.2099 120.217 16.7934 119.384 15.9605C118.585 15.1275 118.185 14.0947 118.185 12.862C118.185 11.6293 118.585 10.5965 119.384 9.76353C120.217 8.93061 121.25 8.51415 122.483 8.51415C123.782 8.51415 124.815 8.93061 125.581 9.76353C126.381 10.5965 126.781 11.6293 126.781 12.862C126.781 14.0947 126.381 15.1275 125.581 15.9605C124.815 16.7934 123.782 17.2099 122.483 17.2099ZM143.522 54.6913H136.276V18.859C136.276 16.4269 136.809 14.2946 137.875 12.4622C138.975 10.6298 140.474 9.18049 142.373 8.11435C144.305 7.04821 146.521 6.51514 149.02 6.51514C150.952 6.51514 152.601 6.84831 153.967 7.51464C155.333 8.18098 156.599 9.13051 157.765 10.3632L153.118 15.0109C152.584 14.5112 152.001 14.0947 151.368 13.7616C150.769 13.4617 149.986 13.3118 149.02 13.3118C147.254 13.3118 145.888 13.7949 144.922 14.7611C143.989 15.6939 143.522 17.0433 143.522 18.8091V54.6913ZM153.118 29.6037H128.68V23.007H153.118V29.6037ZM169.31 55.341C166.144 55.341 163.296 54.6414 160.764 53.2421C158.265 51.7761 156.266 49.7938 154.767 47.295C153.301 44.7962 152.568 41.981 152.568 38.8492C152.568 35.7174 153.301 32.9188 154.767 30.4533C156.199 27.9545 158.148 25.9722 160.614 24.5062C163.113 23.0736 165.895 22.3573 168.96 22.3573C171.892 22.3573 174.474 23.0403 176.706 24.4063C179.005 25.7723 180.787 27.638 182.053 30.0035C183.386 32.369 184.052 35.0677 184.052 38.0995C184.052 38.6326 184.002 39.1823 183.902 39.7487C183.869 40.2818 183.786 40.8815 183.652 41.5478H157.665V35.6008H179.904L177.206 37.9996C177.106 36.0672 176.723 34.4347 176.056 33.102C175.39 31.7693 174.44 30.7532 173.208 30.0535C172.042 29.3539 170.576 29.004 168.81 29.004C166.944 29.004 165.345 29.4038 164.012 30.2034C162.646 31.003 161.58 32.1192 160.814 33.5518C160.081 34.9844 159.714 36.6836 159.714 38.6493C159.714 40.615 160.097 42.3474 160.864 43.8467C161.663 45.346 162.796 46.512 164.262 47.345C165.695 48.1446 167.36 48.5444 169.26 48.5444C170.892 48.5444 172.391 48.2612 173.757 47.6948C175.157 47.1284 176.339 46.2955 177.306 45.196L181.953 49.8437C180.387 51.6428 178.505 53.0088 176.306 53.9417C174.107 54.8746 171.775 55.341 169.31 55.341ZM197.895 55.341C196.13 55.341 194.43 55.1245 192.798 54.6913C191.199 54.1916 189.716 53.5252 188.35 52.6923C186.984 51.8261 185.785 50.7766 184.752 49.5439L189.4 44.8962C190.499 46.1955 191.748 47.1617 193.148 47.7947C194.614 48.4278 196.246 48.7443 198.045 48.7443C199.645 48.7443 200.877 48.4944 201.744 47.9946C202.576 47.5282 202.993 46.8286 202.993 45.8957C202.993 44.9295 202.593 44.1799 201.793 43.6468C200.994 43.1137 199.961 42.6806 198.695 42.3474C197.462 41.9476 196.146 41.5478 194.747 41.148C193.381 40.7482 192.048 40.2152 190.749 39.5488C189.516 38.8492 188.517 37.9163 187.75 36.7502C186.951 35.5508 186.551 34.0016 186.551 32.1025C186.551 30.1035 187.017 28.371 187.95 26.9051C188.917 25.4391 190.249 24.323 191.948 23.5567C193.714 22.7571 195.813 22.3573 198.245 22.3573C200.777 22.3573 203.01 22.8237 204.942 23.7566C206.941 24.6229 208.59 25.9555 209.889 27.7546L205.292 32.4023C204.359 31.2363 203.293 30.37 202.093 29.8036C200.927 29.2372 199.578 28.9541 198.045 28.9541C196.579 28.9541 195.447 29.1706 194.647 29.6037C193.881 30.0369 193.498 30.6699 193.498 31.5028C193.498 32.4023 193.881 33.0853 194.647 33.5518C195.447 34.0515 196.463 34.468 197.696 34.8012C198.962 35.1676 200.278 35.5675 201.644 36.0006C203.043 36.4004 204.359 36.9668 205.592 37.6997C206.891 38.4327 207.924 39.4156 208.69 40.6483C209.49 41.8144 209.889 43.3636 209.889 45.296C209.889 48.3944 208.823 50.8432 206.691 52.6423C204.525 54.4415 201.594 55.341 197.895 55.341ZM225.682 54.6913H218.435V9.81351H225.682V54.6913ZM233.278 29.6537H210.839V23.057H233.278V29.6537ZM250.919 55.0412H246.471L232.928 23.057H240.924L250.12 46.4954H247.821L257.616 23.057H265.662L250.919 55.0412ZM245.022 67.8848H236.976L246.821 47.6448L250.919 55.0412L245.022 67.8848ZM274.508 54.6913H267.211V7.16482H274.508V54.6913ZM294.947 55.341C291.782 55.341 288.917 54.6414 286.352 53.2421C283.853 51.8094 281.854 49.8271 280.355 47.295C278.922 44.7962 278.206 41.981 278.206 38.8492C278.206 35.7507 278.922 32.9687 280.355 30.5033C281.821 27.9712 283.786 25.9888 286.252 24.5562C288.751 23.0903 291.516 22.3573 294.548 22.3573C297.48 22.3573 300.078 23.0403 302.344 24.4063C304.609 25.7723 306.392 27.638 307.691 30.0035C308.991 32.4023 309.64 35.1177 309.64 38.1495C309.64 38.6826 309.607 39.2323 309.54 39.7987C309.474 40.3318 309.374 40.9148 309.24 41.5478H283.253V35.6507H305.492L302.794 37.9996C302.694 36.0672 302.327 34.4347 301.694 33.102C301.028 31.8026 300.078 30.8031 298.846 30.1035C297.646 29.4038 296.164 29.054 294.398 29.054C292.565 29.054 290.966 29.4371 289.6 30.2034C288.234 31.003 287.185 32.1358 286.452 33.6018C285.685 35.0011 285.302 36.6836 285.302 38.6493C285.302 40.6483 285.702 42.3974 286.502 43.8967C287.301 45.3959 288.417 46.562 289.85 47.3949C291.316 48.1612 292.998 48.5444 294.897 48.5444C296.497 48.5444 297.979 48.2612 299.345 47.6948C300.778 47.1284 301.977 46.2955 302.944 45.196L307.541 49.8937C306.009 51.6928 304.143 53.0588 301.944 53.9917C299.745 54.8912 297.413 55.341 294.947 55.341Z" fill="white"></path><path d="M31.1224 0.494904C27.3935 0.90406 25.2919 1.34112 22.5673 2.30822C18.764 3.66589 15.4721 5.535 12.2639 8.18523C11.0179 9.19883 8.85117 11.4213 7.77248 12.7697C3.44841 18.1538 1.10505 24.1331 0.47271 31.3585C0.27743 33.6089 0.500608 37.2262 0.993458 39.8207C1.98846 45.0653 4.27603 50.031 7.64229 54.2807C8.87907 55.8337 11.3433 58.2979 12.8963 59.5347C18.1874 63.7286 24.3434 66.1463 31.1131 66.695C32.6661 66.8159 36.4415 66.8159 36.5159 66.695C36.5438 66.6392 36.7298 66.602 36.9158 66.602C37.4644 66.602 40.0402 66.1742 41.3235 65.8674C46.0289 64.7422 50.3994 62.6034 54.2771 59.5347C55.8394 58.2886 58.3129 55.8151 59.5311 54.2807C64.0876 48.506 66.5426 41.7642 66.7565 34.3807C66.9053 29.4615 65.7801 24.0959 63.6413 19.5394C61.363 14.6574 57.662 10.1473 53.3286 6.93916C49.5811 4.15873 45.2477 2.19663 40.6912 1.19233C37.669 0.522797 33.596 0.234528 31.1224 0.494904ZM36.051 4.11224C41.9838 4.62369 47.4981 6.82757 52.0918 10.5193C53.3286 11.5143 55.207 13.3555 56.2671 14.6202C59.9961 19.0651 62.1999 24.1517 62.9904 30.1496C63.1484 31.3399 63.1484 35.9709 62.9904 37.0774C62.0976 43.3636 59.9124 48.3386 56.0625 52.8208C51.6455 57.9632 45.6941 61.4317 39.194 62.6499C37.5016 62.9661 37.2133 63.0032 37.2226 62.9103C37.2319 62.8731 37.6783 62.4174 38.2269 61.906C39.0453 61.1341 47.7678 52.7836 49.0975 51.491L49.4974 51.1097L48.2513 49.8079L47.0053 48.5153L45.2012 50.2449C38.4873 56.6985 36.5996 58.4839 36.5438 58.4467C36.4973 58.4281 36.4694 56.8101 36.4694 54.848V51.2957L42.5138 45.4838C45.8429 42.2942 48.7814 39.4766 49.0325 39.2348L49.5067 38.7885L48.3164 37.5517C47.6562 36.8729 47.0703 36.3056 47.0239 36.2963C46.9216 36.287 45.908 37.2448 40.0867 42.8615C38.1618 44.712 36.5624 46.1998 36.5252 46.1719C36.4973 46.1347 36.4694 40.5646 36.4694 33.7856V21.455L34.7026 21.4271L32.9358 21.4085V30.0101C32.9358 34.7434 32.9079 38.6118 32.88 38.6118C32.8521 38.6118 31.8571 37.6726 30.6761 36.5288C29.4858 35.385 26.9472 32.9394 25.0316 31.0981L21.5444 27.7412L20.3169 29.0151C19.6381 29.7126 19.0801 30.3077 19.0801 30.3356C19.0801 30.3635 22.1953 33.3764 26.008 37.0309L32.9358 43.6798V47.7993C32.9358 50.2542 32.8986 51.9095 32.8521 51.8909C32.8056 51.8723 30.2483 49.4452 27.1703 46.4881C24.0923 43.531 21.5444 41.1225 21.4979 41.1411C21.4607 41.1597 20.8842 41.727 20.2332 42.4058L19.043 43.6519L19.9264 44.5074C21.5723 46.1161 32.1453 56.2428 32.5452 56.5962L32.9358 56.9496V60.074V63.1892L31.8199 63.1241C24.6782 62.7243 17.8806 59.6835 12.8126 54.6434C7.96776 49.8172 5.10365 44.0145 4.20164 37.1704C4.03425 35.8965 3.97846 32.7255 4.09935 31.2283C4.74098 23.2869 8.47921 16.0615 14.6166 10.9099C19.2382 7.03215 24.9758 4.65158 30.9365 4.13084C32.2662 4.00995 34.7491 4.00065 36.051 4.11224Z" fill="#FFE400"></path></g><defs><clipPath id="clip0_5209_1775"><rect width="310" height="68" fill="white"></rect></clipPath></defs></svg>