<svg xmlns="http://www.w3.org/2000/svg" width="216" height="98" viewBox="0 0 216 98" fill="none"><g clip-path="url(#clip0_5184_32205)"><path d="M98 49C98 76.062 76.062 98 49 98C21.938 98 0 76.062 0 49C0 21.938 21.938 0 49 0C76.062 0 98 21.938 98 49Z" fill="#FDE2D5"></path><path d="M45.6489 25.098H53.3024V63.6248H71.3335V70.5H45.6489V25.098Z" fill="#232323"></path><path d="M79.63 58.8252C79.63 60.944 80.084 62.5871 80.9921 63.7546C81.9001 64.922 83.3054 65.5058 85.208 65.5058C86.5052 65.5058 87.651 65.2247 88.6455 64.6626C89.6401 64.1005 90.4184 63.3222 90.9805 62.3276C91.5426 61.3331 91.8237 60.1656 91.8237 58.8252V40.6644H98.8286V70.5H91.8237V65.8949C90.8724 67.6245 89.6401 68.9434 88.1267 69.8514C86.6565 70.7162 84.8837 71.1486 82.8081 71.1486C79.4786 71.1486 76.9059 70.1108 75.0898 68.0353C73.3169 65.9598 72.4305 63.1492 72.4305 59.6035V40.6644H79.63V58.8252Z" fill="#232323"></path><path d="M122.368 40.6644H130.216L119.514 55.1282L130.864 70.5H123.016L115.882 60.2521L108.747 70.5H100.704L112.12 55.1282L101.353 40.6644H109.396L115.882 50.0042L122.368 40.6644Z" fill="#232323"></path><path d="M139.301 58.8252C139.301 60.944 139.755 62.5871 140.663 63.7546C141.571 64.922 142.977 65.5058 144.879 65.5058C146.176 65.5058 147.322 65.2247 148.317 64.6626C149.311 64.1005 150.09 63.3222 150.652 62.3276C151.214 61.3331 151.495 60.1656 151.495 58.8252V40.6644H158.5V70.5H151.495V65.8949C150.544 67.6245 149.311 68.9434 147.798 69.8514C146.328 70.7162 144.555 71.1486 142.479 71.1486C139.15 71.1486 136.577 70.1108 134.761 68.0353C132.988 65.9598 132.102 63.1492 132.102 59.6035V40.6644H139.301V58.8252Z" fill="#232323"></path><path d="M170.996 40.6644V70.5H164.056V40.6644H170.996ZM179.882 48.1233C179.277 47.6044 178.671 47.2153 178.066 46.9558C177.504 46.6964 176.79 46.5667 175.926 46.5667C174.758 46.5667 173.807 46.8693 173.072 47.4747C172.337 48.0801 171.796 48.9232 171.45 50.0042C171.148 51.042 170.996 52.2743 170.996 53.7013L168.661 52.3392C168.661 49.961 169.094 47.8639 169.958 46.0478C170.866 44.1885 172.012 42.7183 173.396 41.6373C174.823 40.5131 176.293 39.9509 177.807 39.9509C178.887 39.9509 179.904 40.1239 180.855 40.4698C181.806 40.8157 182.628 41.3995 183.32 42.221L179.882 48.1233Z" fill="#232323"></path><path d="M215.947 40.6644L196.489 84.7692H189.03L196.878 66.9976L184.814 40.6644H192.857L202.391 64.2734L199.083 64.0789L208.423 40.6644H215.947Z" fill="#232323"></path></g><defs><clipPath id="clip0_5184_32205"><rect width="216" height="98" fill="white"></rect></clipPath></defs></svg>