<svg xmlns="http://www.w3.org/2000/svg" width="223" height="68" viewBox="0 0 223 68" fill="none"><g clip-path="url(#clip0_5220_1053)"><path d="M15.6412 66.2085C10.727 66.2085 7.04126 64.8854 4.58413 62.2393C2.127 59.4041 0.898438 55.4349 0.898438 50.3316V46.6459H10.2544V51.0404C10.2544 55.1041 12.0028 57.136 15.4995 57.136C17.2006 57.136 18.4764 56.6635 19.3269 55.7184C20.1775 54.6789 20.6027 53.0723 20.6027 50.8987C20.6027 48.158 20.0357 45.7954 18.9016 43.8108C17.6731 41.8262 15.405 39.369 12.0973 36.4394C8.03357 32.8482 5.15116 29.5878 3.45007 26.6581C1.84349 23.7285 1.0402 20.4208 1.0402 16.7351C1.0402 11.7263 2.31601 7.85161 4.86765 5.11097C7.41928 2.37032 11.105 1 15.9247 1C20.7445 1 24.3357 2.37032 26.6983 5.11097C29.2499 7.85161 30.5258 11.7736 30.5258 16.8768V19.5702H21.028V16.3098C21.028 14.1362 20.6027 12.5296 19.7522 11.4901C18.9016 10.545 17.6731 10.0725 16.0665 10.0725C12.7588 10.0725 11.105 12.0571 11.105 16.0263C11.105 18.3889 11.672 20.5625 12.8061 22.5471C14.1291 24.5317 16.3973 26.9416 19.6104 29.7768C23.8632 33.4625 26.7456 36.7702 28.2576 39.6998C29.8642 42.6295 30.6675 46.0789 30.6675 50.0481C30.6675 55.3404 29.3445 59.3569 26.6983 62.0975C24.1467 64.8381 20.461 66.2085 15.6412 66.2085ZM50.7971 66.2085C45.8828 66.2085 42.1499 64.8381 39.5982 62.0975C36.9521 59.3569 35.629 55.4349 35.629 50.3316V16.8768C35.629 11.7736 36.9521 7.85161 39.5982 5.11097C42.1499 2.37032 45.8828 1 50.7971 1C55.7114 1 59.4443 2.37032 61.9959 5.11097C64.6421 7.85161 65.9652 11.7736 65.9652 16.8768V50.3316C65.9652 55.4349 64.6421 59.3569 61.9959 62.0975C59.4443 64.8381 55.7114 66.2085 50.7971 66.2085ZM50.7971 57.136C54.1993 57.136 55.9004 55.0569 55.9004 50.8987V16.3098C55.9004 12.1516 54.1993 10.0725 50.7971 10.0725C47.3004 10.0725 45.5521 12.1516 45.5521 16.3098V50.8987C45.5521 55.0569 47.3004 57.136 50.7971 57.136ZM155.698 65.3579V1.85055H170.44C175.544 1.85055 179.277 3.07911 181.639 5.53624C184.002 7.89887 185.183 11.5373 185.183 16.4516V20.4208C185.183 26.9416 183.01 31.0999 178.662 32.8954V33.0372C181.12 33.7932 182.821 35.3053 183.766 37.5734C184.805 39.7471 185.325 42.724 185.325 46.5042V57.703C185.325 59.4986 185.372 60.9634 185.467 62.0975C185.656 63.1371 185.987 64.2239 186.459 65.3579H176.253C175.874 64.3184 175.638 63.3733 175.544 62.5228C175.449 61.5777 175.402 59.9239 175.402 57.5613V45.9371C175.402 43.0075 174.882 40.9756 173.843 39.8416C172.992 38.7075 171.386 38.1405 169.023 38.1405H165.621V65.3579H155.698ZM165.762 29.068H169.306C171.291 29.068 172.803 28.5482 173.843 27.5087C174.788 26.4691 175.26 24.768 175.26 22.4054V17.4439C175.26 15.1758 174.835 13.5219 173.984 12.4824C173.228 11.4428 172 10.923 170.299 10.923H165.762V29.068ZM206.73 66.2085C201.816 66.2085 198.036 64.8381 195.39 62.0975C192.838 59.3569 191.562 55.4349 191.562 50.3316V16.8768C191.562 11.7736 192.838 7.85161 195.39 5.11097C198.036 2.37032 201.816 1 206.73 1C211.645 1 215.378 2.37032 217.929 5.11097C220.575 7.85161 221.898 11.7736 221.898 16.8768V50.3316C221.898 55.4349 220.575 59.3569 217.929 62.0975C215.378 64.8381 211.645 66.2085 206.73 66.2085ZM206.73 57.136C210.133 57.136 211.834 55.0569 211.834 50.8987V16.3098C211.834 12.1516 210.133 10.0725 206.73 10.0725C203.234 10.0725 201.485 12.1516 201.485 16.3098V50.8987C201.485 55.0569 203.234 57.136 206.73 57.136Z" fill="#2D2928"></path><path fill-rule="evenodd" clip-rule="evenodd" d="M111.047 20.2514C122.45 8.52964 150.96 29.0414 111.047 55.4165C71.1336 29.0439 99.6439 8.52964 111.047 20.2514Z" fill="#FD0071"></path></g><defs><clipPath id="clip0_5220_1053"><rect width="222" height="68" fill="white" transform="translate(0.5)"></rect></clipPath></defs></svg>