<svg xmlns="http://www.w3.org/2000/svg" width="200" height="148" viewBox="0 0 200 148" fill="none"><path d="M74 2C113.779 2 146 34.221 146 74C146 113.779 113.779 146 74 146C34.221 146 2 113.779 2 74C2 34.221 34.221 2 74 2Z" fill="#FFEA00"></path><path d="M120.4 95.0003H112.2V79.6003C112.2 78.9336 112.133 78.0003 112 76.8003C112 75.7336 111.733 74.6003 111.2 73.4003C110.8 72.2003 110.133 71.2003 109.2 70.4003C108.267 69.7336 106.933 69.4003 105.2 69.4003C104.533 69.4003 103.8 69.467 103 69.6003C102.2 69.867 101.467 70.3336 100.8 71.0003C100 71.5336 99.4 72.4003 99 73.6003C98.6 74.9336 98.4 76.6003 98.4 78.6003L93.6 76.4003C93.6 73.7336 94.1333 71.3336 95.2 69.2003C96.2667 66.9336 97.8 65.1336 99.8 63.8003C101.933 62.3336 104.6 61.6003 107.8 61.6003C110.333 61.6003 112.4 62.067 114 63.0003C115.6 63.8003 116.867 64.867 117.8 66.2003C118.6 67.5336 119.2 68.9336 119.6 70.4003C120 71.7336 120.267 73.0003 120.4 74.2003C120.4 75.4003 120.4 76.267 120.4 76.8003V95.0003ZM98.4 95.0003H90V51.8003H97.2V74.0003H98.4V95.0003ZM172.4 95.0003H164.2V75.8003C164.2 73.667 163.733 72.0003 162.8 70.8003C161.733 69.6003 160.333 69.0003 158.6 69.0003C157.4 69.0003 156.4 69.3336 155.6 70.0003C154.8 70.4003 154.133 71.1336 153.6 72.2003C153.2 73.1336 153 74.2003 153 75.4003L149.4 73.2003C149.4 70.9336 149.933 68.9336 151 67.2003C152.067 65.467 153.467 64.1336 155.2 63.2003C157.067 62.267 159.067 61.8003 161.2 61.8003C164.933 61.8003 167.733 62.9336 169.6 65.2003C171.467 67.3336 172.4 70.2003 172.4 73.8003V95.0003ZM133.4 95.0003H125.2V62.6003H132.4V73.2003H133.4V95.0003ZM153 95.0003H144.8V76.0003C144.8 73.867 144.267 72.2003 143.2 71.0003C142.267 69.8003 140.867 69.2003 139 69.2003C137.267 69.2003 135.933 69.8003 135 71.0003C133.933 72.067 133.4 73.5336 133.4 75.4003L130 73.0003C130 70.867 130.533 69.0003 131.6 67.4003C132.667 65.667 134.067 64.3336 135.8 63.4003C137.667 62.3336 139.667 61.8003 141.8 61.8003C144.333 61.8003 146.467 62.3336 148.2 63.4003C149.8 64.6003 151 66.067 151.8 67.8003C152.6 69.667 153 71.667 153 73.8003V95.0003Z" fill="#090909"></path><rect x="180" y="77.811" width="19.8828" height="5.89355" fill="#090909"></rect></svg>