<svg xmlns="http://www.w3.org/2000/svg" width="100" height="112" viewBox="0 0 100 112" fill="none"><g clip-path="url(#clip0_5215_1032)"><path d="M50 0.400391C77.6 0.400391 100 22.8004 100 50.4004C100 78.1004 77.6 100.5 50 100.5C22.4 100.5 0 78.1004 0 50.4004C0 22.8004 22.4 0.400391 50 0.400391Z" fill="#1C1D1F"></path><path d="M41.8992 111.8C52.9992 111.8 59.6992 106.6 62.6992 100.7H63.2992V110.4H79.3992V62.9C79.3992 44.2 64.0992 38.5 50.5992 38.5C35.5992 38.5 24.1992 45.2 20.4992 58.1L36.0992 60.3C37.7992 55.5 42.4992 51.3 50.5992 51.3C58.3992 51.3 62.6992 55.3 62.6992 62.3V62.5C62.6992 67.3 57.5992 67.6 45.0992 68.9C31.3992 70.4 18.1992 74.5 18.1992 90.5C18.1992 104.4 28.3992 111.8 41.8992 111.8ZM46.2992 99.5C39.2992 99.5 34.2992 96.4 34.2992 90.2C34.2992 83.8 39.8992 81.1 47.3992 80.1C51.7992 79.5 60.4992 78.3 62.6992 76.6V84.9C62.6992 92.8 56.2992 99.5 46.2992 99.5Z" fill="white"></path><path d="M70 29.4004C76.1 29.4004 81 34.3004 81 40.4004C81 46.5004 76.1 51.4004 70 51.4004C63.9 51.4004 59 46.5004 59 40.4004C59 34.3004 63.9 29.4004 70 29.4004Z" fill="#CCFF00"></path></g><defs><clipPath id="clip0_5215_1032"><rect width="100" height="112" fill="white" transform="translate(0 0.000488281)"></rect></clipPath></defs></svg>