<svg xmlns="http://www.w3.org/2000/svg" width="198" height="92" viewBox="0 0 198 92" fill="none"><g clip-path="url(#clip0_5215_1007)"><path d="M198 0V91.9286H0V0H198Z" fill="#2D2C2A"></path><path d="M115.265 62.4644H104.305V29.4644H115.265C117.544 29.4644 119.665 29.8965 121.63 30.7608C123.673 31.6251 125.44 32.8036 126.933 34.2965C128.426 35.7894 129.605 37.5572 130.469 39.6001C131.333 41.5644 131.765 43.6858 131.765 45.9644C131.765 48.2429 131.333 50.3644 130.469 52.3286C129.605 54.3715 128.426 56.1394 126.933 57.6322C125.44 59.1251 123.673 60.3036 121.63 61.1679C119.665 62.0322 117.544 62.4644 115.265 62.4644ZM110.905 35.9465V55.9822H115.265C116.601 55.9822 117.898 55.7072 119.155 55.1572C120.333 54.6858 121.394 53.9786 122.337 53.0358C123.28 52.0929 123.987 51.0322 124.458 49.8536C125.008 48.6751 125.283 47.3786 125.283 45.9644C125.283 44.5501 125.008 43.2536 124.458 42.0751C123.987 40.8965 123.28 39.8358 122.337 38.8929C121.394 37.9501 120.333 37.2429 119.155 36.7715C117.976 36.2215 116.68 35.9465 115.265 35.9465H110.905ZM132.473 62.4644L144.494 29.4644H151.801L163.823 62.4644H156.869L154.983 57.0429H141.312L139.426 62.4644H132.473ZM148.03 38.4215L143.669 50.4429H152.508L148.03 38.4215Z" fill="white"></path><path d="M27.1071 44.7856V48.3214H0V44.7856H27.1071Z" fill="white"></path></g><defs><clipPath id="clip0_5215_1007"><rect width="198" height="91.9286" fill="white"></rect></clipPath></defs></svg>