<svg xmlns="http://www.w3.org/2000/svg" width="250" height="68" viewBox="0 0 250 68" fill="none"><path d="M1 55.35H21.3995C28.3957 55.35 33.2747 51.5389 33.2747 44.9846V44.4322C33.2747 38.8352 29.5188 36.6443 27.0517 35.9815V34.9689C29.4636 34.2325 33.0537 32.06 33.0537 26.6287V26.0579C33.0537 19.9639 28.3405 16.1528 21.1786 16.1528H1V22.6519H6.15511V48.8509H1V55.35ZM13.5564 32.2809V22.8728H20.3869C23.5168 22.8728 25.6525 24.493 25.6525 27.2915V27.8622C25.6525 30.6607 23.4616 32.2809 20.3869 32.2809H13.5564ZM13.5564 48.63V39.0009H20.4974C23.7561 39.0009 25.8918 40.6211 25.8918 43.5301V44.1008C25.8918 47.0098 23.7009 48.63 20.4974 48.63H13.5564ZM37.049 55.35H44.1004V39.5533C44.1004 35.6317 46.678 33.7354 50.2681 33.7354H53.7478V27.4572H50.3786C47.801 27.4572 45.7758 28.4698 45.0026 30.7159H43.9899V27.5676H37.049V55.35ZM64.6656 56.1417C70.5019 56.1417 72.2326 53.0118 72.7297 51.6126H73.7975V51.6678C73.7975 53.8955 75.8227 55.35 78.566 55.35H83.2608V49.5321H81.0331C80.0205 49.5321 79.4681 48.9798 79.4681 47.8567V37.4912C79.4681 30.5502 74.8654 26.7944 67.5746 26.7944C60.3574 26.7944 56.712 30.4398 55.368 34.6375L61.8671 36.8284C62.3642 34.3061 63.9292 32.5018 67.4641 32.5018C71.0543 32.5018 72.6192 34.4166 72.6192 36.9941V38.5591H64.997C58.7188 38.5591 54.2449 41.5233 54.2449 47.2307C54.2449 52.9566 58.7188 56.1417 64.6656 56.1417ZM65.8992 50.4342C62.8797 50.4342 61.2964 49.035 61.2964 47.0098C61.2964 45.003 62.8797 43.8247 65.5125 43.8247H72.6192V44.377C72.6192 48.0776 69.8207 50.4342 65.8992 50.4342ZM85.912 55.35H92.9635V41.2471C92.9635 36.092 95.4858 33.0726 99.794 33.0726C103.605 33.0726 105.741 35.1346 105.741 39.3508V55.35H112.792V38.78C112.792 31.8943 108.484 27.1258 101.985 27.1258C96.9955 27.1258 94.7494 29.3167 93.8656 31.2315H92.853V27.5861H85.912V55.35ZM129.104 56.1233C134.149 56.1233 136.561 54.1165 137.85 51.9808H138.862V55.35H145.803V16.1528H138.752V30.7712H137.739C136.561 28.8012 134.149 26.7944 129.104 26.7944C122.384 26.7944 116.548 31.9311 116.548 41.0078V41.9099C116.548 50.9866 122.44 56.1233 129.104 56.1233ZM131.24 49.974C126.914 49.974 123.618 47.1202 123.618 41.7442V41.1735C123.618 35.7974 126.858 32.9437 131.24 32.9437C135.604 32.9437 138.862 35.7974 138.862 41.1735V41.7442C138.862 47.1202 135.548 49.974 131.24 49.974ZM154.659 24.3273C157.237 24.3273 159.188 22.523 159.188 19.835C159.188 17.147 157.237 15.3611 154.659 15.3611C152.082 15.3611 150.112 17.147 150.112 19.835C150.112 22.523 152.082 24.3273 154.659 24.3273ZM151.124 55.35H158.194V27.5676H151.124V55.35ZM163.515 55.35H170.566V41.2471C170.566 36.092 173.089 33.0726 177.415 33.0726C181.208 33.0726 183.344 35.1346 183.344 39.3323V55.35H190.413V38.78C190.413 31.8943 186.087 27.1258 179.588 27.1258C174.598 27.1258 172.371 29.3167 171.468 31.213H170.456V27.5676H163.515V55.35ZM194.169 41.5785C194.169 50.3238 199.987 55.4789 206.818 55.4789C211.918 55.4789 214.219 53.3432 215.342 51.5021H216.355V58.7192C216.355 59.8423 215.784 60.3947 214.79 60.3947H198.643V66.5624H217.238C220.939 66.5624 223.406 64.0953 223.406 60.2842V27.5861H216.465V30.9369H215.453C214.219 29.0405 211.862 26.7944 206.818 26.7944C199.932 26.7944 194.169 31.9495 194.169 40.6948V41.5785ZM208.843 49.2928C204.535 49.2928 201.221 46.439 201.221 41.3944V40.8421C201.221 35.7974 204.48 32.9437 208.843 32.9437C213.206 32.9437 216.465 35.7974 216.465 40.8421V41.3944C216.465 46.439 213.151 49.2928 208.843 49.2928Z" fill="#323232"></path><path d="M247.881 1.77704C248.049 1.94479 248.163 2.15806 248.211 2.39035C248.258 2.62263 248.236 2.86371 248.147 3.08361L237.068 36.2812C236.944 36.5912 236.737 36.8609 236.469 37.0607C236.202 37.2605 235.884 37.3827 235.552 37.4137C235.219 37.4447 234.885 37.3834 234.585 37.2365C234.285 37.0896 234.032 36.8629 233.852 36.5812L228.163 22.4954L214.077 15.806C213.795 15.6269 213.567 15.3733 213.42 15.0732C213.273 14.773 213.211 14.4381 213.242 14.1052C213.273 13.7723 213.396 13.4544 213.596 13.1867C213.796 12.919 214.066 12.7118 214.377 12.588L246.575 1.51331C246.795 1.42478 247.036 1.40281 247.268 1.45013C247.5 1.49744 247.734 1.63042 247.902 1.79792L247.881 1.77704ZM230.578 21.7889L235.258 34.2851L243.71 7.65662L230.578 21.7889ZM241.999 5.94597L216.371 14.3978L228.869 20.0758L241.999 5.94597Z" fill="#323232" stroke="#323232" stroke-width="1.00001"></path></svg>