<svg xmlns="http://www.w3.org/2000/svg" width="134" height="48" viewBox="0 0 134 48" fill="none"><path d="M19.8308 1.6001H11.877L0.5 43.6849H8.5545L19.8308 1.6001ZM38.5575 1.6001H30.503L19.126 43.5842H27.1805L38.5575 1.6001ZM87.4886 18.5146C86.3811 7.94302 78.528 2.00282 67.9565 2.00282C56.1768 2.00282 47.1154 9.95664 47.1154 24.5554C47.1154 38.9529 55.9754 47.108 67.9565 47.108C80.0382 47.108 86.6832 38.8522 87.4886 31.0997L76.7157 30.999C76.011 35.2276 72.7892 37.7447 68.1578 37.7447C61.9156 37.7447 57.8883 33.214 57.8883 24.5554C57.8883 16.0982 61.8149 11.2655 68.2585 11.2655C72.9905 11.2655 76.2123 14.0846 76.7157 18.5146H87.4886ZM133.5 24.5554C133.5 9.95664 124.338 2.00282 112.558 2.00282C100.678 2.00282 91.6166 9.95664 91.6166 24.5554C91.6166 38.9529 100.678 47.108 112.558 47.108C124.338 47.108 133.5 39.0535 133.5 24.5554ZM122.626 24.5554C122.626 33.1133 118.901 37.7447 112.558 37.7447C106.215 37.7447 102.389 33.1133 102.389 24.5554C102.389 15.8968 106.215 11.2655 112.558 11.2655C118.901 11.2655 122.626 15.8968 122.626 24.5554Z" fill="#2F2F2D"></path></svg>