<svg xmlns="http://www.w3.org/2000/svg" width="246" height="46" viewBox="0 0 246 46" fill="none"><g clip-path="url(#clip0_5192_32769)"><path d="M14.8 45.0002H0V0.200195H14.8C17.8667 0.200195 20.8 0.800195 23.6 2.00019C26.2667 3.06686 28.6 4.66686 30.6 6.80019C32.7333 8.80019 34.3333 11.2002 35.4 14.0002C36.6 16.6669 37.2 19.5335 37.2 22.6002C37.2 25.6669 36.6 28.6002 35.4 31.4002C34.3333 34.0669 32.7333 36.4002 30.6 38.4002C28.6 40.5335 26.2667 42.1335 23.6 43.2002C20.8 44.4002 17.8667 45.0002 14.8 45.0002ZM7.8 8.00019V37.2002H14.8C16.8 37.2002 18.6667 36.8002 20.4 36.0002C22.2667 35.3335 23.8667 34.3335 25.2 33.0002C26.5333 31.6669 27.5333 30.0669 28.2 28.2002C29 26.4669 29.4 24.6002 29.4 22.6002C29.4 20.6002 29 18.7335 28.2 17.0002C27.5333 15.2669 26.5333 13.6669 25.2 12.2002C23.8667 10.8669 22.2667 9.86686 20.4 9.2002C18.6667 8.4002 16.8 8.00019 14.8 8.00019H7.8ZM65.2 17.0002L65 13.0002H72.8V45.0002H65L64.6 41.0002C63.6667 42.4669 62.4667 43.6669 61 44.6002C59.6667 45.4002 58 45.8002 56 45.8002C53.6 45.8002 51.4 45.3335 49.4 44.4002C47.2667 43.6002 45.4 42.4002 43.8 40.8002C42.3333 39.2002 41.1333 37.4002 40.2 35.4002C39.2667 33.2669 38.8 31.0002 38.8 28.6002C38.8 26.3335 39.2667 24.2002 40.2 22.2002C41 20.2002 42.1333 18.4669 43.6 17.0002C45.2 15.4002 47 14.2002 49 13.4002C50.8667 12.6002 53 12.2002 55.4 12.2002C57.4 12.2002 59.2667 12.6669 61 13.6002C62.6 14.5335 64 15.6669 65.2 17.0002ZM55.8 38.4002C57.4 38.4002 58.8667 37.9335 60.2 37.0002C61.5333 36.2002 62.5333 35.1335 63.2 33.8002C63.8667 32.3335 64.2 30.7335 64.2 29.0002C64.2 27.2669 63.8667 25.6669 63.2 24.2002C62.5333 22.8669 61.5333 21.8002 60.2 21.0002C58.8667 20.0669 57.4 19.6002 55.8 19.6002C54.2 19.6002 52.6667 20.0669 51.2 21.0002C49.8667 21.8002 48.8 22.8669 48 24.2002C47.2 25.6669 46.8 27.2669 46.8 29.0002C46.8 30.7335 47.2 32.3335 48 33.8002C48.8 35.1335 49.9333 36.2002 51.4 37.0002C52.7333 37.9335 54.2 38.4002 55.8 38.4002ZM96 13.0002V20.8002H89.8V45.0002H82V20.8002H77.2V13.0002H82V3.00019H89.8V13.0002H96ZM124.2 17.0002L123.8 13.0002H131.6V45.0002H123.8L123.6 41.0002C122.667 42.4669 121.467 43.6669 120 44.6002C118.533 45.4002 116.867 45.8002 115 45.8002C112.6 45.8002 110.333 45.3335 108.2 44.4002C106.2 43.6002 104.4 42.4002 102.8 40.8002C101.2 39.2002 100 37.4002 99.2 35.4002C98.2667 33.2669 97.8 31.0002 97.8 28.6002C97.8 26.3335 98.2 24.2002 99 22.2002C99.9333 20.2002 101.133 18.4669 102.6 17.0002C104.2 15.4002 105.933 14.2002 107.8 13.4002C109.8 12.6002 111.933 12.2002 114.2 12.2002C116.333 12.2002 118.267 12.6669 120 13.6002C121.6 14.5335 123 15.6669 124.2 17.0002ZM114.8 38.4002C116.4 38.4002 117.867 37.9335 119.2 37.0002C120.4 36.2002 121.4 35.1335 122.2 33.8002C122.867 32.3335 123.2 30.7335 123.2 29.0002C123.2 27.2669 122.867 25.6669 122.2 24.2002C121.4 22.8669 120.4 21.8002 119.2 21.0002C117.867 20.0669 116.4 19.6002 114.8 19.6002C113.067 19.6002 111.533 20.0669 110.2 21.0002C108.867 21.8002 107.8 22.8669 107 24.2002C106.2 25.6669 105.8 27.2669 105.8 29.0002C105.8 30.7335 106.2 32.3335 107 33.8002C107.8 35.1335 108.867 36.2002 110.2 37.0002C111.667 37.9335 113.2 38.4002 114.8 38.4002ZM154.4 13.0002V18.4002H147.2L147 45.0002H141.8V18.4002H136.2V13.0002H141.8V3.00019H147L147.2 13.0002H154.4ZM158.4 45.0002V13.0002H163.8V45.0002H158.4ZM161.2 7.80019C160.4 7.80019 159.667 7.53353 159 7.00019C158.467 6.46686 158.2 5.73353 158.2 4.80019C158.2 4.00019 158.467 3.33353 159 2.80019C159.667 2.26686 160.4 2.00019 161.2 2.00019C162 2.00019 162.667 2.26686 163.2 2.80019C163.867 3.33353 164.2 4.00019 164.2 4.80019C164.2 5.73353 163.867 6.46686 163.2 7.00019C162.667 7.53353 162 7.80019 161.2 7.80019ZM192.8 36.6002L197.6 39.2002C196.133 41.2002 194.333 42.8002 192.2 44.0002C189.933 45.2002 187.467 45.8002 184.8 45.8002C181.867 45.8002 179.2 45.0669 176.8 43.6002C174.4 42.0002 172.467 39.9335 171 37.4002C169.533 34.8669 168.8 32.0669 168.8 29.0002C168.8 26.6002 169.267 24.4002 170.2 22.4002C171 20.4002 172.133 18.6002 173.6 17.0002C175.067 15.5335 176.733 14.3335 178.6 13.4002C180.6 12.6002 182.667 12.2002 184.8 12.2002C187.467 12.2002 189.933 12.8002 192.2 14.0002C194.333 15.2002 196.133 16.8002 197.6 18.8002L192.8 21.4002C191.867 20.2002 190.667 19.2669 189.2 18.6002C187.867 17.8002 186.4 17.4002 184.8 17.4002C182.933 17.4002 181.133 17.9335 179.4 19.0002C177.8 20.0669 176.533 21.4669 175.6 23.2002C174.667 24.9335 174.2 26.8669 174.2 29.0002C174.2 31.1335 174.667 33.0669 175.6 34.8002C176.667 36.5335 178 37.8669 179.6 38.8002C181.2 39.8669 182.933 40.4002 184.8 40.4002C186.4 40.4002 187.933 40.0669 189.4 39.4002C190.733 38.6002 191.867 37.6669 192.8 36.6002ZM213 45.6002C211.267 45.6002 209.533 45.2669 207.8 44.6002C206.2 44.0669 204.8 43.2669 203.6 42.2002C202.4 41.2669 201.533 40.1335 201 38.8002L205.6 36.8002C205.867 37.4669 206.4 38.1335 207.2 38.8002C208 39.4669 209 40.0002 210.2 40.4002C211.267 40.8002 212.333 41.0002 213.4 41.0002C214.6 41.0002 215.733 40.8002 216.8 40.4002C217.733 40.0002 218.533 39.4669 219.2 38.8002C219.867 38.0002 220.2 37.1335 220.2 36.2002C220.2 35.1335 219.867 34.2669 219.2 33.6002C218.4 33.0669 217.467 32.6002 216.4 32.2002C215.333 31.8002 214.267 31.4669 213.2 31.2002C210.933 30.6669 208.933 30.0002 207.2 29.2002C205.467 28.4002 204.133 27.4002 203.2 26.2002C202.267 25.0002 201.8 23.4669 201.8 21.6002C201.8 19.6002 202.333 17.8669 203.4 16.4002C204.467 14.9335 205.867 13.8002 207.6 13.0002C209.467 12.3335 211.4 12.0002 213.4 12.0002C216.067 12.0002 218.467 12.5335 220.6 13.6002C222.733 14.6669 224.267 16.1335 225.2 18.0002L221 20.6002C220.6 19.8002 220.067 19.1335 219.4 18.6002C218.6 18.0669 217.733 17.6002 216.8 17.2002C215.867 16.8002 214.867 16.6002 213.8 16.6002C212.6 16.6002 211.467 16.8002 210.4 17.2002C209.333 17.4669 208.467 18.0002 207.8 18.8002C207.133 19.4669 206.8 20.4002 206.8 21.6002C206.8 22.6669 207.133 23.4669 207.8 24.0002C208.467 24.5335 209.4 24.9335 210.6 25.2002C211.667 25.6002 212.867 26.0002 214.2 26.4002C216.067 27.0669 217.867 27.8002 219.6 28.6002C221.333 29.4002 222.667 30.4002 223.6 31.6002C224.667 32.8002 225.2 34.3335 225.2 36.2002C225.2 38.0669 224.6 39.7335 223.4 41.2002C222.333 42.6669 220.8 43.8002 218.8 44.6002C217.067 45.4002 215.133 45.7335 213 45.6002Z" fill="#353642"></path><circle cx="238.673" cy="15.9308" r="6.93079" fill="url(#paint0_linear_5192_32769)"></circle></g><defs><linearGradient id="paint0_linear_5192_32769" x1="233.273" y1="20.2801" x2="244.335" y2="12.1245" gradientUnits="userSpaceOnUse"><stop stop-color="#F2465B"></stop><stop offset="0.5" stop-color="#9456CE"></stop><stop offset="1" stop-color="#09AFAA"></stop></linearGradient><clipPath id="clip0_5192_32769"><rect width="246" height="46" fill="white"></rect></clipPath></defs></svg>