<svg xmlns="http://www.w3.org/2000/svg" width="96" height="96" viewBox="0 0 96 96" fill="none"><g clip-path="url(#clip0_5210_1851)"><path d="M48 0C74.4758 0 96 21.5242 96 48C96 74.4758 74.4758 96 48 96C21.5242 96 0 74.4758 0 48C0 21.5242 21.5242 0 48 0Z" fill="white"></path><path d="M29.3047 51.3346L60.4289 64.4715V54.6694L40.2184 47.0904V46.6862L60.4289 39.1073V29.3052L29.3047 42.442V51.3346Z" fill="#BC2636"></path><path d="M79.3281 0C85.7955 0 90.9491 5.15368 90.9491 11.6211C90.9491 18.0884 85.7955 23.2421 79.3281 23.2421C72.8607 23.2421 67.707 18.0884 67.707 11.6211C67.707 5.15368 72.8607 0 79.3281 0Z" fill="black"></path></g><defs><clipPath id="clip0_5210_1851"><rect width="96" height="96" fill="white"></rect></clipPath></defs></svg>