<svg xmlns="http://www.w3.org/2000/svg" width="126" height="46" viewBox="0 0 126 46" fill="none"><path d="M19.0659 1.36621H12.5896L0.796875 45.1538H7.36985L19.0659 1.36621ZM40.6131 1.36621H34.1368L22.3441 45.1538H28.8204L40.6131 1.36621ZM90.3854 15.8654C89.4188 7.35922 83.0391 2.52615 74.5329 2.52615C64.8668 2.52615 57.5205 9.38911 57.5205 21.2785C57.5205 33.2645 64.7701 40.1274 74.5329 40.1274C83.9091 40.1274 89.6121 33.8444 90.3854 27.1748L82.5558 27.0781C81.8792 31.0413 78.786 33.2645 74.6296 33.2645C69.1199 33.2645 65.3501 29.108 65.3501 21.2785C65.3501 13.7389 69.0232 9.38911 74.7263 9.38911C78.9794 9.38911 81.9759 11.8056 82.5558 15.8654H90.3854ZM95.9918 39.6441H103.725V26.6915H109.331L116.291 39.6441H124.797L117.064 25.4349C121.22 23.5983 123.54 20.0219 123.54 14.9955C123.54 7.74586 118.707 3.00946 110.394 3.00946H95.9918V39.6441ZM103.725 20.5052V9.48577H108.944C113.391 9.48577 115.517 11.419 115.517 15.0921C115.517 18.6686 113.391 20.5052 108.944 20.5052H103.725Z" fill="white"></path></svg>