<svg xmlns="http://www.w3.org/2000/svg" width="284" height="57" viewBox="0 0 284 57" fill="none"><path d="M21.2028 44.8293C18.2236 44.8293 15.4654 44.2947 12.9281 43.2256C10.4335 42.1422 8.23124 40.6312 6.32115 38.6925C4.45382 36.7539 2.99987 34.4802 1.9593 31.8716C0.918724 29.2629 0.398438 26.4048 0.398438 23.2972C0.398438 20.2039 0.897342 17.3529 1.89515 14.7443C2.94998 12.1071 4.40393 9.83348 6.257 7.92332C8.16709 5.98465 10.3908 4.49501 12.9281 3.4544C15.4654 2.37103 18.2236 1.82935 21.2028 1.82935C24.1962 1.82935 26.8618 2.33539 29.1995 3.34749C31.5942 4.34534 33.6112 5.6853 35.2505 7.36738C36.8897 9.00669 38.0657 10.8171 38.7784 12.7985L31.9577 15.9845C31.1737 13.889 29.8481 12.1713 27.9807 10.8313C26.1134 9.46285 23.8541 8.77861 21.2028 8.77861C18.5942 8.77861 16.285 9.39157 14.2751 10.6175C12.2937 11.8434 10.7471 13.5398 9.6353 15.7065C8.55196 17.859 8.01029 20.3892 8.01029 23.2972C8.01029 26.2052 8.55196 28.764 9.6353 30.9735C10.7471 33.126 12.2937 34.8223 14.2751 36.0625C16.285 37.2884 18.5942 37.9014 21.2028 37.9014C23.8541 37.9014 26.1134 37.2314 27.9807 35.8914C29.8481 34.5087 31.1737 32.7767 31.9577 30.6955L38.7784 33.8815C38.0657 35.8487 36.8897 37.6733 35.2505 39.3554C33.6112 40.9947 31.5942 42.3204 29.1995 43.3325C26.8618 44.3304 24.1962 44.8293 21.2028 44.8293ZM56.9528 44.8293C53.9736 44.8293 51.251 44.145 48.785 42.7766C46.3618 41.3938 44.4232 39.5051 42.9692 37.1102C41.5581 34.7297 40.8525 32.0141 40.8525 28.9636C40.8525 25.8988 41.5581 23.1761 42.9692 20.7955C44.4232 18.4007 46.3618 16.519 48.785 15.1506C51.2083 13.7678 53.9309 13.0765 56.9528 13.0765C59.9462 13.0765 62.6546 13.7678 65.0778 15.1506C67.5011 16.519 69.4183 18.4007 70.8295 20.7955C72.2834 23.1476 73.0104 25.8702 73.0104 28.9636C73.0104 32.0141 72.2834 34.7297 70.8295 37.1102C69.3755 39.5051 67.4369 41.3938 65.0137 42.7766C62.5904 44.145 59.9035 44.8293 56.9528 44.8293ZM56.9528 38.1366C58.5921 38.1366 60.0318 37.7446 61.2719 36.9606C62.5406 36.1765 63.5312 35.0932 64.2439 33.7104C64.9852 32.2992 65.3558 30.7169 65.3558 28.9636C65.3558 27.1674 64.9852 25.5994 64.2439 24.2594C63.5312 22.8767 62.5406 21.7933 61.2719 21.0093C60.0318 20.1968 58.5921 19.7905 56.9528 19.7905C55.285 19.7905 53.8168 20.1968 52.5482 21.0093C51.2796 21.7933 50.2675 22.8767 49.512 24.2594C48.8135 25.5994 48.4643 27.1674 48.4643 28.9636C48.4643 30.7169 48.8135 32.2992 49.512 33.7104C50.2675 35.0932 51.2796 36.1765 52.5482 36.9606C53.8168 37.7446 55.285 38.1366 56.9528 38.1366ZM84.2144 44.1664H76.8805V13.7393H83.7654V20.5175L83.2094 19.5126C83.9079 17.2318 85.0055 15.6423 86.5022 14.7443C88.0274 13.8605 89.852 13.4186 91.9759 13.4186H93.772V19.8974H91.142C89.0609 19.8974 87.386 20.546 86.1173 21.8432C84.8487 23.1119 84.2144 24.908 84.2144 27.2316V44.1664ZM103.458 55.3494H96.1239V13.7393H103.009V19.7691L102.346 18.2724C103.387 16.6331 104.798 15.3644 106.58 14.4663C108.376 13.5255 110.45 13.0551 112.802 13.0551C115.667 13.0551 118.261 13.7678 120.585 15.1933C122.894 16.6046 124.718 18.5076 126.058 20.9024C127.441 23.283 128.132 25.9629 128.132 28.9422C128.132 31.8929 127.462 34.58 126.122 37.0033C124.782 39.4267 122.951 41.3439 120.627 42.7552C118.318 44.1379 115.688 44.8293 112.737 44.8293C110.542 44.8293 108.511 44.4016 106.644 43.5463C104.819 42.6483 103.365 41.3796 102.282 39.7403L103.458 38.2863V55.3494ZM111.904 38.1152C113.586 38.1152 115.075 37.7303 116.372 36.9606C117.684 36.1765 118.696 35.0932 119.409 33.7104C120.15 32.3277 120.52 30.7454 120.52 28.9636C120.52 27.1674 120.15 25.5994 119.409 24.2594C118.696 22.8767 117.684 21.7933 116.372 21.0093C115.075 20.1968 113.586 19.7905 111.904 19.7905C110.307 19.7905 108.853 20.1825 107.542 20.9666C106.273 21.7363 105.268 22.834 104.527 24.2594C103.814 25.6422 103.458 27.2102 103.458 28.9636C103.458 30.7454 103.814 32.3277 104.527 33.7104C105.268 35.0932 106.273 36.1765 107.542 36.9606C108.853 37.7303 110.307 38.1152 111.904 38.1152ZM146.927 44.8293C143.947 44.8293 141.225 44.145 138.759 42.7766C136.336 41.3938 134.397 39.5051 132.943 37.1102C131.532 34.7297 130.826 32.0141 130.826 28.9636C130.826 25.8988 131.532 23.1761 132.943 20.7955C134.397 18.4007 136.336 16.519 138.759 15.1506C141.182 13.7678 143.905 13.0765 146.927 13.0765C149.92 13.0765 152.628 13.7678 155.052 15.1506C157.475 16.519 159.392 18.4007 160.803 20.7955C162.257 23.1333 162.984 25.856 162.984 28.9636C162.984 32.0141 162.257 34.7297 160.803 37.1102C159.349 39.5051 157.411 41.3938 154.988 42.7766C152.564 44.145 149.877 44.8293 146.927 44.8293ZM146.927 38.1152C148.566 38.1152 150.006 37.7303 151.246 36.9606C152.514 36.1765 153.498 35.0932 154.196 33.7104C154.952 32.285 155.33 30.7027 155.33 28.9636C155.33 27.1674 154.952 25.5994 154.196 24.2594C153.498 22.8767 152.514 21.7933 151.246 21.0093C150.006 20.1968 148.566 19.7905 146.927 19.7905C145.245 19.7905 143.769 20.1968 142.501 21.0093C141.232 21.7933 140.227 22.8767 139.486 24.2594C138.773 25.5994 138.417 27.1674 138.417 28.9636C138.417 30.7027 138.773 32.285 139.486 33.7104C140.227 35.0932 141.232 36.1765 142.501 36.9606C143.769 37.7303 145.245 38.1152 146.927 38.1152ZM172.67 44.1664H167.474V14.0173H172.563V19.5553L172.007 18.7856C172.706 17.0607 173.782 15.792 175.236 14.9795C176.69 14.1242 178.465 13.6966 180.56 13.6966H182.399V18.6145H179.769C177.645 18.6145 175.934 19.2845 174.637 20.6244C173.326 21.9216 172.67 23.7819 172.67 26.2052V44.1664ZM194.201 44.8507C192.234 44.8507 190.481 44.4943 188.942 43.7815C187.459 43.0403 186.29 42.0353 185.435 40.7666C184.565 39.4552 184.131 37.9655 184.131 36.2977C184.131 34.6869 184.466 33.2472 185.136 31.9785C185.848 30.6813 186.932 29.5837 188.386 28.6856C189.882 27.7875 191.75 27.1532 193.988 26.7826L205.17 24.9437V29.3057L195.164 30.9735C193.225 31.3156 191.807 31.9286 190.909 32.8124C190.053 33.7104 189.626 34.8152 189.626 36.1267C189.626 37.3526 190.11 38.3789 191.08 39.2057C192.092 40.0182 193.339 40.4245 194.821 40.4245C196.732 40.4245 198.371 40.0325 199.739 39.2485C201.165 38.4359 202.269 37.3383 203.053 35.9556C203.866 34.5729 204.272 33.0405 204.272 31.3584V23.7035C204.272 22.0642 203.659 20.7385 202.433 19.7264C201.236 18.6858 199.654 18.1655 197.687 18.1655C195.962 18.1655 194.43 18.6145 193.09 19.5126C191.778 20.3679 190.809 21.5225 190.182 22.9765L185.649 20.6244C186.205 19.256 187.103 18.03 188.343 16.9467C189.569 15.8205 191.001 14.9439 192.641 14.3166C194.28 13.6752 195.997 13.3544 197.794 13.3544C200.103 13.3544 202.134 13.8035 203.887 14.7015C205.641 15.5568 207.002 16.7685 207.971 18.3365C208.983 19.8618 209.489 21.6508 209.489 23.7035V44.1664H204.4V38.4787L205.341 38.7994C204.714 39.9969 203.859 41.0446 202.775 41.9427C201.692 42.8407 200.423 43.5463 198.97 44.0595C197.516 44.5869 195.926 44.8507 194.201 44.8507ZM227.557 44.5085C224.606 44.5085 222.333 43.6675 220.736 41.9854C219.168 40.3176 218.384 37.9513 218.384 34.8865V18.9994H212.889V14.0387H214.022C215.362 14.0387 216.424 13.6253 217.208 12.7985C217.992 11.986 218.384 10.9026 218.384 9.54838V7.08941H223.58V14.0387H230.358V18.9994H223.58V34.7154C223.58 35.7275 223.729 36.6042 224.029 37.3454C224.371 38.101 224.913 38.6997 225.654 39.1416C226.395 39.555 227.386 39.7617 228.626 39.7617C228.882 39.7617 229.196 39.7403 229.567 39.6975C229.98 39.669 230.358 39.6334 230.7 39.5906V44.1664C230.215 44.2805 229.674 44.3731 229.075 44.4444C228.476 44.4872 227.97 44.5085 227.557 44.5085ZM248.81 44.8507C245.902 44.8507 243.315 44.1593 241.049 42.7766C238.768 41.3938 236.972 39.5122 235.66 37.1316C234.363 34.7083 233.715 32.007 233.715 29.0277C233.715 26.0057 234.349 23.3186 235.618 20.9666C236.915 18.6145 238.668 16.7685 240.877 15.4285C243.115 14.0458 245.61 13.3544 248.361 13.3544C250.599 13.3544 252.58 13.7678 254.305 14.5946C256.058 15.3786 257.534 16.462 258.731 17.8447C259.957 19.1847 260.884 20.7314 261.511 22.4847C262.195 24.1953 262.537 25.9843 262.537 27.8517C262.537 28.2508 262.494 28.7141 262.409 29.2415C262.38 29.7262 262.323 30.1895 262.238 30.6314H237.521V26.1625H259.223L256.764 28.1724C257.106 26.2337 256.921 24.5018 256.208 22.9765C255.495 21.4512 254.448 20.2396 253.065 19.3415C251.682 18.4434 250.114 17.9944 248.361 17.9944C246.608 17.9944 245.004 18.4434 243.55 19.3415C242.096 20.2396 240.963 21.5296 240.151 23.2117C239.367 24.851 239.046 26.8039 239.188 29.0705C239.046 31.28 239.381 33.2187 240.193 34.8865C241.063 36.5258 242.26 37.8159 243.785 38.7567C245.353 39.6405 247.05 40.0824 248.874 40.0824C250.884 40.0824 252.58 39.6191 253.963 38.6925C255.346 37.766 256.465 36.5757 257.32 35.1217L261.682 37.3454C261.083 38.7282 260.149 39.9969 258.881 41.1515C257.655 42.2776 256.187 43.1757 254.476 43.8457C252.794 44.5157 250.905 44.8507 248.81 44.8507Z" fill="#162340"></path><path d="M275.812 21.9501C271.942 21.9501 268.82 18.8283 268.82 14.9581C268.82 11.1093 271.942 7.96606 275.812 7.96606C279.682 7.96606 282.804 11.1093 282.804 14.9581C282.804 18.8283 279.682 21.9501 275.812 21.9501Z" fill="url(#paint0_linear_5169_1039)"></path><defs><linearGradient id="paint0_linear_5169_1039" x1="282.804" y1="13.7718" x2="268.82" y2="16.8081" gradientUnits="userSpaceOnUse"><stop stop-color="#4A34B6"></stop><stop offset="0.796901" stop-color="#ED6741"></stop></linearGradient></defs></svg>