<svg xmlns="http://www.w3.org/2000/svg" width="224" height="118" viewBox="0 0 224 118" fill="none"><path d="M130.199 0V118H84.1992V0H130.199Z" fill="#00DE84"></path><path d="M22.2148 48.0001H29.2148V13.1001H22.2148V27.5001H7.21484V13.1001H0.214844V48.0001H7.21484V33.1001H22.2148V48.0001ZM47.5148 25.6001C51.1148 25.6001 54.0148 27.9001 54.1148 31.6001H40.9148C41.5148 27.8001 44.1148 25.6001 47.5148 25.6001ZM60.6148 39.3001H53.1148C52.2148 41.2001 50.5148 42.7001 47.5148 42.7001C44.0148 42.7001 41.2148 40.4001 40.9148 36.3001H61.1148C61.3148 35.4001 61.3148 34.5001 61.3148 33.6001C61.3148 25.3001 55.7148 19.9001 47.7148 19.9001C39.5148 19.9001 33.8148 25.4001 33.8148 34.2001C33.8148 42.9001 39.6148 48.5001 47.7148 48.5001C54.5148 48.5001 59.1148 44.4001 60.6148 39.3001ZM72.9148 34.2001C72.9148 28.9001 75.4148 27.3001 79.6148 27.3001H81.4148V19.9001C77.6148 19.9001 74.7148 21.8001 72.9148 24.6001V20.3001H65.9148V48.0001H72.9148V34.2001ZM124.415 48.0001H131.415V31.8001C131.415 24.1001 126.715 19.9001 120.015 19.9001C116.015 19.9001 112.315 22.1001 110.515 25.2001C108.615 21.8001 105.115 19.9001 100.815 19.9001C97.3148 19.9001 94.4148 21.4001 92.6148 23.7001V20.3001H85.6148V48.0001H92.6148V32.7001C92.6148 28.3001 95.1148 26.0001 98.9148 26.0001C102.615 26.0001 105.015 28.3001 105.015 32.7001V48.0001H112.015V32.7001C112.015 28.3001 114.515 26.0001 118.215 26.0001C121.915 26.0001 124.415 28.3001 124.415 32.7001V48.0001ZM135.715 34.1001C135.715 42.8001 141.315 48.5001 148.315 48.5001C152.715 48.5001 155.915 46.4001 157.515 44.0001V48.0001H164.615V20.3001H157.515V24.3001C155.915 22.0001 152.815 19.9001 148.415 19.9001C141.315 19.9001 135.715 25.4001 135.715 34.1001ZM157.515 34.2001C157.515 39.4001 154.015 42.3001 150.215 42.3001C146.415 42.3001 142.915 39.3001 142.915 34.1001C142.915 28.8001 146.415 26.0001 150.215 26.0001C154.015 26.0001 157.515 28.9001 157.515 34.2001ZM190.315 48.0001H197.315V31.8001C197.315 24.1001 192.715 19.9001 186.315 19.9001C182.715 19.9001 179.715 21.4001 177.915 23.8001V20.3001H170.915V48.0001H177.915V32.7001C177.915 28.3001 180.415 25.9001 184.215 25.9001C187.915 25.9001 190.315 28.3001 190.315 32.8001V48.0001ZM123.215 98.0001H130.215V81.7001C130.215 74.0001 125.515 69.9001 118.815 69.9001C114.815 69.9001 111.115 72.0001 109.315 75.2001C107.415 71.7001 103.915 69.9001 99.6148 69.9001C96.1148 69.9001 93.2148 71.3001 91.4148 73.6001V70.2001H84.4148V98.0001H91.4148V82.7001C91.4148 78.2001 93.9148 76.0001 97.7148 76.0001C101.415 76.0001 103.815 78.2001 103.815 82.7001V98.0001H110.815V82.7001C110.815 78.2001 113.315 76.0001 117.015 76.0001C120.715 76.0001 123.215 78.2001 123.215 82.7001V98.0001ZM136.315 98.0001H143.315V70.2001L136.315 70.3001V98.0001ZM139.915 67.0001C142.315 67.0001 144.215 65.1001 144.215 62.9001C144.215 60.5001 142.315 58.7001 139.915 58.7001C137.415 58.7001 135.615 60.5001 135.615 62.9001C135.615 65.1001 137.415 67.0001 139.915 67.0001ZM149.715 98.0001H156.715V61.0001H149.715V98.0001ZM163.115 98.0001H170.115V61.0001H163.115V98.0001ZM188.415 75.5001C192.015 75.5001 194.915 77.9001 195.015 81.5001H181.915C182.415 77.7001 185.115 75.5001 188.415 75.5001ZM201.615 89.3001L194.015 89.2001C193.115 91.1001 191.515 92.6001 188.515 92.6001C185.015 92.6001 182.215 90.3001 181.815 86.2001H202.115C202.215 85.3001 202.315 84.4001 202.315 83.5001C202.315 75.2001 196.615 69.8001 188.615 69.8001C180.415 69.8001 174.715 75.4001 174.715 84.1001C174.715 92.8001 180.615 98.4001 188.615 98.4001C195.515 98.4001 200.115 94.4001 201.615 89.2001V89.3001ZM213.915 84.3001C213.915 78.9001 216.415 77.3001 220.515 77.3001H222.415V70.0001C218.515 70.0001 215.615 71.8001 213.915 74.6001V70.3001H206.915V98.1001L213.915 98.0001V84.3001Z" fill="white"></path></svg>