<svg xmlns="http://www.w3.org/2000/svg" width="40" height="112" viewBox="0 0 40 112" fill="none"><path d="M3.63553 97.144V102.31L38.5299 111.798V106.526L3.63553 97.144ZM3.63553 81.9634V87.129L38.5299 96.5115V91.3458L3.63553 81.9634ZM14.3885 35.051C5.95479 36.1052 1 42.5359 1 50.9696C1 60.7737 7.95779 68.1532 19.9758 68.1532C31.9938 68.1532 38.8462 60.8792 38.8462 50.9696C38.8462 41.5871 32.6263 35.8944 25.7739 35.051V42.8522C29.6745 43.5901 31.9938 46.7527 31.9938 50.8642C31.9938 56.4515 27.7769 60.2466 19.9758 60.2466C12.2801 60.2466 7.95779 56.5569 7.95779 50.8642C7.95779 46.5419 10.3825 43.4847 14.3885 42.8522V35.051ZM38.319 29.9908V22.1896H25.3523V16.6023L38.319 9.5391V1L24.0872 8.80116C22.295 4.58432 18.6053 2.26505 13.5451 2.26505C6.27105 2.26505 1.52711 7.11442 1.52711 15.5481V29.9908H38.319ZM19.027 22.1896H7.85237V17.024C7.85237 12.4909 9.85537 10.2771 13.5451 10.2771C17.2348 10.2771 19.027 12.4909 19.027 16.9186V22.1896Z" fill="#232323"></path></svg>