<svg xmlns="http://www.w3.org/2000/svg" width="142" height="90" viewBox="0 0 142 90" fill="none"><g clip-path="url(#clip0_5195_1068)"><path fill-rule="evenodd" clip-rule="evenodd" d="M115.989 46.1191C115.457 70.5102 95.5186 90.1191 71 90.1191C46.4814 90.1191 26.5427 70.5102 26.0109 46.1191H0V44.1191H26.0109C26.5427 19.7281 46.4814 0.119141 71 0.119141C95.5186 0.119141 115.457 19.7281 115.989 44.1191H142V46.1191H115.989ZM60.9854 57.672C60.9854 63.846 65.2064 68.13 71.4434 68.13C77.6804 68.13 81.9014 63.846 81.9014 57.672V51.372H75.3494V57.672C75.3494 60.255 73.7744 61.83 71.5064 61.83C69.2384 61.83 67.6634 60.255 67.6634 57.672V33.228C67.6634 30.645 69.2384 29.07 71.5064 29.07C73.7744 29.07 75.3494 30.645 75.3494 33.228V38.394H81.9014V33.228C81.9014 27.054 77.6804 22.77 71.4434 22.77C65.2064 22.77 60.9854 27.054 60.9854 33.228V57.672Z" fill="#FE00B8"></path></g><defs><clipPath id="clip0_5195_1068"><rect width="142" height="90" fill="white"></rect></clipPath></defs></svg>