<svg xmlns="http://www.w3.org/2000/svg" width="60" height="80" viewBox="0 0 60 80" fill="none"><g clip-path="url(#clip0_5210_1798)"><path d="M7.46643 16.0351C8.71902 16.0264 7.27778 16.0444 14.0121 15.9974L22.0333 16.0568L13.9262 24.3651C4.74826 33.7889 -2.34515 43.435 1.34783 57.5748C4.22347 68.605 13.1103 76.9389 24.3491 79.1397C34.4901 81.1462 44.8529 77.7271 51.8679 70.0324C65.7055 54.875 59.6258 28.2304 39.6173 22.0795C38.7497 21.7971 37.969 21.5428 37.9107 21.4567C37.8237 21.3996 39.6564 19.4249 41.9482 17.0719C44.2685 14.6898 46.4152 12.2224 46.7852 11.4985C48.7354 7.71716 46.5438 2.40752 42.4144 1.20007C41.6048 0.94606 36.3245 0.896366 23.5726 0.985393L7.64682 1.09658C1.56918 4.06624 0.553621 12.8932 7.46643 16.0351ZM32.2098 35.5473C35.1558 35.9884 38.4282 37.7255 40.5498 39.9323C46.1594 45.8366 46.1048 54.5503 40.4612 60.3024C37.4819 63.3526 34.3751 64.6726 30.1052 64.7024C25.8353 64.7322 22.7104 63.4557 19.6888 60.4474C12.5419 53.3709 14.4211 41.5285 23.3916 37.0515C26.5543 35.4714 28.9172 35.051 32.2098 35.5473Z" fill="white"></path><path d="M15.0006 8.51594C15.0295 12.6417 11.7082 16.0096 7.58246 16.0384C3.45671 16.0672 0.0887699 12.746 0.0599662 8.62024C0.0311625 4.49449 3.3524 1.12655 7.47815 1.09775C11.6039 1.06894 14.9718 4.39018 15.0006 8.51594Z" fill="white"></path><circle cx="30.0117" cy="50.088" r="7.44432" transform="rotate(-0.4 30.0117 50.088)" fill="white"></circle></g><defs><clipPath id="clip0_5210_1798"><rect width="60" height="80" fill="white"></rect></clipPath></defs></svg>