<svg xmlns="http://www.w3.org/2000/svg" width="168" height="78" viewBox="0 0 168 78" fill="none"><g clip-path="url(#clip0_5215_1002)"><path d="M168 0V78H0V0H168Z" fill="#2D2C2A"></path><path d="M97.8 53H88.5V25H97.8C99.7333 25 101.533 25.3667 103.2 26.1C104.933 26.8333 106.433 27.8333 107.7 29.1C108.967 30.3667 109.967 31.8667 110.7 33.6C111.433 35.2667 111.8 37.0667 111.8 39C111.8 40.9333 111.433 42.7333 110.7 44.4C109.967 46.1333 108.967 47.6333 107.7 48.9C106.433 50.1667 104.933 51.1667 103.2 51.9C101.533 52.6333 99.7333 53 97.8 53ZM94.1 30.5V47.5H97.8C98.9333 47.5 100.033 47.2667 101.1 46.8C102.1 46.4 103 45.8 103.8 45C104.6 44.2 105.2 43.3 105.6 42.3C106.067 41.3 106.3 40.2 106.3 39C106.3 37.8 106.067 36.7 105.6 35.7C105.2 34.7 104.6 33.8 103.8 33C103 32.2 102.1 31.6 101.1 31.2C100.1 30.7333 99 30.5 97.8 30.5H94.1ZM112.4 53L122.6 25H128.8L139 53H133.1L131.5 48.4H119.9L118.3 53H112.4ZM125.6 32.6L121.9 42.8H129.4L125.6 32.6Z" fill="#ECD3CC"></path><path d="M23 38V41H0V38H23Z" fill="#EFD3C8"></path></g><defs><clipPath id="clip0_5215_1002"><rect width="168" height="78" fill="white"></rect></clipPath></defs></svg>