<svg xmlns="http://www.w3.org/2000/svg" width="110" height="40" viewBox="0 0 110 40" fill="none"><path d="M15.0778 4.08008L10.0208 4.08008L0.732518 38.2404H5.89268L15.0778 4.08008ZM29.9391 4.08008H24.8821L15.697 38.2404H20.754L29.9391 4.08008ZM75.8645 14.6068C74.8325 6.35056 68.5371 1.5 60.2808 1.5C50.6829 1.5 43.4587 8.31142 43.4587 20.0766C43.4587 31.8418 50.5797 38.55 60.2808 38.55C69.4659 38.55 75.0389 32.461 75.8645 25.7528H68.2275C67.5051 29.5713 64.409 31.8418 60.384 31.8418C54.9143 31.8418 51.1989 27.7136 51.1989 20.0766C51.1989 12.5428 54.8111 8.31142 60.384 8.31142C64.6154 8.31142 67.6083 10.6851 68.2275 14.6068H75.8645ZM80.8183 38.034H88.4553V25.34H93.9251L100.84 38.034H109.199L101.562 24.1015C105.69 22.3471 107.961 18.735 107.961 13.7812C107.961 6.66017 103.213 2.01602 94.9572 2.01602L80.8183 2.01602V38.034ZM88.4553 19.1478V8.20822H93.5123C97.9501 8.20822 100.117 10.1691 100.117 13.7812C100.117 17.3933 97.9501 19.1478 93.6155 19.1478H88.4553Z" fill="#232323"></path></svg>