<svg xmlns="http://www.w3.org/2000/svg" width="64" height="64" viewBox="0 0 64 64" fill="none"><path d="M54.8673 51.0963L54.5913 51.1396C39.5473 53.4996 24.2273 53.4996 9.18323 51.1396L8.90723 51.0963C8.49324 51.0189 8.11819 50.8022 7.84442 50.4821C7.57065 50.1621 7.41465 49.758 7.40234 49.337V36.1782C7.40234 35.7059 7.58997 35.2529 7.92394 34.9189C8.25792 34.5849 8.71088 34.3973 9.18319 34.3973H54.5913C54.8252 34.3973 55.0567 34.4434 55.2728 34.5329C55.4889 34.6224 55.6852 34.7535 55.8505 34.9189C56.0159 35.0843 56.1471 35.2806 56.2366 35.4967C56.3261 35.7127 56.3721 35.9443 56.3721 36.1782V49.337C56.3598 49.758 56.2038 50.1621 55.9301 50.4821C55.6563 50.8022 55.2813 51.0189 54.8673 51.0963Z" stroke="#C19E62" stroke-width="2" stroke-linecap="round" stroke-linejoin="round"></path><path d="M18.7641 52.3206V57.4371C18.7641 57.671 18.7181 57.9026 18.6286 58.1186C18.5391 58.3347 18.4079 58.531 18.2426 58.6964C18.0772 58.8618 17.8809 58.9929 17.6648 59.0824C17.4487 59.1719 17.2172 59.218 16.9833 59.218H13.6363C13.164 59.218 12.711 59.0304 12.3771 58.6964C12.0431 58.3624 11.8555 57.9094 11.8555 57.4371V51.5334" stroke="#C19E62" stroke-width="2" stroke-linecap="round" stroke-linejoin="round"></path><path d="M45.0117 52.3206V57.4371C45.0117 57.671 45.0578 57.9026 45.1473 58.1186C45.2368 58.3347 45.368 58.531 45.5333 58.6964C45.6987 58.8618 45.895 58.9929 46.1111 59.0824C46.3271 59.1719 46.5587 59.218 46.7926 59.218H50.1396C50.3734 59.218 50.605 59.1719 50.8211 59.0824C51.0371 58.9929 51.2335 58.8618 51.3988 58.6964C51.5642 58.531 51.6954 58.3347 51.7849 58.1186C51.8743 57.9026 51.9204 57.671 51.9204 57.4371V51.5334" stroke="#C19E62" stroke-width="2" stroke-linecap="round" stroke-linejoin="round"></path><path d="M22.9805 40.1991H40.8873" stroke="#C19E62" stroke-width="2" stroke-linecap="round" stroke-linejoin="round"></path><path d="M22.9805 43.6535H40.8873" stroke="#C19E62" stroke-width="2" stroke-linecap="round" stroke-linejoin="round"></path><path d="M22.9805 47.1078H40.8873" stroke="#C19E62" stroke-width="2" stroke-linecap="round" stroke-linejoin="round"></path><path d="M54.6003 34.3973L50.0144 22.5197C49.5611 21.3457 48.763 20.3364 47.7251 19.6246C46.6873 18.9128 45.4582 18.5318 44.1997 18.5318H19.5852C18.3267 18.5318 17.0977 18.9128 16.0598 19.6246C15.022 20.3364 14.2239 21.3457 13.7706 22.5197L9.18469 34.3973H6.67811C6.32642 34.3973 5.97817 34.3281 5.65324 34.1935C5.32832 34.0589 5.03309 33.8616 4.7844 33.6129C4.53572 33.3643 4.33845 33.069 4.20386 32.7441C4.06927 32.4192 4 32.0709 4 31.7192C4 31.009 4.28215 30.3278 4.78439 29.8256C5.28662 29.3233 5.9678 29.0412 6.67807 29.0412H11.2526" stroke="#C19E62" stroke-width="2" stroke-linecap="round" stroke-linejoin="round"></path><path d="M52.7461 29.0412L54.8141 34.3973H57.3207C57.6724 34.3973 58.0206 34.328 58.3455 34.1935C58.6705 34.0589 58.9657 33.8616 59.2144 33.6129C59.4631 33.3642 59.6603 33.069 59.7949 32.7441C59.9295 32.4192 59.9988 32.0709 59.9988 31.7192C59.9988 31.009 59.7166 30.3278 59.2144 29.8256C58.7122 29.3233 58.031 29.0412 57.3207 29.0412H52.7461Z" stroke="#C19E62" stroke-width="2" stroke-linecap="round" stroke-linejoin="round"></path><path d="M25.1094 10.6267H38.757C39.5526 10.6267 40.3157 10.9427 40.8783 11.5053C41.4409 12.068 41.757 12.831 41.757 13.6267V14.8369H22.1094V13.6267C22.1094 12.831 22.4254 12.068 22.9881 11.5053C23.5507 10.9427 24.3137 10.6267 25.1094 10.6267Z" stroke="#C19E62" stroke-width="2" stroke-linecap="round" stroke-linejoin="round"></path><path d="M15.31 47.1236C17.2265 47.1236 18.7802 45.57 18.7802 43.6535C18.7802 41.7369 17.2265 40.1833 15.31 40.1833C13.3935 40.1833 11.8398 41.7369 11.8398 43.6535C11.8398 45.57 13.3935 47.1236 15.31 47.1236Z" stroke="#C19E62" stroke-width="2" stroke-linecap="round" stroke-linejoin="round"></path><path d="M48.4663 47.1236C50.3828 47.1236 51.9364 45.57 51.9364 43.6535C51.9364 41.7369 50.3828 40.1833 48.4663 40.1833C46.5497 40.1833 44.9961 41.7369 44.9961 43.6535C44.9961 45.57 46.5497 47.1236 48.4663 47.1236Z" stroke="#C19E62" stroke-width="2" stroke-linecap="round" stroke-linejoin="round"></path><path d="M20.3281 4.782L22.109 7.60212" stroke="#C19E62" stroke-width="2" stroke-linecap="round" stroke-linejoin="round"></path><path d="M27.1367 4.782V7.60212" stroke="#C19E62" stroke-width="2" stroke-linecap="round" stroke-linejoin="round"></path><path d="M31.9336 4.782V7.60212" stroke="#C19E62" stroke-width="2" stroke-linecap="round" stroke-linejoin="round"></path><path d="M36.7344 4.782V7.60212" stroke="#C19E62" stroke-width="2" stroke-linecap="round" stroke-linejoin="round"></path><path d="M43.5387 4.782L41.7578 7.60212" stroke="#C19E62" stroke-width="2" stroke-linecap="round" stroke-linejoin="round"></path></svg>