<svg xmlns="http://www.w3.org/2000/svg" width="45" height="47" viewBox="0 0 45 47" fill="none"><g clip-path="url(#clip0_5205_1408)"><path d="M24.4857 0.844531C24.8945 1.18016 25.1672 1.55045 25.2211 2.08247C25.2456 2.65528 25.1553 3.06338 24.7915 3.51289C24.4728 3.85549 24.091 4.08506 23.6199 4.13647C22.9936 4.14419 22.5857 4.00761 22.128 3.57705C22.0891 3.53833 22.0891 3.53833 22.0493 3.49883C22.0308 3.51739 22.0122 3.53595 21.9931 3.55508C22.0025 4.05527 22.0825 4.55049 22.1689 5.04219C22.1812 5.11238 22.1935 5.18258 22.2062 5.2549C22.4537 6.62814 22.8078 7.96409 23.2306 9.29258C23.2504 9.35601 23.2702 9.41945 23.2907 9.48481C23.3466 9.66262 23.4042 9.83977 23.4626 10.0168C23.4788 10.0682 23.495 10.1197 23.5117 10.1727C23.6339 10.531 23.8092 10.7687 24.0743 11.0363C24.1245 11.0896 24.1747 11.1429 24.2264 11.1978C24.5223 11.496 24.8262 11.7746 25.1556 12.0361C25.2586 12.1186 25.3599 12.2033 25.4593 12.2901C27.6282 14.1791 30.3695 15.2293 33.2431 15.0863C34.4696 14.9961 35.6253 14.5951 36.7306 14.0738C36.7684 14.056 36.8062 14.0382 36.8451 14.0199C37.8176 13.5518 38.7149 12.9052 39.5431 12.2176C39.5744 12.192 39.6057 12.1664 39.638 12.14C39.8386 11.9756 40.0335 11.8062 40.2263 11.6328C40.3333 11.5402 40.4442 11.455 40.5565 11.369C41.3998 10.6814 41.6219 9.6788 41.9056 8.67383C41.9315 8.5835 41.9574 8.49317 41.9834 8.40285C42.696 6.06769 42.696 6.06769 42.9181 3.66758C42.818 3.49118 42.7762 3.45152 42.5806 3.38633C42.4933 3.37809 42.4057 3.37244 42.318 3.36853C42.2427 3.365 42.2427 3.365 42.1659 3.36139C42.0875 3.35807 42.0875 3.35807 42.0075 3.35469C41.9546 3.35226 41.9018 3.34983 41.8473 3.34733C41.7167 3.34136 41.5862 3.33562 41.4556 3.33008C41.4386 3.36539 41.4216 3.4007 41.4041 3.43708C41.2219 3.78956 40.8593 3.96047 40.4969 4.07847C39.9845 4.19896 39.5019 4.13938 39.0368 3.89258C38.595 3.59433 38.2964 3.18364 38.1931 2.65508C38.1349 2.06677 38.2773 1.53067 38.6525 1.06799C39.0074 0.722259 39.461 0.521568 39.9544 0.5C40.4609 0.514617 40.8995 0.69982 41.2868 1.02383C41.3223 1.08148 41.3223 1.08148 41.3585 1.1403C41.4478 1.2622 41.4478 1.2622 41.5974 1.27596C41.681 1.27558 41.681 1.27558 41.7663 1.2752C41.828 1.27582 41.8898 1.27644 41.9534 1.27708C42.0188 1.27704 42.0843 1.277 42.1517 1.27695C43.063 1.29577 43.6852 1.43432 44.3716 2.07698C44.8104 2.54934 45.0216 3.16344 45.0154 3.80029C45.0151 3.84434 45.0148 3.88838 45.0145 3.93376C45.0062 4.40142 44.9378 4.85342 44.8552 5.31289C44.8399 5.40107 44.8246 5.48925 44.8093 5.57743C44.5699 6.93363 44.2329 8.2607 43.8181 9.57383C43.7869 9.67339 43.7869 9.67339 43.7551 9.77496C43.2527 11.3671 42.6255 12.9052 41.9056 14.4113C41.8817 14.4618 41.8579 14.5123 41.8333 14.5643C41.2645 15.7624 40.593 16.9297 39.8243 18.0113C39.7952 18.0524 39.7661 18.0936 39.7361 18.1359C38.2087 20.2811 36.2155 22.3793 33.5243 22.9051C33.5243 22.9466 33.5242 22.9881 33.5242 23.0308C33.5209 25.4917 33.5167 27.9526 33.5115 30.4134C33.5108 30.7091 33.5102 31.0047 33.5096 31.3003C33.5094 31.3886 33.5094 31.3886 33.5092 31.4787C33.5072 32.431 33.5058 33.3833 33.5046 34.3357C33.5034 35.3132 33.5015 36.2908 33.4991 37.2683C33.4976 37.8713 33.4966 38.4742 33.4963 39.0772C33.496 39.4909 33.495 39.9046 33.4936 40.3184C33.4929 40.5569 33.4923 40.7954 33.4926 41.034C33.4928 41.2528 33.4922 41.4716 33.491 41.6904C33.4907 41.7691 33.4907 41.8479 33.491 41.9266C33.4933 42.6064 33.4086 43.2425 33.0849 43.8477C33.0651 43.8858 33.0454 43.9239 33.025 43.9631C32.8783 44.2402 32.7156 44.4912 32.5118 44.7301C32.4881 44.7618 32.4643 44.7936 32.4398 44.8263C31.8319 45.6073 30.832 46.0575 29.8681 46.1926C28.6762 46.3053 27.5646 46.0162 26.6126 45.2785C25.6868 44.4653 25.1763 43.423 25.0868 42.1988C25.0789 41.913 25.0793 41.6273 25.0798 41.3414C25.0797 41.2554 25.0796 41.1694 25.0794 41.0834C25.0792 40.8991 25.0791 40.7148 25.0791 40.5304C25.079 40.2384 25.0783 39.9463 25.0774 39.6543C25.0773 39.6049 25.0771 39.5554 25.077 39.5045C25.0767 39.4034 25.0764 39.3024 25.0761 39.2013C25.0741 38.5222 25.0726 37.843 25.0727 37.1638C25.0728 36.7047 25.0719 36.2455 25.0699 35.7864C25.0689 35.5439 25.0683 35.3015 25.069 35.059C25.0697 34.8307 25.069 34.6026 25.0674 34.3743C25.067 34.2911 25.0671 34.2078 25.0677 34.1245C25.0726 33.4179 24.9344 32.8222 24.4336 32.2975C23.8076 31.7791 23.1071 31.729 22.3306 31.7926C21.7245 31.9237 21.292 32.2581 20.9243 32.7488C20.7136 33.1269 20.6364 33.4526 20.6342 33.8847C20.6339 33.925 20.6336 33.9654 20.6334 34.007C20.6328 34.0946 20.6323 34.1822 20.6319 34.2698C20.6312 34.4092 20.6301 34.5486 20.6289 34.6881C20.6254 35.0845 20.6224 35.4809 20.6205 35.8773C20.6193 36.1201 20.6173 36.3629 20.6148 36.6057C20.6141 36.6975 20.6136 36.7893 20.6134 36.881C20.6104 38.2475 20.2705 39.4018 19.2931 40.3988C19.2557 40.4383 19.2183 40.4777 19.1797 40.5184C18.3687 41.3108 17.2521 41.5606 16.1544 41.5502C14.9882 41.5163 14.0208 41.0616 13.2181 40.2301C13.1766 40.1903 13.1351 40.1506 13.0924 40.1097C12.8516 39.8651 12.6856 39.5976 12.529 39.2949C12.5112 39.261 12.4933 39.2272 12.4749 39.1923C12.0553 38.333 12.0607 37.4752 12.0628 36.5393C12.0622 36.4006 12.0615 36.2619 12.0608 36.1232C12.0589 35.7603 12.0584 35.3974 12.0581 35.0345C12.0576 34.4528 12.0556 33.8711 12.0529 33.2893C12.0522 33.0871 12.0523 32.8849 12.0524 32.6827C12.052 32.5581 12.0516 32.4335 12.0512 32.3089C12.0514 32.2533 12.0517 32.1977 12.0519 32.1405C12.0476 31.3999 11.8657 30.6876 11.3434 30.1343C10.7987 29.6393 10.1857 29.4832 9.46196 29.4535C8.27516 29.3954 7.16536 28.8722 6.34504 28.0133C5.57229 27.124 5.21495 26.1382 5.21265 24.9727C5.21209 24.9062 5.21152 24.8397 5.21094 24.7713C5.20922 24.5534 5.20825 24.3354 5.2073 24.1175C5.2063 23.9657 5.20515 23.8139 5.204 23.6621C5.20138 23.3046 5.1993 22.947 5.19743 22.5894C5.19528 22.182 5.1925 21.7746 5.18967 21.3672C5.18388 20.5298 5.17885 19.6924 5.17434 18.8551C5.0841 18.8284 5.0841 18.8284 4.99205 18.8011C4.91145 18.7767 4.83085 18.7523 4.75027 18.7279C4.71082 18.7162 4.67137 18.7046 4.63072 18.6927C3.98335 18.4949 3.42868 18.1199 2.92434 17.6738C2.87278 17.6292 2.87278 17.6292 2.82019 17.5837C1.94132 16.7691 1.46333 15.5472 1.3968 14.368C1.35892 13.088 1.7964 11.8847 2.64309 10.9238C2.6834 10.8775 2.72372 10.8312 2.76526 10.7834C3.60906 9.87591 4.77116 9.41026 5.99414 9.33674C7.40016 9.30001 8.65559 9.82762 9.67434 10.7867C10.4573 11.5879 10.9774 12.7251 11.0243 13.8488C11.0266 13.8952 11.0288 13.9415 11.0312 13.9892C11.0664 15.4179 10.5071 16.6334 9.54075 17.6562C9.17661 18.0049 8.76106 18.2526 8.31379 18.4789C8.25768 18.5074 8.25768 18.5074 8.20043 18.5365C7.89226 18.6878 7.60385 18.7988 7.25559 18.7988C7.25769 19.637 7.26106 20.4751 7.26593 21.3132C7.26816 21.7024 7.26999 22.0916 7.27083 22.4809C7.27165 22.8569 7.27363 23.2329 7.27631 23.609C7.27714 23.752 7.27758 23.8951 7.27763 24.0381C7.27851 25.4992 7.27851 25.4992 8.02771 26.7193C8.50883 27.1598 9.06398 27.2988 9.69895 27.3418C10.7891 27.4313 11.763 27.7497 12.5993 28.4738C12.6829 28.5347 12.6829 28.5347 12.7681 28.5969C13.1642 28.9361 13.446 29.4046 13.6857 29.8625C13.7033 29.8948 13.7209 29.927 13.739 29.9602C14.1435 30.7725 14.1502 31.6613 14.1471 32.5474C14.1464 32.7549 14.1471 32.9623 14.148 33.1697C14.1495 33.5351 14.1499 33.9004 14.1498 34.2657C14.1497 34.8517 14.1505 35.4376 14.1529 36.0235C14.1535 36.2271 14.153 36.4307 14.1524 36.6343C14.1528 36.7596 14.1532 36.885 14.1536 37.0104C14.1532 37.0663 14.1527 37.1222 14.1523 37.1798C14.1565 37.7712 14.3169 38.2961 14.6806 38.7676C15.1401 39.2202 15.6813 39.4473 16.3224 39.4566C16.8566 39.4506 17.236 39.3241 17.6669 39.0097C17.7743 38.9363 17.7743 38.9363 17.9431 38.8801C18.0041 38.776 18.0041 38.776 18.0556 38.6551C18.1251 38.5471 18.1963 38.4404 18.2683 38.3341C18.4283 38.033 18.4635 37.7336 18.4655 37.397C18.4659 37.3576 18.4663 37.3182 18.4667 37.2776C18.4674 37.1927 18.4679 37.1078 18.4682 37.0229C18.4687 36.8877 18.4698 36.7526 18.4712 36.6174C18.4739 36.3298 18.4757 36.0423 18.4775 35.7547C18.4795 35.4224 18.4819 35.0902 18.4851 34.7579C18.4862 34.6261 18.4867 34.4944 18.4872 34.3626C18.4967 33.0227 18.7971 31.8578 19.7578 30.8748C20.638 30.0122 21.7413 29.6393 22.9615 29.6412C23.9322 29.6564 24.829 29.9426 25.5931 30.5551C25.6399 30.592 25.6866 30.6289 25.7348 30.6669C26.5707 31.3692 27.0332 32.3507 27.1681 33.4238C27.173 33.5512 27.1753 33.6787 27.1755 33.8062C27.1756 33.8426 27.1757 33.8789 27.1758 33.9164C27.1762 34.0372 27.1761 34.158 27.1761 34.2788C27.1762 34.3659 27.1764 34.453 27.1767 34.5401C27.1771 34.7271 27.1774 34.9141 27.1776 35.1012C27.1779 35.3975 27.1788 35.6937 27.1799 35.99C27.1803 36.0917 27.1806 36.1933 27.181 36.295C27.1811 36.3459 27.1813 36.3968 27.1815 36.4492C27.1839 37.1385 27.1857 37.8278 27.1864 38.5171C27.1869 38.9827 27.1882 39.4483 27.1903 39.9139C27.1914 40.1599 27.1921 40.4059 27.1919 40.6519C27.1916 40.8835 27.1924 41.1152 27.1939 41.3468C27.1943 41.4313 27.1943 41.5159 27.1939 41.6004C27.1906 42.352 27.3023 42.9937 27.8431 43.5488C28.2874 43.9549 28.8 44.1347 29.4034 44.1232C29.9655 44.0708 30.5083 43.8405 30.8982 43.4258C31.2323 42.9996 31.3933 42.5087 31.3946 41.9728C31.3951 41.8702 31.3951 41.8702 31.3956 41.7656C31.3956 41.69 31.3957 41.6143 31.3957 41.5386C31.396 41.4581 31.3963 41.3776 31.3966 41.2971C31.3973 41.0758 31.3978 40.8545 31.3981 40.6333C31.3986 40.3947 31.3993 40.156 31.4001 39.9174C31.4013 39.504 31.4023 39.0906 31.4032 38.6772C31.4045 38.0795 31.4061 37.4818 31.4077 36.8841C31.4104 35.9143 31.4128 34.9446 31.4151 33.9748C31.4173 33.0328 31.4197 32.0907 31.4221 31.1487C31.4224 31.0616 31.4224 31.0616 31.4226 30.9727C31.4234 30.6814 31.4242 30.3902 31.4249 30.0989C31.4313 27.6822 31.4373 25.2655 31.4431 22.8488C31.4089 22.8454 31.3747 22.8419 31.3395 22.8383C31.2943 22.8336 31.2491 22.8288 31.2026 22.8239C31.1357 22.817 31.1357 22.817 31.0673 22.8099C29.0453 22.5418 27.1254 20.6657 25.9306 19.1363C25.8908 19.0875 25.851 19.0387 25.81 18.9885C24.9984 17.9723 24.2965 16.8483 23.6806 15.7051C23.6502 15.6492 23.6198 15.5933 23.5885 15.5358C21.8664 12.3551 19.169 6.69399 19.9505 2.97742C20.1647 2.33943 20.5469 1.85828 21.1423 1.54766C21.3241 1.46022 21.5004 1.39474 21.6943 1.34023C21.9377 1.26532 22.056 1.14067 22.2245 0.955273C22.8349 0.378923 23.8195 0.367469 24.4857 0.844531ZM4.07153 12.3872C3.55646 13.0574 3.39158 13.806 3.48684 14.6363C3.62767 15.3247 4.00188 15.9461 4.55559 16.3801C5.28422 16.8174 5.97518 17.0106 6.83218 16.8496C7.5538 16.6492 8.15447 16.2415 8.55989 15.6102C8.97216 14.874 9.07757 14.1062 8.8552 13.2898C8.69047 12.8231 8.4107 12.435 8.04309 12.1051C7.9932 12.0587 7.94332 12.0123 7.89192 11.9645C6.73631 11.0203 5.01461 11.2957 4.07153 12.3872ZM25.7056 15.0863C26.2206 16.038 26.8234 16.9463 27.5056 17.7863C27.5513 17.8435 27.597 17.9006 27.644 17.9595C28.8125 19.3971 30.2648 20.7134 32.1743 20.9363C33.5476 21.0452 34.7788 20.3496 35.7935 19.4918C35.8428 19.4488 35.8922 19.4057 35.9431 19.3613C35.9965 19.3148 36.05 19.2682 36.105 19.2203C36.4128 18.9464 36.6922 18.665 36.9556 18.3488C37.0004 18.2977 37.0452 18.2466 37.0914 18.1939C37.9057 17.2615 38.6742 16.2077 39.2056 15.0863C38.9912 15.1621 38.8071 15.2651 38.6142 15.383C35.9799 16.9919 32.8882 17.5537 29.8709 16.8593C28.4831 16.5199 27.1641 15.9425 25.9617 15.1709C25.8297 15.0768 25.8297 15.0768 25.7056 15.0863Z" fill="#15C0CB"></path><path d="M7.37037 12.7236C7.75762 13.0426 7.94785 13.4673 8.01044 13.9602C8.0319 14.4948 7.90004 14.9441 7.56022 15.3603C7.20318 15.7327 6.75635 15.9286 6.24186 15.9474C5.71413 15.9378 5.26695 15.7456 4.89032 15.3799C4.50456 14.931 4.42398 14.5187 4.42999 13.9391C4.4633 13.4995 4.6402 13.1463 4.94086 12.8262C5.6905 12.2022 6.57248 12.2015 7.37037 12.7236Z" fill="#15C0CB"></path></g><defs><clipPath id="clip0_5205_1408"><rect width="45" height="47" fill="white"></rect></clipPath></defs></svg>