<svg xmlns="http://www.w3.org/2000/svg" width="45" height="47" viewBox="0 0 45 47" fill="none"><path d="M22.4405 11.0838C22.4721 11.0838 22.5036 11.0839 22.5361 11.0839C26.1995 11.0926 29.7609 12.3136 35.4445 15.7744C35.476 15.7968 35.5075 15.8192 35.54 15.8423C35.9012 16.0996 36.2568 16.3628 36.606 16.6362C36.6478 16.6687 36.6896 16.7013 36.7315 16.7338C37.2147 17.1108 37.6902 17.4973 38.1562 17.8955C38.22 17.95 38.2841 18.0044 38.3482 18.0587C38.6011 18.2736 38.8486 18.4931 39.0923 18.7185C39.2103 18.8268 39.331 18.9311 39.4537 19.0342C39.3914 19.1896 39.2791 19.299 39.1656 19.4182C39.1246 19.462 39.0836 19.5057 39.0427 19.5495C39.023 19.5705 39.0033 19.5916 38.983 19.6132C38.8967 19.706 38.8139 19.8015 38.7311 19.8973C38.6529 19.9868 38.5732 20.0748 38.4935 20.1629C38.3731 20.2963 38.2558 20.4312 38.1422 20.5704C37.9892 20.5088 37.8824 20.3993 37.7652 20.2871C37.5807 20.1134 37.3912 19.9502 37.1935 19.7915C37.0882 19.7045 36.9875 19.6138 36.887 19.5213C36.6873 19.3379 36.4798 19.1669 36.2688 18.9967C36.2245 18.9602 36.1802 18.9237 36.1359 18.8871C35.7698 18.5854 35.3938 18.2987 35.0126 18.0165C34.9259 17.952 34.8396 17.887 34.7535 17.8217C33.7275 17.0486 32.6323 16.361 31.5103 15.7369C31.4735 15.7164 31.4368 15.6959 31.399 15.6748C29.0255 14.3543 26.3682 13.3818 23.6418 13.1891C23.6144 13.187 23.5869 13.1849 23.5587 13.1828C20.5235 12.9632 17.4183 13.602 8.91953 18.4868C8.81481 18.5761 8.70788 18.6624 8.60046 18.7485C8.38749 18.9216 8.18846 19.1083 7.98852 19.296C7.89529 19.3834 7.80052 19.4685 7.70355 19.5517C7.58001 19.6582 7.46553 19.7716 7.35228 19.8889C7.28041 19.9588 7.20707 20.024 7.13112 20.0893C6.94938 20.2472 6.77971 20.4162 6.60993 20.5868C6.57952 20.6171 6.54912 20.6473 6.51779 20.6785C6.35571 20.8408 6.20012 21.0063 6.05054 21.1802C5.97916 21.2619 5.90328 21.3379 5.82543 21.4135C5.69912 21.5383 5.58019 21.6664 5.46464 21.8012C5.38214 21.8961 5.29704 21.9884 5.21187 22.0809C5.05659 22.251 4.91022 22.4264 4.76562 22.6056C4.68426 22.7041 4.60011 22.799 4.51402 22.8935C4.35547 23.0679 4.20584 23.2482 4.05793 23.4316C4.0012 23.5016 3.9439 23.5711 3.88656 23.6405C3.84358 23.6928 3.8006 23.7451 3.75762 23.7974C3.73759 23.8216 3.71755 23.8457 3.69691 23.8706C3.55073 24.0492 3.4213 24.2358 3.29628 24.4297C3.57917 24.7956 3.86315 25.1599 4.15806 25.5163C4.21193 25.5826 4.26579 25.649 4.31965 25.7153C4.4863 25.919 4.65716 26.1189 4.82899 26.3182C4.90442 26.4057 4.97935 26.4936 5.0538 26.582C5.31806 26.8947 5.59444 27.1942 5.87618 27.4913C5.9543 27.5747 6.03141 27.6589 6.10844 27.7432C6.36128 28.0195 6.62265 28.2864 6.88789 28.5507C6.95945 28.6221 7.0308 28.6937 7.10214 28.7652C7.30589 28.9691 7.50892 29.1716 7.72867 29.3584C7.83853 29.4524 7.9426 29.5527 8.04779 29.6519C8.23404 29.8262 8.42434 29.992 8.62358 30.1514C8.72164 30.2312 8.81711 30.313 8.91234 30.3961C9.20263 30.6488 9.50439 30.8838 9.81212 31.1149C9.88642 31.1708 9.96037 31.2272 10.0342 31.2837C13.0168 33.5584 16.5639 35.1451 21.9557 35.6703C21.9948 35.6711 22.0338 35.672 22.074 35.6728C25.0809 35.725 28.0035 35.0913 33.9832 31.9984C34.0098 31.98 34.0365 31.9616 34.0639 31.9427C34.7724 31.4518 35.4611 30.9327 36.1161 30.3724C36.22 30.2839 36.3261 30.1984 36.4327 30.1132C36.6303 29.9527 36.8156 29.7805 37.0003 29.6055C37.1117 29.4999 37.224 29.3966 37.3407 29.2968C37.5277 29.1336 37.7025 28.9589 37.8778 28.7832C37.9125 28.7486 37.9472 28.7139 37.983 28.6782C38.056 28.6052 38.1289 28.5322 38.2018 28.4591C38.2945 28.3662 38.3873 28.2735 38.4802 28.1808C38.5699 28.0913 38.6594 28.0017 38.7489 27.9121C38.7983 27.8628 38.7983 27.8628 38.8488 27.8125C39.0132 27.6475 39.1726 27.4803 39.3241 27.3034C39.4068 27.2071 39.4936 27.1149 39.5801 27.0221C39.7429 26.846 39.896 26.6641 40.0464 26.4773C40.1273 26.3791 40.211 26.2847 40.2967 26.1907C40.473 25.9968 40.6379 25.795 40.8025 25.5912C40.8413 25.5438 40.8801 25.4964 40.9189 25.449C41.0229 25.3218 41.1263 25.1941 41.2293 25.0662C41.2876 24.9943 41.3464 24.923 41.4054 24.8517C41.4402 24.8086 41.475 24.7655 41.5098 24.7224C41.5406 24.6848 41.5714 24.6472 41.6031 24.6084C41.6724 24.5109 41.6724 24.5109 41.6646 24.4082C41.6184 24.297 41.5605 24.2307 41.477 24.144C41.3566 24.0156 41.2422 23.886 41.1327 23.7482C40.9709 23.548 40.7973 23.3605 40.6203 23.1737C40.5105 23.0578 40.4029 22.9408 40.2983 22.8201C40.1413 22.6393 39.9761 22.4667 39.8103 22.294C39.6528 22.1279 39.5119 21.9555 39.3787 21.7694C39.7515 21.4176 40.1246 21.0662 40.5028 20.7203C40.5365 20.6892 40.5703 20.6581 40.6051 20.626C40.6507 20.5846 40.6507 20.5846 40.6971 20.5423C40.7232 20.5185 40.7492 20.4948 40.776 20.4703C40.84 20.4205 40.84 20.4205 40.9149 20.4205C40.9694 20.4752 40.9694 20.4752 41.0326 20.5511C41.1726 20.7156 41.3189 20.8728 41.4676 21.0294C41.7105 21.2864 41.9511 21.5452 42.1889 21.8069C42.2326 21.8546 42.2326 21.8546 42.2771 21.9032C42.4513 22.0945 42.6167 22.2911 42.7793 22.4923C42.8594 22.589 42.9423 22.6817 43.0272 22.774C43.2163 22.9818 43.3875 23.2021 43.5593 23.4242C43.6308 23.5163 43.7029 23.608 43.7751 23.6996C43.8101 23.7441 43.845 23.7886 43.8797 23.8332C43.9553 23.9302 44.0316 24.0254 44.1116 24.1188C44.1363 24.148 44.161 24.1772 44.1864 24.2072C44.2079 24.2316 44.2294 24.256 44.2516 24.2811C44.2871 24.3548 44.2871 24.3548 44.2595 24.4424C44.2115 24.5435 44.158 24.6232 44.0895 24.7114C44.065 24.7433 44.0405 24.7751 44.0153 24.8079C43.9891 24.8415 43.9629 24.8751 43.9359 24.9098C43.8811 24.9807 43.8265 25.0516 43.7718 25.1226C43.7447 25.1576 43.7177 25.1926 43.6898 25.2287C43.5839 25.3664 43.4799 25.5057 43.3762 25.6451C42.9069 26.273 42.4132 26.8826 41.9039 27.4784C41.8489 27.5428 41.7941 27.6074 41.7392 27.6719C41.5365 27.9102 41.3311 28.1452 41.1191 28.3753C41.0471 28.4546 40.9764 28.5346 40.9062 28.6155C40.4813 29.1015 40.0257 29.559 39.5688 30.0147C39.4738 30.1095 39.379 30.2045 39.2842 30.2995C39.2229 30.3608 39.1615 30.4221 39.1002 30.4834C39.0724 30.5113 39.0445 30.5392 39.0158 30.568C38.8638 30.7194 38.7084 30.8647 38.5456 31.0045C38.442 31.094 38.3428 31.1881 38.2429 31.2818C38.0632 31.449 37.8788 31.6076 37.6872 31.7613C37.5888 31.8416 37.4928 31.9239 37.397 32.0073C37.1054 32.2612 36.8017 32.4963 36.493 32.7289C36.4257 32.7799 36.3589 32.8315 36.2924 32.8834C35.019 33.877 33.6249 34.7184 32.1847 35.4455C32.1484 35.4639 32.1121 35.4822 32.0747 35.5011C29.2947 36.896 26.1596 37.6963 22.5271 37.7381C22.4905 37.7381 22.4538 37.7381 22.416 37.7381C20.9441 37.7356 19.4991 37.5813 18.059 37.2815C17.9906 37.2674 17.9906 37.2674 17.9209 37.253C16.3359 36.9204 14.7927 36.3863 13.3341 35.6847C13.2301 35.6351 13.1256 35.5866 13.0209 35.5386C12.5579 35.325 12.1157 35.0821 11.6744 34.827C11.5872 34.777 11.4997 34.728 11.4116 34.6796C11.068 34.4907 10.7382 34.2851 10.4113 34.0686C10.3499 34.028 10.2883 33.9876 10.2267 33.9473C9.21174 33.2793 8.2517 32.5394 7.32849 31.7502C7.26616 31.6971 7.20357 31.6443 7.14093 31.5915C6.83993 31.3369 6.55021 31.0721 6.26371 30.8014C6.18155 30.7246 6.09858 30.6487 6.01555 30.5729C5.74479 30.325 5.48282 30.0692 5.22371 29.8091C5.15507 29.7403 5.08622 29.6716 5.01736 29.603C4.81927 29.405 4.62338 29.2074 4.44173 28.994C4.32853 28.8631 4.20729 28.7396 4.08781 28.6145C3.89046 28.4065 3.70212 28.1965 3.52373 27.972C3.43894 27.868 3.34972 27.7694 3.25881 27.6707C3.09325 27.4904 2.93762 27.3042 2.78401 27.1137C2.72772 27.0445 2.67074 26.9759 2.61365 26.9073C2.35002 26.5904 2.09438 26.2688 1.84554 25.9402C1.74059 25.8017 1.63378 25.6647 1.52649 25.528C1.24472 25.1689 0.975347 24.8018 0.710938 24.4297C0.811372 24.2452 0.920818 24.0822 1.05284 23.9192C1.08965 23.873 1.12643 23.8269 1.1632 23.7807C1.18161 23.7577 1.20003 23.7346 1.219 23.7109C1.30066 23.6079 1.38051 23.5037 1.46031 23.3993C1.74013 23.0345 2.02347 22.6726 2.3158 22.3177C2.3698 22.2521 2.42356 22.1863 2.47709 22.1204C2.67016 21.8826 2.86785 21.6492 3.06781 21.4173C3.14369 21.3292 3.21911 21.2408 3.29409 21.1521C3.51461 20.8915 3.74161 20.6387 3.97572 20.3903C4.08503 20.2743 4.19275 20.1578 4.29623 20.0365C4.43072 19.8799 4.57837 19.7368 4.72595 19.5927C4.80726 19.5116 4.88291 19.4269 4.95794 19.3399C5.09613 19.1804 5.24257 19.0307 5.39219 18.882C5.41709 18.8569 5.44199 18.8319 5.46764 18.8061C5.61559 18.6584 5.76797 18.5185 5.92621 18.3819C6.01541 18.3035 6.09853 18.22 6.18138 18.1349C6.31376 18.0011 6.44867 17.874 6.59163 17.7516C6.6788 17.6764 6.76372 17.599 6.84879 17.5214C7.0098 17.3761 7.17571 17.2384 7.34437 17.1021C7.44401 17.0202 7.54154 16.9365 7.63875 16.8518C7.93034 16.5981 8.23388 16.363 8.54252 16.1305C8.60982 16.0795 8.67662 16.0279 8.74316 15.9759C11.3513 13.9409 14.3994 12.422 21.019 11.1283C21.0438 11.1267 21.0685 11.1252 21.094 11.1236C21.543 11.096 21.9907 11.0831 22.4405 11.0838Z" fill="#15C0CB"></path><path d="M28.8778 17.0249C28.9391 17.08 29.0002 17.1355 29.0609 17.1913C29.1221 17.2478 29.1842 17.3035 29.2467 17.3585C29.4135 17.5052 29.5704 17.6528 29.7133 17.8229C29.7703 17.8907 29.8281 17.957 29.8869 18.0231C30.3256 18.5192 30.6971 19.0579 31.0231 19.6337C31.0435 19.669 31.0435 19.669 31.0642 19.7049C32.3431 21.9392 32.5537 24.6315 31.911 27.0938C31.4857 28.6407 30.6345 30.0612 29.5244 31.2115C29.5032 31.2336 29.4819 31.2556 29.4601 31.2784C29.1842 31.5634 28.9037 31.8325 28.5877 32.0733C28.5566 32.0971 28.5566 32.0971 28.525 32.1214C26.4876 33.6757 23.9224 34.433 21.3657 34.1247C19.549 33.8771 17.8377 33.1972 16.4103 32.0359C16.3735 32.0067 16.3367 31.9775 16.2988 31.9475C15.765 31.5124 15.2483 31.0154 14.8366 30.4622C14.8044 30.4202 14.7721 30.3782 14.7399 30.3363C14.4708 29.9821 14.235 29.6106 14.0123 29.2257C13.9902 29.1876 13.9902 29.1876 13.9675 29.1488C13.1535 27.7335 12.7566 26.0723 12.7641 24.4461C12.7642 24.4153 12.7643 24.3845 12.7643 24.3527C12.7663 23.8226 12.7972 23.3042 12.8882 22.7811C12.8941 22.7466 12.8999 22.7121 12.9059 22.6765C13.1565 21.2488 13.7561 19.8643 14.6118 18.697C14.6355 18.6645 14.6355 18.6645 14.6597 18.6313C14.8591 18.3594 15.0739 18.107 15.3045 17.8614C15.3808 17.7794 15.4534 17.6963 15.5251 17.6104C17.0246 15.89 19.4552 14.8827 21.6871 14.6947C24.3138 14.5429 26.8732 15.2887 28.8778 17.0249ZM17.3845 18.6595C17.3454 18.6942 17.3062 18.7288 17.267 18.7634C16.7136 19.2563 16.27 19.8274 15.8858 20.458C15.8653 20.4909 15.8653 20.4909 15.8444 20.5245C15.2846 21.4296 14.9638 22.4781 14.8366 23.5304C14.8331 23.5592 14.8296 23.5879 14.8259 23.6175C14.6045 25.5922 15.2055 27.6123 16.4247 29.1713C16.8764 29.737 17.3911 30.2696 17.984 30.687C18.0048 30.7019 18.0255 30.7168 18.0469 30.7322C19.2351 31.583 20.7149 32.1067 22.1805 32.1483C22.2045 32.149 22.2284 32.1498 22.2531 32.1506C24.3868 32.2106 26.3693 31.4024 27.9125 29.948C28.4366 29.4441 28.8602 28.8794 29.2246 28.2515C29.2389 28.2272 29.2532 28.2029 29.2679 28.1779C30.2637 26.4637 30.4725 24.3671 29.9875 22.462C29.5912 20.9763 28.749 19.5189 27.5385 18.5471C27.5023 18.517 27.4661 18.4868 27.4288 18.4558C24.6664 16.1912 20.6327 16.1355 17.3845 18.6595Z" fill="#15C0CB"></path><path d="M22.8363 18.6173C23.1794 18.6197 23.1794 18.6197 23.5295 18.622C23.5295 19.2897 23.5295 19.9574 23.5295 20.6453C22.9253 20.6594 22.9253 20.6594 22.7382 20.6633C21.6024 20.6908 20.6487 21.0168 19.813 21.7975C19.1326 22.5152 18.738 23.5086 18.7616 24.4999C18.8449 25.5417 19.2332 26.5471 20.0449 27.2398C20.8278 27.8704 21.8096 28.2283 22.8236 28.1314C23.6475 28.0394 24.4125 27.7274 25.0282 27.1649C25.072 27.1257 25.072 27.1257 25.1166 27.0857C25.8729 26.3725 26.2104 25.3718 26.2427 24.3539C26.246 24.2371 26.2483 24.1203 26.2506 24.0035C26.2553 23.7979 26.2599 23.5924 26.2647 23.3806C26.9324 23.3806 27.6001 23.3806 28.288 23.3806C28.305 25.075 28.305 25.075 28.1756 25.6287C28.1675 25.6655 28.1675 25.6655 28.1592 25.7031C27.9203 26.767 27.3899 27.6912 26.6394 28.4763C26.6024 28.5168 26.6024 28.5168 26.5647 28.5581C25.6024 29.5768 24.133 30.156 22.7482 30.2104C21.1396 30.2478 19.638 29.6959 18.4687 28.5835C17.3594 27.5082 16.737 26.064 16.6995 24.5214C16.6849 23.0977 17.1531 21.7192 18.0965 20.6453C18.123 20.6143 18.1494 20.5833 18.1767 20.5514C18.9478 19.6665 19.9687 19.067 21.1034 18.7766C21.1312 18.7694 21.159 18.7623 21.1876 18.7549C21.7352 18.6249 22.277 18.612 22.8363 18.6173Z" fill="#15C0CB"></path><path d="M36.3063 33.8344C36.4519 33.8829 36.4665 33.935 36.5424 34.0665C36.5664 34.1076 36.5904 34.1487 36.6151 34.1911C36.641 34.2361 36.6668 34.2811 36.6927 34.3261C36.7329 34.3954 36.7733 34.4645 36.8137 34.5337C36.8413 34.5808 36.8688 34.628 36.8962 34.6752C37.0283 34.9018 37.1645 35.1259 37.3015 35.3495C37.4727 35.6295 37.6415 35.9104 37.805 36.1949C37.5237 36.3879 37.2329 36.5645 36.9409 36.7405C36.8716 36.7824 36.8022 36.8243 36.7329 36.8662C36.6885 36.8931 36.6441 36.9199 36.5996 36.9466C36.4789 37.0193 36.3606 37.0947 36.2432 37.1724C36.2022 37.1961 36.1612 37.2197 36.1189 37.244C35.9709 37.1947 35.9548 37.1365 35.8776 37.0027C35.8404 36.939 35.8404 36.939 35.8025 36.874C35.7896 36.8514 35.7766 36.8289 35.7633 36.8057C35.7095 36.712 35.655 36.6188 35.6005 36.5256C35.5734 36.4793 35.5464 36.4329 35.5194 36.3865C35.4186 36.2137 35.315 36.0431 35.208 35.8741C35.071 35.6574 34.9363 35.4395 34.8028 35.2207C34.7846 35.1908 34.7664 35.1609 34.7476 35.1302C34.7051 35.0604 34.6626 34.9907 34.6202 34.921C34.7342 34.7971 34.8529 34.714 34.9971 34.6276C35.019 34.6144 35.0409 34.6012 35.0635 34.5876C35.1334 34.5455 35.2035 34.5037 35.2735 34.462C35.3421 34.4208 35.4106 34.3796 35.4791 34.3384C35.5245 34.3112 35.57 34.284 35.6155 34.2569C35.7308 34.1881 35.845 34.1181 35.9579 34.0455C35.9801 34.0314 36.0023 34.0172 36.0252 34.0027C36.0863 33.9637 36.1471 33.9242 36.2079 33.8847C36.2404 33.8681 36.2728 33.8515 36.3063 33.8344Z" fill="#15C0CC"></path><path d="M36.044 11.5779C36.1649 11.6239 36.2752 11.6746 36.3859 11.7414C36.4151 11.759 36.4443 11.7765 36.4744 11.7946C36.5055 11.8135 36.5365 11.8324 36.5686 11.8519C36.6009 11.8715 36.6332 11.8911 36.6665 11.9113C36.7354 11.9531 36.8042 11.995 36.8729 12.037C36.9833 12.104 37.0941 12.1703 37.2049 12.2365C37.277 12.28 37.349 12.3235 37.421 12.3671C37.4556 12.3876 37.4901 12.4081 37.5258 12.4293C37.5575 12.4486 37.5891 12.4679 37.6218 12.4878C37.65 12.5048 37.6782 12.5218 37.7072 12.5392C37.7271 12.5558 37.747 12.5724 37.7676 12.5896C37.7676 12.737 37.715 12.8026 37.6385 12.9285C37.6249 12.951 37.6114 12.9735 37.5974 12.9966C37.5529 13.0703 37.508 13.1437 37.4631 13.2172C37.4323 13.2679 37.4016 13.3187 37.3708 13.3695C37.2932 13.4976 37.2153 13.6255 37.1374 13.7534C37.0708 13.8627 37.0045 13.9721 36.9381 14.0816C36.7542 14.3847 36.5697 14.6873 36.3812 14.9876C36.2248 14.9307 36.0859 14.853 35.9442 14.767C35.9086 14.7456 35.9086 14.7456 35.8723 14.7238C35.8222 14.6937 35.7722 14.6635 35.7221 14.6332C35.647 14.5878 35.5717 14.5425 35.4965 14.4973C35.3763 14.4251 35.2566 14.3523 35.137 14.2791C35.0722 14.2397 35.0071 14.2007 34.9419 14.1618C34.9042 14.1389 34.8666 14.1159 34.8277 14.0923C34.7947 14.0724 34.7616 14.0525 34.7276 14.032C34.7045 14.0135 34.6814 13.995 34.6576 13.9759C34.6576 13.8363 34.6988 13.7809 34.7703 13.6615C34.7947 13.6206 34.8191 13.5797 34.8442 13.5376C34.871 13.4932 34.8978 13.4489 34.9246 13.4045C34.9519 13.359 34.9792 13.3134 35.0064 13.2679C35.0896 13.129 35.1734 12.9904 35.2571 12.8518C35.2946 12.7898 35.2946 12.7898 35.3328 12.7265C35.5657 12.3409 35.801 11.9572 36.044 11.5779Z" fill="#15C0CB"></path><path d="M8.99154 11.5779C9.09793 11.705 9.18372 11.8318 9.26318 11.9772C9.28577 12.0182 9.30835 12.0592 9.33162 12.1015C9.34338 12.1231 9.35513 12.1446 9.36725 12.1668C9.42933 12.2806 9.492 12.394 9.55459 12.5075C9.56716 12.5303 9.57973 12.5531 9.59267 12.5766C9.70968 12.7889 9.82897 12.9998 9.94933 13.2101C9.9667 13.2406 9.98406 13.271 10.0019 13.3023C10.11 13.4909 10.2214 13.6769 10.3359 13.8616C10.3779 13.9384 10.3779 13.9384 10.3779 14.0134C10.3576 14.0242 10.3374 14.0351 10.3165 14.0463C9.8517 14.2963 9.39234 14.5536 8.93892 14.8238C8.90277 14.8452 8.86661 14.8666 8.82937 14.8886C8.79733 14.9077 8.7653 14.9269 8.73229 14.9465C8.65432 14.9876 8.65432 14.9876 8.57938 14.9876C8.5651 14.9616 8.55082 14.9357 8.53611 14.909C8.25348 14.3962 7.96816 13.8857 7.6706 13.3814C7.6109 13.28 7.55179 13.1784 7.49279 13.0767C7.47091 13.0397 7.44904 13.0028 7.4265 12.9647C7.40553 12.9282 7.38457 12.8918 7.36296 12.8542C7.34384 12.8214 7.32471 12.7886 7.30501 12.7548C7.26797 12.6645 7.26797 12.6645 7.27117 12.5837C7.31759 12.4901 7.36674 12.4666 7.45912 12.4188C7.50816 12.3928 7.50816 12.3928 7.55819 12.3662C7.59379 12.348 7.6294 12.3297 7.66608 12.3109C7.74086 12.2714 7.8156 12.2318 7.89031 12.1922C7.94888 12.1613 7.94888 12.1613 8.00864 12.1298C8.21178 12.0211 8.41192 11.9072 8.61216 11.7934C8.65001 11.7719 8.68786 11.7504 8.72686 11.7283C8.81512 11.6782 8.90334 11.6281 8.99154 11.5779Z" fill="#15C0CC"></path><path d="M21.4686 38.4055C22.1487 38.4055 22.8288 38.4055 23.5294 38.4055C23.5294 39.3082 23.5294 40.2108 23.5294 41.1408C22.8494 41.1408 22.1693 41.1408 21.4686 41.1408C21.4686 40.2381 21.4686 39.3355 21.4686 38.4055Z" fill="#16C0CC"></path><path d="M21.4686 7.68115C22.1487 7.68115 22.8288 7.68115 23.5294 7.68115C23.5294 8.58378 23.5294 9.4864 23.5294 10.4164C22.8494 10.4164 22.1693 10.4164 21.4686 10.4164C21.4686 9.51375 21.4686 8.61113 21.4686 7.68115Z" fill="#16C0CC"></path><path d="M41.3646 29.6753C41.5117 29.8187 41.6475 29.9691 41.7814 30.125C41.8133 30.162 41.8133 30.162 41.8459 30.1997C41.9974 30.3756 42.1478 30.5524 42.2974 30.7299C42.3869 30.8361 42.4768 30.9418 42.5675 31.0469C42.7725 31.2844 42.9745 31.5226 43.1631 31.7736C43.0197 31.9208 42.8692 32.0565 42.7134 32.1904C42.6767 32.2221 42.6767 32.2221 42.6392 32.2545C42.4381 32.4277 42.2357 32.5995 42.0327 32.7706C41.9093 32.8747 41.7867 32.9797 41.6643 33.085C41.555 33.0363 41.485 32.988 41.4077 32.8969C41.3884 32.8743 41.369 32.8517 41.349 32.8284C41.3287 32.8041 41.3083 32.7798 41.2873 32.7548C41.2658 32.7296 41.2443 32.7044 41.2222 32.6785C41.157 32.6019 41.0922 32.525 41.0273 32.448C40.9914 32.4057 40.9555 32.3633 40.9196 32.321C40.8524 32.2417 40.7853 32.1623 40.7184 32.0828C40.6083 31.9525 40.497 31.8233 40.3857 31.694C40.1962 31.4736 40.011 31.2502 39.8283 31.0242C39.9661 30.8389 40.1268 30.7043 40.3068 30.5605C40.4449 30.4495 40.5779 30.3329 40.7112 30.2163C40.9246 30.03 41.141 29.8494 41.3646 29.6753Z" fill="#15C0CC"></path><path d="M3.37122 15.7369C3.53169 15.796 3.62171 15.9182 3.72717 16.0461C3.76722 16.0937 3.80727 16.1414 3.84734 16.1891C3.86775 16.2135 3.88816 16.2379 3.90919 16.2631C3.98721 16.3561 4.06641 16.448 4.1457 16.5398C4.32326 16.7456 4.49713 16.9539 4.66843 17.165C4.84461 17.3788 5.02623 17.588 5.20719 17.7977C5.09251 17.9412 4.98242 18.061 4.83719 18.1748C4.66244 18.3144 4.49268 18.4584 4.32433 18.6056C4.11092 18.7919 3.89451 18.9725 3.67097 19.1466C3.39408 18.8786 3.14557 18.586 2.90345 18.2867C2.77281 18.1283 2.63768 17.974 2.50269 17.8192C2.34873 17.6423 2.19935 17.4625 2.0525 17.2796C1.99535 17.2108 1.93702 17.1476 1.87247 17.0858C1.91849 16.9477 1.96937 16.9172 2.08323 16.8282C2.26032 16.687 2.43262 16.5417 2.60311 16.3926C2.80518 16.2163 3.0097 16.0441 3.21856 15.8758C3.29806 15.8125 3.29806 15.8125 3.37122 15.7369Z" fill="#15C0CC"></path><path d="M41.5894 15.7369C41.6925 15.7848 41.7747 15.836 41.8597 15.9113C41.8821 15.9309 41.9045 15.9505 41.9275 15.9707C41.9512 15.9917 41.9748 16.0127 41.9992 16.0343C42.0496 16.0786 42.1001 16.1228 42.1505 16.167C42.1758 16.1891 42.2011 16.2113 42.2271 16.2342C42.5325 16.501 42.8445 16.7599 43.1631 17.0109C43.071 17.1795 42.9547 17.3152 42.8282 17.4582C42.7843 17.5083 42.7404 17.5584 42.6966 17.6085C42.6744 17.6338 42.6522 17.659 42.6294 17.6851C42.368 17.9837 42.1111 18.2858 41.8609 18.5938C41.7095 18.7794 41.5556 18.9629 41.402 19.1466C41.2249 19.0344 41.0695 18.9084 40.9126 18.7696C40.8629 18.7261 40.8133 18.6826 40.7636 18.6392C40.7264 18.6066 40.7264 18.6066 40.6885 18.5734C40.5784 18.4776 40.4669 18.3835 40.3552 18.2895C40.1779 18.14 40.002 17.9889 39.8283 17.8352C39.9911 17.6074 40.1706 17.3976 40.3547 17.1871C40.4752 17.049 40.5936 16.9099 40.7089 16.7673C40.902 16.5288 41.1041 16.2982 41.3058 16.0669C41.4009 15.9574 41.4952 15.8472 41.5894 15.7369Z" fill="#15C0CC"></path><path d="M3.6335 29.6753C3.81941 29.7878 3.97224 29.9256 4.13231 30.0721C4.22852 30.1584 4.32686 30.2404 4.42737 30.3217C4.6931 30.5366 4.94976 30.762 5.20719 30.9867C5.02688 31.2392 4.82528 31.4702 4.62145 31.7036C4.50864 31.8328 4.39737 31.9632 4.28686 32.0944C4.12193 32.2901 3.95576 32.4847 3.78886 32.6787C3.67336 32.8131 3.55931 32.9486 3.44616 33.085C3.34169 33.0367 3.25919 32.9843 3.17319 32.908C3.15043 32.888 3.12768 32.868 3.10423 32.8474C3.08028 32.8261 3.05633 32.8048 3.03166 32.7829C2.98106 32.7384 2.93042 32.6941 2.87974 32.6497C2.85492 32.628 2.83011 32.6063 2.80454 32.5839C2.67999 32.4759 2.55201 32.3723 2.42396 32.2686C2.30571 32.1724 2.18853 32.075 2.07152 31.9773C2.05166 31.9607 2.0318 31.9442 2.01134 31.9271C1.96504 31.8884 1.91875 31.8497 1.87247 31.811C1.96498 31.6414 2.08236 31.5051 2.20969 31.3614C2.25377 31.3111 2.29782 31.2608 2.34185 31.2105C2.36382 31.1855 2.38579 31.1604 2.40843 31.1346C2.50022 31.0293 2.59043 30.9227 2.68039 30.8158C2.80536 30.6674 2.9311 30.5198 3.05774 30.3728C3.25479 30.1442 3.4473 29.913 3.6335 29.6753Z" fill="#15C0CB"></path><path d="M8.57938 33.8344C9.18539 34.1258 9.76501 34.4611 10.3404 34.8085C10.3183 34.9543 10.2745 35.061 10.2017 35.1888C10.1806 35.226 10.1596 35.2633 10.1379 35.3017C10.1151 35.3414 10.0923 35.3812 10.0688 35.4221C10.0337 35.484 10.0337 35.484 9.99784 35.5471C9.94906 35.6331 9.90017 35.719 9.85118 35.8049C9.78191 35.9264 9.71308 36.0482 9.64446 36.1702C9.44206 36.5297 9.23906 36.8888 9.02901 37.244C8.5789 37.0292 8.14866 36.7825 7.7176 36.5321C7.6915 36.517 7.6654 36.5018 7.63851 36.4862C7.51481 36.4144 7.39127 36.3423 7.26797 36.2698C7.28926 36.1372 7.32248 36.0381 7.39033 35.9224C7.40799 35.8919 7.42566 35.8614 7.44385 35.83C7.46309 35.7974 7.48233 35.7648 7.50215 35.7312C7.54321 35.6605 7.58424 35.5898 7.62524 35.5191C7.65728 35.4641 7.65728 35.4641 7.68995 35.408C7.79665 35.2239 7.90113 35.0385 8.00564 34.853C8.02587 34.8172 8.04611 34.7814 8.06696 34.7444C8.23812 34.4413 8.40889 34.1379 8.57938 33.8344Z" fill="#15C0CB"></path><path d="M30.2364 37.1691C30.2642 37.247 30.2881 37.3263 30.3102 37.406C30.3206 37.4431 30.3206 37.4431 30.3313 37.481C30.3543 37.5631 30.3769 37.6452 30.3994 37.7274C30.4152 37.7843 30.4311 37.8412 30.447 37.8981C30.4802 38.0175 30.5133 38.1369 30.5462 38.2564C30.5884 38.4097 30.631 38.5629 30.6737 38.7161C30.7143 38.8619 30.7547 39.0078 30.7952 39.1536C30.8068 39.1955 30.8068 39.1955 30.8187 39.2383C30.8406 39.3172 30.8624 39.3962 30.8841 39.4752C30.8965 39.5201 30.9089 39.5651 30.9217 39.6115C30.9483 39.717 30.9483 39.717 30.9483 39.7919C30.5698 39.9158 30.1879 40.0284 29.8052 40.1383C29.7508 40.154 29.6965 40.1698 29.6422 40.1858C29.5647 40.2086 29.487 40.2308 29.4093 40.2529C29.3638 40.2661 29.3184 40.2792 29.2716 40.2927C29.1492 40.3166 29.0815 40.3069 28.9624 40.279C28.8686 39.9537 28.7751 39.6284 28.682 39.3029C28.6388 39.1517 28.5955 39.0006 28.5518 38.8496C28.5098 38.7039 28.468 38.5582 28.4265 38.4123C28.4106 38.3566 28.3945 38.301 28.3784 38.2454C28.3558 38.1676 28.3337 38.0897 28.3116 38.0118C28.2989 37.9674 28.2862 37.9231 28.273 37.8774C28.2505 37.7686 28.2505 37.7686 28.288 37.6562C28.3631 37.6225 28.3631 37.6225 28.463 37.5947C28.5003 37.584 28.5375 37.5734 28.5759 37.5625C28.6165 37.5515 28.657 37.5405 28.6988 37.5291C28.7402 37.5176 28.7815 37.506 28.8241 37.4941C28.9117 37.4697 28.9994 37.4455 29.0871 37.4215C29.2218 37.3847 29.3563 37.347 29.4907 37.3093C29.5757 37.2857 29.6606 37.2622 29.7456 37.2387C29.8063 37.2218 29.8063 37.2218 29.8683 37.2045C29.9056 37.1943 29.943 37.1842 29.9815 37.1737C30.031 37.1601 30.031 37.1601 30.0815 37.1463C30.1614 37.1316 30.1614 37.1316 30.2364 37.1691Z" fill="#15C0CB"></path><path d="M16.0731 8.54293C16.1669 8.87375 16.2604 9.20465 16.3535 9.53566C16.3968 9.68934 16.4401 9.843 16.4837 9.99659C16.5257 10.1447 16.5675 10.2929 16.6091 10.4412C16.625 10.4978 16.641 10.5544 16.6572 10.611C16.6797 10.6901 16.7018 10.7692 16.7239 10.8484C16.743 10.9161 16.743 10.9161 16.7625 10.9851C16.785 11.0908 16.785 11.0908 16.7476 11.1657C16.6705 11.1947 16.6705 11.1947 16.5679 11.2224C16.5296 11.2329 16.4914 11.2434 16.452 11.2542C16.4104 11.2653 16.3688 11.2764 16.3259 11.2878C16.2835 11.2994 16.2412 11.3109 16.1975 11.3228C16.0617 11.3597 15.9257 11.3962 15.7898 11.4327C15.6979 11.4576 15.606 11.4825 15.5141 11.5075C15.2884 11.5688 15.0626 11.6297 14.8367 11.6903C14.7172 11.4387 14.6479 11.1741 14.5739 10.9064C14.5598 10.8558 14.5457 10.8052 14.5316 10.7546C14.5022 10.6491 14.4728 10.5435 14.4436 10.4379C14.4062 10.3026 14.3684 10.1673 14.3306 10.0321C14.3015 9.92785 14.2725 9.82357 14.2435 9.71927C14.2297 9.66937 14.2158 9.61947 14.2018 9.56959C14.1824 9.50004 14.1632 9.43045 14.144 9.36084C14.1275 9.3015 14.1275 9.3015 14.1107 9.24096C14.0873 9.14243 14.0873 9.14243 14.0873 9.03003C14.4657 8.90616 14.8477 8.79354 15.2304 8.68359C15.2847 8.66791 15.339 8.65208 15.3933 8.6361C15.4709 8.61332 15.5485 8.59109 15.6263 8.56899C15.6717 8.55586 15.7172 8.54272 15.764 8.52919C15.8864 8.50536 15.9541 8.51497 16.0731 8.54293Z" fill="#15C0CB"></path><path d="M28.9999 8.50547C29.3598 8.53434 29.7177 8.66117 30.0633 8.76009C30.1646 8.78908 30.266 8.81777 30.3674 8.84642C30.4319 8.86472 30.4964 8.88304 30.5608 8.90138C30.5911 8.90996 30.6214 8.91855 30.6526 8.9274C30.8646 8.98818 30.8646 8.98818 30.9482 9.03003C30.8345 9.54568 30.6948 10.0534 30.551 10.5614C30.5122 10.6991 30.4738 10.8369 30.4354 10.9747C30.4107 11.0622 30.386 11.1497 30.3613 11.2372C30.3499 11.2784 30.3385 11.3197 30.3267 11.3622C30.3159 11.3999 30.3051 11.4376 30.2941 11.4764C30.2847 11.5097 30.2753 11.543 30.2657 11.5772C30.2363 11.6528 30.2363 11.6528 30.1614 11.6903C30.0815 11.6754 30.0815 11.6754 29.9815 11.6476C29.9254 11.6322 29.9254 11.6322 29.8682 11.6165C29.8278 11.6051 29.7873 11.5936 29.7456 11.5819C29.7042 11.5703 29.6628 11.5588 29.6202 11.547C29.5325 11.5225 29.4449 11.4979 29.3574 11.4731C29.2229 11.4352 29.0882 11.3979 28.9535 11.3606C28.8686 11.3368 28.7837 11.313 28.6988 11.2891C28.638 11.2723 28.638 11.2723 28.5759 11.2552C28.5387 11.2446 28.5014 11.2339 28.463 11.223C28.43 11.2137 28.3971 11.2045 28.3631 11.1949C28.288 11.1657 28.288 11.1657 28.2505 11.0908C28.2676 11.0095 28.2886 10.929 28.311 10.849C28.3179 10.8242 28.3247 10.7994 28.3318 10.7739C28.3547 10.6916 28.378 10.6096 28.4012 10.5275C28.4172 10.4705 28.4331 10.4136 28.449 10.3567C28.4824 10.2373 28.516 10.1179 28.5498 9.99865C28.5931 9.84542 28.6361 9.69209 28.6789 9.53873C28.7118 9.42116 28.7448 9.30362 28.7779 9.1861C28.7937 9.12956 28.8096 9.07302 28.8254 9.01646C28.8476 8.93757 28.8699 8.85872 28.8922 8.77989C28.9049 8.73493 28.9175 8.68998 28.9306 8.64366C28.9624 8.54293 28.9624 8.54293 28.9999 8.50547Z" fill="#15C0CB"></path><path d="M14.7992 37.1316C15.2788 37.2557 15.7582 37.3802 16.2347 37.5157C16.303 37.5346 16.303 37.5346 16.3727 37.554C16.4159 37.5663 16.4591 37.5785 16.5036 37.5912C16.5417 37.6019 16.5797 37.6127 16.619 37.6237C16.7101 37.6562 16.7101 37.6562 16.785 37.7311C16.5501 38.5719 16.3152 39.4127 16.0731 40.279C15.9036 40.3129 15.8601 40.3205 15.7075 40.2766C15.6732 40.267 15.639 40.2573 15.6037 40.2474C15.5672 40.2367 15.5307 40.2259 15.4931 40.2149C15.4364 40.1987 15.4364 40.1987 15.3785 40.1822C15.2579 40.1477 15.1374 40.1127 15.017 40.0776C14.9354 40.0542 14.8539 40.0309 14.7723 40.0076C14.6235 39.9649 14.4747 39.9222 14.326 39.8789C14.2961 39.8702 14.2662 39.8616 14.2354 39.8526C14.1622 39.8294 14.1622 39.8294 14.0873 39.7919C14.1423 39.4828 14.2238 39.1826 14.3089 38.8806C14.3231 38.8299 14.3372 38.7792 14.3514 38.7285C14.3884 38.5963 14.4255 38.4641 14.4626 38.332C14.5007 38.1966 14.5385 38.0612 14.5764 37.9258C14.6505 37.661 14.7248 37.3963 14.7992 37.1316Z" fill="#15C0CB"></path></svg>