<svg xmlns="http://www.w3.org/2000/svg" width="64" height="64" viewBox="0 0 64 64" fill="none"><path d="M42.4556 17.6448H55.7804C56.4752 17.6459 57.1592 17.8174 57.7723 18.1444C58.3854 18.4714 58.9088 18.9438 59.2968 19.5202C59.7527 20.2174 59.997 21.0316 60.0001 21.8645V48.7486C60.0009 49.3029 59.8922 49.852 59.6804 50.3643C59.4686 50.8766 59.1579 51.342 58.7659 51.734C58.3739 52.126 57.9084 52.4368 57.3961 52.6486C56.8838 52.8604 56.3348 52.969 55.7804 52.9683H20.8789" stroke="#C19E62" stroke-width="2" stroke-linecap="round" stroke-linejoin="round"></path><path d="M5.87518 31.401V21.8645C5.86721 21.0199 6.12289 20.1939 6.60659 19.5015V19.4921C7.15567 18.6882 7.96292 18.096 8.89459 17.8136C8.98836 17.7855 9.10088 17.7573 9.21341 17.7292C9.50067 17.6728 9.79274 17.6446 10.0855 17.6448H23.4103" stroke="#C19E62" stroke-width="2" stroke-linecap="round" stroke-linejoin="round"></path><path d="M27.9489 33.155H27.9399H20.8789" stroke="#C19E62" stroke-width="2" stroke-linecap="round" stroke-linejoin="round"></path><path d="M11.4117 31.401L6.60666 19.501V19.492L6.59766 19.483" stroke="#C19E62" stroke-width="2" stroke-linecap="round" stroke-linejoin="round"></path><path d="M37.9258 33.1516H49.0472C50.4454 33.1547 51.8124 32.7388 52.9719 31.9575C54.1313 31.1762 55.0301 30.0654 55.5522 28.7683L59.2926 19.5209" stroke="#C19E62" stroke-width="2" stroke-linecap="round" stroke-linejoin="round"></path><path d="M42.4547 17.6453V11.1589C42.4547 10.6285 42.244 10.1197 41.8689 9.74468C41.4939 9.3696 40.9852 9.15889 40.4547 9.15889H25.4141C24.8836 9.15889 24.3749 9.3696 23.9998 9.74468C23.6248 10.1197 23.4141 10.6285 23.4141 11.1589V17.6453H42.4547Z" stroke="#C19E62" stroke-width="2" stroke-linecap="round" stroke-linejoin="round"></path><path d="M32.9338 38.149C31.6099 38.149 30.3401 37.6231 29.4039 36.6869C28.4678 35.7507 27.9418 34.481 27.9418 33.157V29.1034C27.9418 28.8545 28.0407 28.6159 28.2167 28.4399C28.3926 28.2639 28.6313 28.1651 28.8802 28.1651H36.9874C37.2363 28.1651 37.475 28.2639 37.6509 28.4399C37.8269 28.6159 37.9258 28.8545 37.9258 29.1034V33.1571C37.9258 34.481 37.3998 35.7507 36.4637 36.6869C35.5275 37.6231 34.2578 38.149 32.9338 38.149Z" stroke="#C19E62" stroke-width="2" stroke-linecap="round" stroke-linejoin="round"></path><path d="M38.3836 17.6453V13.9741C38.3836 13.7089 38.2783 13.4545 38.0907 13.267C37.9032 13.0794 37.6488 12.9741 37.3836 12.9741H28.4883C28.2231 12.9741 27.9687 13.0794 27.7812 13.267C27.5936 13.4545 27.4883 13.7089 27.4883 13.9741V17.6448" stroke="#C19E62" stroke-width="2" stroke-linecap="round" stroke-linejoin="round"></path><path d="M19.941 31.3984H4.93771C4.41983 31.3984 4 31.8182 4 32.3361V53.9034C4 54.4213 4.41983 54.8411 4.93771 54.8411H19.941C20.4589 54.8411 20.8787 54.4213 20.8787 53.9034V32.3361C20.8787 31.8182 20.4589 31.3984 19.941 31.3984Z" stroke="#C19E62" stroke-width="2" stroke-linecap="round" stroke-linejoin="round"></path><path d="M7.75 35.6181H17.1271" stroke="#C19E62" stroke-width="2" stroke-linecap="round" stroke-linejoin="round"></path><path d="M7.75 39.3689H17.1271" stroke="#C19E62" stroke-width="2" stroke-linecap="round" stroke-linejoin="round"></path><path d="M7.75 43.1198H17.1271" stroke="#C19E62" stroke-width="2" stroke-linecap="round" stroke-linejoin="round"></path><path d="M7.75 46.8706H17.1271" stroke="#C19E62" stroke-width="2" stroke-linecap="round" stroke-linejoin="round"></path><path d="M7.75 50.6214H17.1271" stroke="#C19E62" stroke-width="2" stroke-linecap="round" stroke-linejoin="round"></path></svg>