<svg xmlns="http://www.w3.org/2000/svg" width="128" height="128" viewBox="0 0 128 128" fill="none"><path d="M27.063 61.7359H100.939C101.187 61.736 101.433 61.6833 101.659 61.5813C101.885 61.4793 102.087 61.3303 102.251 61.1442C102.415 60.9582 102.538 60.7393 102.611 60.5022C102.684 60.2651 102.706 60.0151 102.675 59.7689L99.11 31.2689C98.934 29.8792 98.2575 28.6013 97.2072 27.6743C96.157 26.7474 94.8049 26.2349 93.4041 26.2329H34.6011C33.2 26.2348 31.8477 26.7472 30.7974 27.6744C29.747 28.6016 29.0707 29.8799 28.895 31.2699L25.33 59.7699C25.2991 60.0161 25.3209 60.2661 25.394 60.5032C25.4671 60.7403 25.5899 60.9592 25.7541 61.1452C25.9183 61.3313 26.1202 61.4803 26.3464 61.5823C26.5726 61.6843 26.8179 61.737 27.0661 61.7369L27.063 61.7359ZM32.3631 31.6999C32.4319 31.156 32.6966 30.6558 33.1076 30.293C33.5186 29.9302 34.0478 29.7297 34.5961 29.7289H93.3961C93.9444 29.7295 94.4736 29.9299 94.8847 30.2928C95.2958 30.6556 95.5604 31.1559 95.6291 31.6999L98.9491 58.2359H29.0451L32.3631 31.6999Z" fill="black"></path><path d="M30.0005 67.7H24.4375C23.1781 67.7013 21.9707 68.2021 21.0802 69.0927C20.1897 69.9832 19.6888 71.1906 19.6875 72.45V76.9999C19.6891 78.2592 20.1901 79.4665 21.0805 80.3569C21.971 81.2474 23.1782 81.7484 24.4375 81.7499H30.0005C31.2598 81.7484 32.4671 81.2474 33.3575 80.3569C34.248 79.4665 34.7489 78.2592 34.7505 76.9999V72.4529C34.75 71.193 34.2495 69.9848 33.3589 69.0937C32.4683 68.2025 31.2604 67.7013 30.0005 67.7ZM31.2505 76.9999C31.2502 77.3314 31.1185 77.6492 30.8841 77.8835C30.6497 78.1179 30.3319 78.2497 30.0005 78.2499H24.4375C24.1061 78.2497 23.7883 78.1179 23.5539 77.8835C23.3195 77.6492 23.1878 77.3314 23.1875 76.9999V72.4529C23.1878 72.1215 23.3195 71.8037 23.5539 71.5693C23.7883 71.335 24.1061 71.2032 24.4375 71.2029H30.0005C30.3319 71.2032 30.6497 71.335 30.8841 71.5693C31.1185 71.8037 31.2502 72.1215 31.2505 72.4529V76.9999Z" fill="black"></path><path d="M98 67.7C96.7406 67.7013 95.5332 68.2021 94.6427 69.0927C93.7522 69.9832 93.2513 71.1906 93.25 72.45V76.9999C93.2516 78.2592 93.7525 79.4665 94.643 80.3569C95.5334 81.2474 96.7407 81.7484 98 81.7499H103.562C104.821 81.7486 106.029 81.2477 106.919 80.3572C107.81 79.4667 108.311 78.2593 108.312 76.9999V72.4529C108.312 71.1931 107.811 69.9849 106.921 69.0938C106.031 68.2026 104.823 67.7013 103.563 67.7H98ZM104.812 76.9999C104.812 77.3315 104.68 77.6494 104.446 77.8839C104.211 78.1183 103.894 78.2499 103.562 78.2499H98C97.6685 78.2499 97.3505 78.1183 97.1161 77.8839C96.8817 77.6494 96.75 77.3315 96.75 76.9999V72.4529C96.7496 72.2885 96.7816 72.1257 96.8443 71.9737C96.9069 71.8217 96.9989 71.6835 97.1151 71.5671C97.2312 71.4507 97.3691 71.3584 97.521 71.2953C97.6728 71.2323 97.8356 71.2 98 71.2H103.562C103.894 71.2 104.211 71.3316 104.446 71.566C104.68 71.8005 104.812 72.1184 104.812 72.45V76.9999Z" fill="black"></path><path d="M76.7889 67.7H51.2109C49.9516 67.7013 48.7441 68.2021 47.8536 69.0927C46.9631 69.9832 46.4623 71.1906 46.4609 72.45V76.9999C46.4625 78.2592 46.9635 79.4665 47.8539 80.3569C48.7444 81.2474 49.9516 81.7484 51.2109 81.7499H76.7889C78.0482 81.7484 79.2555 81.2474 80.1459 80.3569C81.0364 79.4665 81.5374 78.2592 81.5389 76.9999V72.4529C81.5384 71.193 81.0379 69.9848 80.1473 69.0937C79.2567 68.2025 78.0488 67.7013 76.7889 67.7ZM78.0389 76.9999C78.0387 77.3314 77.9069 77.6492 77.6725 77.8835C77.4382 78.1179 77.1204 78.2497 76.7889 78.2499H51.2109C50.8794 78.2499 50.5615 78.1183 50.3271 77.8839C50.0926 77.6494 49.9609 77.3315 49.9609 76.9999V72.4529C49.9609 72.1214 50.0926 71.8035 50.3271 71.569C50.5615 71.3346 50.8794 71.2029 51.2109 71.2029H76.7889C77.1204 71.2032 77.4382 71.335 77.6725 71.5693C77.9069 71.8037 78.0387 72.1215 78.0389 72.4529V76.9999Z" fill="black"></path><path d="M128.126 58.113V52.988C128.124 51.4636 127.518 50.0022 126.44 48.9242C125.362 47.8463 123.9 47.2399 122.376 47.238H118.988C115.724 47.2353 112.531 48.189 109.804 49.981L108.74 50.681L107.048 37.1511C106.628 33.8267 105.011 30.7692 102.498 28.5517C99.9863 26.3342 96.7518 25.1088 93.4009 25.105H85.2509V19.55C85.249 18.0256 84.6426 16.5641 83.5647 15.4862C82.4868 14.4083 81.0253 13.8019 79.5009 13.8H48.5009C46.9765 13.8019 45.515 14.4083 44.4371 15.4862C43.3592 16.5641 42.7528 18.0256 42.7509 19.55V25.105H34.6009C31.251 25.1095 28.0176 26.3348 25.5061 28.5516C22.9946 30.7684 21.3772 33.8246 20.9569 37.148L19.2649 50.6781L18.2009 49.9781C15.4734 48.186 12.2805 47.2324 9.01691 47.2351H5.62891C4.10448 47.237 2.64301 47.8433 1.56508 48.9212C0.487146 49.9992 -0.119241 51.4607 -0.121094 52.9851V58.1101C-0.119241 59.6346 0.487146 61.096 1.56508 62.174C2.64301 63.2519 4.10448 63.8583 5.62891 63.8601H17.6149L17.3329 66.1211L11.0129 73.5211C8.42388 76.5555 7.0014 80.4133 7.0009 84.402V93.129C5.12821 93.129 3.33222 93.8729 2.00803 95.1971C0.683832 96.5213 -0.0601038 98.3174 -0.0601038 100.19C-0.0601038 102.063 0.683832 103.859 2.00803 105.183C3.33222 106.507 5.12821 107.251 7.0009 107.251V121.202C7.00302 122.992 7.71486 124.707 8.98027 125.973C10.2457 127.238 11.9613 127.95 13.7509 127.952H26.4509C28.2405 127.95 29.9561 127.238 31.2215 125.973C32.4869 124.707 33.1988 122.992 33.2009 121.202V107.254H94.8009V121.202C94.803 122.992 95.5149 124.707 96.7803 125.973C98.0457 127.238 99.7613 127.95 101.551 127.952H114.251C116.04 127.95 117.756 127.238 119.022 125.973C120.287 124.707 120.999 122.992 121.001 121.202V107.251C122.874 107.251 124.67 106.507 125.994 105.183C127.318 103.859 128.062 102.063 128.062 100.19C128.062 98.3174 127.318 96.5213 125.994 95.1971C124.67 93.8729 122.874 93.129 121.001 93.129V84.402C121 80.4161 119.578 76.561 116.992 73.528L110.672 66.1281L110.389 63.8671H122.376C123.901 63.8653 125.363 63.2583 126.441 62.1795C127.519 61.1007 128.125 59.6382 128.126 58.113ZM3.3759 58.113V52.988C3.37643 52.3915 3.61365 51.8195 4.03549 51.3976C4.45733 50.9758 5.02933 50.7386 5.6259 50.738H9.0139C11.5954 50.7359 14.1211 51.49 16.2789 52.9071L18.7789 54.5462L18.0519 60.363H5.6259C5.02941 60.3622 4.45757 60.125 4.03578 59.7033C3.614 59.2815 3.37669 58.7095 3.3759 58.113ZM46.2509 19.55C46.2517 18.9536 46.489 18.3817 46.9108 17.9599C47.3326 17.5381 47.9044 17.3008 48.5009 17.3H79.5009C80.0974 17.3008 80.6692 17.5381 81.091 17.9599C81.5128 18.3817 81.7501 18.9536 81.7509 19.55V25.105H46.2509V19.55ZM29.7009 121.202C29.6998 122.064 29.3571 122.89 28.7478 123.499C28.1386 124.108 27.3125 124.451 26.4509 124.452H13.7509C12.8893 124.451 12.0632 124.108 11.454 123.499C10.8447 122.89 10.502 122.064 10.5009 121.202V107.254H29.7009V121.202ZM117.501 121.202C117.5 122.064 117.157 122.89 116.548 123.499C115.939 124.108 115.113 124.451 114.251 124.452H101.551C100.689 124.451 99.8632 124.108 99.254 123.499C98.6447 122.89 98.302 122.064 98.3009 121.202V107.254H117.501V121.202ZM124.501 100.19C124.5 101.135 124.124 102.041 123.456 102.709C122.788 103.377 121.882 103.753 120.937 103.754H7.0649C6.11966 103.754 5.21315 103.379 4.54477 102.71C3.87639 102.042 3.5009 101.135 3.5009 100.19C3.5009 99.2448 3.87639 98.3383 4.54477 97.6699C5.21315 97.0015 6.11966 96.626 7.0649 96.626H120.937C121.882 96.6271 122.788 97.0029 123.456 97.6711C124.124 98.3392 124.5 99.2452 124.501 100.19ZM114.33 75.8011C116.375 78.2 117.499 81.2487 117.501 84.4011V93.1251H10.5009V84.4011C10.502 81.2486 11.6262 78.1997 13.6719 75.8011L20.3319 68.001C20.5521 67.7403 20.6912 67.421 20.7319 67.0821L24.4219 37.5821C24.735 35.1045 25.9406 32.8259 27.8128 31.1733C29.6851 29.5206 32.0956 28.6072 34.5929 28.604H93.4009C95.8981 28.6074 98.3085 29.5209 100.181 31.1736C102.053 32.8262 103.259 35.1046 103.572 37.5821L107.261 67.073C107.302 67.4119 107.441 67.7313 107.661 67.992L114.33 75.8011ZM109.219 54.5462L111.719 52.9071C113.877 51.49 116.402 50.7359 118.984 50.738H122.372C122.968 50.7386 123.54 50.9758 123.962 51.3976C124.384 51.8195 124.621 52.3915 124.622 52.988V58.113C124.621 58.7095 124.384 59.2815 123.962 59.7033C123.54 60.125 122.968 60.3622 122.372 60.363H109.952L109.219 54.5462Z" fill="black"></path></svg>