<svg xmlns="http://www.w3.org/2000/svg" width="64" height="64" viewBox="0 0 64 64" fill="none"><path d="M30.6612 45.7787H37.0178C37.115 45.7805 37.2121 45.7768 37.3087 45.7674C37.5485 45.7352 37.7836 45.6746 38.0091 45.587L38.1061 45.5532C38.4438 45.4053 38.748 45.1905 39.0003 44.9217C39.5288 44.3559 39.8217 43.6099 39.8191 42.8357C39.8379 42.074 39.5534 41.336 39.028 40.784C38.5027 40.2321 37.7796 39.9115 37.0179 39.8927H26.1684C23.5818 39.9017 21.0542 40.6659 18.8959 42.0915L11.3359 46.9685" stroke="#C19E62" stroke-width="2" stroke-linecap="round" stroke-linejoin="round"></path><path d="M11.3359 56.1295H21.7417C24.017 56.1291 26.2818 55.8198 28.4739 55.21L42.2667 51.377C45.2727 50.5382 48.1009 49.1593 50.6131 47.3076L58.783 41.3012C59.1268 41.0398 59.4118 40.709 59.6196 40.3303C59.8273 39.9516 59.9531 39.5334 59.9887 39.103C60.0244 38.6725 59.9692 38.2394 59.8266 37.8316C59.684 37.4239 59.4573 37.0507 59.1612 36.7363C58.7057 36.2493 58.0896 35.9434 57.4264 35.8748C56.7632 35.8063 56.0975 35.9797 55.5521 36.3631L44.2533 45.3813" stroke="#C19E62" stroke-width="2" stroke-linecap="round" stroke-linejoin="round"></path><path d="M53.5857 37.7376C52.8109 36.9922 51.7757 36.5787 50.7006 36.585C49.6254 36.5913 48.5952 37.0169 47.8291 37.7713L44.5352 40.9583" stroke="#C19E62" stroke-width="2" stroke-linecap="round" stroke-linejoin="round"></path><path d="M39.1748 40.9526L39.1641 40.9639" stroke="#C19E62" stroke-width="2" stroke-linecap="round" stroke-linejoin="round"></path><path d="M10.3412 60H5.00935C3.80789 60 4.01335 59.4753 4.01335 58.8282V43.2148C4.01335 42.5677 3.80785 42.043 5.00935 42.043H10.3412C11.5426 42.043 11.3372 42.5677 11.3372 43.2148V58.8282C11.3371 59.4753 11.5426 60 10.3412 60Z" stroke="#C19E62" stroke-width="2" stroke-linecap="round" stroke-linejoin="round"></path><path d="M36.9883 14.6801L36.9991 14.6914L43.8191 28.3464C45.0477 30.8039 45.686 33.5143 45.683 36.262C45.7497 37.8954 45.3618 39.5153 44.5625 40.9414C43.865 42.1153 42.9312 43.1315 41.8202 43.9254C40.7093 44.7193 39.4454 45.2736 38.1088 45.5532L38.0118 45.587" stroke="#C19E62" stroke-width="2" stroke-linecap="round" stroke-linejoin="round"></path><path d="M16.726 43.5302C15.8046 41.7494 15.3239 39.7737 15.3242 37.7687V36.2576C15.3219 33.5137 15.957 30.8067 17.1796 28.3502L24.0043 14.6838" stroke="#C19E62" stroke-width="2" stroke-linecap="round" stroke-linejoin="round"></path><path d="M22.3324 12.9995C22.3227 13.4369 22.487 13.8602 22.7893 14.1766C23.0915 14.4929 23.507 14.6763 23.9444 14.6865H37.0584C37.4958 14.6763 37.9112 14.4929 38.2135 14.1766C38.5157 13.8602 38.68 13.4369 38.6703 12.9995C38.68 12.5621 38.5157 12.1387 38.2135 11.8224C37.9112 11.506 37.4958 11.3227 37.0584 11.3125H23.9444C23.507 11.3226 23.0915 11.506 22.7893 11.8224C22.487 12.1387 22.3227 12.5621 22.3324 12.9995Z" stroke="#C19E62" stroke-width="2" stroke-linecap="round" stroke-linejoin="round"></path><path d="M22.332 4.153L25.8006 11.3125H35.2013L38.6699 4.153H36.9782C36.763 4.15387 36.5502 4.19845 36.3528 4.28404C36.1553 4.36963 35.9774 4.49444 35.8296 4.6509L35.5265 4.96814C35.3313 5.17652 35.0954 5.34263 34.8335 5.45619C34.5715 5.56975 34.2891 5.62834 34.0035 5.62834C33.718 5.62834 33.4356 5.56975 33.1736 5.45619C32.9116 5.34263 32.6758 5.17652 32.4806 4.96814L32.1864 4.66025C31.9905 4.45278 31.7545 4.28728 31.4927 4.17378C31.2309 4.06028 30.9488 4.00116 30.6635 4H29.744C29.4587 4.00115 29.1765 4.06027 28.9147 4.17376C28.6529 4.28724 28.4169 4.45274 28.221 4.6602L28.2191 4.6622C28.024 4.87058 27.7881 5.03669 27.5261 5.15026C27.2642 5.26382 26.9817 5.32241 26.6962 5.32241C26.4107 5.32241 26.1282 5.26382 25.8663 5.15026C25.6043 5.03669 25.3684 4.87058 25.1733 4.6622C25.0267 4.50702 24.8504 4.38296 24.6548 4.29742C24.4593 4.21188 24.2485 4.16662 24.0351 4.16434L22.332 4.153Z" stroke="#C19E62" stroke-width="2" stroke-linecap="round" stroke-linejoin="round"></path><path d="M33.5308 22.0096L29.8226 21.4329C29.3942 21.3917 28.9645 21.4963 28.603 21.7298C28.2414 21.9632 27.9693 22.3119 27.8306 22.7193C27.6919 23.1267 27.6948 23.569 27.8388 23.9746C27.9828 24.3801 28.2595 24.7252 28.6241 24.9539L32.3755 27.3244C32.7401 27.5531 33.0167 27.8982 33.1607 28.3038C33.3048 28.7093 33.3076 29.1516 33.169 29.559C33.0303 29.9664 32.7581 30.3151 32.3966 30.5486C32.0351 30.782 31.6053 30.8866 31.177 30.8454L27.4688 30.2688" stroke="#C19E62" stroke-width="2" stroke-linecap="round" stroke-linejoin="round"></path><path d="M30.6016 21.554V19.115" stroke="#C19E62" stroke-width="2" stroke-linecap="round" stroke-linejoin="round"></path><path d="M30.6016 33.1633V30.7558" stroke="#C19E62" stroke-width="2" stroke-linecap="round" stroke-linejoin="round"></path></svg>