<svg xmlns="http://www.w3.org/2000/svg" width="45" height="47" viewBox="0 0 45 47" fill="none"><path d="M30.1693 7.72275C32.7264 7.66938 35.2464 8.45885 37.2359 10.0876C37.2675 10.1134 37.2675 10.1134 37.2998 10.1397C37.8622 10.6035 38.4091 11.1167 38.8484 11.7001C38.8831 11.7445 38.9177 11.7889 38.9524 11.8332C40.7 14.0892 41.444 16.9419 41.0973 19.7654C40.9328 20.9864 40.593 22.3957 39.8984 23.4376C41.6433 23.4561 41.6433 23.4561 43.4234 23.4751C43.4234 24.1433 43.4234 24.8116 43.4234 25.5001C43.273 25.4992 43.1225 25.4984 42.9675 25.4976C42.4701 25.4951 41.9728 25.4947 41.4754 25.4953C41.1739 25.4956 40.8723 25.4953 40.5708 25.4933C40.3079 25.4915 40.045 25.4911 39.7821 25.4922C39.6429 25.4928 39.5039 25.4927 39.3647 25.491C39.2091 25.4891 39.0537 25.4902 38.898 25.4916C38.8294 25.4901 38.8294 25.4901 38.7593 25.4885C38.5712 25.4922 38.4476 25.498 38.298 25.6186C38.2126 25.713 38.1369 25.8104 38.0609 25.9126C38.0106 25.9663 37.9595 26.0193 37.9073 26.0712C37.8826 26.0959 37.858 26.1206 37.8326 26.146C37.796 26.1824 37.796 26.1824 37.7586 26.2196C37.734 26.2443 37.7094 26.2691 37.6841 26.2945C37.4918 26.4865 37.4918 26.4865 37.4057 26.5593C37.1335 26.7899 36.8855 27.0455 36.6337 27.2978C36.5801 27.3514 36.5265 27.405 36.4728 27.4586C36.3259 27.6054 36.1791 27.7524 36.0323 27.8993C35.8739 28.0579 35.7153 28.2165 35.5567 28.375C35.2822 28.6495 35.0077 28.9241 34.7332 29.1988C34.4455 29.4868 34.1577 29.7747 33.8699 30.0626C33.852 30.0805 33.834 30.0984 33.8156 30.1169C33.7246 30.2079 33.6336 30.2989 33.5426 30.3899C32.8986 31.034 32.2547 31.6781 31.6108 32.3224C30.9854 32.9481 30.36 33.5738 29.7345 34.1995C29.7152 34.2188 29.6959 34.2381 29.676 34.258C29.4823 34.4517 29.2886 34.6455 29.0948 34.8393C28.7002 35.234 28.3056 35.6287 27.911 36.0234C27.8929 36.0416 27.8747 36.0597 27.856 36.0784C26.6451 37.2897 25.4342 38.5011 24.2234 39.7126C24.107 39.6569 24.0272 39.6005 23.9359 39.5086C23.9097 39.4823 23.8834 39.456 23.8563 39.429C23.8284 39.4006 23.8005 39.3723 23.7717 39.3431C23.7283 39.2996 23.7283 39.2996 23.684 39.2552C23.5918 39.1625 23.4998 39.0696 23.4078 38.9766C23.3453 38.9137 23.2827 38.8508 23.2202 38.788C23.0669 38.6339 22.9138 38.4796 22.7609 38.3251C22.8219 38.1716 22.9319 38.0687 23.047 37.9547C23.0689 37.9327 23.0908 37.9107 23.1133 37.888C23.1872 37.8139 23.2614 37.7401 23.3355 37.6662C23.3889 37.6128 23.4423 37.5593 23.4956 37.5058C23.6426 37.3586 23.7899 37.2116 23.9372 37.0646C24.0959 36.9061 24.2543 36.7475 24.4128 36.5889C24.6876 36.3139 24.9626 36.0391 25.2376 35.7643C25.5263 35.476 25.8149 35.1875 26.1034 34.899C26.1303 34.8721 26.1303 34.8721 26.1578 34.8446C26.2306 34.7718 26.3034 34.699 26.3763 34.6262C27.0597 33.9427 27.7434 33.2593 28.4272 32.5761C29.0346 31.9693 29.6418 31.3623 30.2489 30.7552C30.2879 30.7162 30.3268 30.6772 30.3658 30.6383C30.385 30.619 30.4043 30.5998 30.4241 30.5799C30.5211 30.483 30.618 30.386 30.715 30.2891C30.7341 30.2699 30.7532 30.2508 30.773 30.2311C31.2803 29.7238 31.7876 29.2166 32.2951 28.7094C32.3131 28.6913 32.3312 28.6733 32.3498 28.6547C32.4224 28.5821 32.495 28.5095 32.5676 28.4369C32.8201 28.1846 33.0725 27.9322 33.3249 27.6799C33.6503 27.3545 33.9758 27.0291 34.3014 26.7039C34.4584 26.5471 34.6154 26.3902 34.7722 26.2333C34.9159 26.0896 35.0597 25.946 35.2035 25.8024C35.2554 25.7505 35.3074 25.6986 35.3593 25.6466C35.8294 25.176 35.8294 25.176 36.0544 24.9856C36.473 24.6303 36.8673 24.213 37.1984 23.7751C37.2281 23.7381 37.2577 23.7012 37.2882 23.6632C38.3851 22.2908 39.0624 20.5111 39.1109 18.7501C39.1117 18.7239 39.1125 18.6977 39.1133 18.6708C39.169 16.471 38.4107 14.2183 36.8914 12.6001C36.8268 12.5326 36.7618 12.4656 36.6962 12.399C36.6401 12.3418 36.5848 12.2839 36.5297 12.2257C36.2727 11.9593 35.9941 11.7337 35.6984 11.5126C35.6774 11.4966 35.6564 11.4806 35.6347 11.4641C35.2762 11.1919 34.896 10.9728 34.4984 10.7626C34.4758 10.7504 34.4532 10.7381 34.4299 10.7255C32.5129 9.68988 30.1531 9.53663 28.0794 10.1444C26.5394 10.6152 25.2974 11.4394 24.1693 12.5764C24.1066 12.6396 24.0438 12.7026 23.9809 12.7657C23.8476 12.8994 23.7144 13.0333 23.5813 13.1673C23.4264 13.323 23.2716 13.4786 23.1166 13.6341C23.0552 13.6957 22.9939 13.7574 22.9326 13.8192C22.751 14.0017 22.5683 14.1809 22.3719 14.3476C22.2779 14.4285 22.1918 14.5157 22.1047 14.604C22.0726 14.6364 22.0405 14.6689 22.0074 14.7023C21.9838 14.7263 21.9602 14.7503 21.9359 14.7751C21.7874 14.7151 21.6875 14.612 21.5769 14.5001C21.5564 14.4797 21.536 14.4594 21.5149 14.4384C21.4474 14.371 21.3802 14.3034 21.3129 14.2357C21.2659 14.1886 21.2188 14.1415 21.1717 14.0944C21.073 13.9956 20.9743 13.8967 20.8758 13.7977C20.7502 13.6714 20.6243 13.5454 20.4983 13.4194C20.401 13.3221 20.3037 13.2246 20.2065 13.1272C20.1602 13.0807 20.1138 13.0343 20.0675 12.9879C19.6296 12.5494 19.6296 12.5494 19.4348 12.3194C18.3781 11.0912 16.6191 10.3214 15.0664 10.0032C15.0389 9.99753 15.0113 9.99186 14.983 9.98603C14.4548 9.88473 13.9275 9.84718 13.3906 9.84851C13.3607 9.84852 13.3309 9.84853 13.3001 9.84854C11.4681 9.85335 9.56639 10.4608 8.13594 11.6251C8.08511 11.6652 8.08511 11.6652 8.03325 11.7062C6.16341 13.2032 5.11788 15.2926 4.81851 17.6498C4.80725 17.7669 4.80164 17.8825 4.79844 18.0001C4.79747 18.0289 4.7965 18.0577 4.79551 18.0874C4.74133 19.897 5.22091 21.7537 6.26094 23.2501C6.28144 23.282 6.30194 23.3138 6.32306 23.3467C6.40397 23.4475 6.40397 23.4475 6.52661 23.4612C6.57238 23.4613 6.61815 23.4614 6.6653 23.4615C6.69085 23.4619 6.7164 23.4622 6.74272 23.4625C6.8283 23.4633 6.91382 23.4628 6.9994 23.4623C7.06075 23.4626 7.1221 23.463 7.18346 23.4635C7.35003 23.4646 7.51658 23.4645 7.68315 23.4642C7.85723 23.464 8.03129 23.465 8.20536 23.4658C8.53499 23.4672 8.86461 23.4677 9.19425 23.4678C9.56952 23.468 9.94478 23.4692 10.3201 23.4705C11.092 23.4732 11.864 23.4746 12.6359 23.4751C12.6432 23.4528 12.6506 23.4306 12.6581 23.4076C12.7083 23.2558 12.7587 23.1048 12.8182 22.9564C12.8311 22.9242 12.844 22.8919 12.8572 22.8587C12.8712 22.824 12.8852 22.7893 12.8996 22.7535C12.915 22.7149 12.9305 22.6764 12.9464 22.6366C12.9991 22.5051 13.0519 22.3737 13.1047 22.2423C13.133 22.1716 13.1614 22.1009 13.1897 22.0301C13.328 21.685 13.4666 21.34 13.6053 20.9951C13.6512 20.8807 13.6971 20.7664 13.743 20.6521C14.0642 19.8527 14.3854 19.0533 14.7067 18.254C14.724 18.211 14.7413 18.168 14.7591 18.1237C14.8407 17.9206 14.9224 17.7175 15.0041 17.5143C15.019 17.4773 15.0338 17.4403 15.0492 17.4022C15.0781 17.3303 15.107 17.2585 15.136 17.1867C15.2071 17.01 15.2775 16.833 15.3467 16.6556C15.3604 16.6206 15.3742 16.5857 15.3883 16.5496C15.4143 16.4834 15.44 16.4171 15.4655 16.3506C15.5525 16.1293 15.5525 16.1293 15.6359 16.0876C15.8409 16.6009 16.0278 17.1199 16.2119 17.641C16.2986 17.8866 16.3858 18.132 16.4729 18.3774C16.4819 18.4025 16.4908 18.4275 16.4999 18.4534C16.685 18.9743 16.8737 19.494 17.0633 20.0134C17.3166 20.7078 17.5675 21.403 17.8156 22.0993C17.839 22.1648 17.839 22.1648 17.8628 22.2316C17.8783 22.2752 17.8938 22.3187 17.9098 22.3635C17.9409 22.4508 17.972 22.5381 18.0031 22.6253C18.0184 22.6682 18.0337 22.7111 18.0494 22.7553C18.276 23.3904 18.5049 24.0248 18.7336 24.6591C18.8394 24.9526 18.945 25.2462 19.0505 25.5398C19.0972 25.6697 19.1439 25.7996 19.1906 25.9295C19.2206 26.0128 19.2505 26.0962 19.2805 26.1795C19.3218 26.2947 19.3633 26.4099 19.4047 26.525C19.4169 26.5591 19.4292 26.5932 19.4418 26.6283C19.4588 26.6756 19.4588 26.6756 19.4762 26.7239C19.486 26.7512 19.4958 26.7784 19.5058 26.8065C19.5393 26.8967 19.5749 26.9859 19.6109 27.0751C19.7495 26.7553 19.8683 26.432 19.9785 26.1015C19.9951 26.052 20.0118 26.0025 20.0285 25.953C20.0721 25.8236 20.1155 25.694 20.1589 25.5645C20.2278 25.3586 20.2969 25.1529 20.3662 24.9471C20.3898 24.877 20.4132 24.8067 20.4367 24.7365C20.5791 24.3129 20.7331 23.8955 20.8859 23.4751C21.7769 23.4627 22.6679 23.4503 23.5859 23.4376C23.678 23.2589 23.77 23.0802 23.8648 22.8962C23.91 22.8085 23.9552 22.7207 24.0004 22.633C24.1296 22.3822 24.2588 22.1314 24.3879 21.8806C24.7086 21.2578 25.0299 20.6354 25.3519 20.0134C25.4685 19.788 25.585 19.5627 25.7016 19.3373C25.7619 19.2206 25.8223 19.1039 25.8827 18.9872C25.9027 18.9486 25.9226 18.91 25.9432 18.8701C25.9573 18.8429 25.9714 18.8156 25.9859 18.7876C26.0231 18.7876 26.0602 18.7876 26.0984 18.7876C26.7448 20.216 26.7448 20.216 27.0172 20.8501C27.2161 21.3127 27.4217 21.7721 27.6293 22.2309C27.7972 22.6022 27.9635 22.974 28.1265 23.3475C28.1498 23.4009 28.1498 23.4009 28.1736 23.4553C28.2489 23.6278 28.3239 23.8003 28.3986 23.973C28.4256 24.0351 28.4527 24.0971 28.4797 24.1592C28.4919 24.1876 28.5042 24.2161 28.5168 24.2455C28.5828 24.3973 28.5828 24.3973 28.6859 24.5251C28.7016 24.4946 28.7174 24.4641 28.7335 24.4327C28.7917 24.32 28.8499 24.2072 28.9082 24.0945C28.9334 24.0457 28.9586 23.9969 28.9838 23.948C29.0199 23.8779 29.0562 23.8078 29.0924 23.7377C29.1142 23.6955 29.136 23.6533 29.1585 23.6098C29.2109 23.5126 29.2109 23.5126 29.2484 23.4751C29.3187 23.4715 29.389 23.4705 29.4594 23.4706C29.5052 23.4705 29.551 23.4705 29.5982 23.4704C29.6494 23.4705 29.7006 23.4707 29.7518 23.4708C29.8054 23.4708 29.859 23.4708 29.9126 23.4708C30.0585 23.4708 30.2043 23.471 30.3502 23.4713C30.5025 23.4715 30.6548 23.4715 30.8071 23.4716C31.0957 23.4717 31.3843 23.472 31.6729 23.4724C32.0014 23.4728 32.3298 23.473 32.6583 23.4732C33.3342 23.4736 34.0101 23.4743 34.6859 23.4751C34.6859 24.1433 34.6859 24.8116 34.6859 25.5001C33.2999 25.5125 31.9139 25.5248 30.4859 25.5376C30.3003 25.9088 30.1147 26.2801 29.9234 26.6626C29.726 27.0398 29.726 27.0398 29.6374 27.2065C29.5388 27.3925 29.443 27.5801 29.3475 27.7678C29.3308 27.8005 29.3141 27.8332 29.2969 27.8669C29.2291 28.0001 29.1614 28.1333 29.0938 28.2665C28.7267 28.9897 28.7267 28.9897 28.5359 29.2876C28.4288 29.159 28.3636 29.0172 28.2967 28.8653C28.2846 28.8381 28.2724 28.8108 28.2599 28.7828C28.2197 28.6926 28.1798 28.6022 28.1398 28.5118C28.1114 28.4478 28.0829 28.3838 28.0544 28.3197C27.8374 27.8314 27.623 27.3419 27.4087 26.8524C27.1831 26.3369 26.9535 25.8233 26.7218 25.3105C26.4465 24.7009 26.1773 24.0887 25.9109 23.4751C25.6693 23.9304 25.432 24.3879 25.1961 24.8462C25.1817 24.8742 25.1672 24.9022 25.1524 24.9311C25.0056 25.215 25.0056 25.215 24.8609 25.5001C24.0318 25.5001 23.2027 25.5001 22.3484 25.5001C22.2928 25.6857 22.2928 25.6857 22.2359 25.8751C22.2099 25.9555 22.1834 26.0357 22.1564 26.1158C22.1416 26.1594 22.1269 26.2031 22.1118 26.248C22.0882 26.3174 22.0882 26.3174 22.0643 26.3882C22.0475 26.4378 22.0307 26.4875 22.0139 26.5371C21.9692 26.6695 21.9244 26.8018 21.8795 26.9341C21.8513 27.0172 21.8231 27.1004 21.795 27.1836C21.5693 27.85 21.3416 28.5157 21.1078 29.1794C20.936 29.6677 20.7692 30.1578 20.6038 30.6484C20.5929 30.6807 20.5821 30.7129 20.5709 30.7461C20.4603 31.0741 20.3499 31.4021 20.2398 31.7302C20.1983 31.854 20.1566 31.9779 20.1149 32.1017C20.0955 32.1596 20.0761 32.2175 20.0567 32.2754C19.9413 32.6205 19.82 32.9617 19.6859 33.3001C19.6013 33.2154 19.5814 33.1584 19.542 33.0462C19.5287 33.0085 19.5153 32.9708 19.5015 32.9319C19.4871 32.8904 19.4726 32.849 19.4577 32.8063C19.4424 32.7629 19.4271 32.7195 19.4113 32.6749C19.378 32.5806 19.3448 32.4863 19.3117 32.3919C19.2318 32.1642 19.1512 31.9367 19.0706 31.7093C19.0521 31.6571 19.0337 31.6049 19.0152 31.5527C18.8287 31.0254 18.638 30.4997 18.4461 29.9743C18.1927 29.2799 17.9419 28.5846 17.6938 27.8884C17.6782 27.8447 17.6626 27.801 17.6466 27.756C17.6233 27.6907 17.6233 27.6907 17.5996 27.6241C17.5685 27.5369 17.5374 27.4496 17.5063 27.3623C17.491 27.3195 17.4757 27.2766 17.4599 27.2324C17.2328 26.5956 17.0034 25.9597 16.7741 25.3238C16.6733 25.0441 16.5727 24.7645 16.4721 24.4848C16.1575 23.6101 15.8421 22.7358 15.5234 21.8626C15.4622 21.9544 15.4228 22.0291 15.3818 22.1297C15.369 22.1611 15.3561 22.1924 15.3429 22.2247C15.329 22.259 15.3151 22.2933 15.3008 22.3287C15.2858 22.3653 15.2709 22.4019 15.2555 22.4397C15.2234 22.5184 15.1914 22.5972 15.1594 22.6759C15.1133 22.7895 15.067 22.9031 15.0207 23.0166C14.6844 23.8429 14.3548 24.6717 14.0234 25.5001C12.1548 25.5125 10.2862 25.5248 8.36094 25.5376C13.2986 30.4752 18.2362 35.4128 23.3234 40.5001C23.2589 40.6291 23.2178 40.69 23.1194 40.7876C23.0932 40.8139 23.0669 40.8401 23.0398 40.8672C23.0115 40.8951 22.9832 40.9231 22.954 40.9518C22.9105 40.9952 22.9105 40.9952 22.866 41.0395C22.7734 41.1317 22.6804 41.2237 22.5875 41.3157C22.5246 41.3782 22.4617 41.4408 22.3988 41.5033C22.2447 41.6566 22.0904 41.8097 21.9359 41.9626C21.8276 41.9135 21.7501 41.8611 21.6661 41.7771C21.6432 41.7543 21.6202 41.7315 21.5966 41.708C21.5717 41.6828 21.5467 41.6577 21.5211 41.6318C21.4808 41.5917 21.4809 41.5917 21.4398 41.5508C21.3493 41.4605 21.2591 41.3699 21.1689 41.2793C21.1037 41.2141 21.0385 41.1489 20.9732 41.0838C20.8311 40.9417 20.6891 40.7995 20.5471 40.6572C20.3361 40.4456 20.1248 40.2342 19.9135 40.0229C19.558 39.6673 19.2026 39.3116 18.8474 38.9558C18.4954 38.6033 18.1433 38.2508 17.7911 37.8984C17.7583 37.8656 17.7583 37.8656 17.7248 37.8321C17.6136 37.7208 17.5025 37.6096 17.3913 37.4984C16.6033 36.7101 15.8156 35.9217 15.0279 35.1331C14.9802 35.0854 14.9326 35.0377 14.8849 34.99C14.8495 34.9546 14.8495 34.9546 14.8134 34.9184C14.6939 34.7988 14.5745 34.6792 14.4551 34.5597C14.4314 34.536 14.4077 34.5123 14.3833 34.4878C13.8335 33.9374 13.2836 33.387 12.7337 32.8366C12.7101 32.813 12.6866 32.7895 12.6623 32.7652C12.1247 32.2271 11.587 31.689 11.0493 31.1509C11.0267 31.1283 11.0041 31.1057 10.9808 31.0824C10.7774 30.8789 10.5741 30.6755 10.3708 30.472C9.86362 29.9646 9.35648 29.457 8.84949 28.9494C8.49611 28.5955 8.14267 28.2417 7.78917 27.888C7.57912 27.6778 7.36912 27.4676 7.15921 27.2573C7.00251 27.1003 6.84571 26.9434 6.68888 26.7866C6.6254 26.7231 6.56196 26.6595 6.49855 26.5959C6.41244 26.5096 6.32622 26.4234 6.23996 26.3372C6.21531 26.3124 6.19065 26.2876 6.16525 26.2621C6.03266 26.1299 5.897 26.0049 5.75263 25.8856C5.68249 25.8235 5.63197 25.7526 5.57868 25.6759C5.47023 25.5497 5.39761 25.5155 5.23211 25.5001C5.15129 25.4985 5.07043 25.4987 4.98961 25.5001C4.94531 25.4997 4.90102 25.4993 4.85538 25.4988C4.73458 25.498 4.61387 25.4985 4.49307 25.4996C4.36659 25.5004 4.24013 25.4995 4.11366 25.4988C3.87446 25.4978 3.6353 25.4983 3.39611 25.4993C3.09692 25.5005 2.79775 25.4996 2.49856 25.4988C1.96517 25.4972 1.43184 25.4988 0.898438 25.5001C0.898438 24.8318 0.898438 24.1636 0.898438 23.4751C2.42056 23.4565 2.42056 23.4565 3.97344 23.4376C3.87444 23.2396 3.77544 23.0416 3.67344 22.8376C2.48541 20.2666 2.44109 17.3066 3.40155 14.6602C3.85594 13.434 4.54861 12.2962 5.43418 11.3337C5.50519 11.2563 5.57387 11.1775 5.64219 11.0977C5.87817 10.8274 6.13608 10.5804 6.41094 10.3501C6.43098 10.3331 6.45102 10.3161 6.47167 10.2985C6.85744 9.97221 7.25855 9.68194 7.68594 9.41258C7.71128 9.3965 7.73662 9.38042 7.76273 9.36385C8.99971 8.58642 10.4047 8.08639 11.8484 7.87508C11.8935 7.86837 11.9385 7.86167 11.9849 7.85476C12.4398 7.79172 12.8922 7.78665 13.3508 7.78836C13.3898 7.78844 13.4289 7.78852 13.4691 7.7886C14.0372 7.79049 14.5891 7.80547 15.1484 7.91258C15.188 7.91963 15.2275 7.92668 15.2682 7.93394C17.3198 8.30484 19.3568 9.28049 20.8109 10.8001C20.8734 10.8626 20.9359 10.9251 20.9984 10.9876C21.4484 11.4376 21.4484 11.4376 21.8984 11.8876C22.0899 11.7276 22.2679 11.5597 22.4428 11.3818C22.4964 11.3276 22.5501 11.2735 22.6038 11.2194C22.6869 11.1353 22.77 11.0511 22.853 10.9669C23.16 10.6555 23.4639 10.3545 23.8109 10.0876C23.8617 10.0468 23.9123 10.006 23.963 9.96511C25.7154 8.58469 27.937 7.77691 30.1693 7.72275Z" fill="#15C0CC"></path></svg>