<svg xmlns="http://www.w3.org/2000/svg" width="64" height="64" viewBox="0 0 64 64" fill="none"><path d="M45.8863 51.1013L51.7811 51.1074C51.7811 52.6666 50.4621 55.572 48.8327 55.572H16.9531" stroke="#C19E62" stroke-width="2" stroke-linecap="round" stroke-linejoin="round"></path><path d="M45.8868 34.8387V11.2523C45.8794 10.8731 45.797 10.4991 45.6443 10.152C45.4916 9.80486 45.2716 9.49141 44.9971 9.22974C44.7226 8.96807 44.399 8.76337 44.0449 8.62746C43.6909 8.49154 43.3134 8.4271 42.9343 8.43786H11.0625C11.4414 8.428 11.8184 8.49305 12.1721 8.62929C12.5258 8.76553 12.849 8.97028 13.1234 9.23177C13.3977 9.49327 13.6177 9.80636 13.7707 10.1531C13.9237 10.4998 14.0067 10.8734 14.015 11.2523V52.7462C14.0206 53.1246 14.101 53.4981 14.2517 53.8452C14.4023 54.1924 14.6201 54.5063 14.8925 54.7689C15.165 55.0314 15.4867 55.2375 15.8392 55.3752C16.1917 55.5129 16.5679 55.5795 16.9462 55.5712H16.9568C18.5924 55.5606 19.8987 52.6718 19.8987 51.1H45.8868V37.9756" stroke="#C19E62" stroke-width="2" stroke-linecap="round" stroke-linejoin="round"></path><path d="M11.0582 8.42799C11.0582 8.42799 4.80575 8.39104 4 13.7088H14.0044" stroke="#C19E62" stroke-width="2" stroke-linecap="round" stroke-linejoin="round"></path><path d="M19.4141 15.8611H41.7933" stroke="#C19E62" stroke-width="2" stroke-linecap="round" stroke-linejoin="round"></path><path d="M19.4141 20.0745H41.7933" stroke="#C19E62" stroke-width="2" stroke-linecap="round" stroke-linejoin="round"></path><path d="M19.4141 24.2878H25.0089" stroke="#C19E62" stroke-width="2" stroke-linecap="round" stroke-linejoin="round"></path><path d="M19.4141 28.5012H25.0089" stroke="#C19E62" stroke-width="2" stroke-linecap="round" stroke-linejoin="round"></path><path d="M19.4141 32.7146H25.0089" stroke="#C19E62" stroke-width="2" stroke-linecap="round" stroke-linejoin="round"></path><path d="M40.7734 42.0404V31.2999H30.7932V42.0404H40.7734Z" stroke="#C19E62" stroke-width="2" stroke-linecap="round" stroke-linejoin="round"></path><path d="M42.7695 44.2541V43.0404C42.7695 42.4881 42.3218 42.0404 41.7695 42.0404H29.8121C29.2598 42.0404 28.8121 42.4881 28.8121 43.0404V44.2541C28.8121 44.8064 29.2598 45.2541 29.8121 45.2541H41.7695C42.3218 45.2541 42.7695 44.8064 42.7695 44.2541Z" stroke="#C19E62" stroke-width="2" stroke-linecap="round" stroke-linejoin="round"></path><path d="M42.7695 30.2999V29.0862C42.7695 28.5339 42.3218 28.0862 41.7695 28.0862H29.8121C29.2598 28.0862 28.8121 28.5339 28.8121 29.0862V30.2999C28.8121 30.8522 29.2598 31.2999 29.8121 31.2999H41.7695C42.3218 31.2999 42.7695 30.8522 42.7695 30.2999Z" stroke="#C19E62" stroke-width="2" stroke-linecap="round" stroke-linejoin="round"></path><path d="M58.4002 37.9756H40.7783L40.7734 34.8387H58.4002C58.6084 34.8367 58.815 34.8757 59.008 34.9536C59.2011 35.0315 59.377 35.1467 59.5255 35.2926C59.6741 35.4385 59.7924 35.6122 59.8737 35.8039C59.955 35.9955 59.9978 36.2013 59.9995 36.4095C59.9947 36.8292 59.8237 37.2298 59.5238 37.5234C59.224 37.817 58.8199 37.9796 58.4002 37.9756Z" stroke="#C19E62" stroke-width="2" stroke-linecap="round" stroke-linejoin="round"></path></svg>