<svg xmlns="http://www.w3.org/2000/svg" width="64" height="64" viewBox="0 0 64 64" fill="none"><path d="M40.3933 54.0768H23.5361C21.9345 54.0768 18.6719 60 18.6719 60H45.2575C45.2575 60 41.9949 54.0768 40.3933 54.0768Z" stroke="#C19E62" stroke-width="2" stroke-linecap="round" stroke-linejoin="round"></path><path d="M29.8203 54.0768V48.2016" stroke="#C19E62" stroke-width="2" stroke-linecap="round" stroke-linejoin="round"></path><path d="M29.8203 43.5399V21.9097" stroke="#C19E62" stroke-width="2" stroke-linecap="round" stroke-linejoin="round"></path><path d="M34.2422 43.5399V21.9097" stroke="#C19E62" stroke-width="2" stroke-linecap="round" stroke-linejoin="round"></path><path d="M34.2422 54.0768V48.2016" stroke="#C19E62" stroke-width="2" stroke-linecap="round" stroke-linejoin="round"></path><path d="M35.2468 45.8707C35.2491 46.6141 34.9947 47.3355 34.5266 47.9129C34.0585 48.4904 33.4053 48.8885 32.6776 49.04C31.9498 49.1915 31.192 49.0871 30.5324 48.7444C29.8727 48.4017 29.3516 47.8418 29.057 47.1593C28.7625 46.4767 28.7127 45.7134 28.9159 44.9984C29.1192 44.2834 29.5631 43.6604 30.1726 43.2349C30.7821 42.8093 31.5198 42.6073 32.2611 42.6628C33.0024 42.7184 33.7018 43.0282 34.241 43.5399C34.5597 43.8385 34.8135 44.1996 34.9866 44.6006C35.1596 45.0016 35.2482 45.434 35.2468 45.8707Z" stroke="#C19E62" stroke-width="2" stroke-linecap="round" stroke-linejoin="round"></path><path d="M21.2857 31.4209H6.03516C6.03516 35.8896 9.44916 37.8909 13.6604 37.8909C17.8717 37.8909 21.2857 35.8896 21.2857 31.4209Z" stroke="#C19E62" stroke-width="2" stroke-linecap="round" stroke-linejoin="round"></path><path d="M43.2773 31.2095H57.9652C57.9652 35.6782 54.6772 37.6795 50.6213 37.6795C46.5653 37.6795 43.2773 35.6782 43.2773 31.2095Z" stroke="#C19E62" stroke-width="2" stroke-linecap="round" stroke-linejoin="round"></path><path d="M21.2862 31.421L13.6602 13.09L6.03516 31.421" stroke="#C19E62" stroke-width="2" stroke-linecap="round" stroke-linejoin="round"></path><path d="M57.9653 31.209L50.6213 12.879L43.2773 31.209" stroke="#C19E62" stroke-width="2" stroke-linecap="round" stroke-linejoin="round"></path><path d="M34.6972 9.61842L31.4344 9.13361C29.6131 9.13361 28.8809 11.1888 30.3798 12.0938L33.6806 14.0868C35.1795 14.9918 34.4473 17.0469 32.626 17.0469L29.3633 16.5621" stroke="#C19E62" stroke-width="2" stroke-linecap="round" stroke-linejoin="round"></path><path d="M32.1211 9.2354V7.18489" stroke="#C19E62" stroke-width="2" stroke-linecap="round" stroke-linejoin="round"></path><path d="M32.1211 18.9956V16.9716" stroke="#C19E62" stroke-width="2" stroke-linecap="round" stroke-linejoin="round"></path><path d="M13.6602 13.0903H22.9407" stroke="#C19E62" stroke-width="2" stroke-linecap="round" stroke-linejoin="round"></path><path d="M50.6229 12.8788H41.1211" stroke="#C19E62" stroke-width="2" stroke-linecap="round" stroke-linejoin="round"></path><path d="M32.0317 22.1805C37.0521 22.1805 41.1219 18.1107 41.1219 13.0903C41.1219 8.06984 37.0521 4 32.0317 4C27.0112 4 22.9414 8.06984 22.9414 13.0903C22.9414 18.1107 27.0112 22.1805 32.0317 22.1805Z" stroke="#C19E62" stroke-width="2" stroke-linecap="round" stroke-linejoin="round"></path></svg>