<svg xmlns="http://www.w3.org/2000/svg" width="64" height="64" viewBox="0 0 64 64" fill="none"><path d="M38.3083 32H44.9483C47.301 32.0533 49.5395 33.0246 51.1857 34.7063C52.8319 36.388 53.7551 38.6467 53.7583 41V60H10.2383V41C10.2385 38.6131 11.1867 36.324 12.8745 34.6363C14.5623 32.9485 16.8514 32.0002 19.2383 32H26.0783" stroke="#C19E62" stroke-width="2" stroke-linecap="round" stroke-linejoin="round"></path><path d="M38.3127 31.9981L38.1457 32.194C37.3978 33.0712 36.4653 33.7722 35.4149 34.2469C34.3644 34.7216 33.222 34.9582 32.0694 34.9397C30.9168 34.9213 29.7826 34.6482 28.7479 34.1402C27.7131 33.6321 26.8035 32.9015 26.0842 32.0008L26.082 31.9981" stroke="#C19E62" stroke-width="2" stroke-linecap="round" stroke-linejoin="round"></path><path d="M44.9531 32.002L31.9961 59.995H39.2351L51.8291 35.337" stroke="#C19E62" stroke-width="2" stroke-linecap="round" stroke-linejoin="round"></path><path d="M38.3125 31.9981V25.6555" stroke="#C19E62" stroke-width="2" stroke-linecap="round" stroke-linejoin="round"></path><path d="M26.082 31.9981V25.6562" stroke="#C19E62" stroke-width="2" stroke-linecap="round" stroke-linejoin="round"></path><path d="M43.2687 15.0719C43.2701 13.617 42.9847 12.1761 42.4289 10.8316C41.8731 9.48709 41.0578 8.2653 40.0296 7.23607C39.0013 6.20684 37.7803 5.39035 36.4363 4.83328C35.0923 4.27621 33.6517 3.98948 32.1969 3.98948C30.742 3.98948 29.3014 4.27621 27.9574 4.83328C26.6134 5.39035 25.3924 6.20684 24.3642 7.23607C23.3359 8.2653 22.5206 9.48709 21.9648 10.8316C21.409 12.1761 21.1236 13.617 21.125 15.0719C21.125 21.1867 26.082 28.1054 32.1969 28.1054C38.3117 28.1054 43.2687 21.1867 43.2687 15.0719Z" stroke="#C19E62" stroke-width="2" stroke-linecap="round" stroke-linejoin="round"></path><path d="M42.2575 10.442L23.7617 7.90065" stroke="#C19E62" stroke-width="2" stroke-linecap="round" stroke-linejoin="round"></path><path d="M22.1953 10.3227L42.8965 18.0756" stroke="#C19E62" stroke-width="2" stroke-linecap="round" stroke-linejoin="round"></path><path d="M21.2109 16.4817L32.1976 14.0695" stroke="#C19E62" stroke-width="2" stroke-linecap="round" stroke-linejoin="round"></path><path d="M21.1323 54.0429C19.9003 54.0429 18.7188 53.5535 17.8477 52.6823C16.9766 51.8112 16.4872 50.6297 16.4872 49.3978V44.7527H25.7773V49.3978C25.7773 50.6297 25.288 51.8112 24.4168 52.6823C23.5457 53.5535 22.3642 54.0429 21.1323 54.0429Z" stroke="#C19E62" stroke-width="2" stroke-linecap="round" stroke-linejoin="round"></path></svg>