<svg xmlns="http://www.w3.org/2000/svg" width="64" height="64" viewBox="0 0 64 64" fill="none"><path d="M47.8247 41.2165C51.6057 39.9071 53.5755 35.683 52.2244 31.7816C50.8733 27.8802 46.713 25.779 42.932 27.0884C39.151 28.3978 37.1812 32.622 38.5323 36.5234C39.8834 40.4247 44.0438 42.5259 47.8247 41.2165Z" stroke="#C19E62" stroke-width="2" stroke-miterlimit="10"></path><path d="M52.3361 36.445L59.9991 42.761L56.0681 43.808L56.1031 47.051L48.6531 40.869L48.5901 50.789L45.9441 48.843L43.2031 51.118L43.4361 41.294" stroke="#C19E62" stroke-width="2" stroke-linecap="round" stroke-linejoin="round"></path><path d="M46.4848 37.3473C48.1947 36.7551 49.0856 34.8447 48.4746 33.0802C47.8635 31.3158 45.982 30.3655 44.272 30.9577C42.562 31.5499 41.6711 33.4603 42.2822 35.2247C42.8932 36.9892 44.7748 37.9395 46.4848 37.3473Z" stroke="#C19E62" stroke-width="2" stroke-miterlimit="10"></path><path d="M52.6171 54.6894L59.459 54.6967C59.459 56.5489 57.9281 60 56.0369 60H19.0352" stroke="#C19E62" stroke-width="2" stroke-linecap="round" stroke-linejoin="round"></path><path d="M52.726 44.3004L52.611 54.6844H22.4473C22.4473 56.5515 20.9311 59.9829 19.0328 59.9956H19.0205C18.5763 60.0003 18.1355 59.9171 17.7236 59.7508C17.3117 59.5844 16.9368 59.3381 16.6205 59.0262C16.3043 58.7142 16.0529 58.3428 15.8809 57.9332C15.7088 57.5236 15.6196 57.0841 15.6183 56.6399V7.3512C15.6139 6.90635 15.5217 6.46674 15.3469 6.05765C15.1721 5.64855 14.9182 5.27803 14.5997 4.96737C14.2813 4.65671 13.9046 4.41204 13.4913 4.24742C13.078 4.0828 12.6362 4.00147 12.1914 4.00811H49.1842C49.6293 4.00044 50.0715 4.08106 50.4852 4.24531C50.899 4.40956 51.2761 4.65418 51.5947 4.96504C51.9134 5.27591 52.1673 5.64684 52.3417 6.0564C52.5161 6.46597 52.6077 6.90605 52.611 7.3512V33.0557" stroke="#C19E62" stroke-width="2" stroke-linecap="round" stroke-linejoin="round"></path><path d="M12.1923 4C12.1923 4 4.93521 3.95608 4 10.2728H15.6118" stroke="#C19E62" stroke-width="2" stroke-linecap="round" stroke-linejoin="round"></path><path d="M21.6562 16.0494H47.6312" stroke="#C19E62" stroke-width="2" stroke-linecap="round" stroke-linejoin="round"></path><path d="M21.6562 21.0543H47.6312" stroke="#C19E62" stroke-width="2" stroke-linecap="round" stroke-linejoin="round"></path><path d="M21.6562 26.0591H33.411" stroke="#C19E62" stroke-width="2" stroke-linecap="round" stroke-linejoin="round"></path><path d="M21.6562 31.0639H33.411" stroke="#C19E62" stroke-width="2" stroke-linecap="round" stroke-linejoin="round"></path><path d="M21.6562 36.0688H28.15" stroke="#C19E62" stroke-width="2" stroke-linecap="round" stroke-linejoin="round"></path><path d="M21.6562 41.0737H28.15" stroke="#C19E62" stroke-width="2" stroke-linecap="round" stroke-linejoin="round"></path></svg>