<svg xmlns="http://www.w3.org/2000/svg" width="45" height="47" viewBox="0 0 45 47" fill="none"><g clip-path="url(#clip0_5203_1273)"><path d="M17.2054 10.6465C17.6231 10.9395 18.0463 11.112 18.5628 11.0231C18.9061 10.9335 19.1796 10.736 19.4681 10.5378C21.5031 9.14481 24.0499 8.48275 26.4993 8.90407C28.744 9.33206 30.9401 10.425 32.4056 12.2228C32.4517 12.2781 32.4979 12.3335 32.5455 12.3905C34.1978 14.4032 35.017 16.9756 34.7675 19.5689C34.7103 20.1156 34.6027 20.6481 34.4833 21.1842C34.4722 21.2348 34.4611 21.2854 34.4497 21.3375C33.9699 23.5261 33.2706 25.6063 32.3098 27.6324C31.1751 30.0253 30.6133 32.4036 30.5882 35.0577C30.5878 35.0993 30.5874 35.141 30.587 35.1838C30.5836 35.5711 30.5815 35.9584 30.5799 36.3457C30.5671 39.2355 30.3565 42.7127 28.2993 44.9603C28.2525 45.0123 28.2058 45.0643 28.1576 45.1179C27.1817 46.1509 25.8474 46.6727 24.4379 46.7262C23.961 46.7353 23.6544 46.7052 23.2931 46.3666C23.2107 46.3013 23.2107 46.3013 23.1267 46.2347C21.8813 45.197 21.6512 43.0945 21.5124 41.6071C21.4584 40.944 21.4347 40.282 21.4236 39.617C21.4226 39.5573 21.4216 39.4976 21.4205 39.4361C21.4156 39.1385 21.4117 38.841 21.4096 38.5434C21.3987 37.4951 21.2988 36.4634 21.0325 35.447C21.0156 35.3813 20.9987 35.3156 20.9813 35.2479C20.6314 33.9305 20.0648 32.2837 18.8825 31.4808C18.6052 31.3243 18.3862 31.2506 18.0699 31.3127C17.2347 31.5561 16.7873 32.2996 16.3869 33.0193C15.9424 33.8491 15.65 34.7511 15.4356 35.665C15.4249 35.7097 15.4142 35.7544 15.4032 35.8005C15.1762 36.8192 15.1142 37.8315 15.1097 38.8723C15.1036 40.0858 15.0647 41.2808 14.9118 42.4853C14.9029 42.562 14.894 42.6387 14.8852 42.7153C14.8759 42.7927 14.8665 42.8701 14.8571 42.9474C14.8446 43.0527 14.8446 43.0527 14.8318 43.1601C14.7993 43.3291 14.7993 43.3291 14.6868 43.4416C14.5361 43.4314 14.3939 43.4146 14.2452 43.391C14.2016 43.3846 14.1581 43.3782 14.1132 43.3716C13.9739 43.351 13.8346 43.3295 13.6954 43.308C13.6011 43.2939 13.5067 43.2798 13.4124 43.2658C13.1808 43.2313 12.9494 43.196 12.7181 43.1603C12.7246 43.1061 12.7311 43.0519 12.7378 42.996C12.9031 41.6087 13.0065 40.2392 12.997 38.8403C12.9769 35.8699 13.6739 32.4792 15.8118 30.2791C16.4685 29.6305 17.292 29.1905 18.2286 29.1464C19.3189 29.1955 20.2143 29.7325 20.9521 30.5045C23.1685 33.0385 23.5271 36.5909 23.553 39.8092C23.5625 40.8241 23.608 41.8267 23.8169 42.8228C23.829 42.8819 23.8411 42.9409 23.8535 43.0017C23.9571 43.4865 24.0817 43.9542 24.342 44.3811C24.4181 44.5103 24.4181 44.5103 24.4181 44.6228C25.1713 44.5482 25.7793 44.3475 26.3868 43.8916C26.433 43.8569 26.4792 43.8223 26.5268 43.7865C28.0479 42.4949 28.293 39.8508 28.4432 38.0173C28.5075 37.1644 28.4946 36.3064 28.4965 35.4516C28.5001 34.0074 28.5306 32.5725 28.8407 31.1545C28.8621 31.0549 28.8621 31.0549 28.8838 30.9533C29.2344 29.3814 29.8179 27.9243 30.5247 26.4822C31.9573 23.554 33.4151 19.5097 32.3179 16.2713C31.9729 15.2991 31.4922 14.421 30.8306 13.6291C30.8066 13.6002 30.7826 13.5714 30.7579 13.5416C29.585 12.1502 27.7279 11.1338 25.9106 10.94C25.0308 10.8724 24.1514 10.8854 23.2931 11.0978C23.2369 11.111 23.2369 11.111 23.1796 11.1244C22.2327 11.3499 21.36 11.774 20.5713 12.3402C19.6747 12.9809 18.7043 13.2642 17.6038 13.1054C16.9594 12.9838 16.451 12.6974 15.9243 12.3213C14.9411 11.6236 13.8464 11.1919 12.6618 10.9853C12.6042 10.975 12.5467 10.9647 12.4873 10.9541C10.4569 10.7222 8.422 11.2904 6.81181 12.5498C6.71754 12.6277 6.6238 12.7062 6.53056 12.7853C6.48074 12.8269 6.43093 12.8684 6.3796 12.9112C4.97536 14.1282 3.99204 16.0515 3.83056 17.9041C3.81738 18.128 3.8117 18.3513 3.80946 18.5756C3.80867 18.6277 3.80789 18.6799 3.80707 18.7337C3.81293 19.6082 4.03445 20.477 4.23134 21.3248C4.24227 21.372 4.25321 21.4193 4.26448 21.468C4.72717 23.4562 5.42399 25.3458 6.32687 27.1765C7.01138 28.5704 7.47991 30.0637 7.75751 31.5904C7.76848 31.6506 7.77944 31.7109 7.79074 31.773C7.82411 31.9684 7.85325 32.1639 7.88056 32.3603C7.88576 32.3971 7.89097 32.4338 7.89633 32.4717C8.043 33.5504 8.0144 34.6447 8.01872 35.731C8.0307 38.4711 8.05692 41.8136 10.1183 43.8795C10.7965 44.5049 11.6515 44.5916 12.5317 44.6052C12.6156 44.6071 12.6995 44.6091 12.7834 44.6111C12.9866 44.6158 13.1898 44.6196 13.3931 44.6228C13.4628 45.0536 13.4556 45.481 13.4528 45.9166C13.4525 45.9931 13.4523 46.0696 13.4521 46.1462C13.4514 46.3322 13.4505 46.5181 13.4493 46.7041C13.2234 46.7069 12.9975 46.7089 12.7716 46.7103C12.658 46.7111 12.5444 46.7125 12.4309 46.714C11.7569 46.7173 11.1037 46.6649 10.4645 46.4404C10.422 46.4257 10.3795 46.4111 10.3357 46.396C8.8111 45.8515 7.78562 44.6567 7.0955 43.2308C6.61958 42.2031 6.36162 41.0884 6.17899 39.9752C6.1705 39.9237 6.162 39.8723 6.15324 39.8192C6.12574 39.6395 6.1025 39.4596 6.08056 39.2791C6.07571 39.2399 6.07086 39.2007 6.06586 39.1603C5.94139 38.1167 5.94682 37.0694 5.93993 36.0201C5.92039 33.0444 5.52207 30.4103 4.23149 27.7C3.11666 25.3572 2.41151 22.965 1.88334 20.4307C1.86964 20.365 1.85595 20.2993 1.84184 20.2317C1.38875 17.8577 1.98211 15.2977 3.3125 13.2948C3.39042 13.1805 3.46947 13.0671 3.54931 12.9541C3.5726 12.9209 3.59589 12.8876 3.61989 12.8534C4.48098 11.6451 5.62007 10.6588 6.93087 9.9723C7.03021 9.92004 7.12858 9.86596 7.22687 9.81176C10.3863 8.12949 14.3437 8.59762 17.2054 10.6465Z" fill="#15C0CB"></path><path d="M38.3788 0.104503C38.8192 0.368773 38.9663 0.684458 39.0881 1.1647C39.1079 1.24543 39.1275 1.32623 39.1468 1.40708C39.4359 2.60806 39.8172 3.68343 40.9038 4.39512C41.4841 4.74518 42.0718 4.9194 42.721 5.08514C43.8416 5.37379 43.8416 5.37379 44.162 5.86661C44.3124 6.14494 44.3202 6.42696 44.2397 6.7275C44.1087 7.07181 43.9228 7.26388 43.5995 7.44161C43.3276 7.53702 43.05 7.60438 42.7698 7.67013C41.5531 7.96205 40.519 8.3941 39.8131 9.48068C39.5321 9.96682 39.3697 10.4663 39.2317 11.0071C39.2151 11.0717 39.1985 11.1362 39.1813 11.2027C39.1485 11.3318 39.1167 11.4611 39.086 11.5908C38.9726 12.0418 38.827 12.4061 38.428 12.6693C37.9779 12.8255 37.6536 12.7866 37.2327 12.5885C36.7704 12.1776 36.6666 11.4824 36.5133 10.9066C36.3177 10.1782 36.0586 9.53434 35.5557 8.96036C35.5236 8.92229 35.4915 8.88423 35.4584 8.84501C34.8534 8.1807 34.0011 7.91753 33.1578 7.69496C33.0751 7.673 33.0751 7.673 32.9907 7.6506C32.8819 7.62204 32.7729 7.59415 32.6638 7.56705C32.1986 7.44674 31.9035 7.28334 31.6182 6.87911C31.4686 6.51189 31.4934 6.21937 31.6288 5.85607C31.8318 5.54105 32.0782 5.3913 32.4303 5.28302C32.4656 5.27185 32.5008 5.26068 32.5372 5.24917C32.7675 5.1769 32.9993 5.10973 33.231 5.04198C34.3905 4.70109 35.3433 4.30517 36.0057 3.22286C36.2527 2.7522 36.4018 2.25513 36.5471 1.7463C36.5794 1.63408 36.6118 1.52191 36.6446 1.40982C36.674 1.30877 36.7031 1.20759 36.732 1.1064C36.8692 0.680683 37.0209 0.313588 37.426 0.0798936C37.7631 -0.0212183 38.0519 -0.0402151 38.3788 0.104503ZM37.862 4.12286C37.7973 4.22039 37.7344 4.31908 37.6721 4.41818C37.1526 5.20621 36.4774 5.83261 35.6682 6.31661C35.7392 6.52964 35.8037 6.54454 35.9952 6.65411C36.7941 7.14734 37.4097 7.86143 37.862 8.67911C37.9988 8.51593 38.1182 8.34936 38.2311 8.16935C38.6631 7.517 39.2574 6.94985 39.9256 6.54513C40.0179 6.4877 40.0179 6.4877 40.112 6.42911C40.112 6.39199 40.112 6.35486 40.112 6.31661C40.0137 6.24619 39.9122 6.18019 39.8096 6.11622C39.4665 5.89313 39.1708 5.64322 38.8745 5.36036C38.8406 5.33071 38.8067 5.30105 38.7718 5.27049C38.4959 5.01904 38.3035 4.71507 38.1031 4.40288C38.0427 4.30877 37.9806 4.21571 37.9182 4.12286C37.8996 4.12286 37.8811 4.12286 37.862 4.12286Z" fill="#15C0CB"></path><path d="M11.5931 12.4478C11.7973 13.0975 12.0015 13.7472 12.2119 14.4166C11.9845 14.492 11.7571 14.5674 11.5228 14.6451C10.4246 15.0207 9.58576 15.5033 9.05001 16.5783C8.52099 17.7914 8.66198 19.1512 8.72438 20.4353C8.51387 20.4992 8.30186 20.5093 8.08365 20.5217C8.04402 20.5241 8.00438 20.5265 7.96355 20.529C7.83748 20.5367 7.7114 20.544 7.58531 20.5514C7.49962 20.5565 7.41393 20.5617 7.32823 20.5668C7.11863 20.5795 6.90901 20.5919 6.69938 20.6041C6.1802 19.0465 6.59477 16.8638 7.27594 15.4115C7.48923 15.0047 7.75391 14.6536 8.04938 14.3041C8.08099 14.2667 8.1126 14.2293 8.14518 14.1907C8.89059 13.3851 10.4816 12.4478 11.5931 12.4478Z" fill="#15C0CB"></path></g><defs><clipPath id="clip0_5203_1273"><rect width="45" height="47" fill="white"></rect></clipPath></defs></svg>