<svg xmlns="http://www.w3.org/2000/svg" width="128" height="128" viewBox="0 0 128 128" fill="none"><path d="M120.25 74.852H117.992V35.194C119.41 34.8664 120.658 34.0282 121.497 32.8393C122.337 31.6504 122.709 30.1941 122.543 28.7482C122.377 27.3023 121.685 25.9681 120.598 25.0001C119.512 24.0321 118.106 23.4981 116.651 23.5H105.833C104.39 23.4997 102.996 24.0266 101.913 24.9816C100.831 25.9366 100.134 27.254 99.9549 28.6863C99.7754 30.1186 100.125 31.5671 100.938 32.7597C101.751 33.9523 102.972 34.807 104.371 35.163C103.993 37.8428 102.662 40.2965 100.62 42.0734C98.579 43.8503 95.9653 44.8312 93.259 44.836H34.741C32.0346 44.8314 29.4208 43.8506 27.3795 42.0736C25.3382 40.2967 24.0065 37.8429 23.629 35.163C25.0279 34.807 26.2486 33.9523 27.0618 32.7597C27.8749 31.5671 28.2246 30.1186 28.0451 28.6863C27.8655 27.254 27.1692 25.9366 26.0868 24.9816C25.0044 24.0266 23.6105 23.4997 22.167 23.5H11.349C9.89363 23.4981 8.48849 24.0321 7.4017 25.0001C6.31492 25.9681 5.62256 27.3023 5.45676 28.7482C5.29095 30.1941 5.6633 31.6504 6.50275 32.8393C7.34219 34.0282 8.58997 34.8664 10.008 35.194V74.852H7.75C5.6953 74.8544 3.72544 75.6717 2.27255 77.1246C0.819662 78.5774 0.00238195 80.5473 0 82.602V126.172C0 126.636 0.184385 127.081 0.512573 127.409C0.840762 127.738 1.28587 127.922 1.75 127.922H11.75C12.2141 127.922 12.6592 127.738 12.9874 127.409C13.3156 127.081 13.5 126.636 13.5 126.172C13.5034 123.194 14.688 120.339 16.7939 118.233C18.8997 116.127 21.7549 114.942 24.733 114.939H103.267C106.245 114.942 109.1 116.127 111.206 118.233C113.312 120.339 114.497 123.194 114.5 126.172C114.5 126.402 114.545 126.629 114.633 126.842C114.721 127.054 114.85 127.247 115.012 127.41C115.175 127.572 115.368 127.701 115.58 127.789C115.793 127.877 116.02 127.922 116.25 127.922H126.25C126.48 127.922 126.707 127.877 126.92 127.789C127.132 127.701 127.325 127.572 127.488 127.41C127.65 127.247 127.779 127.054 127.867 126.842C127.955 126.629 128 126.402 128 126.172V82.602C127.998 80.5473 127.18 78.5774 125.727 77.1246C124.275 75.6717 122.305 74.8544 120.25 74.852ZM103.406 29.426C103.407 28.7827 103.663 28.1659 104.118 27.7111C104.573 27.2563 105.19 27.0005 105.833 27H116.651C116.97 27 117.285 27.0628 117.58 27.1848C117.874 27.3067 118.142 27.4855 118.367 27.7109C118.593 27.9362 118.771 28.2038 118.893 28.4982C119.015 28.7927 119.078 29.1083 119.078 29.427C119.078 29.7457 119.015 30.0613 118.893 30.3558C118.771 30.6502 118.593 30.9178 118.367 31.1432C118.142 31.3685 117.874 31.5473 117.58 31.6693C117.285 31.7912 116.97 31.854 116.651 31.854H105.833C105.19 31.8532 104.573 31.5973 104.118 31.1423C103.663 30.6873 103.407 30.0694 103.406 29.426ZM8.922 29.426C8.92279 28.7827 9.17878 28.1659 9.63379 27.7111C10.0888 27.2563 10.7057 27.0005 11.349 27H22.167C22.4857 27 22.8013 27.0628 23.0958 27.1848C23.3902 27.3067 23.6578 27.4855 23.8831 27.7109C24.1085 27.9362 24.2873 28.2038 24.4092 28.4982C24.5312 28.7927 24.594 29.1083 24.594 29.427C24.594 29.7457 24.5312 30.0613 24.4092 30.3558C24.2873 30.6502 24.1085 30.9178 23.8831 31.1432C23.6578 31.3685 23.3902 31.5473 23.0958 31.6693C22.8013 31.7912 22.4857 31.854 22.167 31.854H11.349C10.7054 31.8532 10.0884 31.5971 9.63336 31.1419C9.17835 30.6867 8.92253 30.0696 8.922 29.426ZM13.508 35.353H20.108C20.5407 38.9302 22.2675 42.2254 24.9626 44.6171C27.6576 47.0087 31.1347 48.3316 34.738 48.336H93.256C96.8592 48.3313 100.336 47.0085 103.031 44.6168C105.726 42.2252 107.453 38.9301 107.886 35.353H114.486V74.853H106.869V66.683C106.866 64.098 105.838 61.6198 104.01 59.7919C102.182 57.9641 99.704 56.9359 97.119 56.933H72C70.4272 56.934 68.878 57.3158 67.4848 58.0458C66.0916 58.7758 64.896 59.8323 64 61.125C63.104 59.8323 61.9084 58.7758 60.5152 58.0458C59.122 57.3158 57.5728 56.934 56 56.933H30.875C28.29 56.9359 25.8118 57.9641 23.9839 59.7919C22.1561 61.6198 21.1279 64.098 21.125 66.683V74.852H13.508V35.353ZM24.625 74.853V66.683C24.6269 65.026 25.2859 63.4373 26.4576 62.2656C27.6293 61.0939 29.218 60.4349 30.875 60.433H56C57.657 60.4349 59.2457 61.0939 60.4174 62.2656C61.5891 63.4373 62.2481 65.026 62.25 66.683V74.852L24.625 74.853ZM65.75 66.684C65.7519 65.027 66.4109 63.4383 67.5826 62.2666C68.7543 61.0949 70.343 60.4359 72 60.434H97.125C98.782 60.4359 100.371 61.0949 101.542 62.2666C102.714 63.4383 103.373 65.027 103.375 66.684V74.853H65.75V66.684ZM3.5 82.602C3.50132 81.4752 3.9495 80.395 4.74625 79.5983C5.54299 78.8015 6.62324 78.3533 7.75 78.352H120.25C121.377 78.3533 122.457 78.8015 123.254 79.5983C124.05 80.395 124.499 81.4752 124.5 82.602V96.435H3.5V82.602ZM124.5 124.422H117.9C117.467 120.845 115.741 117.55 113.046 115.158C110.351 112.766 106.874 111.443 103.271 111.439H24.733C21.1298 111.444 17.6528 112.767 14.9578 115.158C12.2628 117.55 10.5359 120.845 10.103 124.422H3.50299V99.935H124.503L124.5 124.422Z" fill="black"></path></svg>