<svg xmlns="http://www.w3.org/2000/svg" width="128" height="128" viewBox="0 0 128 128" fill="none"><path d="M122.25 56.752H122V15.752C121.996 11.5754 120.335 7.57092 117.382 4.61768C114.428 1.66443 110.424 0.00370668 106.247 0H96.5C92.3242 0.00449991 88.3208 1.66532 85.368 4.61804C82.4153 7.57077 80.7545 11.5742 80.75 15.75V24.182H78.6C78.3381 24.1823 78.0796 24.2411 77.8434 24.3543C77.6072 24.4675 77.3993 24.632 77.235 24.836L76 26.386C73.2773 29.79 71.6359 33.9311 71.287 38.276C69.8541 38.4007 68.5198 39.0574 67.547 40.1169C66.5742 41.1763 66.0333 42.5617 66.031 44V47.545C66.0309 47.7748 66.076 48.0025 66.1639 48.2148C66.2518 48.4272 66.3807 48.6202 66.5433 48.7827C66.7058 48.9452 66.8988 49.0741 67.1111 49.162C67.3235 49.2499 67.5512 49.2951 67.781 49.295H105.213C105.443 49.2951 105.67 49.2499 105.883 49.162C106.095 49.0741 106.288 48.9452 106.451 48.7827C106.613 48.6202 106.742 48.4272 106.83 48.2148C106.918 48.0025 106.963 47.7748 106.963 47.545V44C106.961 42.5617 106.42 41.1762 105.448 40.1166C104.475 39.0569 103.141 38.4 101.708 38.275C101.359 33.9303 99.7179 29.7895 96.995 26.386L95.754 24.838C95.5901 24.6336 95.3823 24.4686 95.146 24.3552C94.9097 24.2419 94.651 24.183 94.389 24.183H92.247V15.751C92.2481 14.6241 92.6962 13.5437 93.493 12.7469C94.2898 11.9501 95.3702 11.502 96.497 11.501H106.247C107.374 11.502 108.454 11.9501 109.251 12.7469C110.048 13.5437 110.496 14.6241 110.497 15.751V56.751H57.281C57.281 56.73 57.281 56.708 57.281 56.688C57.2821 54.8644 56.7326 53.0829 55.7046 51.5767C54.6765 50.0705 53.2177 48.9097 51.5191 48.2463C49.8205 47.5828 47.9611 47.4476 46.1844 47.8583C44.4076 48.269 42.7962 49.2064 41.561 50.548C40.1148 49.622 38.4149 49.1723 36.7 49.262C35.8482 46.8528 34.2707 44.7667 32.1845 43.291C30.0983 41.8152 27.6061 41.0222 25.0507 41.0212C22.4953 41.0203 20.0024 41.8112 17.9151 43.2854C15.8278 44.7596 14.2486 46.8444 13.395 49.253C11.3746 49.3112 9.44569 50.1083 7.97354 51.4932C6.5014 52.8782 5.58825 54.7549 5.40701 56.768C3.94551 56.8558 2.57248 57.4977 1.56781 58.5627C0.563143 59.6278 0.00245502 61.0359 0 62.5V65.5C0.00158831 67.0245 0.607893 68.4861 1.68588 69.5641C2.76387 70.6421 4.22549 71.2484 5.75 71.25H6V91.25C6.00472 96.0385 7.34327 100.731 9.86554 104.802C12.3878 108.872 15.9941 112.159 20.28 114.295L18.454 118.604C17.7669 120.252 17.7599 122.105 18.4345 123.758C19.1092 125.411 20.4106 126.73 22.0545 127.426C23.6984 128.123 25.5512 128.14 27.208 127.475C28.8649 126.81 30.1911 125.516 30.897 123.876L33.81 117H94.19L97.102 123.877C97.8149 125.507 99.1417 126.789 100.794 127.447C102.447 128.105 104.292 128.085 105.93 127.391C107.568 126.697 108.866 125.385 109.543 123.74C110.22 122.095 110.221 120.25 109.546 118.604L107.72 114.295C112.006 112.159 115.612 108.872 118.134 104.802C120.656 100.732 121.995 96.0402 122 91.252V71.252H122.25C123.775 71.2504 125.237 70.6439 126.315 69.5654C127.393 68.487 127.999 67.0249 128 65.5V62.5C127.998 60.9758 127.391 59.5148 126.313 58.4372C125.235 57.3596 123.774 56.7536 122.25 56.752ZM103.463 44V45.8H69.531V44C69.5318 43.4035 69.7691 42.8317 70.1909 42.4099C70.6126 41.9881 71.1845 41.7508 71.781 41.75H101.213C101.81 41.7508 102.381 41.9881 102.803 42.4099C103.225 42.8317 103.462 43.4035 103.463 44ZM94.263 28.576C96.4843 31.351 97.8505 34.7122 98.195 38.25H74.8C75.1445 34.7122 76.5107 31.351 78.732 28.576L79.449 27.683H93.549L94.263 28.576ZM106.247 8H96.5C94.4453 8.00238 92.4755 8.81969 91.0226 10.2726C89.5697 11.7255 88.7524 13.6953 88.75 15.75V24.182H84.25V15.75C84.2534 12.5022 85.5452 9.38831 87.8417 7.09174C90.1383 4.79516 93.2522 3.50344 96.5 3.5H106.25C109.498 3.50344 112.612 4.79516 114.908 7.09174C117.205 9.38831 118.497 12.5022 118.5 15.75V56.75H114V15.75C113.998 13.6948 113.18 11.7245 111.726 10.2715C110.273 8.81851 108.302 8.00159 106.247 8ZM13.625 52.749C13.8865 52.7514 14.1474 52.7751 14.405 52.82C14.8466 52.8929 15.2994 52.7934 15.6699 52.5422C16.0403 52.291 16.3003 51.9072 16.396 51.47C16.8335 49.4895 17.937 47.7191 19.5224 46.4542C21.1078 45.1892 23.079 44.5064 25.1072 44.5197C27.1353 44.5329 29.0975 45.2414 30.6663 46.5269C32.235 47.8123 33.3154 49.597 33.727 51.583C33.775 51.8166 33.8703 52.0379 34.007 52.2333C34.1436 52.4288 34.3189 52.5941 34.5218 52.7194C34.7248 52.8446 34.9512 52.927 35.1872 52.9615C35.4231 52.996 35.6637 52.9819 35.894 52.92C36.7242 52.6817 37.6045 52.6808 38.4352 52.9172C39.2659 53.1537 40.0138 53.6182 40.594 54.258C40.781 54.4589 41.0126 54.6129 41.2701 54.7077C41.5277 54.8025 41.8039 54.8354 42.0765 54.8036C42.3491 54.7719 42.6104 54.6764 42.8393 54.525C43.0681 54.3736 43.2582 54.1705 43.394 53.932C44.0011 52.8657 44.9438 52.0301 46.0754 51.5557C47.207 51.0812 48.4637 50.9945 49.6498 51.309C50.8358 51.6234 51.8845 52.3215 52.6323 53.2943C53.3801 54.2671 53.785 55.46 53.784 56.687V56.75H8.93399C9.11394 55.6351 9.68469 54.6205 10.5441 53.8879C11.4036 53.1552 12.4957 52.7522 13.625 52.751V52.749ZM27.675 122.511C27.4258 123.1 27.0082 123.603 26.4745 123.956C25.9409 124.309 25.3149 124.497 24.675 124.496C24.1371 124.497 23.6074 124.364 23.1334 124.11C22.6593 123.855 22.2557 123.488 21.9585 123.039C21.6613 122.591 21.4799 122.076 21.4304 121.54C21.3809 121.005 21.4649 120.465 21.675 119.97L23.506 115.648C23.59 115.677 23.677 115.698 23.762 115.726C24.097 115.836 24.436 115.937 24.778 116.033C24.924 116.074 25.069 116.119 25.215 116.158C25.6817 116.281 26.1553 116.391 26.636 116.488C26.774 116.516 26.913 116.537 27.051 116.563C27.41 116.629 27.77 116.69 28.134 116.741C28.311 116.766 28.488 116.788 28.666 116.809C29.014 116.851 29.364 116.884 29.716 116.909C29.821 116.918 29.926 116.933 30.031 116.94L27.675 122.511ZM104.492 115.648L106.323 119.97C106.533 120.465 106.617 121.005 106.568 121.54C106.518 122.076 106.337 122.591 106.039 123.039C105.742 123.488 105.339 123.855 104.865 124.11C104.391 124.364 103.861 124.497 103.323 124.496C102.683 124.497 102.057 124.309 101.524 123.956C100.99 123.603 100.572 123.1 100.323 122.511L97.965 116.943C98.07 116.936 98.173 116.921 98.277 116.913C98.633 116.885 98.987 116.852 99.339 116.813C99.511 116.792 99.683 116.771 99.855 116.747C100.227 116.695 100.596 116.633 100.962 116.565C101.094 116.54 101.226 116.521 101.362 116.494C101.841 116.397 102.316 116.286 102.785 116.163C102.933 116.124 103.079 116.079 103.226 116.038C103.566 115.942 103.904 115.84 104.239 115.731C104.321 115.7 104.407 115.679 104.492 115.65V115.648ZM118.5 91.248C118.495 95.6732 117.172 99.9966 114.7 103.667C112.228 107.338 108.719 110.189 104.621 111.858C104.021 112.104 103.404 112.327 102.783 112.518C102.714 112.539 102.642 112.557 102.572 112.578C101.941 112.765 101.304 112.928 100.659 113.057C100.599 113.07 100.539 113.078 100.479 113.09C99.815 113.218 99.146 113.32 98.47 113.39C98.442 113.39 98.413 113.39 98.385 113.396C97.679 113.463 96.967 113.496 96.25 113.496H31.75C31.044 113.496 30.344 113.459 29.65 113.396L29.521 113.386C28.856 113.32 28.197 113.219 27.544 113.093C27.475 113.08 27.405 113.07 27.336 113.056C26.697 112.927 26.064 112.766 25.436 112.58C25.362 112.558 25.288 112.539 25.215 112.517C24.595 112.326 23.984 112.104 23.379 111.858C19.2805 110.189 15.7717 107.338 13.3 103.667C10.8282 99.9966 9.50532 95.6732 9.5 91.248V71.248H118.5V91.248ZM124.5 65.498C124.499 66.0945 124.262 66.6663 123.84 67.0881C123.418 67.5099 122.846 67.7472 122.25 67.748H5.75C5.15351 67.7472 4.58167 67.5099 4.15988 67.0881C3.7381 66.6663 3.50079 66.0945 3.5 65.498V62.498C3.50079 61.9015 3.7381 61.3297 4.15988 60.9079C4.58167 60.4861 5.15351 60.2488 5.75 60.248H122.25C122.846 60.2488 123.418 60.4861 123.84 60.9079C124.262 61.3297 124.499 61.9015 124.5 62.498V65.498Z" fill="black"></path></svg>