<svg xmlns="http://www.w3.org/2000/svg" width="64" height="64" viewBox="0 0 64 64" fill="none"><path d="M18.0233 35.8491C22.0856 35.8491 25.3787 32.5559 25.3787 28.4937C25.3787 24.4314 22.0856 21.1383 18.0233 21.1383C13.9611 21.1383 10.668 24.4314 10.668 28.4937C10.668 32.5559 13.9611 35.8491 18.0233 35.8491Z" stroke="#C19E62" stroke-width="2" stroke-linecap="round" stroke-linejoin="round"></path><path d="M18.0215 40.3316C24.5594 40.3316 29.8594 35.0316 29.8594 28.4937C29.8594 21.9558 24.5594 16.6558 18.0215 16.6558C11.4836 16.6558 6.18359 21.9558 6.18359 28.4937C6.18359 35.0316 11.4836 40.3316 18.0215 40.3316Z" stroke="#C19E62" stroke-width="2" stroke-linecap="round" stroke-linejoin="round"></path><path d="M45.9765 52.0777C50.0387 52.0777 53.3319 48.7846 53.3319 44.7223C53.3319 40.66 50.0387 37.3669 45.9765 37.3669C41.9142 37.3669 38.6211 40.66 38.6211 44.7223C38.6211 48.7846 41.9142 52.0777 45.9765 52.0777Z" stroke="#C19E62" stroke-width="2" stroke-linecap="round" stroke-linejoin="round"></path><path d="M45.9785 56.5602C52.5164 56.5602 57.8164 51.2602 57.8164 44.7223C57.8164 38.1844 52.5164 32.8844 45.9785 32.8844C39.4406 32.8844 34.1406 38.1844 34.1406 44.7223C34.1406 51.2602 39.4406 56.5602 45.9785 56.5602Z" stroke="#C19E62" stroke-width="2" stroke-linecap="round" stroke-linejoin="round"></path><path d="M26.5995 20.3314L28.9333 16.2891C29.0514 16.0845 29.0834 15.8413 29.0223 15.613C28.9611 15.3848 28.8118 15.1902 28.6072 15.072L24.3517 12.6152C24.1471 12.497 23.9039 12.465 23.6756 12.5262C23.4474 12.5873 23.2528 12.7367 23.1346 12.9413L20.8008 16.9836" stroke="#C19E62" stroke-width="2" stroke-linecap="round" stroke-linejoin="round"></path><path d="M54.5564 36.56L56.9287 32.4512C57.0468 32.2465 57.0788 32.0033 57.0177 31.7751C56.9565 31.5469 56.8072 31.3523 56.6026 31.2341L52.3471 28.7773C52.1425 28.6591 51.8993 28.6271 51.671 28.6883C51.4428 28.7494 51.2482 28.8987 51.13 29.1034L48.7578 33.2122" stroke="#C19E62" stroke-width="2" stroke-linecap="round" stroke-linejoin="round"></path><path d="M26.4805 13.8436C28.1788 10.902 30.9762 8.75547 34.2572 7.87633C37.5382 6.99719 41.034 7.45743 43.9756 9.15578L49.7862 12.5105C52.7279 14.2089 54.8743 17.0062 55.7535 20.2872C56.6326 23.5682 56.1724 27.064 54.474 30.0057" stroke="#C19E62" stroke-width="2" stroke-linecap="round" stroke-linejoin="round" stroke-dasharray="4 6"></path></svg>