<svg width="50" height="50" viewBox="0 0 50 50" fill="none" xmlns="http://www.w3.org/2000/svg">
<g clip-path="url(#clip0_7398_1359)">
<mask id="mask0_7398_1359" style="mask-type:alpha" maskUnits="userSpaceOnUse" x="0" y="0" width="50" height="50">
<path d="M50 0H0V50H50V0Z" fill="#D9D9D9"/>
</mask>
<g mask="url(#mask0_7398_1359)">
<path d="M25 50C38.8071 50 50 38.8071 50 25C50 11.1929 38.8071 0 25 0C11.1929 0 0 11.1929 0 25C0 38.8071 11.1929 50 25 50Z" fill="url(#paint0_linear_7398_1359)"/>
<path d="M26.1108 39.0214C23.4822 39.0214 21.1101 38.4284 18.9944 37.2423C16.9108 36.0242 15.2439 34.3733 13.9937 32.2897C12.7756 30.206 12.1665 27.866 12.1665 25.2694C12.1665 22.6729 12.7756 20.3489 13.9937 18.2973C15.2118 16.2136 16.8787 14.5788 18.9944 13.3927C21.1101 12.2067 23.4822 11.6136 26.1108 11.6136C28.0662 11.6136 29.8774 11.9502 31.5443 12.6234C33.2112 13.2966 34.6377 14.2422 35.8238 15.4603C37.0098 16.6464 37.8593 18.0569 38.3722 19.6917L32.1213 22.3844C31.6725 21.0701 30.9032 20.0283 29.8133 19.259C28.7554 18.4896 27.5213 18.1049 26.1108 18.1049C24.8606 18.1049 23.7387 18.4095 22.745 19.0185C21.7833 19.6276 21.0139 20.4771 20.4369 21.567C19.892 22.6569 19.6195 23.9071 19.6195 25.3175C19.6195 26.728 19.892 27.9782 20.4369 29.0681C21.0139 30.158 21.7833 31.0074 22.745 31.6165C23.7387 32.2256 24.8606 32.5301 26.1108 32.5301C27.5533 32.5301 28.8035 32.1454 29.8614 31.3761C30.9192 30.6067 31.6725 29.5649 32.1213 28.2506L38.3722 30.9914C37.8914 32.5301 37.0579 33.9085 35.8718 35.1266C34.6858 36.3447 33.2593 37.3064 31.5924 38.0116C29.9255 38.6848 28.0983 39.0214 26.1108 39.0214Z" fill="white"/>
</g>
</g>
<defs>
<linearGradient id="paint0_linear_7398_1359" x1="43.9024" y1="8.53659" x2="6.70732" y2="41.4634" gradientUnits="userSpaceOnUse">
<stop stop-color="#14DA7D"/>
<stop offset="1" stop-color="#6E4AF8"/>
</linearGradient>
<clipPath id="clip0_7398_1359">
<rect width="50" height="50" fill="white"/>
</clipPath>
</defs>
</svg>
