<svg width="65" height="65" viewBox="0 0 65 65" fill="none" xmlns="http://www.w3.org/2000/svg">
<mask id="mask0_4813_878" style="mask-type:alpha" maskUnits="userSpaceOnUse" x="0" y="0" width="65" height="65">
<rect x="0.5" y="0.5" width="64" height="64" fill="#D9D9D9"/>
</mask>
<g mask="url(#mask0_4813_878)">
<circle cx="32.5" cy="32.5" r="32" fill="url(#paint0_linear_4813_878)"/>
<path d="M33.3898 48.0064C30.3744 48.0064 27.6532 47.3261 25.2262 45.9655C22.8359 44.5681 20.9237 42.6743 19.4895 40.284C18.0921 37.8937 17.3935 35.2093 17.3935 32.2306C17.3935 29.252 18.0921 26.5859 19.4895 24.2325C20.8869 21.8422 22.7991 19.9667 25.2262 18.6061C27.6532 17.2455 30.3744 16.5652 33.3898 16.5652C35.633 16.5652 37.7107 16.9513 39.6229 17.7236C41.5351 18.4958 43.1715 19.5806 44.5322 20.978C45.8928 22.3386 46.8673 23.9567 47.4556 25.8321L40.2848 28.9211C39.77 27.4133 38.8875 26.2182 37.6372 25.3357C36.4236 24.4531 35.0079 24.0118 33.3898 24.0118C31.9557 24.0118 30.6686 24.3612 29.5286 25.0599C28.4254 25.7585 27.5429 26.733 26.881 27.9833C26.2558 29.2336 25.9432 30.6678 25.9432 32.2858C25.9432 33.9038 26.2558 35.338 26.881 36.5883C27.5429 37.8386 28.4254 38.8131 29.5286 39.5118C30.6686 40.2105 31.9557 40.5598 33.3898 40.5598C35.0446 40.5598 36.4788 40.1185 37.6923 39.236C38.9058 38.3534 39.77 37.1583 40.2848 35.6506L47.4556 38.7947C46.904 40.5598 45.9479 42.1411 44.5873 43.5384C43.2267 44.9358 41.5903 46.039 39.6781 46.848C37.7659 47.6203 35.6698 48.0064 33.3898 48.0064Z" fill="white"/>
</g>
<defs>
<linearGradient id="paint0_linear_4813_878" x1="56.6951" y1="11.4268" x2="9.08537" y2="53.5732" gradientUnits="userSpaceOnUse">
<stop stop-color="#2ACF95"/>
<stop offset="1" stop-color="#6D67EB"/>
</linearGradient>
</defs>
</svg>
