<svg width="29" height="19" viewBox="0 0 29 19" fill="none" xmlns="http://www.w3.org/2000/svg">
<rect width="29" height="19" rx="2.36016" fill="url(#paint0_linear_1262_628)"/>
<path d="M8.22603 13.9414H5.95898L8.90359 5.21411H11.7118L14.6564 13.9414H12.3894L10.3397 7.41297H10.2715L8.22603 13.9414ZM7.92347 10.5067H12.6621V12.109H7.92347V10.5067Z" fill="white"/>
<path d="M17.4654 5.21411V13.9414H15.3561V5.21411H17.4654Z" fill="white"/>
<path d="M22.1562 2.8595C22.2743 2.54032 22.7257 2.54032 22.8438 2.8595C22.8438 2.8595 23.0248 4.21976 23.5731 4.8304C23.653 4.91941 23.7007 4.96707 23.7897 5.047C24.4004 5.59531 25.7606 5.7763 25.7606 5.7763C26.0798 5.8944 26.0798 6.34583 25.7606 6.46394C25.7606 6.46394 24.4004 6.64492 23.7897 7.19324C23.7007 7.27316 23.653 7.32083 23.5731 7.40983C23.0248 8.02047 22.8438 9.38074 22.8438 9.38074C22.7257 9.69991 22.2743 9.69991 22.1562 9.38074C22.1562 9.38074 21.9752 8.02047 21.4269 7.40983C21.347 7.32083 21.2993 7.27316 21.2103 7.19324C20.5996 6.64492 19.2394 6.46394 19.2394 6.46394C18.9202 6.34583 18.9202 5.8944 19.2394 5.7763C19.2394 5.7763 20.5996 5.59531 21.2103 5.047C21.2993 4.96707 21.347 4.91941 21.4269 4.8304C21.9752 4.21976 22.1562 2.8595 22.1562 2.8595Z" fill="white"/>
<defs>
<linearGradient id="paint0_linear_1262_628" x1="25.4634" y1="3.2439" x2="11.8456" y2="21.6439" gradientUnits="userSpaceOnUse">
<stop stop-color="#00CE6E"/>
<stop offset="1" stop-color="#6039F5"/>
</linearGradient>
</defs>
</svg>
