<svg width="111" height="33" viewBox="0 0 111 33" fill="none" xmlns="http://www.w3.org/2000/svg">
<rect width="111" height="33" rx="3" fill="url(#paint0_linear_1226_607)"/>
<path d="M45.0251 14.7355H43.2986C43.2493 14.4523 43.1585 14.2015 43.0262 13.983C42.8939 13.7614 42.7292 13.5736 42.5322 13.4198C42.3353 13.2659 42.1106 13.1505 41.8582 13.0735C41.6089 12.9935 41.3396 12.9535 41.0503 12.9535C40.5364 12.9535 40.0809 13.0828 39.6839 13.3413C39.2868 13.5967 38.976 13.9722 38.7513 14.4677C38.5267 14.9601 38.4143 15.5618 38.4143 16.2727C38.4143 16.996 38.5267 17.6054 38.7513 18.1009C38.9791 18.5933 39.2899 18.9657 39.6839 19.2181C40.0809 19.4674 40.5348 19.592 41.0457 19.592C41.3289 19.592 41.5935 19.5551 41.8398 19.4812C42.089 19.4043 42.3122 19.2919 42.5091 19.1442C42.7092 18.9965 42.8769 18.8149 43.0123 18.5995C43.1508 18.384 43.2462 18.1378 43.2986 17.8608L45.0251 17.8701C44.9605 18.3194 44.8205 18.741 44.605 19.135C44.3927 19.5289 44.1141 19.8767 43.7694 20.1783C43.4247 20.4768 43.0216 20.7107 42.5599 20.88C42.0983 21.0462 41.5858 21.1293 41.0226 21.1293C40.1917 21.1293 39.45 20.9369 38.7975 20.5522C38.145 20.1675 37.6311 19.612 37.2556 18.8857C36.8801 18.1594 36.6924 17.2884 36.6924 16.2727C36.6924 15.254 36.8817 14.3831 37.2602 13.6598C37.6388 12.9335 38.1543 12.378 38.8067 11.9933C39.4592 11.6086 40.1978 11.4162 41.0226 11.4162C41.5489 11.4162 42.0383 11.4901 42.4907 11.6378C42.9431 11.7855 43.3463 12.0025 43.7002 12.2887C44.0541 12.5719 44.345 12.9196 44.5727 13.3321C44.8035 13.7414 44.9543 14.2092 45.0251 14.7355Z" fill="white"/>
<path d="M45.9997 21V13.9091H47.6201V15.0909H47.694C47.8232 14.6816 48.0448 14.3661 48.3587 14.1446C48.6757 13.9199 49.0374 13.8076 49.4436 13.8076C49.5359 13.8076 49.639 13.8122 49.7529 13.8214C49.8699 13.8276 49.9668 13.8383 50.0437 13.8537V15.391C49.973 15.3664 49.8606 15.3448 49.7067 15.3264C49.5559 15.3048 49.4097 15.2941 49.2682 15.2941C48.9635 15.2941 48.6896 15.3602 48.4464 15.4926C48.2064 15.6218 48.0171 15.8019 47.8786 16.0327C47.7401 16.2635 47.6709 16.5297 47.6709 16.8313V21H45.9997Z" fill="white"/>
<path d="M52.5475 21.1431C52.0982 21.1431 51.6935 21.0631 51.3334 20.9031C50.9764 20.74 50.6933 20.4999 50.484 20.1829C50.2778 19.8659 50.1747 19.475 50.1747 19.0103C50.1747 18.6102 50.2485 18.2794 50.3963 18.0178C50.544 17.7562 50.7456 17.5469 51.001 17.3899C51.2565 17.233 51.5442 17.1145 51.8643 17.0345C52.1875 16.9514 52.5214 16.8914 52.8661 16.8544C53.2816 16.8113 53.6186 16.7729 53.8771 16.739C54.1356 16.7021 54.3233 16.6467 54.4403 16.5728C54.5603 16.4959 54.6203 16.3774 54.6203 16.2174V16.1897C54.6203 15.8419 54.5172 15.5726 54.311 15.3818C54.1048 15.191 53.8078 15.0955 53.42 15.0955C53.0107 15.0955 52.686 15.1848 52.446 15.3633C52.209 15.5418 52.049 15.7526 51.9659 15.9958L50.4055 15.7742C50.5286 15.3433 50.7317 14.9832 51.0149 14.6939C51.298 14.4015 51.6442 14.183 52.0536 14.0384C52.4629 13.8906 52.9153 13.8168 53.4108 13.8168C53.7524 13.8168 54.0925 13.8568 54.4311 13.9368C54.7696 14.0168 55.0789 14.1492 55.359 14.3338C55.639 14.5154 55.8637 14.7632 56.033 15.0771C56.2053 15.391 56.2915 15.7834 56.2915 16.2543V21H54.685V20.0259H54.6296C54.528 20.2229 54.3849 20.4076 54.2002 20.5799C54.0187 20.7492 53.7894 20.8861 53.5124 20.9908C53.2385 21.0924 52.9169 21.1431 52.5475 21.1431ZM52.9815 19.9152C53.3169 19.9152 53.6078 19.849 53.854 19.7166C54.1002 19.5812 54.2895 19.4027 54.4218 19.1811C54.5572 18.9595 54.625 18.7179 54.625 18.4563V17.6208C54.5726 17.6638 54.4834 17.7039 54.3572 17.7408C54.2341 17.7777 54.0956 17.81 53.9417 17.8377C53.7878 17.8654 53.6355 17.8901 53.4847 17.9116C53.3339 17.9331 53.2031 17.9516 53.0923 17.967C52.843 18.0009 52.6199 18.0562 52.4229 18.1332C52.2259 18.2101 52.0705 18.3178 51.9566 18.4563C51.8428 18.5918 51.7858 18.7672 51.7858 18.9826C51.7858 19.2904 51.8982 19.5227 52.1228 19.6797C52.3475 19.8367 52.6337 19.9152 52.9815 19.9152Z" fill="white"/>
<path d="M61.0435 13.9091V15.2017H56.8518V13.9091H61.0435ZM57.8997 21V13.2397C57.8997 12.7627 57.9982 12.3657 58.1952 12.0487C58.3952 11.7317 58.663 11.4947 58.9984 11.3377C59.3339 11.1808 59.7063 11.1023 60.1156 11.1023C60.4049 11.1023 60.6619 11.1254 60.8866 11.1715C61.1112 11.2177 61.2774 11.2593 61.3851 11.2962L61.0527 12.5888C60.982 12.5673 60.8927 12.5457 60.785 12.5242C60.6773 12.4995 60.5572 12.4872 60.4249 12.4872C60.1141 12.4872 59.894 12.5626 59.7648 12.7134C59.6386 12.8612 59.5755 13.0735 59.5755 13.3505V21H57.8997Z" fill="white"/>
<path d="M65.3731 13.9091V15.2017H61.2968V13.9091H65.3731ZM62.3032 12.2102H63.9743V18.8672C63.9743 19.0919 64.0082 19.2642 64.0759 19.3843C64.1467 19.5012 64.239 19.5812 64.3529 19.6243C64.4668 19.6674 64.5929 19.6889 64.7314 19.6889C64.8361 19.6889 64.9315 19.6812 65.0177 19.6659C65.1069 19.6505 65.1746 19.6366 65.2208 19.6243L65.5024 20.9308C65.4131 20.9616 65.2854 20.9954 65.1192 21.0323C64.9561 21.0693 64.7561 21.0908 64.5191 21.097C64.1005 21.1093 63.7235 21.0462 63.388 20.9077C63.0526 20.7661 62.7864 20.5476 62.5894 20.2522C62.3955 19.9567 62.3001 19.5874 62.3032 19.1442V12.2102Z" fill="white"/>
<path d="M69.2676 21.1385C68.5752 21.1385 67.975 20.9862 67.4672 20.6815C66.9594 20.3768 66.5655 19.9505 66.2854 19.4027C66.0084 18.8549 65.8699 18.2147 65.8699 17.4823C65.8699 16.7498 66.0084 16.1081 66.2854 15.5572C66.5655 15.0063 66.9594 14.5785 67.4672 14.2738C67.975 13.9691 68.5752 13.8168 69.2676 13.8168C69.9601 13.8168 70.5602 13.9691 71.0681 14.2738C71.5759 14.5785 71.9683 15.0063 72.2453 15.5572C72.5253 16.1081 72.6654 16.7498 72.6654 17.4823C72.6654 18.2147 72.5253 18.8549 72.2453 19.4027C71.9683 19.9505 71.5759 20.3768 71.0681 20.6815C70.5602 20.9862 69.9601 21.1385 69.2676 21.1385ZM69.2769 19.7997C69.6523 19.7997 69.9663 19.6966 70.2186 19.4904C70.471 19.2812 70.6587 19.0011 70.7818 18.6502C70.908 18.2994 70.9711 17.9085 70.9711 17.4777C70.9711 17.0437 70.908 16.6513 70.7818 16.3004C70.6587 15.9465 70.471 15.6649 70.2186 15.4556C69.9663 15.2464 69.6523 15.1417 69.2769 15.1417C68.8922 15.1417 68.5721 15.2464 68.3166 15.4556C68.0643 15.6649 67.875 15.9465 67.7488 16.3004C67.6257 16.6513 67.5642 17.0437 67.5642 17.4777C67.5642 17.9085 67.6257 18.2994 67.7488 18.6502C67.875 19.0011 68.0643 19.2812 68.3166 19.4904C68.5721 19.6966 68.8922 19.7997 69.2769 19.7997Z" fill="white"/>
<path d="M77.5564 21H75.7283L79.0567 11.5455H81.1711L84.5042 21H82.6761L80.1508 13.4844H80.077L77.5564 21ZM77.6164 17.293H82.6022V18.6687H77.6164V17.293Z" fill="white"/>
<path d="M86.9422 11.5455V21H85.2295V11.5455H86.9422Z" fill="white"/>
<mask id="mask0_1226_607" style="mask-type:alpha" maskUnits="userSpaceOnUse" x="12" y="7" width="20" height="19">
<rect x="12" y="7" width="20" height="19" fill="#D9D9D9"/>
</mask>
<g mask="url(#mask0_1226_607)">
<ellipse cx="22" cy="16.5" rx="10" ry="9.5" fill="white"/>
<path d="M22.4428 22.0194C21.3914 22.0194 20.4425 21.7822 19.5962 21.3077C18.7628 20.8205 18.096 20.1601 17.596 19.3267C17.1087 18.4932 16.8651 17.5572 16.8651 16.5186C16.8651 15.48 17.1087 14.5504 17.596 13.7297C18.0832 12.8963 18.75 12.2423 19.5962 11.7679C20.4425 11.2935 21.3914 11.0563 22.4428 11.0563C23.225 11.0563 23.9494 11.1909 24.6162 11.4602C25.283 11.7294 25.8536 12.1077 26.328 12.5949C26.8024 13.0694 27.1422 13.6336 27.3474 14.2875L24.847 15.3646C24.6675 14.8389 24.3597 14.4221 23.9238 14.1144C23.5007 13.8067 23.007 13.6528 22.4428 13.6528C21.9427 13.6528 21.494 13.7746 21.0965 14.0182C20.7118 14.2619 20.4041 14.6016 20.1733 15.0376C19.9553 15.4736 19.8463 15.9736 19.8463 16.5378C19.8463 17.102 19.9553 17.6021 20.1733 18.038C20.4041 18.474 20.7118 18.8138 21.0965 19.0574C21.494 19.301 21.9427 19.4229 22.4428 19.4229C23.0198 19.4229 23.5199 19.269 23.943 18.9612C24.3662 18.6535 24.6675 18.2368 24.847 17.7111L27.3474 18.8074C27.155 19.4229 26.8216 19.9742 26.3472 20.4615C25.8728 20.9487 25.3022 21.3334 24.6354 21.6155C23.9687 21.8847 23.2378 22.0194 22.4428 22.0194Z" fill="white"/>
<mask id="mask1_1226_607" style="mask-type:alpha" maskUnits="userSpaceOnUse" x="16" y="11" width="12" height="12">
<path d="M22.443 22.0193C21.3915 22.0193 20.4427 21.782 19.5964 21.3076C18.7629 20.8204 18.0962 20.16 17.5961 19.3266C17.1089 18.4931 16.8652 17.5571 16.8652 16.5185C16.8652 15.4799 17.1089 14.5502 17.5961 13.7296C18.0834 12.8962 18.7501 12.2422 19.5964 11.7678C20.4427 11.2934 21.3915 11.0562 22.443 11.0562C23.2251 11.0562 23.9496 11.1908 24.6163 11.4601C25.2831 11.7293 25.8537 12.1076 26.3281 12.5948C26.8026 13.0693 27.1423 13.6334 27.3475 14.2874L24.8471 15.3645C24.6676 14.8387 24.3599 14.422 23.9239 14.1143C23.5008 13.8065 23.0071 13.6527 22.443 13.6527C21.9429 13.6527 21.4941 13.7745 21.0966 14.0181C20.7119 14.2617 20.4042 14.6015 20.1734 15.0375C19.9554 15.4735 19.8464 15.9735 19.8464 16.5377C19.8464 17.1019 19.9554 17.602 20.1734 18.0379C20.4042 18.4739 20.7119 18.8137 21.0966 19.0573C21.4941 19.3009 21.9429 19.4227 22.443 19.4227C23.02 19.4227 23.52 19.2689 23.9432 18.9611C24.3663 18.6534 24.6676 18.2367 24.8471 17.711L27.3475 18.8073C27.1552 19.4227 26.8218 19.9741 26.3474 20.4613C25.8729 20.9486 25.3023 21.3333 24.6356 21.6154C23.9688 21.8846 23.2379 22.0193 22.443 22.0193Z" fill="white"/>
</mask>
<g mask="url(#mask1_1226_607)">
<rect y="-1" width="114" height="34" rx="3" fill="url(#paint1_linear_1226_607)"/>
</g>
</g>
<path d="M93.5437 6.86799C93.7055 6.43072 94.324 6.43072 94.4858 6.86799C94.4858 6.86799 94.7337 8.73155 95.4849 9.56813C95.5944 9.69006 95.6597 9.75537 95.7816 9.86486C96.6182 10.6161 98.4818 10.864 98.4818 10.864C98.919 11.0258 98.919 11.6443 98.4818 11.8061C98.4818 11.8061 96.6182 12.054 95.7816 12.8052C95.6597 12.9147 95.5944 12.98 95.4849 13.102C94.7337 13.9385 94.4858 15.8021 94.4858 15.8021C94.324 16.2394 93.7055 16.2394 93.5437 15.8021C93.5437 15.8021 93.2957 13.9385 92.5446 13.102C92.4351 12.98 92.3698 12.9147 92.2478 12.8052C91.4112 12.054 89.5477 11.8061 89.5477 11.8061C89.1104 11.6443 89.1104 11.0258 89.5477 10.864C89.5477 10.864 91.4112 10.6161 92.2478 9.86486C92.3698 9.75537 92.4351 9.69006 92.5446 9.56813C93.2957 8.73155 93.5437 6.86799 93.5437 6.86799Z" fill="white"/>
<defs>
<linearGradient id="paint0_linear_1226_607" x1="97.4634" y1="5.63415" x2="82.5357" y2="50.0836" gradientUnits="userSpaceOnUse">
<stop stop-color="#00CE6E"/>
<stop offset="1" stop-color="#6039F5"/>
</linearGradient>
<linearGradient id="paint1_linear_1226_607" x1="100.098" y1="4.80488" x2="84.6784" y2="50.5717" gradientUnits="userSpaceOnUse">
<stop stop-color="#00CE6E"/>
<stop offset="1" stop-color="#6039F5"/>
</linearGradient>
</defs>
</svg>
