<svg width="231" height="38" viewBox="0 0 231 38" fill="none" xmlns="http://www.w3.org/2000/svg">
<circle cx="18.8358" cy="18.934" r="18.6288" fill="url(#paint0_linear_1105_767)"/>
<mask id="mask0_1105_767" style="mask-type:alpha" maskUnits="userSpaceOnUse" x="0" y="0" width="38" height="38">
<circle cx="18.8378" cy="18.9332" r="18.6288" fill="url(#paint1_linear_1105_767)"/>
</mask>
<g mask="url(#mask0_1105_767)">
<g filter="url(#filter0_f_1105_767)">
<circle cx="18.8378" cy="18.9332" r="18.6288" fill="url(#paint2_radial_1105_767)"/>
</g>
<ellipse cx="18.8389" cy="18.9359" rx="18.63" ry="18.63" fill="url(#paint3_linear_1105_767)"/>
<ellipse cx="18.8389" cy="18.9359" rx="18.63" ry="18.63" fill="url(#paint4_linear_1105_767)"/>
</g>
<path d="M19.6706 26.0663C18.2739 26.0663 17.0724 25.7704 16.0662 25.1785C15.066 24.5807 14.2966 23.7521 13.758 22.6927C13.2253 21.6333 12.959 20.4141 12.959 19.035C12.959 17.6383 13.2283 16.4131 13.7669 15.3596C14.3114 14.3002 15.0837 13.4746 16.084 12.8827C17.0842 12.2849 18.2739 11.986 19.6529 11.986C20.8425 11.986 21.8842 12.2021 22.7779 12.6341C23.6716 13.0662 24.3788 13.6728 24.8997 14.4541C25.4205 15.2353 25.7076 16.1527 25.7608 17.2062H22.1919C22.0913 16.5256 21.825 15.9781 21.3929 15.5638C20.9668 15.1436 20.4075 14.9335 19.715 14.9335C19.1291 14.9335 18.6171 15.0933 18.1792 15.4129C17.7471 15.7266 17.4097 16.1853 17.1671 16.789C16.9244 17.3926 16.8031 18.1236 16.8031 18.9818C16.8031 19.8518 16.9215 20.5916 17.1582 21.2012C17.4009 21.8109 17.7412 22.2755 18.1792 22.5951C18.6171 22.9147 19.1291 23.0745 19.715 23.0745C20.1471 23.0745 20.5347 22.9857 20.878 22.8081C21.2272 22.6306 21.5143 22.3731 21.7392 22.0358C21.97 21.6925 22.1209 21.2811 22.1919 20.8017H25.7608C25.7016 21.8434 25.4176 22.7608 24.9086 23.5539C24.4055 24.341 23.71 24.9566 22.8223 25.4005C21.9345 25.8444 20.8839 26.0663 19.6706 26.0663Z" fill="#1D2327"/>
<path d="M27.2573 25.8V12.1636H30.9238V14.5429H31.0659C31.3144 13.6965 31.7317 13.0573 32.3176 12.6252C32.9036 12.1873 33.5783 11.9683 34.3418 11.9683C34.5312 11.9683 34.7354 11.9801 34.9543 12.0038C35.1733 12.0275 35.3657 12.06 35.5314 12.1015V15.4573C35.3539 15.404 35.1082 15.3567 34.7945 15.3152C34.4809 15.2738 34.1938 15.2531 33.9334 15.2531C33.3771 15.2531 32.8799 15.3744 32.4419 15.6171C32.0099 15.8538 31.6666 16.1853 31.4121 16.6114C31.1635 17.0375 31.0392 17.5288 31.0392 18.0851V25.8H27.2573Z" fill="#1D2327"/>
<path d="M40.0596 26.0574C39.1896 26.0574 38.4143 25.9065 37.7336 25.6046C37.053 25.2969 36.5144 24.8441 36.1179 24.2463C35.7272 23.6426 35.5319 22.891 35.5319 21.9914C35.5319 21.2338 35.671 20.5975 35.9492 20.0826C36.2274 19.5677 36.6061 19.1534 37.0855 18.8397C37.5649 18.5261 38.1095 18.2893 38.7191 18.1295C39.3346 17.9697 39.9797 17.8573 40.6544 17.7921C41.4475 17.7093 42.0867 17.6323 42.5721 17.5613C43.0574 17.4844 43.4095 17.3719 43.6285 17.224C43.8475 17.076 43.957 16.857 43.957 16.567V16.5137C43.957 15.9515 43.7794 15.5165 43.4243 15.2087C43.0751 14.9009 42.578 14.747 41.9328 14.747C41.2522 14.747 40.7107 14.898 40.3082 15.1998C39.9057 15.4957 39.6394 15.8686 39.5092 16.3184L36.0113 16.0343C36.1889 15.2057 36.5381 14.4896 37.0589 13.8859C37.5797 13.2763 38.2515 12.8087 39.0742 12.4832C39.9028 12.1518 40.8616 11.986 41.9506 11.986C42.7082 11.986 43.4332 12.0748 44.1257 12.2524C44.8241 12.4299 45.4426 12.7051 45.9811 13.078C46.5257 13.4509 46.9547 13.9303 47.2684 14.5162C47.5821 15.0962 47.739 15.7917 47.739 16.6025V25.8H44.1523V23.909H44.0458C43.8268 24.3351 43.5338 24.7109 43.1669 25.0365C42.7999 25.3561 42.359 25.6076 41.8441 25.7911C41.3292 25.9686 40.7343 26.0574 40.0596 26.0574ZM41.1427 23.4473C41.6991 23.4473 42.1903 23.3378 42.6164 23.1189C43.0426 22.8939 43.377 22.5921 43.6196 22.2133C43.8623 21.8345 43.9836 21.4054 43.9836 20.926V19.4789C43.8653 19.5559 43.7025 19.6269 43.4953 19.692C43.2941 19.7512 43.0663 19.8074 42.8118 19.8607C42.5573 19.908 42.3028 19.9524 42.0483 19.9939C41.7938 20.0294 41.5629 20.0619 41.3558 20.0915C40.9119 20.1566 40.5242 20.2602 40.1928 20.4022C39.8614 20.5443 39.6039 20.7366 39.4204 20.9793C39.2369 21.216 39.1452 21.512 39.1452 21.8671C39.1452 22.382 39.3316 22.7756 39.7045 23.0478C40.0833 23.3142 40.5627 23.4473 41.1427 23.4473Z" fill="#1D2327"/>
<path d="M57.0812 12.1636V15.0045H48.665V12.1636H57.0812ZM50.5915 25.8V11.1782C50.5915 10.1898 50.7838 9.37004 51.1685 8.71899C51.5592 8.06795 52.0918 7.57967 52.7665 7.25415C53.4413 6.92863 54.2077 6.76587 55.0659 6.76587C55.6459 6.76587 56.1756 6.81026 56.655 6.89904C57.1404 6.98782 57.5014 7.06772 57.7381 7.13874L57.0634 9.97965C56.9155 9.9323 56.732 9.88791 56.513 9.84648C56.2999 9.80505 56.0809 9.78434 55.856 9.78434C55.2997 9.78434 54.912 9.91454 54.693 10.175C54.4741 10.4295 54.3646 10.7875 54.3646 11.2492V25.8H50.5915Z" fill="#1D2327"/>
<path d="M65.7198 12.1636V15.0045H57.5078V12.1636H65.7198ZM59.3722 8.89655H63.1541V21.6096C63.1541 21.9588 63.2074 22.2311 63.3139 22.4264C63.4205 22.6158 63.5684 22.7489 63.7578 22.8259C63.9531 22.9028 64.178 22.9413 64.4325 22.9413C64.6101 22.9413 64.7877 22.9265 64.9652 22.8969C65.1428 22.8614 65.2789 22.8348 65.3736 22.817L65.9684 25.6313C65.779 25.6905 65.5127 25.7585 65.1694 25.8355C64.8261 25.9183 64.4089 25.9686 63.9176 25.9864C63.0062 26.0219 62.2072 25.9006 61.5206 25.6224C60.84 25.3442 60.3103 24.9122 59.9315 24.3262C59.5527 23.7403 59.3663 23.0005 59.3722 22.1068V8.89655Z" fill="#1D2327"/>
<path d="M73.2732 26.0663C71.8941 26.0663 70.7016 25.7733 69.6954 25.1874C68.6952 24.5955 67.9228 23.7729 67.3783 22.7194C66.8338 21.6599 66.5615 20.4318 66.5615 19.035C66.5615 17.6264 66.8338 16.3954 67.3783 15.3419C67.9228 14.2824 68.6952 13.4598 69.6954 12.8738C70.7016 12.282 71.8941 11.986 73.2732 11.986C74.6522 11.986 75.8418 12.282 76.8421 12.8738C77.8482 13.4598 78.6236 14.2824 79.1681 15.3419C79.7126 16.3954 79.9848 17.6264 79.9848 19.035C79.9848 20.4318 79.7126 21.6599 79.1681 22.7194C78.6236 23.7729 77.8482 24.5955 76.8421 25.1874C75.8418 25.7733 74.6522 26.0663 73.2732 26.0663ZM73.2909 23.1366C73.9183 23.1366 74.4421 22.9591 74.8623 22.6039C75.2825 22.2429 75.5992 21.7517 75.8122 21.1302C76.0312 20.5088 76.1407 19.8015 76.1407 19.0084C76.1407 18.2153 76.0312 17.5081 75.8122 16.8866C75.5992 16.2652 75.2825 15.7739 74.8623 15.4129C74.4421 15.0519 73.9183 14.8713 73.2909 14.8713C72.6576 14.8713 72.125 15.0519 71.6929 15.4129C71.2668 15.7739 70.9442 16.2652 70.7252 16.8866C70.5122 17.5081 70.4056 18.2153 70.4056 19.0084C70.4056 19.8015 70.5122 20.5088 70.7252 21.1302C70.9442 21.7517 71.2668 22.2429 71.6929 22.6039C72.125 22.9591 72.6576 23.1366 73.2909 23.1366Z" fill="#1D2327"/>
<path d="M84.7334 11.0617C84.7334 12.5872 83.4967 13.8238 81.9712 13.8238C80.4457 13.8238 79.209 12.5872 79.209 11.0617C79.209 9.53621 80.4457 8.29956 81.9712 8.29956C83.4967 8.29956 84.7334 9.53621 84.7334 11.0617Z" fill="#1D2327"/>
<path d="M109.217 13.897V11.9091H119.661V13.897H115.615V25H113.263V13.897H109.217Z" fill="#1D2327"/>
<path d="M123.527 19.2471V25H121.213V11.9091H123.475V16.8501H123.59C123.821 16.2961 124.176 15.8593 124.658 15.5397C125.144 15.2159 125.762 15.0539 126.512 15.0539C127.193 15.0539 127.788 15.1967 128.295 15.4822C128.802 15.7677 129.194 16.1853 129.471 16.7351C129.752 17.2848 129.893 17.9559 129.893 18.7485V25H127.579V19.1065C127.579 18.446 127.409 17.9325 127.068 17.566C126.731 17.1953 126.258 17.0099 125.649 17.0099C125.24 17.0099 124.873 17.0994 124.549 17.2784C124.23 17.4531 123.978 17.7066 123.795 18.039C123.616 18.3714 123.527 18.7741 123.527 19.2471Z" fill="#1D2327"/>
<path d="M136.238 25.1917C135.254 25.1917 134.404 24.9872 133.688 24.5781C132.976 24.1647 132.429 23.5809 132.045 22.8267C131.662 22.0681 131.47 21.1754 131.47 20.1484C131.47 19.1385 131.662 18.2521 132.045 17.4893C132.433 16.7223 132.974 16.1257 133.669 15.6995C134.363 15.2691 135.179 15.0539 136.117 15.0539C136.722 15.0539 137.293 15.152 137.83 15.348C138.371 15.5397 138.848 15.838 139.262 16.2429C139.679 16.6477 140.007 17.1633 140.246 17.7897C140.485 18.4119 140.604 19.1534 140.604 20.0142V20.7237H132.556V19.164H138.386C138.382 18.7208 138.286 18.3267 138.098 17.9815C137.911 17.6321 137.649 17.3572 137.312 17.1569C136.98 16.9566 136.592 16.8565 136.149 16.8565C135.676 16.8565 135.26 16.9716 134.902 17.2017C134.544 17.4275 134.265 17.7258 134.065 18.0966C133.869 18.463 133.769 18.8657 133.765 19.3047V20.6662C133.765 21.2372 133.869 21.7272 134.078 22.1363C134.287 22.5412 134.578 22.8522 134.953 23.0696C135.328 23.2826 135.767 23.3892 136.27 23.3892C136.607 23.3892 136.912 23.3423 137.184 23.2485C137.457 23.1505 137.694 23.0078 137.894 22.8203C138.094 22.6328 138.245 22.4005 138.348 22.1235L140.508 22.3664C140.372 22.9375 140.112 23.436 139.728 23.8622C139.349 24.2841 138.863 24.6122 138.271 24.8466C137.679 25.0767 137.001 25.1917 136.238 25.1917Z" fill="#1D2327"/>
<path d="M142.202 25V15.1818H144.413V16.8501H144.528C144.733 16.2876 145.072 15.8487 145.545 15.5333C146.018 15.2137 146.582 15.0539 147.239 15.0539C147.903 15.0539 148.464 15.2159 148.92 15.5397C149.38 15.8593 149.704 16.2961 149.891 16.8501H149.994C150.211 16.3047 150.577 15.87 151.093 15.5461C151.613 15.218 152.229 15.0539 152.94 15.0539C153.844 15.0539 154.581 15.3395 155.152 15.9105C155.723 16.4815 156.008 17.3146 156.008 18.4098V25H153.688V18.7677C153.688 18.1583 153.526 17.713 153.202 17.4318C152.878 17.1463 152.482 17.0035 152.013 17.0035C151.455 17.0035 151.018 17.1782 150.703 17.5277C150.392 17.8728 150.236 18.3224 150.236 18.8764V25H147.967V18.6718C147.967 18.1647 147.814 17.7599 147.507 17.4574C147.204 17.1548 146.808 17.0035 146.318 17.0035C145.986 17.0035 145.683 17.0887 145.41 17.2592C145.138 17.4254 144.92 17.6619 144.758 17.9687C144.596 18.2713 144.516 18.625 144.516 19.0298V25H142.202Z" fill="#1D2327"/>
<path d="M162.342 25.1917C161.358 25.1917 160.508 24.9872 159.792 24.5781C159.08 24.1647 158.533 23.5809 158.149 22.8267C157.766 22.0681 157.574 21.1754 157.574 20.1484C157.574 19.1385 157.766 18.2521 158.149 17.4893C158.537 16.7223 159.078 16.1257 159.773 15.6995C160.467 15.2691 161.284 15.0539 162.221 15.0539C162.826 15.0539 163.397 15.152 163.934 15.348C164.475 15.5397 164.953 15.838 165.366 16.2429C165.784 16.6477 166.112 17.1633 166.35 17.7897C166.589 18.4119 166.708 19.1534 166.708 20.0142V20.7237H158.661V19.164H164.49C164.486 18.7208 164.39 18.3267 164.203 17.9815C164.015 17.6321 163.753 17.3572 163.416 17.1569C163.084 16.9566 162.696 16.8565 162.253 16.8565C161.78 16.8565 161.365 16.9716 161.007 17.2017C160.649 17.4275 160.369 17.7258 160.169 18.0966C159.973 18.463 159.873 18.8657 159.869 19.3047V20.6662C159.869 21.2372 159.973 21.7272 160.182 22.1363C160.391 22.5412 160.683 22.8522 161.058 23.0696C161.433 23.2826 161.872 23.3892 162.374 23.3892C162.711 23.3892 163.016 23.3423 163.289 23.2485C163.561 23.1505 163.798 23.0078 163.998 22.8203C164.198 22.6328 164.35 22.4005 164.452 22.1235L166.612 22.3664C166.476 22.9375 166.216 23.436 165.833 23.8622C165.453 24.2841 164.967 24.6122 164.375 24.8466C163.783 25.0767 163.105 25.1917 162.342 25.1917Z" fill="#1D2327"/>
<path d="M172.513 25V11.9091H177.524C178.47 11.9091 179.257 12.0582 179.883 12.3565C180.514 12.6505 180.985 13.0532 181.296 13.5646C181.611 14.076 181.769 14.6555 181.769 15.3032C181.769 15.8359 181.666 16.2919 181.462 16.6711C181.257 17.0461 180.982 17.3508 180.637 17.5852C180.292 17.8196 179.906 17.9879 179.48 18.0902V18.218C179.945 18.2436 180.39 18.3863 180.816 18.6463C181.247 18.902 181.598 19.2642 181.871 19.7329C182.144 20.2017 182.28 20.7684 182.28 21.4332C182.28 22.1108 182.116 22.7201 181.788 23.2613C181.46 23.7983 180.965 24.2223 180.305 24.5333C179.644 24.8444 178.813 25 177.812 25H172.513ZM174.884 23.0184H177.435C178.296 23.0184 178.916 22.8544 179.295 22.5262C179.678 22.1939 179.87 21.7677 179.87 21.2478C179.87 20.8601 179.774 20.5106 179.583 20.1995C179.391 19.8842 179.118 19.637 178.764 19.4581C178.411 19.2748 177.989 19.1832 177.499 19.1832H174.884V23.0184ZM174.884 17.4765H177.23C177.639 17.4765 178.008 17.402 178.336 17.2528C178.664 17.0994 178.922 16.8842 179.11 16.6072C179.301 16.326 179.397 15.9936 179.397 15.6101C179.397 15.1029 179.218 14.6853 178.86 14.3572C178.507 14.0291 177.98 13.865 177.281 13.865H174.884V17.4765Z" fill="#1D2327"/>
<path d="M190.139 20.8707V15.1818H192.452V25H190.209V23.2549H190.107C189.885 23.8047 189.521 24.2542 189.014 24.6037C188.511 24.9531 187.891 25.1278 187.153 25.1278C186.51 25.1278 185.941 24.9851 185.447 24.6995C184.957 24.4098 184.573 23.99 184.296 23.4403C184.019 22.8863 183.881 22.2173 183.881 21.4332V15.1818H186.195V21.0753C186.195 21.6974 186.365 22.1917 186.706 22.5582C187.047 22.9247 187.494 23.1079 188.048 23.1079C188.389 23.1079 188.72 23.0248 189.039 22.8586C189.359 22.6924 189.621 22.4453 189.825 22.1172C190.034 21.7848 190.139 21.3693 190.139 20.8707Z" fill="#1D2327"/>
<path d="M194.472 25V15.1818H196.786V25H194.472ZM195.635 13.7883C195.269 13.7883 194.953 13.6669 194.689 13.424C194.425 13.1768 194.293 12.8806 194.293 12.5355C194.293 12.186 194.425 11.8899 194.689 11.647C194.953 11.3998 195.269 11.2762 195.635 11.2762C196.006 11.2762 196.321 11.3998 196.581 11.647C196.846 11.8899 196.978 12.186 196.978 12.5355C196.978 12.8806 196.846 13.1768 196.581 13.424C196.321 13.6669 196.006 13.7883 195.635 13.7883Z" fill="#1D2327"/>
<path d="M201.119 11.9091V25H198.805V11.9091H201.119Z" fill="#1D2327"/>
<path d="M206.782 25.1726C206.011 25.1726 205.32 24.9744 204.711 24.5781C204.102 24.1818 203.62 23.6065 203.266 22.8522C202.913 22.098 202.736 21.1818 202.736 20.1037C202.736 19.0128 202.915 18.0923 203.273 17.3423C203.635 16.588 204.123 16.0191 204.737 15.6356C205.35 15.2478 206.034 15.0539 206.788 15.0539C207.364 15.0539 207.837 15.152 208.208 15.348C208.578 15.5397 208.872 15.772 209.09 16.0447C209.307 16.3132 209.475 16.5667 209.595 16.8054H209.69V11.9091H212.011V25H209.735V23.4531H209.595C209.475 23.6917 209.303 23.9453 209.077 24.2137C208.851 24.4779 208.553 24.7038 208.182 24.8913C207.811 25.0788 207.345 25.1726 206.782 25.1726ZM207.428 23.2741C207.918 23.2741 208.335 23.142 208.681 22.8778C209.026 22.6093 209.288 22.2365 209.467 21.7592C209.646 21.2819 209.735 20.7258 209.735 20.0909C209.735 19.4559 209.646 18.9041 209.467 18.4353C209.292 17.9666 209.032 17.6022 208.687 17.3423C208.346 17.0824 207.926 16.9524 207.428 16.9524C206.912 16.9524 206.482 17.0866 206.137 17.3551C205.791 17.6235 205.531 17.9943 205.357 18.4673C205.182 18.9403 205.095 19.4815 205.095 20.0909C205.095 20.7045 205.182 21.2521 205.357 21.7336C205.536 22.2109 205.798 22.588 206.143 22.865C206.492 23.1378 206.921 23.2741 207.428 23.2741Z" fill="#1D2327"/>
<path d="M218.463 25.1917C217.479 25.1917 216.629 24.9872 215.913 24.5781C215.201 24.1647 214.653 23.5809 214.27 22.8267C213.886 22.0681 213.695 21.1754 213.695 20.1484C213.695 19.1385 213.886 18.2521 214.27 17.4893C214.658 16.7223 215.199 16.1257 215.894 15.6995C216.588 15.2691 217.404 15.0539 218.342 15.0539C218.947 15.0539 219.518 15.152 220.055 15.348C220.596 15.5397 221.073 15.838 221.487 16.2429C221.904 16.6477 222.232 17.1633 222.471 17.7897C222.71 18.4119 222.829 19.1534 222.829 20.0142V20.7237H214.781V19.164H220.611C220.607 18.7208 220.511 18.3267 220.323 17.9815C220.136 17.6321 219.874 17.3572 219.537 17.1569C219.205 16.9566 218.817 16.8565 218.374 16.8565C217.901 16.8565 217.485 16.9716 217.127 17.2017C216.769 17.4275 216.49 17.7258 216.29 18.0966C216.094 18.463 215.994 18.8657 215.989 19.3047V20.6662C215.989 21.2372 216.094 21.7272 216.303 22.1363C216.511 22.5412 216.803 22.8522 217.178 23.0696C217.553 23.2826 217.992 23.3892 218.495 23.3892C218.832 23.3892 219.136 23.3423 219.409 23.2485C219.682 23.1505 219.918 23.0078 220.119 22.8203C220.319 22.6328 220.47 22.4005 220.572 22.1235L222.733 22.3664C222.597 22.9375 222.337 23.436 221.953 23.8622C221.574 24.2841 221.088 24.6122 220.496 24.8466C219.903 25.0767 219.226 25.1917 218.463 25.1917Z" fill="#1D2327"/>
<path d="M224.426 25V15.1818H226.67V16.8181H226.772C226.951 16.2514 227.258 15.8146 227.693 15.5078C228.132 15.1967 228.632 15.0412 229.195 15.0412C229.323 15.0412 229.466 15.0476 229.623 15.0603C229.785 15.0689 229.919 15.0838 230.026 15.1051V17.2336C229.928 17.1995 229.772 17.1697 229.559 17.1441C229.35 17.1143 229.148 17.0994 228.952 17.0994C228.53 17.0994 228.151 17.191 227.814 17.3743C227.482 17.5532 227.22 17.8025 227.028 18.1221C226.836 18.4417 226.74 18.8103 226.74 19.228V25H224.426Z" fill="#1D2327"/>
<path opacity="0.25" d="M96 11V26" stroke="#1D2327"/>
<defs>
<filter id="filter0_f_1105_767" x="-9.52393" y="-9.42847" width="56.7236" height="56.7234" filterUnits="userSpaceOnUse" color-interpolation-filters="sRGB">
<feFlood flood-opacity="0" result="BackgroundImageFix"/>
<feBlend mode="normal" in="SourceGraphic" in2="BackgroundImageFix" result="shape"/>
<feGaussianBlur stdDeviation="4.86646" result="effect1_foregroundBlur_1105_767"/>
</filter>
<linearGradient id="paint0_linear_1105_767" x1="34.4669" y1="8.87014" x2="7.059" y2="31.9956" gradientUnits="userSpaceOnUse">
<stop stop-color="#41D593"/>
<stop offset="1" stop-color="#8583FD"/>
</linearGradient>
<linearGradient id="paint1_linear_1105_767" x1="34.4689" y1="8.86941" x2="7.06096" y2="31.9948" gradientUnits="userSpaceOnUse">
<stop stop-color="#2FC77E"/>
<stop offset="1" stop-color="#7554EB"/>
</linearGradient>
<radialGradient id="paint2_radial_1105_767" cx="0" cy="0" r="1" gradientUnits="userSpaceOnUse" gradientTransform="translate(25.4756 14.8649) rotate(138.311) scale(18.3511)">
<stop offset="0.377972" stop-color="white"/>
<stop offset="1" stop-color="white" stop-opacity="0"/>
</radialGradient>
<linearGradient id="paint3_linear_1105_767" x1="26.0624" y1="0.364338" x2="18.7039" y2="29.0977" gradientUnits="userSpaceOnUse">
<stop stop-color="#33CBA3"/>
<stop offset="0.403356" stop-color="#33CBA3" stop-opacity="0.1"/>
<stop offset="1" stop-color="#33CBA3" stop-opacity="0"/>
</linearGradient>
<linearGradient id="paint4_linear_1105_767" x1="11.1701" y1="36.1059" x2="23.6096" y2="16.1327" gradientUnits="userSpaceOnUse">
<stop stop-color="#6162F2"/>
<stop offset="0.413685" stop-color="#6162F2" stop-opacity="0.1"/>
<stop offset="0.892811" stop-color="#6162F2" stop-opacity="0"/>
</linearGradient>
</defs>
</svg>
