<svg width="246" height="38" viewBox="0 0 246 38" fill="none" xmlns="http://www.w3.org/2000/svg">
<mask id="mask0_1226_626" style="mask-type:alpha" maskUnits="userSpaceOnUse" x="0" y="0" width="111" height="38">
<rect width="111" height="38" fill="#D9D9D9"/>
</mask>
<g mask="url(#mask0_1226_626)">
<circle cx="19.8358" cy="18.934" r="18.6288" fill="url(#paint0_linear_1226_626)"/>
<mask id="mask1_1226_626" style="mask-type:alpha" maskUnits="userSpaceOnUse" x="1" y="0" width="38" height="38">
<circle cx="19.8378" cy="18.9332" r="18.6288" fill="url(#paint1_linear_1226_626)"/>
</mask>
<g mask="url(#mask1_1226_626)">
<g filter="url(#filter0_f_1226_626)">
<circle cx="19.8378" cy="18.9332" r="18.6288" fill="url(#paint2_radial_1226_626)"/>
</g>
<ellipse cx="19.8389" cy="18.9359" rx="18.63" ry="18.63" fill="url(#paint3_linear_1226_626)"/>
<ellipse cx="19.8389" cy="18.9359" rx="18.63" ry="18.63" fill="url(#paint4_linear_1226_626)"/>
</g>
<path d="M20.6706 26.0663C19.2739 26.0663 18.0724 25.7704 17.0662 25.1785C16.066 24.5807 15.2966 23.7521 14.758 22.6927C14.2253 21.6333 13.959 20.4141 13.959 19.035C13.959 17.6383 14.2283 16.4131 14.7669 15.3596C15.3114 14.3002 16.0837 13.4746 17.084 12.8827C18.0842 12.2849 19.2739 11.986 20.6529 11.986C21.8425 11.986 22.8842 12.2021 23.7779 12.6341C24.6716 13.0662 25.3788 13.6728 25.8997 14.4541C26.4205 15.2353 26.7076 16.1527 26.7608 17.2062H23.1919C23.0913 16.5256 22.825 15.9781 22.3929 15.5638C21.9668 15.1436 21.4075 14.9335 20.715 14.9335C20.1291 14.9335 19.6171 15.0933 19.1792 15.4129C18.7471 15.7266 18.4097 16.1853 18.1671 16.789C17.9244 17.3926 17.8031 18.1236 17.8031 18.9818C17.8031 19.8518 17.9215 20.5916 18.1582 21.2012C18.4009 21.8109 18.7412 22.2755 19.1792 22.5951C19.6171 22.9147 20.1291 23.0745 20.715 23.0745C21.1471 23.0745 21.5347 22.9857 21.878 22.8081C22.2272 22.6306 22.5143 22.3731 22.7392 22.0358C22.97 21.6925 23.1209 21.2811 23.1919 20.8017H26.7608C26.7016 21.8434 26.4176 22.7608 25.9086 23.5539C25.4055 24.341 24.71 24.9566 23.8223 25.4005C22.9345 25.8444 21.8839 26.0663 20.6706 26.0663Z" fill="#1D2327"/>
<path d="M28.2573 25.8V12.1636H31.9238V14.5429H32.0659C32.3144 13.6965 32.7317 13.0573 33.3176 12.6252C33.9036 12.1873 34.5783 11.9683 35.3418 11.9683C35.5312 11.9683 35.7354 11.9801 35.9543 12.0038C36.1733 12.0275 36.3657 12.06 36.5314 12.1015V15.4573C36.3539 15.404 36.1082 15.3567 35.7945 15.3152C35.4809 15.2738 35.1938 15.2531 34.9334 15.2531C34.3771 15.2531 33.8799 15.3744 33.4419 15.6171C33.0099 15.8538 32.6666 16.1853 32.4121 16.6114C32.1635 17.0375 32.0392 17.5288 32.0392 18.0851V25.8H28.2573Z" fill="#1D2327"/>
<path d="M41.0596 26.0574C40.1896 26.0574 39.4143 25.9065 38.7336 25.6046C38.053 25.2969 37.5144 24.8441 37.1179 24.2463C36.7272 23.6426 36.5319 22.891 36.5319 21.9914C36.5319 21.2338 36.671 20.5975 36.9492 20.0826C37.2274 19.5677 37.6061 19.1534 38.0855 18.8397C38.5649 18.5261 39.1095 18.2893 39.7191 18.1295C40.3346 17.9697 40.9797 17.8573 41.6544 17.7921C42.4475 17.7093 43.0867 17.6323 43.5721 17.5613C44.0574 17.4844 44.4095 17.3719 44.6285 17.224C44.8475 17.076 44.957 16.857 44.957 16.567V16.5137C44.957 15.9515 44.7794 15.5165 44.4243 15.2087C44.0751 14.9009 43.578 14.747 42.9328 14.747C42.2522 14.747 41.7107 14.898 41.3082 15.1998C40.9057 15.4957 40.6394 15.8686 40.5092 16.3184L37.0113 16.0343C37.1889 15.2057 37.5381 14.4896 38.0589 13.8859C38.5797 13.2763 39.2515 12.8087 40.0742 12.4832C40.9028 12.1518 41.8616 11.986 42.9506 11.986C43.7082 11.986 44.4332 12.0748 45.1257 12.2524C45.8241 12.4299 46.4426 12.7051 46.9811 13.078C47.5257 13.4509 47.9547 13.9303 48.2684 14.5162C48.5821 15.0962 48.739 15.7917 48.739 16.6025V25.8H45.1523V23.909H45.0458C44.8268 24.3351 44.5338 24.7109 44.1669 25.0365C43.7999 25.3561 43.359 25.6076 42.8441 25.7911C42.3292 25.9686 41.7343 26.0574 41.0596 26.0574ZM42.1427 23.4473C42.6991 23.4473 43.1903 23.3378 43.6164 23.1189C44.0426 22.8939 44.377 22.5921 44.6196 22.2133C44.8623 21.8345 44.9836 21.4054 44.9836 20.926V19.4789C44.8653 19.5559 44.7025 19.6269 44.4953 19.692C44.2941 19.7512 44.0663 19.8074 43.8118 19.8607C43.5573 19.908 43.3028 19.9524 43.0483 19.9939C42.7938 20.0294 42.5629 20.0619 42.3558 20.0915C41.9119 20.1566 41.5242 20.2602 41.1928 20.4022C40.8614 20.5443 40.6039 20.7366 40.4204 20.9793C40.2369 21.216 40.1452 21.512 40.1452 21.8671C40.1452 22.382 40.3316 22.7756 40.7045 23.0478C41.0833 23.3142 41.5627 23.4473 42.1427 23.4473Z" fill="#1D2327"/>
<path d="M58.0812 12.1636V15.0045H49.665V12.1636H58.0812ZM51.5915 25.8V11.1782C51.5915 10.1898 51.7838 9.37004 52.1685 8.71899C52.5592 8.06795 53.0918 7.57967 53.7665 7.25415C54.4413 6.92863 55.2077 6.76587 56.0659 6.76587C56.6459 6.76587 57.1756 6.81026 57.655 6.89904C58.1404 6.98782 58.5014 7.06772 58.7381 7.13874L58.0634 9.97965C57.9155 9.9323 57.732 9.88791 57.513 9.84648C57.2999 9.80505 57.0809 9.78434 56.856 9.78434C56.2997 9.78434 55.912 9.91454 55.693 10.175C55.4741 10.4295 55.3646 10.7875 55.3646 11.2492V25.8H51.5915Z" fill="#1D2327"/>
<path d="M66.7198 12.1636V15.0045H58.5078V12.1636H66.7198ZM60.3722 8.89655H64.1541V21.6096C64.1541 21.9588 64.2074 22.2311 64.3139 22.4264C64.4205 22.6158 64.5684 22.7489 64.7578 22.8259C64.9531 22.9028 65.178 22.9413 65.4325 22.9413C65.6101 22.9413 65.7877 22.9265 65.9652 22.8969C66.1428 22.8614 66.2789 22.8348 66.3736 22.817L66.9684 25.6313C66.779 25.6905 66.5127 25.7585 66.1694 25.8355C65.8261 25.9183 65.4089 25.9686 64.9176 25.9864C64.0062 26.0219 63.2072 25.9006 62.5206 25.6224C61.84 25.3442 61.3103 24.9122 60.9315 24.3262C60.5527 23.7403 60.3663 23.0005 60.3722 22.1068V8.89655Z" fill="#1D2327"/>
<path d="M74.2732 26.0663C72.8941 26.0663 71.7016 25.7733 70.6954 25.1874C69.6952 24.5955 68.9228 23.7729 68.3783 22.7194C67.8338 21.6599 67.5615 20.4318 67.5615 19.035C67.5615 17.6264 67.8338 16.3954 68.3783 15.3419C68.9228 14.2824 69.6952 13.4598 70.6954 12.8738C71.7016 12.282 72.8941 11.986 74.2732 11.986C75.6522 11.986 76.8418 12.282 77.8421 12.8738C78.8482 13.4598 79.6236 14.2824 80.1681 15.3419C80.7126 16.3954 80.9848 17.6264 80.9848 19.035C80.9848 20.4318 80.7126 21.6599 80.1681 22.7194C79.6236 23.7729 78.8482 24.5955 77.8421 25.1874C76.8418 25.7733 75.6522 26.0663 74.2732 26.0663ZM74.2909 23.1366C74.9183 23.1366 75.4421 22.9591 75.8623 22.6039C76.2825 22.2429 76.5992 21.7517 76.8122 21.1302C77.0312 20.5088 77.1407 19.8015 77.1407 19.0084C77.1407 18.2153 77.0312 17.5081 76.8122 16.8866C76.5992 16.2652 76.2825 15.7739 75.8623 15.4129C75.4421 15.0519 74.9183 14.8713 74.2909 14.8713C73.6576 14.8713 73.125 15.0519 72.6929 15.4129C72.2668 15.7739 71.9442 16.2652 71.7252 16.8866C71.5122 17.5081 71.4056 18.2153 71.4056 19.0084C71.4056 19.8015 71.5122 20.5088 71.7252 21.1302C71.9442 21.7517 72.2668 22.2429 72.6929 22.6039C73.125 22.9591 73.6576 23.1366 74.2909 23.1366Z" fill="#1D2327"/>
<path d="M87.2363 25.5001H84.5645L89.4292 11.6819H92.5194L97.3908 25.5001H94.7189L91.0282 14.5157H90.9203L87.2363 25.5001ZM87.324 20.0821H94.611V22.0928H87.324V20.0821Z" fill="url(#paint5_linear_1226_626)"/>
<path d="M101.144 11.6819V25.5001H98.6408V11.6819H101.144Z" fill="url(#paint6_linear_1226_626)"/>
<path d="M104.905 3.13416C105.07 2.68868 105.7 2.68868 105.865 3.13416C105.865 3.13416 106.117 5.0327 106.883 5.88497C106.994 6.0092 107.061 6.07573 107.185 6.18728C108.037 6.95257 109.936 7.20517 109.936 7.20517C110.381 7.37001 110.381 8.00009 109.936 8.16493C109.936 8.16493 108.037 8.41753 107.185 9.18282C107.061 9.29437 106.994 9.3609 106.883 9.48513C106.117 10.3374 105.865 12.2359 105.865 12.2359C105.7 12.6814 105.07 12.6814 104.905 12.2359C104.905 12.2359 104.653 10.3374 103.887 9.48513C103.776 9.3609 103.709 9.29437 103.585 9.18282C102.733 8.41753 100.834 8.16493 100.834 8.16493C100.389 8.00009 100.389 7.37001 100.834 7.20517C100.834 7.20517 102.733 6.95257 103.585 6.18728C103.709 6.07573 103.776 6.0092 103.887 5.88497C104.653 5.03269 104.905 3.13416 104.905 3.13416Z" fill="url(#paint7_linear_1226_626)"/>
</g>
<path d="M136.973 25.0001H134.441L139.05 11.9092H141.978L146.593 25.0001H144.061L140.565 14.5938H140.463L136.973 25.0001ZM137.056 19.8673H143.959V21.7721H137.056V19.8673Z" fill="#1D2327"/>
<path d="M147.855 25.0001V15.1819H150.098V16.8183H150.201C150.38 16.2515 150.686 15.8147 151.121 15.5079C151.56 15.1968 152.061 15.0413 152.623 15.0413C152.751 15.0413 152.894 15.0477 153.051 15.0605C153.213 15.069 153.348 15.0839 153.454 15.1052V17.2338C153.356 17.1997 153.201 17.1698 152.987 17.1443C152.779 17.1144 152.576 17.0995 152.38 17.0995C151.958 17.0995 151.579 17.1911 151.242 17.3744C150.91 17.5534 150.648 17.8026 150.456 18.1222C150.264 18.4419 150.169 18.8105 150.169 19.2281V25.0001H147.855Z" fill="#1D2327"/>
<path d="M160.061 15.1819V16.9717H154.417V15.1819H160.061ZM155.811 12.8296H158.125V22.047C158.125 22.358 158.172 22.5967 158.265 22.7629C158.363 22.9248 158.491 23.0356 158.649 23.0953C158.806 23.1549 158.981 23.1847 159.173 23.1847C159.318 23.1847 159.45 23.1741 159.569 23.1528C159.693 23.1315 159.787 23.1123 159.85 23.0953L160.24 24.9042C160.117 24.9468 159.94 24.9937 159.71 25.0448C159.484 25.096 159.207 25.1258 158.879 25.1343C158.299 25.1514 157.777 25.064 157.313 24.8722C156.848 24.6762 156.48 24.3737 156.207 23.9646C155.939 23.5555 155.806 23.0441 155.811 22.4305V12.8296Z" fill="#1D2327"/>
<path d="M161.637 25.0001V15.1819H163.951V25.0001H161.637ZM162.8 13.7884C162.433 13.7884 162.118 13.667 161.854 13.4241C161.59 13.1769 161.458 12.8808 161.458 12.5356C161.458 12.1862 161.59 11.89 161.854 11.6471C162.118 11.3999 162.433 11.2764 162.8 11.2764C163.171 11.2764 163.486 11.3999 163.746 11.6471C164.01 11.89 164.142 12.1862 164.142 12.5356C164.142 12.8808 164.01 13.1769 163.746 13.4241C163.486 13.667 163.171 13.7884 162.8 13.7884Z" fill="#1D2327"/>
<path d="M170.253 25.1919C169.273 25.1919 168.431 24.9767 167.728 24.5463C167.029 24.1159 166.49 23.5214 166.111 22.7629C165.736 22.0001 165.548 21.1222 165.548 20.1294C165.548 19.1322 165.74 18.2522 166.123 17.4894C166.507 16.7224 167.048 16.1258 167.747 15.6997C168.45 15.2693 169.281 15.0541 170.24 15.0541C171.037 15.0541 171.742 15.2011 172.356 15.4951C172.974 15.7849 173.466 16.1961 173.832 16.7288C174.199 17.2572 174.407 17.8751 174.459 18.5825H172.247C172.157 18.1095 171.944 17.7153 171.608 17.3999C171.275 17.0803 170.83 16.9205 170.272 16.9205C169.799 16.9205 169.383 17.0484 169.025 17.3041C168.667 17.5555 168.388 17.9177 168.188 18.3907C167.992 18.8637 167.894 19.4305 167.894 20.091C167.894 20.76 167.992 21.3353 168.188 21.8169C168.384 22.2941 168.659 22.6627 169.013 22.9227C169.371 23.1784 169.79 23.3062 170.272 23.3062C170.613 23.3062 170.917 23.2423 171.186 23.1144C171.459 22.9823 171.687 22.7927 171.87 22.5455C172.053 22.2984 172.179 21.998 172.247 21.6443H174.459C174.403 22.3389 174.199 22.9546 173.845 23.4916C173.491 24.0242 173.01 24.4419 172.4 24.7444C171.791 25.0427 171.075 25.1919 170.253 25.1919Z" fill="#1D2327"/>
<path d="M178.313 11.9092V25.0001H175.999V11.9092H178.313Z" fill="#1D2327"/>
<path d="M184.679 25.1919C183.694 25.1919 182.844 24.9873 182.128 24.5782C181.417 24.1649 180.869 23.5811 180.485 22.8268C180.102 22.0683 179.91 21.1755 179.91 20.1485C179.91 19.1386 180.102 18.2522 180.485 17.4894C180.873 16.7224 181.414 16.1258 182.109 15.6997C182.804 15.2693 183.62 15.0541 184.557 15.0541C185.162 15.0541 185.733 15.1521 186.27 15.3481C186.811 15.5399 187.289 15.8382 187.702 16.243C188.12 16.6478 188.448 17.1634 188.686 17.7899C188.925 18.412 189.044 19.1535 189.044 20.0143V20.7238H180.997V19.1642H186.826C186.822 18.721 186.726 18.3268 186.539 17.9816C186.351 17.6322 186.089 17.3573 185.752 17.157C185.42 16.9568 185.032 16.8566 184.589 16.8566C184.116 16.8566 183.701 16.9717 183.343 17.2018C182.985 17.4276 182.706 17.7259 182.505 18.0967C182.309 18.4632 182.209 18.8659 182.205 19.3048V20.6663C182.205 21.2373 182.309 21.7274 182.518 22.1365C182.727 22.5413 183.019 22.8524 183.394 23.0697C183.769 23.2828 184.208 23.3893 184.711 23.3893C185.047 23.3893 185.352 23.3424 185.625 23.2487C185.897 23.1507 186.134 23.0079 186.334 22.8204C186.534 22.6329 186.686 22.4007 186.788 22.1237L188.948 22.3666C188.812 22.9376 188.552 23.4362 188.169 23.8623C187.789 24.2842 187.304 24.6123 186.711 24.8467C186.119 25.0768 185.441 25.1919 184.679 25.1919Z" fill="#1D2327"/>
<path d="M197.604 25.0001L193.909 11.9092H196.46L198.819 21.5292H198.94L201.458 11.9092H203.779L206.304 21.5356H206.419L208.777 11.9092H211.328L207.633 25.0001H205.294L202.673 15.8147H202.571L199.944 25.0001H197.604Z" fill="#1D2327"/>
<path d="M211.895 25.0001V15.1819H214.138V16.8183H214.24C214.419 16.2515 214.726 15.8147 215.161 15.5079C215.6 15.1968 216.101 15.0413 216.663 15.0413C216.791 15.0413 216.934 15.0477 217.091 15.0605C217.253 15.069 217.387 15.0839 217.494 15.1052V17.2338C217.396 17.1997 217.24 17.1698 217.027 17.1443C216.819 17.1144 216.616 17.0995 216.42 17.0995C215.998 17.0995 215.619 17.1911 215.282 17.3744C214.95 17.5534 214.688 17.8026 214.496 18.1222C214.304 18.4419 214.209 18.8105 214.209 19.2281V25.0001H211.895Z" fill="#1D2327"/>
<path d="M218.671 25.0001V15.1819H220.985V25.0001H218.671ZM219.835 13.7884C219.468 13.7884 219.153 13.667 218.889 13.4241C218.624 13.1769 218.492 12.8808 218.492 12.5356C218.492 12.1862 218.624 11.89 218.889 11.6471C219.153 11.3999 219.468 11.2764 219.835 11.2764C220.205 11.2764 220.521 11.3999 220.781 11.6471C221.045 11.89 221.177 12.1862 221.177 12.5356C221.177 12.8808 221.045 13.1769 220.781 13.4241C220.521 13.667 220.205 13.7884 219.835 13.7884Z" fill="#1D2327"/>
<path d="M227.907 15.1819V16.9717H222.263V15.1819H227.907ZM223.657 12.8296H225.971V22.047C225.971 22.358 226.017 22.5967 226.111 22.7629C226.209 22.9248 226.337 23.0356 226.495 23.0953C226.652 23.1549 226.827 23.1847 227.019 23.1847C227.164 23.1847 227.296 23.1741 227.415 23.1528C227.539 23.1315 227.633 23.1123 227.696 23.0953L228.086 24.9042C227.963 24.9468 227.786 24.9937 227.556 25.0448C227.33 25.096 227.053 25.1258 226.725 25.1343C226.145 25.1514 225.623 25.064 225.159 24.8722C224.694 24.6762 224.326 24.3737 224.053 23.9646C223.784 23.5555 223.652 23.0441 223.657 22.4305V12.8296Z" fill="#1D2327"/>
<path d="M233.724 25.1919C232.739 25.1919 231.889 24.9873 231.173 24.5782C230.462 24.1649 229.914 23.5811 229.53 22.8268C229.147 22.0683 228.955 21.1755 228.955 20.1485C228.955 19.1386 229.147 18.2522 229.53 17.4894C229.918 16.7224 230.459 16.1258 231.154 15.6997C231.849 15.2693 232.665 15.0541 233.602 15.0541C234.207 15.0541 234.778 15.1521 235.315 15.3481C235.856 15.5399 236.334 15.8382 236.747 16.243C237.165 16.6478 237.493 17.1634 237.731 17.7899C237.97 18.412 238.089 19.1535 238.089 20.0143V20.7238H230.042V19.1642H235.871C235.867 18.721 235.771 18.3268 235.584 17.9816C235.396 17.6322 235.134 17.3573 234.798 17.157C234.465 16.9568 234.077 16.8566 233.634 16.8566C233.161 16.8566 232.746 16.9717 232.388 17.2018C232.03 17.4276 231.751 17.7259 231.55 18.0967C231.354 18.4632 231.254 18.8659 231.25 19.3048V20.6663C231.25 21.2373 231.354 21.7274 231.563 22.1365C231.772 22.5413 232.064 22.8524 232.439 23.0697C232.814 23.2828 233.253 23.3893 233.756 23.3893C234.092 23.3893 234.397 23.3424 234.67 23.2487C234.942 23.1507 235.179 23.0079 235.379 22.8204C235.58 22.6329 235.731 22.4007 235.833 22.1237L237.994 22.3666C237.857 22.9376 237.597 23.4362 237.214 23.8623C236.834 24.2842 236.349 24.6123 235.756 24.8467C235.164 25.0768 234.486 25.1919 233.724 25.1919Z" fill="#1D2327"/>
<path d="M239.687 25.0001V15.1819H241.931V16.8183H242.033C242.212 16.2515 242.519 15.8147 242.953 15.5079C243.392 15.1968 243.893 15.0413 244.455 15.0413C244.583 15.0413 244.726 15.0477 244.884 15.0605C245.046 15.069 245.18 15.0839 245.286 15.1052V17.2338C245.188 17.1997 245.033 17.1698 244.82 17.1443C244.611 17.1144 244.409 17.0995 244.213 17.0995C243.791 17.0995 243.411 17.1911 243.075 17.3744C242.742 17.5534 242.48 17.8026 242.289 18.1222C242.097 18.4419 242.001 18.8105 242.001 19.2281V25.0001H239.687Z" fill="#1D2327"/>
<line opacity="0.25" x1="120" y1="11" x2="120" y2="26" stroke="#1D2327" stroke-width="2"/>
<defs>
<filter id="filter0_f_1226_626" x="-8.52393" y="-9.42847" width="56.7236" height="56.7234" filterUnits="userSpaceOnUse" color-interpolation-filters="sRGB">
<feFlood flood-opacity="0" result="BackgroundImageFix"/>
<feBlend mode="normal" in="SourceGraphic" in2="BackgroundImageFix" result="shape"/>
<feGaussianBlur stdDeviation="4.86646" result="effect1_foregroundBlur_1226_626"/>
</filter>
<linearGradient id="paint0_linear_1226_626" x1="35.4669" y1="8.87014" x2="8.059" y2="31.9956" gradientUnits="userSpaceOnUse">
<stop stop-color="#41D593"/>
<stop offset="1" stop-color="#8583FD"/>
</linearGradient>
<linearGradient id="paint1_linear_1226_626" x1="35.4689" y1="8.86941" x2="8.06096" y2="31.9948" gradientUnits="userSpaceOnUse">
<stop stop-color="#2FC77E"/>
<stop offset="1" stop-color="#7554EB"/>
</linearGradient>
<radialGradient id="paint2_radial_1226_626" cx="0" cy="0" r="1" gradientUnits="userSpaceOnUse" gradientTransform="translate(26.4756 14.8649) rotate(138.311) scale(18.3511)">
<stop offset="0.377972" stop-color="white"/>
<stop offset="1" stop-color="white" stop-opacity="0"/>
</radialGradient>
<linearGradient id="paint3_linear_1226_626" x1="27.0624" y1="0.364338" x2="19.7039" y2="29.0977" gradientUnits="userSpaceOnUse">
<stop stop-color="#33CBA3"/>
<stop offset="0.403356" stop-color="#33CBA3" stop-opacity="0.1"/>
<stop offset="1" stop-color="#33CBA3" stop-opacity="0"/>
</linearGradient>
<linearGradient id="paint4_linear_1226_626" x1="12.1701" y1="36.1059" x2="24.6096" y2="16.1327" gradientUnits="userSpaceOnUse">
<stop stop-color="#6162F2"/>
<stop offset="0.413685" stop-color="#6162F2" stop-opacity="0.1"/>
<stop offset="0.892811" stop-color="#6162F2" stop-opacity="0"/>
</linearGradient>
<linearGradient id="paint5_linear_1226_626" x1="104.794" y1="9.9721" x2="83.4269" y2="22.0115" gradientUnits="userSpaceOnUse">
<stop stop-color="#14DA7D"/>
<stop offset="0.444661" stop-color="#4093B9"/>
<stop offset="1" stop-color="#6E4AF8"/>
</linearGradient>
<linearGradient id="paint6_linear_1226_626" x1="104.794" y1="9.9721" x2="83.4269" y2="22.0115" gradientUnits="userSpaceOnUse">
<stop stop-color="#14DA7D"/>
<stop offset="0.444661" stop-color="#4093B9"/>
<stop offset="1" stop-color="#6E4AF8"/>
</linearGradient>
<linearGradient id="paint7_linear_1226_626" x1="107.721" y1="5.04121" x2="101.91" y2="11.2668" gradientUnits="userSpaceOnUse">
<stop stop-color="#14DA7D"/>
<stop offset="1" stop-color="#6E4AF8"/>
</linearGradient>
</defs>
</svg>
