<svg width="254" height="38" viewBox="0 0 254 38" fill="none" xmlns="http://www.w3.org/2000/svg">
<mask id="mask0_1262_634" style="mask-type:alpha" maskUnits="userSpaceOnUse" x="0" y="0" width="111" height="38">
<rect width="111" height="38" fill="#D9D9D9"/>
</mask>
<g mask="url(#mask0_1262_634)">
<circle cx="19.8358" cy="18.934" r="18.6288" fill="url(#paint0_linear_1262_634)"/>
<mask id="mask1_1262_634" style="mask-type:alpha" maskUnits="userSpaceOnUse" x="1" y="0" width="38" height="38">
<circle cx="19.8397" cy="18.9332" r="18.6288" fill="url(#paint1_linear_1262_634)"/>
</mask>
<g mask="url(#mask1_1262_634)">
<g filter="url(#filter0_f_1262_634)">
<circle cx="19.8397" cy="18.9332" r="18.6288" fill="url(#paint2_radial_1262_634)"/>
</g>
<ellipse cx="19.8409" cy="18.9359" rx="18.63" ry="18.63" fill="url(#paint3_linear_1262_634)"/>
<ellipse cx="19.8409" cy="18.9359" rx="18.63" ry="18.63" fill="url(#paint4_linear_1262_634)"/>
</g>
<path d="M20.6687 26.0663C19.2719 26.0663 18.0704 25.7704 17.0643 25.1785C16.064 24.5807 15.2946 23.7521 14.756 22.6927C14.2234 21.6333 13.957 20.4141 13.957 19.035C13.957 17.6383 14.2263 16.4131 14.7649 15.3596C15.3094 14.3002 16.0818 13.4746 17.082 12.8827C18.0823 12.2849 19.2719 11.986 20.6509 11.986C21.8406 11.986 22.8822 12.2021 23.7759 12.6341C24.6696 13.0662 25.3769 13.6728 25.8977 14.4541C26.4186 15.2353 26.7056 16.1527 26.7589 17.2062H23.19C23.0894 16.5256 22.823 15.9781 22.391 15.5638C21.9648 15.1436 21.4055 14.9335 20.7131 14.9335C20.1271 14.9335 19.6152 15.0933 19.1772 15.4129C18.7451 15.7266 18.4078 16.1853 18.1651 16.789C17.9225 17.3926 17.8011 18.1236 17.8011 18.9818C17.8011 19.8518 17.9195 20.5916 18.1562 21.2012C18.3989 21.8109 18.7392 22.2755 19.1772 22.5951C19.6152 22.9147 20.1271 23.0745 20.7131 23.0745C21.1451 23.0745 21.5328 22.9857 21.8761 22.8081C22.2253 22.6306 22.5123 22.3731 22.7372 22.0358C22.968 21.6925 23.119 21.2811 23.19 20.8017H26.7589C26.6997 21.8434 26.4156 22.7608 25.9066 23.5539C25.4035 24.341 24.7081 24.9566 23.8203 25.4005C22.9325 25.8444 21.882 26.0663 20.6687 26.0663Z" fill="#1D2327"/>
<path d="M28.2553 25.8V12.1636H31.9219V14.5429H32.0639C32.3125 13.6965 32.7297 13.0573 33.3157 12.6252C33.9016 12.1873 34.5763 11.9683 35.3398 11.9683C35.5292 11.9683 35.7334 11.9801 35.9524 12.0038C36.1714 12.0275 36.3637 12.06 36.5295 12.1015V15.4573C36.3519 15.404 36.1063 15.3567 35.7926 15.3152C35.4789 15.2738 35.1919 15.2531 34.9314 15.2531C34.3751 15.2531 33.8779 15.3744 33.44 15.6171C33.0079 15.8538 32.6646 16.1853 32.4101 16.6114C32.1616 17.0375 32.0373 17.5288 32.0373 18.0851V25.8H28.2553Z" fill="#1D2327"/>
<path d="M41.0577 26.0574C40.1876 26.0574 39.4123 25.9065 38.7317 25.6046C38.051 25.2969 37.5125 24.8441 37.1159 24.2463C36.7253 23.6426 36.53 22.891 36.53 21.9914C36.53 21.2338 36.6691 20.5975 36.9472 20.0826C37.2254 19.5677 37.6042 19.1534 38.0836 18.8397C38.563 18.5261 39.1075 18.2893 39.7171 18.1295C40.3326 17.9697 40.9778 17.8573 41.6525 17.7921C42.4456 17.7093 43.0848 17.6323 43.5701 17.5613C44.0554 17.4844 44.4076 17.3719 44.6266 17.224C44.8455 17.076 44.955 16.857 44.955 16.567V16.5137C44.955 15.9515 44.7775 15.5165 44.4224 15.2087C44.0732 14.9009 43.576 14.747 42.9309 14.747C42.2503 14.747 41.7087 14.898 41.3062 15.1998C40.9038 15.4957 40.6375 15.8686 40.5072 16.3184L37.0094 16.0343C37.1869 15.2057 37.5361 14.4896 38.057 13.8859C38.5778 13.2763 39.2495 12.8087 40.0722 12.4832C40.9008 12.1518 41.8596 11.986 42.9487 11.986C43.7062 11.986 44.4313 12.0748 45.1237 12.2524C45.8221 12.4299 46.4406 12.7051 46.9792 13.078C47.5237 13.4509 47.9528 13.9303 48.2665 14.5162C48.5802 15.0962 48.737 15.7917 48.737 16.6025V25.8H45.1504V23.909H45.0438C44.8248 24.3351 44.5319 24.7109 44.1649 25.0365C43.798 25.3561 43.357 25.6076 42.8421 25.7911C42.3272 25.9686 41.7324 26.0574 41.0577 26.0574ZM42.1408 23.4473C42.6971 23.4473 43.1884 23.3378 43.6145 23.1189C44.0406 22.8939 44.375 22.5921 44.6177 22.2133C44.8603 21.8345 44.9817 21.4054 44.9817 20.926V19.4789C44.8633 19.5559 44.7005 19.6269 44.4934 19.692C44.2922 19.7512 44.0643 19.8074 43.8098 19.8607C43.5553 19.908 43.3008 19.9524 43.0463 19.9939C42.7918 20.0294 42.561 20.0619 42.3538 20.0915C41.9099 20.1566 41.5223 20.2602 41.1908 20.4022C40.8594 20.5443 40.6019 20.7366 40.4185 20.9793C40.235 21.216 40.1433 21.512 40.1433 21.8671C40.1433 22.382 40.3297 22.7756 40.7026 23.0478C41.0813 23.3142 41.5607 23.4473 42.1408 23.4473Z" fill="#1D2327"/>
<path d="M58.0792 12.1636V15.0045H49.663V12.1636H58.0792ZM51.5895 25.8V11.1782C51.5895 10.1898 51.7819 9.37004 52.1666 8.71899C52.5572 8.06795 53.0899 7.57967 53.7646 7.25415C54.4393 6.92863 55.2058 6.76587 56.064 6.76587C56.644 6.76587 57.1737 6.81026 57.6531 6.89904C58.1384 6.98782 58.4994 7.06772 58.7362 7.13874L58.0615 9.97965C57.9135 9.9323 57.73 9.88791 57.511 9.84648C57.298 9.80505 57.079 9.78434 56.8541 9.78434C56.2977 9.78434 55.9101 9.91454 55.6911 10.175C55.4721 10.4295 55.3626 10.7875 55.3626 11.2492V25.8H51.5895Z" fill="#1D2327"/>
<path d="M66.7179 12.1636V15.0045H58.5059V12.1636H66.7179ZM60.3702 8.89655H64.1522V21.6096C64.1522 21.9588 64.2055 22.2311 64.312 22.4264C64.4185 22.6158 64.5665 22.7489 64.7559 22.8259C64.9512 22.9028 65.1761 22.9413 65.4306 22.9413C65.6081 22.9413 65.7857 22.9265 65.9633 22.8969C66.1408 22.8614 66.2769 22.8348 66.3716 22.817L66.9665 25.6313C66.7771 25.6905 66.5107 25.7585 66.1675 25.8355C65.8242 25.9183 65.4069 25.9686 64.9157 25.9864C64.0042 26.0219 63.2052 25.9006 62.5187 25.6224C61.838 25.3442 61.3083 24.9122 60.9295 24.3262C60.5507 23.7403 60.3643 23.0005 60.3702 22.1068V8.89655Z" fill="#1D2327"/>
<path d="M74.2712 26.0663C72.8922 26.0663 71.6996 25.7733 70.6934 25.1874C69.6932 24.5955 68.9208 23.7729 68.3763 22.7194C67.8318 21.6599 67.5596 20.4318 67.5596 19.035C67.5596 17.6264 67.8318 16.3954 68.3763 15.3419C68.9208 14.2824 69.6932 13.4598 70.6934 12.8738C71.6996 12.282 72.8922 11.986 74.2712 11.986C75.6502 11.986 76.8399 12.282 77.8401 12.8738C78.8463 13.4598 79.6216 14.2824 80.1661 15.3419C80.7106 16.3954 80.9829 17.6264 80.9829 19.035C80.9829 20.4318 80.7106 21.6599 80.1661 22.7194C79.6216 23.7729 78.8463 24.5955 77.8401 25.1874C76.8399 25.7733 75.6502 26.0663 74.2712 26.0663ZM74.289 23.1366C74.9163 23.1366 75.4401 22.9591 75.8604 22.6039C76.2806 22.2429 76.5972 21.7517 76.8103 21.1302C77.0293 20.5088 77.1388 19.8015 77.1388 19.0084C77.1388 18.2153 77.0293 17.5081 76.8103 16.8866C76.5972 16.2652 76.2806 15.7739 75.8604 15.4129C75.4401 15.0519 74.9163 14.8713 74.289 14.8713C73.6557 14.8713 73.123 15.0519 72.691 15.4129C72.2648 15.7739 71.9423 16.2652 71.7233 16.8866C71.5102 17.5081 71.4037 18.2153 71.4037 19.0084C71.4037 19.8015 71.5102 20.5088 71.7233 21.1302C71.9423 21.7517 72.2648 22.2429 72.691 22.6039C73.123 22.9591 73.6557 23.1366 74.289 23.1366Z" fill="#1D2327"/>
<path d="M87.2344 25.5001H84.5625L89.4272 11.6819H92.5174L97.3888 25.5001H94.717L91.0263 14.5157H90.9183L87.2344 25.5001ZM87.3221 20.0821H94.609V22.0928H87.3221V20.0821Z" fill="url(#paint5_linear_1262_634)"/>
<path d="M101.142 11.6819V25.5001H98.6389V11.6819H101.142Z" fill="url(#paint6_linear_1262_634)"/>
<path d="M104.905 3.13416C105.07 2.68868 105.7 2.68868 105.865 3.13416C105.865 3.13416 106.117 5.0327 106.883 5.88497C106.994 6.0092 107.061 6.07573 107.185 6.18728C108.037 6.95257 109.936 7.20517 109.936 7.20517C110.381 7.37001 110.381 8.00009 109.936 8.16493C109.936 8.16493 108.037 8.41753 107.185 9.18282C107.061 9.29437 106.994 9.3609 106.883 9.48513C106.117 10.3374 105.865 12.2359 105.865 12.2359C105.7 12.6814 105.07 12.6814 104.905 12.2359C104.905 12.2359 104.653 10.3374 103.887 9.48513C103.776 9.3609 103.709 9.29437 103.585 9.18282C102.733 8.41753 100.834 8.16493 100.834 8.16493C100.389 8.00009 100.389 7.37001 100.834 7.20517C100.834 7.20517 102.733 6.95257 103.585 6.18728C103.709 6.07573 103.776 6.0092 103.887 5.88497C104.653 5.03269 104.905 3.13416 104.905 3.13416Z" fill="url(#paint7_linear_1262_634)"/>
</g>
<path d="M137.664 11.9092V25.0001H135.293V11.9092H137.664Z" fill="#1D2327"/>
<path d="M139.77 25.0001V15.1819H141.982V16.8503H142.097C142.301 16.2878 142.64 15.8488 143.113 15.5335C143.586 15.2139 144.151 15.0541 144.807 15.0541C145.472 15.0541 146.032 15.216 146.488 15.5399C146.948 15.8595 147.272 16.2963 147.46 16.8503H147.562C147.779 16.3048 148.146 15.8701 148.661 15.5463C149.181 15.2182 149.797 15.0541 150.509 15.0541C151.412 15.0541 152.149 15.3396 152.72 15.9106C153.291 16.4816 153.577 17.3147 153.577 18.4099V25.0001H151.257V18.7679C151.257 18.1585 151.095 17.7132 150.771 17.4319C150.447 17.1464 150.051 17.0037 149.582 17.0037C149.024 17.0037 148.587 17.1784 148.272 17.5278C147.96 17.873 147.805 18.3226 147.805 18.8765V25.0001H145.536V18.672C145.536 18.1649 145.382 17.7601 145.076 17.4575C144.773 17.1549 144.377 17.0037 143.887 17.0037C143.554 17.0037 143.252 17.0889 142.979 17.2593C142.706 17.4255 142.489 17.662 142.327 17.9689C142.165 18.2714 142.084 18.6251 142.084 19.0299V25.0001H139.77Z" fill="#1D2327"/>
<path d="M158.39 25.1983C157.768 25.1983 157.207 25.0875 156.709 24.8659C156.214 24.64 155.822 24.3076 155.532 23.8687C155.247 23.4298 155.104 22.8886 155.104 22.2451C155.104 21.6912 155.206 21.2331 155.411 20.8708C155.616 20.5086 155.895 20.2189 156.248 20.0015C156.602 19.7842 157.001 19.6201 157.444 19.5093C157.891 19.3943 158.354 19.3112 158.831 19.2601C159.406 19.2004 159.873 19.1471 160.231 19.1003C160.589 19.0491 160.849 18.9724 161.01 18.8701C161.177 18.7636 161.26 18.5995 161.26 18.378V18.3396C161.26 17.8581 161.117 17.4852 160.831 17.221C160.546 16.9568 160.135 16.8247 159.598 16.8247C159.031 16.8247 158.581 16.9483 158.249 17.1954C157.921 17.4426 157.699 17.7345 157.584 18.0711L155.424 17.7643C155.594 17.1677 155.876 16.6691 156.268 16.2686C156.66 15.8637 157.139 15.5612 157.706 15.3609C158.273 15.1564 158.899 15.0541 159.585 15.0541C160.058 15.0541 160.529 15.1095 160.998 15.2203C161.466 15.3311 161.895 15.5143 162.282 15.77C162.67 16.0214 162.981 16.3645 163.216 16.7991C163.454 17.2338 163.574 17.7771 163.574 18.4291V25.0001H161.349V23.6514H161.273C161.132 23.9241 160.934 24.1798 160.678 24.4184C160.427 24.6528 160.109 24.8424 159.726 24.9873C159.346 25.128 158.901 25.1983 158.39 25.1983ZM158.991 23.498C159.455 23.498 159.858 23.4064 160.199 23.2231C160.54 23.0356 160.802 22.7885 160.985 22.4816C161.172 22.1748 161.266 21.8403 161.266 21.4781V20.3211C161.194 20.3808 161.07 20.4362 160.895 20.4873C160.725 20.5385 160.533 20.5832 160.32 20.6216C160.107 20.6599 159.896 20.694 159.687 20.7238C159.479 20.7537 159.297 20.7792 159.144 20.8005C158.799 20.8474 158.49 20.9241 158.217 21.0307C157.944 21.1372 157.729 21.2863 157.572 21.4781C157.414 21.6656 157.335 21.9085 157.335 22.2068C157.335 22.6329 157.491 22.9547 157.802 23.172C158.113 23.3893 158.509 23.498 158.991 23.498Z" fill="#1D2327"/>
<path d="M169.81 28.8865C168.979 28.8865 168.266 28.7735 167.669 28.5477C167.072 28.3261 166.593 28.0278 166.231 27.6528C165.869 27.2778 165.617 26.8623 165.476 26.4064L167.56 25.9014C167.654 26.0932 167.79 26.2828 167.969 26.4703C168.148 26.662 168.389 26.8197 168.692 26.9433C168.998 27.0711 169.384 27.1351 169.849 27.1351C170.505 27.1351 171.048 26.9753 171.479 26.6557C171.909 26.3403 172.124 25.8204 172.124 25.096V23.2359H172.009C171.89 23.4745 171.715 23.7196 171.485 23.971C171.259 24.2224 170.959 24.4334 170.584 24.6038C170.213 24.7743 169.746 24.8595 169.184 24.8595C168.43 24.8595 167.746 24.6826 167.132 24.3289C166.523 23.971 166.037 23.4383 165.675 22.7309C165.317 22.0193 165.138 21.1287 165.138 20.0591C165.138 18.9809 165.317 18.0711 165.675 17.3297C166.037 16.5839 166.525 16.0193 167.138 15.6358C167.752 15.248 168.436 15.0541 169.19 15.0541C169.766 15.0541 170.239 15.1521 170.609 15.3481C170.984 15.5399 171.283 15.7721 171.504 16.0449C171.726 16.3133 171.894 16.5669 172.009 16.8055H172.137V15.1819H174.419V25.1599C174.419 25.9994 174.219 26.694 173.818 27.2437C173.418 27.7934 172.87 28.2047 172.175 28.4774C171.481 28.7501 170.692 28.8865 169.81 28.8865ZM169.829 23.0441C170.32 23.0441 170.737 22.9248 171.082 22.6862C171.427 22.4476 171.69 22.1045 171.869 21.6571C172.047 21.2096 172.137 20.6727 172.137 20.0463C172.137 19.4284 172.047 18.8872 171.869 18.4227C171.694 17.9582 171.434 17.5981 171.089 17.3424C170.748 17.0825 170.328 16.9525 169.829 16.9525C169.314 16.9525 168.883 17.0868 168.538 17.3552C168.193 17.6237 167.933 17.9923 167.758 18.461C167.584 18.9255 167.496 19.4539 167.496 20.0463C167.496 20.6471 167.584 21.1734 167.758 21.6251C167.937 22.0726 168.199 22.422 168.545 22.6734C168.894 22.9206 169.322 23.0441 169.829 23.0441Z" fill="#1D2327"/>
<path d="M180.777 25.1919C179.793 25.1919 178.942 24.9873 178.227 24.5782C177.515 24.1649 176.967 23.5811 176.584 22.8268C176.2 22.0683 176.009 21.1755 176.009 20.1485C176.009 19.1386 176.2 18.2522 176.584 17.4895C176.972 16.7224 177.513 16.1258 178.207 15.6997C178.902 15.2693 179.718 15.0541 180.656 15.0541C181.261 15.0541 181.832 15.1521 182.369 15.3481C182.91 15.5399 183.387 15.8382 183.8 16.243C184.218 16.6478 184.546 17.1635 184.785 17.7899C185.023 18.412 185.143 19.1535 185.143 20.0143V20.7238H177.095V19.1642H182.925C182.92 18.721 182.825 18.3268 182.637 17.9816C182.45 17.6322 182.187 17.3574 181.851 17.1571C181.518 16.9568 181.131 16.8566 180.687 16.8566C180.214 16.8566 179.799 16.9717 179.441 17.2018C179.083 17.4277 178.804 17.726 178.604 18.0967C178.408 18.4632 178.308 18.8659 178.303 19.3048V20.6663C178.303 21.2373 178.408 21.7274 178.616 22.1365C178.825 22.5413 179.117 22.8524 179.492 23.0697C179.867 23.2828 180.306 23.3893 180.809 23.3893C181.146 23.3893 181.45 23.3424 181.723 23.2487C181.996 23.1507 182.232 23.0079 182.433 22.8204C182.633 22.6329 182.784 22.4007 182.886 22.1237L185.047 22.3666C184.911 22.9376 184.651 23.4362 184.267 23.8623C183.888 24.2842 183.402 24.6123 182.81 24.8467C182.217 25.0768 181.54 25.1919 180.777 25.1919Z" fill="#1D2327"/>
<path d="M202.153 16.3261H199.762C199.694 15.9341 199.568 15.5868 199.385 15.2842C199.202 14.9774 198.974 14.7174 198.701 14.5044C198.428 14.2913 198.117 14.1315 197.768 14.025C197.423 13.9142 197.05 13.8588 196.649 13.8588C195.937 13.8588 195.307 14.0378 194.757 14.3957C194.207 14.7494 193.777 15.2693 193.466 15.9554C193.155 16.6372 192.999 17.4703 192.999 18.4547C192.999 19.4561 193.155 20.2998 193.466 20.9859C193.781 21.6677 194.212 22.1833 194.757 22.5328C195.307 22.878 195.935 23.0505 196.643 23.0505C197.035 23.0505 197.401 22.9994 197.742 22.8971C198.087 22.7906 198.396 22.6351 198.669 22.4305C198.946 22.226 199.178 21.9745 199.366 21.6762C199.558 21.378 199.69 21.037 199.762 20.6535L202.153 20.6663C202.063 21.2885 201.869 21.8723 201.571 22.4177C201.277 22.9632 200.891 23.4447 200.414 23.8623C199.937 24.2757 199.379 24.5995 198.739 24.8339C198.1 25.064 197.391 25.1791 196.611 25.1791C195.46 25.1791 194.433 24.9128 193.53 24.3801C192.626 23.8474 191.915 23.0782 191.395 22.0726C190.875 21.0669 190.615 19.8609 190.615 18.4547C190.615 17.0441 190.877 15.8382 191.401 14.8368C191.925 13.8311 192.639 13.0619 193.543 12.5292C194.446 11.9966 195.469 11.7302 196.611 11.7302C197.339 11.7302 198.017 11.8325 198.643 12.037C199.27 12.2416 199.828 12.542 200.318 12.9383C200.808 13.3304 201.211 13.8119 201.526 14.3829C201.846 14.9497 202.055 15.5974 202.153 16.3261Z" fill="#1D2327"/>
<path d="M203.862 25.0001V15.1819H206.106V16.8183H206.208C206.387 16.2515 206.694 15.8147 207.128 15.5079C207.567 15.1968 208.068 15.0413 208.631 15.0413C208.758 15.0413 208.901 15.0477 209.059 15.0605C209.221 15.069 209.355 15.0839 209.462 15.1052V17.2338C209.364 17.1997 209.208 17.1699 208.995 17.1443C208.786 17.1145 208.584 17.0995 208.388 17.0995C207.966 17.0995 207.587 17.1912 207.25 17.3744C206.918 17.5534 206.655 17.8027 206.464 18.1223C206.272 18.4419 206.176 18.8105 206.176 19.2281V25.0001H203.862Z" fill="#1D2327"/>
<path d="M214.581 25.1919C213.597 25.1919 212.747 24.9873 212.031 24.5782C211.319 24.1649 210.771 23.5811 210.388 22.8268C210.004 22.0683 209.813 21.1755 209.813 20.1485C209.813 19.1386 210.004 18.2522 210.388 17.4895C210.776 16.7224 211.317 16.1258 212.012 15.6997C212.706 15.2693 213.522 15.0541 214.46 15.0541C215.065 15.0541 215.636 15.1521 216.173 15.3481C216.714 15.5399 217.191 15.8382 217.605 16.243C218.022 16.6478 218.35 17.1635 218.589 17.7899C218.828 18.412 218.947 19.1535 218.947 20.0143V20.7238H210.899V19.1642H216.729C216.725 18.721 216.629 18.3268 216.441 17.9816C216.254 17.6322 215.992 17.3574 215.655 17.1571C215.323 16.9568 214.935 16.8566 214.492 16.8566C214.019 16.8566 213.603 16.9717 213.245 17.2018C212.887 17.4277 212.608 17.726 212.408 18.0967C212.212 18.4632 212.112 18.8659 212.107 19.3048V20.6663C212.107 21.2373 212.212 21.7274 212.421 22.1365C212.629 22.5413 212.921 22.8524 213.296 23.0697C213.671 23.2828 214.11 23.3893 214.613 23.3893C214.95 23.3893 215.254 23.3424 215.527 23.2487C215.8 23.1507 216.036 23.0079 216.237 22.8204C216.437 22.6329 216.588 22.4007 216.69 22.1237L218.851 22.3666C218.715 22.9376 218.455 23.4362 218.071 23.8623C217.692 24.2842 217.206 24.6123 216.614 24.8467C216.021 25.0768 215.344 25.1919 214.581 25.1919Z" fill="#1D2327"/>
<path d="M223.37 25.1983C222.748 25.1983 222.187 25.0875 221.689 24.8659C221.194 24.64 220.802 24.3076 220.512 23.8687C220.227 23.4298 220.084 22.8886 220.084 22.2451C220.084 21.6912 220.186 21.2331 220.391 20.8708C220.596 20.5086 220.875 20.2189 221.228 20.0015C221.582 19.7842 221.981 19.6201 222.424 19.5093C222.871 19.3943 223.334 19.3112 223.811 19.2601C224.386 19.2004 224.853 19.1471 225.211 19.1003C225.569 19.0491 225.829 18.9724 225.99 18.8701C226.157 18.7636 226.24 18.5995 226.24 18.378V18.3396C226.24 17.8581 226.097 17.4852 225.811 17.221C225.526 16.9568 225.115 16.8247 224.578 16.8247C224.011 16.8247 223.561 16.9483 223.229 17.1954C222.901 17.4426 222.679 17.7345 222.564 18.0711L220.404 17.7643C220.574 17.1677 220.856 16.6691 221.248 16.2686C221.64 15.8637 222.119 15.5612 222.686 15.3609C223.253 15.1564 223.879 15.0541 224.565 15.0541C225.038 15.0541 225.509 15.1095 225.978 15.2203C226.446 15.3311 226.875 15.5143 227.262 15.77C227.65 16.0214 227.961 16.3645 228.196 16.7991C228.434 17.2338 228.554 17.7771 228.554 18.4291V25.0001H226.329V23.6514H226.253C226.112 23.9241 225.914 24.1798 225.658 24.4184C225.407 24.6528 225.089 24.8424 224.706 24.9873C224.326 25.128 223.881 25.1983 223.37 25.1983ZM223.971 23.498C224.435 23.498 224.838 23.4064 225.179 23.2231C225.52 23.0356 225.782 22.7885 225.965 22.4816C226.152 22.1748 226.246 21.8403 226.246 21.4781V20.3211C226.174 20.3808 226.05 20.4362 225.875 20.4873C225.705 20.5385 225.513 20.5832 225.3 20.6216C225.087 20.6599 224.876 20.694 224.667 20.7238C224.459 20.7537 224.277 20.7792 224.124 20.8005C223.779 20.8474 223.47 20.9241 223.197 21.0307C222.924 21.1372 222.709 21.2863 222.552 21.4781C222.394 21.6656 222.315 21.9085 222.315 22.2068C222.315 22.6329 222.471 22.9547 222.782 23.172C223.093 23.3893 223.489 23.498 223.971 23.498Z" fill="#1D2327"/>
<path d="M235.423 15.1819V16.9717H229.779V15.1819H235.423ZM231.172 12.8297H233.486V22.047C233.486 22.3581 233.533 22.5967 233.627 22.7629C233.725 22.9248 233.853 23.0356 234.01 23.0953C234.168 23.1549 234.343 23.1848 234.535 23.1848C234.679 23.1848 234.812 23.1741 234.931 23.1528C235.054 23.1315 235.148 23.1123 235.212 23.0953L235.602 24.9042C235.478 24.9468 235.302 24.9937 235.072 25.0449C234.846 25.096 234.569 25.1258 234.241 25.1343C233.661 25.1514 233.139 25.064 232.675 24.8723C232.21 24.6762 231.841 24.3737 231.569 23.9646C231.3 23.5555 231.168 23.0441 231.172 22.4305V12.8297Z" fill="#1D2327"/>
<path d="M241.175 25.1919C240.217 25.1919 239.386 24.9809 238.683 24.5591C237.979 24.1372 237.434 23.547 237.046 22.7885C236.663 22.0299 236.471 21.1436 236.471 20.1294C236.471 19.1152 236.663 18.2267 237.046 17.4639C237.434 16.7011 237.979 16.1088 238.683 15.6869C239.386 15.265 240.217 15.0541 241.175 15.0541C242.134 15.0541 242.965 15.265 243.668 15.6869C244.371 16.1088 244.915 16.7011 245.298 17.4639C245.686 18.2267 245.88 19.1152 245.88 20.1294C245.88 21.1436 245.686 22.0299 245.298 22.7885C244.915 23.547 244.371 24.1372 243.668 24.5591C242.965 24.9809 242.134 25.1919 241.175 25.1919ZM241.188 23.3382C241.708 23.3382 242.143 23.1954 242.492 22.9099C242.842 22.6201 243.102 22.2324 243.272 21.7466C243.447 21.2608 243.534 20.7196 243.534 20.123C243.534 19.5221 243.447 18.9788 243.272 18.493C243.102 18.003 242.842 17.613 242.492 17.3233C242.143 17.0335 241.708 16.8886 241.188 16.8886C240.656 16.8886 240.212 17.0335 239.859 17.3233C239.509 17.613 239.247 18.003 239.072 18.493C238.902 18.9788 238.817 19.5221 238.817 20.123C238.817 20.7196 238.902 21.2608 239.072 21.7466C239.247 22.2324 239.509 22.6201 239.859 22.9099C240.212 23.1954 240.656 23.3382 241.188 23.3382Z" fill="#1D2327"/>
<path d="M247.484 25.0001V15.1819H249.728V16.8183H249.83C250.009 16.2515 250.316 15.8147 250.75 15.5079C251.189 15.1968 251.69 15.0413 252.252 15.0413C252.38 15.0413 252.523 15.0477 252.681 15.0605C252.843 15.069 252.977 15.0839 253.083 15.1052V17.2338C252.985 17.1997 252.83 17.1699 252.617 17.1443C252.408 17.1145 252.206 17.0995 252.01 17.0995C251.588 17.0995 251.208 17.1912 250.872 17.3744C250.539 17.5534 250.277 17.8027 250.086 18.1223C249.894 18.4419 249.798 18.8105 249.798 19.2281V25.0001H247.484Z" fill="#1D2327"/>
<line opacity="0.25" x1="120" y1="11" x2="120" y2="26" stroke="#1D2327" stroke-width="2"/>
<defs>
<filter id="filter0_f_1262_634" x="-8.52198" y="-9.42847" width="56.7236" height="56.7234" filterUnits="userSpaceOnUse" color-interpolation-filters="sRGB">
<feFlood flood-opacity="0" result="BackgroundImageFix"/>
<feBlend mode="normal" in="SourceGraphic" in2="BackgroundImageFix" result="shape"/>
<feGaussianBlur stdDeviation="4.86646" result="effect1_foregroundBlur_1262_634"/>
</filter>
<linearGradient id="paint0_linear_1262_634" x1="35.4669" y1="8.87014" x2="8.059" y2="31.9956" gradientUnits="userSpaceOnUse">
<stop stop-color="#41D593"/>
<stop offset="1" stop-color="#8583FD"/>
</linearGradient>
<linearGradient id="paint1_linear_1262_634" x1="35.4708" y1="8.86941" x2="8.06291" y2="31.9948" gradientUnits="userSpaceOnUse">
<stop stop-color="#2FC77E"/>
<stop offset="1" stop-color="#7554EB"/>
</linearGradient>
<radialGradient id="paint2_radial_1262_634" cx="0" cy="0" r="1" gradientUnits="userSpaceOnUse" gradientTransform="translate(26.4776 14.8649) rotate(138.311) scale(18.3511)">
<stop offset="0.377972" stop-color="white"/>
<stop offset="1" stop-color="white" stop-opacity="0"/>
</radialGradient>
<linearGradient id="paint3_linear_1262_634" x1="27.0644" y1="0.364338" x2="19.7058" y2="29.0977" gradientUnits="userSpaceOnUse">
<stop stop-color="#33CBA3"/>
<stop offset="0.403356" stop-color="#33CBA3" stop-opacity="0.1"/>
<stop offset="1" stop-color="#33CBA3" stop-opacity="0"/>
</linearGradient>
<linearGradient id="paint4_linear_1262_634" x1="12.1721" y1="36.1059" x2="24.6116" y2="16.1327" gradientUnits="userSpaceOnUse">
<stop stop-color="#6162F2"/>
<stop offset="0.413685" stop-color="#6162F2" stop-opacity="0.1"/>
<stop offset="0.892811" stop-color="#6162F2" stop-opacity="0"/>
</linearGradient>
<linearGradient id="paint5_linear_1262_634" x1="104.792" y1="9.9721" x2="83.4249" y2="22.0115" gradientUnits="userSpaceOnUse">
<stop stop-color="#14DA7D"/>
<stop offset="0.444661" stop-color="#4093B9"/>
<stop offset="1" stop-color="#6E4AF8"/>
</linearGradient>
<linearGradient id="paint6_linear_1262_634" x1="104.792" y1="9.9721" x2="83.4249" y2="22.0115" gradientUnits="userSpaceOnUse">
<stop stop-color="#14DA7D"/>
<stop offset="0.444661" stop-color="#4093B9"/>
<stop offset="1" stop-color="#6E4AF8"/>
</linearGradient>
<linearGradient id="paint7_linear_1262_634" x1="107.721" y1="5.04121" x2="101.91" y2="11.2668" gradientUnits="userSpaceOnUse">
<stop stop-color="#14DA7D"/>
<stop offset="1" stop-color="#6E4AF8"/>
</linearGradient>
</defs>
</svg>
