<svg width="258" height="38" viewBox="0 0 258 38" fill="none" xmlns="http://www.w3.org/2000/svg">
<mask id="mask0_1303_624" style="mask-type:alpha" maskUnits="userSpaceOnUse" x="0" y="0" width="111" height="38">
<rect width="111" height="38" fill="#D9D9D9"/>
</mask>
<g mask="url(#mask0_1303_624)">
<circle cx="19.8358" cy="18.934" r="18.6288" fill="url(#paint0_linear_1303_624)"/>
<mask id="mask1_1303_624" style="mask-type:alpha" maskUnits="userSpaceOnUse" x="1" y="0" width="38" height="38">
<circle cx="19.8378" cy="18.9332" r="18.6288" fill="url(#paint1_linear_1303_624)"/>
</mask>
<g mask="url(#mask1_1303_624)">
<g filter="url(#filter0_f_1303_624)">
<circle cx="19.8378" cy="18.9332" r="18.6288" fill="url(#paint2_radial_1303_624)"/>
</g>
<ellipse cx="19.8389" cy="18.9359" rx="18.63" ry="18.63" fill="url(#paint3_linear_1303_624)"/>
<ellipse cx="19.8389" cy="18.9359" rx="18.63" ry="18.63" fill="url(#paint4_linear_1303_624)"/>
</g>
<path d="M20.6706 26.0663C19.2739 26.0663 18.0724 25.7704 17.0662 25.1785C16.066 24.5807 15.2966 23.7521 14.758 22.6927C14.2253 21.6333 13.959 20.4141 13.959 19.035C13.959 17.6383 14.2283 16.4131 14.7669 15.3596C15.3114 14.3002 16.0837 13.4746 17.084 12.8827C18.0842 12.2849 19.2739 11.986 20.6529 11.986C21.8425 11.986 22.8842 12.2021 23.7779 12.6341C24.6716 13.0662 25.3788 13.6728 25.8997 14.4541C26.4205 15.2353 26.7076 16.1527 26.7608 17.2062H23.1919C23.0913 16.5256 22.825 15.9781 22.3929 15.5638C21.9668 15.1436 21.4075 14.9335 20.715 14.9335C20.1291 14.9335 19.6171 15.0933 19.1792 15.4129C18.7471 15.7266 18.4097 16.1853 18.1671 16.789C17.9244 17.3926 17.8031 18.1236 17.8031 18.9818C17.8031 19.8518 17.9215 20.5916 18.1582 21.2012C18.4009 21.8109 18.7412 22.2755 19.1792 22.5951C19.6171 22.9147 20.1291 23.0745 20.715 23.0745C21.1471 23.0745 21.5347 22.9857 21.878 22.8081C22.2272 22.6306 22.5143 22.3731 22.7392 22.0358C22.97 21.6925 23.1209 21.2811 23.1919 20.8017H26.7608C26.7016 21.8434 26.4176 22.7608 25.9086 23.5539C25.4055 24.341 24.71 24.9566 23.8223 25.4005C22.9345 25.8444 21.8839 26.0663 20.6706 26.0663Z" fill="#1D2327"/>
<path d="M28.2573 25.8V12.1636H31.9238V14.5429H32.0659C32.3144 13.6965 32.7317 13.0573 33.3176 12.6252C33.9036 12.1873 34.5783 11.9683 35.3418 11.9683C35.5312 11.9683 35.7354 11.9801 35.9543 12.0038C36.1733 12.0275 36.3657 12.06 36.5314 12.1015V15.4573C36.3539 15.404 36.1082 15.3567 35.7945 15.3152C35.4809 15.2738 35.1938 15.2531 34.9334 15.2531C34.3771 15.2531 33.8799 15.3744 33.4419 15.6171C33.0099 15.8538 32.6666 16.1853 32.4121 16.6114C32.1635 17.0375 32.0392 17.5288 32.0392 18.0851V25.8H28.2573Z" fill="#1D2327"/>
<path d="M41.0596 26.0574C40.1896 26.0574 39.4143 25.9065 38.7336 25.6046C38.053 25.2969 37.5144 24.8441 37.1179 24.2463C36.7272 23.6426 36.5319 22.891 36.5319 21.9914C36.5319 21.2338 36.671 20.5975 36.9492 20.0826C37.2274 19.5677 37.6061 19.1534 38.0855 18.8397C38.5649 18.5261 39.1095 18.2893 39.7191 18.1295C40.3346 17.9697 40.9797 17.8573 41.6544 17.7921C42.4475 17.7093 43.0867 17.6323 43.5721 17.5613C44.0574 17.4844 44.4095 17.3719 44.6285 17.224C44.8475 17.076 44.957 16.857 44.957 16.567V16.5137C44.957 15.9515 44.7794 15.5165 44.4243 15.2087C44.0751 14.9009 43.578 14.747 42.9328 14.747C42.2522 14.747 41.7107 14.898 41.3082 15.1998C40.9057 15.4957 40.6394 15.8686 40.5092 16.3184L37.0113 16.0343C37.1889 15.2057 37.5381 14.4896 38.0589 13.8859C38.5797 13.2763 39.2515 12.8087 40.0742 12.4832C40.9028 12.1518 41.8616 11.986 42.9506 11.986C43.7082 11.986 44.4332 12.0748 45.1257 12.2524C45.8241 12.4299 46.4426 12.7051 46.9811 13.078C47.5257 13.4509 47.9547 13.9303 48.2684 14.5162C48.5821 15.0962 48.739 15.7917 48.739 16.6025V25.8H45.1523V23.909H45.0458C44.8268 24.3351 44.5338 24.7109 44.1669 25.0365C43.7999 25.3561 43.359 25.6076 42.8441 25.7911C42.3292 25.9686 41.7343 26.0574 41.0596 26.0574ZM42.1427 23.4473C42.6991 23.4473 43.1903 23.3378 43.6164 23.1189C44.0426 22.8939 44.377 22.5921 44.6196 22.2133C44.8623 21.8345 44.9836 21.4054 44.9836 20.926V19.4789C44.8653 19.5559 44.7025 19.6269 44.4953 19.692C44.2941 19.7512 44.0663 19.8074 43.8118 19.8607C43.5573 19.908 43.3028 19.9524 43.0483 19.9939C42.7938 20.0294 42.5629 20.0619 42.3558 20.0915C41.9119 20.1566 41.5242 20.2602 41.1928 20.4022C40.8614 20.5443 40.6039 20.7366 40.4204 20.9793C40.2369 21.216 40.1452 21.512 40.1452 21.8671C40.1452 22.382 40.3316 22.7756 40.7045 23.0478C41.0833 23.3142 41.5627 23.4473 42.1427 23.4473Z" fill="#1D2327"/>
<path d="M58.0812 12.1636V15.0045H49.665V12.1636H58.0812ZM51.5915 25.8V11.1782C51.5915 10.1898 51.7838 9.37004 52.1685 8.71899C52.5592 8.06795 53.0918 7.57967 53.7665 7.25415C54.4413 6.92863 55.2077 6.76587 56.0659 6.76587C56.6459 6.76587 57.1756 6.81026 57.655 6.89904C58.1404 6.98782 58.5014 7.06772 58.7381 7.13874L58.0634 9.97965C57.9155 9.9323 57.732 9.88791 57.513 9.84648C57.2999 9.80505 57.0809 9.78434 56.856 9.78434C56.2997 9.78434 55.912 9.91454 55.693 10.175C55.4741 10.4295 55.3646 10.7875 55.3646 11.2492V25.8H51.5915Z" fill="#1D2327"/>
<path d="M66.7198 12.1636V15.0045H58.5078V12.1636H66.7198ZM60.3722 8.89655H64.1541V21.6096C64.1541 21.9588 64.2074 22.2311 64.3139 22.4264C64.4205 22.6158 64.5684 22.7489 64.7578 22.8259C64.9531 22.9028 65.178 22.9413 65.4325 22.9413C65.6101 22.9413 65.7877 22.9265 65.9652 22.8969C66.1428 22.8614 66.2789 22.8348 66.3736 22.817L66.9684 25.6313C66.779 25.6905 66.5127 25.7585 66.1694 25.8355C65.8261 25.9183 65.4089 25.9686 64.9176 25.9864C64.0062 26.0219 63.2072 25.9006 62.5206 25.6224C61.84 25.3442 61.3103 24.9122 60.9315 24.3262C60.5527 23.7403 60.3663 23.0005 60.3722 22.1068V8.89655Z" fill="#1D2327"/>
<path d="M74.2732 26.0663C72.8941 26.0663 71.7016 25.7733 70.6954 25.1874C69.6952 24.5955 68.9228 23.7729 68.3783 22.7194C67.8338 21.6599 67.5615 20.4318 67.5615 19.035C67.5615 17.6264 67.8338 16.3954 68.3783 15.3419C68.9228 14.2824 69.6952 13.4598 70.6954 12.8738C71.7016 12.282 72.8941 11.986 74.2732 11.986C75.6522 11.986 76.8418 12.282 77.8421 12.8738C78.8482 13.4598 79.6236 14.2824 80.1681 15.3419C80.7126 16.3954 80.9848 17.6264 80.9848 19.035C80.9848 20.4318 80.7126 21.6599 80.1681 22.7194C79.6236 23.7729 78.8482 24.5955 77.8421 25.1874C76.8418 25.7733 75.6522 26.0663 74.2732 26.0663ZM74.2909 23.1366C74.9183 23.1366 75.4421 22.9591 75.8623 22.6039C76.2825 22.2429 76.5992 21.7517 76.8122 21.1302C77.0312 20.5088 77.1407 19.8015 77.1407 19.0084C77.1407 18.2153 77.0312 17.5081 76.8122 16.8866C76.5992 16.2652 76.2825 15.7739 75.8623 15.4129C75.4421 15.0519 74.9183 14.8713 74.2909 14.8713C73.6576 14.8713 73.125 15.0519 72.6929 15.4129C72.2668 15.7739 71.9442 16.2652 71.7252 16.8866C71.5122 17.5081 71.4056 18.2153 71.4056 19.0084C71.4056 19.8015 71.5122 20.5088 71.7252 21.1302C71.9442 21.7517 72.2668 22.2429 72.6929 22.6039C73.125 22.9591 73.6576 23.1366 74.2909 23.1366Z" fill="#1D2327"/>
<path d="M87.2363 25.5001H84.5645L89.4292 11.6819H92.5194L97.3908 25.5001H94.7189L91.0282 14.5157H90.9203L87.2363 25.5001ZM87.324 20.0821H94.611V22.0928H87.324V20.0821Z" fill="url(#paint5_linear_1303_624)"/>
<path d="M101.144 11.6819V25.5001H98.6408V11.6819H101.144Z" fill="url(#paint6_linear_1303_624)"/>
<path d="M104.905 3.13416C105.07 2.68868 105.7 2.68868 105.865 3.13416C105.865 3.13416 106.117 5.0327 106.883 5.88497C106.994 6.0092 107.061 6.07573 107.185 6.18728C108.037 6.95257 109.936 7.20517 109.936 7.20517C110.381 7.37001 110.381 8.00009 109.936 8.16493C109.936 8.16493 108.037 8.41753 107.185 9.18282C107.061 9.29437 106.994 9.3609 106.883 9.48513C106.117 10.3374 105.865 12.2359 105.865 12.2359C105.7 12.6814 105.07 12.6814 104.905 12.2359C104.905 12.2359 104.653 10.3374 103.887 9.48513C103.776 9.3609 103.709 9.29437 103.585 9.18282C102.733 8.41753 100.834 8.16493 100.834 8.16493C100.389 8.00009 100.389 7.37001 100.834 7.20517C100.834 7.20517 102.733 6.95257 103.585 6.18728C103.709 6.07573 103.776 6.0092 103.887 5.88497C104.653 5.03269 104.905 3.13416 104.905 3.13416Z" fill="url(#paint7_linear_1303_624)"/>
</g>
<path d="M146.497 16.3261H144.106C144.038 15.934 143.912 15.5867 143.729 15.2842C143.546 14.9774 143.318 14.7174 143.045 14.5043C142.772 14.2913 142.461 14.1315 142.112 14.0249C141.767 13.9142 141.394 13.8588 140.993 13.8588C140.281 13.8588 139.651 14.0377 139.101 14.3957C138.551 14.7494 138.121 15.2693 137.81 15.9553C137.499 16.6372 137.343 17.4703 137.343 18.4546C137.343 19.4561 137.499 20.2998 137.81 20.9859C138.125 21.6677 138.556 22.1833 139.101 22.5328C139.651 22.8779 140.279 23.0505 140.987 23.0505C141.379 23.0505 141.745 22.9994 142.086 22.8971C142.431 22.7906 142.74 22.635 143.013 22.4305C143.29 22.2259 143.522 21.9745 143.71 21.6762C143.901 21.3779 144.034 21.037 144.106 20.6535L146.497 20.6663C146.407 21.2884 146.213 21.8722 145.915 22.4177C145.621 22.9632 145.235 23.4447 144.758 23.8623C144.281 24.2757 143.722 24.5995 143.083 24.8339C142.444 25.064 141.735 25.1791 140.955 25.1791C139.804 25.1791 138.777 24.9127 137.874 24.3801C136.97 23.8474 136.259 23.0782 135.739 22.0725C135.219 21.0669 134.959 19.8609 134.959 18.4546C134.959 17.0441 135.221 15.8382 135.745 14.8367C136.269 13.8311 136.983 13.0619 137.887 12.5292C138.79 11.9965 139.813 11.7302 140.955 11.7302C141.683 11.7302 142.361 11.8325 142.987 12.037C143.614 12.2416 144.172 12.542 144.662 12.9383C145.152 13.3303 145.555 13.8119 145.87 14.3829C146.19 14.9497 146.399 15.5974 146.497 16.3261Z" fill="#1D2327"/>
<path d="M152.489 25.1919C151.53 25.1919 150.699 24.9809 149.996 24.559C149.293 24.1372 148.747 23.547 148.359 22.7884C147.976 22.0299 147.784 21.1436 147.784 20.1294C147.784 19.1151 147.976 18.2267 148.359 17.4639C148.747 16.7011 149.293 16.1088 149.996 15.6869C150.699 15.265 151.53 15.0541 152.489 15.0541C153.448 15.0541 154.278 15.265 154.982 15.6869C155.685 16.1088 156.228 16.7011 156.612 17.4639C156.999 18.2267 157.193 19.1151 157.193 20.1294C157.193 21.1436 156.999 22.0299 156.612 22.7884C156.228 23.547 155.685 24.1372 154.982 24.559C154.278 24.9809 153.448 25.1919 152.489 25.1919ZM152.502 23.3382C153.021 23.3382 153.456 23.1954 153.805 22.9099C154.155 22.6201 154.415 22.2323 154.585 21.7465C154.76 21.2607 154.847 20.7195 154.847 20.123C154.847 19.5221 154.76 18.9788 154.585 18.493C154.415 18.0029 154.155 17.613 153.805 17.3232C153.456 17.0335 153.021 16.8886 152.502 16.8886C151.969 16.8886 151.526 17.0335 151.172 17.3232C150.823 17.613 150.56 18.0029 150.386 18.493C150.215 18.9788 150.13 19.5221 150.13 20.123C150.13 20.7195 150.215 21.2607 150.386 21.7465C150.56 22.2323 150.823 22.6201 151.172 22.9099C151.526 23.1954 151.969 23.3382 152.502 23.3382Z" fill="#1D2327"/>
<path d="M161.111 19.2472V25.0001H158.797V15.1819H161.009V16.8502H161.124C161.35 16.3005 161.71 15.8637 162.204 15.5399C162.703 15.216 163.319 15.0541 164.051 15.0541C164.729 15.0541 165.319 15.199 165.822 15.4887C166.329 15.7785 166.721 16.1982 166.998 16.748C167.279 17.2977 167.418 17.9646 167.414 18.7487V25.0001H165.1V19.1066C165.1 18.4504 164.929 17.9369 164.588 17.5661C164.252 17.1954 163.785 17.01 163.189 17.01C162.784 17.01 162.424 17.0995 162.108 17.2785C161.797 17.4532 161.552 17.7068 161.373 18.0392C161.199 18.3715 161.111 18.7742 161.111 19.2472Z" fill="#1D2327"/>
<path d="M174.309 15.1819V16.9717H168.664V15.1819H174.309ZM170.058 12.8296H172.372V22.047C172.372 22.358 172.419 22.5967 172.513 22.7629C172.611 22.9248 172.738 23.0356 172.896 23.0953C173.054 23.1549 173.228 23.1847 173.42 23.1847C173.565 23.1847 173.697 23.1741 173.816 23.1528C173.94 23.1315 174.034 23.1123 174.098 23.0953L174.488 24.9042C174.364 24.9468 174.187 24.9937 173.957 25.0448C173.731 25.096 173.454 25.1258 173.126 25.1343C172.547 25.1514 172.025 25.064 171.56 24.8722C171.096 24.6762 170.727 24.3737 170.454 23.9646C170.186 23.5555 170.054 23.0441 170.058 22.4305V12.8296Z" fill="#1D2327"/>
<path d="M180.125 25.1919C179.141 25.1919 178.29 24.9873 177.575 24.5782C176.863 24.1649 176.315 23.5811 175.932 22.8268C175.548 22.0683 175.357 21.1755 175.357 20.1485C175.357 19.1386 175.548 18.2522 175.932 17.4894C176.32 16.7224 176.861 16.1258 177.555 15.6997C178.25 15.2693 179.066 15.0541 180.004 15.0541C180.609 15.0541 181.18 15.1521 181.717 15.3481C182.258 15.5399 182.735 15.8382 183.148 16.243C183.566 16.6478 183.894 17.1634 184.133 17.7899C184.371 18.412 184.491 19.1535 184.491 20.0143V20.7238H176.443V19.1642H182.273C182.268 18.721 182.173 18.3268 181.985 17.9816C181.798 17.6322 181.536 17.3573 181.199 17.157C180.866 16.9568 180.479 16.8566 180.035 16.8566C179.562 16.8566 179.147 16.9717 178.789 17.2018C178.431 17.4276 178.152 17.7259 177.952 18.0967C177.756 18.4632 177.656 18.8659 177.651 19.3048V20.6663C177.651 21.2373 177.756 21.7274 177.964 22.1365C178.173 22.5413 178.465 22.8524 178.84 23.0697C179.215 23.2828 179.654 23.3893 180.157 23.3893C180.494 23.3893 180.798 23.3424 181.071 23.2487C181.344 23.1507 181.58 23.0079 181.781 22.8204C181.981 22.6329 182.132 22.4007 182.234 22.1237L184.395 22.3666C184.259 22.9376 183.999 23.4362 183.615 23.8623C183.236 24.2842 182.75 24.6123 182.158 24.8467C181.565 25.0768 180.888 25.1919 180.125 25.1919Z" fill="#1D2327"/>
<path d="M188.402 19.2472V25.0001H186.088V15.1819H188.3V16.8502H188.415C188.641 16.3005 189.001 15.8637 189.495 15.5399C189.994 15.216 190.61 15.0541 191.343 15.0541C192.02 15.0541 192.61 15.199 193.113 15.4887C193.62 15.7785 194.012 16.1982 194.289 16.748C194.571 17.2977 194.709 17.9646 194.705 18.7487V25.0001H192.391V19.1066C192.391 18.4504 192.22 17.9369 191.88 17.5661C191.543 17.1954 191.076 17.01 190.48 17.01C190.075 17.01 189.715 17.0995 189.399 17.2785C189.088 17.4532 188.843 17.7068 188.664 18.0392C188.49 18.3715 188.402 18.7742 188.402 19.2472Z" fill="#1D2327"/>
<path d="M201.6 15.1819V16.9717H195.956V15.1819H201.6ZM197.349 12.8296H199.663V22.047C199.663 22.358 199.71 22.5967 199.804 22.7629C199.902 22.9248 200.029 23.0356 200.187 23.0953C200.345 23.1549 200.52 23.1847 200.711 23.1847C200.856 23.1847 200.988 23.1741 201.108 23.1528C201.231 23.1315 201.325 23.1123 201.389 23.0953L201.779 24.9042C201.655 24.9468 201.478 24.9937 201.248 25.0448C201.022 25.096 200.745 25.1258 200.417 25.1343C199.838 25.1514 199.316 25.064 198.851 24.8722C198.387 24.6762 198.018 24.3737 197.745 23.9646C197.477 23.5555 197.345 23.0441 197.349 22.4305V12.8296Z" fill="#1D2327"/>
<path d="M210.137 25.0001L206.442 11.9092H208.993L211.352 21.5292H211.473L213.991 11.9092H216.312L218.837 21.5356H218.952L221.31 11.9092H223.861L220.166 25.0001H217.827L215.206 15.8147H215.104L212.477 25.0001H210.137Z" fill="#1D2327"/>
<path d="M224.428 25.0001V15.1819H226.671V16.8183H226.773C226.952 16.2515 227.259 15.8147 227.694 15.5079C228.133 15.1968 228.634 15.0413 229.196 15.0413C229.324 15.0413 229.467 15.0477 229.624 15.0605C229.786 15.069 229.921 15.0839 230.027 15.1052V17.2338C229.929 17.1997 229.773 17.1698 229.56 17.1443C229.352 17.1144 229.149 17.0995 228.953 17.0995C228.531 17.0995 228.152 17.1911 227.815 17.3744C227.483 17.5534 227.221 17.8026 227.029 18.1222C226.837 18.4419 226.742 18.8105 226.742 19.2281V25.0001H224.428Z" fill="#1D2327"/>
<path d="M231.204 25.0001V15.1819H233.518V25.0001H231.204ZM232.368 13.7884C232.001 13.7884 231.686 13.667 231.422 13.4241C231.157 13.1769 231.025 12.8808 231.025 12.5356C231.025 12.1862 231.157 11.89 231.422 11.6471C231.686 11.3999 232.001 11.2764 232.368 11.2764C232.738 11.2764 233.054 11.3999 233.314 11.6471C233.578 11.89 233.71 12.1862 233.71 12.5356C233.71 12.8808 233.578 13.1769 233.314 13.4241C233.054 13.667 232.738 13.7884 232.368 13.7884Z" fill="#1D2327"/>
<path d="M240.44 15.1819V16.9717H234.796V15.1819H240.44ZM236.19 12.8296H238.504V22.047C238.504 22.358 238.55 22.5967 238.644 22.7629C238.742 22.9248 238.87 23.0356 239.028 23.0953C239.185 23.1549 239.36 23.1847 239.552 23.1847C239.697 23.1847 239.829 23.1741 239.948 23.1528C240.072 23.1315 240.166 23.1123 240.229 23.0953L240.619 24.9042C240.496 24.9468 240.319 24.9937 240.089 25.0448C239.863 25.096 239.586 25.1258 239.258 25.1343C238.678 25.1514 238.156 25.064 237.692 24.8722C237.227 24.6762 236.859 24.3737 236.586 23.9646C236.318 23.5555 236.185 23.0441 236.19 22.4305V12.8296Z" fill="#1D2327"/>
<path d="M246.257 25.1919C245.272 25.1919 244.422 24.9873 243.706 24.5782C242.995 24.1649 242.447 23.5811 242.064 22.8268C241.68 22.0683 241.488 21.1755 241.488 20.1485C241.488 19.1386 241.68 18.2522 242.064 17.4894C242.451 16.7224 242.993 16.1258 243.687 15.6997C244.382 15.2693 245.198 15.0541 246.135 15.0541C246.74 15.0541 247.311 15.1521 247.848 15.3481C248.39 15.5399 248.867 15.8382 249.28 16.243C249.698 16.6478 250.026 17.1634 250.265 17.7899C250.503 18.412 250.622 19.1535 250.622 20.0143V20.7238H242.575V19.1642H248.404C248.4 18.721 248.304 18.3268 248.117 17.9816C247.929 17.6322 247.667 17.3573 247.331 17.157C246.998 16.9568 246.61 16.8566 246.167 16.8566C245.694 16.8566 245.279 16.9717 244.921 17.2018C244.563 17.4276 244.284 17.7259 244.083 18.0967C243.887 18.4632 243.787 18.8659 243.783 19.3048V20.6663C243.783 21.2373 243.887 21.7274 244.096 22.1365C244.305 22.5413 244.597 22.8524 244.972 23.0697C245.347 23.2828 245.786 23.3893 246.289 23.3893C246.625 23.3893 246.93 23.3424 247.203 23.2487C247.475 23.1507 247.712 23.0079 247.912 22.8204C248.113 22.6329 248.264 22.4007 248.366 22.1237L250.527 22.3666C250.39 22.9376 250.13 23.4362 249.747 23.8623C249.368 24.2842 248.882 24.6123 248.289 24.8467C247.697 25.0768 247.019 25.1919 246.257 25.1919Z" fill="#1D2327"/>
<path d="M252.22 25.0001V15.1819H254.464V16.8183H254.566C254.745 16.2515 255.052 15.8147 255.486 15.5079C255.925 15.1968 256.426 15.0413 256.989 15.0413C257.116 15.0413 257.259 15.0477 257.417 15.0605C257.579 15.069 257.713 15.0839 257.819 15.1052V17.2338C257.721 17.1997 257.566 17.1698 257.353 17.1443C257.144 17.1144 256.942 17.0995 256.746 17.0995C256.324 17.0995 255.944 17.1911 255.608 17.3744C255.275 17.5534 255.013 17.8026 254.822 18.1222C254.63 18.4419 254.534 18.8105 254.534 19.2281V25.0001H252.22Z" fill="#1D2327"/>
<line opacity="0.25" x1="120" y1="11" x2="120" y2="26" stroke="#1D2327" stroke-width="2"/>
<defs>
<filter id="filter0_f_1303_624" x="-8.52393" y="-9.42847" width="56.7236" height="56.7234" filterUnits="userSpaceOnUse" color-interpolation-filters="sRGB">
<feFlood flood-opacity="0" result="BackgroundImageFix"/>
<feBlend mode="normal" in="SourceGraphic" in2="BackgroundImageFix" result="shape"/>
<feGaussianBlur stdDeviation="4.86646" result="effect1_foregroundBlur_1303_624"/>
</filter>
<linearGradient id="paint0_linear_1303_624" x1="35.4669" y1="8.87014" x2="8.059" y2="31.9956" gradientUnits="userSpaceOnUse">
<stop stop-color="#41D593"/>
<stop offset="1" stop-color="#8583FD"/>
</linearGradient>
<linearGradient id="paint1_linear_1303_624" x1="35.4689" y1="8.86941" x2="8.06096" y2="31.9948" gradientUnits="userSpaceOnUse">
<stop stop-color="#2FC77E"/>
<stop offset="1" stop-color="#7554EB"/>
</linearGradient>
<radialGradient id="paint2_radial_1303_624" cx="0" cy="0" r="1" gradientUnits="userSpaceOnUse" gradientTransform="translate(26.4756 14.8649) rotate(138.311) scale(18.3511)">
<stop offset="0.377972" stop-color="white"/>
<stop offset="1" stop-color="white" stop-opacity="0"/>
</radialGradient>
<linearGradient id="paint3_linear_1303_624" x1="27.0624" y1="0.364338" x2="19.7039" y2="29.0977" gradientUnits="userSpaceOnUse">
<stop stop-color="#33CBA3"/>
<stop offset="0.403356" stop-color="#33CBA3" stop-opacity="0.1"/>
<stop offset="1" stop-color="#33CBA3" stop-opacity="0"/>
</linearGradient>
<linearGradient id="paint4_linear_1303_624" x1="12.1701" y1="36.1059" x2="24.6096" y2="16.1327" gradientUnits="userSpaceOnUse">
<stop stop-color="#6162F2"/>
<stop offset="0.413685" stop-color="#6162F2" stop-opacity="0.1"/>
<stop offset="0.892811" stop-color="#6162F2" stop-opacity="0"/>
</linearGradient>
<linearGradient id="paint5_linear_1303_624" x1="104.794" y1="9.9721" x2="83.4269" y2="22.0115" gradientUnits="userSpaceOnUse">
<stop stop-color="#14DA7D"/>
<stop offset="0.444661" stop-color="#4093B9"/>
<stop offset="1" stop-color="#6E4AF8"/>
</linearGradient>
<linearGradient id="paint6_linear_1303_624" x1="104.794" y1="9.9721" x2="83.4269" y2="22.0115" gradientUnits="userSpaceOnUse">
<stop stop-color="#14DA7D"/>
<stop offset="0.444661" stop-color="#4093B9"/>
<stop offset="1" stop-color="#6E4AF8"/>
</linearGradient>
<linearGradient id="paint7_linear_1303_624" x1="107.721" y1="5.04121" x2="101.91" y2="11.2668" gradientUnits="userSpaceOnUse">
<stop stop-color="#14DA7D"/>
<stop offset="1" stop-color="#6E4AF8"/>
</linearGradient>
</defs>
</svg>
