<svg width="213" height="39" viewBox="0 0 213 39" fill="none" xmlns="http://www.w3.org/2000/svg">
<mask id="mask0_1262_607" style="mask-type:alpha" maskUnits="userSpaceOnUse" x="0" y="0" width="115" height="39">
<rect y="0.5" width="114.535" height="38" fill="#D9D9D9"/>
</mask>
<g mask="url(#mask0_1262_607)">
<ellipse cx="19.8409" cy="19.4295" rx="18.63" ry="18.6297" fill="url(#paint0_linear_1262_607)"/>
<path d="M87.8359 26.5001H85.1641L90.0288 12.6819H93.119L97.9904 26.5001H95.3185L91.6278 15.5157H91.5199L87.8359 26.5001ZM87.9237 21.0821H95.2106V23.0928H87.9237V21.0821Z" fill="url(#paint1_linear_1262_607)"/>
<path d="M101.744 12.6819V26.5001H99.2405V12.6819H101.744Z" fill="url(#paint2_linear_1262_607)"/>
<path d="M20.6005 26.5663C19.2392 26.5663 18.0703 26.2674 17.0938 25.6696C16.1231 25.0719 15.3744 24.2462 14.8477 23.1927C14.3268 22.1333 14.0664 20.9141 14.0664 19.535C14.0664 18.1501 14.3327 16.9279 14.8654 15.8685C15.3981 14.8032 16.1497 13.9746 17.1204 13.3827C18.0969 12.7849 19.2511 12.486 20.5827 12.486C21.6895 12.486 22.669 12.6902 23.5213 13.0986C24.3795 13.5011 25.0631 14.0722 25.5721 14.812C26.0811 15.5459 26.3711 16.4041 26.4421 17.3866H23.3704C23.2461 16.7296 22.9502 16.1822 22.4826 15.7442C22.021 15.3003 21.4025 15.0784 20.6271 15.0784C19.9702 15.0784 19.3931 15.2559 18.896 15.611C18.3988 15.9602 18.0111 16.4633 17.733 17.1203C17.4607 17.7772 17.3246 18.5644 17.3246 19.4818C17.3246 20.411 17.4607 21.21 17.733 21.8788C18.0052 22.5417 18.387 23.0536 18.8782 23.4147C19.3754 23.7698 19.9583 23.9473 20.6271 23.9473C21.1006 23.9473 21.5238 23.8586 21.8967 23.681C22.2755 23.4975 22.5921 23.2341 22.8466 22.8909C23.1011 22.5476 23.2757 22.1303 23.3704 21.6391H26.4421C26.3652 22.6038 26.0811 23.4591 25.5898 24.2048C25.0986 24.9446 24.4298 25.5246 23.5835 25.9448C22.7371 26.3591 21.7428 26.5663 20.6005 26.5663Z" fill="white"/>
<path d="M28.1561 26.3V12.6636H31.2722V14.9363H31.4142C31.6628 14.1492 32.0889 13.5425 32.6926 13.1164C33.3022 12.6843 33.9977 12.4683 34.7789 12.4683C34.9565 12.4683 35.1548 12.4772 35.3737 12.4949C35.5986 12.5068 35.7851 12.5275 35.933 12.5571V15.5134C35.7969 15.466 35.5809 15.4246 35.285 15.3891C34.995 15.3477 34.7138 15.3269 34.4416 15.3269C33.8556 15.3269 33.3289 15.4542 32.8613 15.7087C32.3997 15.9573 32.0357 16.3035 31.7693 16.7474C31.503 17.1913 31.3698 17.7033 31.3698 18.2833V26.3H28.1561Z" fill="white"/>
<path d="M40.823 26.5752C39.9589 26.5752 39.1806 26.4213 38.4882 26.1135C37.8016 25.7998 37.2571 25.3382 36.8546 24.7286C36.4581 24.119 36.2598 23.3673 36.2598 22.4736C36.2598 21.7042 36.4019 21.068 36.686 20.5649C36.97 20.0618 37.3577 19.6593 37.849 19.3575C38.3402 19.0556 38.8936 18.8278 39.5091 18.6739C40.1306 18.5141 40.7727 18.3987 41.4356 18.3277C42.2346 18.2448 42.8827 18.1708 43.3798 18.1057C43.877 18.0347 44.238 17.9282 44.4629 17.7861C44.6938 17.6381 44.8092 17.4103 44.8092 17.1025V17.0493C44.8092 16.3805 44.6109 15.8626 44.2144 15.4956C43.8178 15.1287 43.2467 14.9452 42.5009 14.9452C41.7138 14.9452 41.0894 15.1168 40.6277 15.4601C40.172 15.8034 39.8642 16.2088 39.7044 16.6764L36.7037 16.2502C36.9405 15.4216 37.3311 14.7292 37.8756 14.1728C38.4201 13.6106 39.0859 13.1903 39.8731 12.9122C40.6603 12.6281 41.5303 12.486 42.4832 12.486C43.1401 12.486 43.7941 12.563 44.4452 12.7169C45.0962 12.8707 45.691 13.1252 46.2296 13.4804C46.7682 13.8296 47.2003 14.306 47.5258 14.9097C47.8572 15.5134 48.023 16.268 48.023 17.1735V26.3H44.9335V24.4267H44.8269C44.6316 24.8055 44.3564 25.1606 44.0013 25.4921C43.6521 25.8176 43.2112 26.081 42.6785 26.2822C42.1517 26.4775 41.5333 26.5752 40.823 26.5752ZM41.6575 24.2137C42.3027 24.2137 42.862 24.0864 43.3355 23.8319C43.8089 23.5715 44.1729 23.2282 44.4274 22.8021C44.6878 22.376 44.8181 21.9113 44.8181 21.4083V19.8014C44.7174 19.8842 44.5458 19.9612 44.3031 20.0322C44.0664 20.1032 43.8001 20.1654 43.5041 20.2186C43.2082 20.2719 42.9152 20.3193 42.6252 20.3607C42.3352 20.4021 42.0837 20.4376 41.8706 20.4672C41.3912 20.5323 40.9621 20.6389 40.5833 20.7868C40.2045 20.9348 39.9057 21.1419 39.6867 21.4083C39.4677 21.6687 39.3582 22.006 39.3582 22.4203C39.3582 23.0122 39.5742 23.4591 40.0063 23.7609C40.4383 24.0627 40.9887 24.2137 41.6575 24.2137Z" fill="white"/>
<path d="M57.2365 12.6636V15.1494H49.1754V12.6636H57.2365ZM51.1906 26.3V11.3763C51.1906 10.4589 51.38 9.69544 51.7588 9.08583C52.1435 8.47622 52.6584 8.02049 53.3036 7.71864C53.9487 7.41679 54.6648 7.26587 55.452 7.26587C56.0083 7.26587 56.5025 7.31026 56.9346 7.39904C57.3667 7.48782 57.6863 7.56772 57.8934 7.63874L57.2542 10.1245C57.1181 10.0831 56.9464 10.0417 56.7393 10.0002C56.5321 9.9529 56.3013 9.92922 56.0468 9.92922C55.449 9.92922 55.0259 10.0742 54.7773 10.3642C54.5346 10.6483 54.4133 11.0567 54.4133 11.5894V26.3H51.1906Z" fill="white"/>
<path d="M65.6376 12.6636V15.1494H57.7985V12.6636H65.6376ZM59.7339 9.39655H62.9476V22.1984C62.9476 22.6305 63.0127 22.9619 63.143 23.1927C63.2791 23.4176 63.4566 23.5715 63.6756 23.6544C63.8946 23.7372 64.1373 23.7787 64.4036 23.7787C64.6048 23.7787 64.7883 23.7639 64.954 23.7343C65.1257 23.7047 65.2559 23.678 65.3447 23.6544L65.8862 26.1668C65.7146 26.226 65.4689 26.2911 65.1493 26.3621C64.8357 26.4331 64.451 26.4746 63.9952 26.4864C63.1903 26.5101 62.4653 26.3887 61.8202 26.1224C61.175 25.8502 60.6631 25.4299 60.2843 24.8618C59.9114 24.2936 59.7279 23.5833 59.7339 22.7311V9.39655Z" fill="white"/>
<path d="M73.2021 26.5663C71.8704 26.5663 70.7163 26.2733 69.7397 25.6874C68.7631 25.1015 68.0056 24.2817 67.467 23.2282C66.9343 22.1747 66.668 20.9437 66.668 19.535C66.668 18.1264 66.9343 16.8924 67.467 15.833C68.0056 14.7736 68.7631 13.9509 69.7397 13.3649C70.7163 12.779 71.8704 12.486 73.2021 12.486C74.5337 12.486 75.6879 12.779 76.6644 13.3649C77.641 13.9509 78.3956 14.7736 78.9283 15.833C79.4669 16.8924 79.7362 18.1264 79.7362 19.535C79.7362 20.9437 79.4669 22.1747 78.9283 23.2282C78.3956 24.2817 77.641 25.1015 76.6644 25.6874C75.6879 26.2733 74.5337 26.5663 73.2021 26.5663ZM73.2198 23.9917C73.9419 23.9917 74.5456 23.7935 75.0309 23.3969C75.5162 22.9944 75.8772 22.4559 76.114 21.7811C76.3567 21.1064 76.478 20.3548 76.478 19.5262C76.478 18.6917 76.3567 17.937 76.114 17.2623C75.8772 16.5817 75.5162 16.0401 75.0309 15.6377C74.5456 15.2352 73.9419 15.034 73.2198 15.034C72.48 15.034 71.8645 15.2352 71.3732 15.6377C70.8879 16.0401 70.5239 16.5817 70.2812 17.2623C70.0445 17.937 69.9261 18.6917 69.9261 19.5262C69.9261 20.3548 70.0445 21.1064 70.2812 21.7811C70.5239 22.4559 70.8879 22.9944 71.3732 23.3969C71.8645 23.7935 72.48 23.9917 73.2198 23.9917Z" fill="white"/>
<path d="M105.503 4.13391C105.668 3.68844 106.298 3.68844 106.463 4.13391C106.463 4.13391 106.715 6.03245 107.48 6.88473C107.592 7.00895 107.659 7.07549 107.783 7.18703C108.635 7.95233 110.534 8.20493 110.534 8.20493C110.979 8.36977 110.979 8.99984 110.534 9.16468C110.534 9.16468 108.635 9.41728 107.783 10.1826C107.659 10.2941 107.592 10.3607 107.48 10.4849C106.715 11.3372 106.463 13.2357 106.463 13.2357C106.298 13.6812 105.668 13.6812 105.503 13.2357C105.503 13.2357 105.25 11.3372 104.485 10.4849C104.373 10.3607 104.307 10.2941 104.183 10.1826C103.33 9.41728 101.432 9.16468 101.432 9.16468C100.986 8.99984 100.986 8.36977 101.432 8.20493C101.432 8.20493 103.33 7.95233 104.183 7.18703C104.307 7.07549 104.373 7.00895 104.485 6.88473C105.25 6.03245 105.503 4.13391 105.503 4.13391Z" fill="url(#paint3_linear_1262_607)"/>
</g>
<path d="M136.57 25.5001H134.039L138.648 12.4092H141.575L146.19 25.5001H143.659L140.163 15.0938H140.06L136.57 25.5001ZM136.653 20.3673H143.557V22.2721H136.653V20.3673Z" fill="white"/>
<path d="M155.054 18.2771L152.945 18.5072C152.885 18.2941 152.781 18.0938 152.631 17.9063C152.487 17.7188 152.291 17.5676 152.043 17.4525C151.796 17.3374 151.494 17.2799 151.136 17.2799C150.654 17.2799 150.249 17.3843 149.921 17.5931C149.597 17.8019 149.438 18.0725 149.442 18.4049C149.438 18.6904 149.542 18.9227 149.755 19.1017C149.972 19.2806 150.33 19.4276 150.829 19.5427L152.504 19.9007C153.433 20.1009 154.123 20.4184 154.575 20.8531C155.031 21.2877 155.261 21.8566 155.265 22.5597C155.261 23.1776 155.08 23.7231 154.722 24.1961C154.368 24.6649 153.876 25.0313 153.245 25.2955C152.614 25.5597 151.89 25.6919 151.072 25.6919C149.87 25.6919 148.903 25.4404 148.17 24.9376C147.437 24.4305 147 23.7252 146.859 22.8218L149.116 22.6045C149.218 23.0477 149.435 23.3822 149.768 23.608C150.1 23.8339 150.533 23.9468 151.065 23.9468C151.615 23.9468 152.056 23.8339 152.389 23.608C152.725 23.3822 152.894 23.1031 152.894 22.7707C152.894 22.4894 152.785 22.2572 152.568 22.074C152.354 21.8907 152.022 21.7501 151.57 21.6521L149.896 21.3005C148.954 21.1045 148.257 20.7742 147.805 20.3097C147.354 19.841 147.13 19.2487 147.134 18.5328C147.13 17.9276 147.294 17.4035 147.627 16.9603C147.963 16.5129 148.43 16.1677 149.026 15.9248C149.627 15.6776 150.32 15.5541 151.104 15.5541C152.254 15.5541 153.16 15.7991 153.82 16.2892C154.485 16.7792 154.896 17.4419 155.054 18.2771Z" fill="white"/>
<path d="M164.573 18.2771L162.464 18.5072C162.404 18.2941 162.3 18.0938 162.15 17.9063C162.005 17.7188 161.809 17.5676 161.562 17.4525C161.315 17.3374 161.013 17.2799 160.655 17.2799C160.173 17.2799 159.768 17.3843 159.44 17.5931C159.116 17.8019 158.956 18.0725 158.961 18.4049C158.956 18.6904 159.061 18.9227 159.274 19.1017C159.491 19.2806 159.849 19.4276 160.348 19.5427L162.023 19.9007C162.952 20.1009 163.642 20.4184 164.094 20.8531C164.55 21.2877 164.78 21.8566 164.784 22.5597C164.78 23.1776 164.599 23.7231 164.241 24.1961C163.887 24.6649 163.395 25.0313 162.764 25.2955C162.133 25.5597 161.409 25.6919 160.591 25.6919C159.389 25.6919 158.422 25.4404 157.689 24.9376C156.956 24.4305 156.519 23.7252 156.378 22.8218L158.635 22.6045C158.737 23.0477 158.954 23.3822 159.287 23.608C159.619 23.8339 160.052 23.9468 160.584 23.9468C161.134 23.9468 161.575 23.8339 161.907 23.608C162.244 23.3822 162.412 23.1031 162.412 22.7707C162.412 22.4894 162.304 22.2572 162.086 22.074C161.873 21.8907 161.541 21.7501 161.089 21.6521L159.415 21.3005C158.473 21.1045 157.776 20.7742 157.324 20.3097C156.873 19.841 156.649 19.2487 156.653 18.5328C156.649 17.9276 156.813 17.4035 157.145 16.9603C157.482 16.5129 157.949 16.1677 158.545 15.9248C159.146 15.6776 159.839 15.5541 160.623 15.5541C161.773 15.5541 162.679 15.7991 163.339 16.2892C164.004 16.7792 164.415 17.4419 164.573 18.2771Z" fill="white"/>
<path d="M166.332 25.5001V15.6819H168.646V25.5001H166.332ZM167.495 14.2884C167.129 14.2884 166.813 14.167 166.549 13.9241C166.285 13.6769 166.153 13.3808 166.153 13.0356C166.153 12.6862 166.285 12.39 166.549 12.1471C166.813 11.8999 167.129 11.7764 167.495 11.7764C167.866 11.7764 168.181 11.8999 168.441 12.1471C168.706 12.39 168.838 12.6862 168.838 13.0356C168.838 13.3808 168.706 13.6769 168.441 13.9241C168.181 14.167 167.866 14.2884 167.495 14.2884Z" fill="white"/>
<path d="M178.425 18.2771L176.316 18.5072C176.256 18.2941 176.152 18.0938 176.003 17.9063C175.858 17.7188 175.662 17.5676 175.415 17.4525C175.167 17.3374 174.865 17.2799 174.507 17.2799C174.025 17.2799 173.621 17.3843 173.292 17.5931C172.969 17.8019 172.809 18.0725 172.813 18.4049C172.809 18.6904 172.913 18.9227 173.126 19.1017C173.344 19.2806 173.702 19.4276 174.2 19.5427L175.875 19.9007C176.804 20.1009 177.494 20.4184 177.946 20.8531C178.402 21.2877 178.632 21.8566 178.636 22.5597C178.632 23.1776 178.451 23.7231 178.093 24.1961C177.739 24.6649 177.247 25.0313 176.616 25.2955C175.986 25.5597 175.261 25.6919 174.443 25.6919C173.241 25.6919 172.274 25.4404 171.541 24.9376C170.808 24.4305 170.371 23.7252 170.231 22.8218L172.487 22.6045C172.589 23.0477 172.807 23.3822 173.139 23.608C173.471 23.8339 173.904 23.9468 174.437 23.9468C174.986 23.9468 175.427 23.8339 175.76 23.608C176.096 23.3822 176.265 23.1031 176.265 22.7707C176.265 22.4894 176.156 22.2572 175.939 22.074C175.726 21.8907 175.393 21.7501 174.942 21.6521L173.267 21.3005C172.325 21.1045 171.628 20.7742 171.177 20.3097C170.725 19.841 170.501 19.2487 170.505 18.5328C170.501 17.9276 170.665 17.4035 170.998 16.9603C171.334 16.5129 171.801 16.1677 172.398 15.9248C172.998 15.6776 173.691 15.5541 174.475 15.5541C175.626 15.5541 176.531 15.7991 177.192 16.2892C177.856 16.7792 178.268 17.4419 178.425 18.2771Z" fill="white"/>
<path d="M185.087 15.6819V17.4717H179.443V15.6819H185.087ZM180.836 13.3296H183.15V22.547C183.15 22.858 183.197 23.0967 183.291 23.2629C183.389 23.4248 183.517 23.5356 183.674 23.5953C183.832 23.6549 184.007 23.6847 184.198 23.6847C184.343 23.6847 184.475 23.6741 184.595 23.6528C184.718 23.6315 184.812 23.6123 184.876 23.5953L185.266 25.4042C185.142 25.4468 184.965 25.4937 184.735 25.5448C184.509 25.596 184.232 25.6258 183.904 25.6343C183.325 25.6514 182.803 25.564 182.338 25.3722C181.874 25.1762 181.505 24.8737 181.232 24.4646C180.964 24.0555 180.832 23.5441 180.836 22.9305V13.3296Z" fill="white"/>
<path d="M189.487 25.6982C188.865 25.6982 188.305 25.5874 187.806 25.3659C187.312 25.14 186.92 24.8076 186.63 24.3687C186.345 23.9298 186.202 23.3886 186.202 22.7451C186.202 22.1911 186.304 21.733 186.509 21.3708C186.713 21.0086 186.992 20.7188 187.346 20.5015C187.7 20.2842 188.098 20.1201 188.541 20.0093C188.989 19.8943 189.451 19.8112 189.928 19.76C190.504 19.7004 190.97 19.6471 191.328 19.6002C191.686 19.5491 191.946 19.4724 192.108 19.3701C192.274 19.2636 192.357 19.0995 192.357 18.8779V18.8396C192.357 18.358 192.215 17.9852 191.929 17.721C191.644 17.4568 191.232 17.3247 190.695 17.3247C190.129 17.3247 189.679 17.4482 189.347 17.6954C189.019 17.9426 188.797 18.2345 188.682 18.5711L186.521 18.2643C186.692 17.6677 186.973 17.1691 187.365 16.7686C187.757 16.3637 188.237 16.0612 188.803 15.8609C189.37 15.6563 189.997 15.5541 190.683 15.5541C191.156 15.5541 191.627 15.6095 192.095 15.7203C192.564 15.8311 192.992 16.0143 193.38 16.27C193.768 16.5214 194.079 16.8644 194.313 17.2991C194.552 17.7338 194.671 18.2771 194.671 18.9291V25.5001H192.447V24.1514H192.37C192.23 24.4241 192.031 24.6798 191.776 24.9184C191.524 25.1528 191.207 25.3424 190.823 25.4873C190.444 25.6279 189.999 25.6982 189.487 25.6982ZM190.088 23.998C190.553 23.998 190.955 23.9063 191.296 23.7231C191.637 23.5356 191.899 23.2884 192.083 22.9816C192.27 22.6748 192.364 22.3403 192.364 21.9781V20.8211C192.291 20.8808 192.168 20.9362 191.993 20.9873C191.823 21.0384 191.631 21.0832 191.418 21.1215C191.205 21.1599 190.994 21.194 190.785 21.2238C190.576 21.2536 190.395 21.2792 190.242 21.3005C189.896 21.3474 189.588 21.4241 189.315 21.5306C189.042 21.6372 188.827 21.7863 188.669 21.9781C188.512 22.1656 188.433 22.4085 188.433 22.7068C188.433 23.1329 188.588 23.4546 188.899 23.672C189.21 23.8893 189.607 23.998 190.088 23.998Z" fill="white"/>
<path d="M198.952 19.7472V25.5001H196.638V15.6819H198.85V17.3502H198.965C199.191 16.8005 199.551 16.3637 200.045 16.0399C200.544 15.716 201.159 15.5541 201.892 15.5541C202.57 15.5541 203.16 15.699 203.663 15.9887C204.17 16.2785 204.562 16.6982 204.839 17.248C205.12 17.7977 205.259 18.4646 205.255 19.2487V25.5001H202.941V19.6066C202.941 18.9504 202.77 18.4369 202.429 18.0661C202.093 17.6954 201.626 17.51 201.029 17.51C200.625 17.51 200.264 17.5995 199.949 17.7785C199.638 17.9532 199.393 18.2068 199.214 18.5392C199.039 18.8715 198.952 19.2742 198.952 19.7472Z" fill="white"/>
<path d="M212.149 15.6819V17.4717H206.505V15.6819H212.149ZM207.899 13.3296H210.213V22.547C210.213 22.858 210.26 23.0967 210.353 23.2629C210.451 23.4248 210.579 23.5356 210.737 23.5953C210.895 23.6549 211.069 23.6847 211.261 23.6847C211.406 23.6847 211.538 23.6741 211.657 23.6528C211.781 23.6315 211.875 23.6123 211.939 23.5953L212.328 25.4042C212.205 25.4468 212.028 25.4937 211.798 25.5448C211.572 25.596 211.295 25.6258 210.967 25.6343C210.387 25.6514 209.865 25.564 209.401 25.3722C208.936 25.1762 208.568 24.8737 208.295 24.4646C208.027 24.0555 207.895 23.5441 207.899 22.9305V13.3296Z" fill="white"/>
<line opacity="0.25" x1="120.098" y1="11.5" x2="120.098" y2="26.5" stroke="white"/>
<defs>
<linearGradient id="paint0_linear_1262_607" x1="33.927" y1="7.16116" x2="6.20965" y2="31.6983" gradientUnits="userSpaceOnUse">
<stop stop-color="#14DA7D"/>
<stop offset="1" stop-color="#6E4AF8"/>
</linearGradient>
<linearGradient id="paint1_linear_1262_607" x1="101.5" y1="12.5" x2="81.5963" y2="24.9587" gradientUnits="userSpaceOnUse">
<stop stop-color="#14DA7D"/>
<stop offset="0.374994" stop-color="#4887C3"/>
<stop offset="0.689693" stop-color="#8691F4"/>
<stop offset="0.974399" stop-color="#6E4AF8"/>
</linearGradient>
<linearGradient id="paint2_linear_1262_607" x1="101.5" y1="12.5" x2="81.5963" y2="24.9587" gradientUnits="userSpaceOnUse">
<stop stop-color="#14DA7D"/>
<stop offset="0.374994" stop-color="#4887C3"/>
<stop offset="0.689693" stop-color="#8691F4"/>
<stop offset="0.974399" stop-color="#6E4AF8"/>
</linearGradient>
<linearGradient id="paint3_linear_1262_607" x1="107.5" y1="6.5" x2="103" y2="11.5" gradientUnits="userSpaceOnUse">
<stop stop-color="#14DA7D"/>
<stop offset="1" stop-color="#6E4AF8"/>
</linearGradient>
</defs>
</svg>
