<svg width="22" height="19" viewBox="0 0 22 19" fill="none" xmlns="http://www.w3.org/2000/svg">
<path d="M1.52703 12.4038C1.69478 12.4038 1.85566 12.4704 1.97428 12.5891C2.09289 12.7077 2.15953 12.8686 2.15953 13.0363V16.1988C2.15953 16.5343 2.29281 16.8561 2.53004 17.0933C2.76728 17.3305 3.08903 17.4638 3.42453 17.4638H18.6045C18.94 17.4638 19.2618 17.3305 19.499 17.0933C19.7363 16.8561 19.8695 16.5343 19.8695 16.1988V13.0363C19.8695 12.8686 19.9362 12.7077 20.0548 12.5891C20.1734 12.4704 20.3343 12.4038 20.502 12.4038C20.6698 12.4038 20.8307 12.4704 20.9493 12.5891C21.0679 12.7077 21.1345 12.8686 21.1345 13.0363V16.1988C21.1345 16.8698 20.868 17.5133 20.3935 17.9878C19.919 18.4623 19.2755 18.7288 18.6045 18.7288H3.42453C2.75353 18.7288 2.11002 18.4623 1.63555 17.9878C1.16108 17.5133 0.894531 16.8698 0.894531 16.1988V13.0363C0.894531 12.8686 0.961169 12.7077 1.07979 12.5891C1.1984 12.4704 1.35928 12.4038 1.52703 12.4038Z" fill="#1D2327" stroke="#1D2327" stroke-width="0.368"/>
<path d="M10.5625 14.8753C10.6213 14.9342 10.6911 14.981 10.7679 15.0129C10.8448 15.0447 10.9271 15.0612 11.0103 15.0612C11.0935 15.0612 11.1759 15.0447 11.2527 15.0129C11.3296 14.981 11.3994 14.9342 11.4581 14.8753L15.2531 11.0803C15.3719 10.9616 15.4386 10.8005 15.4386 10.6325C15.4386 10.4646 15.3719 10.3035 15.2531 10.1847C15.1344 10.0659 14.9733 9.99922 14.8053 9.99922C14.6374 9.99922 14.4763 10.0659 14.3575 10.1847L11.6428 12.9007V1.77752C11.6428 1.60977 11.5762 1.44889 11.4576 1.33027C11.339 1.21166 11.1781 1.14502 11.0103 1.14502C10.8426 1.14502 10.6817 1.21166 10.5631 1.33027C10.4445 1.44889 10.3778 1.60977 10.3778 1.77752V12.9007L7.66314 10.1847C7.54437 10.0659 7.38329 9.99922 7.21533 9.99922C7.04737 9.99922 6.88629 10.0659 6.76752 10.1847C6.64875 10.3035 6.58203 10.4646 6.58203 10.6325C6.58203 10.8005 6.64875 10.9616 6.76752 11.0803L10.5625 14.8753Z" fill="#1D2327" stroke="#1D2327" stroke-width="0.368"/>
</svg>
