<svg xmlns="http://www.w3.org/2000/svg" width="324" height="52" viewBox="0 0 324 52" fill="none"><g clip-path="url(#clip0_5172_1182)"><path d="M102.274 48.939H82.3125V3.48039H101.852C104.714 3.48039 107.154 3.99131 109.172 5.01313C111.178 6.04741 112.707 7.42438 113.758 9.14403C114.847 10.8637 115.391 12.7453 115.391 14.789C115.391 16.8825 115.012 18.6021 114.254 19.9479C113.52 21.2937 112.633 22.3592 111.594 23.1442C110.578 23.8795 109.649 24.3904 108.805 24.677V25.1069C109.857 25.3935 111.025 25.948 112.309 26.7705C113.642 27.5804 114.792 28.7456 115.758 30.2658C116.725 31.7363 117.208 33.6615 117.208 36.0416C117.208 38.1725 116.706 40.2411 115.703 42.2473C114.688 44.2162 113.092 45.8299 110.915 47.0885C108.738 48.3222 105.857 48.939 102.274 48.939ZM100.751 10.5459H90.5317V22.3966H100.751C103.099 22.3966 104.793 21.8047 105.833 20.6208C106.885 19.437 107.411 18.0476 107.411 16.4526C107.411 14.8949 106.885 13.5179 105.833 12.3216C104.793 11.1378 103.099 10.5459 100.751 10.5459ZM101.356 28.7892H90.5317V41.8735H101.356C104.023 41.8735 105.961 41.2193 107.172 39.9108C108.383 38.6024 108.988 37.0634 108.988 35.294C108.988 33.5743 108.383 32.0603 107.172 30.7518C105.961 29.4434 104.023 28.7892 101.356 28.7892ZM131.977 49.5558C128.625 49.5558 126.081 48.5091 124.344 46.4156C122.657 44.3346 121.813 41.6554 121.813 38.3781V16.3778H129.793V37.0136C129.793 38.7831 130.258 40.1975 131.188 41.2567C132.117 42.2785 133.426 42.7894 135.114 42.7894C136.606 42.7894 137.817 42.4031 138.746 41.6305C139.676 40.8579 140.343 39.8548 140.746 38.6211C141.187 37.3874 141.407 36.1164 141.407 34.808V16.3778H149.443V48.939H141.407V44.2661H141.04C140.636 45.0013 140.055 45.7801 139.297 46.6025C138.563 47.425 137.591 48.1228 136.38 48.696C135.218 49.2692 133.75 49.5558 131.977 49.5558ZM167.771 49.5558C165.153 49.5558 163.001 49.2069 161.313 48.5091C159.613 47.7739 158.261 46.8705 157.258 45.7988C156.292 44.7022 155.564 43.6181 155.075 42.5464C154.598 41.4872 154.274 40.6087 154.103 39.9108C153.98 39.1756 153.919 38.808 153.919 38.808H161.551C161.551 38.808 161.612 39.0323 161.735 39.4809C161.894 39.9295 162.175 40.4591 162.579 41.0697C163.019 41.643 163.686 42.1601 164.578 42.6212C165.459 43.0698 166.627 43.2941 168.083 43.2941C169.819 43.2941 171.067 42.9265 171.825 42.1913C172.596 41.4062 172.981 40.5464 172.981 39.6118C172.981 38.7021 172.639 37.9794 171.954 37.4435C171.305 36.8703 170.339 36.4404 169.055 36.1538L164.633 35.2379C162.86 34.8765 161.209 34.3469 159.68 33.6491C158.139 32.9139 156.885 31.9294 155.919 30.6958C154.953 29.4247 154.469 27.8047 154.469 25.8359C154.469 22.9324 155.558 20.5398 157.735 18.6582C159.912 16.7267 162.878 15.761 166.633 15.761C169.006 15.761 170.963 16.0912 172.504 16.7516C174.07 17.4121 175.317 18.2345 176.247 19.2189C177.213 20.1909 177.916 21.1691 178.357 22.1536C178.846 23.138 179.152 23.9791 179.274 24.677C179.433 25.3374 179.512 25.6676 179.512 25.6676H172.137C172.137 25.6676 172.076 25.4807 171.954 25.1069C171.831 24.6957 171.568 24.2471 171.165 23.7611C170.798 23.2626 170.235 22.8327 169.477 22.4713C168.743 22.0601 167.752 21.8545 166.505 21.8545C164.817 21.8545 163.606 22.2221 162.872 22.9573C162.187 23.6925 161.845 24.4714 161.845 25.2938C161.845 26.191 162.23 26.8888 163.001 27.3873C163.771 27.8733 164.762 28.2409 165.973 28.4901L170.137 29.406C173.122 30.0166 175.562 31.0821 177.458 32.6023C179.39 34.1101 180.356 36.3033 180.356 39.1819C180.356 41.1009 179.855 42.8579 178.852 44.453C177.886 46.0106 176.455 47.263 174.559 48.21C172.7 49.1072 170.437 49.5558 167.771 49.5558ZM189.438 11.3497C188.019 11.3497 186.851 10.8761 185.934 9.92909C185.041 8.9945 184.594 7.87298 184.594 6.56455C184.594 5.24366 185.041 4.11592 185.934 3.18132C186.851 2.23427 188.019 1.76074 189.438 1.76074C190.845 1.76074 192.013 2.23427 192.942 3.18132C193.872 4.11592 194.337 5.24366 194.337 6.56455C194.337 7.87298 193.872 8.9945 192.942 9.92909C192.013 10.8761 190.845 11.3497 189.438 11.3497ZM193.493 48.939H185.438V16.3778H193.493V48.939ZM207.766 48.939H199.712V16.3965H207.766V21.0508H208.133C208.451 20.4775 208.953 19.7859 209.638 18.976C210.322 18.1161 211.27 17.3747 212.481 16.7516C213.692 16.1036 215.227 15.7796 217.086 15.7796C219.545 15.7796 221.557 16.3529 223.122 17.4993C224.737 18.6083 225.929 20.0788 226.7 21.9106C227.507 23.7548 227.911 25.7424 227.911 27.8733V48.939H219.857V28.9761C219.857 27.2191 219.373 25.705 218.407 24.434C217.441 23.1629 215.992 22.5274 214.059 22.5274C212.567 22.5274 211.356 22.9199 210.426 23.705C209.497 24.4402 208.812 25.3997 208.372 26.5835C207.968 27.7674 207.766 29.0197 207.766 30.3406V48.939ZM248.532 49.5558C245.792 49.5558 243.414 49.0823 241.395 48.1353C239.414 47.1508 237.763 45.8611 236.442 44.2661C235.145 42.6212 234.173 40.7956 233.525 38.7893C232.889 36.7831 232.571 34.7394 232.571 32.6584C232.571 30.5649 232.87 28.54 233.47 26.5835C234.118 24.5648 235.066 22.7393 236.313 21.1068C237.598 19.4744 239.23 18.1847 241.212 17.2376C243.193 16.2532 245.529 15.761 248.22 15.761C251.131 15.761 253.694 16.4152 255.908 17.7236C258.134 19.032 259.87 20.9573 261.118 23.4994C262.365 26.0041 262.989 29.1194 262.989 32.8453V34.9201H240.662C240.784 37.1382 241.53 39.0635 242.9 40.6959C244.27 42.2909 246.147 43.0885 248.532 43.0885C249.902 43.0885 251.033 42.8642 251.926 42.4156C252.807 41.967 253.492 41.456 253.981 40.8828C254.458 40.2722 254.801 39.7613 255.009 39.3501C255.204 38.9015 255.302 38.6772 255.302 38.6772H262.751C262.751 38.6772 262.647 39.0448 262.439 39.78C262.243 40.4778 261.864 41.3813 261.301 42.4903C260.775 43.5495 259.987 44.6337 258.935 45.7427C257.883 46.8019 256.513 47.6991 254.825 48.4343C253.125 49.182 251.027 49.5558 248.532 49.5558ZM240.662 29.5929H255.247C255.125 27.0508 254.379 25.163 253.009 23.9293C251.639 22.7081 250.024 22.0975 248.165 22.0975C246.11 22.0975 244.398 22.7704 243.028 24.1162C241.658 25.4246 240.869 27.2502 240.662 29.5929ZM280.84 49.5558C278.211 49.5558 276.052 49.2069 274.364 48.5091C272.664 47.7739 271.312 46.8705 270.31 45.7988C269.343 44.6897 268.616 43.6056 268.126 42.5464C267.649 41.4747 267.325 40.5962 267.154 39.9108C267.044 39.1632 266.989 38.7893 266.989 38.7893H274.603C274.603 38.7893 274.664 39.0199 274.786 39.4809C274.945 39.9295 275.226 40.4591 275.63 41.0697C276.07 41.643 276.737 42.1539 277.63 42.6025C278.51 43.0511 279.679 43.2754 281.134 43.2754C282.871 43.2754 284.118 42.9078 284.877 42.1726C285.647 41.4 286.033 40.5401 286.033 39.5931C286.033 38.6959 285.69 37.9794 285.005 37.4435C284.357 36.8703 283.391 36.4404 282.106 36.1538L277.685 35.2379C275.911 34.864 274.26 34.3282 272.731 33.6304C271.19 32.8952 269.937 31.917 268.97 30.6958C268.004 29.4247 267.521 27.8047 267.521 25.8359C267.521 22.9324 268.609 20.5398 270.787 18.6582C272.964 16.7267 275.93 15.761 279.685 15.761C282.057 15.761 284.014 16.0912 285.556 16.7516C287.121 17.3996 288.369 18.2158 289.298 19.2003C290.264 20.1847 290.974 21.1691 291.426 22.1536C291.903 23.138 292.203 23.9791 292.325 24.677C292.484 25.325 292.564 25.649 292.564 25.649H285.189C285.189 25.649 285.127 25.4683 285.005 25.1069C284.883 24.6957 284.62 24.2408 284.216 23.7424C283.862 23.2564 283.299 22.8265 282.528 22.4526C281.807 22.0414 280.816 21.8358 279.556 21.8358C277.868 21.8358 276.664 22.2096 275.942 22.9573C275.245 23.6925 274.896 24.4651 274.896 25.2751C274.896 26.1848 275.281 26.8826 276.052 27.3686C276.823 27.8671 277.813 28.2347 279.024 28.4714L283.189 29.406C286.173 30.0166 288.613 31.0821 290.509 32.6023C292.442 34.1101 293.408 36.2971 293.408 39.1632C293.408 41.0947 292.906 42.8579 291.903 44.453C290.937 46.0106 289.506 47.2568 287.61 48.1913C285.751 49.101 283.495 49.5558 280.84 49.5558ZM310.36 49.5558C307.73 49.5558 305.572 49.2069 303.884 48.5091C302.184 47.7739 300.832 46.8705 299.829 45.7988C298.863 44.6897 298.135 43.6056 297.646 42.5464C297.169 41.4747 296.845 40.5962 296.674 39.9108C296.551 39.1632 296.49 38.7893 296.49 38.7893H304.122C304.122 38.7893 304.183 39.0199 304.306 39.4809C304.465 39.9295 304.746 40.4591 305.15 41.0697C305.59 41.643 306.257 42.1539 307.149 42.6025C308.03 43.0511 309.198 43.2754 310.654 43.2754C312.39 43.2754 313.638 42.9078 314.396 42.1726C315.167 41.4 315.552 40.5401 315.552 39.5931C315.552 38.6959 315.21 37.9794 314.525 37.4435C313.876 36.8703 312.91 36.4404 311.626 36.1538L307.204 35.2379C305.431 34.864 303.78 34.3282 302.251 33.6304C300.71 32.8952 299.456 31.917 298.49 30.6958C297.524 29.4247 297.04 27.8047 297.04 25.8359C297.04 22.9324 298.129 20.5398 300.306 18.6582C302.483 16.7267 305.449 15.761 309.204 15.761C311.577 15.761 313.534 16.0912 315.075 16.7516C316.641 17.3996 317.888 18.2158 318.818 19.2003C319.784 20.1847 320.487 21.1691 320.928 22.1536C321.417 23.138 321.723 23.9791 321.845 24.677C322.004 25.325 322.083 25.649 322.083 25.649H314.708C314.708 25.649 314.647 25.4683 314.525 25.1069C314.402 24.6957 314.139 24.2408 313.736 23.7424C313.369 23.2564 312.806 22.8265 312.048 22.4526C311.314 22.0414 310.323 21.8358 309.076 21.8358C307.388 21.8358 306.177 22.2096 305.443 22.9573C304.758 23.6925 304.416 24.4651 304.416 25.2751C304.416 26.1848 304.801 26.8826 305.572 27.3686C306.342 27.8671 307.333 28.2347 308.544 28.4714L312.708 29.406C315.693 30.0166 318.133 31.0821 320.029 32.6023C321.961 34.1101 322.927 36.2971 322.927 39.1632C322.927 41.0947 322.426 42.8579 321.423 44.453C320.457 46.0106 319.026 47.2568 317.13 48.1913C315.271 49.101 313.014 49.5558 310.36 49.5558Z" fill="white"></path><path d="M5.38107 30.6851C1.30462 26.497 1.33294 19.7345 5.44433 15.5806C9.55572 11.4268 16.1933 11.4546 20.2697 15.6427L39.4859 35.3853L24.5972 50.4276L5.38107 30.6851Z" fill="#7071FD"></path><path d="M43.3601 3.55288C47.4544 -0.61846 54.0925 -0.61846 58.1868 3.55288C62.2811 7.72421 62.2811 14.4873 58.1868 18.6586L25.854 51.6L11.0273 36.4942L43.3601 3.55288Z" fill="#494AE9"></path></g><defs><clipPath id="clip0_5172_1182"><rect width="324" height="52" fill="white"></rect></clipPath></defs></svg>