<svg xmlns="http://www.w3.org/2000/svg" width="192" height="64" viewBox="0 0 192 64" fill="none"><g clip-path="url(#clip0_5232_984)"><path d="M71.6984 48.9004C69.3651 48.9004 67.3984 48.4671 65.7984 47.6004C64.1984 46.6671 62.9651 45.4671 62.0984 44.0004C61.2984 42.5337 60.8984 40.9004 60.8984 39.1004C60.8984 37.5671 61.1318 36.2004 61.5984 35.0004C62.0651 33.7337 62.7984 32.6337 63.7984 31.7004C64.8651 30.7004 66.2651 29.9004 67.9984 29.3004C69.1984 28.8337 70.6318 28.4337 72.2984 28.1004C73.9651 27.7671 75.8318 27.4671 77.8984 27.2004C80.0318 26.8671 82.3318 26.5004 84.7984 26.1004L81.8984 27.7004C81.8984 25.7671 81.4318 24.3671 80.4984 23.5004C79.5651 22.5671 78.0318 22.1004 75.8984 22.1004C74.6984 22.1004 73.4651 22.4004 72.1984 23.0004C70.8651 23.6004 69.9318 24.6337 69.3984 26.1004L61.9984 23.8004C62.8651 21.0671 64.4318 18.8671 66.6984 17.2004C68.8984 15.5337 71.9651 14.7004 75.8984 14.7004C78.7651 14.7004 81.2984 15.1337 83.4984 16.0004C85.6984 16.8671 87.3984 18.4004 88.5984 20.6004C89.1984 21.8004 89.5651 23.0004 89.6984 24.2004C89.8318 25.4004 89.8984 26.7337 89.8984 28.2004V48.0004H82.6984V41.3004L83.7984 42.7004C82.1984 44.9004 80.4651 46.5004 78.5984 47.5004C76.7984 48.4337 74.4984 48.9004 71.6984 48.9004ZM73.3984 42.5004C74.9318 42.5004 76.1984 42.2337 77.1984 41.7004C78.2651 41.1671 79.0984 40.5671 79.6984 39.9004C80.2984 39.2337 80.6984 38.6671 80.8984 38.2004C81.3651 37.2671 81.6318 36.2337 81.6984 35.1004C81.7651 33.9004 81.7984 32.9337 81.7984 32.2004L84.1984 32.8004C81.7318 33.2004 79.7651 33.5337 78.2984 33.8004C76.7651 34.0671 75.5651 34.3004 74.6984 34.5004C73.7651 34.7004 72.9318 34.9337 72.1984 35.2004C71.3984 35.5337 70.7651 35.9004 70.2984 36.3004C69.8318 36.6337 69.4651 37.0337 69.1984 37.5004C68.9984 37.9004 68.8984 38.3671 68.8984 38.9004C68.8984 39.6337 69.0651 40.3004 69.3984 40.9004C69.7984 41.3671 70.3318 41.7671 70.9984 42.1004C71.6651 42.3671 72.4651 42.5004 73.3984 42.5004ZM111.798 48.9004C108.598 48.9004 105.898 48.1337 103.698 46.6004C101.565 45.1337 99.9318 43.1004 98.7984 40.5004C97.7318 37.9671 97.1984 35.0671 97.1984 31.8004C97.1984 28.5337 97.7318 25.6337 98.7984 23.1004C99.8651 20.5004 101.465 18.4671 103.598 17.0004C105.665 15.4671 108.265 14.7004 111.398 14.7004C114.465 14.7004 117.165 15.4337 119.498 16.9004C121.765 18.3671 123.532 20.4004 124.798 23.0004C126.065 25.6004 126.698 28.5337 126.698 31.8004C126.698 35.0671 126.065 37.9671 124.798 40.5004C123.598 43.1004 121.865 45.1337 119.598 46.6004C117.398 48.1337 114.798 48.9004 111.798 48.9004ZM103.998 62.4004H95.7984V15.6004H102.998V37.8004H103.998V62.4004ZM110.498 41.6004C112.232 41.6004 113.665 41.1671 114.798 40.3004C115.932 39.4337 116.765 38.2671 117.298 36.8004C117.832 35.2671 118.098 33.6004 118.098 31.8004C118.098 30.0004 117.798 28.3671 117.198 26.9004C116.665 25.3671 115.798 24.1671 114.598 23.3004C113.465 22.4337 111.998 22.0004 110.198 22.0004C108.465 22.0004 107.065 22.4004 105.998 23.2004C104.998 24.0004 104.232 25.1337 103.698 26.6004C103.232 28.1337 102.998 29.8671 102.998 31.8004C102.998 33.7337 103.232 35.4671 103.698 37.0004C104.232 38.4671 105.032 39.6004 106.098 40.4004C107.165 41.2004 108.632 41.6004 110.498 41.6004ZM146.198 48.9004C142.998 48.9004 140.332 48.1337 138.198 46.6004C135.998 45.1337 134.365 43.1004 133.298 40.5004C132.165 37.9671 131.598 35.0671 131.598 31.8004C131.598 28.5337 132.165 25.6337 133.298 23.1004C134.365 20.5004 135.932 18.4337 137.998 16.9004C140.132 15.4337 142.732 14.7004 145.798 14.7004C148.865 14.7004 151.565 15.4337 153.898 16.9004C156.232 18.3671 157.998 20.4004 159.198 23.0004C160.532 25.5337 161.198 28.4671 161.198 31.8004C161.198 35.0671 160.565 37.9671 159.298 40.5004C158.032 43.1004 156.298 45.1337 154.098 46.6004C151.832 48.1337 149.198 48.9004 146.198 48.9004ZM138.498 62.4004H130.298V15.6004H137.498V37.8004H138.498V62.4004ZM144.898 41.6004C146.632 41.6004 148.065 41.1671 149.198 40.3004C150.332 39.4337 151.165 38.2671 151.698 36.8004C152.232 35.2671 152.498 33.6004 152.498 31.8004C152.498 30.0004 152.232 28.3671 151.698 26.9004C151.098 25.3671 150.232 24.1671 149.098 23.3004C147.898 22.4337 146.398 22.0004 144.598 22.0004C142.932 22.0004 141.565 22.4004 140.498 23.2004C139.432 24.0004 138.665 25.1337 138.198 26.6004C137.732 28.1337 137.498 29.8671 137.498 31.8004C137.498 33.7337 137.732 35.4671 138.198 37.0004C138.665 38.4671 139.432 39.6004 140.498 40.4004C141.632 41.2004 143.098 41.6004 144.898 41.6004ZM175.898 48.0004H167.798V3.90039H175.898V48.0004ZM191.898 11.1004H183.698V3.90039H191.898V11.1004ZM191.898 48.0004H183.698V15.6004H191.898V48.0004Z" fill="#2C2E3C"></path><path d="M26.4068 0H26.5085L26.6102 0.101695L26.7119 0.271186L27.0508 0.711864L27.7966 1.66102L28.7458 2.88136L29.1525 3.38983L29.5593 3.9322L30 4.47458L30.3051 4.88136L30.7458 5.45763L30.5763 5.62712L30.0339 6.0678L29.5932 6.40678L28.9831 6.88136L28.5085 7.25424L27.8983 7.72881L27.4237 8.10169L26.5085 8.81356L26.0339 9.18644L25.5932 9.52542L24.6441 10.2712L24.2034 10.6102L22.7797 11.7288L22.2034 12.1695L21.7288 12.5424L21.1186 13.0169L20.6102 13.4237L20.1695 13.7627L19.6949 14.1356L18.8136 14.8136L18.5424 15.0169L18.9153 14.9153L20.5424 14.339L24 13.1186L27.4576 11.8983L28.5763 11.4915L29.5593 11.1525L31.3898 10.5085L32.8136 10L33.7966 9.66102L34 9.62712L34.3051 10L34.6441 10.4407L35.5932 11.661L36.339 12.6102L36.8136 13.2203L37.5593 14.1695L37.8983 14.6102L38.3729 15.2203L38.7797 15.7288L38.7458 15.8644L38.3051 16.2034L37.7966 16.6102L37.3898 16.9153L36.8814 17.322L36.4407 17.661L35.4915 18.4068L35.0508 18.7458L33.8305 19.6949L33.4915 19.9661L33.0508 20.3051L32.5763 20.678L31.9661 21.1525L31.4915 21.5254L30.8814 22L30.3051 22.4407L29.7966 22.8475L29.3559 23.1864L28.4068 23.9322L27.8305 24.3729L27.2881 24.8136L26.8475 25.1525L26.2373 25.6271L25.7627 26L25.3559 26.3051L25.4915 26.2712L35.1525 22.5763L37.0169 21.8644L40.0339 20.7119L41.2881 20.2373L41.8305 20.0339L41.9661 20.0678L42.1695 20.3729L42.6441 21.2203L43.1186 22.1356L43.4915 22.9492L43.8644 23.8644L44.2712 25.0169L44.6102 26.1695L44.9153 27.4576V27.6271L44.4746 28L43.9322 28.4068L43.4237 28.8136L42.8475 29.2542L42.339 29.661L41.7627 30.1017L41.2542 30.5085L40.7797 30.8814L40.2373 31.2881L39.8644 31.5932L39.2881 32.0339L38.7797 32.4407L38.339 32.7797L37.8644 33.1525L37.4237 33.4915L36.4746 34.2373L36.0339 34.5763L35.0847 35.322L34.6441 35.661L34.1695 36.0339L33.5593 36.5085L32.6102 37.2542L31.6949 37.9661L30.7458 38.7119L29.8644 39.3898L29.6949 39.5254L30.9492 39.0847L32.7458 38.4407L35.7966 37.3559L40.3729 35.7288L42 35.1525L43.6949 34.5424L44.8475 34.1356L45.1525 34.0339H45.2881L45.2203 34.678L45.0169 36.0339L44.8475 36.9153L44.5085 38.2712L44.2034 39.2542L43.7966 40.3729L43.4237 41.2881L43.1864 41.7627L42.8136 42.5424L42.339 43.4237L42.0678 43.8644L41.7288 44.4068L41.322 45.0169L40.8814 45.6271L40.5424 46.0678L40.1017 46.6102L39.7288 47.0508L38.9831 47.8644L38.1695 48.678L37.8983 48.9153L37.5254 49.2542L37.1525 49.5593L36.5763 50.0339L36 50.4746L35.0508 51.2203L34.7458 51.4576L34.3051 51.7966L33.3559 52.5424L32.7797 52.9831L32.2373 53.4237L31.8305 53.7288L30.8814 54.4746L30.4407 54.8136L29.8305 55.2881L29.322 55.6949L29.0169 55.9322L28.4746 56.339L27.9322 56.7797L27.2542 57.2881L26.8475 57.6271L25.9661 58.3051L25.4915 58.678L24.2712 59.6271L23.7966 60L23.4576 60.2712L22.9153 60.678L22.3729 61.1186L21.6949 61.6271L21.2881 61.9661L20.7458 62.3729L20.2034 62.8136L19.661 63.2203L19.1864 63.5932L18.7458 63.9322L18.7119 64H18.6441L18.2373 63.4576L17.7627 62.8475L17.3898 62.3729L16.9153 61.7627L16.5085 61.2542L16.1695 60.8136L15.7966 60.339L15.4576 59.8983L15.0508 59.3898L14.3729 58.5085L14.2034 58.2712L14.2373 58.1695L14.7119 57.8305L15.2203 57.4237L15.6949 57.0508L17.5254 55.6271L18 55.2542L18.6102 54.7797L19.1186 54.3729L19.661 53.9661L20.2034 53.5254L20.7458 53.1186L21.2881 52.678L21.8305 52.2712L22.339 51.8644L22.9153 51.4237L23.4237 51.0169L23.8644 50.678L24.339 50.3051L24.9492 49.8305L25.5254 49.3898L26.0339 48.9831L26.3729 48.7458L25.661 48.9831L24.0339 49.5593L22.8475 49.9661L21.2203 50.5424L19.4576 51.1525L17.8305 51.7288L14.4407 52.9153L11.1525 54.0678L10.9153 54.1017L10.5085 53.5593L10.1695 53.1186L9.76271 52.6102L9.42373 52.1695L9.05085 51.6949L8.71186 51.2542L8.23729 50.6441L7.49153 49.6949L6.54237 48.4746L6.13559 47.9322L6.27119 47.7966L6.67797 47.4915L7.28814 47.0169L7.76271 46.6441L8.27119 46.2373L9.15254 45.5593L10.1017 44.8136L10.7119 44.339L11.1864 43.9661L11.6271 43.6271L12.8475 42.678L13.322 42.3051L13.8305 41.8983L14.3729 41.4915L14.7458 41.1864L15.322 40.7458L15.8305 40.339L16.7119 39.661L17.1864 39.2881L17.7966 38.8136L18.3051 38.4068L18.7458 38.0678L19.661 37.3559L18.678 37.7288L14.0678 39.4915L7.52542 42L3.18644 43.661L3.01695 43.6271L2.71186 43.1186L2.23729 42.2373L1.79661 41.322L1.35593 40.2373L1.05085 39.3898L0.813559 38.678L0.542373 37.7288L0.237288 36.339L0.20339 36.1695V35.9322L0.745763 35.5254L1.25424 35.1186L1.83051 34.678L2.33898 34.2712L3.86441 33.0847L4.81356 32.339L5.42373 31.8644L5.89831 31.4915L6.33898 31.1525L7.55932 30.2034L8.0339 29.8305L8.54237 29.4237L9.08475 29.0169L9.62712 28.5763L10.1695 28.1695L10.7119 27.7288L11.2542 27.322L11.7627 26.9153L12.2034 26.5763L12.678 26.2034L13.1186 25.8644L13.7288 25.3898L14.2373 24.9831L14.678 24.6441L15.2881 24.1695L15.3559 24.1017L13.5593 24.7119L12.3051 25.1525L10.9831 25.6271L6.0339 27.3559L4.81356 27.7966L3.83051 28.1356L2.88136 28.4746L1.89831 28.8136L0.542373 29.2881L0.169492 29.4237H0L0.101695 28.5424L0.338983 27.2542L0.576271 26.2712L0.847458 25.322L1.25424 24.1017L1.69492 23.0169L2.10169 22.1356L2.54237 21.2542L2.98305 20.4746L3.35593 19.8644L3.89831 19.0508L4.30508 18.4746L4.77966 17.8644L5.08475 17.4915L5.45763 17.0508L5.76271 16.7119L5.79661 16.6441H5.86441L5.9322 16.5085L7.15254 15.2881L7.42373 15.0508L7.76271 14.7458L8.13559 14.4407L8.67797 14L10.5763 12.5085L11.0847 12.1017L11.661 11.661L12.0339 11.3559L12.6441 10.8814L13.1864 10.4407L13.4915 10.2034L13.9322 9.86441L14.4068 9.49153L14.9492 9.05085L15.8644 8.33898L16.3729 7.9322L16.9492 7.49153L17.5254 7.01695L17.9661 6.67797L18.4407 6.30508L18.9492 5.89831L19.5254 5.45763L20.0678 5.01695L20.5424 4.64407L20.9831 4.30508L21.4915 3.89831L21.9661 3.52542L22.3051 3.25424L22.9153 2.77966L23.4237 2.37288L24 1.9322L24.5763 1.45763L25.0169 1.11864L25.4915 0.745763L26.339 0.0677966H26.4068V0Z" fill="url(#paint0_linear_5232_984)"></path></g><defs><linearGradient id="paint0_linear_5232_984" x1="-13.7069" y1="31.2309" x2="62.2052" y2="31.2309" gradientUnits="userSpaceOnUse"><stop offset="0.0586165" stop-color="#FF6766"></stop><stop offset="0.352322" stop-color="#E651A3"></stop><stop offset="0.677063" stop-color="#C652D7"></stop><stop offset="0.905197" stop-color="#5CA9F7"></stop></linearGradient><clipPath id="clip0_5232_984"><rect width="192" height="64" fill="white"></rect></clipPath></defs></svg>