<svg xmlns="http://www.w3.org/2000/svg" width="276" height="72" viewBox="0 0 276 72" fill="none"><g clip-path="url(#clip0_5221_1099)"><mask id="mask0_5221_1099" style="mask-type:alpha" maskUnits="userSpaceOnUse" x="0" y="0" width="72" height="72"><path d="M36 72C16.0905 72 0 55.9095 0 36C0 16.0905 16.0905 0 36 0C55.9095 0 72 16.0905 72 36C72 55.9095 55.9095 72 36 72Z" fill="#CC9A45"></path></mask><g mask="url(#mask0_5221_1099)"><path d="M36 72C16.0905 72 0 55.9095 0 36C0 16.0905 16.0905 0 36 0C55.9095 0 72 16.0905 72 36C72 55.9095 55.9095 72 36 72Z" fill="#D59830"></path><rect x="12.0039" y="25.9967" width="48" height="6.00969" rx="3.00485" fill="white"></rect><path d="M29.9727 73.4799L29.9727 46.0332C29.9727 43.8315 28.1878 42.0466 25.986 42.0466V42.0466C23.7842 42.0466 21.9994 43.8315 21.9994 46.0332L21.9994 73.4799H29.9727Z" fill="white"></path><path d="M39.5703 73.4799V45.555C39.5703 43.6174 37.9995 42.0466 36.0619 42.0466V42.0466C34.1242 42.0466 32.5535 43.6174 32.5535 45.555V73.4799H39.5703Z" fill="white"></path><path d="M49.9258 73.4799V45.9746C49.9258 43.8052 48.1672 42.0466 45.9978 42.0466V42.0466C43.8285 42.0466 42.0699 43.8052 42.0699 45.9746V73.4799H49.9258Z" fill="white"></path><rect x="15.9883" y="33.9836" width="40.0129" height="6.00969" rx="3.00485" fill="white"></rect></g><path d="M92.0469 58.9429V18.5781H98.1593V54.0991H116.496V58.9429H92.0469Z" fill="#0E2934"></path><path d="M131.955 59.6349C129.533 59.6349 127.534 59.2312 125.958 58.4239C124.382 57.6166 123.21 56.5595 122.441 55.2524C121.672 53.9069 121.288 52.4461 121.288 50.8699C121.288 48.1021 122.364 45.9108 124.517 44.2962C126.669 42.6816 129.745 41.8743 133.743 41.8743H141.239V41.3554C141.239 39.1257 140.624 37.4534 139.394 36.3386C138.202 35.2238 136.645 34.6663 134.723 34.6663C133.032 34.6663 131.552 35.0892 130.283 35.9349C129.053 36.7422 128.303 37.9532 128.034 39.5678H121.922C122.114 37.4919 122.806 35.7235 123.998 34.2627C125.228 32.7634 126.766 31.6294 128.611 30.8605C130.495 30.0532 132.551 29.6496 134.781 29.6496C138.779 29.6496 141.874 30.7067 144.065 32.8211C146.256 34.897 147.352 37.7418 147.352 41.3554V58.9429H142.047L141.528 54.0415C140.72 55.6176 139.548 56.9439 138.01 58.0203C136.472 59.0967 134.454 59.6349 131.955 59.6349ZM133.166 54.6758C134.819 54.6758 136.203 54.2913 137.318 53.5225C138.471 52.7152 139.356 51.658 139.971 50.351C140.624 49.0439 141.028 47.6023 141.182 46.0262H134.377C131.955 46.0262 130.225 46.449 129.187 47.2948C128.188 48.1405 127.688 49.1977 127.688 50.4663C127.688 51.7733 128.169 52.8113 129.13 53.5802C130.129 54.3106 131.475 54.6758 133.166 54.6758Z" fill="#0E2934"></path><path d="M158.584 58.9429L150.165 30.3415H156.277L161.813 51.9079L168.04 30.3415H174.845L181.073 51.9079L186.608 30.3415H192.721L184.302 58.9429H178.016L171.443 36.4539L164.869 58.9429H158.584Z" fill="#0E2934"></path><path d="M201.1 71.629L207.962 56.5787H206.29L194.988 30.3415H201.619L210.384 51.5042L219.553 30.3415H226.011L207.559 71.629H201.1Z" fill="#0E2934"></path><path d="M240.671 59.6349C237.865 59.6349 235.366 59.0198 233.175 57.7896C231.022 56.521 229.33 54.7719 228.1 52.5422C226.87 50.3125 226.255 47.7176 226.255 44.7576C226.255 41.759 226.851 39.1257 228.043 36.8576C229.273 34.5895 230.964 32.8211 233.117 31.5525C235.308 30.2839 237.846 29.6496 240.729 29.6496C243.535 29.6496 245.976 30.2839 248.052 31.5525C250.128 32.7826 251.743 34.4357 252.896 36.5116C254.049 38.5875 254.626 40.8748 254.626 43.3736C254.626 43.758 254.607 44.1809 254.568 44.6422C254.568 45.0651 254.549 45.5456 254.51 46.0838H232.252C232.444 48.8517 233.348 50.966 234.962 52.4269C236.615 53.8493 238.518 54.5604 240.671 54.5604C242.401 54.5604 243.843 54.176 244.996 53.4072C246.188 52.5999 247.072 51.5235 247.648 50.178H253.761C252.992 52.869 251.454 55.1179 249.148 56.9247C246.88 58.7315 244.054 59.6349 240.671 59.6349ZM240.671 34.6663C238.634 34.6663 236.827 35.2814 235.251 36.5116C233.674 37.7033 232.713 39.5101 232.367 41.932H248.513C248.398 39.7023 247.61 37.934 246.149 36.6269C244.688 35.3199 242.862 34.6663 240.671 34.6663Z" fill="#0E2934"></path><path d="M259.238 58.9429V30.3415H264.716L265.235 35.762C266.235 33.8783 267.618 32.3982 269.387 31.3218C271.194 30.207 273.366 29.6496 275.903 29.6496V36.0503H274.231C272.539 36.0503 271.021 36.3386 269.675 36.9152C268.368 37.4534 267.311 38.3953 266.504 39.7408C265.735 41.0478 265.35 42.8739 265.35 45.2189V58.9429H259.238Z" fill="#0E2934"></path></g><defs><clipPath id="clip0_5221_1099"><rect width="276" height="72" fill="white"></rect></clipPath></defs></svg>