<svg xmlns="http://www.w3.org/2000/svg" width="298" height="70" viewBox="0 0 298 70" fill="none"><path d="M109.921 47.5859L114.558 52.406C113.019 54.1746 111.149 55.5518 108.948 56.5374C106.748 57.496 104.344 57.9753 101.739 57.9753C98.5118 57.9753 95.6158 57.2462 93.0505 55.7881C90.5122 54.3434 88.5005 52.3789 87.0154 49.8947C85.5572 47.3834 84.8281 44.5414 84.8281 41.3685C84.8281 38.1957 85.5572 35.3672 87.0154 32.8829C88.5005 30.3716 90.5122 28.3937 93.0505 26.949C95.6158 25.5044 98.5118 24.782 101.739 24.782C104.317 24.782 106.7 25.2546 108.888 26.1997C111.088 27.1583 112.958 28.5152 114.498 30.2704L109.921 35.1511C108.975 34.098 107.821 33.2879 106.457 32.7209C105.134 32.1403 103.717 31.85 102.204 31.85C100.382 31.85 98.7616 32.2551 97.3439 33.0652C95.9398 33.8752 94.8394 34.9959 94.0428 36.427C93.2598 37.8447 92.8682 39.4783 92.8682 41.328C92.8682 43.1912 93.2598 44.8452 94.0428 46.2898C94.8394 47.7075 95.9398 48.8348 97.3439 49.6719C98.7616 50.482 100.382 50.887 102.204 50.887C103.717 50.887 105.148 50.5968 106.498 50.0162C107.848 49.4221 108.989 48.6121 109.921 47.5859ZM134.527 57.9753C131.287 57.9753 128.384 57.2462 125.818 55.7881C123.28 54.3434 121.268 52.3789 119.783 49.8947C118.325 47.3834 117.596 44.5414 117.596 41.3685C117.596 38.1957 118.325 35.3672 119.783 32.8829C121.268 30.3716 123.28 28.3937 125.818 26.949C128.384 25.5044 131.287 24.782 134.527 24.782C137.754 24.782 140.636 25.5044 143.175 26.949C145.713 28.3937 147.704 30.3716 149.149 32.8829C150.607 35.3672 151.336 38.1957 151.336 41.3685C151.336 44.5414 150.607 47.3834 149.149 49.8947C147.704 52.3789 145.713 54.3434 143.175 55.7881C140.636 57.2462 137.754 57.9753 134.527 57.9753ZM134.466 50.9073C136.167 50.9073 137.679 50.4955 139.003 49.6719C140.339 48.8348 141.392 47.694 142.162 46.2493C142.945 44.8046 143.337 43.1642 143.337 41.328C143.337 39.5188 142.945 37.9054 142.162 36.4878C141.392 35.0431 140.339 33.9023 139.003 33.0652C137.679 32.2416 136.167 31.8298 134.466 31.8298C132.792 31.8298 131.28 32.2416 129.93 33.0652C128.593 33.9023 127.533 35.0431 126.75 36.4878C125.98 37.9054 125.596 39.5188 125.596 41.328C125.596 43.1642 125.98 44.8046 126.75 46.2493C127.533 47.694 128.593 48.8348 129.93 49.6719C131.28 50.4955 132.792 50.9073 134.466 50.9073ZM187.709 38.9383V57.3272H179.892V40.4774C179.892 37.8177 179.21 35.7182 177.846 34.179C176.496 32.6264 174.667 31.85 172.358 31.85C169.982 31.85 168.071 32.6736 166.626 34.3208C165.195 35.941 164.48 38.1214 164.48 40.8622V57.3272H156.662V25.4099H163.103L163.366 30.5539C164.5 28.6772 166.005 27.2528 167.882 26.2807C169.759 25.2816 171.96 24.782 174.484 24.782C178.589 24.782 181.816 26.0309 184.165 28.5287C186.528 31.04 187.709 34.5098 187.709 38.9383ZM192.326 54.5729L194.088 47.748C194.79 48.45 195.661 49.0914 196.701 49.6719C197.741 50.239 198.841 50.698 200.002 51.0491C201.19 51.3596 202.345 51.5149 203.465 51.5149C204.977 51.5149 206.186 51.2043 207.09 50.5833C208.008 49.9487 208.467 49.1251 208.467 48.1125C208.467 47.3024 208.191 46.6273 207.637 46.0873C207.084 45.5337 206.361 45.0544 205.47 44.6494C204.579 44.2308 203.607 43.819 202.554 43.414C201.15 42.901 199.725 42.2934 198.281 41.5913C196.849 40.8622 195.648 39.9171 194.676 38.756C193.717 37.5679 193.238 35.995 193.238 34.0373C193.238 32.1336 193.717 30.4931 194.676 29.116C195.648 27.7254 196.998 26.6587 198.726 25.9162C200.468 25.1601 202.493 24.782 204.802 24.782C208.447 24.782 212.079 25.6934 215.697 27.5161L213.449 33.9563C212.774 33.4567 211.951 32.9909 210.979 32.5589C209.993 32.1403 208.994 31.8028 207.981 31.5463C206.969 31.2897 206.051 31.1615 205.227 31.1615C204.012 31.1615 203.047 31.4247 202.331 31.9513C201.602 32.4914 201.237 33.1934 201.237 34.0575C201.237 34.6516 201.44 35.1984 201.845 35.6979C202.25 36.157 202.878 36.6093 203.728 37.0548C204.579 37.5004 205.666 37.9999 206.989 38.5535C208.434 39.1071 209.878 39.7551 211.323 40.4977C212.781 41.2268 213.996 42.1989 214.968 43.414C215.967 44.6021 216.467 46.1885 216.467 48.1733C216.467 50.131 215.934 51.8389 214.867 53.297C213.841 54.7687 212.383 55.9231 210.493 56.7602C208.629 57.5702 206.449 57.9753 203.951 57.9753C199.793 57.9753 195.918 56.8412 192.326 54.5729ZM252.131 25.4099V57.3272H245.671L245.428 52.1832C244.28 54.0599 242.775 55.4978 240.911 56.4969C239.048 57.4825 236.847 57.9753 234.309 57.9753C230.218 57.9753 226.985 56.7197 224.608 54.2084C222.259 51.6701 221.084 48.1868 221.084 43.7583V25.4099H228.902V42.2596C228.902 44.9194 229.57 47.0256 230.907 48.5783C232.257 50.1175 234.086 50.887 236.395 50.887C238.785 50.887 240.702 50.0635 242.147 48.4163C243.591 46.7826 244.314 44.6021 244.314 41.8748V25.4099H252.131ZM267.968 8.17529V57.3272H259.604V8.17529H267.968ZM295.309 49.7327L296.382 56.4969C294.06 57.4825 291.805 57.9753 289.618 57.9753C287.39 57.9753 285.432 57.496 283.745 56.5374C282.07 55.5788 280.754 54.2489 279.795 52.5477C278.864 50.8195 278.398 48.8146 278.398 46.5328V32.4373H272.829V25.4099H278.803V17.4305H286.215V25.4099H295.268V32.4373H286.215V45.0949C286.215 46.9041 286.701 48.3353 287.673 49.3884C288.673 50.428 289.915 50.9478 291.4 50.9478C292.71 50.9478 294.012 50.5428 295.309 49.7327Z" fill="white"></path><path d="M34.9985 70C28.1601 70 21.4562 68.0077 15.7485 64.2654C10.0139 60.4962 5.54469 55.1385 2.82546 48.8654C0.133148 42.5654 -0.647621 35.6192 0.536994 28.8885C1.74853 22.1577 4.92546 15.9385 9.63699 10.9846C11.2524 9.26154 13.0562 7.7 14.9947 6.35385C16.9331 4.98077 19.0062 3.82308 21.187 2.88077C23.3678 1.93846 25.6293 1.23846 27.9447 0.753846C30.2601 0.269231 32.6293 0 34.9985 0C36.0216 0 37.0178 0.403846 37.7447 1.13077C38.4716 1.85769 38.8755 2.85385 38.8755 3.87692C38.8755 4.9 38.4716 5.89615 37.7447 6.62308C37.0178 7.35 36.0216 7.75385 34.9985 7.75385C31.4178 7.78077 27.8908 8.50769 24.6062 9.88077C21.2947 11.2538 18.3062 13.2462 15.7755 15.7769C13.2447 18.3077 11.2524 21.2962 9.8793 24.6077C8.50622 27.8923 7.7793 31.4192 7.75238 35C7.75238 40.3308 9.31392 45.5269 12.2216 49.9962C15.1562 54.4385 19.3293 57.9385 24.2024 60.0385C29.1024 62.1385 34.5139 62.7577 39.737 61.8154C44.987 60.8731 49.8331 58.3962 53.6831 54.7346C55.0024 53.4962 56.187 52.1231 57.237 50.6423C58.287 49.1615 59.1755 47.5731 59.9024 45.9038C60.6293 44.2615 61.1947 42.5385 61.5985 40.7615C61.9755 38.9846 62.1908 37.1808 62.2447 35.3769C62.1908 34.3 61.7331 33.25 60.9255 32.4962C60.1447 31.7692 59.0947 31.3385 57.9908 31.3654C56.9139 31.3923 55.8639 31.8231 55.1101 32.6038C54.3293 33.3846 53.9255 34.4346 53.9255 35.5385C53.8985 43.3731 49.1601 50.4538 41.9178 53.4423C34.6755 56.4308 26.3293 54.7615 20.7831 49.2154C15.237 43.6692 13.5678 35.3231 16.5562 28.0808C19.5716 20.8385 26.6255 16.1 34.4601 16.1C35.4831 16.1 36.4793 16.5038 37.2062 17.2308C37.9062 17.9577 38.3101 18.9538 38.3101 19.9769C38.3101 21 37.9062 21.9692 37.2062 22.6962C36.4793 23.4231 35.4831 23.8538 34.4601 23.8538C29.7755 23.8538 25.5216 26.7077 23.7447 31.0423C21.9408 35.4039 22.937 40.4115 26.2755 43.7231C29.587 47.0615 34.5947 48.0577 38.9562 46.2538C43.2908 44.4769 46.1447 40.2231 46.1447 35.5385C46.1447 32.4154 47.3562 29.4269 49.537 27.1923C51.7178 24.9577 54.6793 23.6654 57.8024 23.6115C60.9255 23.5308 63.9408 24.6885 66.2293 26.8154C68.4908 28.9423 69.837 31.8769 69.9985 35V35.5385C69.9178 40.0615 68.9485 44.5577 67.1447 48.7308C65.3408 52.9039 62.7562 56.7 59.5255 59.9039C56.2678 63.0808 52.4447 65.6115 48.2447 67.3346C44.0447 69.0846 39.5485 69.9731 34.9985 70Z" fill="url(#paint0_linear_5169_1134)"></path><defs><linearGradient id="paint0_linear_5169_1134" x1="9.08425" y1="58.4404" x2="64.5833" y2="25.3952" gradientUnits="userSpaceOnUse"><stop stop-color="white"></stop><stop offset="1" stop-color="white"></stop></linearGradient></defs></svg>