<svg xmlns="http://www.w3.org/2000/svg" width="304" height="54" viewBox="0 0 304 54" fill="none"><g clip-path="url(#clip0_5232_917)"><path d="M80.3984 7V48.9333H88.9979V21.5392H89.3525L100.221 48.7205H106.073L116.924 21.6456H117.278V48.9333H125.878V7H114.938L103.395 35.1742H102.899L91.3383 7H80.3984ZM141.126 49.5184C145.772 49.5184 148.786 47.4971 150.329 44.5715H150.577V48.9333H158.857V27.7273C158.857 20.2272 152.492 17.0711 145.488 17.0711C137.953 17.0711 132.988 20.6704 131.782 26.4152L139.85 27.0712C140.453 24.979 142.314 23.4364 145.453 23.4364C148.414 23.4364 150.116 24.9435 150.116 27.5145V27.6386C150.116 29.6599 147.97 29.9259 142.492 30.4578C136.268 31.0429 130.683 33.1352 130.683 40.1566C130.683 46.3801 135.116 49.5184 141.126 49.5184ZM143.626 43.5077C140.949 43.5077 139.016 42.2665 139.016 39.8551C139.016 37.4083 141.038 36.2026 144.123 35.777C146.02 35.5111 149.141 35.0501 150.187 34.3586V37.692C150.187 40.9899 147.456 43.5077 143.626 43.5077ZM164.761 48.9333H173.485V31.1493C173.485 27.2663 176.322 24.6067 180.17 24.6067C181.375 24.6067 183.042 24.8194 183.858 25.0854V17.337C183.077 17.1597 181.996 17.0356 181.109 17.0356C177.599 17.0356 174.708 19.0747 173.556 22.9754H173.219V17.4789H164.761V48.9333ZM187.475 48.9333H196.216V38.9509L198.574 36.2735L207.156 48.9333H217.369L205.099 31.1139L216.784 17.4966H206.766L196.677 29.4294H196.216V7H187.475V48.9333ZM233.202 49.5539C240.986 49.5539 246.234 45.7595 247.476 39.9261L239.39 39.3941C238.522 41.7878 236.252 43.0467 233.344 43.0467C228.982 43.0467 226.216 40.1566 226.216 35.4756V35.4579H247.653V33.0465C247.653 22.3726 241.181 17.0888 232.865 17.0888C223.592 17.0888 217.599 23.6492 217.599 33.3657C217.599 43.3304 223.521 49.5539 233.202 49.5539ZM226.216 30.05C226.411 26.4684 229.124 23.596 233.007 23.596C236.802 23.596 239.408 26.2911 239.444 30.05H226.216ZM269.213 17.4966H263.291V9.96104H254.568V17.4966H250.259V24.0393H254.568V40.4225C254.515 46.5928 258.717 49.6425 265.047 49.3766C267.299 49.2879 268.894 48.8446 269.781 48.5609L268.416 42.0537C267.972 42.1424 267.05 42.3552 266.235 42.3552C264.497 42.3552 263.291 41.6991 263.291 39.27V24.0393H269.213V17.4966ZM287.919 49.5716C297.459 49.5716 303.398 43.0289 303.398 33.3479C303.398 23.596 297.459 17.0888 287.919 17.0888C278.363 17.0888 272.423 23.596 272.423 33.3479C272.423 43.0289 278.363 49.5716 287.919 49.5716ZM287.955 42.8162C283.54 42.8162 281.288 38.7736 281.288 33.2947C281.288 27.7982 283.54 23.7556 287.955 23.7556C292.281 23.7556 294.533 27.7982 294.533 33.2947C294.533 38.7736 292.281 42.8162 287.955 42.8162Z" fill="white"></path><path d="M6.83968 0.739412L27.9958 16.6435C28.1438 16.6928 28.2917 16.7422 28.4397 16.7915C28.5876 16.8901 28.7356 16.9394 28.8835 16.9394C29.0315 16.9394 29.1794 16.9148 29.3274 16.8654C29.4753 16.8161 29.6232 16.7422 29.7712 16.6435L51.3712 0.739412C51.963 0.295576 52.5548 0.0736583 53.2945 -0.000314307C53.9602 -0.0742869 54.626 0.0736583 55.2178 0.369549C55.8835 0.739412 56.3274 1.18325 56.6972 1.77503C57.0671 2.36681 57.289 3.03256 57.289 3.69832V45.7887C57.289 46.8243 57.0671 47.86 56.6233 48.8216C56.2534 49.8572 55.6616 50.7449 54.9219 51.4846C54.1822 52.2243 53.2945 52.8161 52.3328 53.186C51.3712 53.6298 50.3356 53.7778 49.226 53.7778H8.91092C7.8753 53.7778 6.83968 53.6298 5.87804 53.186C4.9164 52.8161 4.02872 52.2243 3.289 51.4846C2.54927 50.7449 1.95749 49.8572 1.51366 48.8216C1.14379 47.86 0.921875 46.8243 0.921875 45.7887V3.69832C0.921875 3.03256 1.14379 2.36681 1.43968 1.77503C1.80955 1.18325 2.32735 0.739412 2.91914 0.369549C3.58489 0.0736583 4.25064 -0.0742869 4.9164 -0.000314307C5.58215 0.0736583 6.2479 0.295576 6.83968 0.739412Z" fill="#FF6C45"></path><path d="M45.08 15.0165C47.4471 15.0165 49.2964 16.8658 49.2964 19.1589V42.6083C49.2964 44.9014 47.4471 46.8247 45.08 46.8247C42.7868 46.8247 40.9375 44.9014 40.9375 42.6083V19.1589C40.9375 16.8658 42.7868 15.0165 45.08 15.0165Z" fill="white"></path><path d="M31.994 25.0027C34.2872 25.0027 36.2105 26.8521 36.2105 29.1452V42.6082C36.2105 44.9014 34.2872 46.8247 31.994 46.8247C29.7009 46.8247 27.8516 44.9014 27.8516 42.6082V29.1452C27.8516 26.8521 29.7009 25.0027 31.994 25.0027Z" fill="white"></path><path d="M18.8847 34.1014C21.1778 34.1014 23.1011 35.9507 23.1011 38.3178V42.6082C23.1011 44.9014 21.1778 46.8247 18.8847 46.8247C16.5915 46.8247 14.7422 44.9014 14.7422 42.6082V38.3178C14.7422 35.9507 16.5915 34.1014 18.8847 34.1014Z" fill="white"></path></g><defs><clipPath id="clip0_5232_917"><rect width="304" height="54" fill="white"></rect></clipPath></defs></svg>