<svg xmlns="http://www.w3.org/2000/svg" width="587" height="561" viewBox="0 0 587 561">
  <g id="demo-accounting-company-icon-03" transform="translate(-13 -116)">
    <rect id="Rectangle_1" data-name="Rectangle 1" width="587" height="561" transform="translate(13 116)" fill="none"/>
    <circle id="Ellipse_1" data-name="Ellipse 1" cx="253" cy="253" r="253" transform="translate(89 130)" fill="#ffbd3f"/>
    <g id="svgg" transform="translate(18.64 159.163)">
      <path id="path0" d="M94.53,2.854c-4.868,4.868-4.16,7.7,7.349,29.362l10.113,19.038-3.345.581c-14.594,2.539-10.263,20.408,4.947,20.408h5.418V79.79l-7.029.5c-17.65,1.263-17.493,20.261.169,20.261h6.956L118.816,106l-.292,5.446-6.918,2.688c-43.872,17.041-75.859,54.927-86.455,102.4-2.026,9.076-2.142,12.531-2.8,83.175-.848,90.875-.988,92.135-15.7,141-10.69,35.508-8.271,47.717,11.258,56.81l4.945,2.3,206.026.009c227.522.011,210.31.487,224.509-6.208,40.418-19.056,58.472-77.793,38.272-124.514-4.988-11.539-7.992-15.437-46.537-60.388l-36.166-42.177V252.847h5.295c7.6,0,11.3-3.18,11.3-9.707,0-5.127-3.165-9.818-6.624-9.818-3.538,0-2.987-1.453,10.658-28.108,15.341-29.973,15.655-31.157,9.652-36.568l-2.978-2.685H369.843c-87.947,0-82.709-3.465-60.844,40.241,7.308,14.608,12.821,26.715,12.252,26.9-10.918,3.639-8.081,19.74,3.476,19.74H328.9v13.471l-12.447,14.828-12.447,14.829-.565-34.011c-.733-44.127-2.793-55.06-15.048-79.894-7.509-15.218-9.666-17.572-16.092-17.572-10.6,0-12.782,8.229-5.548,20.893,6.9,12.087,10.51,21.792,14.47,38.94.679,2.937,1.318,31.23,1.771,78.306.87,90.574,1.39,95.2,16.137,143.306,8.126,26.5,7.962,30.79-1.268,33.354-5.008,1.391-264.837,1.392-269.845,0-9.062-2.517-9.387-7.005-2.209-30.5,15.742-51.526,16.162-55.152,17.056-147.137.767-79.019.661-77.375,6.023-93.719a121.063,121.063,0,0,1,69.041-73.9l10.354-4.176,34.657.02,34.656.021,7.323,2.892c10.821,4.274,15.815,3.639,19.082-2.429,3.673-6.822.249-12.375-10.038-16.28l-6.088-2.31-.014-5.613-.015-5.613h7.366c18.55,0,18.015-19.287-.564-20.337l-6.8-.385V72.243h6.394c10.26,0,14.107-2.932,14.107-10.75,0-5.853-4.04-9.752-10.1-9.752h-4.4l9.693-19.917c10.152-20.863,10.6-22.346,8.217-26.961C229.2-.086,230.433,0,161.956,0H97.385L94.53,2.854M142.27,27.578c1.659,4.43,4.349,11.7,5.977,16.147l2.962,8.094-7.887-.284-7.886-.282-8.211-15.577c-4.517-8.567-8.211-15.706-8.211-15.864a89.68,89.68,0,0,1,10.12-.287h10.12l3.017,8.054m63.465-7.211c-.18.462-3.59,7.711-7.581,16.107L190.9,51.741H173.13l-5.583-15.375c-3.07-8.457-5.582-15.706-5.581-16.108s9.922-.732,22.048-.732,21.9.379,21.722.842m-18.386,55.78v3.9H139.513v-7.81h47.836v3.9m0,28.8v4.394H139.513v-8.786h47.836v4.392m54.426,31.807c-5.056,2.944-5.978,11.081-1.789,15.77,7.564,8.465,21.062-.38,16.69-10.936-2.141-5.168-9.967-7.707-14.9-4.833m122.291,50.93c.009.671-.737,11-1.657,22.942l-1.673,21.722h-15.9l-10.515-21.722c-5.784-11.947-10.733-22.271-11-22.942-.376-.952,4.034-1.22,20.123-1.22,15.825,0,20.61.282,20.623,1.22m40.3,21.478-11.52,22.7-5.758.3-5.758.3.609-7.619c.335-4.19,1.13-14.538,1.764-22.995l1.156-15.375h31.027l-11.52,22.7m-256.711-6.61C72.628,216.165,43.82,309.108,98.021,362.694,156.2,420.212,255,381.085,258.3,299.218c2.438-60.449-51.337-107.43-110.646-96.668m31.087,20.475c51.3,10.873,75.785,69.577,47.085,112.9-35.566,53.691-117.583,39.258-133.293-23.455-12.777-51.006,34.779-100.348,86.208-89.448m-19.327,13.162c-3.256,1.387-6.237,5.874-6.237,9.393,0,2.755-.4,3.3-2.872,3.837-10.42,2.289-14.7,10.21-14.7,27.207,0,21.478,6.153,27.945,26.6,27.958l8.542,0v15.62H156.2l-.636-3.386c-.726-3.871-4.459-8.066-7.581-8.522-17.334-2.529-16.51,24.938.928,30.926,3.161,1.086,3.874,1.836,4.335,4.565,1.162,6.881,4.054,9.609,10.187,9.609s9.026-2.728,10.188-9.609c.461-2.729,1.173-3.479,4.335-4.565,10.117-3.474,13.3-9.953,13.3-27.066,0-21.843-4.7-27.317-24-27.93l-11.149-.354V269.361l7.441.285,7.44.286,1.1,3.416c1.573,4.881,7.1,7.539,12.387,5.954,12.743-3.817,6.68-26.676-7.926-29.885-2.493-.547-2.872-1.07-2.872-3.954,0-6.574-8.159-11.88-14.265-9.277m229.039,20.566v3.9h-39.05v-7.81h39.05v3.9m41.924,66.628c32.2,37.555,36.688,43.193,40.56,51.008,16.4,33.092,8.136,75.739-18.541,95.687-12.9,9.646-17.074,10.192-78.156,10.217l-48.869.019.371-8.542c.356-8.224.135-9.308-5.929-29.043-12.556-40.862-16.283-63.237-16.291-97.784l0-15.78,20.031-24,20.031-24h50.59l36.206,42.222m-65.574,5.183c-3.336,1.809-4.662,4.244-4.662,8.556,0,3.1-.286,3.425-3.5,4.029-10.153,1.906-15.594,12.636-14.839,29.267.858,18.915,7.066,24.963,25.627,24.963h10.289V411H362.1v-2.874c0-4.272-3.6-7.879-8.523-8.538-16.963-2.276-14.5,25.909,2.709,31.066,3.473,1.041,3.861,1.477,3.861,4.345,0,3.97,3.881,8.82,7.735,9.666,6.076,1.335,12.767-4.2,12.767-10.568,0-1.789.667-2.547,2.684-3.039,10.959-2.677,15.136-10.848,14.716-28.786-.491-21.031-5.33-26.218-25.339-27.166l-10.69-.506.284-6.938.284-6.938,7.4-.282,7.4-.282,1.15,3.836c1.407,4.7,4.664,6.979,9.962,6.979,15.594,0,11.126-26.455-5.051-29.913-2.149-.459-2.658-1.21-3.113-4.6a10.3,10.3,0,0,0-15.526-7.9" transform="translate(0 0)" fill="#1e3238" fill-rule="evenodd"/>
    </g>
  </g>
</svg>
