<svg xmlns="http://www.w3.org/2000/svg" width="144" height="60" viewBox="0 0 144 60" fill="none"><path d="M16.9599 57.1807C14.6325 57.0477 12.3716 56.5822 10.1772 55.7842C8.04925 54.9862 6.15408 53.8889 4.49165 52.4924C2.82922 51.1624 1.53252 49.5332 0.601562 47.6047L9.87793 43.6147C10.2104 44.2132 10.7756 44.8782 11.5736 45.6097C12.3716 46.2082 13.3358 46.7402 14.4662 47.2057C15.5967 47.6712 16.8269 47.904 18.1568 47.904C19.3538 47.904 20.451 47.7377 21.4484 47.4052C22.5124 47.1392 23.3436 46.6737 23.9421 46.0087C24.6071 45.3437 24.9396 44.4792 24.9396 43.4152C24.9396 42.2847 24.5406 41.4202 23.7426 40.8217C23.0111 40.2232 22.0469 39.7577 20.85 39.4252C19.7195 39.0927 18.6223 38.7935 17.5584 38.5275C14.699 37.9955 12.0723 37.131 9.67843 35.934C7.21804 34.737 5.25637 33.1743 3.79343 31.2458C2.33049 29.3838 1.59902 27.0896 1.59902 24.3631C1.59902 21.4371 2.36374 18.8769 3.89318 16.6824C5.48911 14.5544 7.55052 12.8919 10.0774 11.6949C12.6043 10.5644 15.3307 9.99915 18.2566 9.99915C21.7809 9.99915 25.0393 10.7306 28.0317 12.1936C31.024 13.6566 33.3847 15.7514 35.1136 18.4779L26.4357 23.5651C26.0368 22.8336 25.4715 22.1686 24.7401 21.5701C23.9421 20.9716 23.0776 20.4728 22.1467 20.0738C21.2157 19.6748 20.2182 19.4421 19.1543 19.3756C17.8243 19.3091 16.5941 19.4088 15.4637 19.6748C14.3332 20.0073 13.4355 20.5393 12.7706 21.2708C12.1056 21.9358 11.7731 22.8668 11.7731 24.0638C11.7731 25.2608 12.2386 26.1253 13.1695 26.6573C14.034 27.1893 15.098 27.6216 16.3614 27.9541C17.6249 28.2201 18.855 28.5526 20.052 28.9515C22.7119 29.816 25.1723 30.88 27.4332 32.1435C29.7606 33.3405 31.6225 34.87 33.019 36.732C34.4819 38.5275 35.1801 40.722 35.1136 43.3155C35.1136 46.175 34.2492 48.7019 32.5202 50.8964C30.7248 53.0909 28.4639 54.7534 25.7375 55.8839C23.0111 57.0144 20.0853 57.4467 16.9599 57.1807ZM59.6028 57.5797C55.48 57.5797 51.7229 56.5157 48.3315 54.3877C44.9402 52.2597 42.247 49.4002 40.2521 45.8092C38.1907 42.2182 37.16 38.2615 37.16 33.939C37.16 30.6805 37.7584 27.6216 38.9554 24.7621C40.0858 21.9026 41.6818 19.3756 43.7432 17.1811C45.8046 14.9866 48.1985 13.2909 50.9249 12.0939C53.6513 10.8304 56.5439 10.1986 59.6028 10.1986C63.1271 10.1986 66.3522 10.9634 69.2781 12.4929C72.204 13.9559 74.6644 15.9841 76.6593 18.5776C78.7207 21.1046 80.2169 24.0306 81.1479 27.3556C82.0788 30.614 82.2783 34.0388 81.7464 37.6298H48.93C49.3955 39.3587 50.0937 40.8882 51.0247 42.2182C51.9556 43.5482 53.1526 44.6122 54.6155 45.4102C56.0784 46.1417 57.7409 46.5407 59.6028 46.6072C61.5312 46.6072 63.2934 46.1417 64.8893 45.2107C66.4187 44.2797 67.7154 43.0162 68.7794 41.4202L79.9509 44.0137C78.1555 48.0037 75.4291 51.2622 71.7718 53.7892C68.1809 56.3162 64.1246 57.5797 59.6028 57.5797ZM48.6307 29.4503H70.6746C70.3421 27.6548 69.6439 26.0256 68.5799 24.5626C67.516 23.0996 66.2193 21.9358 64.6898 21.0713C63.0939 20.2068 61.3982 19.7746 59.6028 19.7746C57.8074 19.7746 56.1449 20.2068 54.6155 21.0713C53.0861 21.9358 51.7894 23.0996 50.7254 24.5626C49.728 26.0256 49.0297 27.6548 48.6307 29.4503ZM106.683 57.5797C102.56 57.5797 98.8029 56.5157 95.4116 54.3877C92.0202 52.2597 89.327 49.4002 87.3321 45.8092C85.2707 42.2182 84.24 38.2615 84.24 33.939C84.24 30.614 84.8385 27.5551 86.0354 24.7621C87.2324 21.9026 88.8283 19.3756 90.8232 17.1811C92.8847 14.9866 95.2786 13.2909 98.0049 12.0939C100.731 10.8304 103.624 10.1986 106.683 10.1986C110.872 10.1986 114.629 11.2626 117.954 13.3906C121.412 15.5186 124.138 18.3781 126.133 21.9691C128.128 25.5601 129.126 29.55 129.126 33.939C129.126 37.1975 128.56 40.2565 127.43 43.116C126.233 45.9755 124.604 48.4692 122.542 50.5972C120.547 52.7917 118.187 54.4874 115.46 55.6844C112.734 56.9479 109.808 57.5797 106.683 57.5797ZM106.683 46.6072C108.877 46.6072 110.839 46.0087 112.568 44.8117C114.297 43.6812 115.66 42.1517 116.657 40.2232C117.721 38.2948 118.253 36.2 118.253 33.939C118.253 31.6115 117.721 29.4835 116.657 27.5551C115.66 25.6266 114.264 24.0971 112.468 22.9666C110.739 21.7696 108.811 21.1711 106.683 21.1711C104.555 21.1711 102.627 21.7696 100.898 22.9666C99.1686 24.0971 97.8054 25.6598 96.808 27.6548C95.744 29.5833 95.2121 31.678 95.2121 33.939C95.2121 36.333 95.744 38.461 96.808 40.323C97.8719 42.2515 99.2684 43.781 100.997 44.9115C102.726 46.042 104.621 46.6072 106.683 46.6072Z" fill="#23243C"></path><path d="M133.813 1.59998C138.696 1.59998 142.603 5.50648 142.603 10.3896C142.603 15.2727 138.696 19.1793 133.813 19.1793C128.93 19.1793 125.023 15.2727 125.023 10.3896C125.023 5.50648 128.93 1.59998 133.813 1.59998Z" fill="#FA9039"></path></svg>