<svg xmlns="http://www.w3.org/2000/svg" width="280" height="70" viewBox="0 0 280 70" fill="none"><path d="M28.4835 50.204L27.7466 48.3335C26.7264 45.7262 24.6575 43.6716 22.0503 42.6513L20.194 41.9145L19.4146 41.6169L15.0503 39.9023L14.115 39.5339L5.9956 36.3598C5.39102 36.0953 5.08872 35.656 5.08872 35.042C5.08872 35.0137 5.08872 35.0137 5.10289 34.9995C5.09344 34.9806 5.08872 34.9664 5.08872 34.957C5.08872 34.3335 5.39102 33.8942 5.9956 33.6392L9.65147 32.1938L14.115 30.4509L15.0503 30.0825L13.2507 25.959L13.1798 25.789L8.87212 27.4894L3.77091 29.4874C2.53811 29.9833 1.65957 30.6776 1.14945 31.5562C0.653498 32.4489 0.398438 33.5967 0.398438 34.9995C0.398438 36.3976 0.648775 37.5407 1.14945 38.4286C1.65957 39.3214 2.53811 40.0157 3.77091 40.4975L8.87212 42.5096L13.1798 44.1959L13.3499 44.2667L17.5442 45.9104L18.4369 46.2647C21.0442 47.2849 23.0988 49.3396 24.1333 51.9469L24.4875 52.8396L28.781 50.9691L28.4835 50.204Z" fill="#D90A2C"></path><path d="M61.6697 53.4347L59.4733 48.4185L57.6312 44.1959L57.5604 44.0258L55.7608 39.9023L55.3782 39.0238C54.2588 36.4448 54.2588 33.54 55.3782 30.9752L55.7608 30.0825L51.3964 28.3821L51.0563 29.1331L50.2628 30.961C49.1434 33.54 49.1434 36.459 50.2628 39.0238L51.0563 40.8517L51.3964 41.6169L53.2669 45.9104L53.6636 46.8173L55.5907 51.21L57.1636 54.8234C57.4045 55.4185 57.3053 55.9428 56.866 56.3821L56.8377 56.4104C56.8235 56.4104 56.8235 56.4246 56.8094 56.4388C56.3701 56.878 55.8458 56.9772 55.2365 56.7363L51.6373 55.1635L47.2446 53.2505L46.3235 52.8396L44.6798 57.0339L44.609 57.204L53.8762 61.2282C55.0948 61.7667 56.2001 61.8942 57.192 61.625C58.1839 61.3511 59.171 60.7181 60.1535 59.7262C61.1454 58.7343 61.7831 57.7566 62.0523 56.7647C62.3262 55.7822 62.1987 54.6722 61.6697 53.4347Z" fill="#D90A2C"></path><path d="M42.9227 8.48736L40.9106 3.40031C40.4288 2.15335 39.7345 1.27481 38.8418 0.778854C37.9443 0.268733 36.7965 0.0136719 35.3984 0.0136719C34.0098 0.0136719 32.8667 0.268733 31.9693 0.778854C31.0766 1.27481 30.3822 2.15335 29.8863 3.40031L26.2021 12.7809L26.3721 12.8517L29.1069 14.0562L26.3721 12.8659L26.2021 12.7809L26.1312 12.9509L24.4875 17.1453L24.1333 18.038C23.0988 20.6453 21.0442 22.6999 18.4369 23.7343L17.53 24.0886L19.4146 28.3821L20.194 28.0704L22.0503 27.3477C24.6575 26.3274 26.7264 24.2586 27.7466 21.6513L28.4835 19.7809L28.781 19.0157L30.4956 14.6513L30.864 13.7303L32.6069 9.26671L34.0523 5.59667C34.3073 5.0157 34.7466 4.71813 35.3701 4.71813H35.4409C36.0644 4.71813 36.5037 5.0157 36.7588 5.59667L38.2041 9.26671L39.947 13.7303L40.3154 14.6513L44.4389 12.8659L44.609 12.7809L42.9227 8.48736Z" fill="#D90A2C"></path><path d="M62.0523 13.2201C61.7831 12.2424 61.1454 11.2505 60.1535 10.2586C59.171 9.26671 58.1839 8.6385 57.192 8.374C56.2001 8.0906 55.0948 8.2323 53.8762 8.75659L44.609 12.7809V12.795L44.4389 12.8659L40.3154 14.6513L39.4227 15.0481C36.8721 16.1675 33.9531 16.1675 31.3741 15.0481L30.4956 14.6513L28.781 19.0157L29.5462 19.3558L31.3741 20.1493C33.9389 21.2687 36.8721 21.2687 39.4369 20.1493L41.279 19.3558L42.03 19.0157L46.3235 17.1453L44.6798 12.9509L44.6373 12.8659L44.6798 12.9651L46.3235 17.1453L47.2446 16.7485L51.6373 14.8214L55.2365 13.2485C55.8458 13.0218 56.3701 13.121 56.8094 13.5602C56.8094 13.5602 56.8235 13.5744 56.8377 13.5886C56.8377 13.5886 56.8519 13.6027 56.866 13.6169C57.3053 14.0562 57.4045 14.5663 57.1636 15.1756L55.5907 18.7748L53.6636 23.1675L53.2669 24.0886L57.4612 25.7323L57.6312 25.789L59.4733 21.5663L61.6697 16.5501C62.194 15.3173 62.3215 14.2121 62.0523 13.2201Z" fill="#D90A2C"></path><path d="M69.6474 31.5562C69.1515 30.6776 68.2729 29.9833 67.026 29.4874L61.9248 27.4894L57.6312 25.789L57.4612 25.7323L53.2669 24.0886L52.3741 23.7343C49.7669 22.6999 47.698 20.6453 46.6778 18.038L46.3235 17.1453L42.03 19.0157L42.3276 19.7809L43.0644 21.6513C44.0847 24.2586 46.1535 26.3274 48.7608 27.3477L50.6171 28.0704L51.3964 28.3821L55.7608 30.0825L56.696 30.4509L64.8296 33.6392C65.4153 33.8942 65.7082 34.3335 65.7082 34.957C65.7082 34.9664 65.7082 34.9806 65.7082 34.9995C65.7082 35.0137 65.7082 35.0137 65.7082 35.042C65.7082 35.656 65.4153 36.0953 64.8296 36.3598L61.1454 37.791L56.696 39.5339L55.7608 39.9023L57.5604 44.0258L57.6312 44.1959L61.9248 42.5096L67.026 40.4975C68.2729 40.0157 69.1515 39.3214 69.6474 38.4286C70.1575 37.5407 70.4126 36.3976 70.4126 34.9995C70.4126 33.5967 70.1575 32.4489 69.6474 31.5562Z" fill="#D90A2C"></path><path d="M41.2648 50.6432L39.4369 49.8355C36.8579 48.7161 33.9389 48.7161 31.3741 49.8355L29.5462 50.6432L28.781 50.9691L24.4875 52.8396L23.5665 53.2505L15.5604 56.7363C14.9652 56.9772 14.4409 56.878 14.0017 56.4388C13.9875 56.4246 13.9733 56.4104 13.9733 56.4104C13.9733 56.3963 13.9592 56.3963 13.945 56.3821C13.5057 55.9428 13.4065 55.4185 13.6474 54.8234L17.1333 46.8173L17.5442 45.9104L13.3499 44.2525L13.1798 44.1959L11.3235 48.4185L9.14135 53.4347C8.61706 54.6675 8.47536 55.7728 8.75876 56.7647C9.03271 57.7566 9.66564 58.7438 10.6575 59.7262C11.64 60.7181 12.6272 61.3511 13.6191 61.625C14.5968 61.8942 15.7163 61.7667 16.9349 61.2282L26.2021 57.204L26.358 57.1331L30.4956 55.3335L31.3741 54.9509C33.9531 53.8315 36.8579 53.8315 39.4227 54.9509L40.3154 55.3335L42.03 50.9691L41.2648 50.6432Z" fill="#D90A2C"></path><path d="M16.9349 8.75659C15.7163 8.2323 14.5968 8.0906 13.6191 8.374C12.6272 8.6385 11.64 9.26671 10.6575 10.2586C9.66564 11.2505 9.03271 12.2377 8.75876 13.2201C8.47536 14.2121 8.61706 15.3173 9.14135 16.5501L11.3377 21.5663L13.1798 25.789L13.2507 25.959L15.0503 30.0825L15.4328 30.9752C16.5523 33.54 16.5523 36.4448 15.4328 39.0238L15.0503 39.9023L19.4146 41.6169L19.7405 40.8517L20.5482 39.0238C21.6677 36.459 21.6677 33.54 20.5482 30.9752L19.7405 29.1331L19.4146 28.3821L17.53 24.0886L17.1333 23.1675L15.2203 18.7748L13.6474 15.1756C13.4065 14.5663 13.5057 14.0562 13.945 13.6169C13.9592 13.6027 13.9733 13.5886 13.9733 13.5886C13.9733 13.5744 13.9875 13.5602 14.0017 13.5602C14.4409 13.121 14.9652 13.0218 15.5604 13.2485L19.1737 14.8214L23.5665 16.7485L24.4875 17.1453L26.1312 12.9651L26.2021 12.7809L16.9349 8.75659Z" fill="#D90A2C"></path><path d="M51.3964 41.6169L50.6171 41.9145L48.7608 42.6513C46.1535 43.6716 44.0847 45.7262 43.0644 48.3335L42.3276 50.204L42.03 50.9691L40.3154 55.3335L39.947 56.2546L38.2041 60.7181L36.7588 64.3882C36.5037 64.9691 36.0644 65.2809 35.4409 65.2809C35.4315 65.2809 35.4173 65.2809 35.3984 65.2809C35.389 65.2809 35.3795 65.2809 35.3701 65.2809C34.7466 65.2809 34.3073 64.9691 34.0523 64.3882L32.6069 60.7181L30.864 56.2546L30.4956 55.3335L26.358 57.1331L26.2021 57.204L29.8863 66.5987C30.3822 67.8456 31.0766 68.71 31.9693 69.2201C32.862 69.7303 34.0098 69.9712 35.3984 69.9712C36.8013 69.9712 37.949 69.7303 38.8418 69.2201C39.7345 68.71 40.4288 67.8456 40.9106 66.5987L42.9227 61.4975L44.609 57.204L44.6798 57.0339L46.3235 52.8538L44.0138 51.8335L46.3235 52.8396L46.6778 51.9469C47.698 49.3396 49.7669 47.2849 52.3741 46.2647L53.2669 45.9104L51.3964 41.6169Z" fill="#D90A2C"></path><path d="M102.539 56.6998C98.4057 56.6998 94.8391 55.7998 91.8391 53.9998C88.8391 52.1998 86.5391 49.6665 84.9391 46.3998C83.3391 43.1331 82.5391 39.3665 82.5391 35.0998C82.5391 30.7665 83.3391 26.9665 84.9391 23.6998C86.5391 20.4331 88.8391 17.8665 91.8391 15.9998C94.8391 14.1998 98.4057 13.2998 102.539 13.2998C107.539 13.2998 111.606 14.5665 114.739 17.0998C117.872 19.5665 119.839 23.0665 120.639 27.5998H112.339C111.806 25.2665 110.706 23.4665 109.039 22.1998C107.372 20.8665 105.172 20.1998 102.439 20.1998C98.6391 20.1998 95.6391 21.5331 93.4391 24.1998C91.3057 26.8665 90.2391 30.4998 90.2391 35.0998C90.2391 39.6998 91.3057 43.2998 93.4391 45.8998C95.6391 48.4998 98.6391 49.7998 102.439 49.7998C105.172 49.7998 107.372 49.1998 109.039 47.9998C110.706 46.7998 111.806 45.0998 112.339 42.8998H120.639C119.839 47.2331 117.872 50.6331 114.739 53.0998C111.606 55.4998 107.539 56.6998 102.539 56.6998ZM140.039 56.6998C137.172 56.6998 134.606 56.0331 132.339 54.6998C130.072 53.4331 128.272 51.6331 126.939 49.2998C125.672 46.8998 125.039 44.1665 125.039 41.0998C125.039 38.0331 125.706 35.3331 127.039 32.9998C128.372 30.6665 130.172 28.8331 132.439 27.4998C134.706 26.1665 137.239 25.4998 140.039 25.4998C142.839 25.4998 145.372 26.1665 147.639 27.4998C149.906 28.8331 151.672 30.6665 152.939 32.9998C154.272 35.3331 154.939 38.0331 154.939 41.0998C154.939 44.1665 154.272 46.8998 152.939 49.2998C151.672 51.6331 149.906 53.4331 147.639 54.6998C145.372 56.0331 142.839 56.6998 140.039 56.6998ZM140.039 50.0998C141.972 50.0998 143.672 49.3331 145.139 47.7998C146.606 46.3331 147.339 44.0998 147.339 41.0998C147.339 38.1665 146.606 35.9665 145.139 34.4998C143.672 32.9665 141.972 32.1998 140.039 32.1998C138.039 32.1998 136.306 32.9665 134.839 34.4998C133.439 35.9665 132.739 38.1665 132.739 41.0998C132.739 44.0998 133.439 46.3331 134.839 47.7998C136.306 49.3331 138.039 50.0998 140.039 50.0998ZM168.039 55.9998H160.539V26.1998H167.239L167.739 31.2998C168.672 29.4998 169.972 28.0998 171.639 27.0998C173.372 26.0331 175.406 25.4998 177.739 25.4998C181.339 25.4998 184.139 26.6665 186.139 28.9998C188.206 31.3331 189.239 34.7331 189.239 39.1998V55.9998H181.639V39.8998C181.639 37.3665 181.139 35.3998 180.139 33.9998C179.072 32.6665 177.472 31.9998 175.339 31.9998C173.206 31.9998 171.439 32.7665 170.039 34.2998C168.706 35.8331 168.039 37.9331 168.039 40.5998V55.9998ZM204.139 55.9998H196.539V32.6998H192.539V26.2998H196.539V22.7998C196.539 19.1998 197.439 16.6331 199.239 15.0998C201.039 13.5665 203.472 12.7998 206.539 12.7998H209.739V19.3998H207.739C206.406 19.3998 205.472 19.6665 204.939 20.1998C204.406 20.6665 204.139 21.5331 204.139 22.7998V26.2998H210.439V32.6998H204.139V55.9998ZM228.739 56.6998C226.006 56.6998 223.539 56.0665 221.339 54.7998C219.139 53.5331 217.372 51.7331 216.039 49.3998C214.839 47.0665 214.239 44.2998 214.239 41.0998C214.239 37.9665 214.872 35.2331 216.139 32.8998C217.406 30.5665 219.172 28.7331 221.439 27.3998C223.639 26.1331 226.106 25.4998 228.839 25.4998C231.639 25.4998 234.139 26.1331 236.339 27.3998C238.539 28.7331 240.272 30.5665 241.539 32.8998C242.806 35.2331 243.439 37.9665 243.439 41.0998C243.439 44.2998 242.806 47.0665 241.539 49.3998C240.206 51.7331 238.439 53.5331 236.239 54.7998C234.039 56.0665 231.539 56.6998 228.739 56.6998ZM228.739 52.3998C230.472 52.3998 232.039 51.9665 233.439 51.0998C234.906 50.2998 236.106 49.0665 237.039 47.3998C237.906 45.6665 238.339 43.5665 238.339 41.0998C238.339 38.6331 237.906 36.5665 237.039 34.8998C236.172 33.2331 235.006 31.9665 233.539 31.0998C232.072 30.2331 230.506 29.7998 228.839 29.7998C227.172 29.7998 225.606 30.2331 224.139 31.0998C222.672 31.9665 221.506 33.2331 220.639 34.8998C219.706 36.5665 219.239 38.6331 219.239 41.0998C219.239 43.5665 219.706 45.6665 220.639 47.3998C221.506 49.0665 222.672 50.2998 224.139 51.0998C225.539 51.9665 227.072 52.3998 228.739 52.3998ZM262.539 56.6998C259.739 56.6998 257.239 56.0665 255.039 54.7998C252.839 53.5331 251.106 51.7331 249.839 49.3998C248.572 47.0665 247.939 44.2998 247.939 41.0998C247.939 37.9665 248.572 35.2331 249.839 32.8998C251.172 30.5665 252.939 28.7331 255.139 27.3998C257.339 26.1331 259.839 25.4998 262.639 25.4998C265.372 25.4998 267.839 26.1331 270.039 27.3998C272.239 28.7331 273.972 30.5665 275.239 32.8998C276.506 35.2331 277.139 37.9665 277.139 41.0998C277.139 44.2998 276.506 47.0665 275.239 49.3998C273.906 51.7331 272.139 53.5331 269.939 54.7998C267.739 56.0665 265.272 56.6998 262.539 56.6998ZM262.539 52.3998C264.206 52.3998 265.772 51.9665 267.239 51.0998C268.706 50.2998 269.872 49.0665 270.739 47.3998C271.672 45.6665 272.139 43.5665 272.139 41.0998C272.139 38.6331 271.672 36.5665 270.739 34.8998C269.872 33.2331 268.706 31.9665 267.239 31.0998C265.772 30.2331 264.239 29.7998 262.639 29.7998C260.906 29.7998 259.339 30.2331 257.939 31.0998C256.472 31.9665 255.272 33.2331 254.339 34.8998C253.472 36.5665 253.039 38.6331 253.039 41.0998C253.039 43.5665 253.472 45.6665 254.339 47.3998C255.272 49.0665 256.439 50.2998 257.839 51.0998C259.306 51.9665 260.872 52.3998 262.539 52.3998Z" fill="#17161A"></path></svg>