<svg xmlns="http://www.w3.org/2000/svg" width="589.461" height="561" viewBox="0 0 589.461 561">
  <g id="demo-accounting-company-icon-01" transform="translate(-11.539 -116)">
    <rect id="Rectangle_1" data-name="Rectangle 1" width="587" height="561" transform="translate(13 116)" fill="none"/>
    <g id="Group_3" data-name="Group 3" transform="translate(-3 66)">
      <g id="Group_2" data-name="Group 2">
        <circle id="Ellipse_1" data-name="Ellipse 1" cx="253" cy="253" r="253" transform="translate(98 64)" fill="#ffbd3f"/>
        <path id="Union_1" data-name="Union 1" d="M258.544,455.657c-16.224-6.511-31.392-12.162-47.423-18.568-7.674-3.067-15.523-6.009-23.712-9.284-29.938-11.974-21.135-8.571-59.421-8.571,0,6.173,1.493,19-9,19H41a9.035,9.035,0,0,1-9-9V250.255c0-10.379,20.011-8,24-8h31c-6.051-25.975-2.367-63.867,4.2-87.783,2.417-8.8,9.883-39.2,20.792-39.2,6.116,0,11,2.6,11,9,0,11.441-22.89,35.744-17.026,106.016.878,10.533.141,10.65,3.209,11.788a12.185,12.185,0,0,0,5.3.262c2.588-.229,5.377-.458,8.186,1.255,7.151,4.357,5.335,12.211,5.335,22.661h22V166.265a9.034,9.034,0,0,1,9-9h79.99V101.274a10.145,10.145,0,0,1,10-10h86.989c10.432,0,13,6.6,13,17V208.26h77.991a10.527,10.527,0,0,1,9.957,7.041c2.2,6.016,1.041,103.261,1.041,111.945,4.9-3.281,13.541-17.376,16.943-23.053,15.547-25.947,26.051-59.32,26.051-92.933,0-23.214-4-35.635-4-45.994,0-8.747,16.365-13.518,20.059-.061,2.152,7.838,5.78,41.113,4.361,50.477-.83,5.475-.751,12.639-1.337,17.662-3.634,31.227-13.309,57.716-28.649,83.337-5.115,8.544-26.991,38.842-33.43,40.562v23c3.572-1.714,12-3.074,16.8-4.2,13.107-3.069,37.883-9.83,49.251-8.94,24.169,1.895,38.334,20.627,39.936,40.238v7.474a41.414,41.414,0,0,1-8.825,22.593c-12.15,15.16-25.636,16.217-43.37,20.621l-74.786,19.2c-22.9,5.673-32.5,10-58.994,10C331.39,487.225,283.842,465.806,258.544,455.657Zm-130.556-57.42h37c6.106,0,18.542,6.214,24.621,8.372,8.322,2.954,14.73,6.065,23,9,23.614,8.383,69.264,26.971,92.65,36.335,28.656,11.473,32.251,14.285,62.7,14.285,12.776,0,92.054-20.864,104.566-24.419,18.037-5.124,39.467-7.026,47.013-17.978,4.6-6.679,5.707-16.953,1.249-24.44-11.866-19.931-31.081-9.745-52.922-5.235-23.883,4.931-59.594,14.67-81.6,18.388-34.677,5.859-66.767-8.02-98.015-20.586l-36.7-14.3c-11.323-4.306-31.574-8.907-31.574-18.419a10.751,10.751,0,0,1,11-11c2.268,0,33.787,12.5,38.564,14.429,6.623,2.677,33.121,13.567,38.426,13.567,27.427,0,34.545-28.039,21.785-41.783-4.593-4.947-7.346-6.063-14.22-8.777-12.87-5.082-93.116-39.429-96.554-39.429H127.988Zm-75.99,20h54.993V263.255H52ZM348.96,323.246c0,4.1,14.525,24.147,2.325,48.318-3.45,6.832-2.325,10.272-2.325,19.674,14.554,3.39,31.3,2.274,45.6-1.395,4.075-1.046,7.633-1.664,11.4-2.595,3.754-.926,6.26-2.011,10.988-2.011V229.258H348.96Zm-89.987-42.995c6.411,1.494,62.686,26.528,68.99,28V112.272h-68.99Zm-88.989-14h53.993c3.411,0,10.57,3.967,15,5V177.264H169.983ZM434.95,125.271c0-14.157,12.4-25.977,25.879-25.617,13.589.364,25.115,10.938,25.115,25.617,0,13.422-11.358,25-23,25C446.1,150.269,434.95,139.517,434.95,125.271Zm21-1c0,8.072,9,6.625,9,2,0-4.565-1.939-6.144-4.018-6.143C458.53,120.128,455.947,122.23,455.947,124.271Zm-72.991,11c0-3.7,2.246-6.716,4.224-8.774L457.1,46.429c6.947-8.679,11.741-16.146,19.849-16.146,3.137,0,15.325,7.014,4.8,18.793L419.1,121.418c-3.616,4.493-8.175,8.687-11.722,13.274-6.179,7.989-11.127,10.654-14.91,10.654C386.021,145.345,382.956,137.61,382.956,135.269ZM122.989,91.275a20.144,20.144,0,0,1,2.406-6.593c4.9-6.484,18.591-3.661,18.591,5.594,0,7.544-5.093,10.928-10.263,10.928C128.4,101.2,122.989,97.61,122.989,91.275ZM382.6,64.634c-3.041-5.356-2.644-8.4-2.644-14.354,0-16.533,23.094-32.285,41.727-16.729,7.732,6.455,8.266,12.62,8.266,21.728,0,13.065-12.523,22.728-25.414,22.728C396.327,78.006,387.968,74.088,382.6,64.634Zm18.353-8.356c2.243.523,2.3,1,5,1,3.847,0,7.849-9-2-9C399.172,48.281,400.246,53.242,400.954,56.279Zm-250.968,4c0-7.917,19.574-20.069,25.2-23.8C232.028-1.245,296.809-10.048,361.6,11.645c21.679,7.259,9.762,21.637,2.361,21.637-2.624,0-38.271-13-71.991-13-46.3,0-88.991,18.207-123.653,47.326a14.6,14.6,0,0,1-9.179,3.81C154.006,71.419,149.986,67.506,149.986,60.279Z" transform="translate(-16.961 109.05)" fill="#1e3238" stroke="rgba(0,0,0,0)" stroke-miterlimit="10" stroke-width="1"/>
      </g>
    </g>
  </g>
</svg>
