<svg xmlns="http://www.w3.org/2000/svg" width="320" height="64" viewBox="0 0 320 64" fill="none"><g clip-path="url(#clip0_5169_1121)"><path fill-rule="evenodd" clip-rule="evenodd" d="M64.4864 51.1295H15.6193C11.8392 51.1295 8.1858 49.725 5.38766 47.1695C2.57897 44.6244 0.826177 41.1184 0.467171 37.3484C0.108165 33.5784 1.16406 29.8084 3.43425 26.7671C5.70443 23.7363 9.01996 21.6559 12.7367 20.9378C13.2752 19.4699 14.0355 18.0971 14.9858 16.8615C15.9361 15.6154 17.0765 14.5277 18.3541 13.6301C19.6317 12.7325 21.0361 12.0355 22.5249 11.5603C24.0137 11.0851 25.5659 10.8422 27.1286 10.8316C35.3646 -2.55876 55.0572 -3.00229 63.61 10.6627C75.0559 10.1347 84.7068 19.3538 84.7068 30.8961C84.7068 33.5467 84.1789 36.1762 83.1652 38.6368C82.141 41.0868 80.6522 43.315 78.7727 45.1947C76.9037 47.0744 74.6758 48.5634 72.2155 49.5877C69.7658 50.6015 67.1367 51.1295 64.4864 51.1295ZM15.6193 31.2657C14.3945 31.2657 13.2119 31.7621 12.346 32.628C11.4802 33.4939 10.9945 34.6767 10.9945 35.9017C10.9945 37.1267 11.4802 38.3094 12.346 39.1753C13.2119 40.0413 14.3945 40.5271 15.6193 40.5271H64.4864C67.0311 40.5271 69.4702 39.5027 71.2758 37.6969C73.0708 35.9017 74.0845 33.4517 74.095 30.9067C74.095 28.3511 73.0919 25.9011 71.2969 24.0953C69.5019 22.2895 67.0628 21.2546 64.518 21.244C63.9056 21.2581 63.2967 21.2968 62.6913 21.3602C62.0789 21.4165 61.47 21.501 60.8646 21.6137C60.2663 21.7193 59.6715 21.846 59.0802 21.9938C58.4818 22.1487 57.894 22.3212 57.3168 22.5113C56.2398 8.73015 35.9137 6.60754 33.4535 21.9516C25.6398 18.699 19.6001 26.3341 19.7585 31.2657H15.6193Z" fill="#152BCA"></path><path d="M57.3086 22.5114C56.2316 8.7303 35.9056 6.60769 33.4453 21.9517C33.4453 1.30644 55.049 -3.00215 63.6018 10.6628L57.3086 22.5114Z" fill="url(#paint0_linear_5169_1121)"></path><path d="M33.4626 21.9517C25.6489 18.6992 19.6092 26.3342 19.7675 31.2659C13.7912 21.033 20.57 10.8318 27.1377 10.8318L33.4626 21.9517Z" fill="url(#paint1_linear_5169_1121)"></path><path d="M64.4977 40.5272C67.0424 40.5272 69.4815 39.5029 71.2871 37.6971C73.0821 35.9018 74.0958 33.4518 74.1064 30.9068C74.1064 28.3512 73.1033 25.9013 71.3082 24.0955C69.5132 22.2896 67.0741 21.2547 64.5294 21.2442C63.9169 21.2583 63.308 21.297 62.7027 21.3603C62.0902 21.4167 61.4813 21.5012 60.8759 21.6138C60.2776 21.7194 59.6828 21.8461 59.0915 21.994C58.4931 22.1488 57.9054 22.3213 57.3281 22.5114C67.6548 13.4296 84.7182 19.3539 84.7182 30.8963C84.7182 33.5469 84.1902 36.1764 83.1765 38.6369C82.1523 41.0869 80.6635 43.3151 78.784 45.1948C76.9151 47.0746 74.6871 48.5636 72.2269 49.5879C69.7772 50.6017 67.148 51.1297 64.4977 51.1297V40.5272Z" fill="url(#paint2_linear_5169_1121)"></path><path d="M15.6112 40.527C-0.522962 40.527 2.22238 23.0392 12.7286 20.9377L19.7503 31.2657H15.6112C14.3863 31.2657 13.2037 31.762 12.3379 32.6279C11.4721 33.4939 10.9864 34.6766 10.9864 35.9016C10.9864 37.1266 11.4721 38.3094 12.3379 39.1753C13.2037 40.0412 14.3863 40.527 15.6112 40.527Z" fill="url(#paint3_linear_5169_1121)"></path><path d="M99 49.9544H107.206V30.7405H128.121V49.9544H136.327V4.72162H128.121V23.8355H107.206V4.72162H99V49.9544ZM158.743 50.655C168.651 50.655 174.955 43.6499 174.955 33.1422C174.955 22.6346 168.651 15.6295 158.743 15.6295C148.836 15.6295 142.532 22.6346 142.532 33.1422C142.532 43.6499 148.836 50.655 158.743 50.655ZM158.743 44.2503C153.239 44.2503 150.637 39.3467 150.637 33.1422C150.637 26.9377 153.239 21.9341 158.743 21.9341C164.147 21.9341 166.849 26.9377 166.849 33.1422C166.849 39.3467 164.147 44.2503 158.743 44.2503ZM207.579 25.0364C206.478 19.2321 201.875 15.6295 193.969 15.6295C185.763 15.6295 180.159 19.6324 180.259 25.937C180.159 30.8406 183.261 34.143 189.766 35.4439L195.57 36.6448C198.672 37.3453 200.073 38.6462 200.073 40.5476C200.073 42.8493 197.572 44.5505 193.769 44.5505C190.166 44.5505 187.764 43.0494 187.064 39.9472L179.258 40.7478C180.259 46.9523 185.463 50.655 193.769 50.655C202.275 50.655 208.279 46.2518 208.279 39.8471C208.279 34.9436 205.177 32.0414 198.772 30.6404L192.968 29.3395C189.566 28.639 188.165 27.4381 188.165 25.4367C188.165 23.135 190.667 21.5338 194.069 21.5338C197.672 21.5338 199.673 23.5353 200.274 25.8369L207.579 25.0364ZM230.896 16.0298H224.191V7.92394H216.185V16.0298H211.382V22.2343H216.185V41.048C216.185 47.4526 220.788 50.5549 226.793 50.4548C229.094 50.3547 230.696 49.9544 231.496 49.6542L230.195 43.3497C229.695 43.4497 228.794 43.6499 227.793 43.6499C225.792 43.6499 224.191 42.9494 224.191 39.747V22.2343H230.896V16.0298ZM236.6 49.9544H244.606V16.0298H236.6V49.9544ZM240.703 11.2263C243.205 11.2263 245.306 9.22489 245.306 6.82314C245.306 4.4214 243.205 2.52002 240.703 2.52002C238.101 2.52002 235.999 4.4214 235.999 6.82314C235.999 9.22489 238.101 11.2263 240.703 11.2263ZM259.917 30.04C259.917 25.1364 262.819 22.3344 267.022 22.3344C271.225 22.3344 273.627 25.0364 273.627 29.5396V49.9544H281.633V28.3388C281.633 20.2329 277.029 15.5295 270.024 15.5295C264.92 15.5295 261.518 18.0313 259.917 21.734H259.517V16.0298H251.911V49.9544H259.917V30.04ZM303.548 63.3642C312.755 63.3642 319.46 59.1611 319.46 50.4548V15.9298H311.554V21.6339H311.154C309.953 19.1321 307.451 15.5295 301.447 15.5295C293.641 15.5295 287.437 21.6339 287.437 32.842C287.437 43.85 293.641 49.4541 301.447 49.4541C307.251 49.4541 309.953 46.2518 311.154 43.85H311.554V50.2547C311.554 55.2583 308.252 57.2598 303.749 57.2598C298.845 57.2598 296.744 54.9581 295.843 53.0567L288.638 54.7579C290.039 59.4614 294.942 63.3642 303.548 63.3642ZM303.649 43.1495C298.345 43.1495 295.543 39.0465 295.543 32.742C295.543 26.6375 298.345 22.1343 303.649 22.1343C308.752 22.1343 311.554 26.3373 311.554 32.742C311.554 39.2467 308.752 43.1495 303.649 43.1495Z" fill="#181B31"></path></g><defs><linearGradient id="paint0_linear_5169_1121" x1="36.6855" y1="14.7007" x2="57.9977" y2="21.7287" gradientUnits="userSpaceOnUse"><stop stop-color="#6477FC"></stop><stop offset="1" stop-color="#152BCA"></stop></linearGradient><linearGradient id="paint1_linear_5169_1121" x1="32.2587" y1="18.2769" x2="18.3816" y2="24.1474" gradientUnits="userSpaceOnUse"><stop offset="0.27018" stop-color="#152BCA"></stop><stop offset="0.976615" stop-color="#6477FC"></stop></linearGradient><linearGradient id="paint2_linear_5169_1121" x1="71.0231" y1="18.083" x2="71.0231" y2="51.1297" gradientUnits="userSpaceOnUse"><stop stop-color="#6477FC"></stop><stop offset="0.65" stop-color="#152BCA"></stop></linearGradient><linearGradient id="paint3_linear_5169_1121" x1="12.7915" y1="24.2209" x2="5.21195" y2="35.7956" gradientUnits="userSpaceOnUse"><stop stop-color="#152BCA"></stop><stop offset="1" stop-color="#6477FC"></stop></linearGradient><clipPath id="clip0_5169_1121"><rect width="320" height="64" fill="white"></rect></clipPath></defs></svg>