<svg xmlns="http://www.w3.org/2000/svg" width="587" height="561" viewBox="0 0 587 561">
  <g id="demo-accounting-company-icon-02" transform="translate(-13 -116)">
    <rect id="Rectangle_1" data-name="Rectangle 1" width="587" height="561" transform="translate(13 116)" fill="none"/>
    <g id="Group_4" data-name="Group 4" transform="translate(-29 70)">
      <circle id="Ellipse_2" data-name="Ellipse 2" cx="253" cy="253" r="253" transform="translate(83 48)" fill="#ffbd3f"/>
      <path id="Path_1" data-name="Path 1" d="M149.522,445.24V314.008c92.1,0,136.706-37.8,138.838-38.038,2.995.8,4.278,2.251,6.511,3.95a48.181,48.181,0,0,0,7.1,4.316c36.294,20.225,81.611,30.723,125.232,30.723V453.8c0,22.081-7.237,43.667-16.116,59.008-5.822,10.06-17.6,27.2-26.127,33.783-10.845,8.369-19.776,17.215-34.785,24.175a168.6,168.6,0,0,1-30.8,11.043c-21.419,5.361-38.9,5.474-60.314.19-9.3-2.295-23.81-7.344-32.2-11.541l-16.664-9.962c-3.975-2.643-6.11-4.285-9.872-7.244-16.539-13.009-29.3-30.019-38.767-49.673-7.434-15.438-12.032-35.837-12.032-58.338ZM282.706,118.112a123.437,123.437,0,0,0-104.023,65.3c-7.779,14.476-14.9,32.6-14.9,52.62v58.008c-7.936,0-11.906,1.034-19.992.929-7.719-.1-13.291,1.282-13.291,8.581v153.1c0,54.009,43.108,113.289,92.106,133.271C250.508,601.3,261.3,605,294.066,605c11.542,0,24.349-2.467,33.833-5.156,23.633-6.7,45.206-17.322,63.83-33.167,5.327-4.532,10.732-9.076,14.95-14.53,4.5-5.823,5.534-5.043,13.112-16.369,5.617-8.4,9.868-15.232,14.092-24.9,8.269-18.921,13.286-38.4,13.286-65.642V307.352c0-15.387-16.451-12.363-33.284-12.363,0-34.4,3.1-69.287-9.9-100.407-8.018-19.192-24.34-40.165-40.493-51.75a129.667,129.667,0,0,0-70.518-24.72ZM226.549,283.578c11-2.564,23.16-8.267,32.649-13a100.441,100.441,0,0,0,14.336-8.487,62.916,62.916,0,0,0,6.474-4.937c6.446-5.851,10.449-5.316,16.787-.082,13.311,10.989,36.977,22.681,53.377,26.5,0-13.628-.065-27.272.007-40.9.32-61.184-80.975-85.456-114.328-32.534-12.238,19.418-9.3,43-9.3,73.431Zm-19.971,4.754c0-20.861-1.694-53.76,4.88-72.147a81.825,81.825,0,0,1,114-45.782,92.529,92.529,0,0,1,12.368,7.6,77.24,77.24,0,0,1,9.907,9.111c27.981,33.291,22.409,53.263,22.409,102.166,3.028,0,22.147,3.023,23.774,3.8,0-56.481,7.064-97.276-44.417-136.265-40.816-30.913-100.33-23.568-136.029,11.925S182.8,243.607,182.8,292.136C189.227,292.136,200.9,289.655,206.578,288.332Z" fill="#1e3238" fill-rule="evenodd"/>
      <path id="Path_2" data-name="Path 2" d="M194.494,433.544c0,15.477,1.208,27.077,4.949,40.7,6.666,24.261,19.366,49,39.182,64.473,4.651,3.63,6.957,6.093,14.828,6.093h77.977c9.716,0,27.578-16.7,27.578-24.725,0-5.419-5-9.51-10.461-9.51-6.285,0-13.7,14.264-19.02,14.264H253.454c-3.086,0-13.293-11.688-15.235-14.244-33.762-44.452-33-116.485,8.339-158.117,2.641-2.659,5.026-6.418,9.748-6.418h72.273c7.319,0,25.359,27.253,29.169,35.495,6.706,14.508,11.721,35.981,11.721,52.943,0,8.9-5.978,28.529,8.559,28.529a9.739,9.739,0,0,0,8.763-5.5c2.39-5.5,1.7-21.8,1.7-28.733,0-23.325-8.481-47.977-17.067-62.813-2.647-4.574-4.713-8.134-7.661-12.31-7.979-11.3-9.988-12.368-19.26-20.679-3.644-3.266-7.575-6.9-14.021-6.9H252.5c-14.128,0-35.951,30.825-41.53,41.2C202.226,383.555,194.494,408.941,194.494,433.544Z" transform="translate(-3.131 -10.176)" fill="#1e3238" fill-rule="evenodd"/>
      <path id="Path_3" data-name="Path 3" d="M286.4,381.59V387.3c-12.1,0-20.922,10.6-20.922,22.823,0,13.282-2.125,26.782,12.166,34.431,6.932,3.71,18.388,2.656,28.725,2.656.931,3.995,3.353,21.872-2.853,21.872-26.18,0-14.427.643-19.569-8.958-4.832-9.023-18.469-5.7-18.469,5.155,0,12.22,8.819,22.823,20.922,22.823,0,4.7-.4,15.215,8.558,15.215,11.813,0,10.461-8.232,10.461-15.215,11.82,0,20.921-9.982,20.921-21.872,0-18.965,3.011-39.22-27.572-38.995-15.553.113-13.319,3.435-13.319-18.063,0-4.541,6.366-2.853,18.068-2.853,6.215,0,.726,12.363,13.314,12.363,16.722,0,10.381-31.382-11.412-31.382,0-6.239,1.159-15.215-9.51-15.215A9.4,9.4,0,0,0,286.4,381.59Z" transform="translate(-6.599 -12.426)" fill="#1e3238" fill-rule="evenodd"/>
      <path id="Path_4" data-name="Path 4" d="M367.473,495.624c0,10.246,9.838,13.99,16.167,8.564,6.293-5.4,2.94-17.122-6.658-17.122C372.662,487.066,367.473,491.584,367.473,495.624Z" transform="translate(-11.595 -18.052)" fill="#1e3238" fill-rule="evenodd"/>
    </g>
  </g>
</svg>
