<svg xmlns="http://www.w3.org/2000/svg" width="304" height="54" viewBox="0 0 304 54" fill="none"><mask id="mask0_9028_2580" style="mask-type:alpha" maskUnits="userSpaceOnUse" x="0" y="0" width="304" height="54"><rect width="304" height="54" fill="#D9D9D9"></rect></mask><g mask="url(#mask0_9028_2580)"><path d="M5.83968 0.75858L27.9958 16.6627C28.1438 16.712 28.2917 16.7613 28.4397 16.8106C28.5876 16.9092 28.7356 16.9586 28.8835 16.9586C29.0315 16.9586 29.1794 16.9339 29.3274 16.8846C29.4753 16.8353 29.6232 16.7613 29.7712 16.6627L52.3712 0.75858C52.963 0.31474 53.5548 0.0928235 54.2945 0.0188505C54.9602 -0.0551215 55.626 0.0928235 56.2178 0.388709C56.8835 0.758579 57.3274 1.20241 57.6972 1.79419C58.0671 2.38597 58.289 3.05173 58.289 3.71748V45.8079C58.289 46.8435 58.0671 47.8791 57.6232 48.8407C57.2534 49.8764 56.6616 50.764 55.9219 51.5038C55.1822 52.2435 54.2945 52.8353 53.3328 53.2051C52.3712 53.649 51.3356 53.7969 50.226 53.7969H7.91092C6.8753 53.7969 5.83968 53.649 4.87804 53.2051C3.9164 52.8353 3.02872 52.2435 2.289 51.5038C1.54927 50.764 0.95749 49.8764 0.51366 48.8407C0.14379 47.8791 -0.078125 46.8435 -0.078125 45.8079V3.71748C-0.078125 3.05173 0.14379 2.38597 0.43968 1.79419C0.80955 1.20241 1.32735 0.758579 1.91914 0.388709C2.58489 0.0928235 3.25064 -0.0551215 3.9164 0.0188505C4.58215 0.0928235 5.2479 0.31474 5.83968 0.75858Z" fill="#FF6C45"></path><path d="M45.08 15.0352C47.4471 15.0352 49.2964 16.8845 49.2964 19.1777V42.627C49.2964 44.9202 47.4471 46.8434 45.08 46.8434C42.7868 46.8434 40.9375 44.9202 40.9375 42.627V19.1777C40.9375 16.8845 42.7868 15.0352 45.08 15.0352Z" fill="white"></path><path d="M31.9861 25.0215C34.2793 25.0215 36.2026 26.8708 36.2026 29.164V42.627C36.2026 44.9201 34.2793 46.8434 31.9861 46.8434C29.693 46.8434 27.8438 44.9201 27.8438 42.627V29.164C27.8438 26.8708 29.693 25.0215 31.9861 25.0215Z" fill="white"></path><path d="M17.8925 34.1211C20.1856 34.1211 22.1089 35.9704 22.1089 38.3376V42.628C22.1089 44.9211 20.1856 46.8444 17.8925 46.8444C15.5993 46.8444 13.75 44.9211 13.75 42.628V38.3376C13.75 35.9704 15.5993 34.1211 17.8925 34.1211Z" fill="white"></path><path d="M80.5938 5.7998H91.4027L102.819 33.6521H103.305L114.721 5.7998H125.53V47.2544H117.028V20.2725H116.684L105.956 47.0519H100.167L89.4393 20.1713H89.0952V47.2544H80.5938V5.7998Z" fill="#1F242E"></path><path d="M140.315 47.8414C138.331 47.8414 136.563 47.4973 135.012 46.809C133.46 46.1073 132.232 45.075 131.328 43.7121C130.437 42.3357 129.992 40.6219 129.992 38.5708C129.992 36.8435 130.309 35.3928 130.943 34.2188C131.577 33.0448 132.441 32.1002 133.534 31.385C134.627 30.6698 135.868 30.1301 137.258 29.7657C138.662 29.4014 140.133 29.145 141.671 28.9965C143.479 28.8076 144.937 28.6322 146.043 28.4703C147.15 28.2948 147.953 28.0384 148.452 27.7011C148.951 27.3637 149.201 26.8644 149.201 26.2032V26.0818C149.201 24.7998 148.796 23.808 147.986 23.1063C147.19 22.4046 146.057 22.0537 144.586 22.0537C143.034 22.0537 141.799 22.3978 140.882 23.086C139.964 23.7607 139.357 24.6109 139.06 25.6365L131.085 24.9887C131.49 23.0995 132.286 21.4667 133.473 20.0903C134.661 18.7004 136.192 17.6343 138.068 16.8921C139.957 16.1365 142.143 15.7586 144.626 15.7586C146.354 15.7586 148.007 15.961 149.585 16.3659C151.178 16.7707 152.588 17.3982 153.816 18.2483C155.057 19.0985 156.036 20.1915 156.751 21.5274C157.466 22.8499 157.824 24.4355 157.824 26.2842V47.2544H149.646V42.9429H149.403C148.904 43.9145 148.236 44.7714 147.399 45.5136C146.563 46.2423 145.557 46.8158 144.383 47.2341C143.209 47.6389 141.853 47.8414 140.315 47.8414ZM142.784 41.8904C144.053 41.8904 145.173 41.6407 146.144 41.1414C147.116 40.6286 147.878 39.9404 148.432 39.0768C148.985 38.2132 149.262 37.2348 149.262 36.1418V32.8424C148.992 33.0178 148.621 33.1798 148.148 33.3282C147.689 33.4632 147.17 33.5914 146.59 33.7128C146.009 33.8208 145.429 33.922 144.849 34.0164C144.269 34.0974 143.742 34.1716 143.27 34.2391C142.258 34.3875 141.374 34.6237 140.618 34.9475C139.863 35.2714 139.276 35.71 138.857 36.2632C138.439 36.803 138.23 37.4777 138.23 38.2874C138.23 39.4614 138.655 40.3588 139.505 40.9795C140.369 41.5867 141.462 41.8904 142.784 41.8904Z" fill="#1F242E"></path><path d="M164.513 47.2544V16.1634H172.873V21.5882H173.197C173.764 19.6585 174.715 18.2011 176.051 17.216C177.387 16.2174 178.925 15.7181 180.666 15.7181C181.098 15.7181 181.564 15.7451 182.063 15.7991C182.562 15.8531 183.001 15.9273 183.379 16.0218V23.673C182.974 23.5516 182.414 23.4436 181.699 23.3492C180.983 23.2547 180.329 23.2075 179.735 23.2075C178.467 23.2075 177.333 23.4841 176.335 24.0374C175.349 24.5771 174.567 25.3328 173.987 26.3044C173.42 27.276 173.136 28.396 173.136 29.6645V47.2544H164.513Z" fill="#1F242E"></path><path d="M195.65 38.3076L195.67 27.9642H196.925L206.884 16.1634H216.782L203.402 31.7899H201.358L195.65 38.3076ZM187.837 47.2544V5.7998H196.46V47.2544H187.837ZM207.269 47.2544L198.119 33.7128L203.868 27.6201L217.369 47.2544H207.269Z" fill="#1F242E"></path><path d="M232.761 47.8616C229.563 47.8616 226.81 47.2139 224.503 45.9184C222.209 44.6095 220.441 42.7607 219.199 40.3722C217.958 37.9703 217.337 35.1297 217.337 31.8506C217.337 28.6524 217.958 25.8456 219.199 23.4301C220.441 21.0146 222.188 19.1322 224.442 17.7828C226.709 16.4333 229.367 15.7586 232.417 15.7586C234.468 15.7586 236.378 16.0892 238.146 16.7504C239.927 17.3982 241.479 18.3765 242.801 19.6855C244.137 20.9944 245.176 22.6407 245.918 24.6244C246.66 26.5945 247.032 28.9021 247.032 31.547V33.9152H220.778V28.5715H238.915C238.915 27.33 238.645 26.2302 238.105 25.2721C237.565 24.314 236.816 23.5651 235.858 23.0253C234.914 22.472 233.814 22.1954 232.559 22.1954C231.25 22.1954 230.089 22.499 229.077 23.1063C228.079 23.7 227.296 24.5029 226.729 25.515C226.163 26.5136 225.872 27.6269 225.859 28.8548V33.9355C225.859 35.4738 226.142 36.803 226.709 37.923C227.289 39.0431 228.106 39.9067 229.158 40.5139C230.211 41.1212 231.459 41.4248 232.903 41.4248C233.861 41.4248 234.738 41.2899 235.534 41.02C236.331 40.7501 237.012 40.3453 237.579 39.8055C238.146 39.2657 238.577 38.6045 238.874 37.8218L246.849 38.3481C246.445 40.2643 245.615 41.9376 244.36 43.368C243.118 44.7849 241.512 45.8914 239.542 46.6876C237.585 47.4703 235.325 47.8616 232.761 47.8616Z" fill="#1F242E"></path><path d="M269.196 16.1634V22.6407H250.473V16.1634H269.196ZM254.723 8.71458H263.346V37.7004C263.346 38.4965 263.468 39.1173 263.71 39.5626C263.953 39.9944 264.291 40.298 264.723 40.4735C265.168 40.6489 265.681 40.7366 266.261 40.7366C266.666 40.7366 267.071 40.7029 267.475 40.6354C267.88 40.5544 268.191 40.4937 268.407 40.4532L269.763 46.8698C269.331 47.0047 268.724 47.1599 267.941 47.3353C267.158 47.5242 266.207 47.6389 265.087 47.6794C263.009 47.7604 261.187 47.4838 259.622 46.8495C258.07 46.2153 256.862 45.2302 255.999 43.8943C255.135 42.5583 254.71 40.8715 254.723 38.8339V8.71458Z" fill="#1F242E"></path><path d="M287.957 47.8616C284.812 47.8616 282.093 47.1936 279.799 45.8577C277.519 44.5083 275.758 42.6325 274.516 40.2306C273.275 37.8151 272.654 35.015 272.654 31.8303C272.654 28.6187 273.275 25.8119 274.516 23.4099C275.758 20.9944 277.519 19.1187 279.799 17.7828C282.093 16.4333 284.812 15.7586 287.957 15.7586C291.101 15.7586 293.813 16.4333 296.094 17.7828C298.388 19.1187 300.155 20.9944 301.397 23.4099C302.638 25.8119 303.259 28.6187 303.259 31.8303C303.259 35.015 302.638 37.8151 301.397 40.2306C300.155 42.6325 298.388 44.5083 296.094 45.8577C293.813 47.1936 291.101 47.8616 287.957 47.8616ZM287.997 41.1819C289.427 41.1819 290.622 40.7771 291.58 39.9674C292.538 39.1443 293.26 38.0242 293.746 36.6073C294.245 35.1904 294.495 33.5779 294.495 31.7696C294.495 29.9614 294.245 28.3488 293.746 26.9319C293.26 25.515 292.538 24.395 291.58 23.5718C290.622 22.7487 289.427 22.3371 287.997 22.3371C286.553 22.3371 285.339 22.7487 284.354 23.5718C283.382 24.395 282.647 25.515 282.147 26.9319C281.661 28.3488 281.419 29.9614 281.419 31.7696C281.419 33.5779 281.661 35.1904 282.147 36.6073C282.647 38.0242 283.382 39.1443 284.354 39.9674C285.339 40.7771 286.553 41.1819 287.997 41.1819Z" fill="#1F242E"></path></g></svg>