<svg xmlns="http://www.w3.org/2000/svg" width="304" height="60" viewBox="0 0 304 60" fill="none"><g clip-path="url(#clip0_5558_1117)"><path d="M19.3465 34.2695L19.3585 34.2925C40.9164 34.2925 59.3251 25.3324 76.0556 14.5499V9.33118C46.2632 -8.06379 21.3336 4.71739 13.6719 9.33118C13.9561 23.9587 18.2232 32.1209 19.3465 34.2695Z" fill="url(#paint0_linear_5558_1117)"></path><path d="M76.1063 9.33156C76.1061 10.8813 76.0735 13.8731 76.0735 14.5415C71.57 17.6732 62.9124 22.4809 58.0142 24.7973C56.8299 21.9118 55.3656 19.088 53.4348 16.6326C53.3506 16.5254 53.2665 16.4182 53.1798 16.3078C51.7361 14.5097 50.0993 12.7579 48.2649 11.3551C48.1572 11.2696 48.0494 11.184 47.9384 11.0959C43.8078 7.83097 38.8761 5.64617 33.7046 4.70431C33.5871 4.68289 33.4696 4.66148 33.3485 4.63941C31.3607 4.29642 29.0022 4.13284 26.9874 4.14855C26.7425 4.14963 26.4976 4.15061 26.2526 4.15149C25.6606 4.15383 25.0686 4.15741 24.4766 4.16201C46.9465 -4.31872 66.2077 3.36355 76.1063 9.33156Z" fill="url(#paint1_linear_5558_1117)"></path><path d="M20.8483 11.7517C20.9839 11.7516 20.9839 11.7516 21.1223 11.7515C28.6443 11.761 35.5812 14.7874 40.9756 19.9642C41.072 20.0561 41.1683 20.148 41.2676 20.2427C41.9057 20.8651 42.4724 21.5249 43.022 22.226C43.0992 22.3223 43.0992 22.3223 43.178 22.4206C44.855 24.5135 46.1713 26.848 47.2506 29.2972C39.4985 32.0201 30.4728 34.2923 19.3618 34.2923C15.6324 27.3718 14.2558 19.0801 13.8125 12.6637C14.7502 12.4057 15.7055 12.1707 16.668 12.0277C16.7969 12.0085 16.7969 12.0085 16.9285 11.9888C17.1892 11.9518 17.45 11.9181 17.7114 11.8863C17.7972 11.8759 17.883 11.8654 17.9715 11.8546C18.9282 11.7529 19.8872 11.7524 20.8483 11.7517Z" fill="url(#paint2_linear_5558_1117)"></path><path d="M74.3653 22.489C74.2197 23.4213 73.9357 24.3397 73.6695 25.2441C73.6379 25.3521 73.6379 25.3521 73.6057 25.4622C71.6445 32.1421 68.5735 38.5351 64.2992 44.052C64.2546 44.1101 64.21 44.1681 64.164 44.2279C63.1045 45.6051 61.9783 46.9172 60.7952 48.1896C60.6233 48.3753 60.4527 48.5623 60.2822 48.7494C59.7349 49.3477 59.1947 49.9336 58.5707 50.4537C58.3562 50.6386 58.1618 50.8361 57.9648 51.0394C57.5511 51.4587 57.1068 51.8265 56.6475 52.1947C56.3774 52.4138 56.1134 52.6384 55.8508 52.8664C53.0367 55.2996 49.8106 57.1933 46.5279 58.9153C46.4108 58.9775 46.4108 58.9775 46.2914 59.0411C46.1023 59.1408 45.9113 59.2369 45.7201 59.3326C45.5752 59.4055 45.5752 59.4055 45.4273 59.4799C44.4575 59.7441 43.6023 59.1703 42.765 58.7403C42.6589 58.6864 42.6589 58.6864 42.5506 58.6315C38.7637 56.7085 35.2873 54.2653 32.1506 51.4045C32.0014 51.27 31.8515 51.1362 31.6988 51.0057C31.0997 50.4922 30.5389 49.9436 29.9825 49.3847C29.8272 49.2288 29.6713 49.0735 29.5154 48.9183C28.9523 48.3557 28.4104 47.7821 27.895 47.1755C27.7814 47.0449 27.6676 46.9145 27.5538 46.7842C27.4453 46.6589 27.3369 46.5335 27.2286 46.4081C27.1466 46.3141 27.1466 46.3141 27.063 46.2183C26.7331 45.8358 26.287 45.2158 26.0156 44.7896C26.5718 44.592 27.2091 44.2461 27.7823 44.109C27.9941 44.0576 28.2058 44.0062 28.4176 43.9546C28.5286 43.9276 28.6396 43.9006 28.754 43.8727C39.3257 41.2886 49.7836 37.448 59.2452 32.008C59.6059 31.8029 59.9701 31.6047 60.3351 31.4071C64.6705 29.0579 68.8403 26.3624 72.7981 23.4267C72.8735 23.3707 72.949 23.3147 73.0267 23.2571C73.1843 23.1391 73.3408 23.0198 73.4967 22.8995C73.6124 22.8106 73.6124 22.8106 73.7304 22.7198C73.7993 22.6662 73.8683 22.6125 73.9394 22.5572C74.1158 22.4405 74.1499 22.489 74.3653 22.489Z" fill="url(#paint3_linear_5558_1117)"></path><path d="M56.3438 52.4756C59.8616 49.2957 60.1356 37.4215 59.8356 31.7182L74.5036 22.1548C70.1579 41.9026 56.4303 52.3974 56.3438 52.4756Z" fill="#E2A840"></path><path d="M25.6177 46.3499C60.3094 37.8512 81.9364 19.4047 90.5 6.47363C54.7664 41.6677 -8.02472 47.6651 12.4895 23.1418C-10.2051 42.1221 0.33535 51.6633 25.6177 46.3499Z" fill="white"></path><path d="M111.594 15.9778V29.4623H129.293V36.4099H111.593V55.3054H103.199L103.199 9.02826H132.438V15.9778H111.594Z" fill="white"></path><path d="M144.779 22.2318V55.3054H137.012V22.2318H144.779Z" fill="white"></path><path d="M156.905 25.9275C157.608 25.2026 157.616 25.171 158.362 24.5954C159.13 23.9985 159.94 23.4868 160.793 23.0604C161.646 22.634 162.551 22.3036 163.511 22.0691C164.47 21.8345 165.515 21.7173 166.645 21.7173C168.436 21.7173 170.157 21.9624 171.5 22.5593C172.865 23.1563 174.04 23.9247 174.969 24.9921C175.897 26.0596 176.599 27.0034 177.301 28.9682C177.77 30.4819 178.113 32.2542 178.113 34.0877V55.3054H170.377V34.0672C170.284 31.8218 169.81 30.698 168.787 29.4828C167.617 28.3133 166.588 28.1729 164.577 28.0794C162.752 28.1729 161.782 28.5921 160.46 29.2957C159.057 30.1377 158.682 30.5587 157.513 31.6347V55.3054L149.76 55.3155V22.2289H153.917C154.855 22.2289 156.063 22.2289 156.624 23.916L156.905 25.9275Z" fill="white"></path><path d="M200.13 41.3182C197.678 41.4034 195.826 41.6533 194.142 41.9731C192.458 42.2716 191.35 42.699 190.306 43.1894C189.323 43.7507 189.091 43.9319 188.622 44.5928C188.201 45.4816 188.107 45.6284 188.107 46.4172C188.107 47.1847 188.247 47.6405 188.481 48.1949C188.737 48.7278 188.85 48.8616 189.277 49.224C189.791 49.5515 189.964 49.6836 190.54 49.8542C191.137 50.0034 191.427 50.0661 192.13 50.0661C193.908 50.0661 194.75 49.9257 196.2 49.4111C197.51 48.803 198.914 47.7899 200.13 46.5108V41.3182ZM182.035 27.097C185.723 23.6646 190.122 21.6237 195.218 21.6237C197.094 21.6237 199.148 21.8943 200.597 22.5125C201.954 22.9803 203.382 23.9925 204.387 25.0387C205.509 26.2082 206.354 27.7139 206.866 29.2489C207.381 30.6055 207.708 32.5867 207.708 34.4415V55.3054H203.966C203.305 55.3054 202.609 55.1183 202.282 54.8376C201.94 54.6244 201.533 53.9488 201.346 53.3875L200.925 51.6098C199.989 52.3583 199.568 52.7325 198.726 53.2939C197.916 53.8695 196.995 54.3698 196.107 54.7441C195.254 55.1491 194.095 55.399 193.113 55.5861C192.132 55.7993 191.032 55.82 189.838 55.82C188.481 55.82 187.294 55.4807 186.142 55.1183C185.02 54.6973 184.075 54.1178 183.242 53.3407C182.54 52.6857 181.698 51.7501 181.277 50.6274C180.872 49.5456 180.576 48.2625 180.576 46.7914C180.576 45.5336 180.757 44.3833 181.418 43.1894C182.027 42.0535 182.83 40.9907 184.514 39.868C186.071 38.9086 187.976 37.8564 190.783 37.2483C193.262 36.5934 196.34 36.1964 200.083 36.032L200.092 33.8801C199.905 31.4943 199.551 30.5405 198.549 29.3892C197.66 28.6407 196.631 28.0823 194.998 28.0823C193.365 28.0823 192.567 28.2061 191.672 28.5472C190.776 28.867 189.994 29.2394 189.333 29.6231C188.672 30.0069 188.07 30.3716 187.578 30.7366C186.947 31.0265 186.493 31.1669 185.918 31.1669C185.449 31.1669 185.076 31.0967 184.655 30.8862C184.561 30.8394 183.953 30.5587 183.251 29.2957L182.035 27.097Z" fill="white"></path><path d="M220.76 25.9275C221.555 25.2258 221.51 25.2401 222.257 24.6644C223.024 24.0675 223.832 23.5336 224.685 23.1072C225.537 22.6808 226.443 22.3503 227.403 22.1158C228.362 21.8813 229.36 21.7173 230.49 21.7173C232.281 21.7173 234.106 22.0559 235.449 22.6529C236.813 23.2498 238.04 23.9982 238.957 25.0855C239.895 26.1727 240.687 27.5268 241.156 29.0618C241.67 30.6055 241.953 32.249 241.953 34.0825V55.3054H234.232V34.0672C234.186 31.8686 233.484 30.3248 232.501 29.3425C231.332 28.3601 230.63 28.1729 228.525 28.0794C226.99 28.0794 225.777 28.4986 224.455 29.2021C223.145 30.0442 222.584 30.4184 221.368 31.6347V55.3054L213.654 55.3179V22.2313H217.811C218.888 22.0915 220.152 22.6061 220.432 23.8692L220.76 25.9275Z" fill="white"></path><path d="M270.89 29.5296C270.563 29.857 270.516 29.9506 270.142 30.1845C269.861 30.3248 269.534 30.3716 269.347 30.3716C268.926 30.3716 268.589 30.3414 268.13 30.0909C267.616 29.8103 267.335 29.5764 266.774 29.2957C266.233 28.9714 265.553 28.6101 264.775 28.3507C263.996 28.0913 263.172 27.9858 261.955 27.939C260.412 28.0326 259.452 28.1471 258.307 28.6875C257.231 29.2957 256.512 29.7767 255.734 30.7926C254.985 31.8686 254.579 32.6658 254.19 34.114C253.822 35.5407 253.628 36.9044 253.628 38.6985C253.628 40.5574 253.826 42.0686 254.237 43.5168C254.647 44.9651 255.219 46.0897 256.108 47.0721C256.886 48.0665 257.694 48.5181 258.774 49.0369C260.365 49.5047 260.505 49.5047 261.768 49.5515C263.108 49.5515 264.106 49.3611 264.949 49.0369C265.745 48.6627 266.212 48.4436 266.774 48.0545C267.336 47.6654 267.896 47.1657 268.411 46.8382C268.972 46.5108 269.674 46.464 270.142 46.6043C270.89 46.7914 271.243 47.3415 271.545 47.7738C271.545 47.7738 274.216 49.1869 273.417 50.1596C272.617 51.1323 271.392 52.3225 270.419 52.9926C269.447 53.6627 268.421 54.2139 267.34 54.6462C266.259 55.0569 265.135 55.3487 263.968 55.5217C262.801 55.7162 261.622 55.8135 260.434 55.8135C258.38 55.8135 256.456 55.4352 254.662 54.6787C252.89 53.9005 251.333 52.7873 249.993 51.339C248.675 49.8691 247.626 48.0858 246.848 45.9891C246.091 43.8707 245.713 41.4605 245.713 38.7585C245.713 36.3159 246.059 34.0571 246.751 31.982C247.442 29.8852 248.448 28.0803 249.766 26.5672C251.106 25.0541 252.76 23.876 254.727 23.033C256.694 22.1683 258.964 21.736 261.536 21.736C263.935 21.736 265.978 22.0915 267.859 22.9033C269.861 23.6353 271.779 25.1322 273.089 26.5356L270.89 29.5296Z" fill="white"></path><path d="M296.152 34.6286C296.058 33.4591 295.935 32.907 295.59 31.9154C295.267 30.9022 294.74 30.2625 294.093 29.5296C293.345 28.7811 292.911 28.5357 291.941 28.1262C290.865 27.7519 290.491 27.7051 289.181 27.6584C286.609 27.7051 285.205 28.2665 283.802 29.5296C282.398 31.1201 281.884 32.1025 281.322 34.6286H296.152ZM281.045 39.8186C281.279 41.7366 281.391 42.6492 281.887 44.0289C282.448 45.3855 282.939 46.211 283.758 47.1164C284.741 48.052 285.021 48.1923 286.144 48.7537C287.22 49.2215 288.651 49.4554 290.074 49.4554C291.432 49.4554 292.6 49.2682 293.535 48.9408C294.527 48.6174 295.422 48.1845 296.155 47.8181C296.716 47.4906 297.415 47.1189 298.023 46.7914C298.56 46.5024 299.342 46.4812 299.707 46.609C300.362 46.8382 300.596 47.0721 301.045 47.7271L302.938 50.1571C302.093 51.2356 300.643 52.5454 299.894 52.9196C298.859 53.5879 297.695 54.2087 296.573 54.6037C295.409 55.0133 294.246 55.3201 293.017 55.4926C291.789 55.6866 290.579 55.7732 289.415 55.7732C287.13 55.7732 285.015 55.405 283.053 54.6505C281.113 53.8745 279.352 52.723 277.907 51.2356C276.485 49.7482 275.358 47.8675 274.539 45.6687C273.742 43.47 273.323 40.9574 273.323 38.0903C273.323 35.8053 273.697 33.5994 274.446 31.6347C275.179 29.6515 276.243 27.9079 277.58 26.4421C278.938 24.9762 280.584 23.8514 282.503 23.0107C284.443 22.1484 286.631 21.7173 289.067 21.7173C291.093 21.7173 292.968 22.0514 294.692 22.7197C296.417 23.3664 297.904 24.3256 299.154 25.5975C300.318 26.7202 301.488 28.4511 302.096 30.2755C302.845 32.0531 303.219 34.2412 303.219 36.5908C303.266 37.8539 303.032 38.6491 302.798 39.0234C302.611 39.3976 302.113 39.7719 301.488 39.7719L281.045 39.8186Z" fill="white"></path><path d="M145.891 13.0395C145.891 15.8117 143.644 18.059 140.872 18.059C138.1 18.059 135.852 15.8117 135.852 13.0395C135.852 10.2673 138.1 8.02002 140.872 8.02002C143.644 8.02002 145.891 10.2673 145.891 13.0395Z" fill="white"></path></g><defs><linearGradient id="paint0_linear_5558_1117" x1="22.224" y1="5.79525" x2="49.0837" y2="28.9846" gradientUnits="userSpaceOnUse"><stop stop-color="#E8B044"></stop><stop offset="0.385251" stop-color="#E8B044"></stop><stop offset="0.66" stop-color="#D89E40"></stop><stop offset="1" stop-color="#C4893B"></stop></linearGradient><linearGradient id="paint1_linear_5558_1117" x1="43.1964" y1="0.399903" x2="60.1997" y2="23.5074" gradientUnits="userSpaceOnUse"><stop stop-color="#E3A83E"></stop><stop offset="0.259803" stop-color="#E1A73F"></stop><stop offset="1" stop-color="#C2843A"></stop></linearGradient><linearGradient id="paint2_linear_5558_1117" x1="16.0241" y1="12.5862" x2="25.7689" y2="34.2923" gradientUnits="userSpaceOnUse"><stop offset="0.01" stop-color="#E1A842"></stop><stop offset="0.19" stop-color="#DEA641"></stop><stop offset="1" stop-color="#C5893B"></stop></linearGradient><linearGradient id="paint3_linear_5558_1117" x1="35.6395" y1="42.184" x2="45.7468" y2="59.5469" gradientUnits="userSpaceOnUse"><stop stop-color="#CC913C"></stop><stop offset="1" stop-color="#E4A93E"></stop></linearGradient><clipPath id="clip0_5558_1117"><rect width="304" height="60" fill="white"></rect></clipPath></defs></svg>