<svg xmlns="http://www.w3.org/2000/svg" width="298" height="60" viewBox="0 0 298 60" fill="none"><g clip-path="url(#clip0_5164_1196)"><path d="M21.9632 0.358351C23.3202 0.309822 24.5039 0.689587 25.5077 1.61285C26.5227 2.67883 26.8351 3.8817 26.8088 5.30943C26.7542 6.48427 26.1203 7.49606 25.2824 8.28682C24.3374 9.08554 23.2926 9.40878 22.0777 9.50847C18.3084 9.86993 14.8777 11.4482 12.3847 14.3557C11.5591 15.3844 10.9255 16.5174 10.3883 17.7185C10.3376 17.8317 10.2869 17.9448 10.2348 18.0613C8.97338 21.1082 9.09556 24.4224 10.1781 27.4918C10.2067 27.5814 10.2353 27.6709 10.2647 27.7632C10.7526 29.1603 11.7097 30.5044 12.6999 31.5903C12.7792 31.6782 12.8586 31.7661 12.9404 31.8567C13.6268 32.5801 14.3958 33.1418 15.2216 33.6921C15.309 33.7515 15.3964 33.811 15.4864 33.8723C17.4326 35.1224 19.7722 35.6485 22.0514 35.7938C22.1478 35.8002 22.2443 35.8066 22.3436 35.8131C25.3768 35.9014 28.7593 34.8142 31.0877 32.8513C31.141 32.807 31.1943 32.7627 31.2493 32.7171C31.9607 32.1249 32.6467 31.5207 33.2926 30.8567C33.5645 30.5843 33.8535 30.3358 34.1455 30.0854C34.4069 29.854 34.6488 29.6061 34.8933 29.3571C35.156 29.099 35.4353 28.8618 35.7142 28.6215C35.9138 28.4441 36.1018 28.2603 36.2888 28.0698C36.54 27.814 36.7985 27.5745 37.0703 27.3407C37.3654 27.0866 37.6443 26.8236 37.9175 26.546C38.256 26.2022 38.6095 25.8847 38.9752 25.5702C39.2377 25.3374 39.481 25.0885 39.7267 24.8383C39.9894 24.5802 40.2687 24.343 40.5476 24.1027C40.7471 23.9253 40.9352 23.7414 41.1222 23.551C41.4415 23.2259 41.7787 22.9287 42.1237 22.6314C42.3232 22.4541 42.5113 22.2702 42.6983 22.0797C43.0158 21.7565 43.3509 21.4614 43.6945 21.1664C43.9073 20.9757 44.1033 20.7755 44.3007 20.5691C45.4975 19.358 46.7582 18.5727 48.4708 18.5264C49.7033 18.5494 50.8095 19.0188 51.7215 19.8507C52.5688 20.743 52.9606 21.8169 52.9889 23.0387C52.9368 24.638 52.2438 25.7374 51.1025 26.8321C50.805 27.1049 50.5033 27.3718 50.1967 27.6343C49.9363 27.8641 49.6958 28.1111 49.4526 28.3588C49.1899 28.6169 48.9106 28.8541 48.6317 29.0944C48.4321 29.2718 48.2441 29.4557 48.0571 29.6461C47.7378 29.9712 47.4006 30.2684 47.0556 30.5657C46.856 30.743 46.668 30.9269 46.481 31.1174C46.2298 31.3732 45.9713 31.6127 45.6995 31.8464C45.4044 32.1006 45.1255 32.3636 44.8523 32.6412C44.5138 32.985 44.1603 33.3025 43.7946 33.6169C43.5321 33.8497 43.2888 34.0986 43.0431 34.3489C42.7804 34.607 42.5011 34.8442 42.2222 35.0845C42.0227 35.2619 41.8346 35.4457 41.6476 35.6362C41.3964 35.892 41.1379 36.1315 40.8661 36.3653C40.571 36.6194 40.2922 36.8824 40.0189 37.16C39.6801 37.5042 39.3263 37.8221 38.96 38.1366C38.7675 38.3076 38.5888 38.4855 38.41 38.6706C34.4352 42.7002 28.469 44.9074 22.8734 44.9619C22.7307 44.9624 22.5881 44.9627 22.4454 44.9628C22.3352 44.963 22.3352 44.963 22.2228 44.9632C20.2309 44.9612 18.3056 44.697 16.3774 44.2009C16.3036 44.1823 16.2297 44.1636 16.1536 44.1444C14.9424 43.8325 13.8276 43.3714 12.6999 42.8348C12.628 42.8013 12.556 42.7679 12.4819 42.7334C10.7595 41.9304 9.22695 40.8865 7.76143 39.6821C7.68599 39.6217 7.61054 39.5613 7.53281 39.499C7.14923 39.1843 6.83325 38.8381 6.51368 38.4592C6.29328 38.2141 6.05977 37.9878 5.82104 37.7607C4.44123 36.4364 3.42593 34.8338 2.50776 33.1666C2.44343 33.0523 2.37909 32.9379 2.3128 32.8201C-0.320428 27.8783 -0.59664 21.8925 0.935254 16.574C1.60947 14.4034 2.58709 12.1721 3.97879 10.3623C4.07385 10.2321 4.16863 10.1017 4.26323 9.97111C4.92332 9.06629 5.61705 8.22556 6.39548 7.41983C6.46347 7.34885 6.53146 7.27786 6.60152 7.20473C6.96062 6.83744 7.33651 6.49291 7.72654 6.15877C7.90802 6.0031 8.0875 5.8451 8.26586 5.68587C9.09901 4.95024 9.98525 4.34105 10.9299 3.75717C11.0871 3.65944 11.2424 3.55878 11.3971 3.45724C14.4749 1.48307 18.3579 0.581209 21.9632 0.358351Z" fill="url(#paint0_linear_5164_1196)"></path><path d="M62.5175 6.26402C62.5776 6.31291 62.6377 6.3618 62.6996 6.41216C63.4908 7.05817 64.2109 7.73397 64.887 8.49963C65.1065 8.74405 65.3319 8.96885 65.5712 9.19338C66.0913 9.70723 66.4971 10.3057 66.9063 10.9082C67.0266 11.0849 67.1493 11.2601 67.272 11.4351C68.8427 13.755 69.8601 16.4513 70.398 19.19C70.4153 19.2774 70.4327 19.3649 70.4506 19.455C70.8941 21.805 70.9502 24.5074 70.503 26.8615C70.4867 26.9507 70.4703 27.04 70.4534 27.132C69.68 31.2452 67.9234 34.8167 65.2559 38.0271C65.2062 38.0875 65.1565 38.1478 65.1053 38.21C64.983 38.3546 64.854 38.4936 64.724 38.6314C64.6547 38.6314 64.5853 38.6314 64.5139 38.6314C64.4889 38.6917 64.464 38.752 64.4383 38.8141C64.2744 39.1036 64.082 39.2737 63.8309 39.4918C63.4189 39.8512 63.4189 39.8512 63.0166 40.2213C59.1419 43.8745 53.4443 46.0572 48.1224 45.9876C47.751 45.9583 47.4236 45.8983 47.0717 45.7775C46.9941 45.7516 46.9165 45.7257 46.8365 45.699C45.6753 45.2477 44.8398 44.414 44.3172 43.298C43.8401 42.1162 43.8164 40.9927 44.2347 39.7874C44.5266 39.1734 44.8776 38.6615 45.3905 38.2111C45.4455 38.1594 45.5005 38.1078 45.5572 38.0547C46.5399 37.1585 47.6172 36.9452 48.9039 36.8055C52.5173 36.3786 55.981 34.9004 58.3145 32.0108C58.3879 31.9203 58.4614 31.8298 58.537 31.7366C60.7355 28.9215 61.7607 25.4526 61.3794 21.8884C60.9298 18.3804 59.1104 15.4471 56.4232 13.1999C56.0516 12.9272 55.6683 12.6913 55.2674 12.4643C55.1774 12.4129 55.1774 12.4129 55.0855 12.3605C51.9391 10.5781 48.1859 9.98482 44.658 10.9443C44.1929 11.0786 43.7413 11.2404 43.289 11.4134C43.1684 11.4586 43.0477 11.5039 42.9233 11.5505C41.0483 12.3006 39.5002 13.491 38.0949 14.9265C37.8006 15.2212 37.4932 15.4928 37.1767 15.7631C36.9174 15.9914 36.6783 16.2375 36.4363 16.4839C36.1736 16.7421 35.8943 16.9792 35.6154 17.2195C35.4159 17.3969 35.2278 17.5808 35.0408 17.7713C34.7896 18.027 34.5311 18.2666 34.2593 18.5003C33.9642 18.7545 33.6854 19.0175 33.4122 19.295C33.0736 19.6389 32.7201 19.9564 32.3544 20.2708C32.092 20.5036 31.8486 20.7525 31.6029 21.0027C31.3402 21.2609 31.0609 21.498 30.782 21.7384C30.5825 21.9158 30.3944 22.0996 30.2074 22.2901C29.8882 22.6152 29.551 22.9123 29.2059 23.2096C29.0064 23.387 28.8183 23.5709 28.6313 23.7613C28.3801 24.0171 28.1217 24.2567 27.8498 24.4904C27.5548 24.7446 27.2759 25.0076 27.0027 25.2851C25.6892 26.6115 24.3037 27.7505 22.3663 27.8335C21.0885 27.8142 19.9448 27.3127 19.0089 26.4571C18.0174 25.3466 17.7646 24.1078 17.8408 22.6672C17.9651 21.337 18.7738 20.4459 19.6869 19.5512C19.7565 19.4823 19.8261 19.4134 19.8977 19.3425C20.3036 18.9429 20.7162 18.556 21.1514 18.1883C21.4068 17.966 21.64 17.7237 21.8771 17.4823C22.1398 17.2241 22.419 16.987 22.698 16.7466C22.8975 16.5693 23.0856 16.3854 23.2726 16.1949C23.5238 15.9392 23.7822 15.6996 24.0541 15.4659C24.3491 15.2117 24.628 14.9487 24.9012 14.6711C25.2397 14.3273 25.5932 14.0098 25.9589 13.6954C26.2214 13.4626 26.4647 13.2137 26.7104 12.9634C26.9731 12.7053 27.2524 12.4681 27.5313 12.2278C27.7309 12.0504 27.9189 11.8666 28.1059 11.6761C28.4252 11.351 28.7624 11.0539 29.1074 10.7566C29.307 10.5792 29.495 10.3953 29.682 10.2049C29.9332 9.94908 30.1917 9.70951 30.4635 9.4758C30.7586 9.22163 31.0375 8.95861 31.3107 8.68107C31.6416 8.34561 31.9841 8.03247 32.3417 7.72583C32.6099 7.49163 32.8691 7.24875 33.1298 7.00621C36.7369 3.72564 41.5423 1.93001 46.3362 1.42993C46.417 1.42125 46.4978 1.41256 46.5811 1.40361C52.1992 0.842205 58.1698 2.67846 62.5175 6.26402Z" fill="url(#paint1_linear_5164_1196)"></path><path d="M103.194 46.8974C99.9938 46.8974 97.0938 46.3307 94.4938 45.1974C91.9604 44.0641 89.8604 42.4641 88.1938 40.3974C86.5938 38.3307 85.5604 35.8641 85.0938 32.9974L93.5938 31.6974C94.1938 34.1641 95.4271 36.0641 97.2938 37.3974C99.1604 38.7307 101.294 39.3974 103.694 39.3974C105.027 39.3974 106.327 39.1974 107.594 38.7974C108.86 38.3307 109.894 37.6974 110.694 36.8974C111.494 36.0974 111.894 35.0974 111.894 33.8974C111.894 33.4974 111.827 33.0974 111.694 32.6974C111.56 32.2974 111.36 31.8974 111.094 31.4974C110.76 31.1641 110.327 30.8307 109.794 30.4974C109.26 30.2307 108.56 29.9641 107.694 29.6974L96.4938 26.3974C95.6938 26.1974 94.7271 25.8641 93.5938 25.3974C92.5271 24.9974 91.4604 24.3974 90.3938 23.5974C89.3938 22.7307 88.5271 21.6641 87.7938 20.3974C87.1271 18.9974 86.7938 17.2974 86.7938 15.2974C86.7938 12.4307 87.5271 10.0641 88.9938 8.19741C90.4604 6.26408 92.3938 4.83075 94.7938 3.89742C97.2604 3.03075 99.9604 2.59741 102.894 2.59741C105.827 2.59741 108.494 3.09741 110.894 4.09741C113.227 5.03075 115.16 6.43075 116.694 8.29741C118.294 10.1641 119.427 12.4307 120.094 15.0974L111.294 16.4974C111.027 15.1641 110.46 14.0307 109.594 13.0974C108.727 12.0974 107.694 11.3641 106.494 10.8974C105.294 10.4307 104.06 10.1641 102.794 10.0974C101.527 10.0307 100.294 10.1974 99.0938 10.5974C98.0271 10.9974 97.1271 11.5641 96.3938 12.2974C95.6604 13.0307 95.2938 13.8974 95.2938 14.8974C95.2938 15.8307 95.5938 16.5974 96.1938 17.1974C96.7938 17.7307 97.5271 18.1974 98.3938 18.5974C99.2604 18.9307 100.16 19.1974 101.094 19.3974L108.594 21.4974C109.727 21.7641 110.96 22.1307 112.294 22.5974C113.627 23.0641 114.927 23.7307 116.194 24.5974C117.46 25.4641 118.494 26.5974 119.294 27.9974C120.094 29.3974 120.494 31.1641 120.494 33.2974C120.494 35.6307 119.994 37.6307 118.994 39.2974C118.06 41.0308 116.76 42.4641 115.094 43.5974C113.494 44.6641 111.66 45.4974 109.594 46.0974C107.527 46.6307 105.394 46.8974 103.194 46.8974ZM145.294 39.2974V45.9974C143.027 46.3974 140.827 46.5974 138.694 46.5974C136.56 46.5307 134.627 46.1307 132.894 45.3974C131.227 44.7307 129.96 43.5974 129.094 41.9974C128.294 40.5307 127.86 39.0641 127.794 37.5974C127.794 36.0641 127.794 34.3641 127.794 32.4974V5.19741H135.894V31.9974C135.894 33.1974 135.927 34.3307 135.994 35.3974C135.994 36.3307 136.194 37.0974 136.594 37.6974C137.327 38.8307 138.46 39.4641 139.994 39.5974C141.594 39.6641 143.36 39.5641 145.294 39.2974ZM145.294 20.2974H122.294V14.0974H145.294V20.2974ZM158.994 46.8974C156.727 46.8974 154.76 46.4641 153.094 45.5974C151.494 44.6641 150.294 43.4974 149.494 42.0974C148.694 40.5641 148.294 38.9307 148.294 37.1974C148.294 35.7307 148.494 34.3641 148.894 33.0974C149.36 31.8974 150.127 30.8307 151.194 29.8974C152.194 28.9641 153.56 28.1641 155.294 27.4974C156.494 27.0974 157.927 26.7307 159.594 26.3974C161.26 26.0641 163.127 25.7307 165.194 25.3974C167.327 25.1307 169.627 24.7974 172.094 24.3974L169.194 25.9974C169.194 24.1307 168.727 22.7307 167.794 21.7974C166.927 20.9307 165.394 20.4974 163.194 20.4974C161.994 20.4974 160.76 20.7974 159.494 21.3974C158.16 21.9307 157.26 22.9307 156.794 24.3974L149.394 22.0974C150.194 19.4307 151.727 17.2641 153.994 15.5974C156.26 13.9974 159.327 13.1974 163.194 13.1974C166.06 13.1974 168.594 13.6307 170.794 14.4974C172.994 15.3641 174.694 16.8641 175.894 18.9974C176.494 20.1307 176.86 21.2974 176.994 22.4974C177.127 23.6974 177.194 25.0307 177.194 26.4974V45.9974H169.994V39.3974L171.094 40.7974C169.494 42.9308 167.76 44.4974 165.894 45.4974C164.094 46.4307 161.794 46.8974 158.994 46.8974ZM160.794 40.4974C162.26 40.4974 163.494 40.2641 164.494 39.7974C165.56 39.2641 166.394 38.6641 166.994 37.9974C167.594 37.3307 168.027 36.7641 168.294 36.2974C168.694 35.4308 168.927 34.4307 168.994 33.2974C169.06 32.0974 169.094 31.1307 169.094 30.3974L171.494 30.9974C169.094 31.3974 167.127 31.7307 165.594 31.9974C164.127 32.2641 162.927 32.4974 161.994 32.6974C161.06 32.8974 160.26 33.1307 159.594 33.3974C158.794 33.7307 158.127 34.0641 157.594 34.3974C157.127 34.7974 156.76 35.1974 156.494 35.5974C156.294 36.0641 156.194 36.5641 156.194 37.0974C156.194 37.8307 156.394 38.4641 156.794 38.9974C157.127 39.4641 157.627 39.8307 158.294 40.0974C159.027 40.3641 159.86 40.4974 160.794 40.4974ZM190.794 45.9974H182.594V13.9974H189.694V21.8974L188.994 20.8974C189.394 19.7641 189.927 18.7307 190.594 17.7974C191.327 16.9307 192.194 16.1974 193.194 15.5974C193.994 15.1307 194.86 14.7641 195.794 14.4974C196.66 14.2307 197.594 14.0641 198.594 13.9974C199.594 13.9307 200.56 13.9307 201.494 13.9974V21.5974C200.627 21.2641 199.594 21.1641 198.394 21.2974C197.194 21.3641 196.127 21.6307 195.194 22.0974C194.194 22.4974 193.394 23.0641 192.794 23.7974C192.127 24.5307 191.627 25.3974 191.294 26.3974C190.96 27.3307 190.794 28.4307 190.794 29.6974V45.9974ZM226.594 39.2974V45.9974C224.394 46.3974 222.194 46.5641 219.994 46.4974C217.86 46.4307 215.96 46.0641 214.294 45.3974C212.627 44.6641 211.327 43.5307 210.394 41.9974C209.66 40.5307 209.26 39.0641 209.194 37.5974C209.127 36.0641 209.094 34.3307 209.094 32.3974V5.19741H217.294V31.8974C217.294 33.1641 217.294 34.2974 217.294 35.2974C217.36 36.2974 217.56 37.0974 217.894 37.6974C218.627 38.8307 219.794 39.4307 221.394 39.4974C222.927 39.6307 224.66 39.5641 226.594 39.2974ZM226.594 20.1974H203.594V13.9974H226.594V20.1974ZM244.894 46.7974C242.827 46.7974 241.027 46.4641 239.494 45.7974C238.027 45.1307 236.794 44.2641 235.794 43.1974C234.86 42.1307 234.094 40.9307 233.494 39.5974C232.96 38.2641 232.56 36.8974 232.294 35.4974C232.094 34.1641 231.994 32.8974 231.994 31.6974V13.9974H237.394V29.9974C237.394 31.5307 237.527 32.9974 237.794 34.3974C238.06 35.7974 238.527 37.0307 239.194 38.0974C239.86 39.2307 240.76 40.1307 241.894 40.7974C243.027 41.4641 244.46 41.7974 246.194 41.7974C247.527 41.7974 248.727 41.5641 249.794 41.0974C250.86 40.6307 251.794 39.9641 252.594 39.0974C253.394 38.1641 253.994 37.0307 254.394 35.6974C254.794 34.2974 254.994 32.6641 254.994 30.7974L258.494 31.8974C258.494 34.9641 257.927 37.6307 256.794 39.8974C255.727 42.0974 254.16 43.7974 252.094 44.9974C250.027 46.1974 247.627 46.7974 244.894 46.7974ZM260.394 45.9974H255.594V37.3974H254.994V13.9974H260.394V45.9974ZM282.394 46.8974C279.394 46.8974 276.86 46.1641 274.794 44.6974C272.727 43.1641 271.127 41.1307 269.994 38.5974C268.927 36.0641 268.394 33.1974 268.394 29.9974C268.394 26.7974 268.927 23.9307 269.994 21.3974C271.127 18.8641 272.727 16.8641 274.794 15.3974C276.86 13.9307 279.427 13.1974 282.494 13.1974C285.427 13.1974 287.994 13.9307 290.194 15.3974C292.327 16.8641 293.994 18.8641 295.194 21.3974C296.327 23.9307 296.894 26.7974 296.894 29.9974C296.894 33.1974 296.327 36.0641 295.194 38.5974C293.994 41.1307 292.327 43.1641 290.194 44.6974C287.994 46.1641 285.394 46.8974 282.394 46.8974ZM272.894 60.1974H267.594V14.0974H272.294V37.5974H272.894V60.1974ZM281.794 42.0974C283.927 42.0974 285.694 41.5641 287.094 40.4974C288.494 39.4307 289.527 37.9641 290.194 36.0974C290.927 34.2974 291.294 32.2641 291.294 29.9974C291.294 27.7307 290.927 25.6974 290.194 23.8974C289.527 22.0974 288.46 20.6641 286.994 19.5974C285.594 18.5307 283.794 17.9974 281.594 17.9974C279.527 17.9974 277.794 18.4974 276.394 19.4974C274.994 20.4974 273.96 21.8974 273.294 23.6974C272.627 25.4974 272.294 27.5974 272.294 29.9974C272.294 32.3307 272.627 34.3974 273.294 36.1974C273.96 37.9974 274.994 39.4307 276.394 40.4974C277.794 41.5641 279.594 42.0974 281.794 42.0974Z" fill="white"></path></g><defs><linearGradient id="paint0_linear_5164_1196" x1="47.4334" y1="6.90765" x2="0.25635" y2="24.3926" gradientUnits="userSpaceOnUse"><stop stop-color="#00DC93"></stop><stop offset="1" stop-color="#00B8E3"></stop></linearGradient><linearGradient id="paint1_linear_5164_1196" x1="65.2571" y1="7.86858" x2="18.0639" y2="25.328" gradientUnits="userSpaceOnUse"><stop stop-color="#00DC93"></stop><stop offset="1" stop-color="#00B8E3"></stop></linearGradient><clipPath id="clip0_5164_1196"><rect width="298" height="60" fill="white"></rect></clipPath></defs></svg>