<svg xmlns="http://www.w3.org/2000/svg" width="276" height="73" viewBox="0 0 276 73" fill="none"><g clip-path="url(#clip0_5207_1650)"><mask id="mask0_5207_1650" style="mask-type:alpha" maskUnits="userSpaceOnUse" x="0" y="0" width="72" height="73"><path d="M36 72.0689C16.0905 72.0689 0 55.9784 0 36.0689C0 16.1593 16.0905 0.0688705 36 0.0688705C55.9095 0.0688705 72 16.1593 72 36.0689C72 55.9784 55.9095 72.0689 36 72.0689Z" fill="#CC9A45"></path></mask><g mask="url(#mask0_5207_1650)"><path d="M36 72.0689C16.0905 72.0689 0 55.9784 0 36.0689C0 16.1593 16.0905 0.0688705 36 0.0688705C55.9095 0.0688705 72 16.1593 72 36.0689C72 55.9784 55.9095 72.0689 36 72.0689Z" fill="#D59830"></path><rect x="12.0039" y="26.0656" width="48" height="6.00969" rx="3.00485" fill="#03131A"></rect><path d="M29.9727 73.5488L29.9727 46.1021C29.9727 43.9003 28.1878 42.1155 25.986 42.1155C23.7842 42.1155 21.9994 43.9004 21.9994 46.1021L21.9994 73.5488H29.9727Z" fill="#03131A"></path><path d="M39.5703 73.5488V45.6239C39.5703 43.6862 37.9995 42.1155 36.0619 42.1155C34.1242 42.1155 32.5535 43.6862 32.5535 45.6239V73.5488H39.5703Z" fill="#03131A"></path><path d="M49.9258 73.5488V46.0434C49.9258 43.8741 48.1672 42.1155 45.9978 42.1155C43.8285 42.1155 42.0699 43.8741 42.0699 46.0434V73.5488H49.9258Z" fill="#03131A"></path><rect x="15.9883" y="34.0525" width="40.0129" height="6.00969" rx="3.00485" fill="#03131A"></rect></g><path d="M92.0469 59.0118V18.6469H98.1593V54.168H116.496V59.0118H92.0469Z" fill="white"></path><path d="M131.955 59.7038C129.533 59.7038 127.534 59.3001 125.958 58.4928C124.382 57.6855 123.21 56.6283 122.441 55.3213C121.672 53.9758 121.288 52.515 121.288 50.9388C121.288 48.1709 122.364 45.9797 124.517 44.3651C126.669 42.7505 129.745 41.9432 133.743 41.9432H141.239V41.4242C141.239 39.1946 140.624 37.5223 139.394 36.4075C138.202 35.2926 136.645 34.7352 134.723 34.7352C133.032 34.7352 131.552 35.1581 130.283 36.0038C129.053 36.8111 128.303 38.0221 128.034 39.6367H121.922C122.114 37.5608 122.806 35.7924 123.998 34.3316C125.228 32.8323 126.766 31.6982 128.611 30.9294C130.495 30.1221 132.551 29.7184 134.781 29.7184C138.779 29.7184 141.874 30.7756 144.065 32.89C146.256 34.9659 147.352 37.8106 147.352 41.4242V59.0118H142.047L141.528 54.1103C140.72 55.6865 139.548 57.0128 138.01 58.0892C136.472 59.1656 134.454 59.7038 131.955 59.7038ZM133.166 54.7446C134.819 54.7446 136.203 54.3602 137.318 53.5914C138.471 52.7841 139.356 51.7269 139.971 50.4198C140.624 49.1128 141.028 47.6712 141.182 46.095H134.377C131.955 46.095 130.225 46.5179 129.187 47.3636C128.188 48.2094 127.688 49.2666 127.688 50.5352C127.688 51.8422 128.169 52.8802 129.13 53.649C130.129 54.3794 131.475 54.7446 133.166 54.7446Z" fill="white"></path><path d="M158.584 59.0118L150.165 30.4104H156.277L161.813 51.9768L168.04 30.4104H174.845L181.073 51.9768L186.608 30.4104H192.721L184.302 59.0118H178.016L171.443 36.5228L164.869 59.0118H158.584Z" fill="white"></path><path d="M201.1 71.6979L207.962 56.6476H206.29L194.988 30.4104H201.619L210.384 51.5731L219.553 30.4104H226.011L207.559 71.6979H201.1Z" fill="white"></path><path d="M240.671 59.7038C237.865 59.7038 235.366 59.0887 233.175 57.8585C231.022 56.5899 229.33 54.8408 228.1 52.6111C226.87 50.3814 226.255 47.7865 226.255 44.8264C226.255 41.8279 226.851 39.1946 228.043 36.9265C229.273 34.6583 230.964 32.89 233.117 31.6214C235.308 30.3527 237.846 29.7184 240.729 29.7184C243.535 29.7184 245.976 30.3527 248.052 31.6214C250.128 32.8515 251.743 34.5046 252.896 36.5805C254.049 38.6564 254.626 40.9437 254.626 43.4425C254.626 43.8269 254.607 44.2498 254.568 44.7111C254.568 45.134 254.549 45.6145 254.51 46.1527H232.252C232.444 48.9206 233.348 51.0349 234.962 52.4958C236.615 53.9181 238.518 54.6293 240.671 54.6293C242.401 54.6293 243.843 54.2449 244.996 53.476C246.188 52.6687 247.072 51.5923 247.648 50.2469H253.761C252.992 52.9378 251.454 55.1867 249.148 56.9935C246.88 58.8004 244.054 59.7038 240.671 59.7038ZM240.671 34.7352C238.634 34.7352 236.827 35.3503 235.251 36.5805C233.674 37.7722 232.713 39.579 232.367 42.0009H248.513C248.398 39.7712 247.61 38.0028 246.149 36.6958C244.688 35.3887 242.862 34.7352 240.671 34.7352Z" fill="white"></path><path d="M259.238 59.0118V30.4104H264.716L265.235 35.8308C266.235 33.9471 267.618 32.4671 269.387 31.3907C271.194 30.2759 273.366 29.7184 275.903 29.7184V36.1192H274.231C272.539 36.1192 271.021 36.4075 269.675 36.9841C268.368 37.5223 267.311 38.4642 266.504 39.8097C265.735 41.1167 265.35 42.9427 265.35 45.2877V59.0118H259.238Z" fill="white"></path></g><defs><clipPath id="clip0_5207_1650"><rect width="276" height="72" fill="white" transform="translate(0 0.0688705)"></rect></clipPath></defs></svg>