<svg xmlns="http://www.w3.org/2000/svg" width="320" height="64" viewBox="0 0 320 64" fill="none"><g clip-path="url(#clip0_5169_1112)"><path fill-rule="evenodd" clip-rule="evenodd" d="M64.4848 51.1282H15.619C11.8389 51.1282 8.18561 49.7238 5.38755 47.1682C2.57892 44.6233 0.826167 41.1174 0.467169 37.3474C0.108172 33.5775 1.16405 29.8076 3.43418 26.7663C5.70431 23.7356 9.01975 21.6553 12.7364 20.9372C13.2749 19.4694 14.0352 18.0966 14.9854 16.861C15.9357 15.615 17.0761 14.5273 18.3537 13.6297C19.6313 12.7321 21.0356 12.0351 22.5244 11.5599C24.0132 11.0847 25.5653 10.8418 27.128 10.8313C35.3638 -2.5588 55.0559 -3.00232 63.6085 10.6623C75.0541 10.1343 84.7048 19.3532 84.7048 30.8953C84.7048 33.5458 84.1769 36.1753 83.1633 38.6358C82.1391 41.0857 80.6503 43.3138 78.7708 45.1935C76.9019 47.0732 74.674 48.5621 72.2138 49.5865C69.7642 50.6002 67.1351 51.1282 64.4848 51.1282ZM15.619 31.2649C14.3942 31.2649 13.2116 31.7612 12.3458 32.6271C11.4799 33.493 10.9942 34.6758 10.9942 35.9007C10.9942 37.1257 11.4799 38.3084 12.3458 39.1743C13.2116 40.0402 14.3942 40.526 15.619 40.526H64.4848C67.0295 40.526 69.4686 39.5017 71.2741 37.6959C73.0691 35.9007 74.0827 33.4508 74.0933 30.9058C74.0933 28.3503 73.0902 25.9004 71.2952 24.0946C69.5003 22.2889 67.0612 21.254 64.5165 21.2434C63.9041 21.2575 63.2952 21.2962 62.6899 21.3596C62.0775 21.4159 61.4686 21.5004 60.8632 21.613C60.2649 21.7186 59.6701 21.8454 59.0788 21.9932C58.4804 22.1481 57.8927 22.3206 57.3155 22.5106C56.2385 8.72983 35.9129 6.60727 33.4527 21.951C25.6392 18.6985 19.5996 26.3334 19.758 31.2649H15.619Z" fill="#FAE34C"></path><path d="M57.3081 22.5109C56.2311 8.73004 35.9055 6.60747 33.4453 21.9512C33.4453 1.30635 55.0485 -3.00213 63.6011 10.6625L57.3081 22.5109Z" fill="url(#paint0_linear_5169_1112)"></path><path d="M33.4622 21.9511C25.6487 18.6986 19.6091 26.3335 19.7675 31.265C13.7912 21.0324 20.57 10.8314 27.1375 10.8314L33.4622 21.9511Z" fill="url(#paint1_linear_5169_1112)"></path><path d="M64.4975 40.5261C67.0422 40.5261 69.4812 39.5017 71.2868 37.696C73.0818 35.9008 74.0954 33.4509 74.106 30.9059C74.106 28.3504 73.1029 25.9005 71.3079 24.0947C69.5129 22.2889 67.0739 21.2541 64.5292 21.2435C63.9168 21.2576 63.3079 21.2963 62.7025 21.3597C62.0901 21.416 61.4812 21.5005 60.8759 21.6131C60.2775 21.7187 59.6827 21.8454 59.0914 21.9933C58.4931 22.1481 57.9053 22.3206 57.3281 22.5107C67.6546 13.4291 84.7175 19.3533 84.7175 30.8953C84.7175 33.5459 84.1896 36.1753 83.1759 38.6358C82.1517 41.0857 80.663 43.3139 78.7835 45.1936C76.9146 47.0733 74.6867 48.5622 72.2265 49.5865C69.7769 50.6003 67.1478 51.1283 64.4975 51.1283V40.5261Z" fill="url(#paint2_linear_5169_1112)"></path><path d="M15.6187 40.5259C-0.515038 40.5259 2.23024 23.0386 12.7362 20.9371L19.7578 31.2648H15.6187C14.3939 31.2648 13.2113 31.7611 12.3455 32.6271C11.4797 33.493 10.994 34.6757 10.994 35.9007C10.994 37.1256 11.4797 38.3083 12.3455 39.1743C13.2113 40.0402 14.3939 40.5259 15.6187 40.5259Z" fill="url(#paint3_linear_5169_1112)"></path><path d="M99 49.9596H107.206V30.745H128.122V49.9596H136.328V4.72523H128.122V23.8397H107.206V4.72523H99V49.9596ZM158.745 50.6601C168.653 50.6601 174.958 43.6548 174.958 33.1468C174.958 22.6388 168.653 15.6335 158.745 15.6335C148.838 15.6335 142.533 22.6388 142.533 33.1468C142.533 43.6548 148.838 50.6601 158.745 50.6601ZM158.745 44.2552C153.241 44.2552 150.639 39.3515 150.639 33.1468C150.639 26.9421 153.241 21.9383 158.745 21.9383C164.149 21.9383 166.852 26.9421 166.852 33.1468C166.852 39.3515 164.149 44.2552 158.745 44.2552ZM207.582 25.0407C206.482 19.2362 201.878 15.6335 193.972 15.6335C185.766 15.6335 180.162 19.6366 180.262 25.9413C180.162 30.8451 183.264 34.1476 189.769 35.4486L195.573 36.6495C198.676 37.35 200.077 38.651 200.077 40.5524C200.077 42.8542 197.575 44.5555 193.772 44.5555C190.169 44.5555 187.767 43.0543 187.067 39.952L179.261 40.7526C180.262 46.9573 185.466 50.6601 193.772 50.6601C202.278 50.6601 208.283 46.2568 208.283 39.8519C208.283 34.9482 205.181 32.046 198.776 30.6449L192.971 29.3439C189.569 28.6434 188.168 27.4425 188.168 25.441C188.168 23.1392 190.67 21.538 194.072 21.538C197.675 21.538 199.676 23.5395 200.277 25.8413L207.582 25.0407ZM230.9 16.0338H224.195V7.92766H216.189V16.0338H211.385V22.2385H216.189V41.0528C216.189 47.4577 220.792 50.56 226.797 50.46C229.099 50.3599 230.7 49.9596 231.501 49.6593L230.2 43.3546C229.699 43.4546 228.799 43.6548 227.798 43.6548C225.796 43.6548 224.195 42.9543 224.195 39.7518V22.2385H230.9V16.0338ZM236.604 49.9596H244.611V16.0338H236.604V49.9596ZM240.708 11.2302C243.21 11.2302 245.311 9.22865 245.311 6.82683C245.311 4.425 243.21 2.52356 240.708 2.52356C238.106 2.52356 236.004 4.425 236.004 6.82683C236.004 9.22865 238.106 11.2302 240.708 11.2302ZM259.922 30.0445C259.922 25.1407 262.824 22.3386 267.028 22.3386C271.231 22.3386 273.633 25.0407 273.633 29.5441V49.9596H281.639V28.3432C281.639 20.237 277.035 15.5334 270.03 15.5334C264.926 15.5334 261.523 18.0353 259.922 21.7381H259.522V16.0338H251.916V49.9596H259.922V30.0445ZM303.555 63.3698C312.762 63.3698 319.467 59.1666 319.467 50.46V15.9337H311.561V21.6381H311.161C309.96 19.1362 307.458 15.5334 301.454 15.5334C293.648 15.5334 287.443 21.6381 287.443 32.8466C287.443 43.8549 293.648 49.4592 301.454 49.4592C307.258 49.4592 309.96 46.2568 311.161 43.8549H311.561V50.2598C311.561 55.2636 308.259 57.2651 303.755 57.2651C298.852 57.2651 296.75 54.9634 295.849 53.0619L288.644 54.7632C290.045 59.4668 294.949 63.3698 303.555 63.3698ZM303.655 43.1544C298.351 43.1544 295.549 39.0513 295.549 32.7465C295.549 26.6419 298.351 22.1385 303.655 22.1385C308.759 22.1385 311.561 26.3416 311.561 32.7465C311.561 39.2514 308.759 43.1544 303.655 43.1544Z" fill="white"></path></g><defs><linearGradient id="paint0_linear_5169_1112" x1="36.6854" y1="14.7003" x2="57.9971" y2="21.7281" gradientUnits="userSpaceOnUse"><stop stop-color="#CEB936"></stop><stop offset="1" stop-color="#FAE34C"></stop></linearGradient><linearGradient id="paint1_linear_5169_1112" x1="32.2584" y1="18.2764" x2="18.3816" y2="24.1467" gradientUnits="userSpaceOnUse"><stop offset="0.27018" stop-color="#F9E24B"></stop><stop offset="0.976615" stop-color="#CDB936"></stop></linearGradient><linearGradient id="paint2_linear_5169_1112" x1="71.0228" y1="18.0824" x2="71.0228" y2="51.1283" gradientUnits="userSpaceOnUse"><stop stop-color="#CBB735"></stop><stop offset="0.65" stop-color="#FAE34C"></stop></linearGradient><linearGradient id="paint3_linear_5169_1112" x1="12.7991" y1="24.2202" x2="5.21973" y2="35.7946" gradientUnits="userSpaceOnUse"><stop stop-color="#F9E24B"></stop><stop offset="1" stop-color="#D8C43B"></stop></linearGradient><clipPath id="clip0_5169_1112"><rect width="320" height="64" fill="white"></rect></clipPath></defs></svg>