<svg xmlns="http://www.w3.org/2000/svg" width="228" height="56" viewBox="0 0 228 56" fill="none"><g clip-path="url(#clip0_5169_1102)"><path d="M44.5697 0.589939L51.2488 3.66666L27.6227 55.3754L20.9436 52.2987C18.9498 51.4054 18.0526 49.0234 18.9498 47.0385L39.2862 2.57492C40.1834 0.49069 42.5759 -0.303302 44.5697 0.589939Z" fill="#D9AE00"></path><path d="M62.5077 0.986998L69.2865 4.06372L45.6604 55.7724L38.8816 52.6957C36.8878 51.8025 35.9906 49.4205 36.9875 47.3363L57.2242 2.97198C58.1214 0.887749 60.5139 -0.00549185 62.5077 0.986998Z" fill="#D9AE00"></path><path d="M23.5367 6.94191L30.2158 10.0186L9.4807 55.5739L2.70191 52.4972C0.708149 51.604 -0.189042 49.222 0.807839 47.237L18.2533 8.92689C19.1505 6.94191 21.543 6.04867 23.5367 6.94191Z" fill="#D9AE00"></path><path d="M99.9954 51.8026H81.0547V3.17056H99.8957V8.13301H87.8335V24.3106H97.6029V29.0745H87.8335V46.9394H99.9954V51.8026ZM118.438 51.8026H105.478V3.17056H116.544C118.803 3.17056 120.731 3.40214 122.326 3.8653C123.921 4.32847 125.283 5.05629 126.413 6.04878C127.476 7.04127 128.274 8.33151 128.805 9.91949C129.337 11.4413 129.603 13.2278 129.603 15.2789C129.603 17.3301 129.337 19.0835 128.805 20.5391C128.274 21.9948 127.509 23.1527 126.512 24.0128C125.516 24.8068 124.22 25.3362 122.625 25.6008C124.552 26.064 126.114 26.8249 127.31 27.8836C128.506 28.9422 129.403 30.2986 130.002 31.9528C130.6 33.6069 130.899 35.5919 130.899 37.9077C130.899 40.025 130.666 41.9438 130.201 43.6641C129.669 45.3845 128.905 46.8401 127.908 48.0311C126.911 49.2221 125.615 50.1484 124.02 50.8101C122.425 51.4717 120.564 51.8026 118.438 51.8026ZM112.257 28.5783V46.9394H116.743C119.8 46.9394 121.827 46.2446 122.824 44.8551C123.887 43.3995 124.419 41.0837 124.419 37.9077C124.419 35.8566 124.12 34.1693 123.522 32.846C122.99 31.3904 122.126 30.3317 120.93 29.67C119.8 28.9422 118.238 28.5783 116.245 28.5783H112.257ZM112.257 8.13301V23.4174H116.245C118.172 23.4174 119.667 23.1527 120.731 22.6234C121.86 22.094 122.625 21.2339 123.023 20.0429C123.489 18.8519 123.721 17.2639 123.721 15.2789C123.721 13.0955 123.389 11.4744 122.724 10.4157C121.993 9.42325 120.93 8.82775 119.534 8.62925C118.072 8.29842 116.178 8.13301 113.852 8.13301H112.257ZM149.341 52.2988C146.085 52.2988 143.459 51.6702 141.466 50.4131C139.538 49.1559 138.143 47.3363 137.279 44.9544C136.481 42.5724 136.083 39.7603 136.083 36.5182V18.0579C136.083 14.8819 136.481 12.1361 137.279 9.82024C138.143 7.50443 139.538 5.75103 141.466 4.56005C143.459 3.30289 146.085 2.67432 149.341 2.67432C152.664 2.67432 155.256 3.30289 157.117 4.56005C159.044 5.8172 160.44 7.5706 161.304 9.82024C162.168 12.1361 162.6 14.8819 162.6 18.0579V36.6175C162.6 39.7934 162.168 42.5393 161.304 44.8551C160.44 47.2371 159.044 49.0897 157.117 50.4131C155.256 51.6702 152.664 52.2988 149.341 52.2988ZM149.341 47.0386C151.135 47.0386 152.498 46.6747 153.428 45.9469C154.359 45.1529 154.99 44.0942 155.322 42.7709C155.655 41.4476 155.821 39.8596 155.821 38.0069V16.6684C155.821 14.8819 155.655 13.3601 155.322 12.103C154.99 10.7796 154.359 9.78716 153.428 9.1255C152.498 8.39767 151.135 8.03376 149.341 8.03376C147.547 8.03376 146.184 8.39767 145.254 9.1255C144.323 9.78716 143.692 10.7796 143.36 12.103C143.027 13.3601 142.861 14.8819 142.861 16.6684V38.0069C142.861 39.8596 143.027 41.4476 143.36 42.7709C143.692 44.0942 144.323 45.1529 145.254 45.9469C146.184 46.6747 147.547 47.0386 149.341 47.0386ZM181.74 52.2988C178.417 52.2988 175.792 51.6702 173.864 50.4131C171.871 49.1559 170.475 47.3363 169.677 44.9544C168.813 42.5724 168.381 39.7603 168.381 36.5182V18.0579C168.381 14.8819 168.813 12.1361 169.677 9.82024C170.541 7.50443 171.937 5.75103 173.864 4.56005C175.792 3.30289 178.417 2.67432 181.74 2.67432C184.996 2.67432 187.588 3.30289 189.515 4.56005C191.443 5.8172 192.805 7.5706 193.603 9.82024C194.533 12.1361 194.998 14.8819 194.998 18.0579V36.6175C194.998 39.7934 194.533 42.5393 193.603 44.8551C192.805 47.2371 191.443 49.0897 189.515 50.4131C187.588 51.6702 184.996 52.2988 181.74 52.2988ZM181.74 47.0386C183.534 47.0386 184.896 46.6747 185.827 45.9469C186.691 45.1529 187.289 44.0942 187.621 42.7709C187.954 41.4476 188.12 39.8596 188.12 38.0069V16.6684C188.12 14.8819 187.954 13.3601 187.621 12.103C187.289 10.7796 186.691 9.78716 185.827 9.1255C184.896 8.39767 183.534 8.03376 181.74 8.03376C179.945 8.03376 178.55 8.39767 177.553 9.1255C176.622 9.78716 175.991 10.7796 175.659 12.103C175.393 13.3601 175.26 14.8819 175.26 16.6684V38.0069C175.26 39.8596 175.393 41.4476 175.659 42.7709C175.991 44.0942 176.622 45.1529 177.553 45.9469C178.55 46.6747 179.945 47.0386 181.74 47.0386ZM208.356 51.8026H201.578V3.17056H208.356V26.0971L219.521 3.17056H225.902L216.232 24.6083L227.397 51.8026H220.817L211.546 28.9753L208.356 34.6325V51.8026Z" fill="white"></path></g><defs><clipPath id="clip0_5169_1102"><rect width="228" height="56" fill="white"></rect></clipPath></defs></svg>