<svg xmlns="http://www.w3.org/2000/svg" width="338" height="78" viewBox="0 0 338 78" fill="none"><g clip-path="url(#clip0_5183_32157)"><path d="M98.7339 61.4822H90.4531V14.9258H107.406C109.982 14.9258 112.313 15.5545 114.398 16.812C116.499 18.0847 118.163 19.7869 119.39 21.9184C120.617 24.0346 121.23 26.3732 121.23 28.9341C121.23 31.541 120.594 33.9102 119.321 36.0418C118.079 38.1426 116.407 39.8295 114.306 41.1022C112.206 42.3444 109.905 42.9654 107.406 42.9654H98.7339V61.4822ZM98.7339 21.8954V34.8457H106.532C107.712 34.8457 108.786 34.5543 109.752 33.9716C110.718 33.4042 111.485 32.6298 112.052 31.6484C112.65 30.6669 112.949 29.5782 112.949 28.382C112.949 27.1706 112.65 26.0742 112.052 25.0927C111.485 24.1266 110.718 23.3522 109.752 22.7695C108.786 22.1868 107.712 21.8954 106.532 21.8954H98.7339ZM133.053 61.4822H124.795L124.749 28.221H133.03L133.053 31.1883C134.219 29.9922 135.599 29.0491 137.194 28.359C138.804 27.6536 140.537 27.3009 142.392 27.3009C143.634 27.3009 144.876 27.4773 146.118 27.83L142.875 35.9958C142.016 35.6737 141.158 35.5127 140.299 35.5127C138.965 35.5127 137.738 35.8348 136.618 36.4788C135.53 37.0922 134.663 37.9433 134.019 39.032C133.375 40.0901 133.053 41.2786 133.053 42.5974V61.4822ZM161.553 62.3332C158.44 62.3332 155.595 61.5512 153.019 59.987C150.458 58.4075 148.411 56.299 146.877 53.6614C145.359 50.9932 144.6 48.0566 144.6 44.8516C144.6 42.4134 145.037 40.1362 145.911 38.02C146.801 35.9038 148.012 34.0482 149.546 32.4534C151.11 30.8279 152.919 29.5628 154.974 28.6581C157.029 27.738 159.222 27.2779 161.553 27.2779C164.681 27.2779 167.518 28.0677 170.064 29.6472C172.655 31.2267 174.702 33.3428 176.205 35.9958C177.754 38.664 178.528 41.616 178.528 44.8516C178.528 47.2592 178.084 49.521 177.194 51.6372C176.32 53.7381 175.101 55.6013 173.537 57.2268C172.003 58.8216 170.202 60.0714 168.131 60.9761C166.107 61.8809 163.914 62.3332 161.553 62.3332ZM161.553 54.2135C163.209 54.2135 164.689 53.7841 165.992 52.9254C167.311 52.0666 168.346 50.9242 169.098 49.498C169.864 48.0872 170.248 46.5384 170.248 44.8516C170.248 43.1188 169.849 41.5393 169.052 40.1132C168.285 38.687 167.234 37.5522 165.9 36.7088C164.581 35.8348 163.132 35.3977 161.553 35.3977C159.927 35.3977 158.463 35.8348 157.159 36.7088C155.841 37.5676 154.798 38.7177 154.031 40.1592C153.264 41.6006 152.881 43.1648 152.881 44.8516C152.881 46.5998 153.272 48.1869 154.054 49.613C154.852 51.0238 155.902 52.151 157.205 52.9944C158.54 53.8071 159.989 54.2135 161.553 54.2135ZM190.421 57.3188V78.0897H182.14V28.221H190.421V32.4534C191.54 30.9353 192.897 29.7162 194.492 28.7961C196.117 27.83 198.019 27.347 200.196 27.347C202.681 27.347 204.996 27.807 207.143 28.7271C209.29 29.6318 211.184 30.8893 212.825 32.4994C214.465 34.1096 215.738 35.9651 216.643 38.066C217.578 40.1668 218.046 42.4287 218.046 44.8516C218.046 47.2592 217.578 49.5287 216.643 51.6602C215.738 53.7918 214.465 55.6626 212.825 57.2728C211.184 58.8829 209.29 60.1404 207.143 61.0451C204.996 61.9499 202.681 62.4022 200.196 62.4022C198.019 62.4022 196.117 61.9345 194.492 60.9991C192.897 60.0484 191.54 58.8216 190.421 57.3188ZM200.104 35.1677C198.372 35.1677 196.83 35.6124 195.481 36.5018C194.132 37.3606 193.066 38.526 192.284 39.9981C191.517 41.4549 191.134 43.0728 191.134 44.8516C191.134 46.6151 191.517 48.2406 192.284 49.7281C193.066 51.2002 194.132 52.381 195.481 53.2704C196.83 54.1291 198.372 54.5585 200.104 54.5585C201.837 54.5585 203.432 54.1291 204.889 53.2704C206.33 52.3963 207.48 51.2309 208.339 49.7741C209.198 48.2866 209.627 46.6458 209.627 44.8516C209.627 43.0728 209.198 41.4549 208.339 39.9981C207.48 38.526 206.33 37.3606 204.889 36.5018C203.463 35.6124 201.868 35.1677 200.104 35.1677ZM236.701 62.3332C233.573 62.3332 230.72 61.5512 228.144 59.987C225.599 58.4075 223.551 56.2837 222.003 53.6154C220.484 50.9625 219.725 48.0259 219.725 44.8056C219.725 42.398 220.17 40.1362 221.059 38.02C221.949 35.9038 223.16 34.0482 224.694 32.4534C226.258 30.8279 228.067 29.5628 230.122 28.6581C232.177 27.738 234.37 27.2779 236.701 27.2779C239.338 27.2779 241.754 27.8377 243.947 28.9571C246.17 30.0459 248.049 31.541 249.582 33.4425C251.131 35.344 252.25 37.5139 252.94 39.9521C253.646 42.3904 253.807 44.9436 253.423 47.6119H228.627C228.949 48.854 229.471 49.9734 230.191 50.9702C230.912 51.9363 231.824 52.7183 232.929 53.3164C234.033 53.8991 235.29 54.1981 236.701 54.2135C238.142 54.2441 239.453 53.9145 240.634 53.2244C241.83 52.519 242.827 51.5682 243.625 50.3721L252.066 52.3043C250.686 55.2486 248.631 57.6638 245.902 59.55C243.157 61.4055 240.09 62.3332 236.701 62.3332ZM228.351 41.5163H245.051C244.79 40.1822 244.253 38.986 243.441 37.9279C242.658 36.8392 241.677 35.9728 240.496 35.3287C239.315 34.6846 238.05 34.3626 236.701 34.3626C235.336 34.3626 234.079 34.6846 232.929 35.3287C231.778 35.9574 230.797 36.8162 229.984 37.9049C229.187 38.963 228.642 40.1668 228.351 41.5163ZM265.569 61.4822H257.288L257.265 28.221H265.523L265.569 31.1883C266.719 29.9922 268.099 29.0491 269.709 28.359C271.319 27.6383 273.044 27.2779 274.884 27.2779C276.142 27.2779 277.392 27.462 278.634 27.83L275.368 35.9958C274.509 35.6737 273.65 35.5127 272.791 35.5127C271.457 35.5127 270.238 35.8271 269.134 36.4558C268.045 37.0845 267.171 37.9433 266.512 39.032C265.883 40.0901 265.569 41.2709 265.569 42.5744V61.4822ZM301.871 28.244V36.3638H295.292V61.4822H287.011V36.3638H281.997V28.244H287.011V17.8011H295.292V28.244H301.871ZM320.042 50.3951L328.323 28.244H337.11L318.547 78.1127H309.761L315.902 61.4822L303.688 28.244H312.751L320.042 50.3951Z" fill="#262B35"></path><mask id="mask0_5183_32157" style="mask-type:alpha" maskUnits="userSpaceOnUse" x="0" y="0" width="73" height="74"><circle cx="36.1068" cy="36.9911" r="36.1068" fill="#1CC15A"></circle></mask><g mask="url(#mask0_5183_32157)"><circle cx="36.1068" cy="36.9911" r="36.1068" fill="#1CC15A"></circle><path d="M36.0597 22.2476L-8.64426 50.7589L-10.5312 62.4256L12.955 93.1259L36.0597 75.126L59.8278 95.5929L62.3862 79.5118L36.0597 61.6075L12.955 79.5118L7.83831 73.4814L36.0597 53.3395L66.2237 74.3037L73.3505 66.1718L36.0597 42.5075L-1.02457 67.1748L-4.40526 59.5018L36.0597 33.37L77.9191 58.8622L82.7617 49.5425L36.0597 22.2476Z" fill="url(#paint0_linear_5183_32157)"></path></g></g><defs><linearGradient id="paint0_linear_5183_32157" x1="-12.5646" y1="63.827" x2="82.7617" y2="63.827" gradientUnits="userSpaceOnUse"><stop stop-color="white"></stop><stop offset="0.51" stop-color="white"></stop><stop offset="0.51" stop-color="#C6EFD6"></stop><stop offset="1" stop-color="#C6EFD6"></stop></linearGradient><clipPath id="clip0_5183_32157"><rect width="338" height="78" fill="white"></rect></clipPath></defs></svg>