<svg xmlns="http://www.w3.org/2000/svg" width="286" height="70" viewBox="0 0 286 70" fill="none"><g clip-path="url(#clip0_5277_932)"><path d="M1.12109 52.2043V3.7793H9.57109L27.7061 28.4143H23.6761L41.4211 3.7793H49.8711V52.2043H40.9661V13.8543L44.4111 14.6993L26.0161 39.2043H24.9761L7.03609 14.6993L9.96109 13.8543V52.2043H1.12109Z" fill="#1C1C1C"></path><path d="M66.5487 52.9843C64.0787 52.9843 61.9337 52.5726 60.1137 51.7493C58.2937 50.926 56.8853 49.756 55.8887 48.2393C54.892 46.6793 54.3937 44.881 54.3937 42.8443C54.3937 40.8943 54.827 39.161 55.6937 37.6443C56.5603 36.0843 57.9037 34.7843 59.7237 33.7443C61.5437 32.7043 63.8403 31.9676 66.6137 31.5343L78.1837 29.6493V36.1493L68.2387 37.8393C66.5487 38.1426 65.292 38.6843 64.4687 39.4643C63.6453 40.2443 63.2337 41.2626 63.2337 42.5193C63.2337 43.7326 63.6887 44.7076 64.5987 45.4443C65.552 46.1376 66.722 46.4843 68.1087 46.4843C69.8853 46.4843 71.4453 46.116 72.7887 45.3793C74.1753 44.5993 75.237 43.5376 75.9737 42.1943C76.7537 40.851 77.1437 39.3776 77.1437 37.7743V28.6743C77.1437 27.1576 76.537 25.901 75.3237 24.9043C74.1537 23.8643 72.5937 23.3443 70.6437 23.3443C68.8237 23.3443 67.1987 23.8426 65.7687 24.8393C64.382 25.7926 63.3637 27.071 62.7137 28.6743L55.7587 25.2943C56.452 23.431 57.5353 21.8276 59.0087 20.4843C60.5253 19.0976 62.302 18.0143 64.3387 17.2343C66.3753 16.4543 68.5853 16.0643 70.9687 16.0643C73.872 16.0643 76.4287 16.606 78.6387 17.6893C80.8487 18.7293 82.5603 20.2026 83.7737 22.1093C85.0303 23.9726 85.6587 26.161 85.6587 28.6743V52.2043H77.5987V46.1593L79.4187 46.0293C78.5087 47.546 77.4253 48.8243 76.1687 49.8643C74.912 50.861 73.482 51.641 71.8787 52.2043C70.2753 52.7243 68.4987 52.9843 66.5487 52.9843Z" fill="#1C1C1C"></path><path d="M110.689 66.5043C108.045 66.5043 105.597 66.071 103.344 65.2043C101.09 64.3376 99.1404 63.1243 97.4938 61.5643C95.8904 60.0476 94.7204 58.2493 93.9837 56.1693L101.914 53.1793C102.434 54.826 103.452 56.1476 104.969 57.1443C106.529 58.1843 108.435 58.7043 110.689 58.7043C112.422 58.7043 113.939 58.3793 115.239 57.7293C116.582 57.0793 117.622 56.126 118.359 54.8693C119.095 53.656 119.464 52.1826 119.464 50.4493V42.3893L121.089 44.3393C119.875 46.4626 118.25 48.066 116.214 49.1493C114.177 50.2326 111.859 50.7743 109.259 50.7743C105.965 50.7743 103.019 50.016 100.419 48.4993C97.8188 46.9826 95.7821 44.9026 94.3088 42.2593C92.8354 39.616 92.0988 36.6476 92.0988 33.3543C92.0988 30.0176 92.8354 27.0493 94.3088 24.4493C95.7821 21.8493 97.7971 19.8126 100.354 18.3393C102.91 16.8226 105.814 16.0643 109.064 16.0643C111.707 16.0643 114.025 16.6276 116.019 17.7543C118.055 18.8376 119.745 20.4193 121.089 22.4993L119.919 24.6443V16.8443H127.979V50.4493C127.979 53.526 127.22 56.2776 125.704 58.7043C124.23 61.131 122.194 63.0376 119.594 64.4243C117.037 65.811 114.069 66.5043 110.689 66.5043ZM110.299 42.9093C112.119 42.9093 113.7 42.5193 115.044 41.7393C116.43 40.916 117.514 39.7893 118.294 38.3593C119.074 36.9293 119.464 35.2826 119.464 33.4193C119.464 31.5993 119.052 29.9743 118.229 28.5443C117.449 27.071 116.365 25.9226 114.979 25.0993C113.635 24.276 112.075 23.8643 110.299 23.8643C108.522 23.8643 106.919 24.276 105.489 25.0993C104.059 25.9226 102.932 27.071 102.109 28.5443C101.329 29.9743 100.939 31.5993 100.939 33.4193C100.939 35.2393 101.329 36.8643 102.109 38.2943C102.932 39.7243 104.037 40.851 105.424 41.6743C106.854 42.4976 108.479 42.9093 110.299 42.9093Z" fill="#1C1C1C"></path><path d="M144.316 52.9843C142.019 52.9843 139.983 52.5726 138.206 51.7493C136.473 50.8826 135.108 49.7126 134.111 48.2393C133.114 46.7226 132.616 44.9893 132.616 43.0393C132.616 41.176 133.006 39.5076 133.786 38.0343C134.609 36.5176 135.866 35.2393 137.556 34.1993C139.289 33.1593 141.456 32.4226 144.056 31.9893L157.056 29.8443V34.9143L145.421 36.8643C143.168 37.2543 141.521 37.9693 140.481 39.0093C139.484 40.0493 138.986 41.3276 138.986 42.8443C138.986 44.2743 139.549 45.466 140.676 46.4193C141.846 47.3726 143.298 47.8493 145.031 47.8493C147.241 47.8493 149.148 47.3943 150.751 46.4843C152.398 45.531 153.676 44.2526 154.586 42.6493C155.539 41.046 156.016 39.2693 156.016 37.3193V28.4143C156.016 26.5076 155.301 24.9693 153.871 23.7993C152.484 22.586 150.643 21.9793 148.346 21.9793C146.353 21.9793 144.576 22.4993 143.016 23.5393C141.499 24.536 140.373 25.8793 139.636 27.5693L134.371 24.8393C135.021 23.236 136.061 21.806 137.491 20.5493C138.921 19.2493 140.589 18.231 142.496 17.4943C144.403 16.7576 146.396 16.3893 148.476 16.3893C151.163 16.3893 153.524 16.9093 155.561 17.9493C157.598 18.946 159.179 20.3543 160.306 22.1743C161.476 23.951 162.061 26.031 162.061 28.4143V52.2043H156.146V45.5743L157.251 45.9643C156.514 47.351 155.518 48.5643 154.261 49.6043C153.004 50.6443 151.531 51.4676 149.841 52.0743C148.151 52.681 146.309 52.9843 144.316 52.9843Z" fill="#1C1C1C"></path><path d="M167.989 52.2043V47.0693L188.854 20.7443L189.894 22.9543H169.029V17.1693H195.289V22.3043L174.619 48.6943L173.579 46.4193H195.419V52.2043H167.989Z" fill="#1C1C1C"></path><path d="M200.031 52.2043V17.1693H206.076V52.2043H200.031ZM200.031 11.5793V3.7793H206.076V11.5793H200.031Z" fill="#1C1C1C"></path><path d="M213.506 52.2043V17.1693H219.421V23.9943L218.446 23.4093C219.313 21.1993 220.699 19.4876 222.606 18.2743C224.556 17.0176 226.831 16.3893 229.431 16.3893C231.944 16.3893 234.176 16.9526 236.126 18.0793C238.119 19.206 239.679 20.766 240.806 22.7593C241.976 24.7526 242.561 27.006 242.561 29.5193V52.2043H236.451V31.4693C236.451 29.5193 236.104 27.8726 235.411 26.5293C234.718 25.186 233.721 24.146 232.421 23.4093C231.164 22.6293 229.713 22.2393 228.066 22.2393C226.419 22.2393 224.946 22.6293 223.646 23.4093C222.389 24.146 221.393 25.2076 220.656 26.5943C219.919 27.9376 219.551 29.5626 219.551 31.4693V52.2043H213.506Z" fill="#1C1C1C"></path><path d="M267.201 52.9843C263.821 52.9843 260.766 52.2043 258.036 50.6443C255.306 49.041 253.139 46.8526 251.536 44.0793C249.933 41.306 249.131 38.1643 249.131 34.6543C249.131 31.1443 249.911 28.0243 251.471 25.2943C253.074 22.5643 255.241 20.3976 257.971 18.7943C260.701 17.191 263.778 16.3893 267.201 16.3893C270.581 16.3893 273.636 17.191 276.366 18.7943C279.096 20.3543 281.241 22.4993 282.801 25.2293C284.404 27.9593 285.206 31.101 285.206 34.6543C285.206 38.2076 284.383 41.371 282.736 44.1443C281.089 46.8743 278.901 49.041 276.171 50.6443C273.484 52.2043 270.494 52.9843 267.201 52.9843ZM267.201 47.1343C269.368 47.1343 271.318 46.5926 273.051 45.5093C274.828 44.426 276.214 42.931 277.211 41.0243C278.251 39.1176 278.771 36.9943 278.771 34.6543C278.771 32.271 278.251 30.1693 277.211 28.3493C276.214 26.486 274.828 25.0126 273.051 23.9293C271.318 22.8026 269.368 22.2393 267.201 22.2393C264.991 22.2393 262.998 22.8026 261.221 23.9293C259.488 25.0126 258.101 26.486 257.061 28.3493C256.021 30.1693 255.501 32.271 255.501 34.6543C255.501 36.9943 256.021 39.1176 257.061 41.0243C258.101 42.931 259.488 44.426 261.221 45.5093C262.998 46.5926 264.991 47.1343 267.201 47.1343Z" fill="#1C1C1C"></path><rect x="134.016" y="59.5625" width="151.988" height="5.97754" fill="#FF6D54"></rect></g><defs><clipPath id="clip0_5277_932"><rect width="286" height="70" fill="white"></rect></clipPath></defs></svg>