<svg xmlns="http://www.w3.org/2000/svg" width="64" height="82" viewBox="0 0 64 82" fill="none"><mask id="mask0_1400_1136" style="mask-type:alpha" maskUnits="userSpaceOnUse" x="0" y="0" width="64" height="82"><rect width="64" height="82" fill="#D9D9D9"></rect></mask><g mask="url(#mask0_1400_1136)"><path d="M29.4864 3.00017C16.0557 3.03551 -0.180637 18.6058 0.001519 35.0488C-0.0283872 51.2797 12.8857 65.5967 32.2676 66.4558C43.2704 66.937 47.3078 61.3853 51.9242 62.6115C56.5406 63.8376 57.0191 67.8994 56.7853 70.9988C56.7815 71.8702 56.5996 72.7316 56.251 73.5302C55.9023 74.3288 55.3942 75.0477 54.7578 75.6429C54.1213 76.2381 53.37 76.697 52.5499 76.9915C51.7298 77.2859 50.8581 77.4097 49.9885 77.3553C47.3023 75.9959 48.9254 68.6553 44.8065 68.2203C42.2346 68.4921 41.0873 70.7487 41.6555 73.5109C42.2237 76.2732 45.7771 78.9158 50.853 79.1252C51.9341 79.1632 53.0114 78.9774 54.0173 78.5794C55.0232 78.1815 55.936 77.58 56.6985 76.8127C57.461 76.0453 58.0567 75.1287 58.4483 74.1203C58.8398 73.1119 59.0188 72.0334 58.9739 70.9526C59.1574 68.6864 58.4694 66.4356 57.0502 64.6593C55.6311 62.8829 53.5877 61.7149 51.337 61.3935C46.136 60.9095 39.5457 67.2089 29.7039 65.3982C22.9084 64.2322 16.7641 60.6476 12.4048 55.3059C8.04546 49.9642 5.76543 43.226 5.98549 36.3348C6.06705 17.5754 23.4643 8.4567 34.4019 8.55729C45.3394 8.65789 51.1059 12.3635 52.7779 18.5976C54.4499 24.8317 47.2561 31.1474 44.0154 34.8367C40.7746 38.5261 39.0618 40.9974 39.7415 45.3066C40.4239 49.8279 45.6194 56.4535 51.0678 56.4182C56.5162 56.3828 64.4413 50.2874 63.8894 35.4838C63.866 30.5868 62.7398 25.7579 60.5945 21.3557C58.4492 16.9536 55.3399 13.0912 51.4974 10.0553C47.5987 6.95867 42.9224 2.97026 29.4864 3.00017Z" fill="url(#paint0_linear_1400_1136)"></path></g><defs><linearGradient id="paint0_linear_1400_1136" x1="46.9978" y1="59.4577" x2="56.5434" y2="74.9464" gradientUnits="userSpaceOnUse"><stop stop-color="#269CB8"></stop><stop offset="0.047" stop-color="#269CB8"></stop><stop offset="0.105" stop-color="#726C68"></stop><stop offset="0.17" stop-color="#E64C18"></stop><stop offset="0.244" stop-color="#E64C18"></stop><stop offset="0.33" stop-color="#E64C18"></stop><stop offset="0.436" stop-color="#E64C18"></stop><stop offset="0.585" stop-color="#E64C18"></stop><stop offset="1" stop-color="#E64C18"></stop></linearGradient></defs></svg>