<svg xmlns="http://www.w3.org/2000/svg" width="105" height="82" viewBox="0 0 105 82" fill="none"><mask id="mask0_1398_1051" style="mask-type:alpha" maskUnits="userSpaceOnUse" x="0" y="0" width="105" height="82"><rect width="105" height="82" fill="#D9D9D9"></rect></mask><g mask="url(#mask0_1398_1051)"><path d="M39.4939 33.8506H43.0915L45.4299 34.3903L47.7683 35.6494L49.3872 37.4482L50.4665 39.7866L51.3659 43.0244V43.3842L56.4025 41.9451L56.7622 40.8659L57.8415 38.7073L59.6403 36.5488L61.6189 35.1098L63.5976 34.2104L65.3964 33.8506H68.9939L70.9726 34.3903L72.7714 35.2897L74.0305 36.5488L74.9299 38.3476L75.2897 40.686L74.9299 42.6647L74.2104 43.7439L73.6708 44.1037H71.6921L70.433 43.564L70.2531 43.2043L70.433 42.4848V40.8659L70.0732 38.8872L69.5336 37.9878V37.6281L68.4543 37.2683L67.1952 37.4482L66.1159 38.3476L65.0366 40.5061L64.3171 43.2043L63.7775 46.8018V53.0976L64.497 56.3354L65.5763 57.9543L67.0153 58.8537L68.4543 59.2134H70.7927L73.1311 58.6738L75.1098 57.5945L76.5488 56.3354L77.9878 54.3567V49.3201L78.5275 45.1829L79.247 42.4848L80.3263 39.9665L81.9452 37.6281L83.3842 36.189L85.3628 34.9299L87.1616 34.2104L88.7805 33.8506H92.558L94.7165 34.3903L96.5153 35.2897L98.1342 36.7287L99.5732 39.247L100.113 40.686V41.2256L100.832 40.8659L102.092 38.8872L102.811 37.4482H104.79L104.43 39.0671L103.351 41.9451L102.271 43.7439L101.012 45.1829L100.832 50.7592L100.293 54.5366L99.3933 57.5945L97.9543 60.1128L96.3354 61.9116L95.0763 62.9909L93.0976 63.8903L90.9391 64.4299H87.7013L84.8232 63.7104L82.6647 62.6311L81.0458 61.1921L79.4269 58.6738L79.0671 57.7744L78.7074 57.5945L78.3476 58.4939L76.7287 60.2927L75.2897 61.7317L72.9513 63.1708L70.433 64.0701L68.4543 64.4299H65.0366L61.9787 63.7104L59.8202 62.6311L57.6616 60.6525L56.2226 58.1342L55.5031 55.9756L55.1433 53.997L54.9635 52.0183V49.3201L55.3232 45.7226L55.5031 45.1829L52.8049 46.0823L51.5458 46.2622V50.2195L51.0061 54.3567L50.2866 56.875L49.5671 58.6738L47.9482 61.0122L46.5092 62.4512L44.7104 63.5305L42.5519 64.25L41.6525 64.4299H38.4147L35.8964 63.8903L33.3781 62.6311L31.5793 61.0122L30.3202 59.0336L29.4208 57.0549L28.8811 54.5366L28.7013 53.0976V48.7805L29.2409 45.0031L29.9604 42.3049L31.3994 39.4269L32.4787 37.8079L34.2775 36.0092L36.2561 34.75L38.5946 34.0305L39.4939 33.8506Z" fill="url(#paint0_linear_1398_1051)"></path><path d="M17.0091 20H21.1463L21.3262 20.1799V62.811L23.125 63.1707L26.1829 64.4299L31.3994 66.9482L35.1768 68.5671L38.4146 69.6463L41.2927 70.186H44.1707L47.5884 69.4665V72.1646L46.689 75.0427L45.6098 76.6616L44.1707 78.1006L42.5518 78.8201L41.8323 79H40.2134L38.0549 78.4604L34.6372 76.6616L31.7591 74.6829L28.8811 72.5244L26.1829 70.5457L22.7652 68.3872L18.628 66.4085L15.75 65.689L12.5122 65.5091V24.497L10.7134 25.5762L9.27439 26.8354L8.01524 28.814L7.29573 30.6128L6.93598 32.0518V36.9085L7.83537 39.7866L8.73476 41.4055L6.39634 41.2256L4.2378 40.5061L2.79878 39.4268L1.71951 38.1677L1.17988 36.7287L1 36.0091V32.5915L1.53963 30.4329L2.79878 27.9146L4.2378 26.1159L6.21646 24.1372L8.73476 22.5183L11.4329 21.2591L14.4909 20.3598L17.0091 20Z" fill="url(#paint1_linear_1398_1051)"></path><path d="M88.7805 33.8506H92.558L94.7165 34.3903L96.5153 35.2897L98.1342 36.7287L99.5732 39.247L100.113 40.686V41.2256L100.832 40.8659L102.092 38.8872L102.811 37.4482H104.79L104.43 39.0671L103.351 41.9451L102.271 43.7439L101.012 45.1829L100.832 50.7592L100.293 54.5366L99.3933 57.5945L97.9543 60.1128L96.3354 61.9116L95.0763 62.9909L93.0976 63.8903L90.9391 64.4299H87.7013L84.8232 63.7104L82.6647 62.6311L81.0458 61.1921L79.4269 58.6738L79.0671 57.7744L78.7074 57.5945L78.3476 58.4939L77.988 59.0336H77.6283L77.8082 58.314L75.6496 59.9329L74.3905 60.6525L71.8722 61.372H69.8935L67.9149 60.8323L66.4759 59.7531V59.3933L65.7563 59.0336L65.5765 58.4939H65.2167L64.8569 57.4147L66.296 58.4939L67.5551 59.0336L68.4543 59.2134H70.7927L73.1311 58.6738L75.1098 57.5945L76.5488 56.3354L77.9878 54.3567V49.3201L78.5275 45.1829L79.247 42.4848L80.3263 39.9665L81.9452 37.6281L83.3842 36.189L85.3628 34.9299L87.1616 34.2104L88.7805 33.8506Z" fill="url(#paint2_linear_1398_1051)"></path><path d="M67.9142 35.6485L70.9721 35.8283L73.4904 37.0875L74.0301 37.807V38.1668H74.3898L74.5697 38.5265L74.9295 38.3466L75.2892 40.6851L74.9295 42.6637L74.2099 43.743L73.6703 44.1027H71.6917L70.4325 43.5631L70.2526 43.2033L70.4325 42.4838V40.8649L70.0728 38.8863L69.5331 37.9869V37.6271L68.4538 37.2674L67.1947 37.4472L66.1154 38.3466L65.0362 40.5052L64.3167 43.2033L63.777 46.8009V53.0966L64.4965 56.3344L65.0362 57.4137L65.216 58.493H65.5758L66.4752 59.3924V59.7521L67.1947 60.1119L67.9142 60.6515L69.8929 61.1912H71.8715L74.3898 60.4716L76.3685 59.2125L77.4478 58.3131H77.8075V59.2125L75.2892 61.7308L72.9508 63.1698L70.4325 64.0692L68.4538 64.429H65.0362L61.9782 63.7094L59.8197 62.6302L57.6612 60.6515L56.2221 58.1332L55.5026 55.9747L55.1429 53.996L54.963 52.0174V49.3192L55.3228 45.7216L55.5026 45.182L55.1429 45.0021L55.6825 44.4625L56.5819 44.2826V43.9229L57.3014 43.743V43.3832H57.6612L58.0209 42.6637L59.8197 39.7857L61.2587 38.1668H61.6185V37.807L62.5179 37.2674L63.9569 36.5479L65.5758 36.0082L67.9142 35.6485Z" fill="url(#paint3_linear_1398_1051)"></path><path d="M90.7591 37.4482H92.5579L93.6371 38.1678L94.3566 39.0671L94.7164 39.7867V40.5062L93.9969 40.8659L93.4572 42.1251V43.9239L93.9969 45.3629L94.8963 46.0824L95.7957 46.622L95.6158 50.7592L95.0761 53.997L94.3566 55.9757L93.2774 57.5946L92.378 58.3141L91.4786 58.6739H90.2194L88.7804 57.9543L87.7011 56.3354L86.9816 53.6373L86.8018 51.6586V48.9604L87.1615 45.0031L87.881 41.7653L88.7804 39.4269L89.8597 37.9879L90.7591 37.4482Z" fill="#FAFAFA"></path><path d="M41.8317 37.4482H42.911L44.35 38.3476L45.2494 39.7867L45.4293 40.686L44.5299 41.4056L44.1701 42.6647V44.2836L44.7098 45.5428L45.4293 46.0824L46.3287 46.4421V50.0397L45.789 53.8171L44.8896 56.3354L43.8104 57.7745L42.7311 58.494L42.1915 58.6739H40.9323L39.4933 57.9543L38.7738 57.0549L38.0543 55.436L37.5146 52.3781V48.061L37.8744 44.8232L38.5939 41.5854L40.0329 38.7074L41.2921 37.6281L41.8317 37.4482Z" fill="#FAFAFA"></path><path d="M39.4939 33.8506H43.0914L45.4298 34.3902L47.7682 35.6494L49.3871 37.4481L50.4664 39.7866L50.8262 41.4055H50.4664L49.7469 39.4268L48.3079 37.628L48.128 37.0884L46.5091 36.5488L45.7896 36.189L43.4512 36.0091H41.1128L39.314 36.3689L37.1554 37.0884L35.3567 38.5274L34.6371 39.2469H34.2774V39.6067H33.9176L33.5579 40.3262L32.8384 41.4055L31.5792 43.9238L30.8597 46.8018L30.5 49.6799V53.6372L30.6798 56.3353L31.2195 59.0335L32.1189 60.8323V61.192H32.4786V61.5518H32.8384V61.9116H33.1981V62.2713L32.4786 61.9116L31.0396 60.2927L29.6006 57.4146L28.881 54.5366L28.7012 53.0975V48.7805L29.2408 45.003L29.9603 42.3049L31.3993 39.4268L32.4786 37.8079L34.2774 36.0091L36.256 34.75L38.5945 34.0305L39.4939 33.8506Z" fill="#074D0A"></path><path d="M17.0091 20H21.1463V22.6982L20.6067 22.1585L19.8872 21.9787L18.8079 22.1585L14.8506 22.5183L11.253 23.7774L9.27439 25.0366L8.375 25.7561H8.01524V26.1159H7.65549V26.4756L6.39634 27.375L5.85671 28.2744H5.49695V28.814H5.1372L3.87805 31.3323L3.15854 33.1311L2.79878 34.9299L2.6189 37.2683L2.79878 38.5274L3.87805 39.7866L4.77744 40.5061L3.87805 40.3262L2.07927 38.7073L1.35976 37.4482L1 36.0091V34.5V32.5915L1.53963 30.4329L2.79878 27.9146L4.2378 26.1159L6.21646 24.1372L8.73476 22.5183L11.4329 21.2591L14.4909 20.3598L17.0091 20Z" fill="#074D0A"></path><path d="M88.7799 33.8506H92.5574L94.7159 34.3902L96.5147 35.2896L98.1336 36.7286L98.3135 37.628L96.8744 36.5488L96.3348 36.0091L93.9964 35.2896H92.0177L90.0391 35.4695L87.7006 36.0091L85.722 36.9085L83.9232 38.1677L82.6641 39.4268L81.7647 40.8658H81.4049L81.225 41.5853L80.5055 43.0244L79.6061 45.7225L79.4263 47.3414L79.2464 48.061L79.0665 48.9603L78.8866 53.6372L78.7067 55.6158L78.347 56.875L76.908 58.4939L75.2891 59.753L72.411 60.4725H70.2525L68.6336 60.1128L67.9141 59.3933L70.7921 59.2134L73.1305 58.6738L75.1092 57.5945L76.5482 56.3353L77.9872 54.3567V49.3201L78.5269 45.1829L79.2464 42.4847L80.3256 39.9664L81.9445 37.628L83.3836 36.189L85.3622 34.9299L87.161 34.2103L88.7799 33.8506Z" fill="#074D0A"></path><path d="M12.6926 25.0361L13.4121 25.9355L13.7718 26.8349L14.1316 29.8928V39.7861L14.3115 49.8593V64.9691L14.4914 65.3288H12.6926L12.5127 41.5849V25.9355L12.6926 25.0361Z" fill="#074D0A"></path><path d="M65.3965 33.8506H68.9941L70.9727 34.3902L72.7715 35.2896L74.0307 36.5488L74.7502 37.9878V38.8872L74.3904 38.1677H74.0307L73.491 37.2683L70.9727 36.0091L67.9148 35.8292L64.8569 36.3689L62.5185 37.4481L62.1587 37.8079H61.6191V38.1677L60.3599 39.2469L58.5611 42.125L57.6618 43.3841H57.302V43.7439L56.5825 43.9238V44.2835L54.7837 45.1829L54.4239 44.8231H52.4453L51.5459 43.3841L55.6831 42.125L56.4026 41.9451L56.7624 40.8658L57.8416 38.7073L59.6404 36.5488L61.6191 35.1097L63.5977 34.2103L65.3965 33.8506Z" fill="#074D0A"></path><path d="M21.6865 62.9902L23.1255 63.1701L26.1835 64.4293L31.3999 66.9476L35.1774 68.5665L38.4152 69.6457L41.2932 70.1854H44.1713L46.6896 69.6457L47.5 69.5V72L47.0493 71.9841V71.6244L45.9701 72.164L43.4518 72.3439L41.4731 71.9841L40.0341 71.8043L36.7963 70.9049L33.5585 69.4658L29.4213 67.4872L26.903 66.228L24.9243 65.5085L22.7658 64.6091L21.6865 62.9902Z" fill="#074D0A"></path><path d="M92.019 35.1104H93.9977L96.3361 35.8299L98.1349 37.4488L98.4946 37.2689L99.5739 39.2475V40.1469L98.8544 39.2475L97.4153 37.2689L95.0769 36.1896L92.9184 36.0097H90.2202L88.4214 36.3695L86.083 37.2689L85.0038 37.9884L84.644 38.528H84.2843V38.8878H83.9245V39.2475L83.0251 39.9671L81.5861 42.3055L81.2263 43.3847L80.5068 45.3634L79.7873 48.961V54.5372L79.4275 56.336L78.3483 58.4945L77.9885 59.0341H77.6288L77.8086 58.3146L75.6501 59.9335L74.391 60.653L71.8727 61.3725H69.894L67.9153 60.8329L66.4763 59.7536V59.3939L65.7568 59.0341L65.5769 58.4945H65.2172L64.8574 57.4152L66.2964 58.4945L67.5556 59.0341L68.455 59.214V59.7536L69.5343 60.1134L70.2538 60.2933H72.4123L75.2903 59.5738L77.269 57.9549L78.3483 56.5158L78.708 54.7171V52.1988L78.8879 48.4213L79.2477 47.8817V47.3421L79.4275 45.7232L80.3269 43.025L81.4062 40.8664H81.766L82.1257 39.9671L83.7446 38.1683L85.3635 36.9091L87.1623 36.0097L88.9611 35.4701L92.019 35.1104Z" fill="url(#paint4_linear_1398_1051)"></path><path d="M95.7959 46.6221L96.1556 47.3416H96.5154V47.7013H96.8751L97.2349 49.3202V53.4574L96.5154 57.2349L95.7959 58.1343L95.616 58.6739H95.2562L94.8965 59.3934L93.4575 60.2928L92.0184 60.4727L90.3995 60.1129L90.0398 59.933V59.5733H89.68L88.4209 58.1343L87.5215 56.5154L87.7014 56.1556L88.7806 57.7745L90.2197 58.494H91.4788L92.9178 57.7745L93.9971 56.3355L94.7166 54.7166L95.2562 52.1983L95.7959 46.6221Z" fill="#058816"></path><path d="M46.509 46.9824L47.4083 47.7019L47.7681 48.6013L47.948 52.5586L47.4083 55.6166L47.0486 57.4153L46.3291 58.3147L45.7894 59.2141L44.7102 60.1135L43.6309 60.4733H42.1919L41.1126 60.1135L39.6736 58.8544V58.4946H39.3138L38.0547 56.3361L38.2346 55.6166L39.3138 57.5952L40.3931 58.3147L40.9327 58.4946H42.1919L43.6309 57.7751L44.7102 56.3361L45.6096 53.8178L46.1492 50.0403L46.3291 49.5007L46.509 46.9824Z" fill="#09891E"></path><path d="M42.552 35.1104H44.7105L46.8691 35.8299L48.488 37.089L49.0276 37.6286L49.3874 37.4488L50.4666 39.7872L50.8264 41.4061H50.4666L49.7471 39.4274L48.3081 37.6286L48.1282 37.089L46.5093 36.5494L45.7898 36.1896L43.4514 36.0097H41.113L39.3142 36.3695L37.1557 37.089L35.3569 38.528L34.6374 39.2475L34.2776 39.6073L33.5581 40.3268L32.8386 41.4061L31.5794 43.9244L30.8599 46.8024L30.5002 49.6805V53.6378L30.68 56.336L31.2197 59.0341L32.1191 60.8329V61.1927H32.4788V61.5524H32.8386V61.9122H33.1983V62.2719L32.4788 61.9122L31.0398 60.2933L29.7807 57.9549L29.6008 56.1561L29.4209 55.2567V50.2201L29.6008 48.0616L29.7807 47.5219L30.1404 45.7232L31.2197 42.4854L32.1191 40.6866L32.8386 39.7872L34.4575 37.9884L36.616 36.5494L38.5947 35.8299L39.8538 35.4701L42.552 35.1104Z" fill="#02A426"></path><path d="M12.6924 26.4756H12.8723L13.4119 28.814V55.0762L13.232 63.5305L13.0521 64.9695L13.7717 65.3292H12.6924V26.4756Z" fill="#074D0A"></path><path d="M18.9879 21.2588H20.427L21.1465 21.7984V22.6978L20.6068 22.1582L19.8873 21.9783L18.8081 22.1582L14.8508 22.5179L11.2532 23.7771L9.27453 25.0362L8.37514 25.7557L8.01538 26.1155L7.65563 26.4753L6.39648 27.3746L5.85685 28.274L3.87819 31.332L3.15868 33.1307L2.79892 34.9295L2.61904 37.2679L2.79892 38.5271L3.87819 39.7862L4.77758 40.5057L3.87819 40.3259L2.61904 39.2466C2.61904 39.2466 1.8954 37.5537 1.71978 36.5C1.54416 35.4463 1.71965 33.8503 1.71965 33.8503L2.07941 32.0515L3.33856 29.7131L4.77758 27.7344L5.49709 27.0149L7.83551 25.0362L9.81417 23.957L12.8721 22.5179L15.3904 21.6185L18.9879 21.2588Z" fill="#01A727"></path><path d="M55.3226 45.7227H55.6824L56.0422 46.622H56.4019L56.5818 47.8812V49.68L56.7617 51.8385L56.9415 55.7958L57.6611 59.2135L58.7403 61.0123L60.3592 62.4513L61.6184 63.1708L61.0787 63.3507L59.1001 62.0916L57.6611 60.6525L56.222 58.1342L55.5025 55.9757L55.1428 53.997L54.9629 52.0184V49.3202L55.3226 45.7227Z" fill="#389D3D"></path><path d="M68.0947 35.1104H70.2532L72.2319 35.65L74.0307 37.2689L74.5703 37.4488L74.7502 38.8878L74.0307 38.1683L73.491 37.2689L70.9727 36.0097L67.9148 35.8299L64.8569 36.3695L62.5 37.5L61.5 38.5L60.3599 39.2475L58.5611 42.1256L57.6618 43.3847L57.302 43.7445L56.5825 44.2841L54.7837 45.1835L54.4239 44.8238H52.4453L51.5459 43.3847L52.2654 43.2049L53.1648 44.1043L53.7044 44.2841L56.7624 43.2049L57.302 42.4854L58.0215 41.4061L58.741 40.1469L59.4605 39.2475L60.0002 38.528L60.7197 37.8085L61.0794 37.4488L62.5185 36.5494L64.677 35.65L68.0947 35.1104Z" fill="#01A426"></path><path d="M95.7961 47.5205H95.976L96.3358 50.0388L96.5156 52.5571L95.976 55.2553L95.0766 57.4138L94.3571 58.4931L93.6376 58.8528V59.2126L93.098 59.5723L91.6589 59.3925L90.04 58.8528V58.6729L92.0187 58.3132L93.098 57.5937L94.1772 55.9748L94.8967 53.9961L95.4364 50.7583L95.6163 48.0601L95.7961 47.5205Z" fill="#074D0A"></path><path d="M46.509 48.2402H46.6889L47.0487 50.3988V53.2768L46.509 55.6152L45.6096 57.7738L44.3505 59.2128L43.0913 59.7524L40.7529 58.853V58.6732L42.7316 58.3134L43.8109 57.5939L44.8901 55.975L45.7895 53.0969L46.1493 50.039L46.509 48.2402Z" fill="#074D0A"></path><path d="M102.811 37.4482H104.79L104.43 39.0671L103.351 41.9452L102.811 42.8446L102.271 42.3049L101.552 42.6647L100.653 41.7653L100.473 41.2257L101.912 39.247L102.811 37.4482Z" fill="#074D0A"></path><path d="M94.1767 38.5273L94.5365 38.7072V39.067H94.8962L95.6158 39.9664L95.9755 40.8658L95.7956 42.1249L95.256 43.2042L95.0761 44.4633L94.8962 44.8231L95.7956 46.442L94.5365 46.0822L93.6371 45.003L93.2773 43.9237V42.1249L93.817 40.8658L94.7164 40.506L94.1767 39.067V38.5273Z" fill="#01A326"></path><path d="M45.0705 39.0664L45.9699 39.9658L46.6894 41.2249L46.5095 42.4841L45.79 43.7432L45.6101 45.3621L45.9699 46.2615L45.0705 46.0817L44.351 45.3621L43.9912 44.2829V42.664L44.5308 41.2249L45.2504 40.6853L45.0705 39.0664Z" fill="#029A1B"></path><path d="M70.0732 38.167L70.7928 38.8865V39.2463H71.3324L72.0519 40.8652V43.3835L72.2318 44.103L70.6129 43.7432L70.2531 43.2036L70.433 42.4841V40.8652L70.0732 38.8865V38.167Z" fill="#009A1B"></path><path d="M55.3226 46.9824L55.6824 47.7019L55.8623 49.141V54.1775L56.222 56.516L55.6824 56.6958L55.1428 53.9977L54.9629 52.019V49.3208L55.1428 47.3422L55.3226 46.9824Z" fill="#349038"></path><path d="M94.3566 40.5059H94.8962L95.0761 41.5851L94.1767 43.5638L94.3566 45.1827L94.8962 46.0821L94.1767 45.7223L93.4572 44.6431L93.2773 43.9235V42.1248L93.817 40.8656L94.3566 40.5059Z" fill="#074D0A"></path><path d="M44.8906 40.8652H45.6101V42.3043L44.8906 43.7433L44.7107 44.4628L45.2504 45.7219L45.4302 46.0817L44.7107 45.7219L44.1711 44.8226L43.9912 44.2829V42.664L44.5308 41.225L44.8906 40.8652Z" fill="#029A1B"></path><path d="M102.991 40.3258C103.283 40.131 103.89 40.3258 103.89 40.3258L103.351 41.9448L102.811 42.8441L102.271 42.3045L101.552 42.6643L100.653 41.7649L100.473 41.2252L101.012 40.8655C101.012 40.8655 101.421 41.1766 101.732 41.2252C102.086 41.2807 102.631 41.0454 102.631 41.0454C102.631 41.0454 102.73 40.5001 102.991 40.3258Z" fill="#019A1A"></path><path d="M27.9824 65.5088L28.8818 65.6887L33.3788 67.8472L36.6166 69.1063L36.0769 69.646L35.8971 69.2862L35.1775 69.1063L32.8391 68.207L31.58 67.6673L27.9824 65.8685V65.5088Z" fill="#074D0A"></path><path d="M22.9453 63.3496L24.2045 63.5295L27.0825 64.9685L27.2624 65.3283L26.0032 65.1484L23.4849 64.0691L22.9453 63.3496Z" fill="#074D0A"></path><path d="M79.6074 58.3135L80.1471 59.033L81.5861 61.0116L83.205 62.4507L84.4641 63.1702L83.9245 63.3501L81.9458 62.0909L80.5068 60.472L79.6074 59.033V58.3135Z" fill="#087D15"></path><path d="M70.6127 39.9658H70.7926L71.1523 43.0237V43.5634L71.5121 43.7433H70.6127L70.2529 43.2036L70.4328 42.4841L70.6127 39.9658Z" fill="#009B1B"></path><path d="M58.7414 61.1914L60.1804 62.2707L61.6195 63.1701L61.0798 63.3499L59.1012 62.0908L58.5615 61.3713L58.7414 61.1914Z" fill="#3AA13F"></path><path d="M7.47559 39.6064L8.1951 40.326L8.73473 41.4052H7.83534L7.47559 39.6064Z" fill="#3BA240"></path></g><defs><linearGradient id="paint0_linear_1398_1051" x1="52.8948" y1="20" x2="52.8948" y2="79" gradientUnits="userSpaceOnUse"><stop stop-color="#01A827"></stop><stop offset="0.435847" stop-color="#009819"></stop><stop offset="1" stop-color="#126312"></stop></linearGradient><linearGradient id="paint1_linear_1398_1051" x1="52.8948" y1="20" x2="52.8948" y2="79" gradientUnits="userSpaceOnUse"><stop stop-color="#01A827"></stop><stop offset="0.435847" stop-color="#009819"></stop><stop offset="1" stop-color="#126312"></stop></linearGradient><linearGradient id="paint2_linear_1398_1051" x1="52.8948" y1="20" x2="52.8948" y2="79" gradientUnits="userSpaceOnUse"><stop stop-color="#01A827"></stop><stop offset="0.435847" stop-color="#009819"></stop><stop offset="1" stop-color="#126312"></stop></linearGradient><linearGradient id="paint3_linear_1398_1051" x1="52.8948" y1="20" x2="52.8948" y2="79" gradientUnits="userSpaceOnUse"><stop stop-color="#01A827"></stop><stop offset="0.435847" stop-color="#009819"></stop><stop offset="1" stop-color="#126312"></stop></linearGradient><linearGradient id="paint4_linear_1398_1051" x1="88.5" y1="38" x2="77" y2="59.5" gradientUnits="userSpaceOnUse"><stop stop-color="#009E1D"></stop><stop offset="1" stop-color="#087F15"></stop></linearGradient></defs></svg>