<svg xmlns="http://www.w3.org/2000/svg" width="47" height="49" viewBox="0 0 47 49" fill="none"><mask id="mask0_1401_1553" style="mask-type:alpha" maskUnits="userSpaceOnUse" x="0" y="0" width="47" height="49"><rect width="47" height="49" fill="#D9D9D9"></rect></mask><g mask="url(#mask0_1401_1553)"><path d="M0 41.9997L22.6955 6H36.7823V11.0087L17.2172 41.9997" fill="#FDC200"></path><path d="M36.7831 41.9997H22.6963V6H36.7831V41.9997Z" fill="#1384EC"></path><path d="M46.9561 31.8262C46.9561 37.4453 42.4013 42 36.7822 42V21.6523C42.4013 21.6523 46.9561 26.2071 46.9561 31.8262Z" fill="#32AF5E"></path><path d="M36.7822 42C31.1631 42 26.6084 37.4453 26.6084 31.8262C26.6084 26.2071 31.1631 21.6523 36.7822 21.6523V42Z" fill="#006F35"></path><path d="M44.6082 13.826C44.6082 18.1476 41.1053 21.652 36.7822 21.652V6C41.1053 6 44.6082 9.50449 44.6082 13.826Z" fill="#1383EB"></path><path d="M36.7821 21.652C32.459 21.652 28.9561 18.1476 28.9561 13.826C28.9561 9.50449 32.459 6 36.7821 6V21.652Z" fill="#135DB1"></path><path d="M0.782227 13.0434C0.782227 9.15389 3.93611 6 7.82565 6C11.7152 6 14.8691 9.15389 14.8691 13.0434C14.8691 16.933 11.7152 20.0868 7.82565 20.0868C3.93611 20.0868 0.782227 16.933 0.782227 13.0434Z" fill="#EF533B"></path></g></svg>