<svg xmlns="http://www.w3.org/2000/svg" width="62" height="82" viewBox="0 0 62 82" fill="none"><mask id="mask0_1400_1261" style="mask-type:alpha" maskUnits="userSpaceOnUse" x="0" y="0" width="62" height="82"><rect width="62" height="82" fill="#D9D9D9"></rect></mask><g mask="url(#mask0_1400_1261)"><path d="M31 74C48.121 74 62 60.121 62 43C62 25.8792 48.121 12 31 12C13.8792 12 0 25.8792 0 43C0 60.121 13.8792 74 31 74Z" fill="url(#paint0_linear_1400_1261)"></path><mask id="mask1_1400_1261" style="mask-type:alpha" maskUnits="userSpaceOnUse" x="0" y="12" width="62" height="62"><path d="M31 74C48.121 74 62 60.121 62 43C62 25.8792 48.121 12 31 12C13.8792 12 0 25.8792 0 43C0 60.121 13.8792 74 31 74Z" fill="url(#paint1_linear_1400_1261)"></path></mask><g mask="url(#mask1_1400_1261)"><path d="M35.6316 45.4093C35.7506 45.6871 36.0284 45.9251 36.0284 45.9251C41.5437 46.5997 49.3604 45.8458 55.3122 45.0522C51.8998 52.3928 45.7893 57.2733 40.1946 57.2733C29.6798 57.2733 21.5853 44.5364 21.5853 44.5364C24.839 41.6795 30.1956 32.3153 37.933 32.3153C45.6702 32.3153 49.0429 36.5609 49.0429 36.5609L49.9159 35.1722C49.9159 35.1722 46.3051 22.5146 36.0681 22.5146C25.8309 22.5146 14.959 39.2988 8.61035 43.1476C8.61035 43.1476 17.3397 63.8599 36.4649 63.8599C52.495 63.8599 56.5422 48.5439 57.2961 44.7348C59.4388 44.4173 61.2243 44.0999 62.375 43.9015C62.7718 43.0286 63.2083 41.4811 62.8908 39.4178C62.665 39.5048 62.435 39.5921 62.201 39.6798C55.8159 42.0708 46.4197 44.6554 35.4729 44.6554C35.4332 44.6554 35.4729 45.0522 35.6316 45.4093Z" fill="white"></path></g></g><defs><linearGradient id="paint0_linear_1400_1261" x1="48.7087" y1="18.1132" x2="14.3759" y2="70.2347" gradientUnits="userSpaceOnUse"><stop stop-color="#64BB65"></stop><stop offset="0.793293" stop-color="#397F36"></stop><stop offset="1" stop-color="#15711B"></stop></linearGradient><linearGradient id="paint1_linear_1400_1261" x1="48.7087" y1="18.1132" x2="14.3759" y2="70.2347" gradientUnits="userSpaceOnUse"><stop stop-color="#64BB65"></stop><stop offset="0.793293" stop-color="#397F36"></stop><stop offset="1" stop-color="#15711B"></stop></linearGradient></defs></svg>