<svg xmlns="http://www.w3.org/2000/svg" width="69" height="49" viewBox="0 0 69 49" fill="none"><mask id="mask0_1403_1812" style="mask-type:alpha" maskUnits="userSpaceOnUse" x="0" y="0" width="69" height="49"><rect width="69" height="49" fill="#D9D9D9"></rect></mask><g mask="url(#mask0_1403_1812)"><path d="M61 4H7C3.13401 4 0 7.13401 0 11V39C0 42.866 3.13401 46 7 46H61C64.866 46 68 42.866 68 39V11C68 7.13401 64.866 4 61 4Z" fill="url(#paint0_linear_1403_1812)"></path><path fill-rule="evenodd" clip-rule="evenodd" d="M30.2356 18.7002C29.1114 18.7002 28.3794 19.0662 27.7258 20.295L24.7453 25.916V20.9225C24.7453 19.4322 24.0394 18.7002 22.7322 18.7002C21.425 18.7002 20.876 19.1446 20.2224 20.3996L17.3988 25.916V20.9747C17.3988 19.3799 16.7452 18.7002 15.1504 18.7002H11.9085C10.6797 18.7002 10 19.2754 10 20.3211C10 21.3669 10.6536 21.9944 11.8562 21.9944H13.1896V28.2951C13.1896 30.0729 14.3922 31.1187 16.1177 31.1187C17.8433 31.1187 18.6276 30.4389 19.4903 28.8441L21.3727 25.3147V28.2951C21.3727 30.0468 22.5231 31.1187 24.2747 31.1187C26.0264 31.1187 26.68 30.5174 27.6735 28.8441L32.0134 21.5238C32.9546 19.929 32.301 18.7002 30.2095 18.7002C30.2095 18.7002 30.2095 18.7002 30.2356 18.7002Z" fill="white"></path><path fill-rule="evenodd" clip-rule="evenodd" d="M38.391 18.7002C34.8354 18.7002 32.1426 21.3408 32.1426 24.9225C32.1426 28.5043 34.8616 31.1187 38.391 31.1187C41.9205 31.1187 44.6134 28.4781 44.6395 24.9225C44.6395 21.3408 41.9205 18.7002 38.391 18.7002ZM38.391 27.3016C37.0577 27.3016 36.1426 26.3082 36.1426 24.9225C36.1426 23.5369 37.0577 22.5172 38.391 22.5172C39.7244 22.5172 40.6394 23.5369 40.6394 24.9225C40.6394 26.3082 39.7505 27.3016 38.391 27.3016Z" fill="white"></path><path fill-rule="evenodd" clip-rule="evenodd" d="M51.7524 18.7002C48.2229 18.7002 45.5039 21.3408 45.5039 24.9225C45.5039 28.5043 48.2229 31.1187 51.7524 31.1187C55.2818 31.1187 58.0008 28.4781 58.0008 24.9225C58.0008 21.3669 55.2818 18.7002 51.7524 18.7002ZM51.7524 27.3016C50.3929 27.3016 49.5301 26.3082 49.5301 24.9225C49.5301 23.5369 50.419 22.5172 51.7524 22.5172C53.0857 22.5172 54.0008 23.5369 54.0008 24.9225C54.0008 26.3082 53.1119 27.3016 51.7524 27.3016Z" fill="white"></path></g><defs><linearGradient id="paint0_linear_1403_1812" x1="33.3119" y1="8.8" x2="19.8064" y2="43.7867" gradientUnits="userSpaceOnUse"><stop stop-color="#873EFF"></stop><stop offset="1" stop-color="#580FCE"></stop></linearGradient></defs></svg>