<svg xmlns="http://www.w3.org/2000/svg" width="59" height="82" viewBox="0 0 59 82" fill="none"><mask id="mask0_1400_1241" style="mask-type:alpha" maskUnits="userSpaceOnUse" x="0" y="0" width="59" height="82"><rect width="59" height="82" fill="white"></rect></mask><g mask="url(#mask0_1400_1241)"><path d="M0 19C0 15.6863 2.68629 13 6 13H53C56.3137 13 59 15.6863 59 19V66C59 69.3137 56.3137 72 53 72H6C2.68629 72 0 69.3137 0 66V19Z" fill="url(#paint0_linear_1400_1241)"></path><path d="M30.0908 25.4385H30.5333L32.0083 25.6351L33.385 25.9301L34.565 26.2743L35.9417 26.766L36.925 27.2085L38.0067 27.7985L38.8917 28.3393L39.7275 28.9293L40.4158 29.4701L41.0058 30.011L41.3992 30.3551L41.94 30.896L42.2842 31.2893L42.9233 32.076L43.6117 33.0593L44.2017 34.0426L44.6442 34.8293L45.0867 35.7635L45.5292 36.9435L45.8242 37.8776L46.1192 39.156L46.3158 40.4343L46.4142 41.6143V43.3351L46.3158 44.5151L46.07 46.0393L45.775 47.2193L45.2342 48.8418L44.7917 49.8251L44.3983 50.6118L43.8575 51.546L43.3167 52.3326L42.825 52.9718L42.1858 53.7093L41.8417 54.0535L41.94 54.2993L45.7258 58.0851L46.1192 58.4293L46.5617 58.8718L46.8567 59.1176V59.1668H32.3525L32.1558 59.1176L32.205 44.7118L32.5492 45.0068L33.0408 45.4493L33.4342 45.8426L33.8275 46.1868L37.3183 49.6776L37.4658 49.6285L37.9083 49.0876L38.4492 48.3501L38.8917 47.5635L39.3833 46.531L39.7767 45.3018L40.0225 44.0726L40.1208 42.991V41.9585L40.0225 40.926L39.7767 39.6968L39.3342 38.3693L38.7442 37.1401L38.2033 36.3043L37.5642 35.5176L37.1217 35.0751L36.7775 34.6818L36.2858 34.2393L35.4992 33.6493L34.5158 33.0593L33.5817 32.6168L32.2542 32.1743L31.0742 31.9285L30.2383 31.8301L30.0908 31.781V25.4385Z" fill="#FDFDFD"></path><path d="M23.4027 25.833H26.5494L26.5986 26.4722V40.1897L26.3036 39.993L25.8611 39.5505L25.4677 39.2063L24.8286 38.5672L24.4844 38.1738L22.5177 36.2072L21.9769 35.7647L21.7802 35.6663L21.1902 36.2072L20.7969 36.5513L20.1577 37.2397L19.6661 37.9772L19.2236 38.813L18.8794 39.698L18.5844 40.878L18.4861 41.5663L18.4369 42.5988L18.5352 43.8772L18.7811 45.0572L19.1252 46.0897L19.5677 47.073L20.0594 47.958L20.6494 48.7938L21.1902 49.433L21.7311 50.023L22.2719 50.5147L23.1077 51.1538L23.9436 51.6947L24.7794 52.1372L25.7627 52.5305L26.8936 52.8747L27.9752 53.1205L28.9586 53.268L29.0077 53.3172V55.2838L28.9586 59.5613H28.5161L27.2869 59.4138L26.1561 59.2172L24.7794 58.873L23.3044 58.3813L22.0752 57.8405L20.8461 57.2013L19.9119 56.6113L19.2236 56.1197L18.7319 55.7263L18.0927 55.1855L17.6011 54.6938L17.2077 54.3497L16.4702 53.563L16.0277 53.0222L15.3394 52.088L14.7494 51.1538L14.1594 50.0722L13.6186 48.843L13.2252 47.7613L12.8319 46.3355L12.5861 45.0572L12.4386 43.7788L12.3894 42.7955V41.9597L12.4877 40.5338L12.6844 39.2063L13.0777 37.633L13.5694 36.2563L14.0611 35.1255L14.5036 34.2897L15.1427 33.2572L15.8311 32.2738L16.4702 31.3888L16.9619 30.7005L16.8636 30.5038L16.2244 29.9138L13.6677 27.3572L13.2744 27.013L12.1436 25.8822L23.4027 25.833Z" fill="#FDFDFD"></path></g><defs><linearGradient id="paint0_linear_1400_1241" x1="19" y1="61.5" x2="54" y2="19" gradientUnits="userSpaceOnUse"><stop stop-color="#593892"></stop><stop offset="1" stop-color="#815AD1"></stop></linearGradient></defs></svg>