<svg xmlns="http://www.w3.org/2000/svg" width="65" height="82" viewBox="0 0 65 82" fill="none"><mask id="mask0_1400_1121" style="mask-type:alpha" maskUnits="userSpaceOnUse" x="0" y="0" width="65" height="82"><rect width="65" height="82" fill="#D9D9D9"></rect></mask><g mask="url(#mask0_1400_1121)"><mask id="mask1_1400_1121" style="mask-type:alpha" maskUnits="userSpaceOnUse" x="0" y="5" width="65" height="65"><path d="M65 5H0V70H65V5Z" fill="#D9D9D9"></path></mask><g mask="url(#mask1_1400_1121)"><path d="M32.5 70C50.4493 70 65 55.4493 65 37.5C65 19.5507 50.4493 5 32.5 5C14.5507 5 0 19.5507 0 37.5C0 55.4493 14.5507 70 32.5 70Z" fill="url(#paint0_linear_1400_1121)"></path><path d="M33.5825 55.8977C30.1655 55.8977 27.0817 55.1267 24.3313 53.5848C21.6226 52.0013 19.4556 49.8552 17.8304 47.1464C16.2468 44.4376 15.4551 41.3956 15.4551 38.0201C15.4551 34.6446 16.2468 31.6234 17.8304 28.9563C19.414 26.2476 21.5809 24.1223 24.3313 22.5804C27.0817 21.0385 30.1655 20.2676 33.5825 20.2676C36.1246 20.2676 38.4793 20.7051 40.6461 21.5803C42.8131 22.4554 44.6676 23.6847 46.2095 25.2683C47.7514 26.8102 48.8556 28.6438 49.5225 30.7691L41.3964 34.2696C40.8128 32.561 39.8126 31.2067 38.3959 30.2065C37.0208 29.2064 35.4164 28.7063 33.5825 28.7063C31.9575 28.7063 30.499 29.1022 29.2069 29.894C27.9569 30.6858 26.9567 31.7901 26.2066 33.2069C25.4982 34.6237 25.1439 36.249 25.1439 38.0826C25.1439 39.9161 25.4982 41.5414 26.2066 42.9584C26.9567 44.3751 27.9569 45.4796 29.2069 46.2715C30.499 47.063 31.9575 47.459 33.5825 47.459C35.4579 47.459 37.0832 46.959 38.4584 45.9589C39.8336 44.9587 40.8128 43.6042 41.3964 41.8958L49.5225 45.4587C48.8974 47.459 47.8139 49.251 46.2719 50.8345C44.73 52.4179 42.8756 53.6682 40.7088 54.585C38.5417 55.4602 36.1664 55.8977 33.5825 55.8977Z" fill="white"></path></g></g><defs><linearGradient id="paint0_linear_1400_1121" x1="57.0731" y1="16.0976" x2="8.71953" y2="58.9025" gradientUnits="userSpaceOnUse"><stop stop-color="#14DA7D"></stop><stop offset="1" stop-color="#6E4AF8"></stop></linearGradient></defs></svg>