<svg xmlns="http://www.w3.org/2000/svg" width="64" height="82" viewBox="0 0 64 82" fill="none"><mask id="mask0_1400_1302" style="mask-type:alpha" maskUnits="userSpaceOnUse" x="0" y="0" width="64" height="82"><rect width="64" height="82" fill="#D9D9D9"></rect></mask><g mask="url(#mask0_1400_1302)"><circle cx="32" cy="43" r="32" fill="url(#paint0_linear_1400_1302)"></circle><path d="M48.5671 34.6848L47.396 37.5998C46.2684 35.7008 44.5494 34.2238 42.5023 33.3948C40.4552 32.5658 38.1928 32.4306 36.0615 33.0099L37.2301 30.1052C39.3606 29.6799 41.5688 29.8869 43.5831 30.7006C45.5975 31.5142 47.3299 32.8992 48.5671 34.6848Z" fill="white"></path><path d="M53.0645 34.102C53.0993 34.1026 53.1336 34.0932 53.1633 34.0749C53.193 34.0567 53.2169 34.0304 53.2322 33.9991C53.2475 33.9677 53.2536 33.9327 53.2497 33.8981C53.2458 33.8634 53.2321 33.8306 53.2102 33.8035L52.2309 32.5889C52.2991 32.5821 52.3624 32.5501 52.4084 32.4991C52.4544 32.4482 52.4797 32.382 52.4795 32.3134V31.7681C52.4797 31.7318 52.4727 31.6958 52.4589 31.6623C52.4452 31.6287 52.4249 31.5982 52.3993 31.5724C52.3737 31.5467 52.3433 31.5263 52.3098 31.5124C52.2762 31.4984 52.2403 31.4913 52.204 31.4913H51.3487L45.6335 24.3789L34.2102 25.9323C34.1765 25.9369 34.1448 25.9508 34.1186 25.9724C34.0924 25.994 34.0726 26.0225 34.0616 26.0546C34.0506 26.0868 34.0488 26.1214 34.0563 26.1545C34.0638 26.1876 34.0803 26.2181 34.1041 26.2423L36.4694 28.6664C38.9629 28.0407 41.591 28.2267 43.9716 29.1972C46.3522 30.1678 48.3611 31.8723 49.7063 34.063L51.6696 34.0841V39.7428H50.9651V41.6491H51.302C51.2987 41.6194 51.297 41.5895 51.2969 41.5596C51.2969 41.1588 51.6434 40.8334 52.071 40.8334C52.4987 40.8334 52.8439 41.1588 52.8439 41.5596C52.8438 41.5895 52.8421 41.6194 52.8388 41.6491H53.1751V39.7428H52.4182V34.0943L53.0645 34.102ZM52.149 31.8007C52.1958 31.8007 52.2415 31.8145 52.2804 31.8405C52.3193 31.8665 52.3496 31.9034 52.3675 31.9465C52.3854 31.9897 52.3901 32.0373 52.3811 32.0831C52.372 32.129 52.3495 32.1711 52.3165 32.2042C52.2835 32.2373 52.2414 32.2599 52.1956 32.2691C52.1497 32.2783 52.1022 32.2737 52.059 32.2559C52.0157 32.2381 51.9787 32.2079 51.9527 32.1691C51.9266 32.1303 51.9126 32.0846 51.9125 32.0378C51.9123 32.0067 51.9183 31.9758 51.9302 31.947C51.942 31.9182 51.9594 31.892 51.9814 31.87C52.0034 31.8479 52.0295 31.8305 52.0583 31.8186C52.087 31.8067 52.1179 31.8006 52.149 31.8007ZM51.6108 33.9102C51.5188 33.9104 51.4288 33.8832 51.3523 33.8322C51.2758 33.7812 51.2161 33.7086 51.1809 33.6236C51.1456 33.5387 51.1364 33.4452 51.1543 33.355C51.1722 33.2648 51.2165 33.1819 51.2815 33.1169C51.3465 33.0518 51.4294 33.0076 51.5196 32.9896C51.6098 32.9717 51.7033 32.981 51.7883 33.0162C51.8732 33.0515 51.9458 33.1112 51.9968 33.1877C52.0478 33.2642 52.075 33.3542 52.0749 33.4461C52.0747 33.5692 52.0258 33.6871 51.9388 33.7741C51.8518 33.8611 51.7338 33.9101 51.6108 33.9102Z" fill="white"></path><path d="M47.5658 42.1901C47.5663 42.9316 47.4724 43.6701 47.2864 44.3878C46.8289 42.6288 45.8336 41.0566 44.4394 39.8905C43.0453 38.7244 41.3218 38.0227 39.5095 37.8834C39.1189 37.8265 38.7223 37.8231 38.3307 37.8732C36.2045 38.1423 34.495 39.9456 34.4727 42.1396C34.4727 42.0156 34.4765 41.8922 34.4829 41.7701C34.5689 40.0414 35.1668 38.3774 36.2007 36.9893C37.2346 35.6012 38.6578 34.5518 40.2895 33.9743C40.5337 33.8891 40.7828 33.8137 41.0368 33.748C42.6555 34.1688 44.119 35.0462 45.2528 36.2757C45.2899 36.3159 45.3264 36.3556 45.3615 36.3958L45.3711 36.4061C46.5637 37.7473 47.3121 39.4247 47.5133 41.2082C47.5357 41.4076 47.5517 41.6083 47.5606 41.8116C47.5632 41.9369 47.5658 42.0635 47.5658 42.1901Z" fill="white" stroke="white" stroke-width="0.158627"></path><path d="M47.2892 44.3863C46.8952 45.8951 46.1043 47.271 44.9988 48.3708C43.8933 49.4707 42.5134 50.2545 41.0025 50.6408C40.2983 50.8195 39.5746 50.9097 38.8481 50.9093H36.3076V50.6612C36.3108 50.5609 36.3172 50.4611 36.3274 50.3627C36.4024 49.5966 36.6737 48.8628 37.1152 48.2323C37.5566 47.6017 38.1533 47.0956 38.8475 46.763C38.9632 46.7081 39.0821 46.6576 39.2029 46.6122C39.3798 46.5463 39.5606 46.4916 39.7444 46.4485C39.7904 46.4396 39.8371 46.4293 39.8831 46.4185C40.8705 46.1884 41.7463 45.6205 42.3592 44.813C42.9722 44.0055 43.2836 43.0091 43.2396 41.9963C43.1956 40.9835 42.799 40.0179 42.1183 39.2666C41.4377 38.5153 40.5159 38.0254 39.5123 37.8818C41.3246 38.0212 43.048 38.7229 44.4422 39.8889C45.8364 41.055 46.8317 42.6273 47.2892 44.3863Z" fill="white"></path><path d="M41.0415 33.7468C40.788 33.8129 40.538 33.8885 40.2917 33.9737C38.659 34.551 37.235 35.6007 36.2005 36.9895C35.1661 38.3782 34.5681 40.0432 34.4825 41.7727V55.7724C34.3647 56.7889 33.892 57.7313 33.1477 58.4336C32.4034 59.1359 31.4352 59.5531 30.4135 59.6118H30.1623V59.6188H25.7832C26.9361 59.6188 28.0418 59.1608 28.8571 58.3456C29.6723 57.5304 30.1303 56.4247 30.1303 55.2719V41.7906C30.1341 41.6908 30.1405 41.5918 30.1482 41.4933C30.252 40.1864 30.6513 38.9201 31.3162 37.7901C32.2767 36.15 33.7459 34.8678 35.501 34.1382C37.2561 33.4085 39.2013 33.2711 41.0415 33.7468Z" fill="white" stroke="white" stroke-width="0.158627"></path><path d="M19.631 37.817V55.2732H15.252V33.4688H15.282C15.8531 33.4685 16.4187 33.5808 16.9464 33.7992C17.4742 34.0176 17.9537 34.3379 18.3576 34.7417C18.7614 35.1455 19.0818 35.625 19.3003 36.1526C19.5188 36.6803 19.6312 37.2459 19.631 37.817Z" fill="white"></path><path d="M28.3489 55.2725C28.3431 56.4273 27.8803 57.533 27.0616 58.3476C26.2429 59.1621 25.135 59.6194 23.98 59.6194H19.6208C18.4659 59.6194 17.3579 59.1621 16.5392 58.3476C15.7205 57.533 15.2577 56.4273 15.252 55.2725V51.4062C15.3828 52.4628 15.8952 53.4351 16.6929 54.1402C17.4906 54.8453 18.5184 55.2346 19.5831 55.2348H19.631V55.2731L28.3489 55.2725Z" fill="white"></path></g><defs><linearGradient id="paint0_linear_1400_1302" x1="46" y1="15.5" x2="28" y2="75" gradientUnits="userSpaceOnUse"><stop stop-color="#6B4BBD"></stop><stop offset="1" stop-color="#593892"></stop></linearGradient></defs></svg>