<svg xmlns="http://www.w3.org/2000/svg" width="64" height="82" viewBox="0 0 64 82" fill="none"><mask id="mask0_1400_1185" style="mask-type:alpha" maskUnits="userSpaceOnUse" x="0" y="0" width="64" height="82"><rect width="64" height="82" fill="#D9D9D9"></rect></mask><g mask="url(#mask0_1400_1185)"><path d="M63.3249 48.0587C63.2999 47.9482 63.2703 47.8438 63.2394 47.7464C63.2188 47.6816 63.1942 47.6182 63.1657 47.5574C63.1104 47.4144 63.049 47.2737 62.9733 47.1433L62.9717 47.1409C62.8152 46.8696 62.6048 46.6206 62.3577 46.4237C62.1114 46.2271 61.8342 46.0867 61.5674 46.0037L61.5587 46.0007C61.2746 45.9133 61.0061 45.8853 60.7672 45.8841C60.697 45.8844 60.6327 45.8899 60.5683 45.8946C60.6273 44.5762 60.0782 43.6805 59.7554 43.274C59.7705 43.2527 59.7866 43.2314 59.8011 43.211C60.0592 42.8482 60.2724 42.5073 60.443 42.1731L60.4747 42.1067C60.6074 41.813 60.6771 41.5245 60.7078 41.2659C60.7338 41.0438 60.7305 40.8479 60.717 40.6711L60.7192 40.6709L60.7191 40.6601L60.7155 40.6351L60.7129 40.5804L60.7087 40.5812L60.7006 40.5206L60.7022 40.5203L60.6963 40.4844C60.691 40.4486 60.685 40.4119 60.6777 40.373C60.6662 40.3011 60.6521 40.227 60.6332 40.1461C60.5428 39.7582 60.3771 39.2627 60.0173 38.7599C59.8377 38.5095 59.6077 38.2604 59.3227 38.043C59.0391 37.826 58.7015 37.6429 58.3294 37.5178L58.3314 37.5182C58.3044 37.5091 58.2827 37.4995 58.2576 37.4906C57.3656 36.5909 56.4172 35.9416 55.5955 35.4678C55.1691 35.2224 54.7772 35.0242 54.4447 34.865C54.1154 34.7062 53.8399 34.5837 53.6851 34.5084L53.6866 34.5089C53.3322 34.3385 53.0748 34.2442 52.9521 34.2023C52.6678 34.0948 52.4547 34.0064 52.3239 33.9413C52.2218 33.8904 52.1701 33.8551 52.1504 33.8403L52.1396 33.8306C52.1376 33.8285 52.1243 33.8111 52.098 33.7447C52.0707 33.6785 52.0335 33.5638 51.9949 33.3949C51.9331 33.1296 51.8692 32.7362 51.8021 32.2136C51.6935 31.3734 51.5739 30.2081 51.3811 28.6346C51.3212 28.1341 51.239 27.6673 51.1388 27.2315C50.9782 26.5328 50.7681 25.9119 50.5128 25.3613L50.5117 25.3582C50.4548 25.2327 50.3931 25.1106 50.3299 24.9907L50.3292 24.9897L50.3281 24.9883C50.2806 24.8989 50.2412 24.8322 50.2166 24.7894L50.2182 24.7919C50.1727 24.7127 50.1263 24.6348 50.0765 24.5562L50.0747 24.5527C50.0502 24.5145 50.0189 24.4651 49.9784 24.4041L49.9776 24.4026L49.9769 24.4017C49.9001 24.2864 49.8144 24.163 49.7105 24.0322L49.6828 23.9974L49.6316 23.9359L49.5956 23.8949C49.4103 23.6881 49.2206 23.5033 49.0269 23.3345C48.8812 22.9915 48.6449 22.4882 48.3046 21.9295C48.0033 21.4381 47.6222 20.9017 47.1282 20.3945C46.9571 20.2201 46.7679 20.0508 46.565 19.8883L46.6097 19.8203C46.6724 19.7243 48.1638 17.4367 49.1452 14.6464C50.9738 9.44544 49.5372 6.74256 48.0108 5.39106L47.9675 5.3534L47.9227 5.31877C46.489 4.22078 44.7261 3.72703 42.6823 3.85188C38.4495 4.10964 34.1504 7.01277 33.0317 7.8191L30.3421 5.77231L30.332 5.76467C30.0943 5.58476 29.8393 5.43202 29.5729 5.3059C29.3049 5.17955 29.0245 5.08002 28.7361 5.00646C28.157 4.85869 27.5437 4.81314 26.9069 4.85199C25.6304 4.93132 24.2573 5.34199 22.8065 6.01705C20.6329 7.03256 18.281 8.65214 15.9004 10.7608C13.5212 12.8697 11.1167 15.469 8.86726 18.4478C6.11841 22.0878 3.97818 25.7932 2.5504 29.1974C1.83738 30.8997 1.3017 32.527 0.96016 34.0394C0.620079 35.5524 0.471664 36.9503 0.547829 38.204C0.60362 39.1153 0.778325 39.9534 1.10199 40.6957C1.24319 41.0205 1.41609 41.3255 1.61761 41.6074C1.8761 41.9699 2.18336 42.2934 2.54085 42.5636L2.54969 42.5701L5.65122 44.8029L5.64104 44.8315C5.62208 44.886 5.60506 44.9406 5.58672 44.9954C5.56049 45.0766 5.53399 45.1577 5.50949 45.2393C5.49324 45.2952 5.47746 45.3506 5.46258 45.4065C5.43968 45.4894 5.41774 45.5717 5.39688 45.6553C5.38283 45.7113 5.36988 45.7673 5.35729 45.8238C5.33763 45.9081 5.31944 45.9929 5.30297 46.0782C5.29191 46.1341 5.28143 46.1902 5.27047 46.2467C5.2552 46.3326 5.24185 46.42 5.22808 46.5067C5.22007 46.5629 5.21153 46.6192 5.20435 46.6755C5.19277 46.7637 5.1834 46.852 5.17417 46.9411C5.17144 46.9658 5.16804 46.9899 5.16557 47.0146C5.1627 47.0459 5.16045 47.0776 5.15785 47.1088C5.14976 47.1996 5.14502 47.2909 5.14001 47.3822C5.13711 47.4366 5.1332 47.4915 5.13102 47.5469C5.13004 47.5868 5.12895 47.6262 5.12828 47.6664C5.12704 47.7224 5.12737 47.7782 5.12675 47.8346C5.12668 47.8853 5.12508 47.9365 5.12584 47.9872C5.12712 48.1005 5.13189 48.215 5.13705 48.3286C5.13924 48.3623 5.13887 48.3953 5.14111 48.4291L5.14177 48.4385L5.14469 48.4688C5.14952 48.5427 5.15681 48.6168 5.16293 48.6918C5.1735 48.8083 5.18575 48.9249 5.20136 49.042C5.2071 49.0932 5.21441 49.1455 5.22167 49.1975C5.2275 49.2375 5.23193 49.2772 5.23786 49.3178C5.25083 49.3989 5.26711 49.4803 5.28195 49.5627C5.29103 49.6114 5.29964 49.6604 5.30945 49.71C5.31547 49.7394 5.31982 49.7685 5.32585 49.7978L5.32894 49.8144C5.34034 49.8667 5.35231 49.9192 5.36335 49.971C5.37678 50.0284 5.3926 50.084 5.40694 50.1404C5.41726 50.1825 5.42627 50.225 5.43676 50.2666C5.44746 50.3035 5.45461 50.3315 5.4618 50.3555C5.47655 50.4083 5.49172 50.4618 5.50747 50.5141C5.52453 50.5749 5.54365 50.6394 5.5669 50.7129L5.5686 50.7191L5.56841 50.7181C5.57785 50.7468 5.58464 50.7657 5.59212 50.7882C5.61162 50.8475 5.63279 50.9069 5.65329 50.9657C5.67082 51.0188 5.69194 51.078 5.71854 51.1519C5.73024 51.1811 5.73974 51.2057 5.74843 51.2275C5.76215 51.263 5.7766 51.2982 5.79043 51.3329L5.7915 51.3357L5.79348 51.3405L5.8119 51.3852C5.83049 51.4337 5.85516 51.4945 5.89047 51.5772C5.90005 51.5993 5.90689 51.6141 5.915 51.6327C5.9392 51.6851 5.95712 51.7242 5.9702 51.752L5.99402 51.8052C6.00215 51.8225 6.00976 51.8385 6.02094 51.8634L6.04393 51.9122L6.0635 51.9529L6.08077 51.9899C6.08992 52.0084 6.09664 52.021 6.10519 52.0376L6.12926 52.0879C6.14933 52.1269 6.17057 52.1648 6.19064 52.2038C6.21457 52.2489 6.24544 52.3092 6.28928 52.3895L6.28195 52.3765L6.2902 52.3915C6.30061 52.4108 6.30837 52.4233 6.31761 52.4392C6.3556 52.5056 6.38575 52.5563 6.40074 52.5827L6.40291 52.5855L6.403 52.5861C6.428 52.6296 6.46492 52.6932 6.5154 52.7755L6.51617 52.7767L6.52059 52.7843L6.51854 52.7806L6.54035 52.8144C6.57214 52.8651 6.59714 52.9042 6.61738 52.9339L6.64197 52.9723L6.64583 52.9784C6.65844 52.9978 6.67558 53.024 6.69566 53.0543C6.71429 53.0827 6.73628 53.1159 6.76213 53.1538L6.75992 53.1507L6.78574 53.1869C6.80991 53.2216 6.83237 53.2545 6.85224 53.2807C6.87117 53.3063 6.88772 53.3293 6.90129 53.348L6.89933 53.3448L6.90201 53.349C6.93233 53.3904 6.96954 53.4439 7.01992 53.5096L7.02409 53.5159L7.02688 53.5192L7.04809 53.5468C7.06942 53.5736 7.08987 53.6 7.108 53.6227C7.13366 53.6552 7.15677 53.6828 7.17504 53.7063L7.17875 53.7116C7.20552 53.7442 7.24337 53.7924 7.29401 53.8537L7.29748 53.8577L7.30109 53.8624L7.32178 53.8858C7.34246 53.9105 7.36236 53.934 7.38098 53.955C7.41284 53.9915 7.44229 54.0239 7.46566 54.0514L7.47275 54.0588L7.4743 54.0612C7.49826 54.0875 7.53524 54.1296 7.58684 54.1858L7.59165 54.1912L7.6064 54.2075C7.63156 54.2343 7.656 54.2603 7.67832 54.2836C7.71458 54.3204 7.74695 54.3538 7.77461 54.3824L7.7699 54.3776C7.8001 54.4081 7.84173 54.4518 7.89761 54.5061L7.90201 54.5108L7.90485 54.5143L7.89968 54.5085L7.90543 54.5145L7.91004 54.5188L7.90884 54.5182L7.91082 54.52L7.91144 54.5204C7.93803 54.5462 7.96452 54.5715 7.99107 54.597C8.02787 54.6324 8.06278 54.6648 8.09369 54.6933L8.09167 54.6912C8.12133 54.7189 8.15857 54.7536 8.20318 54.7942L8.21299 54.803C8.24666 54.8332 8.27852 54.861 8.30977 54.8884C8.35031 54.9233 8.38878 54.9559 8.42465 54.9862L8.43669 54.9967C8.4612 55.0172 8.4897 55.0415 8.52787 55.0725L8.54491 55.0865L8.54443 55.0869L8.55025 55.0918L8.56002 55.0989C8.6171 55.1451 8.66798 55.1844 8.71885 55.2236L8.77314 55.2665L8.77382 55.2672L8.776 55.2687L8.78006 55.2715L8.77886 55.2709C8.80422 55.2901 8.83519 55.3146 8.8733 55.3423L8.88541 55.3517L8.88582 55.3525L8.88764 55.3535L8.89513 55.3586L8.89326 55.3574C8.95429 55.4029 9.01343 55.4441 9.07288 55.4855C9.09728 55.5025 9.12207 55.5215 9.14663 55.5379L9.14944 55.5398C9.16213 55.5481 9.19105 55.5688 9.23756 55.6007L9.24646 55.6061L9.27319 55.6253C9.34442 55.673 9.41789 55.7181 9.49067 55.7638L9.50779 55.7753L9.51233 55.7777L9.5142 55.779L9.5167 55.7807C9.53539 55.792 9.56533 55.8109 9.60865 55.8373L9.61338 55.8408C9.70624 55.8964 9.79928 55.9501 9.89135 56.0015L9.89656 56.0046L9.94878 56.0335L9.98422 56.0528L9.98297 56.0519L10.0361 56.0798C10.1135 56.1212 10.1895 56.1612 10.2623 56.1979L10.2828 56.2088L10.2924 56.2133C10.3202 56.2269 10.3406 56.2367 10.352 56.2427L10.3662 56.2501L10.3772 56.2549C10.3981 56.2649 10.4189 56.2743 10.4407 56.2844C10.5048 56.3146 10.5686 56.3441 10.633 56.3726L10.6871 56.3974L10.6934 56.4003L10.7601 56.4295L10.7629 56.43L10.7968 56.4438C10.8617 56.472 10.9303 56.4987 10.9987 56.5265C11.0346 56.541 11.0674 56.555 11.1046 56.569L11.1623 56.5909L11.1947 56.6026L11.216 56.6103C11.3216 56.6496 11.4207 56.6845 11.5106 56.7143L11.5193 56.7167L11.5752 56.7349L11.5793 56.7368C11.7034 56.776 11.8213 56.8111 11.9323 56.8427L11.9515 56.8478L12.0119 56.864L12.0124 56.8634C12.0723 56.8797 12.13 56.8929 12.189 56.9072C12.2165 56.9143 12.2447 56.9213 12.2726 56.9278C12.306 56.936 12.3414 56.9462 12.3746 56.9536L12.403 56.96L12.4113 56.9618L12.4247 56.965C12.4817 56.9775 12.5371 56.9867 12.5931 56.9983L12.6215 57.0034C12.6846 57.0161 12.7479 57.0299 12.8104 57.0411L12.8253 57.0434L12.8713 57.0509C12.9005 57.0555 12.9303 57.059 12.9597 57.0638L12.9871 57.0677C13.0764 57.082 13.1659 57.0966 13.2562 57.1078L13.2774 57.1104L13.2852 57.1114L13.2884 57.1124C13.427 57.1287 13.565 57.1419 13.702 57.1528L13.7075 57.1531L13.7307 57.1545L13.7227 57.1544C13.8439 57.1631 13.9624 57.1679 14.0796 57.1721L14.081 57.1719L14.1248 57.1751L14.1702 57.1762C14.2819 57.1795 14.3949 57.1781 14.5087 57.1767L14.5413 57.1793L14.6211 57.1767C14.6894 57.1751 14.7573 57.1714 14.8252 57.1679C14.8407 57.1936 14.8554 57.2187 14.8684 57.2405L14.8702 57.2439C15.1438 57.7049 15.4321 58.1603 15.7342 58.6091C20.4534 66.6392 30.3013 71.7086 40.3444 71.0965C50.3881 70.4845 59.6478 62.0045 62.2708 52.3915C62.3917 52.02 62.498 51.6577 62.5913 51.3085C62.9331 50.7937 63.1775 50.2804 63.3064 49.7604C63.4627 49.1484 63.4399 48.5392 63.3249 48.0587Z" fill="#674440"></path><path d="M49.9756 24.3994L49.9772 24.4018L49.9779 24.4025L49.9756 24.3994Z" fill="#59473D"></path><path d="M11.1624 56.5912L11.1617 56.5907L11.1611 56.5908L11.1624 56.5912Z" fill="#59473D"></path><path d="M7.89551 54.5059L7.89629 54.5069L7.89613 54.506L7.89551 54.5059Z" fill="#59473D"></path><path d="M7.89794 54.5083L7.89857 54.5085L7.89648 54.5068L7.89794 54.5083Z" fill="#59473D"></path><path d="M6.08372 51.9931L6.08178 51.989L6.08105 51.9883L6.08372 51.9931Z" fill="#59473D"></path><path d="M5.89191 51.5783L5.8913 51.5766L5.89062 51.5762L5.89191 51.5783Z" fill="#59473D"></path><path d="M8.21346 54.8037L8.21702 54.8068L8.21198 54.8025L8.20898 54.7998L8.21346 54.8037Z" fill="#59473D"></path><path d="M43.9841 17.6699C30.7483 16.3999 19.7498 28.6117 15.905 34.8763C20.2641 17.1621 35.3994 14.3832 42.4222 15.208L43.9841 17.6699Z" fill="#C58557"></path><path d="M46.8952 6.59138C46.3213 6.15167 45.6972 5.85607 45.0448 5.67272C44.927 5.65252 44.8087 5.63269 44.6889 5.62102C44.6266 5.59456 44.5635 5.5704 44.4998 5.54717C43.9339 5.4435 43.3503 5.4158 42.7615 5.44923C39.8412 5.61468 36.7884 7.25895 35.0693 8.34285C34.9755 8.40447 34.8808 8.46597 34.7851 8.52955C34.6416 8.62522 34.497 8.72244 34.3507 8.82243C34.1052 8.99021 33.8575 9.1641 33.6046 9.34469C33.5678 9.37062 33.5314 9.39728 33.495 9.42368L32.6048 8.71038L32.3497 8.50568L32.2395 8.41684L29.9108 6.55201L29.7085 6.38998L29.4583 6.1898L29.4232 6.20478L28.9048 6.42841L28.306 6.68664C27.9304 6.59071 27.4985 6.55295 27.0121 6.58249C26.0378 6.64026 24.8497 6.9761 23.5392 7.58904C22.2282 8.19961 20.7952 9.0823 19.31 10.2034C16.3393 12.4445 13.1622 15.6368 10.2514 19.4924C9.23563 20.8372 8.30698 22.1908 7.47103 23.5307C6.65868 24.8307 5.93435 26.1182 5.30286 27.3722C4.02039 29.9188 3.12319 32.3303 2.65285 34.4199C2.33819 35.8124 2.21574 37.0607 2.27946 38.0976C2.32442 38.8516 2.46892 39.4915 2.69167 40.0009C2.76381 40.1657 2.8459 40.3124 2.93354 40.4509C3.11642 40.7423 3.33013 40.983 3.58418 41.176L6.12197 43.0034L6.39394 43.1989L6.40593 43.1801C6.45665 43.0931 6.50899 43.006 6.56267 42.9203L6.57692 42.8975C6.59648 42.8666 6.61737 42.8371 6.63712 42.8073C6.68835 42.7289 6.74037 42.6503 6.794 42.5731C6.82726 42.5252 6.86134 42.4788 6.89558 42.4319C6.92897 42.3862 6.96079 42.3394 6.99481 42.2941C7.01034 42.2738 7.02638 42.2547 7.04217 42.2344C7.078 42.1871 7.11554 42.1404 7.15304 42.0934C7.2051 42.0281 7.25752 41.9634 7.31193 41.899C7.34358 41.8615 7.37555 41.8243 7.40778 41.787L7.42194 41.771C7.47941 41.7055 7.53813 41.6409 7.59672 41.5772C7.63382 41.5368 7.67133 41.4971 7.7091 41.4574C7.77048 41.394 7.83348 41.3305 7.89695 41.268C7.93516 41.2307 7.97285 41.1934 8.01168 41.1565C8.07709 41.0942 8.14431 41.0329 8.21169 40.9724C8.25113 40.9373 8.289 40.9025 8.32843 40.8687C8.39938 40.807 8.47189 40.7477 8.54412 40.6885C8.58294 40.6573 8.62077 40.6252 8.65969 40.5946L8.70332 40.56L8.7099 40.5544C8.77171 40.5064 8.83559 40.4607 8.89879 40.4144C8.93423 40.3884 8.96795 40.362 9.00428 40.3364C9.05726 40.298 9.11199 40.2616 9.16636 40.2248C9.21348 40.1928 9.25997 40.1605 9.30802 40.1292L9.36065 40.0932C9.48167 40.0154 9.60429 39.9402 9.72907 39.8679C9.76831 39.8448 9.80956 39.8238 9.84943 39.8011C9.89235 39.7773 9.93522 39.7532 9.97929 39.7298L10.0298 39.7013C10.0558 39.6877 10.0819 39.673 10.1075 39.6598C10.1614 39.6323 10.2162 39.6066 10.27 39.5794L10.3102 39.5599C10.373 39.5289 10.4353 39.4982 10.4989 39.4689C10.558 39.4413 10.6181 39.4162 10.6783 39.39C10.7525 39.3576 10.8268 39.3255 10.9017 39.2949C10.9331 39.2825 10.9642 39.2694 10.9956 39.257C11.0271 39.2448 11.0599 39.2338 11.0916 39.2216C11.1656 39.1936 11.2402 39.1661 11.3148 39.1399C11.381 39.117 11.4472 39.0953 11.5133 39.0732C11.567 39.0561 11.6195 39.0384 11.6731 39.0221C11.695 39.0156 11.7168 39.0096 11.7385 39.0037C11.7632 38.9961 11.7865 38.9879 11.8113 38.9811L11.8519 38.9711C12.1222 38.9095 12.42 38.856 12.7505 38.8194L12.8008 38.8133C13.1346 38.779 13.4999 38.7647 13.8882 38.7741C13.981 38.7767 14.0733 38.7785 14.1696 38.7837C14.182 38.7451 14.1947 38.7055 14.2074 38.6669C14.3389 38.2751 14.4743 37.8919 14.6131 37.5143C15.4252 35.312 16.3697 33.343 17.3818 31.591C17.7269 30.9928 18.0805 30.4186 18.4389 29.8699C19.9333 27.5851 21.5185 25.727 23.008 24.2428C23.339 23.9132 23.6652 23.6019 23.9847 23.3082C24.4199 22.9087 24.8423 22.5421 25.2467 22.2081C25.5762 21.9359 25.8938 21.6849 26.1968 21.4545C26.7018 21.07 27.166 20.7427 27.5767 20.4682C27.704 20.3832 27.8265 20.3029 27.9424 20.2284C28.1225 20.1126 28.2895 20.0085 28.4414 19.9167C28.2979 19.9282 28.153 19.9436 28.0056 19.9632C27.8683 19.9815 27.7294 20.0047 27.5897 20.0305C27.5544 20.0368 27.5198 20.0438 27.4846 20.0504C27.3439 20.0786 27.2022 20.1085 27.0598 20.1444C26.7893 20.2118 26.5153 20.2926 26.2375 20.391C26.1448 20.4238 26.0519 20.4586 25.9585 20.4959C26.6003 19.9955 27.2497 19.5885 27.8872 19.2547C28.311 19.0327 28.73 18.8423 29.1363 18.6813C29.6969 18.4604 30.2344 18.2925 30.7354 18.1647C31.0714 18.0794 31.39 18.0118 31.687 17.959C31.9858 17.9063 32.2625 17.8679 32.5127 17.8403C33.3867 17.7441 33.9308 17.7789 33.9308 17.7789C33.7764 17.6294 33.5942 17.508 33.4022 17.4083C33.0529 17.2288 32.6699 17.125 32.3392 17.0626C32.2092 17.0382 32.086 17.0187 31.9786 17.0058C31.8931 16.9956 31.8138 16.9878 31.7486 16.9826C31.8894 16.9305 32.0288 16.8827 32.1668 16.8373C32.3132 16.789 32.4585 16.7439 32.6017 16.7028C33.8223 16.3546 34.9286 16.2588 35.7731 16.258C36.7913 16.2562 37.4301 16.3931 37.4301 16.3931C37.2389 16.1458 36.9872 15.951 36.7229 15.7965C36.5302 15.6844 36.3318 15.5927 36.145 15.5208C36.4891 15.5355 36.8185 15.562 37.1335 15.5973C37.9654 15.6908 38.687 15.8455 39.261 16.001C39.4468 16.0515 39.6175 16.1016 39.7715 16.1504C39.8154 16.1642 39.8557 16.1774 39.8966 16.191C40.4276 16.3641 40.7293 16.5032 40.7293 16.5032C40.5959 16.2347 40.3823 15.9974 40.1465 15.7927C40.0873 15.7414 40.0275 15.6908 39.967 15.6438L39.9922 15.65C40.0109 15.6525 40.0509 15.6573 40.1069 15.6653C40.1477 15.671 40.197 15.6784 40.2562 15.6881C40.4801 15.7252 40.8247 15.7935 41.2365 15.9104C41.256 15.9157 41.2765 15.9217 41.2966 15.9275C41.3526 15.9442 41.4099 15.961 41.4674 15.9792C41.6095 16.0231 41.7573 16.0739 41.909 16.1297C42.0502 16.1818 42.1953 16.2388 42.3422 16.3023C42.4179 16.3349 42.4937 16.369 42.5701 16.4048C42.7332 16.4811 42.8967 16.5651 43.0606 16.657C43.2281 16.7512 43.3952 16.8542 43.5592 16.966C43.5914 16.9883 43.6243 17.0099 43.6567 17.0333C43.777 17.118 43.8947 17.209 44.0098 17.3049C44.2285 17.4851 44.4371 17.6848 44.6304 17.9057C44.862 18.1706 45.0722 18.464 45.2496 18.7929C45.2593 18.8115 45.2684 18.831 45.2776 18.8497C45.3426 18.7472 45.4566 18.5634 45.6031 18.3145C46.8201 16.244 50.3031 9.60784 46.8952 6.59138Z" fill="#141C26"></path><path d="M18.494 51.314C18.4816 51.2828 18.4701 51.252 18.4587 51.2212L18.4638 51.2181C18.2957 50.7772 18.1455 50.3207 18.0112 49.8507C18.0019 49.817 17.991 49.785 17.981 49.7518C17.9067 49.7912 17.8373 49.9123 17.7745 50.0715C17.7511 50.1311 17.7291 50.1957 17.7077 50.2634C17.5523 50.7578 17.4531 51.422 17.4531 51.422C17.431 51.2106 17.4135 50.9901 17.3985 50.768C17.3967 50.7422 17.3957 50.7168 17.3941 50.6907C17.3794 50.4646 17.3685 50.2358 17.36 50.0079C17.3587 49.9804 17.358 49.953 17.357 49.926C17.3487 49.6689 17.3429 49.4131 17.3402 49.1656C17.3399 49.1333 17.3393 49.1021 17.3393 49.0702L17.3395 49.0538C17.3394 49.0253 17.3389 48.9963 17.3387 48.9677C17.3381 48.9251 17.3377 48.8824 17.3378 48.8402C17.3368 48.6439 17.338 48.4537 17.34 48.2731C17.3419 48.11 17.3443 47.9554 17.3474 47.8098L17.3481 47.7628C17.3482 47.7399 17.3492 47.7191 17.3498 47.6972C17.3504 47.6758 17.3506 47.6538 17.3509 47.6317L17.3511 47.624C17.3522 47.5876 17.3533 47.5501 17.3542 47.5156L17.3546 47.506C17.3551 47.4719 17.3562 47.4429 17.357 47.4109C17.3588 47.3607 17.3598 47.3093 17.3614 47.2625L17.362 47.2493C17.3633 47.2112 17.364 47.1727 17.3654 47.1379C17.3675 47.0877 17.3695 47.0416 17.3703 46.9982L17.3706 46.9967L17.3709 46.9956C17.3717 46.9707 17.3729 46.949 17.3737 46.9259L17.374 46.9218C17.375 46.9009 17.3753 46.8791 17.3765 46.8606C17.3785 46.8145 17.3803 46.7728 17.3819 46.7407L17.3833 46.7121L17.3841 46.7016L17.3857 46.6678L17.3868 46.6445L17.3872 46.6411L17.3841 46.6447L17.3439 46.6977C17.3084 46.7435 17.2716 46.7888 17.2395 46.8383L17.2046 46.8949C17.1674 46.9563 17.1319 47.0201 17.1002 47.0867L17.0829 47.1193C17.0438 47.2028 17.009 47.2894 16.9769 47.3767L16.977 47.377L16.9728 47.3884L16.9727 47.389L16.9602 47.4275C16.953 47.4487 16.9465 47.4703 16.9398 47.4917C16.9219 47.546 16.903 47.599 16.8881 47.6533L16.8871 47.6554L16.8866 47.6571L16.8861 47.6615L16.8801 47.682L16.8749 47.7023C16.8517 47.788 16.8318 47.8726 16.8139 47.9557C16.7628 48.1895 16.7306 48.4092 16.7097 48.5916C16.7027 48.6564 16.6962 48.7177 16.6918 48.7716C16.6818 48.8886 16.6765 48.9797 16.6747 49.0242L16.6749 49.0279L16.6734 49.0579L16.6698 49.024C16.6611 48.957 16.6565 48.8898 16.6494 48.8231C16.6339 48.6828 16.6166 48.5423 16.6062 48.4022C16.5967 48.2842 16.5935 48.1677 16.5884 48.0497C16.5869 48.013 16.5857 47.9759 16.5844 47.9394C16.5816 47.8852 16.5791 47.831 16.578 47.7768C16.5764 47.7262 16.5782 47.6757 16.5784 47.6259L16.5782 47.6221L16.5782 47.6219L16.5784 47.566L16.5788 47.5507C16.5785 47.4898 16.5787 47.4277 16.579 47.3666C16.5786 47.343 16.5786 47.3194 16.579 47.2956L16.5796 47.2533L16.5797 47.2454C16.5801 47.2254 16.5806 47.2049 16.5813 47.1852C16.5815 47.1601 16.5837 47.1355 16.5844 47.1117C16.5878 47.0215 16.5929 46.9326 16.5972 46.8433L16.598 46.8285C16.6011 46.762 16.6031 46.6955 16.6077 46.6299L16.6077 46.6269L16.6085 46.6224L16.6101 46.603C16.6194 46.4679 16.633 46.335 16.6464 46.201L16.6528 46.1274C16.6555 46.1027 16.6569 46.0768 16.6599 46.0518C16.6827 45.8344 16.7103 45.6188 16.7428 45.407L16.7471 45.3803C16.7753 45.2003 16.8048 45.0228 16.8376 44.8471L16.8412 44.8271C16.8564 44.7496 16.8729 44.675 16.8878 44.5984L16.8905 44.587C16.9138 44.4727 16.9365 44.358 16.9615 44.2469L16.9616 44.2458L16.9615 44.2452L16.962 44.2438L16.9646 44.23C16.9716 44.202 16.9873 44.1343 17.0127 44.0342L17.0132 44.0325L17.0167 44.0191L17.0167 44.0188C17.0265 43.9794 17.0357 43.9412 17.0448 43.9014C17.0599 43.8379 17.0754 43.7751 17.0904 43.7127L17.1044 43.6578L17.1045 43.6554L17.4029 42.7648C17.4152 42.7271 17.4273 42.69 17.4389 42.6528L17.4453 42.6347L17.4604 42.5889C17.4927 42.4903 17.525 42.3911 17.5566 42.2949C17.6044 42.1515 17.6504 42.0144 17.6931 41.8859C17.7806 41.624 17.8559 41.4017 17.9019 41.2677C17.9272 41.1932 17.9439 41.1441 17.9487 41.1291L17.9507 41.1224L17.9502 41.1225L17.9484 41.1215L17.9436 41.1191C17.924 41.1106 17.7702 41.0421 17.5205 40.948C17.2358 40.8416 16.8248 40.7019 16.3332 40.5765C16.1757 40.536 16.0106 40.4976 15.8385 40.462C15.6323 40.4191 15.4171 40.3803 15.1949 40.3491C15.1376 40.3413 15.0784 40.3374 15.0207 40.3305C14.8352 40.3079 14.6464 40.292 14.4543 40.2824L14.4433 40.282C14.3114 40.2753 14.1801 40.2672 14.0462 40.2674C13.9411 40.2672 13.8358 40.2672 13.7297 40.2723C13.6793 40.2747 13.6275 40.2803 13.577 40.2851C13.5266 40.2893 13.4767 40.2934 13.4266 40.2976C13.2851 40.3112 13.1443 40.331 13.004 40.3536C12.9358 40.3647 12.8676 40.3753 12.8 40.3895C12.4972 40.4531 12.2037 40.5357 11.9182 40.6323L11.8663 40.6504C11.3524 40.8283 10.8672 41.0566 10.4159 41.3306C10.2626 41.4234 10.1125 41.5208 9.96653 41.6238C9.92522 41.6533 9.88436 41.6838 9.84351 41.7142C9.79376 41.751 9.74312 41.7874 9.69435 41.8251C9.25878 42.1631 8.86476 42.5472 8.51537 42.9663L8.50294 42.9814C8.20146 43.3437 7.93517 43.7325 7.70601 44.1439C7.64027 44.2612 7.57786 44.3804 7.51874 44.5011C7.44847 44.6438 7.38211 44.7885 7.32056 44.9355C7.205 45.2133 7.10551 45.4983 7.02278 45.79C6.9937 45.8924 6.96556 45.9953 6.94082 46.099C6.93627 46.1184 6.93271 46.1387 6.92847 46.1582C6.77222 46.8333 6.70572 47.5371 6.74147 48.2521C6.74832 48.3923 6.7588 48.533 6.77351 48.6745L6.77929 48.7273C6.79171 48.8391 6.80686 48.9508 6.82421 49.0627C6.84544 49.1998 6.87028 49.3372 6.89938 49.4742C6.90408 49.4964 6.91011 49.5171 6.91472 49.5388C6.93812 49.6452 6.96217 49.7507 6.98985 49.8552L7.00631 49.9099C7.01303 49.9342 7.01996 49.9582 7.02658 49.982C7.04935 50.0646 7.07276 50.1462 7.09776 50.2262L7.10471 50.2445L7.10569 50.2498L7.10637 50.2505C7.11987 50.2907 7.13473 50.3309 7.14827 50.3714C7.17295 50.4438 7.1972 50.5169 7.22331 50.5882C7.24306 50.6401 7.26472 50.6905 7.2849 50.7417C7.31166 50.8077 7.33677 50.8752 7.36553 50.9403C7.38866 50.9942 7.41392 51.0464 7.43807 51.0985L7.4545 51.1355L7.48024 51.1903L7.49976 51.2321L7.52362 51.2826C7.55005 51.3368 7.57938 51.3903 7.60682 51.444C7.63643 51.5006 7.66571 51.5582 7.69644 51.6135C7.72628 51.6683 7.75855 51.7216 7.79039 51.7756L7.81613 51.8187C7.83805 51.8573 7.86032 51.8965 7.8846 51.9347C7.91812 51.9888 7.95396 52.0423 7.98911 52.0964C8.02139 52.1454 8.05324 52.195 8.08625 52.2435C8.10532 52.2713 8.12502 52.2981 8.14436 52.3244C8.16428 52.3509 8.18272 52.3782 8.20184 52.4049C8.23495 52.4509 8.2679 52.4962 8.30248 52.5415C8.34392 52.5958 8.3868 52.6491 8.42963 52.702C8.46357 52.7439 8.49646 52.7859 8.53057 52.8272C8.57579 52.8814 8.6235 52.9342 8.67078 52.9877C8.7041 53.0248 8.73678 53.0628 8.77104 53.1005C8.82083 53.1544 8.87186 53.2061 8.92352 53.2582C8.95697 53.2931 8.99033 53.3274 9.02406 53.3609C9.07802 53.4137 9.1334 53.4654 9.1891 53.5173C9.22177 53.548 9.2547 53.5786 9.28775 53.6083C9.34611 53.6614 9.40623 53.7122 9.46656 53.7628C9.49775 53.7899 9.52952 53.8172 9.56241 53.8431C9.62509 53.8946 9.68937 53.9444 9.75444 53.994C9.78468 54.0175 9.81514 54.0407 9.8467 54.0639C9.91385 54.1145 9.9826 54.1635 10.0521 54.2104C10.0819 54.2304 10.1106 54.2512 10.1404 54.2712C10.2123 54.3193 10.2864 54.3664 10.3596 54.4127C10.3875 54.4295 10.4152 54.4466 10.4429 54.4641C10.5196 54.5102 10.5974 54.5553 10.6764 54.599C10.7025 54.6135 10.7276 54.6284 10.7536 54.6423C10.8355 54.6872 10.9182 54.7292 11.0014 54.7711C11.0249 54.7822 11.0496 54.7948 11.0728 54.8065C11.1594 54.8478 11.2461 54.8876 11.3338 54.9262L11.3991 54.9549C11.4896 54.9938 11.5813 55.0314 11.6733 55.0665L11.7319 55.0885C11.8271 55.1249 11.9235 55.1572 12.0205 55.1898L12.0705 55.2066C12.1707 55.2388 12.2714 55.2681 12.3723 55.2967L12.4155 55.3079C12.5196 55.3364 12.6238 55.3621 12.7293 55.3863L12.7665 55.3948C12.8743 55.418 12.9824 55.4389 13.0909 55.4587L13.1212 55.4636C13.2331 55.4822 13.3443 55.4993 13.4575 55.5135L13.4804 55.5166C13.5352 55.523 13.5909 55.527 13.6461 55.5325C13.7063 55.5384 13.7664 55.5457 13.8269 55.5504L13.8438 55.5519C13.9622 55.5603 14.0808 55.5659 14.2 55.569L14.2103 55.5701C14.2109 55.5702 14.2119 55.57 14.2123 55.5702C14.3326 55.5731 14.4537 55.5733 14.575 55.5698L14.5809 55.5706C14.9534 55.5612 15.3298 55.5247 15.7076 55.4588C15.7976 55.4436 15.8875 55.4279 15.9772 55.4101C16.0974 55.3846 16.2199 55.3536 16.3424 55.3201C16.5095 55.2748 16.6774 55.2225 16.8462 55.164C16.9948 55.1129 17.1418 55.0577 17.2879 54.9974C17.5155 54.9046 17.7386 54.8031 17.9518 54.6955C18.5913 54.3728 19.1398 53.9993 19.4472 53.6661C19.4472 53.6661 19.0181 52.6694 18.6219 51.6494C18.5786 51.5372 18.5356 51.4249 18.494 51.314Z" fill="#FCE9C9"></path><path d="M44.6322 20.5638L44.6334 20.5642L44.6299 20.5625L44.6322 20.5638Z" fill="#856249"></path><path d="M16.6054 42.8615C13.7688 42.7656 9.64425 44.5361 11.7813 49.9842" stroke="#674440"></path><path d="M28.0793 9.07669L27.7965 8.03877L28.1062 6.7724L28.306 6.68664C27.9304 6.59071 27.4985 6.55295 27.0121 6.58249C26.0378 6.64026 24.8497 6.9761 23.5392 7.58904C22.2282 8.19961 20.7952 9.0823 19.31 10.2034C16.3393 12.4445 13.1622 15.6368 10.2514 19.4924C9.23563 20.8372 8.30698 22.1908 7.47103 23.5307C6.65868 24.8307 5.93435 26.1182 5.30286 27.3722C4.02039 29.9188 3.12319 32.3303 2.65285 34.4199C2.33819 35.8124 2.21574 37.0607 2.27946 38.0976C2.32442 38.8516 2.46892 39.4915 2.69167 40.0009C2.76381 40.1657 2.8459 40.3124 2.93354 40.4509C3.11642 40.7423 3.33013 40.983 3.58418 41.176L6.12197 43.0034L6.39394 43.1989L6.40593 43.1801C6.45665 43.0931 6.50899 43.006 6.56267 42.9203L6.57692 42.8975C6.59648 42.8666 6.61737 42.8371 6.63712 42.8073C6.68835 42.7289 6.74037 42.6503 6.794 42.5731C6.82726 42.5252 6.86134 42.4788 6.89558 42.4319C6.92897 42.3862 6.96079 42.3394 6.99481 42.2941C7.01034 42.2738 7.02638 42.2547 7.04217 42.2344C7.078 42.1871 7.11554 42.1404 7.15304 42.0934C7.2051 42.0281 7.25752 41.9634 7.31193 41.899C7.34358 41.8615 7.37555 41.8243 7.40778 41.787L7.42194 41.771C7.47941 41.7055 7.53813 41.6409 7.59672 41.5772C7.63382 41.5368 7.67133 41.4971 7.7091 41.4574C7.77048 41.394 7.83348 41.3305 7.89695 41.268C7.93516 41.2307 7.97285 41.1934 8.01168 41.1565C8.07709 41.0942 8.14431 41.0329 8.21169 40.9724C8.25113 40.9373 8.289 40.9025 8.32843 40.8687C8.39938 40.807 8.47189 40.7477 8.54412 40.6885C8.58294 40.6573 8.62077 40.6252 8.65969 40.5946L8.70332 40.56L8.70459 40.5508C8.95012 39.049 9.42619 37.3794 10.116 35.6038C10.9634 33.4229 12.1297 31.0837 13.5877 28.6987C14.5045 27.1984 15.5353 25.6803 16.673 24.1734C18.145 22.2253 19.684 20.445 21.2343 18.8621C22.2786 17.7956 23.3275 16.8237 24.3652 15.9492C24.4635 15.8664 24.5619 15.781 24.6601 15.7004C24.9375 15.4714 25.2133 15.2517 25.4886 15.0381C26.0875 14.5716 26.6807 14.1391 27.2644 13.746L26.8835 13.4303L26.8204 13.3784L23.664 10.7597L23.3314 8.86742L23.3021 8.84458L24.7649 8.09353L28.0793 9.07669Z" fill="#0088C7"></path><path d="M61.7819 48.534L61.7826 48.5336C61.7826 48.5336 61.7615 48.123 61.4829 47.8042L61.4763 47.7954C61.4599 47.7761 61.4432 47.7594 61.4262 47.7427L61.4084 47.7245C61.3794 47.6975 61.3456 47.6728 61.3111 47.6479C61.2491 47.6032 61.1791 47.5634 61.0985 47.5314C61.0565 47.5136 61.0115 47.4986 60.9638 47.4852C60.8329 47.4503 60.6809 47.4335 60.5053 47.4404C60.3769 47.4456 60.2331 47.467 60.0786 47.5008C60.0161 47.5146 59.9543 47.5275 59.8876 47.5465L59.8571 47.5541C59.8571 47.5541 59.865 47.5698 59.8762 47.5933C59.8881 47.618 59.9049 47.6538 59.9276 47.701C59.9359 47.7196 59.9447 47.7389 59.9547 47.7602C59.9933 47.8447 60.0409 47.9523 60.0918 48.0745C60.0917 48.0756 60.0887 48.1018 60.0774 48.1521L60.0715 48.1788C60.0274 48.3743 59.8937 48.8318 59.5236 49.4635C59.4606 49.5708 59.3897 49.6842 59.3128 49.8014C58.2509 51.4064 55.7649 53.8736 49.9765 56.0749C47.9973 56.741 46.1261 57.1067 44.4881 57.2064C42.0662 57.354 40.1514 56.9288 39.1364 56.066C39.0485 55.992 38.9663 55.9143 38.887 55.8352C38.8284 55.7767 38.7713 55.7171 38.7175 55.6561C38.698 55.6336 38.6798 55.6104 38.6606 55.5878C38.189 55.0272 37.907 54.3727 37.7922 53.7093C37.6535 52.9036 37.7606 52.0879 38.0746 51.4177C38.3294 50.8742 38.7195 50.4265 39.2235 50.1593C39.4707 50.0285 39.7445 49.9393 40.0431 49.9042C40.1034 49.8973 40.1836 49.8911 40.2839 49.8849C40.4853 49.8729 40.7674 49.8602 41.1127 49.8407C41.1515 49.8383 41.1873 49.8363 41.2277 49.8339C42.3779 49.7637 44.1997 49.5984 46.34 49.0622C50.2339 48.087 55.1867 45.8798 59.1017 40.7562L59.1115 40.7372L59.1102 40.7298C59.0596 40.3713 58.8921 39.7381 58.3496 39.3225C58.2549 39.2498 58.1479 39.1843 58.0295 39.1272C57.9616 39.0946 57.892 39.0644 57.8158 39.0383C57.7395 39.0128 57.6691 38.9859 57.6008 38.9584C57.5077 38.9216 57.4193 38.8842 57.3399 38.8454L57.3269 38.8323C57.2858 38.7886 57.2428 38.7465 57.2012 38.7028C55.6347 37.0814 53.7522 36.322 52.9896 35.9553C52.6298 35.7819 52.4085 35.7135 52.4085 35.7135C50.7909 35.0998 50.523 34.846 50.2101 32.4176C50.0972 31.5432 49.9785 30.3883 49.7872 28.8284C49.7627 28.6253 49.7332 28.4338 49.7016 28.2458C49.6941 28.201 49.687 28.1571 49.6788 28.1132C49.647 27.9359 49.6129 27.7634 49.5751 27.5988L49.5646 27.5514L49.5512 27.5011C49.5194 27.3721 49.4866 27.247 49.4528 27.1256C49.4376 27.0724 49.4222 27.0189 49.4067 26.9666C49.3677 26.8375 49.3272 26.7125 49.2836 26.5927C49.2615 26.5315 49.2378 26.473 49.2148 26.4136C49.189 26.3469 49.1624 26.2819 49.1356 26.2183C49.1092 26.1557 49.0824 26.0926 49.0547 26.0328L49.0541 26.0326L49.0545 26.0317L49.0546 26.0325C49.0207 25.9585 48.9843 25.8894 48.9493 25.82C48.9364 25.7946 48.9249 25.7679 48.9114 25.7435C48.8986 25.7203 48.8857 25.6993 48.8732 25.676L48.8605 25.6531L48.8226 25.5872L48.8209 25.5826C48.7901 25.5296 48.7587 25.4783 48.7281 25.4282L48.7182 25.4115L48.6876 25.3644L48.6506 25.3063L48.6426 25.2953L48.6423 25.2937C48.5796 25.2 48.5157 25.1096 48.45 25.0261L48.3988 24.9649C48.3269 24.8844 48.2544 24.8097 48.1815 24.7381L48.1519 24.708L48.1161 24.6752C48.0642 24.6264 48.0123 24.5786 47.9611 24.5346L47.891 24.4739C47.8229 24.4183 47.7555 24.3647 47.6883 24.3155L47.6879 24.315C47.6058 24.2555 47.5243 24.1999 47.4426 24.1499C47.3534 24.1151 47.2664 24.085 47.1798 24.0604C47.1515 24.0518 47.1236 24.0466 47.0952 24.04C47.0388 24.0254 46.9815 24.0116 46.9256 24.0019C46.8929 23.9961 46.8614 23.9924 46.8293 23.9878C46.7797 23.9815 46.7289 23.9752 46.6796 23.9716C46.6474 23.9698 46.6143 23.9691 46.5821 23.9686C46.5342 23.9675 46.4875 23.9678 46.4405 23.9697C46.4084 23.9714 46.3769 23.9734 46.3449 23.9767C46.2988 23.9807 46.2529 23.9871 46.2073 23.9937C46.1764 23.9986 46.1457 24.0035 46.1162 24.0099C46.0695 24.0194 46.0239 24.0304 45.9783 24.0427C45.9503 24.0501 45.922 24.0578 45.8945 24.0662L45.8339 24.0871C45.8067 24.0973 45.7788 24.1058 45.7507 24.1167C45.7267 24.1256 45.7025 24.1344 45.6787 24.1441C45.6234 24.1669 45.5691 24.1923 45.5153 24.2192L45.4677 24.2414C45.3261 24.3141 45.1872 24.3994 45.0519 24.4943L45.0069 24.527C44.9542 24.5643 44.9015 24.603 44.8494 24.6432L44.7898 24.6913C44.7425 24.7282 44.6956 24.7669 44.6492 24.8058L44.586 24.8606C44.5402 24.8999 44.4944 24.94 44.449 24.9814L44.3871 25.0376C44.34 25.081 44.2925 25.1255 44.2451 25.1706L44.1929 25.2206C44.1396 25.2717 44.0861 25.3236 44.033 25.3762L44.0013 25.4074C43.9416 25.4668 43.8811 25.5276 43.8206 25.5884L43.8186 25.591L43.8091 25.5996L43.8099 25.5994C43.697 25.7125 43.5849 25.8276 43.4711 25.9428C43.3759 26.0395 43.2786 26.1366 43.1807 26.2332L43.1337 26.2804C43.035 26.3772 42.9347 26.4724 42.834 26.5674L42.7831 26.6142C42.6813 26.7073 42.5788 26.7986 42.4747 26.8866L42.4197 26.932C42.315 27.0198 42.2073 27.1036 42.0981 27.185L42.0434 27.2243C41.9327 27.3049 41.8186 27.382 41.702 27.4527L41.6538 27.4821C41.5332 27.5537 41.4098 27.6216 41.2828 27.6818L41.2493 27.6965C41.1149 27.7591 40.9791 27.8147 40.8376 27.8615C40.5999 27.9399 40.3583 27.9962 40.1136 28.043C39.7152 28.1192 39.3091 28.1616 38.896 28.1769C38.7584 28.1816 38.6187 28.1832 38.4795 28.1836C38.4299 28.1836 38.3809 28.1851 38.3319 28.1848C37.9688 28.1821 37.6011 28.1666 37.2304 28.1473C37.0746 28.1397 36.919 28.1314 36.7625 28.1231C36.5112 28.1093 36.2578 28.0981 36.0044 28.0879C35.9542 28.0859 35.9054 28.0825 35.8548 28.081L35.8571 28.0803C35.8215 28.0793 35.7858 28.0787 35.75 28.078C35.6939 28.0762 35.6378 28.0747 35.5821 28.0726C35.5286 28.072 35.4749 28.0714 35.4217 28.0707L35.3938 28.0702L35.3753 28.0701C35.3262 28.0695 35.2774 28.0688 35.228 28.0685C35.1139 28.0683 34.9993 28.0692 34.8848 28.0716C34.8509 28.0719 34.8169 28.0739 34.7834 28.075C34.6984 28.0775 34.6137 28.0803 34.5296 28.0845C34.4869 28.0862 34.4438 28.0902 34.4018 28.0929L34.3924 28.0935C34.3189 28.0977 34.2453 28.1028 34.1721 28.1091C34.1234 28.1133 34.0742 28.1184 34.0263 28.1227C34.0045 28.1251 33.9826 28.1278 33.9602 28.1301C33.9106 28.1356 33.8601 28.1409 33.8101 28.1472C33.7625 28.1529 33.7146 28.1591 33.6664 28.1659C33.5898 28.1769 33.515 28.189 33.4398 28.2017C33.4171 28.2056 33.3944 28.2096 33.3717 28.2133C33.3512 28.2169 33.3294 28.2201 33.3084 28.224C33.2153 28.2417 33.1212 28.2611 33.0273 28.283C33.003 28.2884 32.9772 28.2929 32.9526 28.2994C32.8335 28.3268 32.7148 28.3588 32.5962 28.394C32.5655 28.403 32.5351 28.4136 32.5038 28.4227C32.4274 28.4465 32.351 28.4716 32.2746 28.4984L32.2406 28.5099C32.1989 28.5242 32.1567 28.5406 32.1156 28.5561C32.0378 28.5859 31.961 28.6163 31.8835 28.6487C31.8389 28.6679 31.7945 28.6866 31.7504 28.7071C31.6745 28.7408 31.5982 28.7771 31.5222 28.8147C31.4791 28.8358 31.4359 28.8569 31.3926 28.8797C31.3109 28.9222 31.2302 28.9678 31.1491 29.0147C31.1122 29.0358 31.0753 29.0555 31.0388 29.0783C30.9204 29.1486 30.8042 29.2231 30.687 29.3038C29.7961 30.0649 29.085 31.0093 28.5741 32.0517C28.4039 32.3987 28.2558 32.757 28.1308 33.1228C27.9984 33.5101 27.8948 33.9059 27.8153 34.3064C27.7919 34.4235 27.7707 34.5401 27.7519 34.658C27.7213 34.8561 27.694 35.0553 27.6765 35.2548C27.6748 35.2761 27.6742 35.2977 27.6725 35.3193C27.654 35.544 27.6438 35.7691 27.6429 35.9947C27.6411 36.2302 27.6501 36.465 27.6678 36.6994C27.6773 36.8261 27.6878 36.9523 27.7028 37.0783C27.7437 37.4166 27.8088 37.7521 27.8915 38.0831C27.8985 38.1131 27.9069 38.1434 27.9146 38.173C27.9363 38.2577 27.9551 38.3421 27.9803 38.4261C28.0495 38.6598 28.1279 38.8918 28.22 39.1193C28.2531 39.2035 28.2921 39.2814 28.3289 39.3616C28.3637 39.4385 28.3971 39.5182 28.4333 39.5929L28.4332 39.5923C28.7124 40.1652 29.0549 40.6641 29.4326 41.1051C30.871 42.7812 32.8692 43.571 34.2775 43.9322C34.8229 44.0604 35.3861 44.1608 35.9652 44.2332C35.9652 44.2332 35.9424 44.254 35.9075 44.2886C35.8155 44.3308 35.708 44.3819 35.5894 44.4408C35.4097 44.5296 35.2033 44.637 34.977 44.7633C34.7229 44.9052 34.4443 45.071 34.1533 45.2603C33.3772 45.7659 32.5151 46.4397 31.797 47.282C31.7069 47.3873 31.6195 47.495 31.5345 47.6054C31.3901 47.794 31.2557 47.9914 31.1291 48.1955C31.1147 48.2186 31.0988 48.2412 31.0851 48.2644C31.0659 48.2958 31.0475 48.3281 31.0289 48.3596C30.982 48.441 30.9359 48.5239 30.8917 48.6078C30.8741 48.6416 30.8567 48.6751 30.839 48.7089C30.7817 48.8235 30.7266 48.9392 30.6761 49.058C30.6265 49.1745 30.5802 49.2939 30.5379 49.4143C30.1999 50.383 30.1112 51.4837 30.4317 52.7168L30.432 52.7034L30.4318 52.6939C30.4318 52.6822 30.432 52.6659 30.4323 52.6457L30.433 52.6349C30.4332 52.6153 30.4345 52.5919 30.4357 52.5661L30.4362 52.5499C30.4378 52.5202 30.4398 52.4861 30.4424 52.4489L30.4444 52.4246C30.4476 52.3848 30.4512 52.3416 30.4556 52.2948L30.456 52.2944C30.4603 52.2485 30.467 52.1985 30.4732 52.147L30.4776 52.1154C30.4847 52.0629 30.4929 52.0077 30.5027 51.9507L30.5081 51.9232C30.5169 51.8693 30.5274 51.8137 30.5396 51.7562L30.5452 51.7296C30.5581 51.6676 30.5733 51.6032 30.5891 51.5377L30.5997 51.4967C30.6174 51.4295 30.6354 51.3613 30.657 51.2917L30.657 51.2914C30.6578 51.2886 30.6589 51.2859 30.6598 51.2833C30.6916 51.1794 30.7293 51.0724 30.7706 50.9643C30.7861 50.9233 30.8009 50.8827 30.8187 50.8412L30.8319 50.8069L30.8323 50.806C30.8689 50.7206 30.9081 50.6346 30.9516 50.5486C30.987 50.4783 31.0253 50.408 31.0652 50.3377C31.0777 50.3157 31.0916 50.2935 31.1051 50.2714C31.1376 50.2177 31.1716 50.1637 31.2073 50.1102C31.2221 50.0887 31.2365 50.0667 31.2513 50.0454C31.3007 49.9749 31.352 49.9055 31.4073 49.8372L31.4119 49.8309C31.4119 49.8309 30.7546 52.6179 31.6305 54.5669C31.6305 54.5669 31.6288 54.5607 31.6267 54.5499L31.6244 54.5373C31.6217 54.5261 31.6193 54.5129 31.616 54.4956C31.6154 54.4922 31.6147 54.4882 31.6137 54.4846C31.6101 54.4635 31.6055 54.4393 31.6012 54.4102C31.6005 54.4065 31.5999 54.4031 31.5996 54.3987C31.594 54.3685 31.5898 54.3344 31.5843 54.2965C31.5837 54.2931 31.5835 54.2891 31.5828 54.2856C31.5777 54.2466 31.5722 54.2038 31.5672 54.1582C31.5664 54.154 31.5661 54.1505 31.5659 54.1467C31.561 54.1 31.5559 54.0509 31.5521 53.9985C31.5519 53.9945 31.5516 53.9901 31.5513 53.9856C31.5467 53.9334 31.5442 53.8788 31.5414 53.8214C31.541 53.8163 31.5411 53.8111 31.5407 53.806C31.5383 53.7452 31.5365 53.6818 31.5365 53.6162L31.5364 53.6008L31.5365 53.5678L31.5362 53.5665C31.5369 53.4926 31.5398 53.4166 31.545 53.3392C31.5454 53.3342 31.5455 53.329 31.5457 53.3238C31.5517 53.2481 31.5588 53.1714 31.5683 53.0937C31.5714 53.0697 31.5741 53.0463 31.5773 53.0223L31.5843 52.9725L31.5842 52.9718C31.5945 52.9075 31.6069 52.8428 31.6213 52.7781L31.6234 52.7676L31.6235 52.7671C31.6434 52.6765 31.6698 52.5875 31.6989 52.4985C31.7062 52.4751 31.7149 52.4514 31.7234 52.4283C31.7556 52.3398 31.7904 52.2525 31.8329 52.1681L31.8346 52.1639L31.8349 52.1639C31.8349 52.1639 31.888 52.81 32.0456 53.5612C32.0709 53.6792 32.0992 53.8003 32.1298 53.9217C32.1498 54.0026 32.1704 54.0839 32.1934 54.1646C32.0923 53.3445 32.0982 52.5554 32.1813 51.805C32.0983 52.5559 32.0923 53.3448 32.1938 54.1653L32.1938 54.1656C32.2578 54.6891 32.3651 55.2246 32.5224 55.7709C32.786 56.6815 33.1896 57.6217 33.7707 58.5822C33.7707 58.5822 33.1931 57.4608 33.4839 56.1769C33.5504 56.2764 33.6202 56.3761 33.6925 56.4761C33.8003 56.8207 33.9648 57.308 34.1713 57.8397C34.4419 58.7394 35.3954 61.4122 37.6286 63.0003C37.6286 63.0003 36.75 62.2146 36.6369 60.9991C36.7401 61.1424 36.8396 61.2702 36.9321 61.3793C37.3641 61.9187 38.2092 62.9159 39.0478 63.5599C39.0478 63.5599 38.281 62.5742 38.3684 62.3145C38.3684 62.3145 40.6312 64.2553 41.257 64.3691L40.2511 63.2389L40.2268 63.2047C43.2568 64.6417 47.0523 64.6765 51.3456 62.5701C52.0833 62.2075 52.8358 61.7823 53.6017 61.2893C54.0694 60.9744 54.5277 60.6387 54.9761 60.2777L55.0409 60.2239C55.3541 59.9681 55.6618 59.6989 55.9647 59.4189L55.9715 59.4127C56.199 59.2023 56.4226 58.9847 56.6425 58.7613C57.01 58.384 57.3707 57.9916 57.7154 57.574L57.7164 57.5733L57.7177 57.5716C57.7373 57.5465 57.7577 57.5217 57.7785 57.4963C58.1173 57.067 58.4284 56.6324 58.7112 56.1964C59.0849 55.6203 59.4093 55.0426 59.6937 54.4707L59.7149 54.4295C59.7841 54.2886 59.8516 54.1486 59.9167 54.0104L59.9348 53.97C59.9556 53.9229 59.9735 53.8784 59.9942 53.8318C60.0834 53.6333 60.1713 53.4348 60.2518 53.2391C60.2711 53.1922 60.291 53.1444 60.3103 53.0972C60.3516 52.9937 60.3909 52.8905 60.4304 52.7887C60.4596 52.7089 60.4899 52.6292 60.518 52.5505C60.5496 52.4646 60.5814 52.3784 60.6117 52.2932C60.6648 52.1388 60.7163 51.9857 60.7647 51.834C60.7837 51.7739 60.8014 51.7156 60.8198 51.6563C60.8563 51.5385 60.892 51.4221 60.9247 51.3074C60.9401 51.2539 60.9557 51.2004 60.9702 51.1473L60.9832 51.0972C61.0243 50.9526 61.0623 50.8094 61.099 50.6689L61.1051 50.6392C61.2935 50.3838 61.433 50.1485 61.5391 49.9283C61.5546 49.8971 61.5709 49.8652 61.5848 49.8343C61.8156 49.3195 61.8437 48.897 61.7819 48.534Z" fill="#FCE9C9"></path><path d="M17.9806 49.7527C17.9064 49.7921 17.8369 49.9132 17.7741 50.0724C17.7507 50.132 17.7287 50.1966 17.7073 50.2643C17.5519 50.7587 17.4527 51.4229 17.4527 51.4229C17.4307 51.2115 17.4132 50.991 17.3981 50.7689C17.3963 50.7431 17.3954 50.7177 17.3938 50.6916C17.379 50.4655 17.3682 50.2367 17.3597 50.0088C17.3583 49.9813 17.3576 49.9539 17.3566 49.9269C17.3484 49.6698 17.3425 49.414 17.3399 49.1665C17.3396 49.1342 17.3389 49.103 17.339 49.0711L17.3392 49.0547C17.339 49.0262 17.3385 48.9972 17.3383 48.9686C17.3377 48.926 17.3374 48.8833 17.3374 48.8411C17.3364 48.6448 17.3376 48.4546 17.3396 48.274C17.3415 48.1109 17.344 47.9563 17.347 47.8107L17.3478 47.7637C17.3478 47.7408 17.3488 47.72 17.3494 47.6981C17.35 47.6767 17.3503 47.6547 17.3505 47.6326L17.3507 47.6249C17.3518 47.5885 17.353 47.551 17.3539 47.5165L17.3543 47.5069C17.3547 47.4728 17.3558 47.4438 17.3566 47.4118C17.3584 47.3616 17.3595 47.3102 17.3611 47.2634L17.3616 47.2502C17.3629 47.2121 17.3636 47.1736 17.365 47.1388C17.3671 47.0886 17.3691 47.0425 17.37 46.9991L17.3702 46.9976L17.3706 46.9965C17.3714 46.9716 17.3725 46.9499 17.3734 46.9268L17.3737 46.9227C17.3747 46.9018 17.375 46.88 17.3761 46.8615C17.3781 46.8154 17.3799 46.7737 17.3815 46.7416L17.383 46.713L17.3837 46.7025L17.3853 46.6687L17.3864 46.6454L17.3869 46.642L17.3837 46.6456L17.3435 46.6986C17.308 46.7444 17.2713 46.7897 17.2391 46.8392L17.2042 46.8958C17.167 46.9572 17.1315 47.021 17.0999 47.0876L17.0825 47.1202C17.0434 47.2037 17.0087 47.2903 16.9765 47.3776L16.9766 47.3779L16.9725 47.3893L16.9723 47.3899L16.9599 47.4284C16.9527 47.4496 16.9461 47.4712 16.9395 47.4926C16.9216 47.5469 16.9026 47.5999 16.8877 47.6542L16.8867 47.6563L16.8862 47.658L16.8857 47.6624L16.8797 47.6829L16.8745 47.7032C16.8513 47.7889 16.8315 47.8734 16.8135 47.9566C16.7624 48.1904 16.7302 48.4101 16.7093 48.5925C16.7023 48.6573 16.6958 48.7186 16.6914 48.7725C16.6814 48.8895 16.6761 48.9806 16.6744 49.0251L16.6745 49.0288L16.673 49.0588L16.6694 49.0249C16.6607 48.9579 16.6561 48.8907 16.6491 48.824C16.6335 48.6837 16.6162 48.5432 16.6059 48.4031C16.5964 48.2851 16.5931 48.1686 16.588 48.0506C16.5866 48.0139 16.5854 47.9768 16.584 47.9403C16.5812 47.8861 16.5787 47.8319 16.5776 47.7777C16.576 47.7271 16.5778 47.6766 16.578 47.6268L16.5778 47.623L16.5778 47.6227L16.578 47.5669L16.5784 47.5516C16.5782 47.4907 16.5783 47.4286 16.5786 47.3675C16.5783 47.3439 16.5782 47.3203 16.5787 47.2965L16.5792 47.2542L16.5794 47.2463C16.5797 47.2263 16.5803 47.2058 16.5809 47.1861C16.5811 47.161 16.5834 47.1364 16.5841 47.1126C16.5874 47.0224 16.5926 46.9335 16.5969 46.8442L16.5976 46.8294C16.6007 46.7629 16.6028 46.6964 16.6074 46.6308L16.6074 46.6278L16.6082 46.6233L16.6097 46.6039C16.6191 46.4688 16.6326 46.3359 16.646 46.2019L16.6524 46.1283C16.6551 46.1036 16.6566 46.0777 16.6595 46.0527C16.6823 45.8353 16.7099 45.6197 16.7425 45.4079L16.7467 45.3812C16.7749 45.2012 16.8044 45.0237 16.8372 44.848L16.8408 44.828C16.856 44.7505 16.8726 44.6759 16.8874 44.5993L16.8902 44.5879C16.9135 44.4736 16.9362 44.3589 16.9611 44.2478L16.9612 44.2467L16.9611 44.2461L16.9617 44.2447L16.9642 44.2309C16.9713 44.2029 16.9869 44.1352 17.0124 44.0351L17.0129 44.0334L17.0163 44.02L17.0163 44.0197C17.0261 43.9803 17.0353 43.9421 17.0445 43.9023C17.0595 43.8388 17.075 43.776 17.0901 43.7136L17.1041 43.6587C17.0635 43.6456 17.0215 43.6349 16.9801 43.6231L16.9565 43.6163L16.9125 43.6036C16.6445 43.5316 16.3681 43.4855 16.0868 43.4662L16.0423 43.4636C15.8622 43.4526 15.6803 43.4525 15.4971 43.4652C15.391 43.4728 15.285 43.4828 15.1785 43.4983C15.09 43.511 15.0019 43.5264 14.9134 43.5448C14.7803 43.5726 14.6509 43.6085 14.5241 43.6469C14.4838 43.6598 14.4451 43.6744 14.4061 43.6871C14.3438 43.7088 14.2827 43.733 14.2212 43.7565C14.1975 43.7664 14.172 43.7744 14.1483 43.7845C14.1054 43.8023 14.0629 43.82 14.0209 43.8396C13.938 43.8771 13.8578 43.9169 13.7786 43.9591C13.7417 43.9788 13.7047 43.9961 13.669 44.0166C13.5626 44.0779 13.4587 44.1424 13.3583 44.2115C13.3183 44.2391 13.282 44.2691 13.2431 44.297C13.1977 44.3311 13.1532 44.3666 13.1087 44.401L13.0628 44.4366C13.0142 44.4767 12.9674 44.5186 12.921 44.5602C12.8778 44.599 12.8346 44.6398 12.7935 44.6809C12.7428 44.7299 12.6934 44.7791 12.646 44.8298C12.6169 44.8622 12.5896 44.8948 12.5605 44.9275C12.4843 45.0149 12.4135 45.1068 12.3444 45.2C12.3088 45.2483 12.2749 45.2971 12.2413 45.3464C12.1817 45.4326 12.124 45.5199 12.0717 45.6099L12.045 45.6552C12.0176 45.7039 11.993 45.7545 11.9684 45.8045L11.9643 45.8118L11.9612 45.8184C11.9443 45.852 11.9254 45.885 11.9092 45.919L11.9027 45.9325L11.8962 45.9459L11.8959 45.9471L11.8955 45.948C11.7958 46.162 11.715 46.3851 11.6514 46.6133C11.642 46.6461 11.6344 46.6794 11.6259 46.7126C11.5976 46.8237 11.5735 46.9365 11.554 47.0507C11.5464 47.096 11.5367 47.1402 11.5302 47.1858L11.5298 47.1864L11.5298 47.1867L11.5295 47.1876C11.5137 47.3029 11.5024 47.4188 11.4965 47.5375L11.4941 47.5815L11.4941 47.6368L11.4937 47.6418C11.4903 47.7273 11.4877 47.8127 11.4904 47.8985C11.4915 47.9408 11.4951 47.9834 11.4976 48.0259L11.498 48.0381C11.5009 48.0833 11.5048 48.1288 11.5087 48.1744C11.511 48.2085 11.5123 48.2434 11.5161 48.2781C11.5309 48.4114 11.5514 48.5447 11.5797 48.6786C11.6017 48.782 11.63 48.8823 11.6588 48.9828L11.6607 48.9885L11.673 49.0354C11.6891 49.0909 11.7092 49.1449 11.7281 49.1993C11.7964 49.3975 11.8752 49.5892 11.9698 49.771C12.0409 49.9099 12.1189 50.0434 12.2042 50.172C12.3605 50.4085 12.5403 50.6251 12.7366 50.8237C13.1499 51.2427 13.6427 51.5759 14.1873 51.7984C14.4961 51.9245 14.8211 52.0133 15.1563 52.065C15.4782 52.1154 15.8078 52.1342 16.143 52.1089C16.2184 52.1028 16.2941 52.0943 16.37 52.0856C16.4835 52.072 16.5961 52.0559 16.7098 52.0322C16.8146 52.0102 16.9145 51.9782 17.016 51.9489C17.0739 51.9324 17.1346 51.9205 17.1915 51.9015C17.3362 51.853 17.4763 51.7955 17.6129 51.733L17.644 51.7198C17.7008 51.6932 17.7522 51.661 17.8067 51.6323C17.9769 51.5436 18.1392 51.4447 18.2943 51.335L18.328 51.3118C18.3716 51.2827 18.4169 51.2541 18.4583 51.2221L18.4634 51.219C18.2954 50.7781 18.1451 50.3216 18.0108 49.8516C18.0015 49.8179 17.9907 49.7859 17.9806 49.7527Z" fill="#FCE9C9"></path><path d="M17.7792 49.8345C17.6334 50.6717 16.7395 52.2611 14.3302 51.9213" stroke="#674440"></path><path d="M28.8037 9.29102L28.8898 9.31631L28.8865 9.30604L28.8037 9.29102Z" fill="#4D94C3"></path><path d="M59.954 47.7601C59.944 47.7388 59.9352 47.7195 59.9269 47.7009C59.9042 47.6537 59.8874 47.6179 59.8755 47.5932C59.6684 47.1988 59.4441 46.9023 59.2551 46.6964C59.013 46.4302 58.8311 46.3104 58.8311 46.3104C58.8423 46.1986 58.8475 46.0907 58.8506 45.9847C58.8538 45.8461 58.8516 45.7115 58.843 45.5822C58.7769 44.6073 58.3829 43.9127 58.1003 43.5318C58.0552 43.4708 58.0137 43.419 57.9761 43.374C57.8484 43.5062 57.7185 43.6374 57.5885 43.7659C55.1178 46.2088 52.164 48.0317 48.816 49.2032C46.5088 50.0107 44.0163 50.5111 41.3593 50.6799L41.407 50.6846C41.407 50.6846 39.8812 51.1913 39.7368 52.7728L39.7663 52.7831L39.8249 53.8147C40.1254 55.1705 40.9084 55.9078 41.7022 56.2246C42.4926 56.3683 43.4235 56.4166 44.436 56.3547C46.1978 56.2474 48.1636 55.8219 50.1213 55.1249L50.1313 55.1214L50.1413 55.1182C52.7573 54.2574 56.2772 52.1176 58.6394 49.7628C59.1775 49.2263 59.6561 48.6794 60.0497 48.1328L60.0643 48.1121L60.0911 48.0745C60.0402 47.9522 59.9926 47.8446 59.954 47.7601Z" fill="white"></path><path d="M52.4078 35.714C50.7901 35.1003 50.5223 34.8465 50.2094 32.4181C50.0965 31.5436 49.9778 30.3888 49.7865 28.8289C49.7619 28.6258 49.7324 28.4342 49.7009 28.2463C49.6933 28.2014 49.6862 28.1576 49.678 28.1136C49.6463 27.9364 49.6122 27.7639 49.5744 27.5992L49.5639 27.5519L49.5504 27.5016C49.5187 27.3725 49.4858 27.2474 49.452 27.1261C49.4369 27.0728 49.4215 27.0194 49.406 26.967C49.3669 26.8379 49.3264 26.7129 49.2828 26.5931C49.2608 26.5319 49.2371 26.4735 49.214 26.4141C49.1882 26.3473 49.1617 26.2823 49.1348 26.2187C49.1084 26.1561 49.0817 26.0931 49.0539 26.0332L49.0533 26.0331L49.0537 26.0322C48.7893 25.7631 48.492 25.5338 48.16 25.3538L48.0956 25.3223L48.0827 25.3157L48.0341 25.2919L48.0176 25.2838C47.9701 25.2594 47.9206 25.2363 47.8721 25.2157C47.8198 25.1936 47.7679 25.172 47.7152 25.1524C47.2369 24.9714 46.7276 24.8966 46.201 24.9163C45.9102 24.9276 45.6142 24.9676 45.3157 25.0353C45.1769 25.0663 45.038 25.1051 44.8988 25.1485C44.5366 25.261 44.1721 25.411 43.8091 25.5999C43.6963 25.7129 43.5841 25.8281 43.4703 25.9432C43.3752 26.0399 43.2779 26.137 43.18 26.2337L43.133 26.2808C43.0343 26.3777 42.9339 26.4729 42.8332 26.5679L42.7824 26.6147C42.6805 26.7077 42.5781 26.799 42.4739 26.887L42.419 26.9324C42.3142 27.0203 42.2066 27.1041 42.0974 27.1854L42.0426 27.2248C41.9319 27.3053 41.8178 27.3824 41.7012 27.4532L41.6531 27.4826C41.5325 27.5541 41.4091 27.622 41.282 27.6822L41.2486 27.6969C41.1141 27.7596 40.9783 27.8152 40.8368 27.862C40.5991 27.9404 40.3576 27.9966 40.1129 28.0434C39.7145 28.1197 39.3083 28.162 38.8953 28.1773C38.7576 28.1821 38.618 28.1837 38.4787 28.1841C38.4292 28.1841 38.3802 28.1856 38.3311 28.1852C37.968 28.1825 37.6004 28.167 37.2296 28.1478C37.0738 28.1401 36.9182 28.1319 36.7618 28.1235C36.5104 28.1097 36.2571 28.0985 36.0037 28.0884C35.9535 28.0863 35.9047 28.0829 35.8541 28.0815C35.6523 28.1306 35.4514 28.1888 35.2507 28.2529L35.2071 28.2668C34.6256 28.4561 34.0527 28.7101 33.4986 29.0256C33.4678 29.043 33.4367 29.0589 33.4066 29.0768C33.3202 29.1269 33.2351 29.1801 33.1498 29.2336C33.0356 29.3055 32.9219 29.3793 32.8098 29.4563C32.0224 29.9953 31.2853 30.6661 30.633 31.4657C30.3687 31.7896 30.1277 32.1256 29.9073 32.4686C29.5693 32.9958 29.2855 33.5431 29.0516 34.1007C29.0386 34.132 29.0259 34.1629 29.0137 34.1941C28.8898 34.4967 28.7815 34.8019 28.6894 35.109C28.656 35.2187 28.6221 35.3287 28.5931 35.4387L28.587 35.4602C28.4929 35.8191 28.4205 36.1794 28.3674 36.5394C28.3646 36.5609 28.3626 36.5822 28.3605 36.6033C28.3531 36.6556 28.3497 36.7074 28.3434 36.7592C28.323 36.9255 28.307 37.0921 28.2946 37.2577C28.2831 37.4294 28.2738 37.6013 28.2716 37.7718C28.2716 37.8083 28.2704 37.8453 28.271 37.8819C28.2708 37.9859 28.2714 38.0898 28.2744 38.1932C28.2873 38.5733 28.3254 38.9478 28.3859 39.3157C28.4005 39.4082 28.4144 39.5017 28.4325 39.5928C28.7117 40.1656 29.0542 40.6646 29.4318 41.1055C30.8703 42.7816 32.8684 43.5714 34.2767 43.9327C34.8222 44.0609 35.3853 44.1613 35.9645 44.2336L35.9828 44.2547L35.9834 44.2548L35.9856 44.2533L36.0157 44.2197C36.0755 44.1535 36.1353 44.0874 36.1976 44.0213C36.2191 43.9969 36.2417 43.9736 36.264 43.9499C36.3273 43.8825 36.3926 43.8137 36.4597 43.7457C36.4821 43.723 36.505 43.6999 36.5282 43.6768C36.5955 43.6084 36.6647 43.5389 36.7357 43.4704C36.7592 43.4472 36.783 43.4248 36.8071 43.4018C36.8787 43.3323 36.9518 43.2629 37.027 43.1933C37.0521 43.1704 37.0764 43.1476 37.1013 43.125C37.178 43.0557 37.2548 42.9864 37.3327 42.9166C37.3596 42.8931 37.387 42.8692 37.4138 42.8451C37.4926 42.7773 37.5723 42.7083 37.6544 42.6391C37.6842 42.615 37.7136 42.5902 37.7432 42.5653C37.8237 42.4975 37.9064 42.4303 37.9907 42.3629C38.0238 42.3363 38.0572 42.3094 38.0914 42.2828C38.1744 42.2167 38.2587 42.1509 38.3445 42.0853C38.3812 42.0575 38.4179 42.0294 38.4551 42.0013C38.5405 41.9366 38.6272 41.8722 38.7143 41.808C38.7558 41.7777 38.7981 41.7478 38.8398 41.7174C38.9257 41.6554 39.0129 41.5934 39.1017 41.5313C39.1476 41.4985 39.196 41.4663 39.2435 41.4335C39.3296 41.3742 39.4173 41.3145 39.507 41.2553C39.5591 41.2197 39.6133 41.1846 39.6664 41.1499C39.753 41.0932 39.8409 41.0365 39.9302 40.9792C39.9896 40.9417 40.0503 40.904 40.1105 40.8661C40.1971 40.8124 40.2839 40.7583 40.3726 40.7045C40.4391 40.6638 40.5069 40.6231 40.5738 40.5836C40.6601 40.5324 40.7453 40.4814 40.8335 40.4304C40.908 40.3876 40.9838 40.3446 41.0593 40.3016C41.1439 40.2534 41.2288 40.2047 41.3153 40.1578C41.3981 40.1115 41.4822 40.0664 41.5663 40.0211C41.6493 39.9759 41.7319 39.9311 41.8164 39.8865C41.9087 39.8374 42.0029 39.789 42.098 39.74C42.1773 39.6999 42.2566 39.6581 42.3378 39.6176C42.4402 39.5656 42.5455 39.5143 42.6497 39.463C42.7024 39.4377 42.7527 39.4109 42.8055 39.3863C43.0335 38.2234 43.8088 35.3003 45.9405 34.5983C46.1694 34.5205 46.3793 34.4685 46.5799 34.4289C46.63 34.419 46.6833 34.4052 46.7313 34.3973C46.677 34.2463 46.6267 34.0878 46.585 33.9211C46.3006 32.777 46.4767 31.749 46.9779 31.6239C47.3647 31.5187 47.7839 32.0339 47.8748 32.2246C48.0896 32.5484 48.2781 32.9781 48.4014 33.4709C48.5133 33.9212 48.5497 34.3494 48.5283 34.716C48.5809 34.7532 48.6267 34.797 48.6754 34.8379C49.2923 35.366 49.5379 36.2124 49.6314 36.827C49.8224 36.7709 50.0191 36.7165 50.2158 36.6621C50.2657 36.6479 50.3148 36.6338 50.3657 36.6194L50.3967 36.6106C50.4251 36.6023 50.4538 36.5954 50.482 36.5876C50.7254 36.521 50.972 36.4551 51.2224 36.3895L51.2336 36.3869C51.8009 36.2396 52.3848 36.0955 52.9889 35.9558C52.629 35.7823 52.4078 35.714 52.4078 35.714Z" fill="#F1BA82"></path><path d="M60.9343 50.8816C60.1367 51.9122 59.2628 52.783 58.3715 53.5175C57.9264 53.8834 57.4778 54.2127 57.0319 54.5142C56.0407 55.1857 55.0666 55.7056 54.1962 56.0981C52.2752 56.9641 50.8561 57.2301 50.8561 57.2301C52.0703 57.6333 53.4644 57.379 54.402 57.1041C55.0473 56.9159 55.4784 56.7183 55.4784 56.7183C55.5333 57.1262 55.5521 57.5073 55.5448 57.8677C55.5366 58.2666 55.4923 58.6359 55.4208 58.9794L55.4157 59.0086L55.415 59.0107C55.3248 59.4358 55.1921 59.8188 55.0292 60.165C55.0114 60.2023 54.9948 60.2419 54.9765 60.2782L55.0414 60.2245C55.3545 59.9687 55.6622 59.6995 55.9652 59.4194L55.9719 59.4133C56.1994 59.2028 56.4231 58.9853 56.643 58.7618C57.0105 58.3845 57.3711 57.9922 57.7159 57.5745L57.7168 57.5738L57.7182 57.5722C57.7377 57.5471 57.7581 57.5223 57.779 57.4969C58.1177 57.0675 58.4289 56.633 58.7117 56.197C59.0854 55.6209 59.4098 55.0432 59.6941 54.4713L59.7153 54.43C59.7845 54.2892 59.8521 54.1492 59.9172 54.011L59.9352 53.9706C59.9561 53.9234 59.9739 53.879 59.9946 53.8324C60.0839 53.6339 60.1717 53.4354 60.2522 53.2396C60.2715 53.1927 60.2915 53.1449 60.3107 53.0978C60.3521 52.9942 60.3913 52.8911 60.4308 52.7893C60.4601 52.7095 60.4904 52.6298 60.5184 52.5511C60.55 52.4652 60.5818 52.3789 60.6122 52.2938C60.6653 52.1393 60.7167 51.9863 60.7652 51.8346C60.7842 51.7744 60.8019 51.7161 60.8202 51.6569C60.8567 51.539 60.8924 51.4227 60.9252 51.308C60.9405 51.2545 60.9561 51.2009 60.9707 51.1478L60.9837 51.0978C61.0247 50.9532 61.0628 50.81 61.0994 50.6695C61.0444 50.7421 60.9893 50.8115 60.9343 50.8816Z" fill="#EFB87F"></path><path d="M34.977 44.7637C34.7229 44.9056 34.4443 45.0714 34.1533 45.2607C33.3772 45.7662 32.5151 46.44 31.797 47.2823C31.707 47.3876 31.6196 47.4954 31.5345 47.6057C31.3901 47.7944 31.2557 47.9917 31.1292 48.1958C31.1147 48.219 31.0988 48.2415 31.0851 48.2648C31.0659 48.2961 31.0475 48.3284 31.0289 48.3599C30.982 48.4413 30.936 48.5242 30.8917 48.6082C30.8741 48.6419 30.8567 48.6754 30.839 48.7092C30.7818 48.8239 30.7266 48.9395 30.6761 49.0584C30.6265 49.1749 30.5802 49.2943 30.5379 49.4146C30.1999 50.3833 30.1112 51.4841 30.4317 52.7172L30.432 52.7038L30.4318 52.6943C30.4318 52.6826 30.432 52.6662 30.4323 52.646L30.433 52.6353C30.4332 52.6156 30.4345 52.5922 30.4357 52.5664L30.4362 52.5503C30.4378 52.5206 30.4398 52.4865 30.4424 52.4492L30.4444 52.4249C30.4476 52.3851 30.4512 52.342 30.4556 52.2952L30.4561 52.2948C30.4603 52.2488 30.467 52.1988 30.4732 52.1473L30.4776 52.1157C30.4847 52.0632 30.4929 52.0081 30.5027 51.951L30.5082 51.9236C30.5169 51.8697 30.5275 51.8141 30.5396 51.7566L30.5452 51.7299C30.5581 51.6679 30.5733 51.6036 30.5891 51.538L30.5997 51.4971C30.6174 51.4298 30.6354 51.3617 30.657 51.2921L30.657 51.2918C30.6578 51.2889 30.6589 51.2863 30.6598 51.2836C30.6916 51.1797 30.7293 51.0728 30.7706 50.9646C30.7861 50.9236 30.8009 50.883 30.8187 50.8416L30.8319 50.8073L30.8323 50.8064C30.8689 50.7209 30.9081 50.6349 30.9516 50.5489C30.987 50.4786 31.0253 50.4083 31.0652 50.338C31.0777 50.3161 31.0916 50.2939 31.1051 50.2718C31.1376 50.2181 31.1716 50.1641 31.2073 50.1106C31.2221 50.0891 31.2365 50.067 31.2513 50.0458C31.3007 49.9753 31.352 49.9058 31.4073 49.8375L31.4119 49.8312C31.4119 49.8312 30.7546 52.6182 31.6305 54.5673C31.6305 54.5673 31.6288 54.5611 31.6267 54.5503L31.6244 54.5376C31.6217 54.5264 31.6193 54.5133 31.6161 54.4959C31.6154 54.4925 31.6147 54.4886 31.6137 54.4849C31.6101 54.4638 31.6055 54.4396 31.6012 54.4105C31.6005 54.4068 31.5999 54.4034 31.5996 54.3991C31.594 54.3688 31.5898 54.3348 31.5843 54.2969C31.5837 54.2935 31.5835 54.2894 31.5829 54.286C31.5777 54.2469 31.5722 54.2041 31.5672 54.1585C31.5664 54.1543 31.5661 54.1508 31.5659 54.1471C31.561 54.1003 31.5559 54.0512 31.5521 53.9988C31.5519 53.9948 31.5516 53.9905 31.5513 53.9859C31.5468 53.9337 31.5442 53.8792 31.5414 53.8217C31.541 53.8166 31.5411 53.8114 31.5407 53.8064C31.5383 53.7456 31.5365 53.6822 31.5366 53.6166L31.5364 53.6011L31.5365 53.5681L31.5362 53.5668C31.5369 53.4929 31.5399 53.417 31.545 53.3395C31.5454 53.3346 31.5455 53.3294 31.5457 53.3242C31.5517 53.2485 31.5588 53.1717 31.5683 53.094C31.5714 53.07 31.5742 53.0467 31.5773 53.0227L31.5843 52.9729L31.5842 52.9721C31.5945 52.9078 31.6069 52.8432 31.6213 52.7785L31.6234 52.768L31.6236 52.7674C31.6434 52.6769 31.6698 52.5878 31.6989 52.4988C31.7062 52.4754 31.7149 52.4518 31.7234 52.4287C31.7556 52.3402 31.7904 52.2528 31.8329 52.1684L31.8346 52.1643L31.8349 52.1642C31.8349 52.1642 31.888 52.8103 32.0456 53.5616C32.0709 53.6796 32.0992 53.8006 32.1298 53.922C32.1498 54.0029 32.1704 54.0843 32.1934 54.1649C32.0923 53.3449 32.0982 52.5558 32.1813 51.8053C32.205 51.5984 32.2352 51.3954 32.2698 51.1943C32.2745 51.1654 32.2789 51.1365 32.2841 51.1075C32.3182 50.9172 32.3572 50.7308 32.3998 50.5464C32.4083 50.5119 32.4166 50.4774 32.4246 50.443C32.4692 50.2605 32.517 50.0806 32.5692 49.904C32.578 49.8765 32.586 49.8497 32.5943 49.8225C32.7062 49.4535 32.8339 49.0984 32.9721 48.7593C32.9824 48.7343 32.9922 48.7096 33.0023 48.6848C33.0553 48.5576 33.1109 48.4342 33.1667 48.3117C33.1811 48.2793 33.1946 48.2452 33.2093 48.2134C33.2232 48.1844 33.2359 48.1559 33.2496 48.1272C33.3214 47.9755 33.3942 47.8272 33.4688 47.6829C33.4808 47.6599 33.4926 47.6373 33.5045 47.6149C33.5824 47.4665 33.6607 47.3212 33.7405 47.1816L33.7448 47.174C33.8452 46.9977 33.9467 46.8282 34.0481 46.6658C34.1228 46.5468 34.1972 46.4319 34.2714 46.3206C34.2993 46.279 34.3285 46.2373 34.3574 46.1949C34.5354 45.9325 34.71 45.6941 34.8744 45.481C35.3673 44.8408 35.7671 44.4276 35.9075 44.2889C35.8155 44.3311 35.708 44.3822 35.5894 44.4411C35.4097 44.5299 35.2033 44.6373 34.977 44.7637Z" fill="#EFCFA5"></path><path d="M49.0469 36.2369C49.0469 36.2369 49.0283 36.1724 48.9864 36.0776C48.8236 35.7185 48.2859 34.8999 46.8473 35.3141C45.3435 35.7475 45.0599 37.0792 45.0065 37.525C44.9957 37.6174 44.9941 37.6746 44.9941 37.6746L45.0423 37.7023C45.2057 37.5012 45.5799 37.4514 45.9556 37.6021C46.1274 37.671 46.2727 37.7712 46.3806 37.8853L46.3807 37.8858C46.5473 38.061 46.6235 38.2692 46.5617 38.446C46.5487 38.4838 46.5296 38.5173 46.5062 38.5481C46.5062 38.5481 46.5694 38.5597 46.6742 38.57C47.1232 38.6161 48.3494 38.6433 48.8341 37.6995C48.8574 37.654 48.8819 37.6113 48.9018 37.5619C48.7641 37.5212 48.6594 37.3499 48.6183 37.1314C48.5976 37.0264 48.5911 36.9111 48.6041 36.7924C48.6441 36.4265 48.8429 36.1776 49.0469 36.2369Z" fill="#EFCFA5"></path><path d="M43.556 48.9032C42.603 49.2926 41.7647 49.6067 41.1127 49.8406C41.1514 49.8382 41.1872 49.8362 41.2276 49.8338C42.3779 49.7636 44.1996 49.5983 46.34 49.0621C50.2339 48.0869 55.1866 45.8797 59.1017 40.7561L59.1115 40.7371L59.1101 40.7298C59.0595 40.3712 58.892 39.738 58.3495 39.3224C58.2548 39.2497 58.1479 39.1842 58.0294 39.1271C58.0099 39.1201 57.9914 39.1116 57.9714 39.1047C57.8348 39.0586 57.7139 39.0088 57.6008 38.9583C57.5076 38.9215 57.4193 38.8841 57.3399 38.8453L57.3268 38.8323C57.1152 39.3024 56.8537 39.7609 56.5485 40.2079C56.4402 40.3658 56.3229 40.5206 56.2046 40.6755C55.1242 42.0879 53.6279 43.3755 51.9662 44.5162C49.2047 46.4115 46.0015 47.9047 43.556 48.9032Z" fill="#EFCFA5"></path><path d="M17.3442 46.6971C17.3087 46.7429 17.2719 46.7881 17.2398 46.8377L17.2049 46.8943C17.1677 46.9557 17.1322 47.0194 17.1005 47.0861L17.0832 47.1187C17.0441 47.2022 17.0093 47.2887 16.9772 47.3761L16.9773 47.3764L16.9731 47.3878L16.973 47.3883L16.9606 47.4269C16.9534 47.4481 16.9468 47.4697 16.9402 47.4911C16.9222 47.5453 16.9033 47.5984 16.8884 47.6526L16.8874 47.6547L16.8869 47.6565L16.8864 47.6609L16.8804 47.6814L16.8752 47.7016C16.852 47.7874 16.8321 47.8719 16.8142 47.955C16.7631 48.1889 16.7309 48.4085 16.71 48.591C16.703 48.6557 16.6965 48.7171 16.6921 48.771C16.6821 48.888 16.6768 48.9791 16.675 49.0235L16.6752 49.0273L16.6737 49.0573L16.6701 49.0234C16.6614 48.9564 16.6568 48.8892 16.6497 48.8225C16.6342 48.6822 16.6169 48.5417 16.6065 48.4015C16.597 48.2835 16.5938 48.1671 16.5887 48.0491C16.5872 48.0124 16.586 47.9753 16.5847 47.9388C16.5819 47.8846 16.5794 47.8304 16.5783 47.7761C16.5767 47.7255 16.5785 47.6751 16.5787 47.6253L16.5785 47.6215L16.5785 47.6212L16.5787 47.5654L16.5791 47.5501C16.5789 47.4891 16.579 47.427 16.5793 47.366C16.5789 47.3424 16.5789 47.3187 16.5793 47.295L16.5799 47.2527L16.58 47.2447C16.5804 47.2248 16.5809 47.2043 16.5816 47.1846C16.5818 47.1595 16.584 47.1348 16.5848 47.111C16.5881 47.0209 16.5932 46.932 16.5975 46.8427L16.5983 46.8279C16.6014 46.7614 16.6034 46.6949 16.608 46.6292L16.608 46.6263L16.6088 46.6217L16.6104 46.6024C16.6197 46.4673 16.6333 46.3344 16.6467 46.2004L16.6531 46.1268C16.6558 46.1021 16.6572 46.0762 16.6602 46.0512C16.683 45.8338 16.7106 45.6182 16.7431 45.4063L16.7474 45.3797C16.7756 45.1997 16.8051 45.0221 16.8379 44.8464L16.8415 44.8264C16.8567 44.749 16.8732 44.6743 16.8881 44.5978L16.8909 44.5864C16.9142 44.4721 16.9368 44.3573 16.9618 44.2462L16.9619 44.2451L16.9618 44.2446L16.9623 44.2431L16.9649 44.2293C16.9719 44.2013 16.9876 44.1336 17.013 44.0336L17.0135 44.0319L17.017 44.0184L17.017 44.0182C17.0268 43.9788 17.036 43.9406 17.0451 43.9008C17.0602 43.8373 17.0757 43.7745 17.0907 43.7121L17.1047 43.6572C17.0642 43.6441 17.0222 43.6334 16.9808 43.6215L16.9572 43.6148L16.9131 43.602C16.6452 43.5301 16.3688 43.484 16.0875 43.4646L16.0429 43.4621C15.8629 43.4511 15.681 43.451 15.4977 43.4637C15.3916 43.4712 15.2857 43.4812 15.1792 43.4968C15.0906 43.5095 15.0026 43.5248 14.914 43.5433C14.7809 43.5711 14.6515 43.607 14.5248 43.6453C14.4842 43.6581 14.4458 43.6729 14.4068 43.6856C14.3444 43.7073 14.2834 43.7315 14.2219 43.7549C14.1981 43.7648 14.1727 43.7728 14.149 43.783C14.106 43.8008 14.0636 43.8185 14.0215 43.8381C13.9387 43.8756 13.8585 43.9153 13.7793 43.9576C13.7424 43.9773 13.7053 43.9946 13.6697 44.0151C13.5633 44.0763 13.4594 44.1409 13.359 44.21C13.319 44.2376 13.2827 44.2675 13.2438 44.2957C13.1984 44.3295 13.1539 44.3651 13.1094 44.3995L13.0635 44.435C13.0149 44.4751 12.968 44.5171 12.9216 44.5587C12.8785 44.5975 12.8352 44.6382 12.7942 44.6794C12.7434 44.7283 12.6941 44.7775 12.6467 44.8283C12.6176 44.8607 12.5902 44.8933 12.5612 44.9259C12.485 45.0134 12.4142 45.1053 12.3451 45.1985C12.3094 45.2468 12.2755 45.2956 12.242 45.3448C12.1824 45.4311 12.1252 45.5182 12.0724 45.6084L12.0457 45.6537C12.0183 45.7023 11.9937 45.7529 11.969 45.803L11.965 45.8103L11.9618 45.8169C11.945 45.8505 11.9261 45.8834 11.9099 45.9177L11.9034 45.9309L11.8969 45.9444L11.8966 45.9455L11.8962 45.9464C11.7967 46.1613 11.7158 46.3841 11.6523 46.6129C11.6429 46.6454 11.6351 46.6781 11.6271 46.7109C11.5983 46.8222 11.5747 46.9349 11.5547 47.0492C11.547 47.0944 11.5373 47.1387 11.5309 47.1843L11.5305 47.1849L11.5305 47.1852C11.5438 47.2113 11.5579 47.2356 11.5714 47.2611C11.6183 47.3506 11.6652 47.4371 11.7132 47.5207L11.7297 47.5495L11.7473 47.5783C11.7974 47.6642 11.8478 47.746 11.8988 47.8255C12.0542 48.0689 12.2102 48.2832 12.3601 48.4708C12.3826 48.4981 12.4052 48.5271 12.4269 48.5533L12.4429 48.5729L12.4632 48.5961C12.5746 48.7291 12.6809 48.845 12.7784 48.9458C12.9335 49.1057 13.0654 49.2248 13.1584 49.3044C13.1787 49.3215 13.1961 49.3357 13.212 49.3494C13.2258 49.3607 13.2383 49.3709 13.25 49.3796C13.2848 49.4074 13.3063 49.423 13.3063 49.4232C13.2865 49.3785 13.2724 49.3335 13.2538 49.2879C13.1227 48.9648 13.0253 48.6397 12.956 48.3165L12.9521 48.2974L12.9443 48.2599C12.9018 48.0525 12.8665 47.8457 12.8456 47.6422L12.8459 47.6422C12.8816 47.7152 12.9184 47.7854 12.9553 47.8547C13.011 47.9592 13.0672 48.0606 13.1239 48.1575L13.1438 48.1925L13.1516 48.2049C13.3982 48.6175 13.6542 48.9551 13.8849 49.2227C14.1608 49.5432 14.3996 49.7622 14.5399 49.8808C14.5683 49.9046 14.5922 49.9246 14.6122 49.9402C14.6516 49.9718 14.6731 49.9877 14.6731 49.9877C14.5238 49.6461 14.4162 49.3012 14.3385 48.9581C14.312 48.8424 14.286 48.7267 14.2669 48.6124C14.2417 48.466 14.2225 48.3207 14.2079 48.1767C14.3168 48.4074 14.4318 48.6181 14.5494 48.815L14.558 48.8302C14.9806 49.5383 15.4314 50.0328 15.7324 50.3196L15.7665 50.3511C15.8191 50.3995 15.8643 50.4401 15.9051 50.4765C15.933 50.5007 15.9598 50.5243 15.9817 50.5414C16.0101 50.5653 16.0314 50.5828 16.0485 50.5957C16.0698 50.6124 16.083 50.623 16.083 50.623L16.064 50.5751C16.0439 50.5271 16.0244 50.4796 16.0054 50.432C15.9376 50.2601 15.8819 50.087 15.8324 49.915C15.7992 49.8 15.7666 49.685 15.7409 49.5706C15.7161 49.4614 15.6964 49.3529 15.6778 49.2445C15.6747 49.225 15.6719 49.2054 15.6685 49.1858C15.6599 49.1295 15.6508 49.0732 15.6433 49.0172L15.639 48.9826L15.6365 48.9575C15.6186 48.8135 15.6047 48.6702 15.5965 48.5289C15.6407 48.6156 15.6861 48.6997 15.7316 48.7802C15.766 48.8418 15.8008 48.8998 15.8357 48.9584L15.8431 48.9703L15.8548 48.9907L15.8759 49.0265C15.9183 49.0965 15.961 49.1631 16.004 49.2291C16.0855 49.3519 16.1656 49.4673 16.2457 49.5746C16.3431 49.7069 16.4397 49.8277 16.5318 49.9376C16.585 49.9993 16.6356 50.0574 16.6853 50.1126C16.7481 50.182 16.8086 50.2464 16.8657 50.3043C16.9181 50.3577 16.9663 50.4042 17.012 50.4479C17.0235 50.4586 17.0354 50.4697 17.0463 50.4802C17.0888 50.5199 17.1293 50.5572 17.1647 50.5882C17.1915 50.6118 17.2161 50.6328 17.2383 50.6515C17.2961 50.7 17.3366 50.7314 17.3546 50.7449L17.365 50.7525L17.3988 50.7674C17.397 50.7416 17.3961 50.7162 17.3944 50.6901C17.3797 50.4639 17.3689 50.2351 17.3603 50.0073C17.359 49.9797 17.3583 49.9524 17.3573 49.9254C17.349 49.6683 17.3432 49.4124 17.3406 49.165C17.3402 49.1326 17.3396 49.1014 17.3396 49.0696L17.3398 49.0532C17.3397 49.0247 17.3392 48.9956 17.339 48.9671C17.3384 48.9245 17.338 48.8818 17.3381 48.8396C17.3371 48.6433 17.3383 48.453 17.3403 48.2725C17.3422 48.1093 17.3446 47.9548 17.3477 47.8092L17.3484 47.7622C17.3485 47.7393 17.3495 47.7184 17.3501 47.6966C17.3507 47.6752 17.3509 47.6531 17.3512 47.631L17.3514 47.6234C17.3525 47.587 17.3536 47.5495 17.3545 47.515L17.3549 47.5054C17.3554 47.4713 17.3565 47.4422 17.3573 47.4102C17.3591 47.3601 17.3601 47.3087 17.3617 47.2619L17.3623 47.2487C17.3636 47.2106 17.3643 47.1721 17.3657 47.1373C17.3678 47.0871 17.3698 47.041 17.3706 46.9975L17.3709 46.9961L17.3712 46.995C17.372 46.97 17.3732 46.9483 17.374 46.9253L17.3743 46.9212C17.3753 46.9003 17.3756 46.8785 17.3768 46.86C17.3788 46.8139 17.3806 46.7722 17.3822 46.74L17.3837 46.7115L17.3844 46.701L17.386 46.6672L17.3871 46.6439L17.3876 46.6405L17.3844 46.6441L17.3442 46.6971Z" fill="#F1BA82"></path><path d="M51.2753 51.75C51.6227 51.5523 51.9268 51.388 52.1573 51.2317C52.6203 50.9237 52.8635 50.7289 52.8367 50.6786C52.8094 50.6274 52.5135 50.7251 52.0018 50.9455C51.746 51.0581 51.4321 51.173 51.075 51.3262C50.8981 51.4052 50.6983 51.469 50.4939 51.5496C50.2873 51.6265 50.0714 51.7153 49.8389 51.7851C49.3833 51.9387 48.8593 52.0992 48.3032 52.2713C48.0274 52.3465 47.7428 52.4244 47.45 52.5038C47.1527 52.5748 46.8473 52.6476 46.5337 52.7222C45.2763 52.9953 43.8699 53.1985 42.401 53.2025C41.6276 53.2105 40.5632 53.0572 39.767 52.7829L39.7376 52.7726C39.882 51.1911 41.4078 50.6844 41.4078 50.6844L41.3601 50.6797C41.3335 50.6814 41.3067 50.6837 41.2795 50.6855C41.0465 50.6999 40.8412 50.7099 40.6651 50.7188C40.5395 50.7254 40.4292 50.7307 40.3363 50.7363C40.247 50.7419 40.1834 50.7469 40.1467 50.7513C39.1913 50.8627 38.8236 51.758 38.7096 52.1375C38.6935 52.1923 38.6796 52.2479 38.6657 52.3047C38.5874 52.6405 38.5638 53.0154 38.6102 53.3981C38.6954 54.1128 39.0219 54.854 39.6861 55.413C40.1298 55.7907 40.8309 56.0659 41.703 56.2244C40.9092 55.9076 40.1261 55.1702 39.8257 53.8144C40.6943 54.0099 41.6707 54.0465 42.3979 54.0403C43.9572 54.0367 45.4183 53.7982 46.7108 53.4739C47.0324 53.3856 47.3459 53.3023 47.6489 53.2136C47.9505 53.1156 48.2434 53.0209 48.5273 52.929C49.0753 52.7279 49.5801 52.5381 50.0502 52.3385C50.2861 52.2471 50.5003 52.1377 50.704 52.0392C50.907 51.9368 51.1019 51.852 51.2753 51.75Z" fill="#EFCFA5"></path><path d="M46.7433 34.4019C47.5342 34.2733 48.1156 34.4233 48.5402 34.7205C48.5615 34.3537 48.5257 33.9254 48.4128 33.4753C48.2896 32.9828 48.1015 32.553 47.8866 32.2286C47.7964 32.0383 47.3766 31.523 46.9895 31.6279C46.4881 31.7534 46.3131 32.7815 46.5974 33.9253C46.6387 34.0923 46.6884 34.2507 46.7433 34.4019Z" fill="#59473D"></path><path d="M48.6297 37.136C48.6714 37.3547 48.7757 37.5258 48.9131 37.5665C49.1191 37.6255 49.3155 37.376 49.3552 37.0098C49.3593 36.9777 49.3592 36.9465 49.3608 36.9154L49.3606 36.9146C49.3686 36.5873 49.2437 36.2954 49.0581 36.2419C48.8539 36.182 48.6555 36.4314 48.6156 36.7967C48.6028 36.9159 48.6095 37.0309 48.6297 37.136Z" fill="#59473D"></path><path d="M45.1582 38.3622C45.267 38.4827 45.4175 38.5904 45.5974 38.663C45.9777 38.8152 46.3588 38.7628 46.5179 38.5535C46.5416 38.5229 46.5605 38.4886 46.5734 38.4511C46.6354 38.2743 46.5592 38.0661 46.3931 37.8905L46.3924 37.8901C46.2847 37.7766 46.1394 37.6761 45.9675 37.6071C45.5918 37.4565 45.2175 37.506 45.0543 37.7077C45.0276 37.741 45.0046 37.7768 44.9905 37.8178C44.9315 37.9889 45.0026 38.1893 45.1582 38.362L45.1582 38.3622Z" fill="#59473D"></path><path d="M59.1102 40.7382L59.1089 40.7314L59.0936 40.7659C59.0961 40.7625 59.0989 40.7597 59.1014 40.7564L59.1102 40.7382Z" fill="#59473D"></path><path d="M60.066 48.1142L60.0513 48.1347C59.6577 48.6812 59.1787 49.2285 58.6411 49.7649C56.2789 52.1197 52.759 54.2595 50.1424 55.1201L50.1324 55.1236L50.1224 55.1271C48.1648 55.8243 46.1989 56.2496 44.4371 56.3569C43.4246 56.4185 42.4942 56.3704 41.7033 56.2265C40.8318 56.068 40.1307 55.793 39.6865 55.4154C39.0222 54.8565 38.6958 54.1152 38.6108 53.4005C38.5647 53.0177 38.5883 52.6426 38.6666 52.307C38.68 52.2503 38.6943 52.1943 38.7103 52.1399C38.8245 51.7603 39.1917 50.8651 40.1475 50.7534C40.1838 50.7496 40.2478 50.7439 40.3367 50.7388C40.4295 50.7329 40.5401 50.7275 40.666 50.7211C40.8416 50.7123 41.0473 50.7019 41.2804 50.6875C41.3076 50.686 41.3338 50.6838 41.3604 50.6818C44.0174 50.513 46.51 50.0129 48.8172 49.2054C52.1651 48.0338 55.1194 46.2106 57.5896 43.7681C57.7202 43.6392 57.8495 43.5084 57.9772 43.3759L59.0945 40.7682C55.1813 45.8844 50.2325 48.0892 46.3404 49.064C44.2001 49.6005 42.3784 49.7658 41.2286 49.8359C41.1877 49.8384 41.1524 49.8404 41.1131 49.8425C40.7679 49.8626 40.4857 49.875 40.2849 49.8869C40.1845 49.8929 40.1037 49.8992 40.0436 49.9064C39.745 49.9414 39.4711 50.0304 39.2245 50.1614C38.72 50.4289 38.3298 50.876 38.0755 51.4197C37.7611 52.0901 37.6544 52.9054 37.7926 53.7114C37.908 54.3744 38.1895 55.0293 38.6616 55.5899C38.6802 55.6125 38.6985 55.6358 38.7182 55.6585C38.7721 55.7195 38.8289 55.7788 38.8873 55.8368C38.9667 55.9162 39.0489 55.9939 39.1374 56.068C40.1518 56.9307 42.0669 57.356 44.4886 57.2085C46.1271 57.1087 47.9982 56.7428 49.9774 56.0766C55.7656 53.8757 58.2519 51.4085 59.3132 49.8033C59.3907 49.6862 59.4611 49.5732 59.5243 49.4656C59.8941 48.8339 60.0283 48.3761 60.0719 48.1809L60.0781 48.1542C60.0891 48.1037 60.0924 48.0775 60.0924 48.0764L60.066 48.1142Z" fill="#59473D"></path><path d="M37.1248 30.8995C36.9167 30.8319 36.6968 30.797 36.4791 30.7843C36.3352 30.776 36.1923 30.7777 36.0526 30.7861C36.0001 30.7893 35.9482 30.7941 35.8962 30.7995C35.1835 30.8691 34.5993 31.1009 34.5993 31.1009C34.4749 31.1549 34.3565 31.2118 34.2429 31.2711C33.3444 31.7378 32.7739 32.3576 32.4173 33.0165C32.1286 33.5495 31.9806 34.1082 31.9173 34.6323C31.9115 34.6785 31.9073 34.7242 31.903 34.7697C31.8907 34.9051 31.8824 35.037 31.8787 35.1659C31.8685 35.5987 31.9063 35.9891 31.9533 36.2947C32.019 36.7125 32.1014 36.9742 32.1014 36.9742C32.1991 36.5803 32.3105 36.2149 32.4312 35.8698C32.7306 35.0142 33.0955 34.3018 33.4882 33.7108C34.2535 32.5597 35.1223 31.8653 35.8197 31.4556C36.5729 31.0128 37.1248 30.8995 37.1248 30.8995Z" fill="#674440"></path><path d="M48.2489 27.4183L48.2093 27.3821C48.0767 27.267 47.9255 27.1656 47.7526 27.0896C47.3445 26.9082 46.821 26.8718 46.1555 27.1427C46.1555 27.1427 45.3702 27.4902 44.9903 28.1172C44.9903 28.1172 46.3078 27.2384 48.0245 28.0329C48.1809 28.1052 48.3408 28.193 48.503 28.2952C48.6687 28.3996 48.8365 28.5185 49.0078 28.6572C49.0078 28.6572 48.8243 28.0082 48.3419 27.5095C48.3126 27.478 48.2811 27.4476 48.2489 27.4183Z" fill="#674440"></path><path d="M39.0016 39.9929C39.5186 39.7208 40.0838 39.4533 40.6935 39.1904C40.7117 38.6741 40.6245 38.0554 40.4238 37.4148C39.9557 35.912 39.0426 34.8643 38.3853 35.0731C37.7272 35.2819 37.5749 36.6692 38.0433 38.1711C38.2793 38.9276 38.6286 39.5696 39.0016 39.9929Z" fill="#59473D"></path><path d="M29.459 6.19068L28.1069 6.77328L28.8864 9.30729L24.7656 8.0944L23.3028 8.84546L23.3321 8.8683L28.876 13.2251L28.9145 13.1893L28.9666 13.1415C29.092 13.0242 29.2176 12.9071 29.3446 12.7911C29.389 12.7504 29.4329 12.7087 29.4774 12.6683C29.6609 12.5026 29.8451 12.3389 30.0303 12.1759L27.6734 10.3141L31.102 11.2637L31.1127 11.2549C31.1977 11.1854 31.2819 11.1158 31.3667 11.0469L30.6583 8.85756L32.3918 10.2404L32.4076 10.2287C32.5169 10.1454 32.6243 10.0658 32.732 9.98496L32.7657 9.96015L32.8179 9.92046C32.8364 9.90695 32.8552 9.89281 32.8733 9.87882C32.9192 9.84493 32.9661 9.80895 33.0113 9.77547C33.0206 9.7683 33.0296 9.76227 33.0389 9.75536C33.1928 9.64225 33.3442 9.5334 33.4957 9.42456L29.459 6.19068Z" fill="#FFF20B"></path><path d="M28.131 6.85281L28.1064 6.77246L28.131 6.85307L28.131 6.85281Z" fill="#4D94C3"></path><path d="M28.1056 6.77249L28.3055 6.68673C27.9299 6.5908 27.4979 6.55303 27.0116 6.58258C26.0373 6.64034 24.8492 6.97618 23.5387 7.58912C22.2277 8.1997 20.7947 9.08239 19.3095 10.2035C16.3387 12.4446 13.1617 15.6369 10.2509 19.4925C9.2351 20.8373 8.30644 22.1909 7.47049 23.5308L12.7063 27.9549C13.62 26.4701 14.6397 24.9729 15.7624 23.4862C17.2636 21.499 18.8335 19.6829 20.4186 18.0636C21.9548 16.4956 23.5041 15.1186 25.0258 13.9545L23.6635 10.7598L23.3309 8.8675L23.3016 8.84467L24.7644 8.09361L28.0788 9.07677L27.796 8.03886L28.1056 6.77249Z" fill="#05B6E0"></path><path d="M28.1077 6.77259L27.7981 8.03896L28.0809 9.07688L28.8873 9.3066L28.1077 6.77259Z" fill="#141C26"></path><path d="M27.6748 10.3125L31.1035 11.2621L30.0317 12.1742L27.6748 10.3125Z" fill="#141C26"></path><path d="M30.6572 8.85645L31.3656 11.0458L32.3907 10.2393L30.6572 8.85645Z" fill="#141C26"></path><path d="M42.3902 5.8083C42.5824 5.76453 42.7716 5.72702 42.9588 5.69616C43.4896 5.60824 43.9978 5.57787 44.4903 5.6076C44.5168 5.60946 44.5438 5.60824 44.5701 5.61041L44.5761 5.61091L44.5953 5.61142L44.6441 5.61619L44.6891 5.62112C44.6267 5.59466 44.5637 5.5705 44.5 5.54727C43.9341 5.4436 43.3505 5.4159 42.7617 5.44933C39.8414 5.61478 36.7886 7.25905 35.0695 8.34295C34.9756 8.40457 34.881 8.46607 34.7853 8.52965C34.6418 8.62532 34.4971 8.72254 34.3508 8.82253C34.1053 8.99031 33.8577 9.1642 33.6048 9.34479C33.568 9.37072 33.5316 9.39738 33.4951 9.42378C33.3437 9.53262 33.1923 9.64147 33.0384 9.75458C33.029 9.76149 33.0201 9.76752 33.0108 9.77469C32.9656 9.80817 32.9187 9.84415 32.8728 9.87804C32.8547 9.89203 32.8358 9.90617 32.8174 9.91968L32.7652 9.95937L32.7314 9.98418C32.6238 10.065 32.5164 10.1446 32.407 10.2279L32.3912 10.2396C32.3879 10.2424 32.3846 10.2449 32.3815 10.2474C32.3542 10.2672 32.3287 10.2864 32.302 10.3066L32.2881 10.3168C32.2681 10.3323 32.2487 10.3479 32.2292 10.3632C32.0618 10.4914 31.8957 10.6225 31.7305 10.7538C31.6148 10.8456 31.4998 10.9379 31.3846 11.031L31.3662 11.0461C31.2813 11.115 31.1971 11.1847 31.1121 11.2541L31.1015 11.2629C30.826 11.4902 30.5533 11.7205 30.2819 11.9554C30.2535 11.9798 30.225 12.0034 30.1964 12.0283C30.1723 12.0494 30.1479 12.0703 30.1243 12.091C30.1018 12.1105 30.08 12.1306 30.0583 12.1499L30.0297 12.1751C29.8446 12.3381 29.6604 12.5018 29.4768 12.6675C29.4324 12.708 29.3885 12.7496 29.3441 12.7903C29.2171 12.9063 29.0914 13.0234 28.9661 13.1407L28.914 13.1885L28.8755 13.2243C28.5268 13.5521 28.1825 13.8861 27.841 14.2251C27.2777 14.7848 26.7242 15.3571 26.1826 15.9433C26.1121 16.0193 26.0426 16.0963 25.9723 16.1731C24.5547 17.7228 23.2102 19.3527 21.9422 21.0215C20.6034 22.784 19.3514 24.5897 18.1857 26.3866C17.547 27.3206 17.0037 28.152 16.5637 28.848C15.6808 30.2442 15.2155 31.0924 15.2434 31.1044C15.2554 31.1133 15.3359 31.0049 15.4762 30.8001C15.3643 30.9925 15.2524 31.1846 15.1429 31.3757C17.0724 28.3578 19.253 25.229 21.6591 22.2157C23.121 20.3866 24.664 18.6003 26.2866 16.9076L26.2867 16.9078C26.9971 16.1658 27.7233 15.4422 28.4643 14.741C28.7008 14.5164 28.9401 14.2937 29.1802 14.0736C29.3 13.9641 29.4215 13.8568 29.5419 13.7483C29.6097 13.6869 29.6779 13.6249 29.7468 13.5639C29.8758 13.4489 30.0057 13.3353 30.1353 13.2216C30.2627 13.1107 30.3895 12.9999 30.5173 12.89C30.5846 12.8331 30.6514 12.7755 30.7184 12.7189C30.8807 12.5808 31.0448 12.4448 31.2092 12.309C31.3068 12.2282 31.4053 12.1467 31.5036 12.0668L31.5046 12.0661C31.8151 11.8132 32.1286 11.5666 32.4435 11.323C32.4694 11.3026 32.4959 11.2827 32.5226 11.2625C32.5718 11.2244 32.6211 11.1867 32.6704 11.1489C32.7359 11.0988 32.8004 11.0478 32.8663 10.9983C32.8914 10.9797 32.9153 10.9603 32.9401 10.9415L32.9507 10.9341C32.9956 10.9004 33.0396 10.8682 33.0839 10.8354C33.0932 10.8285 33.1026 10.8219 33.1119 10.8149L33.1273 10.8028C33.266 10.6999 33.4038 10.5982 33.5398 10.4983C33.5648 10.4805 33.5897 10.4609 33.6152 10.4428C33.6594 10.4101 33.7032 10.3796 33.7478 10.3473C33.9071 10.2323 34.0659 10.1178 34.2227 10.0066C34.266 9.97643 34.3097 9.94377 34.3526 9.91399C34.3752 9.89807 34.3974 9.88276 34.4201 9.8671C34.4647 9.83618 34.5095 9.80522 34.5543 9.77399C34.739 9.64506 34.9229 9.51763 35.1037 9.39542C35.269 9.28345 35.4303 9.17904 35.5922 9.07232C36.5064 8.46993 37.3737 7.94519 38.1883 7.50458C39.7547 6.65934 41.1383 6.09808 42.3902 5.8083Z" fill="white"></path></g></svg>