<svg xmlns="http://www.w3.org/2000/svg" width="68" height="82" viewBox="0 0 68 82" fill="none"><mask id="mask0_1400_1282" style="mask-type:alpha" maskUnits="userSpaceOnUse" x="0" y="0" width="68" height="82"><rect width="68" height="82" fill="#D9D9D9"></rect></mask><g mask="url(#mask0_1400_1282)"><mask id="mask1_1400_1282" style="mask-type:luminance" maskUnits="userSpaceOnUse" x="2" y="11" width="65" height="63"><path d="M34.0919 73.266C51.8152 73.266 66.1828 59.3273 66.1828 42.133C66.1828 24.9387 51.8152 11 34.0919 11C16.3686 11 2.00098 24.9387 2.00098 42.133C2.00098 59.3273 16.3686 73.266 34.0919 73.266Z" fill="white"></path></mask><g mask="url(#mask1_1400_1282)"><path d="M34.0929 73.266C51.8162 73.266 66.1838 59.3273 66.1838 42.133C66.1838 24.9387 51.8162 11 34.0929 11C16.3696 11 2.00195 24.9387 2.00195 42.133C2.00195 59.3273 16.3696 73.266 34.0929 73.266Z" fill="#3CD2F3"></path><path d="M67.1335 55.0158C52.3769 48.5828 37.1921 30.5007 35.9129 29.6725C34.6337 28.8442 32.9179 29.8789 32.9179 29.8789C31.8487 28.2197 30.1385 30.0853 30.1385 30.0853C22.2228 43.1576 1.05078 55.6376 1.05078 55.6376C1.05078 55.6376 11.2182 73.7787 34.7193 73.7787C58.6128 73.7787 67.1335 55.0158 67.1335 55.0158Z" fill="#1F6599"></path><path d="M19.6553 41.2878C19.6553 41.2878 23.9322 39.4115 23.0757 42.5342C22.2192 45.6569 18.7988 50.2109 19.868 50.4173C20.9373 50.6237 23.9433 47.7208 24.7887 48.1336C25.6342 48.5464 26.2862 48.3427 25.858 49.7954C25.4297 51.2482 25.0015 52.2855 25.858 52.2855C26.7144 52.2855 27.3554 50.4092 28.4247 48.549C29.4939 46.6888 31.2041 47.5117 31.8451 48.1336C32.4861 48.7554 34.4118 52.2855 35.9093 51.8701C37.4068 51.4546 38.2606 49.5864 37.6196 45.4371C36.9786 41.2878 38.0478 40.0441 38.0478 40.0441C38.0478 40.0441 39.3298 39.4222 41.6838 42.3251C44.0377 45.228 48.3147 49.5864 48.9529 49.38C49.5911 49.1736 45.9607 44.6088 46.8144 44.1934C47.6682 43.7779 51.0914 44.8152 52.8044 46.268C52.8044 46.268 53.3901 48.6455 53.3901 46.3645L35.9093 29.6709L32.9144 29.8746L30.1349 30.081C30.1349 30.081 23.2912 40.0441 19.6553 41.2878Z" fill="white"></path><path d="M67.1335 55.6376C52.3769 49.2046 37.1921 30.5007 35.9129 29.6725C34.6337 28.8442 32.9179 29.8789 32.9179 29.8789C31.8487 28.2197 30.1385 30.0853 30.1385 30.0853C22.2228 43.1576 1.05078 55.6376 1.05078 55.6376" stroke="#160200" stroke-width="1.91918" stroke-miterlimit="10"></path></g><path d="M34.0909 73.266C51.8143 73.266 66.1819 59.3273 66.1819 42.133C66.1819 24.9387 51.8143 11 34.0909 11C16.3676 11 2 24.9387 2 42.133C2 59.3273 16.3676 73.266 34.0909 73.266Z" stroke="#160200" stroke-width="1.91918" stroke-miterlimit="10"></path></g></svg>