<svg xmlns="http://www.w3.org/2000/svg" width="41" height="49" viewBox="0 0 41 49" fill="none"><mask id="mask0_1401_1591" style="mask-type:alpha" maskUnits="userSpaceOnUse" x="0" y="0" width="41" height="49"><rect width="41" height="49" fill="#D9D9D9"></rect></mask><g mask="url(#mask0_1401_1591)"><path d="M20.1998 4C11.7693 4 9.30372 4.0087 8.82446 4.04845C7.09438 4.19227 6.01782 4.46467 4.84497 5.04861C3.94111 5.49743 3.22827 6.0177 2.52474 6.747C1.24349 8.07702 0.466979 9.71329 0.18588 11.6583C0.0492138 12.6025 0.00945623 12.7951 0.00138047 17.6182C-0.00172559 19.2259 0.00138047 21.3418 0.00138047 24.1798C0.00138047 32.6034 0.0106987 35.0665 0.0510774 35.5448C0.19085 37.2283 0.454865 38.2875 1.01396 39.4461C2.08244 41.6638 4.12312 43.3286 6.52721 43.9498C7.35964 44.1642 8.27903 44.2822 9.45934 44.3381C9.95941 44.3598 15.0565 44.3754 20.1566 44.3754C25.2568 44.3754 30.3569 44.3692 30.8446 44.3443C32.2112 44.28 33.0048 44.1735 33.8823 43.9467C36.3019 43.3224 38.3053 41.6824 39.3955 39.4336C39.9438 38.303 40.2218 37.2035 40.3476 35.6079C40.3749 35.26 40.3864 29.7135 40.3864 24.1745C40.3864 18.6345 40.374 13.0983 40.3466 12.7504C40.2193 11.129 39.9413 10.0388 39.3754 8.88645C38.911 7.94314 38.3954 7.23869 37.6468 6.51839C36.3109 5.24242 34.6771 4.46591 32.7303 4.18512C31.7869 4.04877 31.599 4.00839 26.7722 4H20.1998Z" fill="url(#paint0_radial_1401_1591)"></path><path d="M20.1998 4C11.7693 4 9.30372 4.0087 8.82446 4.04845C7.09438 4.19227 6.01782 4.46467 4.84497 5.04861C3.94111 5.49743 3.22827 6.0177 2.52474 6.747C1.24349 8.07702 0.466979 9.71329 0.18588 11.6583C0.0492138 12.6025 0.00945623 12.7951 0.00138047 17.6182C-0.00172559 19.2259 0.00138047 21.3418 0.00138047 24.1798C0.00138047 32.6034 0.0106987 35.0665 0.0510774 35.5448C0.19085 37.2283 0.454865 38.2875 1.01396 39.4461C2.08244 41.6638 4.12312 43.3286 6.52721 43.9498C7.35964 44.1642 8.27903 44.2822 9.45934 44.3381C9.95941 44.3598 15.0565 44.3754 20.1566 44.3754C25.2568 44.3754 30.3569 44.3692 30.8446 44.3443C32.2112 44.28 33.0048 44.1735 33.8823 43.9467C36.3019 43.3224 38.3053 41.6824 39.3955 39.4336C39.9438 38.303 40.2218 37.2035 40.3476 35.6079C40.3749 35.26 40.3864 29.7135 40.3864 24.1745C40.3864 18.6345 40.374 13.0983 40.3466 12.7504C40.2193 11.129 39.9413 10.0388 39.3754 8.88645C38.911 7.94314 38.3954 7.23869 37.6468 6.51839C36.3109 5.24242 34.6771 4.46591 32.7303 4.18512C31.7869 4.04877 31.599 4.00839 26.7722 4H20.1998Z" fill="url(#paint1_radial_1401_1591)"></path><path d="M20.1906 9.28027C16.1415 9.28027 15.6334 9.29798 14.0431 9.37035C12.4559 9.44303 11.3725 9.69431 10.4245 10.063C9.44395 10.4438 8.61214 10.9532 7.78345 11.7822C6.95413 12.6109 6.44474 13.4427 6.06269 14.423C5.69307 15.3713 5.44148 16.455 5.37004 18.0415C5.29891 19.6318 5.28027 20.1403 5.28027 24.1894C5.28027 28.2384 5.29829 28.745 5.37035 30.3353C5.44334 31.9225 5.69462 33.0059 6.063 33.9539C6.44411 34.9345 6.95351 35.7663 7.78252 36.595C8.6109 37.4243 9.44271 37.9349 10.4227 38.3157C11.3713 38.6844 12.455 38.9357 14.0418 39.0084C15.6322 39.0807 16.14 39.0985 20.1887 39.0985C24.2381 39.0985 24.7447 39.0807 26.335 39.0084C27.9222 38.9357 29.0068 38.6844 29.9554 38.3157C30.9357 37.9349 31.7663 37.4243 32.5947 36.595C33.424 35.7663 33.9334 34.9345 34.3154 33.9542C34.6819 33.0059 34.9335 31.9222 35.0081 30.3356C35.0795 28.7453 35.0981 28.2384 35.0981 24.1894C35.0981 20.1403 35.0795 19.6322 35.0081 18.0418C34.9335 16.4547 34.6819 15.3713 34.3154 14.4233C33.9334 13.4427 33.424 12.6109 32.5947 11.7822C31.7653 10.9529 30.936 10.4435 29.9545 10.063C29.0041 9.69431 27.92 9.44303 26.3328 9.37035C24.7425 9.29798 24.2363 9.28027 20.1859 9.28027H20.1906ZM18.8531 11.967C19.2501 11.9664 19.693 11.967 20.1906 11.967C24.1713 11.967 24.6431 11.9813 26.2151 12.0527C27.6688 12.1192 28.4577 12.3621 28.9832 12.5662C29.679 12.8364 30.175 13.1594 30.6965 13.6812C31.2184 14.2031 31.5414 14.7 31.8122 15.3958C32.0163 15.9207 32.2595 16.7097 32.3257 18.1633C32.3971 19.735 32.4126 20.2071 32.4126 24.1859C32.4126 28.1648 32.3971 28.6369 32.3257 30.2086C32.2592 31.6622 32.0163 32.4512 31.8122 32.9761C31.542 33.6719 31.2184 34.1673 30.6965 34.6888C30.1747 35.2106 29.6793 35.5336 28.9832 35.8039C28.4583 36.0089 27.6688 36.2511 26.2151 36.3176C24.6435 36.389 24.1713 36.4046 20.1906 36.4046C16.2096 36.4046 15.7378 36.389 14.1661 36.3176C12.7125 36.2505 11.9235 36.0076 11.3977 35.8035C10.7019 35.5333 10.2049 35.2103 9.68311 34.6885C9.1613 34.1667 8.83827 33.6709 8.56742 32.9749C8.36335 32.4499 8.12014 31.661 8.05399 30.2074C7.98255 28.6357 7.96826 28.1636 7.96826 24.1822C7.96826 20.2009 7.98255 19.7312 8.05399 18.1596C8.12046 16.7059 8.36335 15.917 8.56742 15.3914C8.83764 14.6957 9.1613 14.1987 9.68311 13.6769C10.2049 13.1551 10.7019 12.8321 11.3977 12.5612C11.9232 12.3562 12.7125 12.1139 14.1661 12.0472C15.5415 11.985 16.0745 11.9664 18.8531 11.9633V11.967ZM28.149 14.4425C27.1612 14.4425 26.3599 15.243 26.3599 16.231C26.3599 17.2187 27.1612 18.0201 28.149 18.0201C29.1367 18.0201 29.938 17.2187 29.938 16.231C29.938 15.2433 29.1367 14.4419 28.149 14.4419V14.4425ZM20.1906 16.5329C15.9623 16.5329 12.5342 19.9611 12.5342 24.1894C12.5342 28.4176 15.9623 31.8442 20.1906 31.8442C24.4189 31.8442 27.8458 28.4176 27.8458 24.1894C27.8458 19.9611 24.4189 16.5329 20.1906 16.5329ZM20.1906 19.2197C22.9351 19.2197 25.1603 21.4445 25.1603 24.1894C25.1603 26.9339 22.9351 29.1591 20.1906 29.1591C17.4458 29.1591 15.2209 26.9339 15.2209 24.1894C15.2209 21.4445 17.4458 19.2197 20.1906 19.2197Z" fill="white"></path></g><defs><radialGradient id="paint0_radial_1401_1591" cx="0" cy="0" r="1" gradientUnits="userSpaceOnUse" gradientTransform="translate(10.7277 47.4851) rotate(-90) scale(40.015 37.2272)"><stop stop-color="#FFBE00"></stop><stop offset="0.1" stop-color="#FFBE00"></stop><stop offset="0.5" stop-color="#FC232C"></stop><stop offset="1" stop-color="#D41BA8"></stop></radialGradient><radialGradient id="paint1_radial_1401_1591" cx="0" cy="0" r="1" gradientUnits="userSpaceOnUse" gradientTransform="translate(-6.76493 6.90857) rotate(78.6776) scale(17.887 73.7497)"><stop stop-color="#1545C3"></stop><stop offset="0.128" stop-color="#4456CD"></stop><stop offset="1" stop-color="#6600FF" stop-opacity="0"></stop></radialGradient></defs></svg>