<svg xmlns="http://www.w3.org/2000/svg" width="78" height="82" viewBox="0 0 78 82" fill="none"><mask id="mask0_1400_1343" style="mask-type:alpha" maskUnits="userSpaceOnUse" x="0" y="0" width="78" height="82"><rect width="78" height="82" fill="#D9D9D9"></rect></mask><g mask="url(#mask0_1400_1343)"><mask id="mask1_1400_1343" style="mask-type:luminance" maskUnits="userSpaceOnUse" x="0" y="0" width="78" height="78"><path d="M77.5 0.5H0.5V77.5H77.5V0.5Z" fill="white"></path></mask><g mask="url(#mask1_1400_1343)"><path d="M38.8285 94.1844C60.0442 94.1844 77.243 76.9856 77.243 55.7699C77.243 34.5542 60.0442 17.3555 38.8285 17.3555C17.6128 17.3555 0.414062 34.5542 0.414062 55.7699C0.414062 76.9856 17.6128 94.1844 38.8285 94.1844Z" fill="#044D67"></path><path d="M38.8285 86.3123C55.6971 86.3123 69.3718 72.6375 69.3718 55.7689C69.3718 38.9003 55.6971 25.2256 38.8285 25.2256C21.9599 25.2256 8.28516 38.9003 8.28516 55.7689C8.28516 72.6375 21.9599 86.3123 38.8285 86.3123Z" fill="white"></path><path d="M35.9202 54.4004L61.2446 36.6904L39.9413 59.6193C38.5724 60.4406 36.6902 59.9615 35.9202 59.6193C33.9353 58.0451 35.0932 55.4841 35.9202 54.4004Z" fill="#8CD10E"></path><path d="M39.1712 26.8516H36.6045V32.3271H39.1712V26.8516Z" fill="#8CD10E"></path><path d="M57.6677 33.7947L55.6689 32.1846L52.234 36.4487L54.2328 38.0588L57.6677 33.7947Z" fill="#8CD10E"></path><path d="M66.8916 51.3129L66.7061 48.7529L61.2448 49.1487L61.4304 51.7087L66.8916 51.3129Z" fill="#8CD10E"></path><path d="M62.8516 70.1048L64.3398 68.0137L59.8787 64.8387L58.3905 66.9299L62.8516 70.1048Z" fill="#8CD10E"></path><path d="M19.6793 67.77L18.3311 65.5859L13.6718 68.4622L15.02 70.6462L19.6793 67.77Z" fill="#8CD10E"></path><path d="M16.0344 52.8516L16.5186 50.3311L11.1413 49.2982L10.6571 51.8188L16.0344 52.8516Z" fill="#8CD10E"></path><path d="M22.7438 38.5562L24.7568 36.9639L21.3598 32.6694L19.3468 34.2618L22.7438 38.5562Z" fill="#8CD10E"></path><path d="M57.6101 14.8057H55.7773L58.5699 6.7168H60.7738L63.5622 14.8057H61.7296L59.7033 8.56523H59.6402L57.6101 14.8057ZM57.4955 11.6262H61.8244V12.9612H57.4955V11.6262Z" fill="#8CD10E"></path><path d="M71.3655 10.7605C71.3655 11.6426 71.1983 12.393 70.8638 13.0118C70.5322 13.6306 70.0792 14.1032 69.5051 14.4297C68.9338 14.7536 68.2913 14.9155 67.5778 14.9155C66.8589 14.9155 66.2138 14.7523 65.6425 14.4258C65.071 14.0993 64.6194 13.6266 64.2876 13.0078C63.9558 12.3891 63.79 11.64 63.79 10.7605C63.79 9.87841 63.9558 9.12797 64.2876 8.5092C64.6194 7.89041 65.071 7.41909 65.6425 7.09522C66.2138 6.76871 66.8589 6.60547 67.5778 6.60547C68.2913 6.60547 68.9338 6.76871 69.5051 7.09522C70.0792 7.41909 70.5322 7.89041 70.8638 8.5092C71.1983 9.12797 71.3655 9.87841 71.3655 10.7605ZM69.6316 10.7605C69.6316 10.1891 69.546 9.70725 69.3748 9.31493C69.2064 8.92259 68.968 8.62506 68.66 8.42231C68.3519 8.21956 67.9912 8.11818 67.5778 8.11818C67.1644 8.11818 66.8036 8.21956 66.4955 8.42231C66.1875 8.62506 65.9479 8.92259 65.7766 9.31493C65.6083 9.70725 65.5239 10.1891 65.5239 10.7605C65.5239 11.3319 65.6083 11.8137 65.7766 12.2061C65.9479 12.5984 66.1875 12.8959 66.4955 13.0987C66.8036 13.3014 67.1644 13.4028 67.5778 13.4028C67.9912 13.4028 68.3519 13.3014 68.66 13.0987C68.968 12.8959 69.2064 12.5984 69.3748 12.2061C69.546 11.8137 69.6316 11.3319 69.6316 10.7605Z" fill="#8CD10E"></path></g></g></svg>