<svg xmlns="http://www.w3.org/2000/svg" width="120" height="82" viewBox="0 0 120 82" fill="none"><mask id="mask0_1400_1123" style="mask-type:alpha" maskUnits="userSpaceOnUse" x="0" y="0" width="120" height="82"><rect width="120" height="82" fill="white"></rect></mask><g mask="url(#mask0_1400_1123)"><path fill-rule="evenodd" clip-rule="evenodd" d="M50.6035 21.6943C47.7972 21.6943 45.9698 22.608 44.3382 25.6754L36.8982 39.7069V27.2417C36.8982 23.5217 35.1361 21.6943 31.873 21.6943C28.6098 21.6943 27.2393 22.8038 25.6077 25.9364L18.5593 39.7069V27.3722C18.5593 23.3912 16.9277 21.6943 12.9467 21.6943H4.85405C1.78668 21.6943 0.0898438 23.1301 0.0898438 25.7406C0.0898438 28.3512 1.72142 29.9175 4.72352 29.9175H8.05194V45.6459C8.05194 50.0838 11.054 52.6943 15.3614 52.6943C19.6688 52.6943 21.6267 50.9975 23.7803 47.0164L28.4793 38.2059V45.6459C28.4793 50.0185 31.3509 52.6943 35.7235 52.6943C40.0961 52.6943 41.7277 51.1932 44.2077 47.0164L55.0414 28.7427C57.3908 24.7617 55.7593 21.6943 50.5382 21.6943C50.5382 21.6943 50.5382 21.6943 50.6035 21.6943Z" fill="url(#paint0_linear_1400_1123)"></path><path fill-rule="evenodd" clip-rule="evenodd" d="M70.9643 21.6944C62.0885 21.6944 55.3664 28.2859 55.3664 37.227C55.3664 46.168 62.1537 52.6943 70.9643 52.6943C79.7748 52.6943 86.4969 46.1028 86.5621 37.227C86.5621 28.2859 79.7748 21.6944 70.9643 21.6944ZM70.9643 43.1659C67.6358 43.1659 65.3516 40.6859 65.3516 37.227C65.3516 33.768 67.6358 31.2228 70.9643 31.2228C74.2927 31.2228 76.5769 33.768 76.5769 37.227C76.5769 40.6859 74.3579 43.1659 70.9643 43.1659Z" fill="url(#paint1_linear_1400_1123)"></path><path fill-rule="evenodd" clip-rule="evenodd" d="M104.314 21.6944C95.5034 21.6944 88.7161 28.2859 88.7161 37.227C88.7161 46.168 95.5034 52.6943 104.314 52.6943C113.124 52.6943 119.912 46.1028 119.912 37.227C119.912 28.3512 113.124 21.6944 104.314 21.6944ZM104.314 43.1659C100.92 43.1659 98.7666 40.6859 98.7666 37.227C98.7666 33.768 100.986 31.2228 104.314 31.2228C107.642 31.2228 109.927 33.768 109.927 37.227C109.927 40.6859 107.708 43.1659 104.314 43.1659Z" fill="url(#paint2_linear_1400_1123)"></path></g><defs><linearGradient id="paint0_linear_1400_1123" x1="63.525" y1="21.6943" x2="56.4767" y2="58.1108" gradientUnits="userSpaceOnUse"><stop stop-color="#873EFF"></stop><stop offset="1" stop-color="#580FCE"></stop></linearGradient><linearGradient id="paint1_linear_1400_1123" x1="63.525" y1="21.6943" x2="56.4767" y2="58.1108" gradientUnits="userSpaceOnUse"><stop stop-color="#873EFF"></stop><stop offset="1" stop-color="#580FCE"></stop></linearGradient><linearGradient id="paint2_linear_1400_1123" x1="63.525" y1="21.6943" x2="56.4767" y2="58.1108" gradientUnits="userSpaceOnUse"><stop stop-color="#873EFF"></stop><stop offset="1" stop-color="#580FCE"></stop></linearGradient></defs></svg>