<svg xmlns="http://www.w3.org/2000/svg" width="39" height="49" viewBox="0 0 39 49" fill="none"><mask id="mask0_1401_1397" style="mask-type:alpha" maskUnits="userSpaceOnUse" x="0" y="0" width="39" height="49"><rect width="39" height="49" fill="#D9D9D9"></rect></mask><g mask="url(#mask0_1401_1397)"><mask id="mask1_1401_1397" style="mask-type:alpha" maskUnits="userSpaceOnUse" x="0" y="4" width="39" height="39"><rect y="4" width="39" height="39" rx="2" fill="#D9D9D9"></rect></mask><g mask="url(#mask1_1401_1397)"><rect y="4" width="39" height="39" rx="2" fill="#EC3000"></rect><g filter="url(#filter0_f_1401_1397)"><path d="M28.5674 23.4355H29.1543L29.5811 23.5156L29.9279 23.649L30.168 23.8357L30.3814 24.0758L30.5148 24.3959L30.5415 24.5293V25.2495L30.4881 25.9431L30.3548 26.7968L30.1947 27.517L29.9546 28.2906L29.7145 28.9309L29.4744 29.4644L29.2077 29.9979L28.8609 30.5848L28.4874 31.145L28.1406 31.5985L27.9005 31.8919L27.6071 32.2121L27.4204 32.4255L26.9402 32.9056H26.8868V32.959L26.6734 33.1457L26.3266 33.4392L26.0065 33.6793L25.553 33.9994L24.9661 34.3728L24.3793 34.693L23.6056 35.0664L22.832 35.3599L22.1385 35.5733L21.3382 35.76L20.5112 35.8934L19.5242 35.9734H18.4571L17.7369 35.9201L16.8832 35.7867L16.0829 35.6L15.3893 35.3865L14.6958 35.1198L14.1622 34.8797L13.4686 34.5329L12.8818 34.1861L12.3216 33.8126L11.8147 33.4392L11.4412 33.1191L11.3345 33.1457L10.9877 33.5725L10.6943 33.946L10.3475 34.3728L9.76064 35.1198L9.44052 35.5199L9.25379 35.7333L9.04038 35.9201L8.66691 36.1602L8.40014 36.2402L8.21341 36.2135L8.05335 36.0268L8 35.8667V27.3303L8.13338 27.1169L8.24009 27.0369L8.32012 27.0102H16.3497L16.6965 27.0369L16.9899 27.1436L17.15 27.3303V27.5971L16.9899 27.9172L16.6698 28.2906L16.2697 28.6374L15.9762 28.8775L15.6294 29.171L15.336 29.411L14.9892 29.7045L14.6958 29.9446L14.2423 30.318L13.8688 30.6382L13.7888 30.6915L13.8421 30.7982L14.0288 30.9849L14.2156 31.1984L14.4823 31.4384L14.9092 31.7586L15.3627 32.0253L15.9229 32.2921L16.3497 32.4521L16.9366 32.6122L17.6568 32.7456L18.3771 32.8256H19.6309L20.3245 32.7456L21.0981 32.5855L21.7917 32.3721L22.3785 32.132L22.9654 31.8386L23.5256 31.4918L23.9524 31.1717L24.2992 30.8782L24.5126 30.6915L24.9661 30.238L25.2062 29.9446L25.4997 29.5711L25.7664 29.171L26.0065 28.7708L26.2466 28.3173L26.54 27.6237L26.7535 26.9568L26.9135 26.2632L27.0202 25.543L27.0736 24.5826L27.1536 24.2625L27.287 24.0224L27.5004 23.809L27.8205 23.6223L28.2473 23.4889L28.5674 23.4355Z" fill="#900000" fill-opacity="0.7"></path></g><path d="M18.2516 42.4893L8.07617 34.9773L9.95418 26.0652L8.38348 23.9482C7.97373 22.3775 8.45177 17.0508 14.3931 13.6703C19.1462 10.966 25.0921 13.6362 27.4709 15.3093L30.2367 12.1338L39.2853 21.3531L18.2516 42.4893Z" fill="url(#paint0_linear_1401_1397)"></path><g filter="url(#filter1_f_1401_1397)"><path d="M30.4311 13.8408H30.6712L30.8045 13.9742L30.8846 14.1343L30.9113 14.4277L30.9646 21.4436L30.9913 22.6173L30.9113 22.8307L30.7779 22.9641L30.6712 23.0175H22.3748L22.0547 22.9641L21.8413 22.8574L21.7613 22.7507L21.7346 22.564L21.8146 22.3239L22.028 22.0038L22.4282 21.6036L22.6949 21.3902L23.0417 21.0968L23.3352 20.8567L23.682 20.5633L23.9754 20.3232L24.3222 20.0297L24.6156 19.7896L24.9624 19.4962L25.1225 19.3628L24.9624 19.1494L24.4823 18.6692L24.0288 18.3224L23.5486 18.029L22.8817 17.7089L22.1614 17.4688L21.4145 17.3087L20.7742 17.2287L20.4008 17.202H19.3071L18.5601 17.2821L17.8132 17.4421L17.1996 17.6289L16.6127 17.8689L16.1059 18.109L15.6524 18.3758L15.2256 18.6692L14.8788 18.936L14.532 19.2294L14.3719 19.3895H14.3186V19.4428L14.1318 19.6029L13.9451 19.8163L13.625 20.1898L13.2782 20.67L12.9314 21.2302L12.6113 21.8437L12.3179 22.564L12.1044 23.2842L11.9711 23.8978L11.891 24.4313L11.8644 24.6981L11.8377 25.365L11.7843 25.7118L11.6776 25.9519L11.4909 26.192L11.2241 26.3787L10.824 26.5388L10.4505 26.6188L10.1837 26.6455H9.89031L9.46349 26.5921L9.1167 26.4854L8.82326 26.3253L8.58317 26.1119L8.42311 25.8452L8.34308 25.6318L8.31641 25.525V24.7514L8.42311 23.7644L8.60985 22.8041L8.82326 22.0571L9.06334 21.3635L9.25008 20.91L9.46349 20.4832L9.81028 19.8163L10.1837 19.2294L10.5039 18.7759L10.7973 18.4025L11.0907 18.0557L11.3842 17.7356L11.7043 17.3888H11.7577V17.3354L11.9711 17.1487L12.2912 16.8552L12.6646 16.5618L13.0114 16.295L13.4383 16.0016L13.9985 15.6548L14.6387 15.308L15.3323 14.9879L15.9725 14.7478L16.7194 14.5077L17.4931 14.321L18.2667 14.1876L18.7468 14.1343L19.147 14.1076H20.6675L21.4678 14.1876L22.2148 14.321L23.0417 14.5344L23.8954 14.8278L24.589 15.1213L25.0158 15.3347L25.6293 15.6548L26.2429 16.0283L26.6697 16.3217L27.0965 16.6418L27.4433 16.9353L27.55 16.962L27.8435 16.5885L28.1903 16.1617L28.5371 15.7082L28.8038 15.388L29.1506 14.9345L29.4174 14.6144L29.6575 14.321L30.0309 14.0276L30.351 13.8675L30.4311 13.8408Z" fill="#900000" fill-opacity="0.7"></path></g><path d="M28.5674 22.1367H29.1543L29.5811 22.2167L29.9279 22.3501L30.168 22.5369L30.3814 22.777L30.5148 23.0971L30.5415 23.2304V23.9507L30.4881 24.6443L30.3548 25.4979L30.1947 26.2182L29.9546 26.9918L29.7145 27.632L29.4744 28.1656L29.2077 28.6991L28.8609 29.286L28.4874 29.8462L28.1406 30.2997L27.9005 30.5931L27.6071 30.9132L27.4204 31.1266L26.9402 31.6068H26.8868V31.6602L26.6734 31.8469L26.3266 32.1403L26.0065 32.3804L25.553 32.7005L24.9661 33.074L24.3793 33.3941L23.6056 33.7676L22.832 34.061L22.1385 34.2744L21.3382 34.4612L20.5112 34.5946L19.5242 34.6746H18.4571L17.7369 34.6212L16.8832 34.4879L16.0829 34.3011L15.3893 34.0877L14.6958 33.8209L14.1622 33.5809L13.4686 33.2341L12.8818 32.8873L12.3216 32.5138L11.8147 32.1403L11.4412 31.8202L11.3345 31.8469L10.9877 32.2737L10.6943 32.6472L10.3475 33.074L9.76064 33.8209L9.44052 34.2211L9.25379 34.4345L9.04038 34.6212L8.66691 34.8613L8.40014 34.9414L8.21341 34.9147L8.05335 34.7279L8 34.5679V26.0315L8.13338 25.8181L8.24009 25.738L8.32012 25.7113H16.3497L16.6965 25.738L16.9899 25.8447L17.15 26.0315V26.2982L16.9899 26.6183L16.6698 26.9918L16.2697 27.3386L15.9762 27.5787L15.6294 27.8721L15.336 28.1122L14.9892 28.4057L14.6958 28.6457L14.2423 29.0192L13.8688 29.3393L13.7888 29.3927L13.8421 29.4994L14.0288 29.6861L14.2156 29.8995L14.4823 30.1396L14.9092 30.4597L15.3627 30.7265L15.9229 30.9933L16.3497 31.1533L16.9366 31.3134L17.6568 31.4468L18.3771 31.5268H19.6309L20.3245 31.4468L21.0981 31.2867L21.7917 31.0733L22.3785 30.8332L22.9654 30.5398L23.5256 30.193L23.9524 29.8729L24.2992 29.5794L24.5126 29.3927L24.9661 28.9392L25.2062 28.6457L25.4997 28.2723L25.7664 27.8721L26.0065 27.472L26.2466 27.0185L26.54 26.3249L26.7535 25.658L26.9135 24.9644L27.0202 24.2441L27.0736 23.2838L27.1536 22.9637L27.287 22.7236L27.5004 22.5102L27.8205 22.3235L28.2473 22.1901L28.5674 22.1367Z" fill="#FEFEFE"></path><path d="M30.1147 12H30.3548L30.4881 12.1334L30.5682 12.2934L30.5948 12.5869L30.6482 19.6028L30.6749 20.7765L30.5948 20.9899L30.4615 21.1233L30.3548 21.1767H22.0584L21.7383 21.1233L21.5249 21.0166L21.4449 20.9099L21.4182 20.7232L21.4982 20.4831L21.7116 20.163L22.1118 19.7628L22.3785 19.5494L22.7253 19.256L23.0188 19.0159L23.3656 18.7224L23.659 18.4823L24.0058 18.1889L24.2992 17.9488L24.646 17.6554L24.8061 17.522L24.646 17.3086L24.1659 16.8284L23.7124 16.4816L23.2322 16.1882L22.5653 15.8681L21.845 15.628L21.0981 15.4679L20.4578 15.3879L20.0844 15.3612H18.9906L18.2437 15.4412L17.4968 15.6013L16.8832 15.788L16.2963 16.0281L15.7895 16.2682L15.336 16.535L14.9092 16.8284L14.5624 17.0952L14.2156 17.3886L14.0555 17.5487H14.0022V17.602L13.8154 17.7621L13.6287 17.9755L13.3086 18.349L12.9618 18.8291L12.615 19.3893L12.2949 20.0029L12.0014 20.7232L11.788 21.4434L11.6547 22.057L11.5746 22.5905L11.548 22.8573L11.5213 23.5242L11.4679 23.871L11.3612 24.1111L11.1745 24.3511L10.9077 24.5379L10.5076 24.6979L10.1341 24.778L9.86734 24.8046H9.5739L9.14708 24.7513L8.80029 24.6446L8.50685 24.4845L8.26676 24.2711L8.10671 24.0043L8.02668 23.7909L8 23.6842V22.9106L8.10671 21.9236L8.29344 20.9632L8.50685 20.2163L8.74694 19.5227L8.93367 19.0692L9.14708 18.6424L9.49387 17.9755L9.86734 17.3886L10.1875 16.9351L10.4809 16.5617L10.7743 16.2149L11.0678 15.8947L11.3879 15.548H11.4412V15.4946L11.6547 15.3079L11.9748 15.0144L12.3482 14.721L12.695 14.4542L13.1219 14.1608L13.6821 13.814L14.3223 13.4672L15.0159 13.1471L15.6561 12.907L16.403 12.6669L17.1767 12.4802L17.9503 12.3468L18.4304 12.2934L18.8306 12.2668H20.3511L21.1514 12.3468L21.8984 12.4802L22.7253 12.6936L23.579 12.987L24.2726 13.2805L24.6994 13.4939L25.3129 13.814L25.9265 14.1875L26.3533 14.4809L26.7801 14.801L27.1269 15.0945L27.2336 15.1211L27.5271 14.7477L27.8739 14.3208L28.2207 13.8673L28.4874 13.5472L28.8342 13.0937L29.101 12.7736L29.3411 12.4802L29.7145 12.1867L30.0346 12.0267L30.1147 12Z" fill="#FEFEFE"></path></g></g><defs><filter id="filter0_f_1401_1397" x="5.67809" y="21.1136" width="27.1848" height="17.4485" filterUnits="userSpaceOnUse" color-interpolation-filters="sRGB"><feGaussianBlur stdDeviation="1.16095"></feGaussianBlur></filter><filter id="filter1_f_1401_1397" x="5.9945" y="11.5189" width="27.3186" height="17.4485" filterUnits="userSpaceOnUse" color-interpolation-filters="sRGB"><feGaussianBlur stdDeviation="1.16095"></feGaussianBlur></filter><linearGradient id="paint0_linear_1401_1397" x1="18.9345" y1="19.4068" x2="28.905" y2="28.1481" gradientUnits="userSpaceOnUse"><stop stop-color="#B50000"></stop><stop offset="1" stop-color="#B50000" stop-opacity="0"></stop></linearGradient></defs></svg>