<svg xmlns="http://www.w3.org/2000/svg" width="32" height="49" viewBox="0 0 32 49" fill="none"><mask id="mask0_1403_1810" style="mask-type:alpha" maskUnits="userSpaceOnUse" x="0" y="0" width="32" height="49"><rect width="32" height="49" fill="#D9D9D9"></rect></mask><g mask="url(#mask0_1403_1810)"><mask id="path-2-outside-1_1403_1810" maskUnits="userSpaceOnUse" x="0.00488281" y="4.00293" width="30" height="40" fill="black"><rect fill="white" x="0.00488281" y="4.00293" width="30" height="40"></rect><path d="M16.5264 6.00293H16.79L17.2214 6.05086L17.7246 6.19463L18.0121 6.31445L18.3476 6.48219L18.7071 6.72182L19.0425 7.00937L19.3301 7.29693L19.4978 7.53656L19.7135 7.91997L19.9292 8.51904L20.0011 8.83056V8.87848H19.7854L19.0425 8.66282L18.3476 8.51904L17.5568 8.39923L17.0297 8.3513H16.5744L16.3108 8.39923L16.0232 8.543L15.8075 8.73471L15.6158 9.11811L15.5679 9.4536L15.6158 9.74115L15.7596 10.0287L15.9274 10.2204L16.143 10.3402L16.4066 10.4361L16.6463 10.484L17.2693 10.5319L17.9642 10.6278L18.6591 10.7955L19.1624 10.9633L19.6895 11.1789L20.4564 11.5623L20.9596 11.8499L21.2471 12.0416L21.6545 12.3292L21.99 12.5927L22.3015 12.8563L22.637 13.1439L22.8766 13.3596L22.9964 13.4794L23.1642 13.6232L23.3319 13.8149L23.5955 14.0784L23.8112 14.342L24.1227 14.7015L24.4342 15.1089L24.7218 15.4923L24.9854 15.8757L25.3208 16.4029L25.6084 16.8821L25.848 17.3134L26.2075 18.0084L26.4231 18.4637L26.6148 18.919L26.9264 19.7337L27.19 20.5245L27.3817 21.2434L27.5973 22.2498L27.7651 23.3042L27.837 23.9033V24.1189L27.789 24.1908L27.8609 24.2148L27.8849 24.5263V25.6765L27.837 26.4673L27.7411 27.2581L27.5734 28.1447L27.4056 28.8396L27.142 29.7263L26.1356 32.7456L25.872 33.3926L25.6563 33.8L25.4646 34.0396H25.4167L25.3688 34.1354L25.1052 34.423L24.7937 34.6626L24.3384 34.9502L23.6434 35.3576L23.284 35.5732L22.613 35.9806L22.0858 36.2921L21.3909 36.6995L21.0075 36.9391L20.8637 36.987L20.8877 36.8193L21.1992 35.8368L21.5826 34.6626L21.8702 33.8L22.0619 33.6562L22.3734 33.4645L22.9485 33.105L23.26 32.8654L23.5715 32.6018L23.8112 32.4101L24.0987 32.1465L24.2904 31.8829L24.4103 31.6433L24.4342 31.5474V31.0921L24.3144 30.7806L24.1706 30.565L24.0508 30.4691L23.7153 30.3014L23.5236 30.2534H23.2121L22.9725 30.3253L22.661 30.517L22.3974 30.7567L22.1577 30.9484L21.8462 31.212L21.3909 31.5235L20.3126 32.1705L20.2167 32.2663H20.1688L20.1209 32.3862L19.9531 32.7456L17.6048 39.7907L17.3891 40.27L17.1974 40.5815L16.9098 40.917L16.7181 41.1326L16.3347 41.4202L15.9274 41.6598L15.4721 41.8515L14.873 41.9953L14.4417 42.0193H14.1541L13.6988 41.9713L13.3154 41.8515L12.956 41.7077L12.5965 41.516L12.3329 41.3243L12.0214 41.0607L11.8297 40.869L11.5661 40.5096L11.3744 40.1741L11.2306 39.8626L11.0629 39.2875L10.991 38.9041V38.3769L11.0868 37.8257L11.2067 37.3944L12.3329 34.0156L12.6205 33.1769L12.7882 32.458L12.8601 32.0507L12.8841 31.811V31.1161L12.8122 30.517L12.6924 29.9419L12.5725 29.6304L12.4527 29.4147L12.3329 29.2949L12.0933 29.1511L11.8776 29.0793L11.7338 29.0553H11.4942L11.2067 29.1272L10.9191 29.2949L10.7514 29.4866L10.6076 29.7742L10.5597 30.0138L10.5836 30.4212L10.7034 30.9244L10.6795 31.0921L10.5117 31.2359L10.0085 31.5235L9.52925 31.811L8.85829 32.2184L8.28318 32.5539L7.89977 32.7456L7.58825 32.8654L7.01314 33.0092L6.8454 33.0331H6.15048L5.76707 32.9613L5.26385 32.7935L4.83251 32.6018L4.54496 32.4101L4.28136 32.1944L3.92192 31.835L3.70625 31.5474L3.51455 31.212L3.34681 30.8286L3.17907 30.2055L3.13114 29.894V29.3668L3.20303 28.9115L3.32285 28.4802L3.56248 27.953L3.75418 27.6654L4.0657 27.282L4.18551 27.1622L4.37722 26.9945L4.7127 26.7549L5.0961 26.5152L5.62329 26.2037L6.03066 25.9641L8.04355 24.742L9.2417 24.071L9.12188 23.8314L8.73847 23.2563L8.45092 22.801L8.11544 22.2498L7.87581 21.8904L7.54033 21.3632L7.22881 20.8839L6.8454 20.2609L6.53388 19.7816L6.36614 19.4941L6.0067 19.518L5.67122 19.566H5.00025L4.49703 19.4462L4.01777 19.2544L3.56248 19.0148L3.27492 18.7992L3.03529 18.5835L2.86755 18.4397L2.65188 18.1761L2.36433 17.6969L2.17262 17.1697L2.05281 16.6904L2.00488 16.2591L2.02885 15.7559L2.10073 15.3724L2.22055 14.9411L2.34036 14.6536L2.55603 14.2702L2.7717 13.9826L3.01133 13.719L3.13114 13.5992L3.46662 13.3356L3.82607 13.1199L4.20948 12.9522L4.7127 12.8084L5.04818 12.7605H5.83896L6.1984 12.8324L6.50992 12.9282L6.98918 13.1439L7.34862 13.3596L7.61222 13.5752L7.97166 13.8867L8.04355 13.9586L8.16336 13.9347L9.00207 13.096L9.33755 12.8324L9.69699 12.5448L10.4878 12.0176L10.8712 11.802L11.3984 11.5144L12.1173 11.2269L12.9799 10.9393L13.4592 10.7955L13.4352 10.5559L13.2914 10.0047L13.2675 9.86097V8.87848L13.3633 8.44715L13.4831 8.13563L13.6748 7.72826L13.9145 7.34486H13.9624L14.0103 7.249L14.2979 6.93749L14.6334 6.67389L14.9449 6.45823L15.4002 6.24256L15.8794 6.09878L16.2389 6.02689L16.5264 6.00293Z"></path></mask><path d="M16.5264 6.00293H16.79L17.2214 6.05086L17.7246 6.19463L18.0121 6.31445L18.3476 6.48219L18.7071 6.72182L19.0425 7.00937L19.3301 7.29693L19.4978 7.53656L19.7135 7.91997L19.9292 8.51904L20.0011 8.83056V8.87848H19.7854L19.0425 8.66282L18.3476 8.51904L17.5568 8.39923L17.0297 8.3513H16.5744L16.3108 8.39923L16.0232 8.543L15.8075 8.73471L15.6158 9.11811L15.5679 9.4536L15.6158 9.74115L15.7596 10.0287L15.9274 10.2204L16.143 10.3402L16.4066 10.4361L16.6463 10.484L17.2693 10.5319L17.9642 10.6278L18.6591 10.7955L19.1624 10.9633L19.6895 11.1789L20.4564 11.5623L20.9596 11.8499L21.2471 12.0416L21.6545 12.3292L21.99 12.5927L22.3015 12.8563L22.637 13.1439L22.8766 13.3596L22.9964 13.4794L23.1642 13.6232L23.3319 13.8149L23.5955 14.0784L23.8112 14.342L24.1227 14.7015L24.4342 15.1089L24.7218 15.4923L24.9854 15.8757L25.3208 16.4029L25.6084 16.8821L25.848 17.3134L26.2075 18.0084L26.4231 18.4637L26.6148 18.919L26.9264 19.7337L27.19 20.5245L27.3817 21.2434L27.5973 22.2498L27.7651 23.3042L27.837 23.9033V24.1189L27.789 24.1908L27.8609 24.2148L27.8849 24.5263V25.6765L27.837 26.4673L27.7411 27.2581L27.5734 28.1447L27.4056 28.8396L27.142 29.7263L26.1356 32.7456L25.872 33.3926L25.6563 33.8L25.4646 34.0396H25.4167L25.3688 34.1354L25.1052 34.423L24.7937 34.6626L24.3384 34.9502L23.6434 35.3576L23.284 35.5732L22.613 35.9806L22.0858 36.2921L21.3909 36.6995L21.0075 36.9391L20.8637 36.987L20.8877 36.8193L21.1992 35.8368L21.5826 34.6626L21.8702 33.8L22.0619 33.6562L22.3734 33.4645L22.9485 33.105L23.26 32.8654L23.5715 32.6018L23.8112 32.4101L24.0987 32.1465L24.2904 31.8829L24.4103 31.6433L24.4342 31.5474V31.0921L24.3144 30.7806L24.1706 30.565L24.0508 30.4691L23.7153 30.3014L23.5236 30.2534H23.2121L22.9725 30.3253L22.661 30.517L22.3974 30.7567L22.1577 30.9484L21.8462 31.212L21.3909 31.5235L20.3126 32.1705L20.2167 32.2663H20.1688L20.1209 32.3862L19.9531 32.7456L17.6048 39.7907L17.3891 40.27L17.1974 40.5815L16.9098 40.917L16.7181 41.1326L16.3347 41.4202L15.9274 41.6598L15.4721 41.8515L14.873 41.9953L14.4417 42.0193H14.1541L13.6988 41.9713L13.3154 41.8515L12.956 41.7077L12.5965 41.516L12.3329 41.3243L12.0214 41.0607L11.8297 40.869L11.5661 40.5096L11.3744 40.1741L11.2306 39.8626L11.0629 39.2875L10.991 38.9041V38.3769L11.0868 37.8257L11.2067 37.3944L12.3329 34.0156L12.6205 33.1769L12.7882 32.458L12.8601 32.0507L12.8841 31.811V31.1161L12.8122 30.517L12.6924 29.9419L12.5725 29.6304L12.4527 29.4147L12.3329 29.2949L12.0933 29.1511L11.8776 29.0793L11.7338 29.0553H11.4942L11.2067 29.1272L10.9191 29.2949L10.7514 29.4866L10.6076 29.7742L10.5597 30.0138L10.5836 30.4212L10.7034 30.9244L10.6795 31.0921L10.5117 31.2359L10.0085 31.5235L9.52925 31.811L8.85829 32.2184L8.28318 32.5539L7.89977 32.7456L7.58825 32.8654L7.01314 33.0092L6.8454 33.0331H6.15048L5.76707 32.9613L5.26385 32.7935L4.83251 32.6018L4.54496 32.4101L4.28136 32.1944L3.92192 31.835L3.70625 31.5474L3.51455 31.212L3.34681 30.8286L3.17907 30.2055L3.13114 29.894V29.3668L3.20303 28.9115L3.32285 28.4802L3.56248 27.953L3.75418 27.6654L4.0657 27.282L4.18551 27.1622L4.37722 26.9945L4.7127 26.7549L5.0961 26.5152L5.62329 26.2037L6.03066 25.9641L8.04355 24.742L9.2417 24.071L9.12188 23.8314L8.73847 23.2563L8.45092 22.801L8.11544 22.2498L7.87581 21.8904L7.54033 21.3632L7.22881 20.8839L6.8454 20.2609L6.53388 19.7816L6.36614 19.4941L6.0067 19.518L5.67122 19.566H5.00025L4.49703 19.4462L4.01777 19.2544L3.56248 19.0148L3.27492 18.7992L3.03529 18.5835L2.86755 18.4397L2.65188 18.1761L2.36433 17.6969L2.17262 17.1697L2.05281 16.6904L2.00488 16.2591L2.02885 15.7559L2.10073 15.3724L2.22055 14.9411L2.34036 14.6536L2.55603 14.2702L2.7717 13.9826L3.01133 13.719L3.13114 13.5992L3.46662 13.3356L3.82607 13.1199L4.20948 12.9522L4.7127 12.8084L5.04818 12.7605H5.83896L6.1984 12.8324L6.50992 12.9282L6.98918 13.1439L7.34862 13.3596L7.61222 13.5752L7.97166 13.8867L8.04355 13.9586L8.16336 13.9347L9.00207 13.096L9.33755 12.8324L9.69699 12.5448L10.4878 12.0176L10.8712 11.802L11.3984 11.5144L12.1173 11.2269L12.9799 10.9393L13.4592 10.7955L13.4352 10.5559L13.2914 10.0047L13.2675 9.86097V8.87848L13.3633 8.44715L13.4831 8.13563L13.6748 7.72826L13.9145 7.34486H13.9624L14.0103 7.249L14.2979 6.93749L14.6334 6.67389L14.9449 6.45823L15.4002 6.24256L15.8794 6.09878L16.2389 6.02689L16.5264 6.00293Z" fill="#131112"></path><path d="M16.5264 6.00293H16.79L17.2214 6.05086L17.7246 6.19463L18.0121 6.31445L18.3476 6.48219L18.7071 6.72182L19.0425 7.00937L19.3301 7.29693L19.4978 7.53656L19.7135 7.91997L19.9292 8.51904L20.0011 8.83056V8.87848H19.7854L19.0425 8.66282L18.3476 8.51904L17.5568 8.39923L17.0297 8.3513H16.5744L16.3108 8.39923L16.0232 8.543L15.8075 8.73471L15.6158 9.11811L15.5679 9.4536L15.6158 9.74115L15.7596 10.0287L15.9274 10.2204L16.143 10.3402L16.4066 10.4361L16.6463 10.484L17.2693 10.5319L17.9642 10.6278L18.6591 10.7955L19.1624 10.9633L19.6895 11.1789L20.4564 11.5623L20.9596 11.8499L21.2471 12.0416L21.6545 12.3292L21.99 12.5927L22.3015 12.8563L22.637 13.1439L22.8766 13.3596L22.9964 13.4794L23.1642 13.6232L23.3319 13.8149L23.5955 14.0784L23.8112 14.342L24.1227 14.7015L24.4342 15.1089L24.7218 15.4923L24.9854 15.8757L25.3208 16.4029L25.6084 16.8821L25.848 17.3134L26.2075 18.0084L26.4231 18.4637L26.6148 18.919L26.9264 19.7337L27.19 20.5245L27.3817 21.2434L27.5973 22.2498L27.7651 23.3042L27.837 23.9033V24.1189L27.789 24.1908L27.8609 24.2148L27.8849 24.5263V25.6765L27.837 26.4673L27.7411 27.2581L27.5734 28.1447L27.4056 28.8396L27.142 29.7263L26.1356 32.7456L25.872 33.3926L25.6563 33.8L25.4646 34.0396H25.4167L25.3688 34.1354L25.1052 34.423L24.7937 34.6626L24.3384 34.9502L23.6434 35.3576L23.284 35.5732L22.613 35.9806L22.0858 36.2921L21.3909 36.6995L21.0075 36.9391L20.8637 36.987L20.8877 36.8193L21.1992 35.8368L21.5826 34.6626L21.8702 33.8L22.0619 33.6562L22.3734 33.4645L22.9485 33.105L23.26 32.8654L23.5715 32.6018L23.8112 32.4101L24.0987 32.1465L24.2904 31.8829L24.4103 31.6433L24.4342 31.5474V31.0921L24.3144 30.7806L24.1706 30.565L24.0508 30.4691L23.7153 30.3014L23.5236 30.2534H23.2121L22.9725 30.3253L22.661 30.517L22.3974 30.7567L22.1577 30.9484L21.8462 31.212L21.3909 31.5235L20.3126 32.1705L20.2167 32.2663H20.1688L20.1209 32.3862L19.9531 32.7456L17.6048 39.7907L17.3891 40.27L17.1974 40.5815L16.9098 40.917L16.7181 41.1326L16.3347 41.4202L15.9274 41.6598L15.4721 41.8515L14.873 41.9953L14.4417 42.0193H14.1541L13.6988 41.9713L13.3154 41.8515L12.956 41.7077L12.5965 41.516L12.3329 41.3243L12.0214 41.0607L11.8297 40.869L11.5661 40.5096L11.3744 40.1741L11.2306 39.8626L11.0629 39.2875L10.991 38.9041V38.3769L11.0868 37.8257L11.2067 37.3944L12.3329 34.0156L12.6205 33.1769L12.7882 32.458L12.8601 32.0507L12.8841 31.811V31.1161L12.8122 30.517L12.6924 29.9419L12.5725 29.6304L12.4527 29.4147L12.3329 29.2949L12.0933 29.1511L11.8776 29.0793L11.7338 29.0553H11.4942L11.2067 29.1272L10.9191 29.2949L10.7514 29.4866L10.6076 29.7742L10.5597 30.0138L10.5836 30.4212L10.7034 30.9244L10.6795 31.0921L10.5117 31.2359L10.0085 31.5235L9.52925 31.811L8.85829 32.2184L8.28318 32.5539L7.89977 32.7456L7.58825 32.8654L7.01314 33.0092L6.8454 33.0331H6.15048L5.76707 32.9613L5.26385 32.7935L4.83251 32.6018L4.54496 32.4101L4.28136 32.1944L3.92192 31.835L3.70625 31.5474L3.51455 31.212L3.34681 30.8286L3.17907 30.2055L3.13114 29.894V29.3668L3.20303 28.9115L3.32285 28.4802L3.56248 27.953L3.75418 27.6654L4.0657 27.282L4.18551 27.1622L4.37722 26.9945L4.7127 26.7549L5.0961 26.5152L5.62329 26.2037L6.03066 25.9641L8.04355 24.742L9.2417 24.071L9.12188 23.8314L8.73847 23.2563L8.45092 22.801L8.11544 22.2498L7.87581 21.8904L7.54033 21.3632L7.22881 20.8839L6.8454 20.2609L6.53388 19.7816L6.36614 19.4941L6.0067 19.518L5.67122 19.566H5.00025L4.49703 19.4462L4.01777 19.2544L3.56248 19.0148L3.27492 18.7992L3.03529 18.5835L2.86755 18.4397L2.65188 18.1761L2.36433 17.6969L2.17262 17.1697L2.05281 16.6904L2.00488 16.2591L2.02885 15.7559L2.10073 15.3724L2.22055 14.9411L2.34036 14.6536L2.55603 14.2702L2.7717 13.9826L3.01133 13.719L3.13114 13.5992L3.46662 13.3356L3.82607 13.1199L4.20948 12.9522L4.7127 12.8084L5.04818 12.7605H5.83896L6.1984 12.8324L6.50992 12.9282L6.98918 13.1439L7.34862 13.3596L7.61222 13.5752L7.97166 13.8867L8.04355 13.9586L8.16336 13.9347L9.00207 13.096L9.33755 12.8324L9.69699 12.5448L10.4878 12.0176L10.8712 11.802L11.3984 11.5144L12.1173 11.2269L12.9799 10.9393L13.4592 10.7955L13.4352 10.5559L13.2914 10.0047L13.2675 9.86097V8.87848L13.3633 8.44715L13.4831 8.13563L13.6748 7.72826L13.9145 7.34486H13.9624L14.0103 7.249L14.2979 6.93749L14.6334 6.67389L14.9449 6.45823L15.4002 6.24256L15.8794 6.09878L16.2389 6.02689L16.5264 6.00293Z" stroke="#131112" stroke-width="3" mask="url(#path-2-outside-1_1403_1810)"></path><path d="M26.3994 5.39746H26.3373L26.2761 5.40767L25.8542 5.47798L25.806 5.48602L25.7592 5.50027L25.2201 5.66433L25.1528 5.68482L25.0905 5.71746L24.5983 5.97527L24.5496 6.00077L24.5052 6.0331L24.2473 6.2206L24.2301 6.23316L24.2135 6.24668L23.9557 6.45762L23.9268 6.48131L23.9003 6.50776L23.666 6.74213L23.6395 6.76858L23.6158 6.79753L23.4049 7.05535L23.3723 7.09522L23.3454 7.13919L23.0876 7.56106L23.0546 7.61496L23.0312 7.67361L22.8437 8.14236L22.8248 8.18962L22.8124 8.239L22.6718 8.8015L22.6581 8.85618L22.6528 8.91229L22.6059 9.40448L22.6025 9.43995V9.47559V9.82715H22.6024L22.6027 9.84104L22.6253 11.0602L22.5675 11.6169L22.5306 11.9721L22.7831 12.2247L22.8769 12.3184L23.0644 12.5059L23.2902 12.7317L23.6247 13.0885L23.7803 13.2663L23.785 13.2717L23.7898 13.277L24.0101 13.5194L24.3017 13.8782L24.3017 13.8782L24.3033 13.8802L24.5022 14.1233L24.8118 14.5434L25.0626 14.9083L25.0625 14.9084L25.0704 14.9193L25.2913 15.2286L25.7335 15.9362L25.9319 16.3109L25.9367 16.32L25.9418 16.329L26.2344 16.8466L26.5209 17.4417L27.31 19.294L27.894 20.6648L28.6471 19.3791L29.5309 17.8703L29.5665 17.8096L29.5901 17.7435L29.7073 17.4153L29.7129 17.3996L29.7178 17.3837L29.9053 16.7743L29.9083 16.7644L29.9111 16.7544L30.1455 15.9107L30.1505 15.8926L30.1546 15.8742L30.4125 14.7258L30.4177 14.7023L30.4215 14.6785L30.6324 13.3426L30.6347 13.3279L30.6365 13.3132L30.7771 12.1179L30.7793 12.0995L30.7805 12.081L30.8743 10.6982L30.876 10.6729V10.6475V9.24121V9.18791L30.8684 9.13514L30.8216 8.80702L30.8155 8.76492L30.8048 8.72377L30.6642 8.18471L30.6514 8.13549L30.632 8.08846L30.4679 7.69002L30.4465 7.63798L30.4175 7.58971L30.2066 7.23815L30.1843 7.20104L30.1579 7.16674L29.9236 6.86205L29.8939 6.82345L29.8594 6.78901L29.6954 6.62494L29.6814 6.611L29.6668 6.5978L29.4324 6.38687L29.4162 6.37229L29.3992 6.35868L29.1648 6.17118L29.1345 6.14694L29.1019 6.12595L28.7737 5.91501L28.733 5.88883L28.6892 5.8681L28.2439 5.65716L28.1908 5.63201L28.1345 5.61544L27.736 5.49825L27.6959 5.48645L27.6548 5.47919L27.2563 5.40887L27.1916 5.39746H27.126H26.3994Z" fill="#FC7701" stroke="#131112" stroke-width="1.5"></path><mask id="mask1_1403_1810" style="mask-type:alpha" maskUnits="userSpaceOnUse" x="23" y="6" width="8" height="13"><path d="M26.3994 6.14746H27.126L27.5244 6.21777L27.9229 6.33496L28.3682 6.5459L28.6963 6.75684L28.9307 6.94434L29.165 7.15527L29.3291 7.31934L29.5635 7.62402L29.7744 7.97559L29.9385 8.37402L30.0791 8.91309L30.126 9.24121V10.6475L30.0322 12.0303L29.8916 13.2256L29.6807 14.5615L29.4229 15.71L29.1885 16.5537L29.001 17.1631L28.8838 17.4912L28 19L27.2041 17.1318L26.8994 16.499L26.5947 15.96L26.3838 15.5615L25.915 14.8115L25.6807 14.4834L25.4229 14.1084L25.0947 13.6631L24.8838 13.4053L24.5791 13.0303L24.3447 12.7725L24.1807 12.585L23.8291 12.21L23.5947 11.9756L23.4072 11.7881L23.3135 11.6943L23.376 11.0921L23.3525 9.82715V9.47559L23.3994 8.9834L23.54 8.4209L23.7275 7.95215L23.9854 7.53027L24.1963 7.27246L24.4307 7.03809L24.6885 6.82715L24.9463 6.63965L25.4385 6.38184L25.9775 6.21777L26.3994 6.14746Z" fill="#FC7701"></path></mask><g mask="url(#mask1_1403_1810)"><path d="M28.873 6.4502L20.373 12.4502C18.773 10.4502 22.7063 6.28353 24.873 4.4502L28.873 6.4502Z" fill="#E42661"></path></g><path d="M16.6016 6L17.0703 6.02344L17.4688 6.11719L17.8906 6.25781L18.2656 6.44531L18.6406 6.67969L18.9688 6.96094L19.2969 7.28906L19.5781 7.71094L19.7891 8.17969L19.9531 8.71875V8.85938L19.7422 8.83594L19.25 8.67188L18.6875 8.53125L17.8438 8.39062L17.2578 8.32031L16.9297 8.29688H16.4844L16.1797 8.39062L15.9219 8.55469L15.7578 8.71875L15.6406 8.92969L15.5469 9.16406L15.5234 9.28125V9.5625L15.6172 9.86719L15.7812 10.1016L15.9453 10.2656L16.2734 10.4297L16.6016 10.5L17.2812 10.5469L17.9375 10.6406L18.3828 10.7344L18.875 10.875L19.5547 11.1328L20.1406 11.4141L20.75 11.7422L21.0547 11.9297L21.5 12.2344L21.7812 12.4453L22.1562 12.75L22.3438 12.9141L22.6719 13.1953L23.0469 13.5469L23.2344 13.7344L23.3984 13.9219L23.6094 14.1328L23.8203 14.3906L24.0312 14.625L24.2891 14.9531L24.5234 15.2578L24.8281 15.6797L25.2266 16.2891L25.6484 16.9922L25.9766 17.6016L26.1641 17.9766L26.375 18.4219L26.6797 19.1484L26.9375 19.8281L27.0781 20.25L27.2656 20.8828L27.4062 21.4453L27.5703 22.2422L27.7344 23.25L27.8281 24.0703L27.8047 24.1641L27.3594 24.4453L26.9609 24.6797L26.5391 24.9375L25.6016 25.5L24.8516 25.9453L24.5 26.1562L24.0781 26.4141L23.6797 26.6484L23.1875 26.9531L22.7188 27.2344L22.0391 27.6328L21.7344 27.8203L20.9141 28.3125L20.3984 28.6172L19.7422 29.0156L19.2266 29.3203L18.9219 29.5078L18.1016 30L17.3516 30.4453L16.1797 31.1484L15.7578 31.4062L14.3516 32.25L13.8125 32.5781L13.3438 32.8594L13.0391 33.0469L12.7578 33.2344H12.6172L12.6641 33.0469L12.8047 32.4375L12.875 31.9688L12.8984 31.6875V31.2891L12.8516 30.7266L12.7578 30.2109L12.6406 29.7656L12.4766 29.4375L12.2891 29.25L12.0078 29.1094L11.75 29.0391H11.4688L11.2578 29.0859L10.9297 29.25L10.7188 29.4609L10.5781 29.6953L10.5078 29.9297V30.3281L10.6484 30.9141V31.0781L10.5312 31.1953L10.0391 31.4766L9.73438 31.6641L9.03125 32.0859L8.60938 32.3438L8.11719 32.625L7.71875 32.8125L7.25 32.9531L6.89844 33.0234L6.66406 33.0469H6.28906L5.91406 33L5.46875 32.8828L5 32.6953L4.57812 32.4609L4.25 32.2031L3.92188 31.875L3.66406 31.5234L3.45312 31.1484L3.3125 30.7969L3.14844 30.1406L3.125 29.9766V29.2734L3.19531 28.8984L3.28906 28.5469L3.42969 28.1953L3.66406 27.7734L3.89844 27.4688L4.10938 27.2344L4.32031 27.0469L4.67188 26.7891L5.09375 26.5312L6.125 25.9219L7.08594 25.3359L7.55469 25.0547L8.21094 24.6562L8.67969 24.375L9.10156 24.1172L9.24219 24.0703L9.19531 23.9531L8.72656 23.25L8.375 22.6875L8.11719 22.2656L7.92969 21.9844L7.55469 21.3984L7.32031 21.0469L7.0625 20.625L6.875 20.3203L6.61719 19.9219L6.38281 19.5469L6.33594 19.4531L6.07812 19.4766L5.5625 19.5469H5L4.57812 19.4531L4.03906 19.2656L3.59375 19.0312L3.26562 18.7969L3.00781 18.5859L2.82031 18.3984L2.60938 18.1406L2.35156 17.6953L2.21094 17.3438L2.07031 16.8281L2 16.4766V15.8672L2.04688 15.4922L2.21094 14.8828L2.39844 14.5078L2.5625 14.2266L2.79688 13.9219L3.05469 13.6406L3.38281 13.3828L3.6875 13.1953L4.0625 13.0078L4.48438 12.8672L4.78906 12.7969L5.23438 12.75H5.5625L5.96094 12.7969L6.40625 12.9141L6.89844 13.125L7.22656 13.3125L7.625 13.6172L7.97656 13.9453L8 13.9922L8.11719 13.9688L8.9375 13.1484L9.19531 12.9375L9.57031 12.6328L9.875 12.4219L10.4375 12.0469L10.6953 11.8828L10.9766 11.7422L11.4219 11.5078L11.7734 11.3672L12.3828 11.1328L13.0625 10.9219L13.4609 10.8047L13.4844 10.6875L13.2969 10.0078L13.25 9.72656V8.97656L13.3203 8.57812L13.4844 8.08594L13.7188 7.61719L13.8828 7.38281L14.0469 7.19531L14.2344 6.98438L14.4922 6.77344L14.7266 6.58594L15.125 6.35156L15.4766 6.21094L15.9688 6.07031L16.25 6.02344L16.6016 6Z" fill="#FF7D00"></path><path d="M26.0459 17.8574H26.0928L26.2803 18.209L26.585 18.9121L26.8428 19.5684L27.0537 20.1777L27.2412 20.7871L27.4053 21.4434L27.5693 22.2402L27.7334 23.248L27.8271 24.0684L27.8037 24.1621L27.3584 24.4434L26.96 24.6777L26.5381 24.9355L25.6006 25.498L24.8506 25.9434L24.499 26.1543L24.0771 26.4121L23.6787 26.6465L23.1865 26.9512L22.7178 27.2324L22.0381 27.6309L21.7334 27.8184L20.9131 28.3105L20.3975 28.6152L19.7412 29.0137L19.2256 29.3184L18.9209 29.5059L18.1006 29.998L17.3506 30.4434L16.1787 31.1465L15.7568 31.4043L14.3506 32.248L13.8115 32.5762L13.3428 32.8574L13.0381 33.0449L12.7568 33.2324H12.6162L12.6631 33.0449L12.8037 32.4355L12.874 31.9668L12.8975 31.6855V31.2871L12.8506 30.7246L12.7568 30.209L12.6396 29.7637L12.4756 29.4355L12.2881 29.248L12.0068 29.1074L11.749 29.0371H11.4678L11.2568 29.084L10.9287 29.248L10.7178 29.459L10.5771 29.6934L10.5068 29.9277V30.3262L10.6475 30.9121V31.0762L10.5303 31.1934L10.0381 31.4746L9.7334 31.6621L9.03027 32.084L8.6084 32.3418L8.11621 32.623L7.71777 32.8105L7.24902 32.9512L6.89746 33.0215L6.66309 33.0449H6.28809L5.91309 32.998L5.46777 32.8809L4.99902 32.6934L4.57715 32.459L4.24902 32.2012L3.9209 31.873L3.66309 31.5215L3.61621 31.4512V31.334L3.66309 31.2871L3.89746 31.1934L4.36621 30.9121L4.92871 30.584L5.30371 30.3496L6.47559 29.6465L6.87402 29.4121L7.31934 29.1309L7.50684 29.0137L7.71777 28.8965L8.11621 28.6621L8.4209 28.4746L9.12402 28.0527L9.38184 27.8887L9.59277 27.7715L9.85059 27.6074L10.0615 27.4902L10.46 27.2559L10.7881 27.0449L10.999 26.9277L11.3037 26.7402L11.7725 26.459L12.335 26.1309L12.6631 25.9199L12.874 25.8027L13.1318 25.6387L13.3428 25.5215L13.6006 25.3574L13.8115 25.2402L14.21 25.0059L14.5146 24.8184L15.2178 24.3965L15.4756 24.2324L15.6865 24.1152L15.9443 23.9512L16.1553 23.834L16.5068 23.623L16.8115 23.4355L17.0225 23.3184L16.999 23.2012L16.835 22.7559L16.7881 22.498V22.1465L16.8584 21.748L17.0225 21.2559L17.21 20.8809L17.4443 20.5293L17.6553 20.248L17.9365 19.9434L18.124 19.7559L18.3818 19.5449L18.8037 19.2402L19.249 18.9824L19.624 18.7949L20.1162 18.6074L20.6553 18.4668L21.0537 18.3965L21.3115 18.373H21.6865L22.1084 18.4199L22.5537 18.5371L22.9287 18.7246L23.1396 18.8652L23.3975 19.0996L23.5615 19.3105V19.3574L23.6553 19.3809V19.334L24.0068 19.123L24.335 18.9355L24.71 18.7012L24.8506 18.6074L25.0615 18.4902L25.5068 18.2324L25.8115 18.0449L25.9756 17.9277H26.0225L26.0459 17.8574Z" fill="#F6B700"></path><path d="M27.7588 24.21H27.8291L27.8525 24.3271L27.876 24.8662V25.4756L27.8291 26.2959L27.7354 27.1631L27.6182 27.8193L27.4307 28.6631L27.2432 29.3193L26.8213 30.6084L26.1416 32.6475L25.8838 33.3271L25.6963 33.7021L25.5088 33.96L25.251 34.2412L25.1338 34.3818L24.8057 34.6396L24.3369 34.9443L23.6572 35.3428L22.7197 35.9053L22.415 36.0928L21.8525 36.4209L21.2666 36.7725L20.9385 36.9834H20.8682L20.9385 36.7021L21.4775 35.0381L21.7822 34.1475L21.876 33.8193L22.0869 33.6787L22.4385 33.4678L22.8135 33.2334L23.2119 32.9521L23.5166 32.6943L23.7744 32.4834L23.8447 32.46L23.8682 32.3896L24.0557 32.2256L24.2197 32.0381L24.3604 31.8271L24.4541 31.5693L24.4775 31.4521V31.2178L24.4072 30.9365L24.2432 30.6318L24.0791 30.4678L23.7041 30.2803L23.5166 30.2334H23.1885L22.9307 30.3271L22.6494 30.4912L22.4854 30.6553L22.2275 30.8662L21.9229 31.124L21.4775 31.4521L21.0322 31.7334L20.54 32.0146L20.3057 32.1553L20.1182 32.3193L19.9541 32.6475L19.6729 33.4912L19.3682 34.3818L19.04 35.3896L18.5947 36.7256L18.2666 37.6865L17.9854 38.5303L17.5869 39.749L17.3994 40.1943L17.1885 40.5693L16.9775 40.8037L16.7666 41.0615L16.5791 41.2256L16.2979 41.4365L15.9932 41.624L15.5947 41.8115L15.1494 41.9521L14.7041 42.0225H14.0244L13.6494 41.9756L13.0869 41.7881L12.6182 41.5537L12.2197 41.2725L11.9385 41.0146L11.751 40.8037L11.5166 40.4756L11.2588 39.9834L11.1182 39.5615L11.001 39.0225L10.9775 38.8115V38.5303L11.0479 38.0146L11.1416 37.6162L11.4932 36.5381L11.8213 35.5771L12.2197 34.3584L12.5244 33.4678L12.6182 33.2334L12.7822 33.1865L13.3916 32.8115L13.8604 32.5303L14.3525 32.2256L15.0322 31.8271L15.3369 31.6396L15.8057 31.3584L16.415 30.9834L16.9307 30.6787L17.3994 30.3975L18.1494 29.9521L19.0869 29.3896L19.626 29.0615L20.5635 28.499L21.0791 28.1943L21.665 27.8428L22.3213 27.4443L22.8838 27.1162L23.1885 26.9287L23.7275 26.6006L24.126 26.3662L24.501 26.1318L25.1807 25.7334L26.5869 24.8896L27.1963 24.5146L27.665 24.2334L27.7588 24.21Z" fill="#00B3FF"></path><path d="M16.6016 6L17.0703 6.02344L17.4688 6.11719L17.8906 6.25781L18.2656 6.44531L18.6406 6.67969L18.9688 6.96094L19.2969 7.28906L19.5781 7.71094L19.7891 8.17969L19.9531 8.71875V8.85938L19.7422 8.83594L19.25 8.67188L18.6875 8.53125L17.8438 8.39062L17.2578 8.32031L16.9297 8.29688H16.4844L16.1797 8.39062L15.9219 8.55469L15.7578 8.71875L15.6406 8.92969L15.5469 9.16406L15.5234 9.28125V9.5625L15.6172 9.86719L15.7812 10.1016L15.9453 10.2656L16.2734 10.4297L16.6016 10.5L17.2812 10.5469L17.9375 10.6406L18.3828 10.7344L18.875 10.875L19.5547 11.1328L20.1406 11.4141L20.75 11.7422L21.0547 11.9297L20.9375 12.0234L20.4688 12.2812L20.1641 12.4688L18.7344 13.3125L18.3125 13.5703L17.75 13.8984L16.8125 14.4609L16.5078 14.6484L16.0391 14.9297L15.4062 15.3047L14.9844 15.5625L14.4688 15.8672L14.0703 16.1016L13.7656 16.2891L13.4141 16.5L13.1094 16.6875L12.6875 16.9453L11.6562 17.5547L10.8359 18.0469L10.3203 18.3516L10.0156 18.5391L9.78125 18.6797L9.125 19.0781L8.07031 19.7109L7.50781 20.0625L7.15625 20.2734L6.92188 20.3906L6.40625 19.5938L6.33594 19.4531L6.07812 19.4766L5.5625 19.5469H5L4.57812 19.4531L4.03906 19.2656L3.59375 19.0312L3.26562 18.7969L3.00781 18.5859L2.82031 18.3984L2.60938 18.1406L2.35156 17.6953L2.21094 17.3438L2.07031 16.8281L2 16.4766V15.8672L2.04688 15.4922L2.21094 14.8828L2.39844 14.5078L2.5625 14.2266L2.79688 13.9219L3.05469 13.6406L3.38281 13.3828L3.6875 13.1953L4.0625 13.0078L4.48438 12.8672L4.78906 12.7969L5.23438 12.75H5.5625L5.96094 12.7969L6.40625 12.9141L6.89844 13.125L7.22656 13.3125L7.625 13.6172L7.97656 13.9453L8 13.9922L8.11719 13.9688L8.9375 13.1484L9.19531 12.9375L9.57031 12.6328L9.875 12.4219L10.4375 12.0469L10.6953 11.8828L10.9766 11.7422L11.4219 11.5078L11.7734 11.3672L12.3828 11.1328L13.0625 10.9219L13.4609 10.8047L13.4844 10.6875L13.2969 10.0078L13.25 9.72656V8.97656L13.3203 8.57812L13.4844 8.08594L13.7188 7.61719L13.8828 7.38281L14.0469 7.19531L14.2344 6.98438L14.4922 6.77344L14.7266 6.58594L15.125 6.35156L15.4766 6.21094L15.9688 6.07031L16.25 6.02344L16.6016 6Z" fill="#E42661"></path><path d="M21.3135 18.375H21.6885L22.1104 18.4219L22.5557 18.5391L22.9307 18.7266L23.1416 18.8672L23.3994 19.1016L23.5869 19.3594L23.7041 19.5938L23.7979 20.0625V20.5547L23.7041 21.0234L23.5166 21.4922L23.3291 21.8438L23.0479 22.2422L22.7197 22.5938L22.4385 22.875L22.1104 23.1328L21.6885 23.4375L21.2666 23.6719L20.9385 23.8359L20.4229 24.0234L19.9775 24.1406L19.5557 24.2109L19.2744 24.2344H18.876L18.3838 24.1641L18.0557 24.0703L17.6807 23.8828L17.4697 23.7422L17.2354 23.5312L17.0947 23.3672L16.9307 23.0391L16.8135 22.6641L16.79 22.5V22.1484L16.8604 21.75L17.0244 21.2578L17.2119 20.8828L17.4463 20.5312L17.6572 20.25L17.9385 19.9453L18.126 19.7578L18.3838 19.5469L18.8057 19.2422L19.251 18.9844L19.626 18.7969L20.1182 18.6094L20.6572 18.4688L21.0557 18.3984L21.3135 18.375Z" fill="#FEFEFD"></path><path d="M13.6963 18.585H14.0479L14.3994 18.6553L14.7744 18.8193L15.0557 19.0068L15.2197 19.1475L15.4541 19.4521L15.5713 19.6865L15.5947 19.8271L15.5244 19.9912L15.3838 20.085L14.915 20.2256L14.3994 20.3662L14.0947 20.4834L13.8135 20.6475L13.4854 20.9053L13.2275 21.21L12.9463 21.5146L12.7822 21.6553L12.6182 21.6787L12.4541 21.585L12.2666 21.3271L12.126 21.0459L12.0557 20.835L12.0088 20.5771V20.2725L12.0791 19.9443L12.1963 19.6396L12.3604 19.3584L12.6182 19.0771L12.8525 18.8896L13.1338 18.7256L13.5088 18.6084L13.6963 18.585Z" fill="#131112"></path><path d="M20.6094 14.3887H21.0781L21.4531 14.4824L21.8281 14.6699L22.0625 14.834L22.25 14.998L22.4844 15.3262L22.5547 15.5137V15.6777L22.4844 15.7949L22.2031 15.9355L21.6875 16.0762L21.3359 16.1699L20.9844 16.3105L20.6562 16.5449L20.2812 16.9199L20.1172 17.1074L19.9062 17.3418L19.7656 17.459L19.5547 17.4824L19.3906 17.3418L19.2031 17.0371L19.1094 16.8496L19.0156 16.4277V16.0293L19.0859 15.7012L19.2031 15.4199L19.4141 15.0449L19.625 14.834L20 14.5762L20.375 14.4355L20.6094 14.3887Z" fill="#131112"></path><path d="M20.585 18.8887H20.7725L21.0303 18.959L21.1943 19.0527L21.335 19.1699L21.4756 19.4043L21.5225 19.5449L21.5459 19.7324L21.4756 20.0605L21.335 20.3184L20.9131 20.9512L20.7021 21.1387L20.4678 21.2324L20.1631 21.2793L19.8818 21.3027H19.2959L19.085 21.2324L18.9443 21.1387L18.8271 21.0215L18.6865 20.834L18.6162 20.5996V20.3652L18.6865 20.1309L18.8271 19.9199L19.0146 19.7559L19.6709 19.3574L20.2568 19.0059L20.4912 18.9121L20.585 18.8887Z" fill="#333333"></path></g></svg>