<svg xmlns="http://www.w3.org/2000/svg" width="77" height="82" viewBox="0 0 77 82" fill="none"><mask id="mask0_1400_1309" style="mask-type:alpha" maskUnits="userSpaceOnUse" x="0" y="0" width="77" height="82"><rect width="77" height="82" fill="#D9D9D9"></rect></mask><g mask="url(#mask0_1400_1309)"><path d="M31.7981 15H33.6524L35.1634 15.206L36.6056 15.5494L37.7045 15.9615L40.7263 17.4724L42.0312 18.1592L45.2591 19.8075L47.5255 20.975L49.5172 22.0052L52.6077 23.5848L54.1873 24.4089L57.4152 26.0572L62.0853 28.461L64.077 29.4912L65.2445 30.2466L65.9313 30.796L66.7555 31.5515L67.5109 32.5817L68.0604 33.6805L68.3351 34.7107L68.4037 35.1915V36.7024L68.1977 37.9386L67.3736 40.411L66.0687 44.051L64.6951 47.897L62.0853 55.1769L59.3382 62.8689L58.308 65.6847L57.5526 67.127L56.7971 68.2258L56.0416 69.1873L55.2175 70.0801L54.5307 70.7669L53.5692 71.5224L52.539 72.2092L51.5088 72.7586V72.8273L68.1977 74.4069L74.6535 75.025L75.2716 75.231L75.615 75.5057L75.7523 75.7804L75.6837 76.3299L75.3403 76.7419L74.8595 76.948L64.3517 79.3517L58.7888 80.5879L57.1405 80.9313L56.385 81H49.3798L42.9927 80.794L35.3007 80.5192L33.9958 80.4506L32.7596 80.2445L31.5921 79.9011L30.5619 79.4891L28.7076 78.5276L27.128 77.6348L23.5567 75.6431L21.9771 74.7503L18.2685 72.6899L16.6889 71.7971L14.8345 70.7669L9.54631 67.8137L7.9667 66.9209L6.11238 65.8907L4.39542 64.9292L3.43392 64.3798L2.60978 63.7617L1.71696 62.8689L1.09886 61.9761L0.549428 60.8772L0.137357 59.5036L0 58.8169V57.512L0.206035 56.4818L0.89282 54.2154L2.47242 49.2019L5.21956 40.411L6.73049 35.6035L8.10406 31.2081L8.99688 28.3923L9.54631 26.9501L10.0957 25.8512L10.7138 24.821L11.4006 23.9282L12.1561 23.1041L12.6368 22.6233L13.8044 21.7305L15.1093 20.975L16.6889 20.2882L19.7794 19.1207L26.0291 16.717L29.1197 15.5494L30.4246 15.206L31.7981 15ZM32.0042 17.0604L30.9053 17.1977L29.8751 17.4724L26.3039 18.846L16.8262 22.486L16.0708 22.9667L15.6587 23.4475L15.5213 23.7222V24.4776L15.9334 25.1644L16.6202 25.7138L18.1998 26.538L19.7107 27.3621L22.1145 28.5983L23.6254 29.4225L25.7544 30.5213L27.2653 31.3455L29.3944 32.4443L30.9053 33.2685L33.1717 34.436L34.6826 35.2601L36.949 36.4277L38.4599 37.2518L40.7263 38.4194L42.2373 39.2435L44.5036 40.411L45.6025 40.7544L46.77 40.9605L48.0062 41.0291L49.1051 40.9605L50.4787 40.6857L51.5775 40.2737L53.2258 39.4495L55.1488 38.5567L58.102 37.1145L60.025 36.2216L63.2529 34.642L63.9396 34.0926L64.283 33.5432L64.3517 33.3371V32.6504L64.0083 31.9636L63.3902 31.4142L62.2914 30.796L60.7804 30.0406L59.4755 29.3538L56.7971 27.9802L51.7149 25.3704L46.6327 22.7607L44.7784 21.7992L42.0999 20.4256L37.4298 18.0219L36.5369 17.6098L35.2321 17.2664L33.7211 17.0604H32.0042ZM13.5983 26.8127L12.7742 27.0874L12.0874 27.5682L11.6067 28.0489L11.1259 28.873L10.0271 32.307L8.65349 36.7024L5.76899 45.9053L4.39542 50.3007L2.8845 55.1082L2.26639 57.1686L2.19771 57.718V58.5421L2.40375 59.5723L2.74714 60.4651L3.22789 61.2893L3.84599 61.9761L4.4641 62.5255L11.4693 66.4402L13.0489 67.333L15.0406 68.4318L16.6202 69.3247L18.4745 70.3548L20.1915 71.3163L21.7711 72.2092L23.7627 73.308L25.3424 74.2008L26.5786 74.8876L28.1582 75.7804L30.0125 76.8106L31.3174 77.4974L32.3476 77.7034L33.1717 77.6348L33.9958 77.36L34.6826 76.8793L35.1634 76.3985L35.6441 75.5744L36.6743 72.6212L38.1165 68.4318L39.1467 65.4787L40.2456 62.2508L41.2758 59.2976L42.7867 54.9022L43.8169 51.949L45.3278 47.5536L45.6025 46.4547V45.4246L45.3965 44.4631L45.0531 43.6389L44.5723 42.8148L43.9542 42.128L43.0614 41.5099L41.2071 40.5484L39.6962 39.7242L37.5671 38.6254L36.0562 37.8012L33.7898 36.6337L32.2789 35.8096L30.1498 34.7107L28.6389 33.8866L26.5099 32.7877L24.999 31.9636L22.5952 30.7274L21.0843 29.9032L18.9553 28.8044L17.4443 27.9802L15.7274 27.0874L14.8345 26.8127H13.5983Z" fill="#2E2A29"></path><path d="M12.843 41.5781L13.1864 41.6468L14.9721 42.6083L15.5902 43.0204L15.3841 45.4928L15.0407 49.2014L14.9721 49.8882L15.5902 49.2014L16.2083 48.446L17.0324 47.4845L17.6505 46.729L18.4747 45.7675L19.0928 45.012L19.4362 45.0807L21.0158 45.9735L21.8399 46.4543L21.7026 48.1713L21.2905 52.498L21.1531 53.3221L21.4965 53.0474L22.1146 52.292L22.9388 51.3305L23.6942 50.4376L24.3123 49.6822L25.1365 48.7207L25.3425 48.446L25.7546 48.5833L27.5402 49.5448L29.1198 50.4376L30.9055 51.3991L32.4851 52.292L34.2707 53.2535L35.5069 53.9402L35.713 54.0776L35.6443 54.4897L34.9575 56.2066L34.3394 56.4813L32.4164 57.1681L32.8285 57.6489L33.3092 58.267L33.6526 59.0225L33.79 59.5719V60.396L33.5839 61.2202L33.2405 61.9069L32.7598 62.4564L32.073 62.8684L31.3175 63.0745H29.944L28.8451 62.7998L27.7463 62.319L26.7848 61.7696L25.8919 61.0141L25.4112 60.6021L24.7931 59.8466L24.2437 59.0911L23.7629 58.1296L23.6942 57.6489L25.7546 56.7561L26.0293 56.8247L26.6474 57.9923L27.2655 58.6791V58.8164L27.5402 58.9538L28.021 59.3658L28.7078 59.7779L29.4632 60.0526L29.8066 60.1213H30.356L30.7681 59.8466L30.8368 59.7092V59.0911L30.5621 58.6791L30.0126 58.1983L28.6391 57.4428L28.7764 56.0693L28.9138 55.5885L31.1802 54.8331H31.4549L31.2489 54.627L29.6006 53.7342L28.021 52.8414L27.1282 52.3606L27.1968 52.0172L27.6089 50.6437L27.1968 50.9871L26.7161 51.5365L25.9606 52.3606L25.4799 52.9101L24.5871 53.8716L24.1063 54.421L23.2822 55.3138L22.5267 56.138L22.0459 56.6874L21.0844 57.7176L20.0543 57.1681L18.5433 56.344L18.406 56.2066L18.612 53.2535L18.8867 49.5448L18.2 50.3003L17.5818 51.0558L16.7577 52.0172L16.1396 52.7727L15.2468 53.8029L14.9034 54.215L14.56 54.1463L12.9117 53.2535L12.2249 52.8414L12.1562 52.5667L12.7744 41.9215L12.843 41.5781Z" fill="#2E2A29"></path></g></svg>