<svg xmlns="http://www.w3.org/2000/svg" width="46" height="49" viewBox="0 0 46 49" fill="none"><mask id="mask0_1401_1484" style="mask-type:alpha" maskUnits="userSpaceOnUse" x="0" y="0" width="46" height="49"><rect width="46" height="49" fill="#D9D9D9"></rect></mask><g mask="url(#mask0_1401_1484)"><path d="M23 2C10.2962 2 0 12.2962 0 25C0 37.6996 10.2962 48 23 48C35.7038 48 46 37.7038 46 25C45.9959 12.2962 35.6996 2 23 2ZM17.251 34.5802H13.4198V15.4157H17.251V34.5802ZM32.5802 34.5802H21.0823V30.749H32.5802V34.5802ZM32.5802 26.9135H21.0823V23.0823H32.5802V26.9135ZM32.5802 19.2469H21.0823V15.4157H32.5802V19.2469Z" fill="url(#paint0_linear_1401_1484)"></path></g><defs><linearGradient id="paint0_linear_1401_1484" x1="32.5538" y1="4.12308" x2="10.9692" y2="45.1692" gradientUnits="userSpaceOnUse"><stop stop-color="#DC3160"></stop><stop offset="0.502373" stop-color="#932E6A"></stop><stop offset="1" stop-color="#572471"></stop></linearGradient></defs></svg>