<svg xmlns="http://www.w3.org/2000/svg" width="39" height="49" viewBox="0 0 39 49" fill="none"><mask id="mask0_1401_1578" style="mask-type:alpha" maskUnits="userSpaceOnUse" x="0" y="0" width="39" height="49"><rect width="39" height="49" fill="#D9D9D9"></rect></mask><g mask="url(#mask0_1401_1578)"><path d="M35 4H4C1.79086 4 0 5.79086 0 8V39C0 41.2091 1.79086 43 4 43H35C37.2091 43 39 41.2091 39 39V8C39 5.79086 37.2091 4 35 4Z" fill="#353535"></path><mask id="mask1_1401_1578" style="mask-type:alpha" maskUnits="userSpaceOnUse" x="0" y="4" width="39" height="39"><path d="M35 4H4C1.79086 4 0 5.79086 0 8V39C0 41.2091 1.79086 43 4 43H35C37.2091 43 39 41.2091 39 39V8C39 5.79086 37.2091 4 35 4Z" fill="#353535"></path></mask><g mask="url(#mask1_1401_1578)"><path d="M39 4L17 25.5L0 43H39V4Z" fill="#252525"></path><path d="M15.9357 12.0466L15.8514 11.7592H15.5519H12.6252H12.0893L12.2417 12.273L13.5461 16.6691L11.2331 24.5398L7.57484 12.0468L7.49063 11.7592H7.19096H4.26562H3.72233L3.88367 12.278L10.5705 33.7797L10.658 34.061H10.9525H11.2321H11.5304L11.6155 33.7751L15.4112 21.03L19.2101 33.7749L19.2953 34.0606H19.5934H19.8717H20.1687L20.2546 33.7764L25.9034 15.0884H29.8303L25.5333 21.5391L25.4663 21.6399V21.7609V22.2775V22.6775H25.8663H27.7905C29.0479 22.6775 29.994 23.422 30.6225 24.2468L30.6242 24.2491C30.8608 24.555 31.0602 25.0433 31.1988 25.6477C31.3357 26.2445 31.4056 26.9207 31.4056 27.574C31.4056 28.7442 31.1489 29.7205 30.6562 30.5236C30.165 31.3218 29.6157 31.6451 29.0164 31.6451C28.3699 31.6451 27.8194 31.4357 27.3476 31.0098L27.3473 31.0095C26.8536 30.5648 26.442 29.9477 26.1244 29.135L25.9757 28.7547L25.5986 28.9111L23.3107 29.86L22.9686 30.0019L23.0838 30.3539C23.5662 31.8276 24.3073 33.0162 25.3393 33.9022L25.3397 33.9026C26.3797 34.7926 27.5862 35.2414 28.9825 35.2414C30.8412 35.2414 32.3281 34.4806 33.4863 32.9922L33.4863 32.9922C34.6426 31.5059 35.1343 29.6902 35.1343 27.5767C35.1343 25.8335 34.6003 24.3176 33.8265 23.0368L33.8263 23.0365C33.0945 21.8282 31.8276 20.9819 30.4849 20.4724L33.8615 13.7518L33.9041 13.6671V13.5723V12.1592V11.7592H33.5041H26.562H23.6359H23.3364L23.2521 12.0466L19.5935 24.5177L15.9357 12.0466Z" fill="white" stroke="#0B0B0B" stroke-width="0.8"></path></g><path d="M4 4.5H35C36.933 4.5 38.5 6.067 38.5 8V39C38.5 40.933 36.933 42.5 35 42.5H4C2.067 42.5 0.5 40.933 0.5 39V8C0.5 6.067 2.067 4.5 4 4.5Z" stroke="#161616"></path></g></svg>