<svg xmlns="http://www.w3.org/2000/svg" width="60" height="82" viewBox="0 0 60 82" fill="none"><mask id="mask0_1400_1318" style="mask-type:alpha" maskUnits="userSpaceOnUse" x="0" y="0" width="60" height="82"><rect width="60" height="82" fill="#D9D9D9"></rect></mask><g mask="url(#mask0_1400_1318)"><path d="M32.8501 54.7054C30.4218 55.6718 28.1745 56.1931 26.5406 56.1067C24.4242 55.9911 23.5205 55.0753 23.5173 54.731C23.5157 54.4858 24.3046 53.7177 26.7405 53.5439C27.1225 53.5172 27.5257 53.5002 27.9408 53.5002C29.6052 53.5002 31.4575 53.7688 32.8501 54.7054ZM37.3927 75.7598C28.4885 78.1692 19.0791 75.9469 13.4177 70.0937C9.41148 65.9519 8.06828 60.7687 9.73153 55.8733C13.0776 46.0238 29.1134 40.1119 39.3619 40.1119C39.4722 40.1119 39.5819 40.1124 39.6906 40.114C43.5094 40.162 46.1539 41.0676 46.5924 42.4786C46.838 43.268 46.2572 44.6502 45.0384 46.1747C42.8878 48.8649 39.62 51.303 36.2962 53.0913C34.189 50.8233 30.8087 49.7913 26.4857 50.0967C21.6731 50.4395 19.9767 52.7305 19.9941 54.7603C20.0131 56.9735 22.2007 59.3322 26.345 59.5582C28.8531 59.6925 31.8509 58.9345 34.8611 57.6424C35.3029 59.3428 35.166 61.5736 34.4433 64.2334C34.1928 65.1551 34.7514 66.1028 35.6914 66.3485C36.6303 66.5943 37.5965 66.0463 37.8475 65.1236C38.8299 61.5096 38.9027 58.4782 38.0692 56.07C41.9994 53.9064 45.6323 51.0322 47.8107 48.3079C49.8548 45.7509 50.5786 43.4503 49.9629 41.4695C49.5157 40.0314 48.4627 38.8907 46.8761 38.0815C46.9972 25.0946 49.344 16.1241 51.4566 16.1119H51.4697C51.7799 16.1119 52.2 16.1801 52.7145 16.6817C54.431 18.3554 56.4763 23.85 56.4763 40.5229C56.4763 56.974 55.0407 70.9806 37.3927 75.7598ZM20.5831 37.3897C20.5809 37.3465 20.5864 37.3038 20.5809 37.2601C20.5733 37.1978 20.5657 37.1317 20.5576 37.0677C20.3044 33.5214 20.738 30.7267 21.8405 29.2278C22.3882 28.4837 23.075 28.085 24.0025 27.973C25.2957 27.82 26.3477 28.1473 27.2312 28.9799C28.9423 30.5934 29.941 34.0822 29.8459 37.8987C26.9122 38.6087 23.9085 39.6199 21.0547 40.9216C20.8298 39.6828 20.6744 38.5026 20.5831 37.3897ZM35.7599 31.3679C36.4087 30.6755 37.2362 30.3386 38.292 30.3386C39.9699 30.3386 40.6991 30.877 41.1023 31.2821C42.0662 32.2506 42.5856 34.1291 42.6568 36.8646C41.7543 36.742 40.7811 36.6706 39.7357 36.6578C39.6167 36.6562 39.4982 36.6557 39.3782 36.6557C37.7877 36.6557 36.0544 36.7911 34.245 37.049C34.1667 34.5422 34.7009 32.4996 35.7599 31.3679ZM55.1988 14.2302C54.142 13.1993 52.852 12.6551 51.4664 12.6551H51.4355C46.7935 12.6823 45.1922 19.4764 44.3907 24.5845C44.156 26.0834 43.9745 27.6132 43.8332 29.094C43.7642 29.0183 43.6963 28.9399 43.624 28.8674C42.3134 27.5503 40.5192 26.8824 38.292 26.8824C36.2527 26.8824 34.4797 27.6244 33.1648 29.0295C32.7898 29.4303 32.4676 29.8946 32.1764 30.3925C31.5955 28.893 30.7832 27.5354 29.6731 26.488C28.0234 24.9331 25.9157 24.2599 23.5727 24.5424C21.6845 24.77 20.0973 25.69 18.9829 27.2049C18.9785 27.2118 18.9747 27.2193 18.9698 27.2252C17.0393 17.7797 13.3688 6.37432 6.9647 7.02676C5.38894 7.18934 3.99629 8.02141 2.93836 9.43183C-2.00193 16.0202 0.316072 35.6114 2.464 46.1485C2.6319 46.9699 3.36707 47.5387 4.18973 47.5387C4.30438 47.5387 4.42066 47.5275 4.53749 47.5046C5.4911 47.3175 6.10999 46.4071 5.91927 45.471C2.32218 27.8275 3.12473 15.0165 5.77691 11.4803C6.40015 10.6493 6.96362 10.5022 7.33365 10.4643C10.8688 10.1035 15.2239 22.2205 17.0621 37.5139C17.2093 39.4077 17.5017 41.1812 17.7837 42.5596C17.7848 42.566 17.788 42.5719 17.7891 42.5782C12.4951 45.5718 8.12642 49.665 6.38874 54.7805C4.30004 60.9259 5.93068 67.3752 10.8617 72.4731C15.676 77.4496 22.7788 80.1707 30.2349 80.1707C32.9175 80.1707 35.6469 79.8179 38.33 79.0913C58.3427 73.6725 60 57.7554 60 40.5229C60 25.779 58.4742 17.4247 55.1988 14.2302Z" fill="#15181D"></path></g></svg>