<svg xmlns="http://www.w3.org/2000/svg" width="63" height="82" viewBox="0 0 63 82" fill="none"><mask id="mask0_1400_1252" style="mask-type:alpha" maskUnits="userSpaceOnUse" x="0" y="0" width="63" height="82"><rect width="63" height="82" fill="#D9D9D9"></rect></mask><g mask="url(#mask0_1400_1252)"><path d="M62.9601 68.0304H11.2848C5.10001 68.0304 0.0400391 62.9704 0.0400391 56.7872V25.2657C0.0400391 19.0809 5.10001 14.0225 11.2832 14.0225H51.7139C57.8986 14.0225 62.9571 19.0824 62.9571 25.2657V68.0319L62.9601 68.0304Z" fill="url(#paint0_linear_1400_1252)"></path><g filter="url(#filter0_d_1400_1252)"><path d="M47.9612 17.9084L41.2356 19.3497L29.9448 44.7341L22.6921 22.0188H11.9053L23.9828 53.0409C25.0108 55.6826 25.0108 58.6137 23.9828 61.2555C22.9487 63.9061 30.9174 48.3282 27.7859 49.6174C27.7859 49.6174 33.144 64.619 33.3775 64.1442C34.4547 61.9546 35.478 59.4869 36.4783 56.6964L52.6125 13.2295C52.6125 13.2295 48.1641 17.9115 47.9643 17.9115L47.9612 17.9084Z" fill="#A61E69"></path></g><path d="M44.8667 3.11426L29.7221 45.1798L22.4694 22.4645H11.6826L23.7602 53.4866C24.7882 56.1283 24.7882 59.0595 23.7602 61.7012C22.4111 65.1631 20.1646 68.1241 14.6882 68.8601V78.0566C25.349 78.0566 31.1112 71.5031 36.2542 57.1406L56.408 3.11426H44.8682H44.8667Z" fill="url(#paint1_linear_1400_1252)"></path><path d="M14.6881 79.0002H13.7447V68.0336L14.5621 67.9229C19.9156 67.2038 21.7718 64.1998 22.8797 61.3556C23.8262 58.9293 23.8262 56.2556 22.8797 53.8263L10.3027 21.5211H23.1593L29.7759 42.245L44.2044 2.1709H57.7663L37.1377 57.4695C34.3902 65.1448 31.5522 70.2893 28.2086 73.6498C24.5776 77.2992 20.2813 79.0002 14.6881 79.0002ZM15.6316 69.6654V77.0948C20.2321 76.9135 23.8231 75.3831 26.8702 72.3191C30.0094 69.163 32.7092 64.2397 35.3644 56.8226L55.0481 4.05783H45.5305L29.6699 48.1133L21.781 23.4065H13.064L24.6406 53.1425C25.7577 56.0129 25.7577 59.1736 24.6406 62.0409C23.4621 65.0618 21.3723 68.6098 15.6331 69.6639L15.6316 69.6654Z" fill="white"></path></g><defs><filter id="filter0_d_1400_1252" x="10.9618" y="12.286" width="44.4809" height="54.6996" filterUnits="userSpaceOnUse" color-interpolation-filters="sRGB"><feGaussianBlur stdDeviation="0.943463"></feGaussianBlur></filter><linearGradient id="paint0_linear_1400_1252" x1="31.5001" y1="68.0304" x2="31.5001" y2="14.0209" gradientUnits="userSpaceOnUse"><stop stop-color="#710037"></stop><stop offset="0.04" stop-color="#6B003D"></stop><stop offset="0.16" stop-color="#80004A"></stop><stop offset="0.29" stop-color="#970858"></stop><stop offset="0.44" stop-color="#AB0D63"></stop><stop offset="0.64" stop-color="#AF1269"></stop><stop offset="1" stop-color="#B1136C"></stop></linearGradient><linearGradient id="paint1_linear_1400_1252" x1="34.0461" y1="1.09979" x2="34" y2="63" gradientUnits="userSpaceOnUse"><stop stop-color="#62B209"></stop><stop offset="0.715" stop-color="#5EAF0A"></stop><stop offset="0.89249" stop-color="#188016"></stop><stop offset="1" stop-color="#00701A"></stop></linearGradient></defs></svg>