<svg xmlns="http://www.w3.org/2000/svg" width="95" height="82" viewBox="0 0 95 82" fill="none"><mask id="mask0_1400_1353" style="mask-type:alpha" maskUnits="userSpaceOnUse" x="0" y="0" width="95" height="82"><rect width="95" height="82" fill="#D9D9D9"></rect></mask><g mask="url(#mask0_1400_1353)"><path d="M54.1201 20H73.8789V57.0158L73.1131 57.5264L71.0198 58.8539L69.7434 59.6708L66.2205 61.9173L63.8208 63.4489L60.2979 65.6954L57.8983 67.2271L55.6518 68.6567L55.1412 68.5035L54.1712 68.0951L54.1201 68.044V20Z" fill="url(#paint0_linear_1400_1353)"></path><path d="M93.7905 49.7656H94.3521L94.25 50.072L93.7394 51.042L92.8715 52.7269L88.5317 61.1001L87.8169 62.4787L87.2042 63.6019L87 63.3466L86.3363 62.3255L85.6215 61.2022L84.8046 59.9258L84.4472 59.3642L83.8856 59.7216L82.9666 60.2832L81.9454 60.947L79.5458 62.4787L75.8697 64.8272L72.1937 67.1758L68.5176 69.5244L64.8416 71.873L61.1655 74.2216L57.4894 76.5702L56.3662 77.285L56.213 77.3871L55.8556 77.336L53.8134 76.4681L51.618 75.5491L44.9296 72.741L38.2412 69.9329L33.7482 68.0438L31.4507 67.0737L29.9701 66.461L29.6127 66.5121L27.5704 67.3801L2.19542 77.9487H2.04225L1.42958 76.5191L0.56162 74.4258L0 73.0984V72.9452L29.7658 60.5385L30.0722 60.5896L34.463 62.4276L38.956 64.3167L45.6444 67.1248L50.1373 69.0139L54.6303 70.903L55.4982 71.2603L55.7535 71.2093L58.1532 69.6776L63.1056 66.5121L69.3345 62.5297L74.287 59.3642L79.2394 56.1987L80.3627 55.4839L81.3838 54.8202H81.4859L81.2817 54.4118L80.7201 53.5438L79.0863 50.991L78.7799 50.4804L79.0352 50.4294L93.7905 49.7656Z" fill="url(#paint1_linear_1400_1353)"></path><path d="M32.5742 33.5303H52.333V67.2785L52.0777 67.2275L45.3894 64.4194L40.8964 62.5303L36.4034 60.6412L34.1059 59.6711L32.6253 59.0584L32.5742 59.0074V33.5303Z" fill="url(#paint2_linear_1400_1353)"></path><path d="M11.0804 47.0605H30.7881V58.2419L29.9712 57.9355L29.6138 57.9866L27.5715 58.8546L13.2247 64.8282L11.1314 65.6961H11.0293V47.1116L11.0804 47.0605Z" fill="url(#paint3_linear_1400_1353)"></path></g><defs><linearGradient id="paint0_linear_1400_1353" x1="63.9995" y1="20" x2="64" y2="66" gradientUnits="userSpaceOnUse"><stop offset="0.298425" stop-color="#7482C7"></stop><stop offset="0.946389" stop-color="#38478F"></stop></linearGradient><linearGradient id="paint1_linear_1400_1353" x1="7" y1="75" x2="91" y2="56" gradientUnits="userSpaceOnUse"><stop stop-color="#3C425C"></stop><stop offset="1" stop-color="#262B3E"></stop></linearGradient><linearGradient id="paint2_linear_1400_1353" x1="42.4536" y1="33.5303" x2="42.4539" y2="65.4358" gradientUnits="userSpaceOnUse"><stop stop-color="#7482C7"></stop><stop offset="0.946389" stop-color="#38478F"></stop></linearGradient><linearGradient id="paint3_linear_1400_1353" x1="20.9087" y1="47.0605" x2="20.9088" y2="64.6786" gradientUnits="userSpaceOnUse"><stop stop-color="#7482C7"></stop><stop offset="0.946389" stop-color="#38478F"></stop></linearGradient></defs></svg>