<svg xmlns="http://www.w3.org/2000/svg" width="46" height="49" viewBox="0 0 46 49" fill="none"><mask id="mask0_1401_1470" style="mask-type:alpha" maskUnits="userSpaceOnUse" x="0" y="0" width="46" height="49"><rect width="46" height="49" fill="#D9D9D9"></rect></mask><g mask="url(#mask0_1401_1470)"><path fill-rule="evenodd" clip-rule="evenodd" d="M46 25C46 37.7042 35.7042 48 23 48C10.2958 48 0 37.7042 0 25C0 12.2958 10.2958 2 23 2C35.7042 2 46 12.2958 46 25ZM14.5812 5.07771C13.3045 5.61596 12.0693 6.29223 10.91 7.07201C9.76448 7.84488 8.68796 8.73507 7.70807 9.70807C6.73507 10.688 5.84488 11.7645 5.07201 12.91C4.29223 14.0693 3.61597 15.3045 3.07771 16.5812C1.946 19.2517 1.38014 22.081 1.38014 25C1.38014 27.919 1.946 30.7483 3.07771 33.4188C3.61597 34.6955 4.29223 35.9307 5.07201 37.09C5.84488 38.2355 6.73507 39.312 7.70807 40.2919C8.68796 41.2649 9.76448 42.1551 10.91 42.928C12.0693 43.7078 13.3045 44.384 14.5812 44.9223C17.2517 46.054 20.081 46.6199 23 46.6199C25.919 46.6199 28.7483 46.054 31.4188 44.9223C32.6955 44.384 33.9307 43.7078 35.09 42.928C36.2355 42.1551 37.312 41.2649 38.2919 40.2919C39.2649 39.312 40.1551 38.2355 40.928 37.09C41.7078 35.9307 42.384 34.6955 42.9223 33.4188C44.054 30.7483 44.6199 27.919 44.6199 25C44.6199 22.081 44.054 19.2517 42.9223 16.5812C42.384 15.3045 41.7078 14.0693 40.928 12.91C40.1551 11.7645 39.2649 10.688 38.2919 9.70807C37.312 8.73507 36.2355 7.84488 35.09 7.07201C33.9307 6.29223 32.6955 5.61596 31.4188 5.07771C28.7483 3.94599 25.919 3.38014 23 3.38014C20.081 3.38014 17.2517 3.94599 14.5812 5.07771Z" fill="url(#paint0_linear_1401_1470)"></path><path d="M3.82934 24.9995C3.82934 32.5833 8.23889 39.1459 14.6358 42.2512L5.49242 17.1948C4.42971 19.5824 3.82934 22.2185 3.82934 24.9995ZM35.9383 24.0334C35.9383 21.6595 35.0895 20.0241 34.358 18.7474C33.385 17.1672 32.4741 15.8284 32.4741 14.2482C32.4741 12.4885 33.8128 10.8461 35.6967 10.8461C35.7795 10.8461 35.8624 10.8599 35.9452 10.8668C32.5362 7.74084 27.9887 5.82934 22.9995 5.82934C16.3058 5.82934 10.4126 9.26589 6.98295 14.469C7.4315 14.4828 7.85935 14.4966 8.21819 14.4966C10.2194 14.4966 13.3247 14.2482 13.3247 14.2482C14.3598 14.1861 14.484 15.7042 13.4489 15.8284C13.4489 15.8284 12.4069 15.9527 11.2545 16.0148L18.238 36.772L22.4336 24.1921L19.4456 16.0148C18.4105 15.9527 17.4306 15.8284 17.4306 15.8284C16.4024 15.7663 16.5197 14.1861 17.5548 14.2482C17.5548 14.2482 20.7222 14.4966 22.6061 14.4966C24.6073 14.4966 27.7126 14.2482 27.7126 14.2482C28.7477 14.1861 28.8651 15.7042 27.8369 15.8284C27.8369 15.8284 26.7948 15.9527 25.6424 16.0148L32.5707 36.6133L34.5443 30.3475C35.4276 27.6148 35.9383 25.6688 35.9383 24.0334ZM23.3376 26.6763L17.5824 43.3898C19.3007 43.8935 21.1156 44.1696 22.9995 44.1696C25.2284 44.1696 27.3745 43.7831 29.3619 43.0793C29.3136 42.9965 29.2653 42.9136 29.2308 42.817L23.3376 26.6763ZM39.8164 15.8008C39.8992 16.415 39.9476 17.0706 39.9476 17.7744C39.9476 19.7204 39.5818 21.9079 38.4915 24.6406L32.6328 41.568C38.3328 38.2419 42.1696 32.0727 42.1696 24.9995C42.1696 21.6664 41.3139 18.5335 39.8164 15.8008Z" fill="url(#paint1_linear_1401_1470)"></path></g><defs><linearGradient id="paint0_linear_1401_1470" x1="23" y1="2" x2="24" y2="47" gradientUnits="userSpaceOnUse"><stop stop-color="#0588BF"></stop><stop offset="1" stop-color="#006DA1"></stop></linearGradient><linearGradient id="paint1_linear_1401_1470" x1="23" y1="2" x2="24" y2="47" gradientUnits="userSpaceOnUse"><stop stop-color="#0588BF"></stop><stop offset="1" stop-color="#006DA1"></stop></linearGradient></defs></svg>