<svg xmlns="http://www.w3.org/2000/svg" width="65" height="82" viewBox="0 0 65 82" fill="none"><mask id="mask0_1398_936" style="mask-type:alpha" maskUnits="userSpaceOnUse" x="0" y="0" width="65" height="82"><rect width="65" height="82" fill="#D9D9D9"></rect></mask><g mask="url(#mask0_1398_936)"><path d="M32.5 5C14.549 5 0 19.549 0 37.5C0 55.445 14.549 70 32.5 70C50.451 70 65 55.451 65 37.5C64.9941 19.549 50.445 5 32.5 5ZM24.3765 51.0372H18.9628V23.9569H24.3765V51.0372ZM46.0372 51.0372H29.7901V45.6235H46.0372V51.0372ZM46.0372 40.2038H29.7901V34.7901H46.0372V40.2038ZM46.0372 29.3706H29.7901V23.9569H46.0372V29.3706Z" fill="url(#paint0_linear_1398_936)"></path></g><defs><linearGradient id="paint0_linear_1398_936" x1="46" y1="8" x2="15.5" y2="66" gradientUnits="userSpaceOnUse"><stop stop-color="#D02C5E"></stop><stop offset="0.458173" stop-color="#932E6A"></stop><stop offset="1" stop-color="#572471"></stop></linearGradient></defs></svg>