<svg xmlns="http://www.w3.org/2000/svg" width="39" height="49" viewBox="0 0 39 49" fill="none"><mask id="mask0_1401_1686" style="mask-type:alpha" maskUnits="userSpaceOnUse" x="0" y="0" width="39" height="49"><rect width="39" height="49" fill="#D9D9D9"></rect></mask><g mask="url(#mask0_1401_1686)"><path d="M38.5592 29.9014C38.5441 29.8343 38.5261 29.7708 38.5073 29.7116C38.4948 29.6723 38.4798 29.6337 38.4625 29.5967C38.4289 29.5099 38.3916 29.4244 38.3455 29.3451L38.3446 29.3436C38.2495 29.1788 38.1216 29.0275 37.9714 28.9078C37.8218 28.7883 37.6533 28.703 37.4912 28.6525L37.4859 28.6507C37.3132 28.5976 37.1501 28.5806 37.0048 28.5799C36.9622 28.5801 36.9231 28.5834 36.884 28.5862C36.9198 27.785 36.5861 27.2407 36.39 26.9936C36.3991 26.9807 36.4089 26.9677 36.4177 26.9553C36.5746 26.7348 36.7041 26.5277 36.8078 26.3245L36.8271 26.2842C36.9077 26.1057 36.9501 25.9304 36.9687 25.7733C36.9846 25.6383 36.9825 25.5192 36.9744 25.4117L36.9757 25.4117L36.9756 25.4051L36.9734 25.3899L36.9719 25.3566L36.9693 25.3571L36.9644 25.3203L36.9654 25.3201L36.9618 25.2983C36.9586 25.2766 36.9549 25.2543 36.9505 25.2306C36.9435 25.1869 36.9349 25.1419 36.9234 25.0927C36.8685 24.857 36.7678 24.5559 36.5491 24.2503C36.44 24.0981 36.3002 23.9467 36.127 23.8146C35.9547 23.6827 35.7494 23.5715 35.5233 23.4954L35.5245 23.4957C35.5081 23.4901 35.495 23.4843 35.4797 23.4789C34.9376 22.9321 34.3612 22.5375 33.8618 22.2496C33.6027 22.1004 33.3645 21.98 33.1625 21.8832C32.9624 21.7867 32.795 21.7123 32.7009 21.6665L32.7018 21.6668C32.4864 21.5633 32.33 21.506 32.2554 21.4805C32.0826 21.4152 31.9531 21.3614 31.8736 21.3218C31.8116 21.2909 31.7801 21.2695 31.7682 21.2605L31.7616 21.2546C31.7604 21.2533 31.7523 21.2428 31.7364 21.2024C31.7197 21.1622 31.6971 21.0924 31.6737 20.9898C31.6361 20.8286 31.5973 20.5895 31.5565 20.2719C31.4905 19.7613 31.4178 19.0531 31.3007 18.0968C31.2642 17.7927 31.2143 17.509 31.1534 17.2441C31.0558 16.8195 30.9281 16.4422 30.773 16.1075L30.7723 16.1057C30.7377 16.0294 30.7002 15.9552 30.6618 15.8823L30.6614 15.8817L30.6607 15.8809C30.6319 15.8265 30.6079 15.786 30.593 15.76L30.5939 15.7615C30.5662 15.7134 30.5381 15.666 30.5078 15.6183L30.5067 15.6161C30.4918 15.593 30.4728 15.5629 30.4482 15.5258L30.4477 15.5249L30.4473 15.5244C30.4006 15.4543 30.3486 15.3793 30.2854 15.2998L30.2685 15.2787L30.2374 15.2413L30.2156 15.2164C30.1029 15.0907 29.9877 14.9784 29.8699 14.8758C29.7814 14.6674 29.6378 14.3615 29.431 14.022C29.2479 13.7233 29.0163 13.3973 28.7161 13.0891C28.6121 12.9831 28.4971 12.8802 28.3738 12.7815L28.401 12.7402C28.439 12.6818 29.3454 11.2916 29.9418 9.59581C31.0531 6.43504 30.1801 4.79242 29.2524 3.97108L29.2261 3.94819L29.1989 3.92714C28.3276 3.25986 27.2562 2.9598 26.0141 3.03567C23.4418 3.19232 20.8291 4.95664 20.1492 5.44666L18.5147 4.20277L18.5085 4.19813C18.364 4.08879 18.2091 3.99597 18.0472 3.91932C17.8843 3.84254 17.7139 3.78205 17.5386 3.73734C17.1867 3.64754 16.814 3.61986 16.427 3.64346C15.6512 3.69168 14.8168 3.94125 13.9351 4.35151C12.6141 4.96866 11.1848 5.95293 9.738 7.23441C8.29209 8.51607 6.83084 10.0957 5.46378 11.9061C3.79322 14.1181 2.49254 16.37 1.62484 18.4388C1.19152 19.4734 0.865974 20.4624 0.658408 21.3815C0.451731 22.301 0.361535 23.1505 0.407823 23.9124C0.441728 24.4662 0.547902 24.9756 0.744604 25.4267C0.830416 25.6241 0.935487 25.8094 1.05796 25.9808C1.21505 26.2011 1.40178 26.3977 1.61904 26.5619L1.62441 26.5659L3.5093 27.9228L3.50312 27.9402C3.49159 27.9733 3.48125 28.0065 3.4701 28.0398C3.45416 28.0891 3.43806 28.1384 3.42316 28.188C3.41329 28.2219 3.4037 28.2557 3.39465 28.2896C3.38074 28.34 3.3674 28.39 3.35473 28.4408C3.34619 28.4748 3.33832 28.5089 3.33067 28.5432C3.31872 28.5944 3.30767 28.646 3.29766 28.6978C3.29094 28.7318 3.28457 28.7659 3.27791 28.8002C3.26862 28.8524 3.26051 28.9055 3.25215 28.9582C3.24728 28.9924 3.24208 29.0266 3.23772 29.0608C3.23069 29.1144 3.22499 29.1681 3.21938 29.2222C3.21772 29.2373 3.21565 29.2519 3.21415 29.2669C3.21241 29.2859 3.21105 29.3052 3.20946 29.3242C3.20455 29.3793 3.20166 29.4348 3.19862 29.4903C3.19686 29.5234 3.19449 29.5567 3.19316 29.5904C3.19256 29.6147 3.1919 29.6386 3.19149 29.663C3.19074 29.6971 3.19094 29.7309 3.19056 29.7652C3.19052 29.796 3.18955 29.8271 3.19001 29.858C3.19079 29.9268 3.19369 29.9964 3.19682 30.0655C3.19815 30.0859 3.19793 30.106 3.19929 30.1265L3.19969 30.1323L3.20147 30.1506C3.2044 30.1956 3.20883 30.2406 3.21255 30.2862C3.21898 30.357 3.22642 30.4278 3.23591 30.499C3.2394 30.5301 3.24384 30.5619 3.24825 30.5935C3.25179 30.6178 3.25448 30.642 3.25809 30.6666C3.26597 30.7159 3.27586 30.7653 3.28488 30.8154C3.2904 30.845 3.29563 30.8748 3.30159 30.905C3.30526 30.9228 3.3079 30.9405 3.31156 30.9583L3.31344 30.9684C3.32037 31.0002 3.32765 31.0321 3.33435 31.0636C3.34252 31.0985 3.35213 31.1322 3.36084 31.1665C3.36712 31.1921 3.37259 31.2179 3.37896 31.2432C3.38547 31.2656 3.38981 31.2827 3.39418 31.2973C3.40315 31.3293 3.41236 31.3619 3.42194 31.3937C3.43231 31.4306 3.44393 31.4698 3.45805 31.5145L3.45909 31.5182L3.45897 31.5176C3.46471 31.535 3.46884 31.5465 3.47338 31.5602C3.48523 31.5962 3.4981 31.6324 3.51056 31.6681C3.52121 31.7003 3.53405 31.7363 3.55021 31.7813C3.55732 31.799 3.5631 31.8139 3.56838 31.8272C3.57671 31.8488 3.5855 31.8701 3.5939 31.8912L3.59455 31.8929L3.59576 31.8959L3.60695 31.923C3.61825 31.9525 3.63324 31.9894 3.6547 32.0397C3.66052 32.0532 3.66468 32.0621 3.66961 32.0735C3.68431 32.1053 3.6952 32.1291 3.70315 32.1459L3.71763 32.1783C3.72257 32.1888 3.7272 32.1985 3.73399 32.2136L3.74796 32.2433L3.75986 32.268L3.77035 32.2905C3.77591 32.3018 3.77999 32.3094 3.78519 32.3195L3.79982 32.3501C3.81202 32.3738 3.82492 32.3968 3.83712 32.4205C3.85167 32.4479 3.87043 32.4846 3.89707 32.5334L3.89261 32.5255L3.89763 32.5346C3.90395 32.5463 3.90867 32.5539 3.91429 32.5636C3.93737 32.6039 3.9557 32.6348 3.9648 32.6508L3.96612 32.6525L3.96618 32.6528C3.98137 32.6793 4.00381 32.7179 4.03449 32.7679L4.03496 32.7687L4.03764 32.7733L4.03639 32.7711L4.04965 32.7916C4.06897 32.8224 4.08416 32.8462 4.09646 32.8642L4.11141 32.8876L4.11375 32.8913C4.12142 32.9031 4.13183 32.919 4.14403 32.9374C4.15536 32.9546 4.16872 32.9748 4.18443 32.9979L4.18309 32.996L4.19878 33.018C4.21347 33.0391 4.22712 33.059 4.23919 33.075C4.2507 33.0905 4.26076 33.1045 4.269 33.1159L4.26781 33.114L4.26944 33.1165C4.28787 33.1416 4.31048 33.1742 4.3411 33.2141L4.34363 33.2179L4.34533 33.2199L4.35822 33.2367C4.37118 33.253 4.38361 33.269 4.39462 33.2828C4.41022 33.3026 4.42426 33.3193 4.43537 33.3336L4.43763 33.3368C4.45389 33.3566 4.47689 33.3859 4.50767 33.4232L4.50978 33.4256L4.51197 33.4285L4.52455 33.4427C4.53711 33.4577 4.54921 33.472 4.56053 33.4848C4.57989 33.507 4.59778 33.5266 4.61198 33.5433L4.6163 33.5478L4.61723 33.5493C4.6318 33.5653 4.65427 33.5909 4.68563 33.625L4.68856 33.6283L4.69752 33.6382C4.71281 33.6545 4.72766 33.6703 4.74123 33.6845C4.76326 33.7068 4.78294 33.7271 4.79974 33.7445L4.79688 33.7416C4.81524 33.7601 4.84054 33.7867 4.8745 33.8197L4.87717 33.8225L4.8789 33.8247L4.87575 33.8211L4.87925 33.8248L4.88205 33.8274L4.88132 33.827L4.88252 33.8281L4.8829 33.8284C4.89906 33.8441 4.91516 33.8594 4.93129 33.875C4.95366 33.8964 4.97487 33.9161 4.99366 33.9334L4.99243 33.9322C5.01046 33.949 5.03309 33.9701 5.0602 33.9948L5.06616 34.0001C5.08662 34.0185 5.10599 34.0354 5.12497 34.052C5.14961 34.0732 5.17299 34.093 5.19479 34.1114L5.20211 34.1179C5.217 34.1303 5.23432 34.1451 5.25752 34.1639L5.26788 34.1724L5.26759 34.1726L5.27112 34.1756L5.27706 34.18C5.31175 34.2081 5.34267 34.2319 5.37359 34.2557L5.40658 34.2818L5.40699 34.2823L5.40832 34.2832L5.41078 34.2849L5.41006 34.2845C5.42547 34.2962 5.44429 34.311 5.46745 34.3279L5.47481 34.3336L5.47506 34.3341L5.47616 34.3347L5.48072 34.3378L5.47958 34.337C5.51667 34.3647 5.55261 34.3897 5.58874 34.4149C5.60357 34.4252 5.61863 34.4368 5.63356 34.4467L5.63526 34.4479C5.64298 34.4529 5.66055 34.4655 5.68882 34.4849L5.69423 34.4882L5.71047 34.4999C5.75376 34.5288 5.79841 34.5562 5.84265 34.584L5.85305 34.591L5.8558 34.5925L5.85694 34.5933L5.85846 34.5943C5.86982 34.6011 5.88801 34.6126 5.91434 34.6287L5.91722 34.6308C5.97365 34.6646 6.0302 34.6973 6.08615 34.7285L6.08932 34.7304L6.12105 34.748L6.14259 34.7596L6.14183 34.7591L6.17411 34.7761C6.22115 34.8012 6.26737 34.8255 6.31158 34.8479L6.32406 34.8545L6.32986 34.8572C6.34678 34.8654 6.35915 34.8714 6.36612 34.8751L6.37473 34.8796L6.38139 34.8825C6.3941 34.8885 6.40676 34.8943 6.41998 34.9004C6.45897 34.9188 6.49772 34.9367 6.53685 34.954L6.56976 34.9691L6.57357 34.9708L6.6141 34.9886L6.61582 34.9889L6.63641 34.9973C6.67583 35.0144 6.71757 35.0306 6.7591 35.0475C6.78093 35.0564 6.80088 35.0649 6.82348 35.0734L6.85855 35.0867L6.87823 35.0938L6.89119 35.0985C6.95537 35.1224 7.01557 35.1436 7.07023 35.1617L7.07547 35.1632L7.10945 35.1742L7.11199 35.1754C7.1874 35.1992 7.25905 35.2205 7.32648 35.2397L7.33814 35.2428L7.37489 35.2527L7.37515 35.2523C7.41157 35.2622 7.44665 35.2702 7.48251 35.2789C7.4992 35.2832 7.51637 35.2875 7.53332 35.2914C7.5536 35.2964 7.57511 35.3026 7.59531 35.3071L7.61258 35.311L7.61757 35.3121L7.62571 35.314C7.66038 35.3216 7.69402 35.3272 7.72809 35.3343L7.74536 35.3373C7.7837 35.3451 7.82215 35.3535 7.86014 35.3603L7.86918 35.3617L7.89716 35.3662C7.91489 35.3691 7.93298 35.3711 7.9509 35.3741L7.96755 35.3764C8.02178 35.3852 8.07621 35.394 8.13107 35.4008L8.14394 35.4024L8.14868 35.403L8.15062 35.4036C8.23485 35.4135 8.31873 35.4215 8.40201 35.4282L8.40536 35.4284L8.41941 35.4292L8.4146 35.4291C8.4882 35.4344 8.56021 35.4373 8.6315 35.4399L8.6323 35.4398L8.65897 35.4417L8.68655 35.4424C8.75442 35.4444 8.82307 35.4435 8.89223 35.4427L8.91204 35.4443L8.96054 35.4427C9.00205 35.4417 9.04332 35.4395 9.08461 35.4374C9.09398 35.453 9.10294 35.4682 9.11087 35.4814L9.11193 35.4836C9.2782 35.7637 9.45344 36.0405 9.63703 36.3132C12.505 41.1933 18.4898 44.2742 24.5933 43.9021C30.6972 43.5302 36.3246 38.3767 37.9186 32.5346C37.9921 32.3088 38.0567 32.0887 38.1134 31.8764C38.3211 31.5635 38.4697 31.2516 38.548 30.9356C38.643 30.5637 38.6291 30.1934 38.5592 29.9014Z" fill="#674440"></path><path d="M30.4463 15.5234L30.4473 15.5249L30.4477 15.5253L30.4463 15.5234Z" fill="#59473D"></path><path d="M6.85867 35.0873L6.85799 35.0868L6.85742 35.0869L6.85867 35.0873Z" fill="#59473D"></path><path d="M4.87305 33.8193L4.87383 33.8204L4.87367 33.8195L4.87305 33.8193Z" fill="#59473D"></path><path d="M4.87548 33.8218L4.87611 33.822L4.87402 33.8203L4.87548 33.8218Z" fill="#59473D"></path><path d="M3.77248 32.2926L3.77105 32.2896L3.77051 32.2891L3.77248 32.2926Z" fill="#59473D"></path><path d="M3.65655 32.0412L3.65595 32.0395L3.65527 32.0391L3.65655 32.0412Z" fill="#59473D"></path><path d="M5.06619 34.0004L5.06836 34.0023L5.0653 33.9997L5.06348 33.998L5.06619 34.0004Z" fill="#59473D"></path><path d="M26.8059 11.4331C18.7622 10.6612 12.078 18.0827 9.74141 21.8899C12.3906 11.1245 21.5887 9.43565 25.8567 9.93691L26.8059 11.4331Z" fill="#C58557"></path><path d="M28.5743 4.70018C28.2255 4.43296 27.8462 4.25332 27.4497 4.14189C27.3781 4.12962 27.3062 4.11756 27.2334 4.11047C27.1955 4.09439 27.1572 4.07971 27.1185 4.06559C26.7746 4.00259 26.4199 3.98575 26.0621 4.00607C24.2873 4.10662 22.4321 5.10589 21.3873 5.76461C21.3303 5.80205 21.2727 5.83943 21.2146 5.87807C21.1274 5.93621 21.0395 5.9953 20.9506 6.05606C20.8014 6.15802 20.6509 6.2637 20.4972 6.37345C20.4748 6.38921 20.4527 6.40541 20.4305 6.42146L19.8896 5.98796L19.7345 5.86356L19.6675 5.80957L18.2523 4.67626L18.1294 4.57779L17.9773 4.45614L17.956 4.46524L17.641 4.60115L17.277 4.75808C17.0488 4.69978 16.7863 4.67683 16.4907 4.69479C15.8986 4.72989 15.1766 4.93399 14.3801 5.30649C13.5834 5.67755 12.7125 6.21399 11.8099 6.8953C10.0045 8.2573 8.07375 10.1974 6.30475 12.5405C5.68744 13.3578 5.12307 14.1804 4.61504 14.9947C4.12135 15.7848 3.68116 16.5672 3.29738 17.3293C2.51799 18.8769 1.97273 20.3425 1.68689 21.6124C1.49567 22.4586 1.42125 23.2173 1.45998 23.8474C1.4873 24.3057 1.57511 24.6946 1.71048 25.0041C1.75433 25.1043 1.80421 25.1934 1.85748 25.2776C1.96862 25.4547 2.0985 25.601 2.25289 25.7182L3.79518 26.8288L3.96046 26.9476L3.96775 26.9362C3.99857 26.8833 4.03038 26.8304 4.06301 26.7783L4.07167 26.7644C4.08355 26.7457 4.09625 26.7278 4.10825 26.7096C4.13939 26.662 4.171 26.6142 4.20359 26.5673C4.2238 26.5382 4.24451 26.51 4.26532 26.4815C4.28561 26.4537 4.30496 26.4253 4.32563 26.3978C4.33507 26.3854 4.34481 26.3738 4.35441 26.3615C4.37618 26.3327 4.399 26.3043 4.42179 26.2758C4.45343 26.2361 4.48528 26.1967 4.51835 26.1577C4.53759 26.1349 4.55701 26.1122 4.5766 26.0895L4.58521 26.0798C4.62013 26.0401 4.65582 26.0008 4.69143 25.9621C4.71397 25.9375 4.73677 25.9134 4.75972 25.8893C4.79702 25.8507 4.83531 25.8121 4.87388 25.7742C4.89711 25.7515 4.92001 25.7288 4.94361 25.7064C4.98336 25.6685 5.02422 25.6313 5.06516 25.5945C5.08913 25.5732 5.11214 25.552 5.13611 25.5315C5.17923 25.494 5.22329 25.458 5.26719 25.422C5.29078 25.403 5.31377 25.3835 5.33742 25.3649L5.36394 25.3439L5.36794 25.3405C5.4055 25.3113 5.44432 25.2836 5.48273 25.2554C5.50427 25.2396 5.52476 25.2236 5.54684 25.208C5.57904 25.1846 5.6123 25.1625 5.64534 25.1402C5.67398 25.1208 5.70223 25.1011 5.73143 25.0821L5.76342 25.0602C5.83697 25.0129 5.91148 24.9672 5.98732 24.9233C6.01116 24.9093 6.03624 24.8965 6.06046 24.8827C6.08654 24.8682 6.1126 24.8536 6.13938 24.8393L6.17006 24.822C6.18589 24.8138 6.20176 24.8049 6.2173 24.7968C6.25008 24.7801 6.28339 24.7645 6.31603 24.748L6.34046 24.7361C6.37862 24.7173 6.4165 24.6986 6.45519 24.6808C6.49109 24.664 6.52762 24.6487 6.56418 24.6328C6.60931 24.6132 6.65446 24.5936 6.69996 24.5751C6.71907 24.5675 6.73792 24.5595 6.75703 24.552C6.77616 24.5446 6.79609 24.5379 6.81538 24.5305C6.86035 24.5135 6.90569 24.4968 6.95103 24.4809C6.99126 24.4669 7.03149 24.4538 7.07166 24.4403C7.10429 24.4299 7.1362 24.4192 7.16876 24.4093C7.18208 24.4053 7.1953 24.4017 7.20852 24.3981C7.22353 24.3934 7.23766 24.3885 7.25277 24.3843L7.27744 24.3783C7.44166 24.3408 7.62269 24.3083 7.8235 24.2861L7.85407 24.2824C8.05696 24.2615 8.27899 24.2528 8.51496 24.2586C8.57133 24.2601 8.62745 24.2612 8.68593 24.2644C8.69347 24.2409 8.70121 24.2168 8.70891 24.1934C8.78887 23.9553 8.87111 23.7224 8.95549 23.493C9.44904 22.1545 10.023 20.9579 10.6381 19.8932C10.8478 19.5297 11.0627 19.1807 11.2806 18.8472C12.1887 17.4587 13.1521 16.3295 14.0573 15.4275C14.2585 15.2272 14.4567 15.038 14.6509 14.8595C14.9154 14.6167 15.1721 14.3939 15.4178 14.1909C15.6181 14.0255 15.8111 13.873 15.9952 13.7329C16.3021 13.4993 16.5843 13.3004 16.8338 13.1335C16.9112 13.0818 16.9856 13.033 17.0561 12.9878C17.1655 12.9174 17.267 12.8541 17.3593 12.7984C17.2722 12.8054 17.1841 12.8147 17.0945 12.8266C17.011 12.8377 16.9267 12.8518 16.8417 12.8675C16.8203 12.8714 16.7993 12.8756 16.7778 12.8796C16.6924 12.8967 16.6063 12.9149 16.5197 12.9367C16.3553 12.9777 16.1888 13.0268 16.02 13.0866C15.9636 13.1065 15.9072 13.1277 15.8504 13.1503C16.2404 12.8463 16.6351 12.5989 17.0225 12.3961C17.2801 12.2611 17.5347 12.1454 17.7816 12.0476C18.1223 11.9133 18.449 11.8113 18.7534 11.7336C18.9577 11.6818 19.1513 11.6407 19.3318 11.6086C19.5134 11.5766 19.6815 11.5533 19.8336 11.5365C20.3648 11.478 20.6954 11.4992 20.6954 11.4992C20.6015 11.4083 20.4908 11.3345 20.3741 11.2739C20.1619 11.1648 19.9291 11.1018 19.7281 11.0639C19.6491 11.049 19.5743 11.0372 19.509 11.0293C19.457 11.0231 19.4088 11.0184 19.3692 11.0152C19.4548 10.9835 19.5395 10.9545 19.6233 10.9269C19.7123 10.8976 19.8007 10.8702 19.8876 10.8452C20.6294 10.6336 21.3018 10.5754 21.815 10.5749C22.4338 10.5738 22.822 10.657 22.822 10.657C22.7058 10.5067 22.5529 10.3883 22.3922 10.2944C22.2751 10.2263 22.1546 10.1705 22.041 10.1269C22.2501 10.1358 22.4503 10.1519 22.6418 10.1734C23.1473 10.2302 23.5859 10.3242 23.9347 10.4187C24.0476 10.4494 24.1514 10.4798 24.2449 10.5095C24.2717 10.5179 24.2961 10.5259 24.321 10.5342C24.6437 10.6393 24.8271 10.7239 24.8271 10.7239C24.746 10.5607 24.6162 10.4165 24.4728 10.2921C24.4369 10.2609 24.4006 10.2301 24.3638 10.2016L24.3791 10.2054C24.3904 10.2069 24.4148 10.2098 24.4488 10.2147C24.4736 10.2182 24.5035 10.2227 24.5395 10.2285C24.6756 10.2511 24.885 10.2926 25.1353 10.3636C25.1472 10.3669 25.1596 10.3705 25.1718 10.374C25.2058 10.3842 25.2406 10.3944 25.2756 10.4054C25.362 10.4321 25.4518 10.463 25.544 10.4969C25.6298 10.5285 25.718 10.5632 25.8072 10.6018C25.8533 10.6216 25.8993 10.6423 25.9457 10.6641C26.0449 10.7104 26.1442 10.7615 26.2438 10.8174C26.3457 10.8746 26.4472 10.9372 26.5469 11.0051C26.5664 11.0187 26.5864 11.0318 26.6061 11.046C26.6792 11.0975 26.7508 11.1528 26.8207 11.2111C26.9536 11.3206 27.0804 11.442 27.1979 11.5762C27.3386 11.7372 27.4663 11.9155 27.5741 12.1154C27.58 12.1267 27.5856 12.1386 27.5912 12.1499C27.6307 12.0877 27.7 11.976 27.789 11.8247C28.5286 10.5664 30.6453 6.53337 28.5743 4.70018Z" fill="#141C26"></path><path d="M37.6218 30.191L37.6223 30.1908C37.6223 30.1908 37.6094 29.9412 37.4401 29.7475L37.4361 29.7421C37.4262 29.7304 37.416 29.7203 37.4057 29.7101L37.3948 29.6991C37.3772 29.6827 37.3567 29.6676 37.3357 29.6525C37.298 29.6253 37.2555 29.6012 37.2065 29.5817C37.181 29.5709 37.1537 29.5618 37.1247 29.5536C37.0451 29.5324 36.9527 29.5222 36.846 29.5264C36.768 29.5296 36.6806 29.5426 36.5867 29.5631C36.5487 29.5715 36.5111 29.5793 36.4706 29.5909L36.4521 29.5955C36.4521 29.5955 36.4569 29.605 36.4637 29.6193C36.4709 29.6343 36.4811 29.6561 36.4949 29.6848C36.5 29.6961 36.5053 29.7078 36.5114 29.7207C36.5349 29.7721 36.5638 29.8375 36.5947 29.9118C36.5946 29.9125 36.5928 29.9284 36.5859 29.9589L36.5824 29.9751C36.5556 30.0939 36.4743 30.372 36.2494 30.7559C36.2111 30.8211 36.168 30.89 36.1213 30.9613C35.4759 31.9367 33.9651 33.4361 30.4473 34.7738C29.2445 35.1787 28.1074 35.4009 27.1119 35.4615C25.64 35.5512 24.4763 35.2928 23.8595 34.7684C23.8061 34.7235 23.7561 34.6762 23.7079 34.6281C23.6723 34.5926 23.6376 34.5564 23.6049 34.5193C23.5931 34.5057 23.582 34.4915 23.5704 34.4778C23.2838 34.1371 23.1124 33.7393 23.0426 33.3362C22.9583 32.8465 23.0234 32.3508 23.2142 31.9435C23.3691 31.6132 23.6061 31.3412 23.9125 31.1788C24.0627 31.0993 24.2291 31.0451 24.4105 31.0237C24.4472 31.0196 24.4959 31.0158 24.5569 31.012C24.6793 31.0047 24.8507 30.997 25.0606 30.9851C25.0841 30.9837 25.1059 30.9824 25.1304 30.981C25.8295 30.9383 26.9366 30.8379 28.2374 30.512C30.6038 29.9194 33.6137 28.578 35.993 25.4642L35.999 25.4527L35.9981 25.4482C35.9674 25.2303 35.8656 24.8455 35.5359 24.5929C35.4784 24.5487 35.4134 24.5089 35.3414 24.4742C35.3001 24.4545 35.2578 24.436 35.2115 24.4202C35.1651 24.4047 35.1224 24.3884 35.0809 24.3716C35.0243 24.3493 34.9706 24.3266 34.9223 24.303L34.9144 24.295C34.8894 24.2684 34.8633 24.2429 34.838 24.2163C33.886 23.231 32.7419 22.7694 32.2785 22.5466C32.0598 22.4412 31.9254 22.3996 31.9254 22.3996C30.9423 22.0267 30.7795 21.8725 30.5893 20.3966C30.5207 19.8652 30.4486 19.1634 30.3323 18.2154C30.3174 18.0919 30.2995 17.9755 30.2803 17.8613C30.2757 17.8341 30.2714 17.8074 30.2664 17.7807C30.2471 17.673 30.2264 17.5682 30.2034 17.4681L30.197 17.4393L30.1889 17.4087C30.1696 17.3303 30.1496 17.2543 30.1291 17.1805C30.1199 17.1482 30.1105 17.1157 30.1011 17.0839C30.0773 17.0054 30.0527 16.9295 30.0262 16.8566C30.0128 16.8194 29.9984 16.7839 29.9844 16.7478C29.9687 16.7073 29.9526 16.6678 29.9363 16.6291C29.9203 16.5911 29.904 16.5528 29.8871 16.5164L29.8868 16.5163L29.887 16.5157L29.8871 16.5162C29.8665 16.4713 29.8444 16.4292 29.8231 16.3871C29.8153 16.3716 29.8083 16.3554 29.8 16.3406C29.7923 16.3265 29.7844 16.3137 29.7768 16.2996L29.7691 16.2856L29.7461 16.2456L29.7451 16.2428C29.7263 16.2106 29.7073 16.1794 29.6887 16.149L29.6826 16.1388L29.6641 16.1102L29.6416 16.0749L29.6367 16.0682L29.6365 16.0672C29.5984 16.0103 29.5596 15.9554 29.5196 15.9046L29.4885 15.8674C29.4448 15.8185 29.4008 15.7731 29.3565 15.7296L29.3385 15.7113L29.3167 15.6914C29.2852 15.6617 29.2537 15.6327 29.2225 15.6059L29.1799 15.569C29.1385 15.5352 29.0976 15.5027 29.0567 15.4727L29.0567 15.4724L29.0548 15.4668L29.0525 15.46L29.0488 15.4506L29.0436 15.4371L29.039 15.4236L29.0303 15.4019L29.0257 15.3887L29.0135 15.3584L29.0091 15.3476C28.9859 15.2899 28.9544 15.2154 28.9145 15.1274L28.912 15.1209C28.9019 15.0998 28.8917 15.0776 28.8809 15.0546L28.8767 15.046C28.8654 15.0221 28.8538 14.998 28.8413 14.9727L28.84 14.9711C28.811 14.9125 28.7786 14.8494 28.7435 14.7845C28.7324 14.7634 28.7197 14.7414 28.7072 14.7198C28.6822 14.6742 28.6565 14.629 28.6286 14.582C28.6125 14.555 28.5956 14.5284 28.5786 14.501C28.5519 14.4573 28.5241 14.414 28.4945 14.3698C28.4755 14.3406 28.455 14.3121 28.4352 14.2827C28.4048 14.2391 28.3736 14.1961 28.3414 14.153C28.3193 14.1236 28.2974 14.0944 28.2742 14.0653C28.2396 14.0215 28.2035 13.9791 28.1668 13.9365C28.143 13.9093 28.1194 13.8818 28.0953 13.8546C28.0536 13.8092 28.0095 13.7654 27.9651 13.7217C27.9427 13.7002 27.9214 13.6774 27.8982 13.6559C27.8781 13.6374 27.8559 13.6208 27.8351 13.6029C27.7852 13.5589 27.7358 13.5149 27.6826 13.4747L27.6763 13.4703L27.6468 13.4511C27.5786 13.4008 27.5079 13.3525 27.4336 13.3098L27.4203 13.3022C27.3877 13.2834 27.3538 13.2659 27.3202 13.2491L27.3167 13.2471L27.3046 13.2414C27.2756 13.227 27.2457 13.2135 27.2159 13.2005L27.2 13.1933L27.2064 13.197C27.1746 13.1815 27.1186 13.1641 27.0462 13.1467C27.021 13.141 26.9933 13.1347 26.9637 13.1287C26.8157 13.0992 26.6177 13.0713 26.3862 13.0539C26.3717 13.0526 26.3565 13.052 26.3425 13.0511C26.1502 13.0377 25.9382 13.0315 25.7156 13.0374C25.6407 13.0395 25.5651 13.0426 25.4886 13.0476C25.4524 13.0497 25.4158 13.0547 25.3796 13.0575C25.3649 13.0587 25.35 13.0604 25.3354 13.0616C25.1626 13.077 24.988 13.098 24.815 13.132L24.8048 13.1342C24.5821 13.1779 24.3619 13.2382 24.1569 13.3202C24.1914 13.2277 24.3096 13.1107 24.4312 13.0086C24.5824 12.8813 24.7388 12.7785 24.7388 12.7785C24.6434 12.8037 24.5469 12.836 24.4509 12.8704C24.4201 12.8816 24.3887 12.8919 24.3577 12.9038C24.3375 12.9116 24.3176 12.9196 24.2977 12.9273L24.2804 12.9343C24.2634 12.9411 24.2473 12.9479 24.2308 12.9548C23.7529 13.1537 23.3075 13.4223 23.0614 13.5807C23.0266 13.6031 22.9961 13.6232 22.9693 13.641L22.9538 13.6511C22.9279 13.6593 22.9014 13.6683 22.8755 13.6765L22.876 13.6756C23.0045 13.2759 23.2578 13.0261 23.4591 12.8817C23.4943 12.8564 23.528 12.8333 23.5591 12.8144C23.5706 12.8073 23.5804 12.8021 23.5908 12.7959C23.6206 12.7788 23.6461 12.7649 23.6683 12.7536C23.7176 12.7287 23.7502 12.7157 23.7502 12.7157C23.7267 12.7207 23.7052 12.7279 23.6822 12.7335C23.6628 12.7385 23.6438 12.7438 23.6248 12.749C23.5964 12.7565 23.5676 12.7635 23.5398 12.7714C23.5232 12.7763 23.5055 12.7799 23.4889 12.7848C22.9498 12.9472 22.4953 13.2251 22.1192 13.535C21.8599 13.7486 21.6367 13.9772 21.4538 14.1956C21.3984 14.2184 21.3415 14.2418 21.284 14.2657C20.7064 14.5064 20.0501 14.8001 19.3689 15.1567C19.1174 15.2884 18.8624 15.4288 18.6066 15.5781C18.4076 15.6945 18.2082 15.8181 18.0091 15.9459C17.8665 16.0374 17.7246 16.132 17.5833 16.2295C16.5664 16.9318 15.596 17.7934 14.8422 18.8469C14.815 18.8849 14.7859 18.9213 14.7595 18.9596C14.6944 19.054 14.6329 19.1517 14.5715 19.2491C14.5464 19.2889 14.5192 19.3269 14.4948 19.3672C14.464 19.4173 14.4368 19.4701 14.4071 19.5212C14.2731 19.7525 14.147 19.9899 14.0357 20.2381C13.9525 20.4224 13.877 20.6117 13.8079 20.8059L13.7993 20.8288C13.6571 21.2334 13.5464 21.6587 13.4723 22.1062C13.4354 22.3302 13.4074 22.5595 13.3892 22.7944C13.3846 22.8566 13.3802 22.919 13.3768 22.982L13.3745 23.0148C13.3618 23.2685 13.3624 23.5296 13.3733 23.7963C13.3756 23.8488 13.3771 23.9008 13.3799 23.9541C13.3878 24.0868 13.3997 24.2213 13.4138 24.3573C13.4266 24.4816 13.4423 24.6073 13.4602 24.7343L13.4643 24.7634C13.4734 24.8254 13.4813 24.8873 13.4917 24.95C13.5038 25.0216 13.5178 25.0942 13.5314 25.1668C13.5342 25.1838 13.5373 25.2006 13.5404 25.2177C13.5673 25.3594 13.5964 25.5019 13.6299 25.6468L13.6359 25.6699C13.6692 25.8137 13.707 25.9598 13.7475 26.1067C13.7644 26.1678 13.7813 26.229 13.7992 26.2906C13.8037 26.3055 13.8075 26.3207 13.8118 26.3359C13.8218 26.3701 13.8328 26.4046 13.8431 26.4386C13.8923 26.6003 13.9459 26.7642 14.0036 26.9297C14.0193 26.9758 14.0345 27.0217 14.051 27.0679C14.1029 27.2126 14.1568 27.358 14.2148 27.5055C14.2148 27.5055 14.1515 27.3144 14.1142 27.0227C14.106 26.9556 14.099 26.8835 14.0938 26.8062C14.0839 26.6385 14.0851 26.4513 14.11 26.2538C14.1162 26.2055 14.1241 26.1566 14.1332 26.107C14.1368 26.0855 14.142 26.064 14.1464 26.0424C14.1658 25.9504 14.1895 25.8573 14.2215 25.7638C14.2436 25.8221 14.2663 25.8799 14.2898 25.9384L14.2973 25.9573L14.3021 25.9849C14.3088 26.0223 14.3156 26.0627 14.3233 26.1055C14.3398 26.1977 14.3592 26.3016 14.3814 26.4147C14.4039 26.5281 14.4287 26.6497 14.457 26.7783C14.5748 27.3179 14.7439 27.9642 14.9653 28.5004C14.9653 28.5004 14.7979 27.4815 14.9483 27.3345C14.9483 27.3345 15.5995 29.1578 16.0107 29.8152C16.064 29.9004 16.1136 29.9669 16.1569 30.0063L16.1149 29.8212L15.8803 28.7842C15.8803 28.7842 15.8747 28.7448 15.8658 28.6757C16.1546 29.0646 16.4746 29.4601 16.8273 29.8619C16.9253 29.973 17.0247 30.0845 17.1275 30.1966C16.6958 30.7472 16.3383 31.4788 16.139 32.3112C16.1073 32.4441 16.0793 32.5797 16.0559 32.7174C16.0427 32.7958 16.0311 32.8755 16.0208 32.9556C16.0174 32.9807 16.0144 33.0059 16.0117 33.0312C16.0052 33.0873 15.9989 33.1434 15.9938 33.2003C15.9911 33.2292 15.9889 33.2581 15.9868 33.2873C15.9824 33.3437 15.9788 33.4004 15.9762 33.4577C15.9748 33.4844 15.9729 33.511 15.9725 33.5378C15.9694 33.6194 15.9674 33.7012 15.9676 33.7837L15.9678 33.7912C15.9684 33.8738 15.9707 33.957 15.9745 34.0403C15.9757 34.0672 15.9774 34.0942 15.9792 34.1208C15.9826 34.1802 15.9869 34.2396 15.9922 34.299C15.9945 34.3293 15.9976 34.3594 16.0007 34.3897C16.0067 34.4495 16.014 34.5098 16.022 34.5697C16.0254 34.5968 16.0289 34.624 16.0329 34.6512C16.0454 34.7375 16.0595 34.8244 16.0761 34.9115L16.0785 34.9226C16.091 34.9896 16.1054 35.056 16.1205 35.1228C16.1359 35.1903 16.1527 35.2574 16.1705 35.3249L16.1773 35.3521L16.1815 35.369C16.2035 35.4508 16.2279 35.5322 16.2537 35.6141C16.2619 35.64 16.2715 35.6657 16.28 35.6917C16.2985 35.7475 16.3169 35.8035 16.3376 35.8595C16.3486 35.8903 16.3609 35.9216 16.3725 35.9525C16.3923 36.0036 16.4118 36.0544 16.4331 36.1053C16.4466 36.138 16.4608 36.1706 16.4746 36.2035C16.4962 36.2527 16.518 36.3024 16.5411 36.3517C16.5562 36.3846 16.5718 36.4177 16.5881 36.4508C16.6122 36.5 16.6364 36.5494 16.6622 36.5987C16.6788 36.631 16.6956 36.6636 16.7129 36.6959C16.7404 36.7467 16.7691 36.7976 16.7979 36.8481C16.8155 36.8784 16.8322 36.9089 16.8503 36.9391C16.8834 36.995 16.9181 37.0505 16.9536 37.1061C16.9693 37.1309 16.9842 37.1558 17.0006 37.1807C17.1055 37.3412 17.2193 37.5008 17.3424 37.6588C17.361 37.682 17.3806 37.7053 17.3989 37.7288C17.4431 37.7839 17.4879 37.8391 17.5342 37.8938C17.5586 37.9223 17.5837 37.9507 17.6091 37.9794C17.6521 38.0284 17.6956 38.0779 17.7409 38.1267C17.7686 38.1569 17.7974 38.1871 17.826 38.2173C17.8706 38.2639 17.9161 38.3107 17.9622 38.3568C17.9932 38.3878 18.0242 38.4182 18.0555 38.4487C18.1026 38.4947 18.1512 38.5404 18.2008 38.5855C18.233 38.6156 18.2653 38.6455 18.2983 38.6752C18.3504 38.7216 18.4034 38.7676 18.4577 38.8132C18.4901 38.8414 18.5226 38.8695 18.5559 38.8972C18.6161 38.9469 18.6785 38.9963 18.7412 39.0451C18.7707 39.0684 18.7989 39.0918 18.8288 39.1148C18.9226 39.1864 19.0183 39.2577 19.1174 39.3279L19.117 39.3275C19.1163 39.3268 19.0555 39.2667 18.9677 39.1577L18.9645 39.1541C18.9483 39.1338 18.9309 39.1113 18.9128 39.0874L18.9073 39.0808C18.8884 39.0558 18.869 39.0289 18.8488 39.0005L18.8449 38.9957C18.8238 38.9655 18.8017 38.9333 18.7794 38.8992C18.6021 38.6278 18.4069 38.2415 18.3372 37.7829C18.3963 37.8376 18.456 37.8896 18.5156 37.943C18.5926 38.0461 18.6898 38.1737 18.8022 38.3165C18.8398 38.3639 18.8789 38.4131 18.9195 38.4638C19.083 38.6654 19.2705 38.8882 19.4705 39.1086C19.7109 39.3731 19.9696 39.6345 20.2274 39.8537L20.227 39.8534C20.2258 39.8518 19.8881 39.39 19.7446 39.0724C19.7043 38.9831 19.6784 38.9047 19.6808 38.852C19.7042 38.8683 19.7275 38.885 19.7509 38.9015C19.7742 38.9181 19.7976 38.9343 19.8212 38.9509C19.8695 38.9951 19.9305 39.0509 19.9988 39.1127L20.0332 39.1439C20.0671 39.1746 20.102 39.2065 20.1397 39.2401L20.1417 39.2421C20.185 39.281 20.2304 39.3213 20.2773 39.3632C20.7012 39.7388 21.2611 40.2155 21.643 40.4635C21.7704 40.5463 21.8779 40.6036 21.9541 40.623L21.3295 39.8717C22.5498 40.5361 27.1278 40.8268 31.2036 38.7874C31.6955 38.5417 32.1805 38.2609 32.6505 37.9428C32.9347 37.7514 33.2132 37.5474 33.4857 37.328L33.5251 37.2953C33.7155 37.1398 33.9025 36.9762 34.0866 36.8061L34.0907 36.8023C34.2289 36.6744 34.3648 36.5422 34.4985 36.4064C34.7218 36.1771 34.941 35.9387 35.1505 35.6849L35.1511 35.6844L35.1519 35.6834C35.1638 35.6682 35.1762 35.6531 35.1889 35.6377C35.3947 35.3768 35.5838 35.1127 35.7557 34.8477C35.9828 34.4976 36.1799 34.1465 36.3528 33.7989L36.3656 33.7739C36.4077 33.6882 36.4487 33.6032 36.4883 33.5192L36.4993 33.4946C36.512 33.466 36.5228 33.439 36.5354 33.4107C36.5896 33.29 36.643 33.1694 36.6919 33.0504C36.7037 33.0219 36.7158 32.9929 36.7275 32.9642C36.7526 32.9013 36.7765 32.8386 36.8005 32.7767C36.8182 32.7282 36.8367 32.6798 36.8537 32.632C36.8729 32.5797 36.8922 32.5273 36.9107 32.4756C36.943 32.3817 36.9742 32.2887 37.0037 32.1965C37.0152 32.16 37.026 32.1245 37.0371 32.0886C37.0593 32.0169 37.081 31.9462 37.1009 31.8765C37.1102 31.844 37.1197 31.8114 37.1286 31.7792L37.1364 31.7488C37.1614 31.6609 37.1845 31.5739 37.2068 31.4885L37.2105 31.4704C37.325 31.3152 37.4098 31.1722 37.4743 31.0384C37.4837 31.0194 37.4936 31 37.502 30.9813C37.6423 30.6684 37.6594 30.4116 37.6218 30.191Z" fill="#674440"></path><path d="M11.3145 31.8796C11.307 31.8607 11.3 31.842 11.2931 31.8232L11.2962 31.8213C11.1941 31.5534 11.1027 31.276 11.0211 30.9903C11.0155 30.9699 11.0089 30.9504 11.0028 30.9302C10.9576 30.9542 10.9155 31.0277 10.8773 31.1245C10.863 31.1608 10.8497 31.2 10.8367 31.2411C10.7422 31.5416 10.6819 31.9453 10.6819 31.9453C10.6685 31.8168 10.6579 31.6828 10.6488 31.5478C10.6477 31.5322 10.6471 31.5167 10.6461 31.5008C10.6372 31.3634 10.6306 31.2243 10.6254 31.0859C10.6246 31.0691 10.6241 31.0525 10.6235 31.0361C10.6185 30.8799 10.615 30.7244 10.6134 30.574C10.6132 30.5543 10.6128 30.5354 10.6128 30.516L10.6129 30.5061C10.6128 30.4887 10.6125 30.4711 10.6124 30.4537C10.6121 30.4278 10.6119 30.4019 10.6119 30.3762C10.6113 30.2569 10.612 30.1413 10.6132 30.0316C10.6144 29.9324 10.6159 29.8385 10.6177 29.75L10.6182 29.7215C10.6182 29.7076 10.6188 29.6949 10.6192 29.6816C10.6195 29.6686 10.6197 29.6552 10.6198 29.6418L10.6199 29.6371C10.6206 29.615 10.6213 29.5922 10.6219 29.5712L10.6221 29.5654C10.6224 29.5447 10.6231 29.527 10.6236 29.5076C10.6246 29.4771 10.6253 29.4459 10.6262 29.4174L10.6266 29.4094C10.6274 29.3863 10.6278 29.3629 10.6287 29.3417C10.6299 29.3112 10.6311 29.2832 10.6317 29.2568L10.6318 29.2559L10.632 29.2552C10.6325 29.2401 10.6332 29.2269 10.6337 29.2129L10.6339 29.2104C10.6345 29.1977 10.6347 29.1844 10.6354 29.1732C10.6366 29.1452 10.6377 29.1198 10.6387 29.1003L10.6396 29.0829L10.64 29.0765L10.641 29.056L10.6417 29.0418L10.6419 29.0398L10.64 29.042L10.6156 29.0742C10.594 29.102 10.5717 29.1295 10.5521 29.1596L10.5309 29.194C10.5083 29.2313 10.4868 29.2701 10.4675 29.3106L10.457 29.3304C10.4332 29.3812 10.4121 29.4337 10.3926 29.4868L10.3926 29.487L10.3901 29.4939L10.39 29.4943L10.3824 29.5177C10.3781 29.5306 10.3741 29.5437 10.37 29.5567C10.3592 29.5897 10.3476 29.6219 10.3386 29.6549L10.338 29.6562L10.3377 29.6572L10.3374 29.6599L10.3337 29.6723L10.3306 29.6847C10.3165 29.7368 10.3044 29.7882 10.2935 29.8387C10.2624 29.9808 10.2429 30.1143 10.2301 30.2252C10.2259 30.2645 10.222 30.3018 10.2193 30.3346C10.2132 30.4057 10.21 30.461 10.2089 30.488L10.209 30.4903L10.2081 30.5085L10.2059 30.4879C10.2006 30.4472 10.1978 30.4064 10.1935 30.3658C10.1841 30.2806 10.1736 30.1952 10.1673 30.11C10.1615 30.0383 10.1596 29.9676 10.1564 29.8958C10.1556 29.8735 10.1548 29.851 10.154 29.8288C10.1523 29.7959 10.1508 29.7629 10.1501 29.7299C10.1492 29.6992 10.1502 29.6686 10.1504 29.6383L10.1503 29.636L10.1502 29.6358L10.1503 29.6019L10.1506 29.5926C10.1505 29.5555 10.1505 29.5178 10.1507 29.4807C10.1505 29.4663 10.1505 29.452 10.1508 29.4375L10.1511 29.4118L10.1512 29.407C10.1514 29.3949 10.1517 29.3824 10.1521 29.3704C10.1523 29.3552 10.1536 29.3402 10.1541 29.3257C10.1561 29.2709 10.1592 29.2169 10.1618 29.1627L10.1623 29.1537C10.1642 29.1133 10.1654 29.0728 10.1682 29.0329L10.1682 29.0311L10.1687 29.0284L10.1696 29.0166C10.1753 28.9345 10.1836 28.8537 10.1917 28.7723L10.1956 28.7276C10.1972 28.7126 10.1981 28.6969 10.1999 28.6816C10.2138 28.5495 10.2305 28.4185 10.2503 28.2898L10.2529 28.2736C10.27 28.1642 10.2879 28.0563 10.3079 27.9495L10.3101 27.9373C10.3193 27.8903 10.3294 27.8449 10.3384 27.7984L10.3401 27.7915C10.3542 27.722 10.368 27.6522 10.3832 27.5847L10.3832 27.5841L10.3832 27.5837L10.3835 27.5828L10.3851 27.5744C10.3894 27.5574 10.3989 27.5163 10.4143 27.4555L10.4146 27.4545L10.4167 27.4463L10.4167 27.4461C10.4227 27.4222 10.4283 27.399 10.4338 27.3748C10.443 27.3362 10.4524 27.298 10.4616 27.2601L10.4701 27.2267L10.4701 27.2252L10.6515 26.684C10.6589 26.6611 10.6663 26.6386 10.6733 26.6159L10.6772 26.605L10.6864 26.5771C10.706 26.5172 10.7257 26.457 10.7449 26.3984C10.7739 26.3113 10.8019 26.228 10.8278 26.1499C10.881 25.9907 10.9267 25.8557 10.9547 25.7742C10.9701 25.729 10.9802 25.6991 10.9832 25.69L10.9844 25.6859L10.9841 25.686L10.983 25.6854L10.98 25.6839C10.9681 25.6787 10.8747 25.6371 10.7229 25.5799C10.5499 25.5153 10.3001 25.4304 10.0014 25.3541C9.90562 25.3295 9.80533 25.3062 9.70071 25.2845C9.57541 25.2585 9.44463 25.2349 9.30958 25.216C9.27478 25.2112 9.23877 25.2088 9.20374 25.2046C9.09101 25.1909 8.97622 25.1813 8.8595 25.1754L8.85284 25.1752C8.77268 25.1711 8.69285 25.1662 8.61148 25.1663C8.5476 25.1661 8.48359 25.1662 8.41916 25.1693C8.38849 25.1707 8.35703 25.1741 8.32631 25.177C8.29569 25.1796 8.26539 25.1821 8.23493 25.1847C8.14897 25.1929 8.06337 25.2049 7.9781 25.2187C7.93668 25.2254 7.8952 25.2319 7.85414 25.2405C7.67012 25.2792 7.49173 25.3293 7.31824 25.388L7.28672 25.3991C6.97439 25.5071 6.67954 25.6459 6.40525 25.8124C6.31207 25.8688 6.22089 25.928 6.13215 25.9906C6.10705 26.0085 6.08222 26.027 6.05739 26.0456C6.02715 26.0679 5.99638 26.0901 5.96674 26.113C5.70203 26.3184 5.46257 26.5518 5.25024 26.8065L5.24269 26.8157C5.05947 27.0358 4.89764 27.2722 4.75837 27.5221C4.71842 27.5935 4.68049 27.6659 4.64456 27.7392C4.60186 27.826 4.56153 27.9139 4.52412 28.0033C4.45389 28.172 4.39343 28.3453 4.34315 28.5226C4.32548 28.5847 4.30838 28.6473 4.29335 28.7103C4.29058 28.7221 4.28841 28.7344 4.28584 28.7463C4.19088 29.1566 4.15047 29.5843 4.17219 30.0188C4.17636 30.104 4.18272 30.1895 4.19167 30.2755L4.19518 30.3076C4.20272 30.3755 4.21193 30.4435 4.22248 30.5115C4.23538 30.5948 4.25047 30.6783 4.26816 30.7615C4.27102 30.775 4.27468 30.7876 4.27748 30.8008C4.2917 30.8655 4.30632 30.9296 4.32314 30.9931L4.33314 31.0263C4.33722 31.0411 4.34144 31.0557 4.34546 31.0701C4.3593 31.1203 4.37352 31.1699 4.38872 31.2186L4.39294 31.2297L4.39354 31.2329L4.39395 31.2333C4.40215 31.2577 4.41118 31.2822 4.41942 31.3068C4.43441 31.3508 4.44915 31.3952 4.46502 31.4386C4.47702 31.4701 4.49019 31.5007 4.50245 31.5318C4.51871 31.572 4.53397 31.6129 4.55145 31.6525C4.56551 31.6853 4.58086 31.717 4.59554 31.7487L4.60552 31.7711L4.62117 31.8044L4.63302 31.8298L4.64752 31.8606C4.66359 31.8935 4.68142 31.926 4.69809 31.9586C4.71609 31.993 4.73388 32.0281 4.75255 32.0616C4.77069 32.095 4.7903 32.1274 4.80965 32.1601L4.8253 32.1863C4.83861 32.2098 4.85215 32.2336 4.86691 32.2568C4.88728 32.2897 4.90906 32.3222 4.93042 32.3551C4.95004 32.3849 4.96939 32.415 4.98946 32.4445C5.00104 32.4614 5.01301 32.4777 5.02477 32.4937C5.03687 32.5098 5.04808 32.5264 5.0597 32.5426C5.07982 32.5706 5.09985 32.5981 5.12086 32.6256C5.14605 32.6586 5.17211 32.691 5.19813 32.7232C5.21876 32.7486 5.23875 32.7742 5.25948 32.7992C5.28696 32.8322 5.31595 32.8643 5.34469 32.8968C5.36494 32.9193 5.3848 32.9424 5.40562 32.9653C5.43588 32.9981 5.46689 33.0295 5.49828 33.0612C5.51861 33.0824 5.53889 33.1032 5.55939 33.1236C5.59218 33.1556 5.62584 33.1871 5.65969 33.2186C5.67954 33.2373 5.69955 33.2559 5.71964 33.274C5.75511 33.3062 5.79164 33.3371 5.82831 33.3678C5.84726 33.3843 5.86657 33.4009 5.88656 33.4167C5.92465 33.4479 5.96372 33.4782 6.00326 33.5083C6.02164 33.5226 6.04015 33.5367 6.05933 33.5508C6.10014 33.5816 6.14192 33.6113 6.18413 33.6398C6.20228 33.652 6.21969 33.6646 6.23785 33.6768C6.28152 33.706 6.32657 33.7347 6.37102 33.7628C6.38798 33.773 6.40481 33.7834 6.42168 33.794C6.46826 33.822 6.51556 33.8494 6.56354 33.876C6.57941 33.8848 6.59466 33.8939 6.61047 33.9023C6.66022 33.9296 6.71048 33.9551 6.76106 33.9806C6.77539 33.9874 6.79037 33.995 6.80444 34.0021C6.8571 34.0272 6.90976 34.0514 6.96311 34.0749L7.00275 34.0923C7.05778 34.1159 7.11349 34.1388 7.16942 34.1601L7.205 34.1735C7.26289 34.1956 7.32148 34.2153 7.38042 34.235L7.41078 34.2452C7.47167 34.2648 7.5329 34.2827 7.5942 34.3L7.62046 34.3068C7.68374 34.3241 7.74704 34.3398 7.81115 34.3545L7.83379 34.3597C7.89928 34.3737 7.96501 34.3864 8.03094 34.3984L8.04937 34.4015C8.11731 34.4128 8.18492 34.4231 8.2537 34.4318L8.26762 34.4337C8.30093 34.4375 8.3348 34.44 8.36834 34.4433C8.40491 34.4469 8.44147 34.4513 8.47823 34.4542L8.48849 34.4551C8.56041 34.4602 8.63251 34.4636 8.70498 34.4655L8.71123 34.4662C8.71158 34.4663 8.71222 34.4661 8.71241 34.4663C8.78552 34.468 8.85916 34.4681 8.93286 34.466L8.93643 34.4665C9.16282 34.4608 9.39159 34.4386 9.62117 34.3985C9.67586 34.3893 9.73049 34.3798 9.78504 34.3689C9.85808 34.3535 9.93248 34.3346 10.0069 34.3143C10.1085 34.2867 10.2106 34.2549 10.3131 34.2194C10.4034 34.1883 10.4928 34.1547 10.5816 34.1182C10.7199 34.0617 10.8554 34 10.985 33.9347C11.3737 33.7385 11.707 33.5115 11.8938 33.3091C11.8938 33.3091 11.633 32.7034 11.3923 32.0835C11.366 32.0153 11.3398 31.947 11.3145 31.8796Z" fill="#FCE9C9"></path><path d="M27.1996 13.1922L27.2004 13.1924L27.1982 13.1914L27.1996 13.1922Z" fill="#856249"></path><path d="M10.1663 26.7433C8.44239 26.685 5.93579 27.761 7.23455 31.072" stroke="#674440" stroke-width="0.607729"></path><path d="M17.1393 6.21058L16.9674 5.57981L17.1556 4.8102L17.277 4.75808C17.0488 4.69978 16.7863 4.67683 16.4907 4.69479C15.8986 4.72989 15.1766 4.93399 14.3801 5.30649C13.5834 5.67755 12.7125 6.21399 11.8099 6.8953C10.0045 8.2573 8.07375 10.1974 6.30475 12.5405C5.68744 13.3578 5.12307 14.1804 4.61504 14.9947C4.12135 15.7848 3.68116 16.5672 3.29738 17.3293C2.51799 18.8769 1.97273 20.3425 1.68689 21.6124C1.49567 22.4586 1.42125 23.2173 1.45998 23.8474C1.4873 24.3057 1.57511 24.6946 1.71048 25.0041C1.75433 25.1043 1.80421 25.1934 1.85748 25.2776C1.96862 25.4547 2.0985 25.601 2.25289 25.7182L3.79518 26.8288L3.96046 26.9476L3.96775 26.9362C3.99857 26.8833 4.03038 26.8304 4.06301 26.7783L4.07167 26.7644C4.08355 26.7457 4.09625 26.7278 4.10825 26.7096C4.13939 26.662 4.171 26.6142 4.20359 26.5673C4.2238 26.5382 4.24451 26.51 4.26532 26.4815C4.28561 26.4537 4.30496 26.4253 4.32563 26.3978C4.33507 26.3854 4.34481 26.3738 4.35441 26.3615C4.37618 26.3327 4.399 26.3043 4.42179 26.2758C4.45343 26.2361 4.48528 26.1967 4.51835 26.1577C4.53759 26.1349 4.55701 26.1122 4.5766 26.0895L4.58521 26.0798C4.62013 26.0401 4.65582 26.0008 4.69143 25.9621C4.71397 25.9375 4.73677 25.9134 4.75972 25.8893C4.79702 25.8507 4.83531 25.8121 4.87388 25.7742C4.89711 25.7515 4.92001 25.7288 4.94361 25.7064C4.98336 25.6685 5.02422 25.6313 5.06516 25.5945C5.08913 25.5732 5.11214 25.552 5.13611 25.5315C5.17923 25.494 5.22329 25.458 5.26719 25.422C5.29078 25.403 5.31377 25.3835 5.33742 25.3649L5.36394 25.3439L5.36471 25.3383C5.51393 24.4256 5.80325 23.411 6.22248 22.3319C6.73748 21.0065 7.44627 19.5848 8.33233 18.1354C8.88949 17.2236 9.51593 16.3011 10.2073 15.3853C11.1019 14.2014 12.0372 13.1194 12.9794 12.1575C13.614 11.5093 14.2515 10.9187 14.8821 10.3872C14.9419 10.3369 15.0017 10.285 15.0613 10.236C15.2299 10.0968 15.3975 9.96331 15.5649 9.83348C15.9288 9.54999 16.2893 9.28716 16.644 9.04823L16.4125 8.85639L16.3742 8.82483L14.456 7.23341L14.2539 6.0834L14.2361 6.06952L15.125 5.61308L17.1393 6.21058Z" fill="#0088C7"></path><path d="M37.6215 30.1901L37.622 30.1899C37.622 30.1899 37.6091 29.9403 37.4398 29.7466L37.4358 29.7413C37.4259 29.7296 37.4157 29.7194 37.4053 29.7092L37.3945 29.6982C37.3769 29.6818 37.3564 29.6668 37.3354 29.6517C37.2977 29.6245 37.2552 29.6003 37.2062 29.5808C37.1807 29.57 37.1533 29.5609 37.1244 29.5528C37.0448 29.5316 36.9524 29.5213 36.8457 29.5256C36.7677 29.5287 36.6803 29.5417 36.5863 29.5622C36.5484 29.5706 36.5108 29.5785 36.4703 29.59L36.4518 29.5946C36.4518 29.5946 36.4565 29.6042 36.4633 29.6184C36.4706 29.6335 36.4808 29.6552 36.4946 29.6839C36.4997 29.6952 36.505 29.7069 36.5111 29.7199C36.5346 29.7712 36.5635 29.8366 36.5944 29.9109C36.5943 29.9116 36.5925 29.9275 36.5856 29.958L36.5821 29.9743C36.5553 30.0931 36.474 30.3711 36.2491 30.755C36.2108 30.8202 36.1677 30.8892 36.121 30.9604C35.4756 31.9358 33.9648 33.4352 30.447 34.7729C29.2442 35.1778 28.1071 35.4 27.1116 35.4606C25.6397 35.5503 24.476 35.2919 23.8592 34.7676C23.8058 34.7226 23.7558 34.6754 23.7076 34.6273C23.672 34.5917 23.6373 34.5555 23.6046 34.5185C23.5928 34.5048 23.5817 34.4907 23.57 34.477C23.2835 34.1363 23.1121 33.7385 23.0423 33.3353C22.958 32.8457 23.0231 32.35 23.2139 31.9427C23.3688 31.6123 23.6058 31.3403 23.9121 31.1779C24.0624 31.0984 24.2288 31.0442 24.4102 31.0229C24.4468 31.0187 24.4956 31.0149 24.5566 31.0111C24.679 31.0038 24.8504 30.9961 25.0603 30.9842C25.0838 30.9828 25.1056 30.9816 25.1301 30.9801C25.8292 30.9375 26.9363 30.837 28.2371 30.5111C30.6035 29.9185 33.6134 28.5771 35.9927 25.4633L35.9987 25.4518L35.9978 25.4473C35.9671 25.2294 35.8653 24.8446 35.5356 24.592C35.4781 24.5479 35.4131 24.508 35.3411 24.4733C35.2998 24.4536 35.2575 24.4352 35.2112 24.4193C35.1648 24.4039 35.1221 24.3875 35.0806 24.3708C35.024 24.3484 34.9703 24.3257 34.922 24.3021L34.9141 24.2942C34.8891 24.2676 34.863 24.242 34.8377 24.2155C33.8857 23.2301 32.7416 22.7686 32.2782 22.5457C32.0595 22.4403 31.925 22.3988 31.925 22.3988C30.9419 22.0258 30.7792 21.8716 30.589 20.3958C30.5204 19.8643 30.4483 19.1625 30.332 18.2145C30.3171 18.0911 30.2992 17.9747 30.28 17.8605C30.2754 17.8332 30.2711 17.8065 30.2661 17.7798C30.2468 17.6721 30.2261 17.5673 30.2031 17.4672L30.1967 17.4384L30.1886 17.4079C30.1693 17.3294 30.1493 17.2534 30.1287 17.1797C30.1196 17.1473 30.1102 17.1148 30.1008 17.083C30.077 17.0046 30.0524 16.9286 30.0259 16.8558C30.0125 16.8186 29.9981 16.7831 29.9841 16.747C29.9684 16.7064 29.9523 16.6669 29.936 16.6282C29.9199 16.5902 29.9037 16.5519 29.8868 16.5155L29.8865 16.5154L29.8867 16.5149L29.8868 16.5153C29.8661 16.4704 29.8441 16.4284 29.8228 16.3862C29.815 16.3708 29.808 16.3545 29.7997 16.3397C29.792 16.3256 29.7841 16.3128 29.7765 16.2987L29.7688 16.2848L29.7458 16.2447L29.7448 16.2419C29.726 16.2097 29.7069 16.1785 29.6884 16.1481L29.6823 16.138L29.6638 16.1093L29.6413 16.074L29.6364 16.0673L29.6362 16.0663C29.5981 16.0094 29.5593 15.9545 29.5193 15.9037L29.4882 15.8665C29.4445 15.8176 29.4005 15.7722 29.3562 15.7287L29.3382 15.7104L29.3164 15.6905C29.2849 15.6608 29.2534 15.6318 29.2222 15.605L29.1796 15.5681C29.1382 15.5343 29.0972 15.5018 29.0564 15.4719L29.0562 15.4716C29.0063 15.4354 28.9568 15.4016 28.9071 15.3712C28.8529 15.3501 28.8 15.3318 28.7474 15.3168C28.7302 15.3116 28.7133 15.3085 28.696 15.3044C28.6617 15.2956 28.6269 15.2872 28.5929 15.2813C28.573 15.2777 28.5539 15.2755 28.5344 15.2727C28.5042 15.2689 28.4734 15.2651 28.4434 15.2629C28.4238 15.2618 28.4037 15.2614 28.3842 15.2611C28.3551 15.2604 28.3267 15.2605 28.2981 15.2617C28.2786 15.2627 28.2595 15.264 28.24 15.266C28.212 15.2684 28.1841 15.2723 28.1564 15.2763C28.1376 15.2793 28.119 15.2823 28.101 15.2861C28.0726 15.2919 28.0449 15.2986 28.0172 15.3061C28.0002 15.3106 27.983 15.3153 27.9663 15.3204L27.9294 15.333C27.9129 15.3393 27.896 15.3444 27.8789 15.3511C27.8643 15.3564 27.8496 15.3618 27.8352 15.3677C27.8015 15.3816 27.7685 15.397 27.7358 15.4134L27.7069 15.4269C27.6209 15.471 27.5364 15.5229 27.4542 15.5806L27.4268 15.6004C27.3949 15.6231 27.3628 15.6466 27.3312 15.671L27.295 15.7003C27.2662 15.7227 27.2377 15.7462 27.2095 15.7698L27.1711 15.8031C27.1433 15.827 27.1154 15.8514 27.0878 15.8766L27.0502 15.9107C27.0216 15.9371 26.9927 15.9642 26.9639 15.9915L26.9322 16.0219C26.8998 16.053 26.8673 16.0845 26.835 16.1165L26.8157 16.1355C26.7795 16.1715 26.7427 16.2085 26.7059 16.2455L26.7047 16.247L26.6989 16.2522L26.6994 16.2522C26.6308 16.3209 26.5627 16.3908 26.4935 16.4608C26.4357 16.5196 26.3766 16.5786 26.317 16.6373L26.2885 16.666C26.2285 16.7248 26.1675 16.7827 26.1063 16.8404L26.0754 16.8689C26.0135 16.9254 25.9512 16.9809 25.888 17.0344L25.8546 17.062C25.7909 17.1154 25.7255 17.1663 25.6591 17.2157L25.6259 17.2396C25.5586 17.2886 25.4892 17.3355 25.4184 17.3785L25.3891 17.3963C25.3158 17.4398 25.2408 17.4811 25.1636 17.5177L25.1433 17.5266C25.0616 17.5647 24.979 17.5984 24.893 17.6269C24.7486 17.6746 24.6018 17.7087 24.4531 17.7372C24.211 17.7835 23.9641 17.8092 23.7131 17.8186C23.6295 17.8214 23.5446 17.8224 23.46 17.8226C23.4298 17.8226 23.4001 17.8236 23.3703 17.8233C23.1496 17.8217 22.9262 17.8123 22.7008 17.8006C22.6062 17.7959 22.5116 17.7909 22.4165 17.7858C22.2638 17.7775 22.1098 17.7706 21.9558 17.7645C21.9253 17.7632 21.8956 17.7612 21.8649 17.7603L21.8663 17.7599C21.8447 17.7593 21.8229 17.7589 21.8012 17.7584C21.7671 17.7574 21.733 17.7565 21.6992 17.7552C21.6667 17.7548 21.634 17.7544 21.6017 17.754L21.5847 17.7537L21.5735 17.7536C21.5436 17.7533 21.514 17.7528 21.484 17.7527C21.4146 17.7525 21.3449 17.7531 21.2754 17.7545C21.2548 17.7547 21.2341 17.756 21.2137 17.7566C21.1621 17.7582 21.1106 17.7598 21.0595 17.7624C21.0336 17.7635 21.0074 17.7659 20.9819 17.7675L20.9762 17.7679C20.9315 17.7704 20.8867 17.7735 20.8423 17.7773C20.8126 17.7799 20.7828 17.783 20.7537 17.7856C20.7404 17.7871 20.7271 17.7887 20.7135 17.7901C20.6833 17.7934 20.6527 17.7967 20.6223 17.8005C20.5933 17.804 20.5642 17.8077 20.5349 17.8119C20.4884 17.8186 20.4429 17.8259 20.3972 17.8336C20.3834 17.836 20.3696 17.8384 20.3558 17.8407C20.3433 17.8428 20.3301 17.8448 20.3174 17.8472C20.2608 17.8579 20.2036 17.8698 20.1465 17.8831C20.1318 17.8863 20.1161 17.8891 20.1011 17.893C20.0288 17.9097 19.9566 17.9291 19.8845 17.9505C19.8659 17.956 19.8474 17.9624 19.8284 17.9679C19.782 17.9824 19.7355 17.9977 19.6891 18.0139L19.6684 18.0209C19.6431 18.0296 19.6175 18.0396 19.5924 18.049C19.5452 18.0671 19.4985 18.0856 19.4514 18.1053C19.4243 18.117 19.3973 18.1283 19.3705 18.1407C19.3244 18.1613 19.278 18.1833 19.2319 18.2062C19.2056 18.219 19.1794 18.2318 19.1531 18.2457C19.1034 18.2715 19.0544 18.2992 19.0051 18.3277C18.9827 18.3405 18.9603 18.3525 18.938 18.3664C18.8661 18.4091 18.7955 18.4544 18.7242 18.5034C18.1828 18.9659 17.7507 19.5399 17.4402 20.1734C17.3368 20.3842 17.2467 20.602 17.1708 20.8243C17.0903 21.0597 17.0274 21.3002 16.979 21.5436C16.9648 21.6148 16.9519 21.6857 16.9405 21.7573C16.9219 21.8777 16.9053 21.9987 16.8947 22.12C16.8937 22.1329 16.8933 22.1461 16.8923 22.1592C16.881 22.2958 16.8748 22.4326 16.8743 22.5696C16.8732 22.7128 16.8787 22.8555 16.8894 22.9979C16.8952 23.0749 16.9015 23.1516 16.9107 23.2282C16.9355 23.4338 16.9751 23.6377 17.0254 23.8388C17.0296 23.8571 17.0347 23.8755 17.0394 23.8935C17.0526 23.9449 17.064 23.9962 17.0793 24.0473C17.1214 24.1893 17.169 24.3303 17.225 24.4686C17.2451 24.5197 17.2688 24.5671 17.2912 24.6158C17.3123 24.6625 17.3326 24.711 17.3546 24.7564L17.3546 24.756C17.5243 25.1042 17.7324 25.4074 17.9619 25.6754C18.8361 26.694 20.0504 27.174 20.9063 27.3935C21.2378 27.4714 21.58 27.5324 21.932 27.5764C21.932 27.5764 21.9181 27.5891 21.8969 27.6101C21.841 27.6357 21.7756 27.6668 21.7036 27.7026C21.5944 27.7565 21.4689 27.8218 21.3314 27.8986C21.177 27.9848 21.0077 28.0856 20.8308 28.2007C20.3592 28.5079 19.8353 28.9174 19.3988 29.4293C19.3441 29.4932 19.291 29.5587 19.2393 29.6258C19.1515 29.7404 19.0699 29.8604 18.993 29.9844C18.9842 29.9985 18.9745 30.0122 18.9662 30.0263C18.9545 30.0454 18.9433 30.065 18.932 30.0841C18.9035 30.1336 18.8756 30.184 18.8487 30.235C18.838 30.2555 18.8274 30.2759 18.8166 30.2964C18.7818 30.3661 18.7483 30.4364 18.7176 30.5086C18.6875 30.5794 18.6594 30.652 18.6336 30.7251C18.4282 31.3138 18.3743 31.9828 18.5691 32.7322L18.5693 32.724L18.5692 32.7183C18.5692 32.7111 18.5693 32.7012 18.5695 32.6889L18.5699 32.6824C18.57 32.6705 18.5708 32.6562 18.5715 32.6406L18.5719 32.6307C18.5728 32.6127 18.574 32.592 18.5756 32.5693L18.5768 32.5545C18.5788 32.5304 18.581 32.5041 18.5836 32.4757L18.5839 32.4755C18.5865 32.4475 18.5905 32.4172 18.5943 32.3859L18.597 32.3667C18.6013 32.3348 18.6063 32.3012 18.6122 32.2666L18.6156 32.2499C18.6209 32.2171 18.6273 32.1833 18.6347 32.1484L18.6381 32.1322C18.6459 32.0945 18.6552 32.0554 18.6648 32.0156L18.6712 31.9907C18.682 31.9498 18.6929 31.9084 18.706 31.8661L18.706 31.8659C18.7065 31.8642 18.7072 31.8626 18.7077 31.861C18.727 31.7978 18.75 31.7328 18.7751 31.6671C18.7845 31.6422 18.7935 31.6175 18.8043 31.5923L18.8123 31.5715L18.8126 31.5709C18.8348 31.519 18.8586 31.4667 18.8851 31.4145C18.9065 31.3718 18.9298 31.329 18.9541 31.2863C18.9617 31.273 18.9701 31.2595 18.9784 31.246C18.9981 31.2134 19.0187 31.1806 19.0405 31.1481C19.0494 31.135 19.0582 31.1216 19.0672 31.1087C19.0972 31.0659 19.1284 31.0236 19.162 30.9821L19.1648 30.9783C19.1648 30.9783 18.7653 32.672 19.2976 33.8565C19.2976 33.8565 19.2966 33.8527 19.2954 33.8462L19.2939 33.8385C19.2923 33.8317 19.2908 33.8237 19.2889 33.8132C19.2885 33.8111 19.288 33.8087 19.2875 33.8065C19.2852 33.7937 19.2825 33.779 19.2798 33.7613C19.2794 33.759 19.279 33.7569 19.2789 33.7543C19.2754 33.7359 19.2729 33.7152 19.2696 33.6922C19.2692 33.6901 19.2691 33.6877 19.2687 33.6856C19.2656 33.6618 19.2622 33.6358 19.2592 33.6081C19.2587 33.6056 19.2585 33.6035 19.2584 33.6012C19.2554 33.5728 19.2523 33.5429 19.25 33.5111C19.2499 33.5086 19.2497 33.506 19.2495 33.5032C19.2468 33.4715 19.2452 33.4384 19.2435 33.4034C19.2432 33.4004 19.2433 33.3972 19.2431 33.3941C19.2416 33.3571 19.2406 33.3186 19.2406 33.2788L19.2404 33.2694L19.2405 33.2493L19.2404 33.2485C19.2408 33.2036 19.2426 33.1575 19.2457 33.1104C19.2459 33.1074 19.246 33.1042 19.2461 33.1011C19.2497 33.0551 19.2541 33.0084 19.2598 32.9612C19.2618 32.9466 19.2634 32.9324 19.2653 32.9178L19.2696 32.8876L19.2695 32.8871C19.2758 32.848 19.2833 32.8088 19.292 32.7694L19.2933 32.7631L19.2934 32.7627C19.3055 32.7077 19.3215 32.6536 19.3392 32.5995C19.3437 32.5853 19.3489 32.5709 19.3541 32.5568C19.3737 32.5031 19.3948 32.45 19.4207 32.3987L19.4217 32.3962L19.4218 32.3961C19.4218 32.3961 19.4541 32.7888 19.5499 33.2453C19.5653 33.3171 19.5825 33.3906 19.6011 33.4644C19.6132 33.5136 19.6258 33.563 19.6397 33.612C19.5783 33.1137 19.5819 32.6341 19.6324 32.178C19.582 32.6344 19.5783 33.1138 19.64 33.6125L19.64 33.6126C19.6789 33.9308 19.7441 34.2562 19.8397 34.5882C19.9999 35.1416 20.2452 35.713 20.5983 36.2967C20.5983 36.2967 20.2473 35.6152 20.424 34.835C20.4644 34.8954 20.5068 34.956 20.5508 35.0168C20.6163 35.2262 20.7163 35.5223 20.8418 35.8455C21.0062 36.3923 21.5857 38.0166 22.9429 38.9817C22.9429 38.9817 22.4089 38.5043 22.3402 37.7656C22.4029 37.8526 22.4634 37.9303 22.5196 37.9966C22.7821 38.3244 23.2957 38.9304 23.8053 39.3218C23.8053 39.3218 23.3394 38.7228 23.3924 38.565C23.3924 38.565 24.7676 39.7445 25.1479 39.8136L24.5367 39.1267L24.5219 39.106C26.3633 39.9792 28.6699 40.0004 31.2791 38.7203C31.7274 38.4999 32.1847 38.2415 32.6502 37.9419C32.9344 37.7506 33.2129 37.5465 33.4854 37.3271L33.5248 37.2944C33.7152 37.139 33.9022 36.9754 34.0863 36.8052L34.0904 36.8014C34.2286 36.6736 34.3645 36.5413 34.4982 36.4056C34.7215 36.1763 34.9407 35.9378 35.1502 35.684L35.1508 35.6836L35.1516 35.6826C35.1635 35.6673 35.1759 35.6522 35.1886 35.6368C35.3944 35.3759 35.5835 35.1118 35.7554 34.8468C35.9825 34.4967 36.1796 34.1456 36.3525 33.798L36.3653 33.773C36.4074 33.6874 36.4484 33.6023 36.488 33.5183L36.499 33.4938C36.5117 33.4651 36.5225 33.4381 36.5351 33.4098C36.5893 33.2892 36.6427 33.1685 36.6916 33.0495C36.7034 33.0211 36.7155 32.992 36.7272 32.9633C36.7523 32.9004 36.7762 32.8377 36.8002 32.7759C36.8179 32.7274 36.8363 32.6789 36.8534 32.6311C36.8726 32.5789 36.8919 32.5265 36.9104 32.4747C36.9427 32.3809 36.9739 32.2878 37.0034 32.1957C37.0149 32.1591 37.0257 32.1237 37.0368 32.0877C37.059 32.0161 37.0807 31.9453 37.1006 31.8756C37.1099 31.8431 37.1194 31.8106 37.1283 31.7783L37.1361 31.7479C37.1611 31.66 37.1842 31.573 37.2065 31.4876L37.2102 31.4695C37.3247 31.3144 37.4095 31.1713 37.474 31.0375C37.4834 31.0186 37.4933 30.9992 37.5017 30.9804C37.642 30.6675 37.6591 30.4108 37.6215 30.1901Z" fill="#FCE9C9"></path><path d="M11.0026 30.9305C10.9574 30.9545 10.9152 31.028 10.877 31.1248C10.8628 31.1611 10.8494 31.2003 10.8364 31.2414C10.742 31.5419 10.6817 31.9456 10.6817 31.9456C10.6683 31.8171 10.6577 31.6831 10.6485 31.5481C10.6474 31.5325 10.6469 31.517 10.6459 31.5012C10.6369 31.3637 10.6303 31.2247 10.6252 31.0862C10.6244 31.0694 10.6239 31.0528 10.6233 31.0364C10.6183 30.8802 10.6148 30.7247 10.6131 30.5743C10.6129 30.5546 10.6126 30.5357 10.6126 30.5163L10.6127 30.5064C10.6126 30.489 10.6123 30.4714 10.6122 30.454C10.6118 30.4281 10.6116 30.4022 10.6116 30.3765C10.611 30.2572 10.6118 30.1416 10.613 30.0319C10.6141 29.9327 10.6156 29.8388 10.6175 29.7503L10.6179 29.7218C10.618 29.7079 10.6186 29.6952 10.6189 29.6819C10.6193 29.6689 10.6195 29.6555 10.6196 29.6421L10.6197 29.6374C10.6204 29.6153 10.6211 29.5925 10.6216 29.5715L10.6219 29.5657C10.6221 29.545 10.6228 29.5273 10.6233 29.5079C10.6244 29.4774 10.625 29.4462 10.626 29.4177L10.6263 29.4097C10.6271 29.3866 10.6276 29.3632 10.6284 29.342C10.6297 29.3115 10.6309 29.2835 10.6314 29.2571L10.6316 29.2562L10.6318 29.2555C10.6323 29.2404 10.633 29.2272 10.6335 29.2132L10.6337 29.2107C10.6343 29.198 10.6345 29.1847 10.6352 29.1735C10.6364 29.1455 10.6375 29.1201 10.6384 29.1006L10.6393 29.0832L10.6398 29.0768L10.6408 29.0563L10.6414 29.0421L10.6417 29.0401L10.6398 29.0423L10.6154 29.0745C10.5938 29.1023 10.5714 29.1298 10.5519 29.1599L10.5307 29.1943C10.5081 29.2316 10.4865 29.2704 10.4673 29.3109L10.4568 29.3307C10.433 29.3815 10.4119 29.434 10.3923 29.4871L10.3924 29.4873L10.3898 29.4942L10.3897 29.4946L10.3822 29.518C10.3778 29.5309 10.3738 29.544 10.3698 29.557C10.3589 29.59 10.3474 29.6222 10.3383 29.6552L10.3378 29.6565L10.3375 29.6575L10.3371 29.6602L10.3335 29.6726L10.3303 29.685C10.3162 29.7371 10.3042 29.7885 10.2932 29.839C10.2622 29.9811 10.2426 30.1146 10.2299 30.2255C10.2257 30.2648 10.2217 30.3021 10.2191 30.3349C10.213 30.406 10.2098 30.4613 10.2087 30.4883L10.2088 30.4906L10.2079 30.5088L10.2057 30.4882C10.2004 30.4475 10.1976 30.4067 10.1933 30.3661C10.1839 30.2809 10.1734 30.1955 10.1671 30.1103C10.1613 30.0386 10.1593 29.9679 10.1562 29.8961C10.1553 29.8738 10.1546 29.8513 10.1538 29.8291C10.1521 29.7962 10.1506 29.7632 10.1499 29.7302C10.1489 29.6995 10.15 29.6689 10.1501 29.6386L10.15 29.6363L10.15 29.6361L10.1501 29.6022L10.1504 29.5929C10.1502 29.5558 10.1503 29.5181 10.1505 29.481C10.1503 29.4667 10.1503 29.4523 10.1505 29.4378L10.1509 29.4121L10.151 29.4073C10.1512 29.3952 10.1515 29.3827 10.1519 29.3707C10.152 29.3555 10.1534 29.3405 10.1538 29.326C10.1558 29.2712 10.159 29.2172 10.1616 29.163L10.1621 29.154C10.1639 29.1136 10.1652 29.0731 10.168 29.0332L10.168 29.0314L10.1685 29.0287L10.1694 29.0169C10.1751 28.9348 10.1833 28.854 10.1915 28.7726L10.1953 28.7279C10.197 28.7129 10.1979 28.6972 10.1997 28.6819C10.2135 28.5498 10.2303 28.4188 10.2501 28.2901L10.2527 28.2739C10.2698 28.1645 10.2877 28.0566 10.3076 27.9498L10.3098 27.9376C10.3191 27.8906 10.3291 27.8452 10.3382 27.7987L10.3398 27.7918C10.354 27.7223 10.3678 27.6525 10.383 27.585L10.383 27.5844L10.383 27.584L10.3833 27.5831L10.3849 27.5748C10.3891 27.5577 10.3987 27.5166 10.4141 27.4558L10.4144 27.4548L10.4165 27.4466L10.4165 27.4464C10.4224 27.4225 10.428 27.3993 10.4336 27.3751C10.4428 27.3365 10.4522 27.2983 10.4613 27.2604L10.4698 27.227C10.4452 27.2191 10.4197 27.2126 10.3945 27.2054L10.3802 27.2013L10.3534 27.1935C10.1906 27.1498 10.0226 27.1218 9.85163 27.11L9.82454 27.1085C9.7151 27.1018 9.60459 27.1017 9.49321 27.1095C9.42873 27.114 9.36435 27.1201 9.29961 27.1295C9.24581 27.1373 9.1923 27.1466 9.13847 27.1578C9.0576 27.1747 8.97895 27.1965 8.90192 27.2198C8.87742 27.2277 8.85393 27.2366 8.83022 27.2443C8.79233 27.2575 8.7552 27.2722 8.71783 27.2865C8.7034 27.2925 8.68794 27.2973 8.67354 27.3035C8.64744 27.3143 8.62165 27.3251 8.59608 27.337C8.54575 27.3598 8.49699 27.3839 8.44885 27.4096C8.42644 27.4216 8.40391 27.4321 8.38226 27.4446C8.31757 27.4818 8.25443 27.521 8.19345 27.563C8.16913 27.5798 8.14705 27.598 8.12342 27.615C8.09585 27.6357 8.06878 27.6572 8.04175 27.6782L8.01386 27.6998C7.98433 27.7241 7.95584 27.7496 7.92764 27.7749C7.90144 27.7985 7.87513 27.8233 7.85018 27.8483C7.81934 27.878 7.78936 27.9079 7.76055 27.9388C7.74288 27.9584 7.72623 27.9783 7.7086 27.9981C7.66227 28.0512 7.61927 28.1071 7.57724 28.1637C7.55559 28.1931 7.53498 28.2227 7.5146 28.2527C7.4784 28.3051 7.44331 28.3581 7.41151 28.4129L7.3953 28.4404C7.37866 28.4699 7.36372 28.5007 7.34872 28.5311L7.34624 28.5355L7.34434 28.5395C7.33409 28.56 7.32261 28.58 7.31274 28.6007L7.30881 28.6089L7.30488 28.617L7.30468 28.6177L7.30445 28.6183C7.24387 28.7484 7.19474 28.8839 7.15612 29.0226C7.15041 29.0426 7.14575 29.0628 7.14058 29.083C7.12341 29.1505 7.10875 29.2191 7.09689 29.2885C7.09226 29.316 7.08637 29.3429 7.08244 29.3706L7.08218 29.3709L7.08221 29.3711L7.08198 29.3716C7.0724 29.4417 7.06554 29.5122 7.06196 29.5843L7.0605 29.611L7.06049 29.6446L7.06022 29.6477C7.05819 29.6996 7.05663 29.7515 7.05825 29.8037C7.05891 29.8294 7.0611 29.8553 7.06262 29.8811L7.06284 29.8885C7.06466 29.916 7.06701 29.9437 7.06937 29.9713C7.07076 29.9921 7.07157 30.0133 7.07385 30.0343C7.08286 30.1154 7.09534 30.1964 7.11251 30.2777C7.1259 30.3406 7.14307 30.4016 7.16059 30.4627L7.16173 30.4661L7.16921 30.4946C7.17898 30.5284 7.19122 30.5612 7.20269 30.5942C7.2442 30.7147 7.29208 30.8312 7.3496 30.9417C7.39282 31.0261 7.44022 31.1072 7.49204 31.1854C7.58702 31.3291 7.69629 31.4607 7.81559 31.5814C8.06677 31.8361 8.36627 32.0385 8.69722 32.1738C8.88488 32.2504 9.08238 32.3044 9.2861 32.3358C9.48172 32.3664 9.68203 32.3778 9.88578 32.3625C9.93156 32.3587 9.97758 32.3536 10.0237 32.3483C10.0927 32.3401 10.1611 32.3303 10.2303 32.3159C10.2939 32.3025 10.3546 32.2831 10.4163 32.2653C10.4515 32.2552 10.4884 32.248 10.5229 32.2364C10.6109 32.2069 10.696 32.172 10.7791 32.134L10.7979 32.126C10.8325 32.1098 10.8637 32.0903 10.8969 32.0728C11.0003 32.0189 11.0989 31.9588 11.1932 31.8921L11.2137 31.878C11.2402 31.8603 11.2677 31.843 11.2928 31.8235L11.296 31.8216C11.1938 31.5537 11.1025 31.2763 11.0209 30.9906C11.0152 30.9702 11.0086 30.9507 11.0026 30.9305Z" fill="#FCE9C9"></path><path d="M10.8803 30.9811C10.7917 31.4899 10.2484 32.4558 8.78425 32.2493" stroke="#674440" stroke-width="0.607729"></path><path d="M17.5801 6.34082L17.6324 6.3562L17.6304 6.34995L17.5801 6.34082Z" fill="#4D94C3"></path><path d="M36.511 29.7198C36.505 29.7068 36.4996 29.6951 36.4946 29.6838C36.4808 29.6551 36.4706 29.6333 36.4633 29.6183C36.3375 29.3786 36.2011 29.1985 36.0863 29.0733C35.9392 28.9116 35.8286 28.8387 35.8286 28.8387C35.8355 28.7708 35.8386 28.7052 35.8405 28.6408C35.8424 28.5566 35.8411 28.4748 35.8358 28.3962C35.7957 27.8037 35.5563 27.3816 35.3845 27.1501C35.3571 27.113 35.3318 27.0815 35.309 27.0542C35.2314 27.1345 35.1525 27.2143 35.0734 27.2924C33.572 28.777 31.7768 29.8848 29.7422 30.5968C28.34 31.0875 26.8253 31.3916 25.2105 31.4942L25.2395 31.4971C25.2395 31.4971 24.3122 31.805 24.2245 32.7661L24.2424 32.7724L24.278 33.3993C24.4606 34.2232 24.9365 34.6714 25.4189 34.8639C25.8992 34.9512 26.465 34.9806 27.0803 34.9429C28.151 34.8777 29.3457 34.6191 30.5354 34.1955L30.5415 34.1934L30.5476 34.1915C32.1374 33.6684 34.2766 32.368 35.7121 30.9369C36.0392 30.6108 36.33 30.2784 36.5692 29.9463L36.5781 29.9337L36.5943 29.9108C36.5634 29.8365 36.5345 29.7711 36.511 29.7198Z" fill="white"></path><path d="M31.925 22.3988C30.9419 22.0259 30.7791 21.8717 30.5889 20.3958C30.5203 19.8644 30.4482 19.1626 30.3319 18.2146C30.317 18.0911 30.2991 17.9747 30.2799 17.8605C30.2753 17.8333 30.271 17.8066 30.266 17.7799C30.2467 17.6722 30.226 17.5674 30.203 17.4673L30.1967 17.4385L30.1885 17.408C30.1692 17.3295 30.1492 17.2535 30.1287 17.1797C30.1195 17.1474 30.1101 17.1149 30.1007 17.0831C30.077 17.0046 30.0523 16.9287 30.0259 16.8559C30.0125 16.8187 29.9981 16.7831 29.984 16.747C29.9684 16.7065 29.9522 16.667 29.9359 16.6283C29.9199 16.5903 29.9036 16.552 29.8867 16.5156L29.8864 16.5155L29.8866 16.5149C29.7259 16.3514 29.5452 16.2121 29.3435 16.1027L29.3043 16.0835L29.2965 16.0795L29.267 16.065L29.257 16.0601C29.2281 16.0453 29.198 16.0313 29.1685 16.0187C29.1367 16.0053 29.1052 15.9922 29.0732 15.9803C28.7825 15.8703 28.4729 15.8248 28.1529 15.8368C27.9762 15.8436 27.7963 15.868 27.6149 15.9091C27.5306 15.928 27.4461 15.9515 27.3616 15.9779C27.1414 16.0463 26.9199 16.1374 26.6993 16.2522C26.6308 16.3209 26.5626 16.3909 26.4934 16.4609C26.4356 16.5197 26.3765 16.5787 26.317 16.6374L26.2884 16.6661C26.2284 16.7249 26.1674 16.7828 26.1063 16.8405L26.0753 16.869C26.0134 16.9255 25.9512 16.981 25.8879 17.0345L25.8545 17.062C25.7908 17.1154 25.7254 17.1664 25.659 17.2158L25.6258 17.2397C25.5585 17.2887 25.4892 17.3355 25.4183 17.3785L25.389 17.3964C25.3158 17.4399 25.2408 17.4812 25.1635 17.5177L25.1432 17.5267C25.0615 17.5647 24.979 17.5985 24.893 17.627C24.7485 17.6746 24.6017 17.7088 24.453 17.7372C24.2109 17.7836 23.9641 17.8093 23.713 17.8186C23.6294 17.8215 23.5445 17.8225 23.4599 17.8227C23.4298 17.8227 23.4 17.8236 23.3702 17.8234C23.1495 17.8218 22.9261 17.8124 22.7008 17.8007C22.6061 17.796 22.5115 17.791 22.4165 17.7859C22.2637 17.7775 22.1097 17.7707 21.9557 17.7646C21.9252 17.7633 21.8956 17.7612 21.8648 17.7604C21.7422 17.7902 21.6201 17.8256 21.4982 17.8645L21.4716 17.873C21.1182 17.9881 20.7701 18.1424 20.4333 18.3341C20.4146 18.3447 20.3957 18.3544 20.3774 18.3652C20.3249 18.3957 20.2732 18.428 20.2213 18.4605C20.1519 18.5043 20.0829 18.5491 20.0147 18.5959C19.5362 18.9234 19.0883 19.3311 18.6918 19.817C18.5312 20.0139 18.3847 20.2181 18.2508 20.4266C18.0454 20.747 17.8729 21.0796 17.7307 21.4184C17.7229 21.4374 17.7151 21.4562 17.7077 21.4752C17.6324 21.6591 17.5666 21.8446 17.5106 22.0312C17.4903 22.0979 17.4697 22.1647 17.4521 22.2316L17.4484 22.2446C17.3912 22.4628 17.3472 22.6817 17.3149 22.9005C17.3132 22.9135 17.312 22.9265 17.3108 22.9393C17.3063 22.9711 17.3042 23.0026 17.3003 23.0341C17.2879 23.1351 17.2782 23.2364 17.2707 23.337C17.2637 23.4414 17.2581 23.5458 17.2567 23.6495C17.2568 23.6716 17.256 23.6941 17.2563 23.7164C17.2562 23.7796 17.2566 23.8427 17.2584 23.9056C17.2663 24.1365 17.2894 24.3641 17.3262 24.5877C17.335 24.6439 17.3435 24.7008 17.3545 24.7561C17.5242 25.1042 17.7323 25.4075 17.9618 25.6755C18.836 26.6941 20.0503 27.1741 20.9062 27.3936C21.2377 27.4715 21.5799 27.5325 21.9319 27.5765L21.943 27.5893L21.9434 27.5894L21.9447 27.5885L21.9631 27.568C21.9994 27.5278 22.0357 27.4876 22.0736 27.4475C22.0867 27.4326 22.1004 27.4185 22.1139 27.404C22.1524 27.3631 22.1921 27.3213 22.2329 27.2799C22.2465 27.2661 22.2604 27.2521 22.2745 27.2381C22.3154 27.1965 22.3575 27.1543 22.4006 27.1126C22.4149 27.0986 22.4294 27.0849 22.444 27.071C22.4875 27.0288 22.5319 26.9866 22.5776 26.9443C22.5929 26.9303 22.6077 26.9165 22.6228 26.9028C22.6694 26.8606 22.7161 26.8185 22.7634 26.7761C22.7798 26.7618 22.7964 26.7473 22.8127 26.7326C22.8606 26.6914 22.909 26.6495 22.9589 26.6074C22.977 26.5928 22.9949 26.5777 23.0129 26.5626C23.0618 26.5214 23.1121 26.4806 23.1633 26.4396C23.1834 26.4234 23.2037 26.4071 23.2245 26.3909C23.2749 26.3507 23.3262 26.3107 23.3783 26.2709C23.4006 26.254 23.4229 26.2369 23.4455 26.2198C23.4974 26.1805 23.5501 26.1414 23.6031 26.1024C23.6283 26.084 23.654 26.0658 23.6793 26.0473C23.7315 26.0096 23.7845 25.9719 23.8385 25.9342C23.8664 25.9143 23.8958 25.8947 23.9247 25.8748C23.977 25.8387 24.0303 25.8025 24.0848 25.7665C24.1165 25.7449 24.1494 25.7235 24.1817 25.7024C24.2343 25.6679 24.2877 25.6335 24.342 25.5987C24.3781 25.5759 24.415 25.553 24.4515 25.5299C24.5042 25.4973 24.5569 25.4645 24.6109 25.4317C24.6512 25.407 24.6924 25.3822 24.7331 25.3583C24.7856 25.3272 24.8373 25.2961 24.8909 25.2651C24.9362 25.2391 24.9823 25.213 25.0282 25.1869C25.0796 25.1576 25.1312 25.128 25.1837 25.0995C25.2341 25.0714 25.2852 25.044 25.3363 25.0164C25.3868 24.9889 25.4369 24.9617 25.4883 24.9346C25.5444 24.9048 25.6016 24.8754 25.6594 24.8456C25.7076 24.8212 25.7558 24.7958 25.8052 24.7712C25.8674 24.7396 25.9314 24.7084 25.9947 24.6773C26.0268 24.6619 26.0573 24.6456 26.0894 24.6306C26.228 23.9239 26.6991 22.1475 27.9946 21.7208C28.1337 21.6735 28.2613 21.6419 28.3832 21.6179C28.4137 21.6118 28.446 21.6035 28.4752 21.5987C28.4422 21.5069 28.4117 21.4106 28.3863 21.3093C28.2135 20.614 28.3205 19.9892 28.6251 19.9132C28.8601 19.8493 29.1149 20.1623 29.1701 20.2782C29.3007 20.4751 29.4153 20.7362 29.4902 21.0357C29.5582 21.3094 29.5803 21.5696 29.5673 21.7923C29.5993 21.815 29.6271 21.8416 29.6567 21.8665C30.0316 22.1874 30.1809 22.7018 30.2377 23.0753C30.3538 23.0412 30.4733 23.0081 30.5929 22.9751C30.6232 22.9664 30.653 22.9579 30.684 22.9491L30.7028 22.9438C30.7201 22.9387 30.7375 22.9345 30.7546 22.9298C30.9026 22.8893 31.0524 22.8492 31.2046 22.8094L31.2114 22.8078C31.5562 22.7183 31.911 22.6307 32.2781 22.5458C32.0594 22.4404 31.925 22.3988 31.925 22.3988Z" fill="#F1BA82"></path><path d="M37.1061 31.6168C36.6214 32.2431 36.0902 32.7723 35.5486 33.2187C35.2781 33.441 35.0055 33.6411 34.7345 33.8244C34.1321 34.2325 33.5401 34.5484 33.0111 34.787C31.8437 35.3133 30.9813 35.4749 30.9813 35.4749C31.7192 35.72 32.5664 35.5654 33.1362 35.3984C33.5284 35.284 33.7903 35.1639 33.7903 35.1639C33.8237 35.4118 33.8352 35.6434 33.8308 35.8624C33.8257 36.1049 33.7988 36.3292 33.7554 36.538L33.7523 36.5558L33.7518 36.557C33.697 36.8154 33.6164 37.0481 33.5174 37.2585C33.5065 37.2812 33.4965 37.3053 33.4854 37.3274L33.5248 37.2947C33.7151 37.1392 33.9021 36.9756 34.0862 36.8054L34.0903 36.8017C34.2285 36.6738 34.3645 36.5416 34.4981 36.4058C34.7215 36.1765 34.9406 35.9381 35.1502 35.6842L35.1507 35.6838L35.1516 35.6828C35.1634 35.6675 35.1758 35.6525 35.1885 35.6371C35.3944 35.3761 35.5835 35.1121 35.7553 34.8471C35.9824 34.497 36.1796 34.1459 36.3524 33.7983L36.3653 33.7732C36.4073 33.6876 36.4484 33.6026 36.4879 33.5186L36.4989 33.494C36.5116 33.4654 36.5224 33.4384 36.535 33.41C36.5892 33.2894 36.6427 33.1688 36.6916 33.0498C36.7033 33.0213 36.7154 32.9922 36.7271 32.9636C36.7522 32.9007 36.7761 32.838 36.8001 32.7761C36.8179 32.7276 36.8363 32.6792 36.8533 32.6314C36.8725 32.5791 36.8919 32.5267 36.9103 32.475C36.9426 32.3811 36.9739 32.2881 37.0033 32.1959C37.0148 32.1594 37.0256 32.1239 37.0367 32.0879C37.0589 32.0163 37.0806 31.9456 37.1005 31.8759C37.1099 31.8434 37.1193 31.8108 37.1282 31.7786L37.1361 31.7481C37.161 31.6603 37.1842 31.5732 37.2064 31.4879C37.173 31.532 37.1395 31.5741 37.1061 31.6168Z" fill="#EFB87F"></path><path d="M21.3318 27.8987C21.1773 27.9849 21.008 28.0857 20.8312 28.2008C20.3595 28.508 19.8356 28.9175 19.3992 29.4294C19.3445 29.4933 19.2914 29.5588 19.2397 29.6259C19.1519 29.7405 19.0703 29.8605 18.9933 29.9845C18.9845 29.9986 18.9749 30.0123 18.9666 30.0264C18.9549 30.0455 18.9437 30.0651 18.9324 30.0842C18.9039 30.1337 18.8759 30.1841 18.849 30.2351C18.8383 30.2556 18.8277 30.276 18.817 30.2965C18.7822 30.3662 18.7487 30.4365 18.718 30.5087C18.6879 30.5795 18.6597 30.6521 18.634 30.7252C18.4286 31.3139 18.3747 31.9829 18.5695 32.7323L18.5696 32.7241L18.5695 32.7184C18.5695 32.7112 18.5697 32.7013 18.5699 32.689L18.5703 32.6825C18.5704 32.6706 18.5712 32.6563 18.5719 32.6407L18.5722 32.6308C18.5732 32.6128 18.5744 32.5921 18.576 32.5694L18.5772 32.5546C18.5791 32.5305 18.5813 32.5042 18.584 32.4758L18.5843 32.4756C18.5868 32.4476 18.5909 32.4173 18.5947 32.386L18.5974 32.3668C18.6017 32.3349 18.6067 32.3013 18.6126 32.2667L18.6159 32.25C18.6212 32.2172 18.6277 32.1834 18.635 32.1485L18.6385 32.1323C18.6463 32.0946 18.6556 32.0555 18.6652 32.0157L18.6716 31.9908C18.6823 31.9499 18.6933 31.9085 18.7064 31.8662L18.7064 31.866C18.7069 31.8643 18.7076 31.8627 18.7081 31.8611C18.7274 31.7979 18.7503 31.7329 18.7755 31.6672C18.7849 31.6423 18.7938 31.6176 18.8047 31.5924L18.8127 31.5716L18.8129 31.571C18.8351 31.5191 18.859 31.4668 18.8854 31.4146C18.9069 31.3719 18.9302 31.3291 18.9545 31.2864C18.9621 31.2731 18.9705 31.2596 18.9787 31.2461C18.9984 31.2135 19.0191 31.1807 19.0408 31.1482C19.0498 31.1351 19.0586 31.1217 19.0676 31.1088C19.0976 31.066 19.1288 31.0237 19.1624 30.9822L19.1651 30.9784C19.1651 30.9784 18.7657 32.6721 19.298 33.8566C19.298 33.8566 19.297 33.8528 19.2957 33.8463L19.2943 33.8386C19.2927 33.8318 19.2912 33.8238 19.2892 33.8133C19.2888 33.8112 19.2884 33.8088 19.2878 33.8066C19.2856 33.7938 19.2828 33.7791 19.2802 33.7614C19.2798 33.7591 19.2794 33.757 19.2792 33.7544C19.2758 33.736 19.2733 33.7153 19.27 33.6923C19.2696 33.6902 19.2694 33.6878 19.2691 33.6857C19.2659 33.6619 19.2626 33.6359 19.2596 33.6082C19.2591 33.6057 19.2589 33.6036 19.2588 33.6013C19.2558 33.5729 19.2527 33.543 19.2504 33.5112C19.2502 33.5087 19.2501 33.5061 19.2499 33.5033C19.2471 33.4716 19.2456 33.4385 19.2438 33.4035C19.2436 33.4005 19.2437 33.3973 19.2434 33.3942C19.242 33.3572 19.2409 33.3187 19.2409 33.2789L19.2408 33.2695L19.2409 33.2494L19.2407 33.2486C19.2411 33.2037 19.2429 33.1576 19.246 33.1105C19.2463 33.1075 19.2464 33.1043 19.2465 33.1012C19.2501 33.0552 19.2545 33.0085 19.2602 32.9613C19.2621 32.9467 19.2638 32.9325 19.2657 32.9179L19.27 32.8877L19.2699 32.8872C19.2761 32.8481 19.2837 32.8089 19.2924 32.7695L19.2937 32.7632L19.2938 32.7628C19.3058 32.7078 19.3219 32.6537 19.3396 32.5996C19.344 32.5854 19.3493 32.571 19.3544 32.5569C19.374 32.5032 19.3952 32.4501 19.421 32.3988L19.4221 32.3963L19.4222 32.3962C19.4222 32.3962 19.4545 32.7889 19.5503 33.2454C19.5657 33.3172 19.5829 33.3907 19.6015 33.4645C19.6136 33.5137 19.6261 33.5631 19.6401 33.6121C19.5787 33.1138 19.5823 32.6342 19.6328 32.1781C19.6472 32.0523 19.6655 31.929 19.6865 31.8068C19.6894 31.7892 19.692 31.7717 19.6952 31.754C19.716 31.6383 19.7396 31.5251 19.7655 31.413C19.7707 31.3921 19.7757 31.3711 19.7806 31.3502C19.8077 31.2393 19.8368 31.1299 19.8685 31.0226C19.8738 31.0059 19.8787 30.9896 19.8837 30.9731C19.9517 30.7489 20.0294 30.533 20.1133 30.327C20.1196 30.3117 20.1255 30.2967 20.1317 30.2817C20.1639 30.2044 20.1977 30.1294 20.2316 30.0549C20.2403 30.0353 20.2485 30.0145 20.2575 29.9952C20.266 29.9775 20.2736 29.9602 20.282 29.9428C20.3256 29.8506 20.3698 29.7605 20.4152 29.6728C20.4225 29.6588 20.4297 29.6451 20.4369 29.6315C20.4843 29.5413 20.5318 29.453 20.5803 29.3682L20.5829 29.3635C20.644 29.2564 20.7056 29.1534 20.7673 29.0547C20.8127 28.9824 20.8579 28.9126 20.903 28.8449C20.9199 28.8196 20.9377 28.7943 20.9552 28.7685C21.0634 28.609 21.1695 28.4641 21.2694 28.3347C21.569 27.9456 21.8119 27.6944 21.8973 27.6102C21.8413 27.6358 21.776 27.6669 21.7039 27.7027C21.5948 27.7566 21.4693 27.8219 21.3318 27.8987Z" fill="#EFCFA5"></path><path d="M29.8818 22.7169C29.8818 22.7169 29.8705 22.6777 29.8451 22.6201C29.7461 22.4018 29.4193 21.9044 28.5451 22.1561C27.6311 22.4195 27.4588 23.2288 27.4264 23.4997C27.4198 23.5559 27.4188 23.5906 27.4188 23.5906L27.4481 23.6075C27.5474 23.4852 27.7748 23.455 28.0032 23.5465C28.1076 23.5884 28.1959 23.6493 28.2614 23.7187L28.2615 23.719C28.3628 23.8255 28.409 23.952 28.3715 24.0594C28.3636 24.0824 28.352 24.1027 28.3378 24.1214C28.3378 24.1214 28.3762 24.1285 28.4399 24.1348C28.7127 24.1628 29.4579 24.1793 29.7525 23.6057C29.7667 23.5781 29.7815 23.5522 29.7936 23.5221C29.7099 23.4974 29.6463 23.3933 29.6214 23.2605C29.6088 23.1967 29.6048 23.1266 29.6127 23.0545C29.637 22.8321 29.7578 22.6809 29.8818 22.7169Z" fill="#EFCFA5"></path><path d="M26.5454 30.4144C25.9663 30.6511 25.4569 30.8419 25.0606 30.9841C25.0841 30.9827 25.1059 30.9814 25.1304 30.98C25.8295 30.9373 26.9366 30.8368 28.2374 30.511C30.6038 29.9183 33.6137 28.577 35.993 25.4632L35.999 25.4516L35.9981 25.4472C35.9674 25.2293 35.8656 24.8445 35.5359 24.5919C35.4784 24.5477 35.4134 24.5079 35.3414 24.4732C35.3295 24.4689 35.3183 24.4638 35.3061 24.4596C35.2231 24.4316 35.1496 24.4013 35.0809 24.3706C35.0243 24.3483 34.9706 24.3255 34.9223 24.3019L34.9144 24.294C34.7858 24.5797 34.6269 24.8583 34.4413 25.13C34.3756 25.226 34.3043 25.32 34.2324 25.4142C33.5757 26.2726 32.6664 27.0551 31.6566 27.7483C29.9783 28.9001 28.0316 29.8076 26.5454 30.4144Z" fill="#EFCFA5"></path><path d="M10.6152 29.0743C10.5936 29.1021 10.5713 29.1296 10.5518 29.1597L10.5306 29.1941C10.5079 29.2314 10.4864 29.2702 10.4671 29.3107L10.4566 29.3305C10.4328 29.3813 10.4117 29.4338 10.3922 29.4869L10.3922 29.4871L10.3897 29.494L10.3896 29.4944L10.3821 29.5178C10.3777 29.5307 10.3737 29.5438 10.3697 29.5568C10.3588 29.5898 10.3473 29.622 10.3382 29.655L10.3376 29.6563L10.3373 29.6573L10.337 29.66L10.3334 29.6724L10.3302 29.6848C10.3161 29.7369 10.304 29.7883 10.2931 29.8388C10.2621 29.9809 10.2425 30.1144 10.2298 30.2253C10.2255 30.2646 10.2216 30.3019 10.2189 30.3347C10.2129 30.4058 10.2096 30.4611 10.2085 30.4881L10.2086 30.4904L10.2077 30.5086L10.2055 30.488C10.2003 30.4473 10.1974 30.4065 10.1932 30.3659C10.1837 30.2807 10.1732 30.1953 10.1669 30.1101C10.1612 30.0384 10.1592 29.9676 10.1561 29.8959C10.1552 29.8736 10.1545 29.8511 10.1536 29.8289C10.152 29.796 10.1504 29.763 10.1497 29.73C10.1488 29.6993 10.1499 29.6686 10.15 29.6384L10.1499 29.6361L10.1499 29.6359L10.15 29.602L10.1502 29.5927C10.1501 29.5556 10.1502 29.5179 10.1504 29.4808C10.1502 29.4664 10.1501 29.4521 10.1504 29.4376L10.1507 29.4119L10.1508 29.4071C10.151 29.395 10.1514 29.3825 10.1518 29.3705C10.1519 29.3553 10.1532 29.3403 10.1537 29.3258C10.1557 29.271 10.1588 29.217 10.1615 29.1628L10.1619 29.1537C10.1638 29.1134 10.165 29.0729 10.1678 29.033L10.1678 29.0312L10.1683 29.0285L10.1693 29.0167C10.1749 28.9346 10.1832 28.8538 10.1913 28.7724L10.1952 28.7277C10.1969 28.7127 10.1977 28.6969 10.1995 28.6817C10.2134 28.5496 10.2301 28.4186 10.2499 28.2899L10.2525 28.2737C10.2697 28.1643 10.2876 28.0564 10.3075 27.9496L10.3097 27.9374C10.319 27.8904 10.329 27.845 10.338 27.7985L10.3397 27.7915C10.3539 27.7221 10.3676 27.6523 10.3828 27.5848L10.3829 27.5842L10.3828 27.5838L10.3831 27.5829L10.3847 27.5745C10.389 27.5575 10.3985 27.5164 10.414 27.4556L10.4143 27.4546L10.4164 27.4464L10.4164 27.4462C10.4223 27.4223 10.4279 27.3991 10.4335 27.3749C10.4426 27.3363 10.4521 27.2981 10.4612 27.2602L10.4697 27.2268C10.445 27.2189 10.4195 27.2124 10.3943 27.2052L10.38 27.2011L10.3533 27.1933C10.1904 27.1496 10.0224 27.1216 9.85149 27.1098L9.8244 27.1083C9.71496 27.1016 9.60445 27.1015 9.49307 27.1092C9.42859 27.1138 9.36421 27.1199 9.29948 27.1293C9.24567 27.1371 9.19216 27.1464 9.13834 27.1576C9.05746 27.1745 8.97882 27.1963 8.90178 27.2196C8.87709 27.2274 8.85379 27.2364 8.83009 27.2441C8.79219 27.2573 8.75506 27.272 8.71769 27.2863C8.70326 27.2923 8.6878 27.2971 8.6734 27.3033C8.6473 27.3141 8.62152 27.3249 8.59594 27.3368C8.54561 27.3596 8.49685 27.3837 8.44871 27.4094C8.4263 27.4214 8.40377 27.4319 8.38212 27.4443C8.31744 27.4816 8.25429 27.5208 8.19331 27.5628C8.16899 27.5796 8.14691 27.5978 8.12331 27.6149C8.09571 27.6354 8.06864 27.657 8.04162 27.678L8.01372 27.6996C7.98419 27.7239 7.9557 27.7494 7.9275 27.7747C7.9013 27.7983 7.87499 27.8231 7.85005 27.8481C7.81921 27.8778 7.78922 27.9077 7.76041 27.9386C7.74274 27.9582 7.7261 27.9781 7.70846 27.9979C7.66214 28.051 7.61913 28.1069 7.5771 28.1635C7.55545 28.1929 7.53485 28.2225 7.51446 28.2525C7.47826 28.3049 7.44349 28.3579 7.41137 28.4127L7.39516 28.4402C7.37852 28.4697 7.36358 28.5005 7.34858 28.5309L7.3461 28.5353L7.3442 28.5393C7.33395 28.5598 7.32247 28.5798 7.31263 28.6006L7.30867 28.6087L7.30474 28.6168L7.30454 28.6175L7.30431 28.6181C7.24382 28.7486 7.19466 28.884 7.1561 29.0231C7.15036 29.0428 7.14564 29.0627 7.14076 29.0827C7.12327 29.1503 7.10893 29.2188 7.09675 29.2882C7.09212 29.3157 7.08623 29.3427 7.0823 29.3704L7.08204 29.3707L7.08207 29.3709C7.09016 29.3867 7.09871 29.4015 7.1069 29.417C7.13541 29.4714 7.16392 29.524 7.19309 29.5748L7.20314 29.5923L7.21385 29.6098C7.24428 29.662 7.2749 29.7117 7.30591 29.76C7.40037 29.908 7.49514 30.0382 7.58623 30.1522C7.59993 30.1688 7.61364 30.1864 7.62686 30.2023L7.63653 30.2143L7.64892 30.2283C7.71661 30.3092 7.78122 30.3796 7.84045 30.4409C7.9347 30.5381 8.01487 30.6105 8.07137 30.6588C8.08374 30.6692 8.09428 30.6779 8.10394 30.6861C8.11233 30.693 8.11994 30.6992 8.12705 30.7045C8.14823 30.7214 8.16125 30.7309 8.16128 30.731C8.14926 30.7038 8.14068 30.6765 8.12939 30.6488C8.04972 30.4524 7.99051 30.2549 7.94838 30.0584L7.94604 30.0468L7.9413 30.024C7.91545 29.898 7.89398 29.7723 7.88131 29.6486L7.88147 29.6486C7.90316 29.693 7.92551 29.7357 7.94793 29.7778C7.98179 29.8413 8.01595 29.9029 8.05044 29.9618L8.06251 29.9831L8.06723 29.9906C8.2171 30.2414 8.37269 30.4466 8.51288 30.6091C8.6806 30.804 8.8257 30.937 8.91095 31.0091C8.92821 31.0236 8.94272 31.0358 8.95491 31.0452C8.97884 31.0644 8.99189 31.0741 8.99189 31.0741C8.9012 30.8665 8.83577 30.6569 8.78856 30.4483C8.77247 30.3781 8.75669 30.3077 8.74505 30.2383C8.72976 30.1493 8.71808 30.061 8.70919 29.9735C8.77538 30.1137 8.84528 30.2417 8.91675 30.3614L8.92195 30.3707C9.17879 30.801 9.45276 31.1015 9.63566 31.2758L9.65644 31.2949C9.6884 31.3243 9.71583 31.349 9.74065 31.3712C9.75762 31.3859 9.77386 31.4002 9.78721 31.4106C9.80448 31.4251 9.81738 31.4357 9.82778 31.4436C9.84075 31.4537 9.84874 31.4602 9.84874 31.4602L9.83719 31.431C9.82496 31.4019 9.81312 31.373 9.80159 31.3441C9.76042 31.2396 9.72656 31.1344 9.69645 31.0299C9.6763 30.96 9.65647 30.8901 9.64084 30.8206C9.62581 30.7542 9.61383 30.6883 9.60253 30.6224C9.60064 30.6105 9.59891 30.5986 9.59686 30.5868C9.59162 30.5525 9.58607 30.5183 9.58153 30.4842L9.57893 30.4632L9.5774 30.448C9.56653 30.3605 9.55805 30.2734 9.55309 30.1875C9.57997 30.2402 9.60754 30.2913 9.6352 30.3402C9.65609 30.3777 9.67723 30.4129 9.69843 30.4485L9.70293 30.4558L9.71004 30.4682L9.72287 30.49C9.74867 30.5324 9.77459 30.5729 9.80077 30.613C9.85027 30.6877 9.89893 30.7578 9.94766 30.823C10.0068 30.9034 10.0655 30.9768 10.1215 31.0436C10.1538 31.0811 10.1846 31.1164 10.2148 31.15C10.253 31.1921 10.2897 31.2313 10.3244 31.2665C10.3563 31.2989 10.3855 31.3272 10.4133 31.3538C10.4203 31.3602 10.4275 31.367 10.4342 31.3734C10.46 31.3975 10.4846 31.4202 10.5062 31.439C10.5224 31.4533 10.5373 31.4661 10.5509 31.4775C10.586 31.507 10.6106 31.526 10.6215 31.5342L10.6279 31.5389L10.6484 31.5479C10.6473 31.5323 10.6467 31.5168 10.6458 31.5009C10.6368 31.3635 10.6302 31.2244 10.625 31.086C10.6242 31.0692 10.6238 31.0526 10.6232 31.0362C10.6182 30.88 10.6146 30.7245 10.613 30.5741C10.6128 30.5544 10.6124 30.5355 10.6124 30.5161L10.6126 30.5062C10.6125 30.4888 10.6122 30.4712 10.6121 30.4538C10.6117 30.4279 10.6115 30.402 10.6115 30.3763C10.6109 30.257 10.6116 30.1414 10.6128 30.0317C10.614 29.9325 10.6155 29.8386 10.6173 29.7501L10.6178 29.7216C10.6178 29.7077 10.6185 29.695 10.6188 29.6817C10.6192 29.6687 10.6193 29.6553 10.6195 29.6419L10.6196 29.6372C10.6202 29.6151 10.621 29.5923 10.6215 29.5713L10.6217 29.5655C10.622 29.5448 10.6227 29.5271 10.6232 29.5077C10.6243 29.4772 10.6249 29.446 10.6259 29.4175L10.6262 29.4095C10.627 29.3864 10.6274 29.363 10.6283 29.3418C10.6295 29.3113 10.6308 29.2833 10.6313 29.2569L10.6315 29.256L10.6317 29.2553C10.6321 29.2402 10.6328 29.227 10.6333 29.213L10.6335 29.2105C10.6342 29.1978 10.6343 29.1845 10.635 29.1733C10.6363 29.1453 10.6373 29.1199 10.6383 29.1004L10.6392 29.083L10.6397 29.0766L10.6406 29.0561L10.6413 29.0419L10.6416 29.0399L10.6397 29.0421L10.6152 29.0743Z" fill="#F1BA82"></path><path d="M31.2367 32.1445C31.4478 32.0244 31.6327 31.9245 31.7728 31.8296C32.0541 31.6424 32.2019 31.524 32.1856 31.4934C32.169 31.4623 31.9892 31.5217 31.6783 31.6556C31.5228 31.724 31.332 31.7939 31.115 31.887C31.0075 31.935 30.886 31.9738 30.7619 32.0228C30.6363 32.0695 30.5051 32.1235 30.3638 32.1659C30.0869 32.2593 29.7685 32.3567 29.4305 32.4614C29.2629 32.507 29.0899 32.5544 28.912 32.6027C28.7313 32.6458 28.5457 32.6901 28.3551 32.7354C27.5909 32.9014 26.7363 33.0249 25.8436 33.0273C25.3735 33.0321 24.7267 32.939 24.2428 32.7723L24.2249 32.766C24.3127 31.8049 25.24 31.497 25.24 31.497L25.211 31.4941C25.1948 31.4951 25.1785 31.4965 25.162 31.4976C25.0204 31.5063 24.8956 31.5124 24.7886 31.5179C24.7123 31.5218 24.6452 31.5251 24.5888 31.5285C24.5345 31.5319 24.4959 31.535 24.4735 31.5376C23.893 31.6053 23.6695 32.1494 23.6002 32.3801C23.5904 32.4133 23.582 32.4472 23.5735 32.4817C23.5259 32.6857 23.5116 32.9136 23.5398 33.1462C23.5916 33.5805 23.79 34.031 24.1937 34.3707C24.4633 34.6002 24.8894 34.7675 25.4194 34.8637C24.9369 34.6713 24.4611 34.2231 24.2785 33.3992C24.8063 33.518 25.3997 33.5402 25.8417 33.5364C26.7893 33.5342 27.6772 33.3893 28.4628 33.1922C28.6582 33.1385 28.8487 33.0879 29.0329 33.034C29.2161 32.9745 29.3942 32.9169 29.5667 32.8611C29.8997 32.7389 30.2065 32.6235 30.4922 32.5022C30.6355 32.4467 30.7657 32.3802 30.8895 32.3203C31.0129 32.2581 31.1313 32.2065 31.2367 32.1445Z" fill="#EFCFA5"></path><path d="M28.4823 21.6015C28.963 21.5233 29.3163 21.6145 29.5743 21.7951C29.5873 21.5722 29.5655 21.3119 29.4969 21.0384C29.422 20.739 29.3077 20.4778 29.1771 20.2807C29.1223 20.1651 28.8672 19.8519 28.6319 19.9157C28.3272 19.9919 28.2209 20.6167 28.3936 21.3118C28.4187 21.4133 28.4489 21.5096 28.4823 21.6015Z" fill="#59473D"></path><path d="M29.629 23.2636C29.6543 23.3965 29.7177 23.5005 29.8012 23.5253C29.9264 23.5611 30.0458 23.4095 30.0699 23.187C30.0724 23.1675 30.0723 23.1485 30.0733 23.1296L30.0732 23.1291C30.0781 22.9302 30.0021 22.7528 29.8893 22.7203C29.7653 22.6839 29.6447 22.8354 29.6204 23.0575C29.6126 23.1299 29.6167 23.1998 29.629 23.2636Z" fill="#59473D"></path><path d="M27.5188 24.0084C27.5849 24.0816 27.6764 24.1471 27.7857 24.1912C28.0168 24.2837 28.2484 24.2518 28.3451 24.1246C28.3595 24.1061 28.371 24.0852 28.3788 24.0624C28.4165 23.955 28.3702 23.8285 28.2692 23.7218L28.2689 23.7215C28.2034 23.6525 28.115 23.5914 28.0106 23.5495C27.7823 23.458 27.5548 23.488 27.4556 23.6106C27.4394 23.6309 27.4254 23.6526 27.4168 23.6776C27.381 23.7815 27.4242 23.9033 27.5188 24.0083L27.5188 24.0084Z" fill="#59473D"></path><path d="M35.9979 25.4529L35.9971 25.4488L35.9878 25.4697C35.9893 25.4677 35.9911 25.466 35.9926 25.464L35.9979 25.4529Z" fill="#59473D"></path><path d="M36.5789 29.9354L36.57 29.9478C36.3308 30.28 36.0397 30.6126 35.713 30.9386C34.2774 32.3697 32.1382 33.6701 30.5481 34.1931L30.542 34.1952L30.5359 34.1973C29.3463 34.6211 28.1515 34.8795 27.0808 34.9447C26.4655 34.9822 25.9001 34.9529 25.4194 34.8655C24.8898 34.7691 24.4637 34.602 24.1937 34.3725C23.79 34.0329 23.5916 33.5824 23.54 33.148C23.512 32.9154 23.5263 32.6874 23.5739 32.4835C23.582 32.449 23.5907 32.415 23.6004 32.3819C23.6699 32.1513 23.893 31.6072 24.4739 31.5393C24.496 31.537 24.5349 31.5335 24.5889 31.5304C24.6453 31.5268 24.7125 31.5235 24.789 31.5197C24.8957 31.5143 25.0207 31.508 25.1624 31.4993C25.1789 31.4983 25.1949 31.497 25.211 31.4958C26.8258 31.3932 28.3405 31.0893 29.7427 30.5986C31.7773 29.8866 33.5728 28.7785 35.074 27.2942C35.1533 27.2158 35.2319 27.1363 35.3095 27.0558L35.9885 25.471C33.6104 28.5803 30.6028 29.9202 28.2375 30.5126C26.9368 30.8387 25.8297 30.9391 25.1309 30.9817C25.1061 30.9832 25.0846 30.9844 25.0607 30.9858C24.8509 30.998 24.6795 31.0055 24.5574 31.0127C24.4964 31.0163 24.4473 31.0202 24.4107 31.0245C24.2293 31.0459 24.0628 31.0999 23.9129 31.1795C23.6063 31.3421 23.3692 31.6138 23.2147 31.9443C23.0236 32.3516 22.9588 32.8471 23.0428 33.337C23.1129 33.7399 23.2839 34.1379 23.5709 34.4786C23.5822 34.4923 23.5933 34.5065 23.6053 34.5203C23.638 34.5573 23.6725 34.5934 23.708 34.6286C23.7563 34.6769 23.8063 34.7241 23.86 34.7692C24.4765 35.2934 25.6403 35.5519 27.1121 35.4623C28.1079 35.4016 29.245 35.1792 30.4478 34.7744C33.9655 33.4368 35.4764 31.9374 36.1214 30.9619C36.1685 30.8908 36.2113 30.8221 36.2497 30.7567C36.4745 30.3728 36.556 30.0945 36.5825 29.9759L36.5863 29.9597C36.593 29.929 36.595 29.9131 36.595 29.9124L36.5789 29.9354Z" fill="#59473D"></path><path d="M22.6369 19.4737C22.5105 19.4326 22.3768 19.4114 22.2445 19.4037C22.1571 19.3987 22.0703 19.3997 21.9854 19.4048C21.9535 19.4068 21.9219 19.4097 21.8903 19.4129C21.4572 19.4552 21.1022 19.5961 21.1022 19.5961C21.0266 19.6289 20.9546 19.6635 20.8856 19.6996C20.3395 19.9831 19.9928 20.3599 19.7761 20.7603C19.6007 21.0842 19.5107 21.4237 19.4722 21.7422C19.4687 21.7703 19.4661 21.7981 19.4635 21.8257C19.456 21.908 19.451 21.9882 19.4487 22.0665C19.4426 22.3296 19.4655 22.5668 19.4941 22.7525C19.534 23.0064 19.5841 23.1655 19.5841 23.1655C19.6434 22.9261 19.7112 22.7041 19.7845 22.4943C19.9665 21.9743 20.1882 21.5414 20.4269 21.1822C20.892 20.4827 21.42 20.0607 21.8438 19.8117C22.3016 19.5426 22.6369 19.4737 22.6369 19.4737Z" fill="#674440"></path><path d="M29.3972 17.3581L29.3731 17.3361C29.2925 17.2662 29.2006 17.2046 29.0955 17.1583C28.8475 17.0482 28.5294 17.026 28.1249 17.1907C28.1249 17.1907 27.6477 17.4018 27.4168 17.7829C27.4168 17.7829 28.2175 17.2488 29.2608 17.7316C29.3558 17.7756 29.453 17.8289 29.5516 17.8911C29.6523 17.9545 29.7543 18.0268 29.8583 18.111C29.8583 18.111 29.7468 17.7167 29.4537 17.4136C29.4359 17.3944 29.4167 17.376 29.3972 17.3581Z" fill="#674440"></path><path d="M23.7772 24.9998C24.0914 24.8345 24.4349 24.6719 24.8054 24.5121C24.8165 24.1984 24.7635 23.8223 24.6415 23.433C24.357 22.5197 23.8021 21.8831 23.4027 22.0099C23.0027 22.1368 22.9101 22.9799 23.1948 23.8927C23.3382 24.3524 23.5505 24.7426 23.7772 24.9998Z" fill="#59473D"></path><path d="M17.9786 4.45728L17.1569 4.81135L17.6306 6.35133L15.1263 5.61423L14.2373 6.07067L14.2551 6.08455L17.6243 8.73229L17.6477 8.71056L17.6793 8.68149C17.7555 8.6102 17.8319 8.53904 17.9091 8.46855C17.936 8.44383 17.9627 8.4185 17.9898 8.39394C18.1013 8.29321 18.2133 8.19374 18.3258 8.09465L16.8934 6.96323L18.9771 7.54031L18.9836 7.53497C19.0352 7.49274 19.0864 7.45043 19.138 7.40855L18.7074 6.07802L19.7609 6.91839L19.7705 6.91131C19.837 6.86069 19.9022 6.81228 19.9677 6.76317L19.9882 6.7481L20.0199 6.72398C20.0311 6.71576 20.0426 6.70717 20.0536 6.69867C20.0815 6.67808 20.11 6.65621 20.1375 6.63586C20.1431 6.6315 20.1485 6.62784 20.1542 6.62364C20.2477 6.5549 20.3398 6.48875 20.4318 6.42261L17.9786 4.45728Z" fill="#FFF20B"></path><path d="M17.1712 4.85938L17.1562 4.81055L17.1712 4.85954L17.1712 4.85938Z" fill="#4D94C3"></path><path d="M17.1553 4.81081L17.2768 4.7587C17.0485 4.7004 16.786 4.67744 16.4905 4.6954C15.8983 4.7305 15.1763 4.93461 14.3799 5.30711C13.5831 5.67817 12.7122 6.21461 11.8097 6.89591C10.0042 8.25792 8.07348 10.198 6.30448 12.5411C5.68717 13.3584 5.12281 14.181 4.61477 14.9953L7.79672 17.684C8.352 16.7816 8.97171 15.8717 9.65398 14.9682C10.5663 13.7605 11.5204 12.6569 12.4837 11.6727C13.4173 10.7198 14.3588 9.88301 15.2837 9.17555L14.4557 7.23403L14.2536 6.08402L14.2358 6.07014L15.1248 5.6137L17.139 6.21119L16.9672 5.58042L17.1553 4.81081Z" fill="#05B6E0"></path><path d="M17.1566 4.81123L16.9684 5.58084L17.1403 6.21161L17.6304 6.35122L17.1566 4.81123Z" fill="#141C26"></path><path d="M16.8936 6.96191L18.9773 7.539L18.3259 8.09334L16.8936 6.96191Z" fill="#141C26"></path><path d="M18.7061 6.07715L19.1366 7.40768L19.7595 6.91752L18.7061 6.07715Z" fill="#141C26"></path><path d="M25.8369 4.22454C25.9536 4.19794 26.0687 4.17514 26.1824 4.15638C26.505 4.10295 26.8138 4.0845 27.1132 4.10257C27.1293 4.1037 27.1457 4.10295 27.1616 4.10427L27.1653 4.10457L27.177 4.10488L27.2066 4.10778L27.234 4.11078C27.1961 4.0947 27.1578 4.08001 27.1191 4.0659C26.7751 4.00289 26.4205 3.98606 26.0626 4.00638C24.2879 4.10692 22.4326 5.1062 21.3878 5.76492C21.3308 5.80236 21.2733 5.83974 21.2152 5.87838C21.1279 5.93652 21.04 5.9956 20.9511 6.05637C20.8019 6.15833 20.6514 6.26401 20.4977 6.37376C20.4753 6.38952 20.4532 6.40572 20.4311 6.42177C20.339 6.48791 20.247 6.55406 20.1535 6.6228C20.1478 6.627 20.1424 6.63067 20.1367 6.63503C20.1093 6.65537 20.0808 6.67724 20.0528 6.69783C20.0419 6.70633 20.0304 6.71493 20.0192 6.72314L19.9875 6.74726L19.967 6.76234C19.9015 6.81144 19.8363 6.85985 19.7698 6.91047L19.7602 6.91756C19.7582 6.91925 19.7562 6.92079 19.7543 6.9223C19.7377 6.93433 19.7222 6.946 19.7059 6.95829L19.6975 6.9645C19.6854 6.97388 19.6736 6.98336 19.6617 6.99268C19.56 7.07056 19.4591 7.15028 19.3587 7.23006C19.2884 7.28587 19.2184 7.34193 19.1484 7.39851L19.1372 7.40771C19.0857 7.44959 19.0345 7.4919 18.9828 7.53413L18.9764 7.53947C18.809 7.67759 18.6432 7.81755 18.4783 7.96033C18.461 7.97513 18.4437 7.98945 18.4263 8.0046C18.4117 8.01742 18.3969 8.03012 18.3825 8.04272C18.3688 8.05454 18.3556 8.06678 18.3424 8.0785L18.3251 8.09381C18.2125 8.1929 18.1006 8.29237 17.989 8.3931C17.962 8.41766 17.9353 8.44299 17.9083 8.46771C17.8312 8.5382 17.7548 8.60936 17.6786 8.68065L17.647 8.70972L17.6236 8.73146C17.4117 8.93065 17.2024 9.13365 16.9949 9.33964C16.6526 9.67979 16.3162 10.0276 15.987 10.3839C15.9442 10.4301 15.902 10.4768 15.8592 10.5235C14.9977 11.4653 14.1806 12.4559 13.41 13.47C12.5964 14.5412 11.8355 15.6385 11.1271 16.7306C10.7389 17.2981 10.4088 17.8034 10.1413 18.2264C9.6048 19.0749 9.32204 19.5904 9.33895 19.5977C9.34625 19.6031 9.39516 19.5372 9.48044 19.4128C9.41244 19.5297 9.34441 19.6465 9.27792 19.7626C10.4505 17.9285 11.7757 16.027 13.238 14.1958C14.1264 13.0842 15.0642 11.9986 16.0503 10.9699L16.0503 10.97C16.4821 10.5191 16.9234 10.0794 17.3737 9.6532C17.5174 9.51669 17.6629 9.38135 17.8088 9.24758C17.8816 9.18106 17.9554 9.11583 18.0286 9.04989C18.0698 9.01259 18.1112 8.97491 18.1531 8.93781C18.2315 8.86792 18.3105 8.79893 18.3892 8.7298C18.4666 8.66242 18.5437 8.59509 18.6214 8.52831C18.6622 8.49372 18.7028 8.45868 18.7436 8.42428C18.8422 8.34036 18.9419 8.25773 19.0418 8.17522C19.1011 8.1261 19.161 8.07654 19.2208 8.028L19.2214 8.02756C19.41 7.8739 19.6006 7.72402 19.792 7.57597C19.8077 7.5636 19.8238 7.5515 19.84 7.5392C19.87 7.51608 19.8999 7.49312 19.9299 7.47016C19.9697 7.43973 20.0089 7.40876 20.0489 7.37862C20.0642 7.36734 20.0787 7.35553 20.0938 7.34411L20.1002 7.3396C20.1275 7.31913 20.1543 7.29957 20.1811 7.27966C20.1868 7.27546 20.1925 7.27142 20.1982 7.26722L20.2076 7.25984C20.2918 7.1973 20.3756 7.13551 20.4582 7.07476C20.4734 7.06398 20.4885 7.05206 20.504 7.04106C20.5309 7.02116 20.5575 7.00262 20.5847 6.983C20.6815 6.91315 20.778 6.84352 20.8732 6.77595C20.8996 6.75763 20.9261 6.73778 20.9522 6.71968C20.9659 6.71 20.9794 6.7007 20.9932 6.69118C21.0203 6.6724 21.0475 6.65358 21.0748 6.6346C21.187 6.55624 21.2988 6.4788 21.4087 6.40453C21.5091 6.33648 21.6071 6.27303 21.7055 6.20817C22.2611 5.84209 22.7882 5.52318 23.2833 5.25541C24.2352 4.74173 25.076 4.40064 25.8369 4.22454Z" fill="white"></path></g></svg>