<svg xmlns="http://www.w3.org/2000/svg" width="121" height="135" viewBox="0 0 121 135" fill="none"><g clip-path="url(#clip0_7582_1271)"><path fill-rule="evenodd" clip-rule="evenodd" d="M113.3 101.8C117 99.4 120 93.8 120 89.4H120.1V45.3C120.1 40.9 117.1 35.3 113.4 32.9L66.7 1.8C63 -0.6 57 -0.6 53.3 1.8L6.7 33C3 35.4 0 41 0 45.4V89.4C0 93.8 3 99.4 6.7 101.8L53.3 132.9C56.9 135.3 62.9 135.3 66.6 132.9L113.3 101.8ZM76 59.4004V53.4004H44V59.4004H76ZM80 69.4004V63.4004H40V69.4004H80ZM85 79.4004V73.4004H35V79.4004H85ZM97 67.4004C97 47.0004 80.4 30.4004 60 30.4004C39.6 30.4004 23 47.0004 23 67.4004C23 87.8004 39.6 104.4 60 104.4C80.4 104.4 97 87.8004 97 67.4004ZM20 67.4004C20 45.3004 37.9 27.4004 60 27.4004C82.1 27.4004 100 45.3004 100 67.4004C100 89.5004 82.1 107.4 60 107.4C37.9 107.4 20 89.5004 20 67.4004Z" fill="#15161D"></path></g><defs><clipPath id="clip0_7582_1271"><rect width="121" height="135" fill="white"></rect></clipPath></defs></svg>