<svg xmlns="http://www.w3.org/2000/svg" width="328" height="51" viewBox="0 0 328 51" fill="none"><path d="M120.928 50.5H125.127H128.993H137.057H137.178C138.507 50.5 139.594 50.4396 140.53 50.2886C141.467 50.1074 142.252 49.8355 142.947 49.4429C143.672 49.0502 144.276 48.4764 144.88 47.7515C145.514 47.0266 146.088 46.1205 146.752 44.9728L154.937 30.7772L155.028 30.6866C155.632 29.5691 156.115 28.6328 156.417 27.7569C156.75 26.881 156.931 26.0655 156.931 25.25C156.931 24.4345 156.75 23.619 156.417 22.7431C156.115 21.8672 155.632 20.9309 155.028 19.8436L154.937 19.7228L148.957 9.33284H147.115H143.853H140.832H140.621L140.742 9.15161L142.222 6.58433C142.222 6.55412 142.675 5.67822 142.886 4.5607C143.037 3.86602 143.068 3.05054 142.886 2.32566C142.705 1.63098 142.252 0.966503 141.406 0.543657C141.104 0.402708 140.742 0.291969 140.319 0.211427C139.876 0.130885 139.393 0.080546 138.869 0.0604104C138.366 0.0201393 137.802 0 137.178 0H137.057H128.993H120.928H120.808C119.479 0 118.391 0.060403 117.455 0.241623C116.519 0.39264 115.734 0.664474 115.039 1.05712C114.314 1.47996 113.71 2.02362 113.106 2.7485C112.472 3.47338 111.898 4.37948 111.233 5.52721L103.018 19.7228L102.957 19.8738C102.323 20.9309 101.87 21.8672 101.568 22.7431C101.236 23.619 101.055 24.4345 101.055 25.25C101.055 26.0655 101.236 26.881 101.568 27.7569C101.87 28.6328 102.323 29.5691 102.957 30.6564L103.018 30.7772L109.028 41.1672H110.871H114.133H117.153H117.364L117.244 41.3484L116.911 41.9525L116.851 42.0129L115.764 43.9157C115.764 43.9459 115.311 44.8218 115.099 45.9393C114.948 46.634 114.918 47.4495 115.099 48.1743C115.28 48.8992 115.734 49.5335 116.579 49.9563C116.881 50.0973 117.244 50.2181 117.667 50.3188C118.11 50.3792 118.593 50.4295 119.116 50.4698C119.62 50.4899 120.183 50.5 120.808 50.5H120.928ZM120.626 44.0063L121.865 41.8316L121.895 41.7712L125.368 35.7608L128.902 29.6597L138.144 13.6519L138.175 13.5915H138.265H146.239H146.269H146.33H146.541L146.42 13.7727L146.36 13.8633L146.269 14.0446L133.191 36.8481L133.161 36.9085H133.1H128.238L125.761 41.1672H143.853H144.064L143.943 41.3484L143.007 42.9492C142.584 43.7345 142.222 44.3083 141.89 44.7614C141.527 45.2144 141.195 45.5164 140.832 45.7581C140.44 45.9695 140.017 46.0903 139.443 46.1507C138.869 46.2413 138.205 46.2413 137.329 46.2413H133.161L128.993 46.2715H128.872V46.2413H125.127H125.006H121.774C120.989 46.2413 120.385 46.2413 120.173 46.0299C119.751 45.4863 120.113 44.852 120.506 44.1875L120.626 44.0063ZM130.412 18.6053L129.114 20.8403H129.083L119.841 36.8783L119.811 36.9387H119.751H111.747H111.656H111.475L111.565 36.7575L111.626 36.6367L111.716 36.4856L124.795 13.6519L124.825 13.5915H124.885H129.778L132.225 9.36304H114.133H113.952L114.042 9.18183L114.978 7.55084C115.431 6.79575 115.764 6.22188 116.096 5.76883C116.458 5.31578 116.791 4.98355 117.153 4.77213C117.546 4.5607 117.999 4.4097 118.542 4.34929C119.116 4.28888 119.811 4.25866 120.687 4.25866H124.825H128.993H129.114C130.141 4.25866 131.983 4.25866 133.795 4.25866H136.211H136.242C136.997 4.25866 137.601 4.25868 137.812 4.50031C138.265 5.04397 137.873 5.67823 137.48 6.3427L137.389 6.52392C134.882 10.8732 132.647 14.7392 130.412 18.6053ZM138.175 36.7575L148.867 18.0314L148.987 17.8502L149.078 18.0314L151.343 21.988C151.796 22.7431 152.098 23.317 152.34 23.8606C152.551 24.3741 152.672 24.8272 152.672 25.2802C152.672 25.7031 152.551 26.1561 152.34 26.6696C152.098 27.2132 151.796 27.7871 151.343 28.5422C150.659 29.7503 149.964 30.9584 149.259 32.1666C148.575 33.3747 147.89 34.5728 147.205 35.7608L147.115 35.9118L146.541 36.8783L146.511 36.9387H146.45H138.265H138.084L138.175 36.7575ZM119.811 13.7727L109.119 32.4988L109.028 32.68L108.908 32.4988L106.642 28.5422C106.219 27.7871 105.887 27.183 105.646 26.6696C105.434 26.1561 105.313 25.703 105.313 25.25C105.313 24.8271 105.434 24.3741 105.646 23.8304C105.887 23.317 106.219 22.7431 106.642 21.9578C107.327 20.7698 108.022 19.5718 108.726 18.3636C109.512 17.0045 110.206 15.7662 110.81 14.7694L110.871 14.6184L111.445 13.6519L111.475 13.5915H111.535H119.72H119.902L119.811 13.7727Z" fill="white"></path><path d="M165.922 13.6834H185.366V17.7439H177.938V37.5183H173.35V17.7439H165.922V13.6834ZM197.581 19.1304C199.672 19.1304 201.322 19.7577 202.533 21.0121C203.743 22.2666 204.348 23.9723 204.348 26.1291V37.4853H199.892V27.4166C199.892 26.1621 199.528 25.1607 198.802 24.4124C198.076 23.6861 197.086 23.323 195.831 23.323C194.357 23.345 193.19 23.8402 192.332 24.8086C191.473 25.7769 191.044 27.0204 191.044 28.539V37.4853H186.621V13.6504H191.044V22.7618C192.277 20.3849 194.456 19.1745 197.581 19.1304ZM214.412 19.1635C217.317 19.1635 219.496 19.9888 220.949 21.6394C222.423 23.29 223.161 25.6119 223.161 28.605C223.161 29.1992 223.15 29.6394 223.128 29.9255H209.691C209.978 31.224 210.583 32.2474 211.507 32.9956C212.431 33.7219 213.554 34.085 214.874 34.085C215.821 34.085 216.712 33.909 217.548 33.5568C218.407 33.2047 219.155 32.6985 219.793 32.0383L222.17 34.5472C221.268 35.5376 220.156 36.3079 218.836 36.8581C217.537 37.3863 216.096 37.6504 214.511 37.6504C212.663 37.6504 211.023 37.2652 209.592 36.495C208.184 35.7247 207.094 34.6462 206.324 33.2597C205.554 31.8732 205.169 30.2666 205.169 28.4399C205.169 26.6353 205.554 25.0287 206.324 23.6201C207.117 22.2116 208.217 21.1112 209.625 20.3189C211.034 19.5486 212.63 19.1635 214.412 19.1635ZM219.1 26.9874C219.056 25.6449 218.616 24.5775 217.78 23.7852C216.943 22.9929 215.832 22.5967 214.445 22.5967C213.147 22.5967 212.068 22.9819 211.21 23.7522C210.33 24.5445 209.791 25.6229 209.592 26.9874H219.1ZM248.811 19.1304C250.88 19.1304 252.509 19.7577 253.697 21.0121C254.863 22.2666 255.447 23.9723 255.447 26.1291V37.4853H250.99V27.4166C250.99 26.1181 250.638 25.1057 249.934 24.3794C249.207 23.6531 248.239 23.29 247.028 23.29C245.62 23.334 244.498 23.8402 243.661 24.8086C242.847 25.7769 242.44 27.0094 242.44 28.506V37.4853H237.983V27.4166C237.983 26.1181 237.631 25.1057 236.927 24.3794C236.222 23.6531 235.254 23.29 234.022 23.29C232.591 23.334 231.458 23.8402 230.621 24.8086C229.807 25.7769 229.4 27.0094 229.4 28.506V37.4853H224.976V19.2955H229.4V22.6628C230.588 20.3519 232.723 19.1745 235.804 19.1304C237.389 19.1304 238.72 19.5046 239.799 20.2529C240.877 21.0232 241.625 22.1016 242.044 23.4881C243.21 20.627 245.466 19.1745 248.811 19.1304ZM265.511 19.1635C268.416 19.1635 270.594 19.9888 272.047 21.6394C273.5 23.29 274.226 25.6119 274.226 28.605C274.226 29.1992 274.215 29.6394 274.193 29.9255H260.757C261.065 31.224 261.681 32.2474 262.605 32.9956C263.508 33.7219 264.63 34.085 265.973 34.085C266.897 34.085 267.788 33.909 268.647 33.5568C269.505 33.2047 270.242 32.6985 270.859 32.0383L273.268 34.5472C272.344 35.5376 271.233 36.3079 269.934 36.8581C268.636 37.3863 267.194 37.6504 265.61 37.6504C263.739 37.6504 262.099 37.2652 260.691 36.495C259.26 35.7247 258.16 34.6462 257.39 33.2597C256.619 31.8732 256.234 30.2666 256.234 28.4399C256.234 26.6353 256.63 25.0287 257.423 23.6201C258.193 22.2116 259.282 21.1112 260.691 20.3189C262.099 19.5486 263.706 19.1635 265.511 19.1635ZM270.198 26.9874C270.154 25.6449 269.714 24.5775 268.878 23.7852C268.042 22.9929 266.93 22.5967 265.544 22.5967C264.245 22.5967 263.156 22.9819 262.275 23.7522C261.417 24.5445 260.878 25.6229 260.658 26.9874H270.198ZM276.669 13.7164H295.42V15.5321L279.277 35.3725H295.552V37.4853H276.24V35.6696L292.383 15.8292H276.669V13.7164ZM308.724 37.4853L308.691 34.4812C307.987 35.5376 307.062 36.3189 305.918 36.8251C304.795 37.3313 303.497 37.5844 302.022 37.5844C300.812 37.5844 299.744 37.3533 298.82 36.8911C297.918 36.4289 297.213 35.7907 296.707 34.9764C296.201 34.1621 295.948 33.2377 295.948 32.2034C295.948 30.6628 296.542 29.4523 297.731 28.572C298.919 27.6917 300.559 27.2515 302.65 27.2515H308.658V25.898C308.658 24.4894 308.229 23.4 307.37 22.6298C306.534 21.8595 305.313 21.4743 303.706 21.4743C301.813 21.4743 299.898 22.1896 297.962 23.6201L296.938 22.0355C298.149 21.1992 299.293 20.583 300.372 20.1868C301.472 19.7907 302.727 19.5926 304.135 19.5926C306.27 19.5926 307.931 20.1318 309.12 21.2102C310.308 22.2886 310.914 23.7852 310.936 25.6999L310.969 37.4853H308.724ZM302.418 35.7027C304.003 35.7027 305.346 35.3285 306.446 34.5802C307.546 33.854 308.295 32.8196 308.691 31.4771V29.0341H302.914C301.351 29.0341 300.163 29.2872 299.348 29.7934C298.534 30.3216 298.127 31.1029 298.127 32.1373C298.127 33.2157 298.523 34.074 299.315 34.7123C300.086 35.3725 301.12 35.7027 302.418 35.7027ZM325.522 37.4853L325.489 34.4812C324.785 35.5376 323.872 36.3189 322.749 36.8251C321.605 37.3313 320.295 37.5844 318.821 37.5844C317.61 37.5844 316.554 37.3533 315.652 36.8911C314.727 36.4289 314.012 35.7907 313.506 34.9764C313.022 34.1621 312.779 33.2377 312.779 32.2034C312.779 30.6628 313.374 29.4523 314.562 28.572C315.751 27.6917 317.39 27.2515 319.481 27.2515H325.456V25.898C325.456 24.4894 325.038 23.4 324.202 22.6298C323.365 21.8595 322.144 21.4743 320.537 21.4743C318.623 21.4743 316.697 22.1896 314.76 23.6201L313.77 22.0355C314.958 21.1992 316.103 20.583 317.203 20.1868C318.282 19.7907 319.525 19.5926 320.934 19.5926C323.09 19.5926 324.752 20.1318 325.918 21.2102C327.107 22.2886 327.712 23.7852 327.734 25.6999L327.767 37.4853H325.522ZM319.217 35.7027C320.824 35.7027 322.177 35.3285 323.277 34.5802C324.378 33.854 325.115 32.8196 325.489 31.4771V29.0341H319.745C318.183 29.0341 316.994 29.2872 316.18 29.7934C315.365 30.3216 314.958 31.1029 314.958 32.1373C314.958 33.2157 315.343 34.074 316.114 34.7123C316.906 35.3725 317.94 35.7027 319.217 35.7027Z" fill="white"></path><path d="M0.408203 29.65V18.0137H4.34002C5.2529 18.0137 5.99911 18.1784 6.57866 18.508C7.16199 18.8337 7.59381 19.275 7.87411 19.8319C8.15442 20.3887 8.29457 21.0099 8.29457 21.6955C8.29457 22.3811 8.15442 23.0042 7.87411 23.5648C7.5976 24.1254 7.16957 24.5724 6.59002 24.9057C6.01048 25.2353 5.26805 25.4 4.36275 25.4H1.54457V24.15H4.31729C4.94229 24.15 5.44419 24.0421 5.82298 23.8262C6.20176 23.6103 6.47638 23.3186 6.64684 22.9512C6.82108 22.58 6.9082 22.1614 6.9082 21.6955C6.9082 21.2296 6.82108 20.8129 6.64684 20.4455C6.47638 20.0781 6.19987 19.7902 5.81729 19.5819C5.43472 19.3697 4.92714 19.2637 4.29457 19.2637H1.81729V29.65H0.408203Z" fill="#7A7A83"></path><path d="M14.1543 29.8319C13.3665 29.8319 12.6752 29.6444 12.0805 29.2694C11.4896 28.8944 11.0274 28.3697 10.6941 27.6955C10.3646 27.0212 10.1998 26.2334 10.1998 25.3319C10.1998 24.4228 10.3646 23.6292 10.6941 22.9512C11.0274 22.2731 11.4896 21.7466 12.0805 21.3716C12.6752 20.9966 13.3665 20.8091 14.1543 20.8091C14.9422 20.8091 15.6316 20.9966 16.2225 21.3716C16.8172 21.7466 17.2793 22.2731 17.6089 22.9512C17.9422 23.6292 18.1089 24.4228 18.1089 25.3319C18.1089 26.2334 17.9422 27.0212 17.6089 27.6955C17.2793 28.3697 16.8172 28.8944 16.2225 29.2694C15.6316 29.6444 14.9422 29.8319 14.1543 29.8319ZM14.1543 28.6273C14.7528 28.6273 15.2452 28.4739 15.6316 28.1671C16.018 27.8603 16.304 27.4569 16.4896 26.9569C16.6752 26.4569 16.768 25.9152 16.768 25.3319C16.768 24.7485 16.6752 24.205 16.4896 23.7012C16.304 23.1974 16.018 22.7902 15.6316 22.4796C15.2452 22.169 14.7528 22.0137 14.1543 22.0137C13.5559 22.0137 13.0634 22.169 12.6771 22.4796C12.2907 22.7902 12.0047 23.1974 11.8191 23.7012C11.6335 24.205 11.5407 24.7485 11.5407 25.3319C11.5407 25.9152 11.6335 26.4569 11.8191 26.9569C12.0047 27.4569 12.2907 27.8603 12.6771 28.1671C13.0634 28.4739 13.5559 28.6273 14.1543 28.6273Z" fill="#7A7A83"></path><path d="M22.1562 29.65L19.4971 20.9228H20.9062L22.7925 27.6046H22.8834L24.7471 20.9228H26.1789L28.0198 27.5819H28.1107L29.9971 20.9228H31.4062L28.7471 29.65H27.4289L25.5198 22.9455H25.3834L23.4743 29.65H22.1562Z" fill="#7A7A83"></path><path d="M36.8611 29.8319C36.0202 29.8319 35.2948 29.6462 34.685 29.275C34.0789 28.9 33.6111 28.3773 33.2816 27.7069C32.9558 27.0326 32.7929 26.2485 32.7929 25.3546C32.7929 24.4606 32.9558 23.6728 33.2816 22.9909C33.6111 22.3053 34.0694 21.7712 34.6566 21.3887C35.2475 21.0023 35.9369 20.8091 36.7247 20.8091C37.1793 20.8091 37.6281 20.8849 38.0713 21.0364C38.5145 21.1879 38.9179 21.4341 39.2816 21.775C39.6452 22.1122 39.935 22.5591 40.1509 23.1159C40.3668 23.6728 40.4747 24.3584 40.4747 25.1728V25.7409H33.7475V24.5819H39.1111C39.1111 24.0894 39.0126 23.65 38.8156 23.2637C38.6225 22.8773 38.3459 22.5724 37.9861 22.3489C37.63 22.1254 37.2096 22.0137 36.7247 22.0137C36.1906 22.0137 35.7285 22.1462 35.3384 22.4114C34.952 22.6728 34.6547 23.0137 34.4463 23.4341C34.238 23.8546 34.1338 24.3053 34.1338 24.7864V25.5591C34.1338 26.2182 34.2475 26.7769 34.4747 27.2353C34.7058 27.6898 35.0259 28.0364 35.435 28.275C35.8441 28.5099 36.3194 28.6273 36.8611 28.6273C37.2134 28.6273 37.5316 28.5781 37.8156 28.4796C38.1035 28.3773 38.3516 28.2258 38.56 28.025C38.7683 27.8205 38.9293 27.5667 39.0429 27.2637L40.3384 27.6273C40.202 28.0667 39.9728 28.4531 39.6509 28.7864C39.3289 29.1159 38.9312 29.3735 38.4577 29.5591C37.9842 29.7409 37.452 29.8319 36.8611 29.8319Z" fill="#7A7A83"></path><path d="M42.8345 29.65V20.9228H44.13V22.2409H44.2209C44.38 21.8091 44.6678 21.4587 45.0845 21.1898C45.5012 20.9209 45.9709 20.7864 46.4936 20.7864C46.5921 20.7864 46.7152 20.7883 46.8629 20.7921C47.0106 20.7959 47.1224 20.8016 47.1981 20.8091V22.1728C47.1527 22.1614 47.0485 22.1444 46.8856 22.1216C46.7266 22.0951 46.558 22.0819 46.38 22.0819C45.9557 22.0819 45.5769 22.1709 45.2436 22.3489C44.9141 22.5231 44.6527 22.7656 44.4595 23.0762C44.2701 23.383 44.1754 23.7334 44.1754 24.1273V29.65H42.8345Z" fill="#7A7A83"></path><path d="M52.5011 29.8319C51.6602 29.8319 50.9348 29.6462 50.325 29.275C49.7189 28.9 49.2511 28.3773 48.9216 27.7069C48.5958 27.0326 48.4329 26.2485 48.4329 25.3546C48.4329 24.4606 48.5958 23.6728 48.9216 22.9909C49.2511 22.3053 49.7094 21.7712 50.2966 21.3887C50.8875 21.0023 51.5769 20.8091 52.3647 20.8091C52.8193 20.8091 53.2681 20.8849 53.7113 21.0364C54.1545 21.1879 54.5579 21.4341 54.9216 21.775C55.2852 22.1122 55.575 22.5591 55.7909 23.1159C56.0068 23.6728 56.1147 24.3584 56.1147 25.1728V25.7409H49.3875V24.5819H54.7511C54.7511 24.0894 54.6526 23.65 54.4556 23.2637C54.2625 22.8773 53.9859 22.5724 53.6261 22.3489C53.27 22.1254 52.8496 22.0137 52.3647 22.0137C51.8306 22.0137 51.3685 22.1462 50.9784 22.4114C50.592 22.6728 50.2947 23.0137 50.0863 23.4341C49.878 23.8546 49.7738 24.3053 49.7738 24.7864V25.5591C49.7738 26.2182 49.8875 26.7769 50.1147 27.2353C50.3458 27.6898 50.6659 28.0364 51.075 28.275C51.4841 28.5099 51.9594 28.6273 52.5011 28.6273C52.8534 28.6273 53.1716 28.5781 53.4556 28.4796C53.7435 28.3773 53.9916 28.2258 54.2 28.025C54.4083 27.8205 54.5693 27.5667 54.6829 27.2637L55.9784 27.6273C55.842 28.0667 55.6128 28.4531 55.2909 28.7864C54.9689 29.1159 54.5712 29.3735 54.0977 29.5591C53.6242 29.7409 53.092 29.8319 52.5011 29.8319Z" fill="#7A7A83"></path><path d="M61.77 29.8319C61.0427 29.8319 60.4006 29.6481 59.8438 29.2807C59.287 28.9095 58.8514 28.3868 58.537 27.7125C58.2226 27.0345 58.0654 26.2334 58.0654 25.3091C58.0654 24.3925 58.2226 23.597 58.537 22.9228C58.8514 22.2485 59.2889 21.7277 59.8495 21.3603C60.4101 20.9928 61.0578 20.8091 61.7927 20.8091C62.3609 20.8091 62.8097 20.9038 63.1393 21.0932C63.4726 21.2788 63.7264 21.4909 63.9006 21.7296C64.0787 21.9644 64.2169 22.1576 64.3154 22.3091H64.4291V18.0137H65.77V29.65H64.4745V28.3091H64.3154C64.2169 28.4682 64.0768 28.669 63.895 28.9114C63.7131 29.15 63.4537 29.3641 63.1166 29.5534C62.7794 29.7391 62.3306 29.8319 61.77 29.8319ZM61.9518 28.6273C62.4897 28.6273 62.9442 28.4872 63.3154 28.2069C63.6866 27.9228 63.9688 27.5307 64.162 27.0307C64.3552 26.5269 64.4518 25.9455 64.4518 25.2864C64.4518 24.6349 64.3571 24.0648 64.1677 23.5762C63.9783 23.0837 63.698 22.7012 63.3268 22.4284C62.9556 22.1519 62.4972 22.0137 61.9518 22.0137C61.3836 22.0137 60.9101 22.1595 60.5313 22.4512C60.1563 22.7391 59.8741 23.1311 59.6847 23.6273C59.4991 24.1197 59.4063 24.6728 59.4063 25.2864C59.4063 25.9076 59.501 26.472 59.6904 26.9796C59.8836 27.4834 60.1677 27.8849 60.5427 28.1841C60.9215 28.4796 61.3912 28.6273 61.9518 28.6273Z" fill="#7A7A83"></path><path d="M71.4938 29.65V18.0137H72.8347V22.3091H72.9484C73.0469 22.1576 73.1832 21.9644 73.3575 21.7296C73.5355 21.4909 73.7893 21.2788 74.1188 21.0932C74.4522 20.9038 74.9029 20.8091 75.4711 20.8091C76.2059 20.8091 76.8537 20.9928 77.4143 21.3603C77.9749 21.7277 78.4124 22.2485 78.7268 22.9228C79.0412 23.597 79.1984 24.3925 79.1984 25.3091C79.1984 26.2334 79.0412 27.0345 78.7268 27.7125C78.4124 28.3868 77.9768 28.9095 77.42 29.2807C76.8631 29.6481 76.2211 29.8319 75.4938 29.8319C74.9332 29.8319 74.4844 29.7391 74.1472 29.5534C73.8101 29.3641 73.5506 29.15 73.3688 28.9114C73.187 28.669 73.0469 28.4682 72.9484 28.3091H72.7893V29.65H71.4938ZM72.812 25.2864C72.812 25.9455 72.9086 26.5269 73.1018 27.0307C73.295 27.5307 73.5772 27.9228 73.9484 28.2069C74.3196 28.4872 74.7741 28.6273 75.312 28.6273C75.8726 28.6273 76.3404 28.4796 76.7154 28.1841C77.0942 27.8849 77.3783 27.4834 77.5677 26.9796C77.7609 26.472 77.8575 25.9076 77.8575 25.2864C77.8575 24.6728 77.7628 24.1197 77.5734 23.6273C77.3878 23.1311 77.1056 22.7391 76.7268 22.4512C76.3518 22.1595 75.8802 22.0137 75.312 22.0137C74.7666 22.0137 74.3082 22.1519 73.937 22.4284C73.5658 22.7012 73.2855 23.0837 73.0961 23.5762C72.9067 24.0648 72.812 24.6349 72.812 25.2864Z" fill="#7A7A83"></path><path d="M82.1206 32.9228C81.8934 32.9228 81.6907 32.9038 81.5127 32.8659C81.3347 32.8319 81.2116 32.7978 81.1434 32.7637L81.4843 31.5819C81.81 31.6652 82.0979 31.6955 82.3479 31.6728C82.5979 31.65 82.8195 31.5383 83.0127 31.3375C83.2097 31.1406 83.3896 30.8205 83.5525 30.3773L83.8025 29.6955L80.5752 20.9228H82.0297L84.4388 27.8773H84.5297L86.9388 20.9228H88.3934L84.6888 30.9228C84.5222 31.3735 84.3157 31.7466 84.0695 32.0421C83.8233 32.3413 83.5373 32.5629 83.2116 32.7069C82.8896 32.8508 82.5259 32.9228 82.1206 32.9228Z" fill="#7A7A83"></path></svg>