<svg xmlns="http://www.w3.org/2000/svg" width="45" height="47" viewBox="0 0 45 47" fill="none"><path d="M39.5236 25.403C40.9628 22.6932 41.581 19.6227 41.3026 16.567C41.0002 12.39 39.1179 8.48503 36.0385 5.64662C32.9591 2.80821 28.9141 1.24958 24.7263 1.2878C20.5385 1.32602 16.5226 2.95823 13.4955 5.85237C10.4685 8.74651 8.65773 12.6852 8.43164 16.867L3.51562 27.814H8.55164V35.987C8.54885 36.5145 8.65067 37.0373 8.85126 37.5252C9.05184 38.0131 9.3472 38.4564 9.72021 38.8294C10.0932 39.2024 10.5365 39.4978 11.0244 39.6984C11.5122 39.899 12.0351 40.0008 12.5626 39.998H20.2226L20.2227 45.5471M36.9922 45.5461V29.3821M23.9915 7.66895C23.7509 8.22727 23.6771 8.84325 23.7788 9.44263C23.8804 10.042 24.1533 10.5992 24.5645 11.0469M18.6562 8.78503C19.0371 8.9048 19.3637 9.15478 19.5787 9.49121C19.7938 9.82764 19.8835 10.229 19.8322 10.625M14.8555 12.796C15.1303 13.0881 15.4701 13.3113 15.8473 13.4475C16.2245 13.5837 16.6285 13.6291 17.0265 13.58M17.6602 18.0731C17.6732 17.6239 17.8339 17.1914 18.1173 16.8425C18.4007 16.4937 18.7912 16.2479 19.2282 16.1431M23.5707 15.329C24.0333 14.0824 23.4304 13.3084 21.7617 13.0071M21.9727 20.3051C22.2562 20.0854 22.4737 19.7919 22.6014 19.4567C22.7291 19.1216 22.7621 18.7577 22.6967 18.405M26.7671 20.8781C26.5756 20.4654 26.522 20.0021 26.6144 19.5567C26.7068 19.1113 26.9403 18.7074 27.2801 18.405M29.269 8.51294C28.9883 9.17906 28.9047 9.91173 29.028 10.624M33.5213 12.5239C33.34 13.4886 32.4956 14.0113 30.9883 14.092M34.968 17.5569C33.42 16.8736 32.264 17.3563 31.5 19.0049M26.9473 12.796C26.7866 14.284 27.209 15.1284 28.2143 15.329M34.9681 17.56C34.8781 19.611 34.0332 23.079 33.5812 25.883C33.5415 26.1592 33.404 26.4121 33.1937 26.5956C32.9834 26.7791 32.7143 26.8811 32.4352 26.883C32.1527 26.8899 31.8769 26.7968 31.6562 26.6203C31.4356 26.4438 31.2844 26.1951 31.2292 25.918C30.9582 24.41 30.2942 21.786 29.1782 22.118C28.7077 22.1128 28.2449 21.9985 27.8262 21.784C27.4074 21.5695 27.0442 21.2607 26.7651 20.882C26.4887 21.183 26.1534 21.4241 25.78 21.5901C25.4065 21.7561 25.0029 21.8436 24.5942 21.847C24.0611 21.8396 23.5391 21.694 23.0792 21.4244C22.6192 21.1548 22.2371 20.7704 21.9702 20.309C21.5527 20.5315 21.0862 20.6457 20.6132 20.641C19.8976 20.6304 19.2087 20.3675 18.6681 19.8986C18.1275 19.4296 17.7698 18.7849 17.6581 18.078C17.314 18.2757 16.9324 18.3993 16.5377 18.4408C16.1429 18.4823 15.7439 18.4408 15.3661 18.319C14.833 18.1434 14.3577 17.8261 13.9911 17.401C13.6246 16.9759 13.3805 16.4591 13.2852 15.906C13.957 15.3552 14.4464 14.6138 14.6886 13.7795C14.9308 12.9451 14.9146 12.057 14.6422 11.232C14.7151 10.7567 14.8977 10.3049 15.1754 9.91229C15.4531 9.5197 15.8183 9.19708 16.2422 8.96997C16.6071 8.76624 17.012 8.64454 17.4287 8.61328C17.8454 8.58202 18.264 8.64198 18.6552 8.789C18.7775 8.22534 19.0604 7.70915 19.4698 7.30286C19.8793 6.89656 20.3976 6.61755 20.9622 6.49951C21.5267 6.38148 22.1134 6.42945 22.6513 6.6377C23.1892 6.84594 23.6553 7.20553 23.9932 7.67297C24.0764 7.53933 24.1773 7.41756 24.2932 7.31097C24.5719 7.03099 24.9032 6.80882 25.2681 6.65723C25.6329 6.50563 26.0241 6.42761 26.4192 6.42761C26.8143 6.42761 27.2054 6.50563 27.5703 6.65723C27.9351 6.80882 28.2664 7.03099 28.5452 7.31097C28.8866 7.64367 29.1361 8.05917 29.2692 8.51697C29.8466 8.11849 30.5449 7.93367 31.2438 7.99426C31.9428 8.05485 32.5989 8.3571 33.0992 8.849C33.5753 9.32407 33.8762 9.94653 33.9529 10.6147C34.0295 11.283 33.8774 11.9575 33.5212 12.528C34.0656 12.6544 34.5658 12.9252 34.9692 13.312C35.2485 13.5908 35.4701 13.9218 35.6212 14.2863C35.7724 14.6508 35.8501 15.0416 35.85 15.4362C35.8499 15.8308 35.772 16.2215 35.6207 16.5859C35.4693 16.9504 35.2476 17.2814 34.9681 17.56Z" stroke="#16C1CC" stroke-width="2" stroke-linecap="square"></path></svg>