<svg xmlns="http://www.w3.org/2000/svg" width="45" height="47" viewBox="0 0 45 47" fill="none"><path d="M11.6356 26.6931C12.2551 25.5828 13.1001 24.6146 14.1162 23.8504C15.1323 23.0863 16.2971 22.5431 17.5356 22.256C22.6056 21.056 23.4297 20.6721 25.3357 15.4111C25.9474 13.6822 26.9271 12.1068 28.2074 10.7937C29.4877 9.48064 31.0377 8.46122 32.7506 7.80603L35.4756 11.1061C32.1589 12.4161 30.6589 13.9794 30.9756 15.7961C32.741 17.8229 34.2522 20.0577 35.4756 22.451C36.3316 24.451 35.9507 29.4231 34.7157 31.5771C33.5157 33.7321 33.1317 42.7631 31.0717 44.3481C28.9797 45.9641 27.0156 45.2041 22.2306 44.3481C15.6396 42.5731 7.27359 36.3621 8.69959 26.8871C9.17459 23.4961 12.9146 14.8141 12.2806 10.9161C12.0273 9.41608 10.8336 7.34574 8.69959 4.70508L11.5197 2.55005L14.4667 6.60608M21.586 15.918C19.653 15.318 17.371 14.048 16.864 11.291C16.23 7.95302 17.075 6.00936 19.399 5.46002L19.299 1.49902H22.2151V4.79901C22.218 4.89015 22.2414 4.97948 22.2835 5.06036C22.3256 5.14124 22.3854 5.21159 22.4583 5.2663C22.5313 5.32101 22.6155 5.35869 22.7049 5.37646C22.7944 5.39424 22.8867 5.39168 22.9751 5.36902C23.4977 5.23294 24.0489 5.25486 24.559 5.43201C24.7418 5.48418 24.9365 5.47532 25.1137 5.40674C25.291 5.33816 25.441 5.21359 25.541 5.052L26.999 2.552L29.154 4.23199L28.013 6.38702C27.892 6.61186 27.8607 6.87421 27.9255 7.12122C27.9903 7.36822 28.1462 7.5815 28.362 7.71802C28.996 8.13002 29.756 8.66902 29.82 8.98602" stroke="#16C1CC" stroke-width="2" stroke-linecap="square"></path></svg>