<svg xmlns="http://www.w3.org/2000/svg" width="45" height="47" viewBox="0 0 45 47" fill="none"><path d="M3.62641 45.425V44.055C3.57472 40.4191 4.94464 36.9068 7.4444 34.266C9.4344 32.21 11.9445 30.938 14.2645 31.59C15.5375 31.949 17.2014 32.34 18.6044 32.667C19.4822 32.8751 20.3944 32.8924 21.2794 32.7178C22.1644 32.5432 23.0016 32.1808 23.7346 31.6551C24.4675 31.1293 25.0792 30.4524 25.5283 29.6701C25.9773 28.8877 26.2532 28.0181 26.3375 27.12C26.3593 26.9469 26.3703 26.7725 26.3704 26.5979C26.3693 25.4105 26.0661 24.243 25.4894 23.205C24.9153 22.4281 24.2942 21.687 23.6295 20.986C22.5786 19.6047 21.9441 17.952 21.8006 16.2223C21.6571 14.4927 22.0106 12.7579 22.8195 11.2223C23.6284 9.68673 24.8589 8.41409 26.3665 7.55411C27.8741 6.69414 29.5959 6.28262 31.3294 6.36796C36.1914 6.59596 39.7474 10.6099 40.0414 15.5039C40.3024 19.5169 41.1505 24.9669 40.7265 30.6769C40.4672 33.2019 39.3894 35.5728 37.6575 37.4284C35.9256 39.2839 33.6346 40.5224 31.1335 40.955C25.5865 42.26 21.4425 40.9549 19.9415 40.0089C18.4075 39.0629 16.7415 36.55 13.8415 36.387C9.70816 36.1697 7.64142 39.1823 7.64142 45.425M14.4258 1.93018C14.7518 4.14918 15.8258 8.84716 19.0258 10.9362M19.4844 1.375C20.0714 3.659 21.4743 6.75911 24.7373 8.16211M35.4424 30.3501C35.595 33.2834 33.9853 35.1542 30.6133 35.9622" stroke="#16C1CC" stroke-width="2" stroke-linecap="square"></path></svg>