<svg width="24" height="24" fill="none" xmlns="http://www.w3.org/2000/svg">
    <circle cx="12" cy="12" r="12" fill="#B061FF"/>
    <path d="M16.343 4.771a2.853 2.853 0 0 0-1.696.968 2.812 2.812 0 0 0-.666 1.825v1.103h-2.858c-2.872.108-4.878 2.1-4.878 4.852 0 2.826 2.148 4.877 5.108 4.877 2.705 0 4.745-1.672 5.075-4.162.026-.22.039-.44.037-.66l.015-8.825-.137.022Zm-2.365 6.36-.016 2.41c0 .237-.027.474-.082.705-.312 1.23-1.347 2.023-2.637 2.023-1.602 0-2.724-1.166-2.724-2.835 0-1.67 1.12-2.835 2.724-2.835h2.738v.528l-.003.005Z" fill="#fff"/>
</svg>
