<svg xmlns="http://www.w3.org/2000/svg" width="318" height="98" viewBox="0 0 318 98" fill="none"><g clip-path="url(#clip0_5236_1225)"><circle cx="38.3673" cy="59.4357" r="37.965" fill="#E7A028"></circle><path d="M28.8042 5.23889C26.8928 6.0231 25.5161 7.77124 25.0667 8.54728C24.0047 16.8387 21.8807 33.6543 21.8807 34.5856C21.8807 35.5168 22.6569 40.6918 23.0449 43.1629C22.6569 44.8783 21.5621 48.5421 20.2879 49.4733C18.695 50.6374 19.2462 52.7205 19.1849 55.2324C19.1359 57.2419 20.9617 60.3175 21.8807 61.6041L24.699 64.116C24.7399 65.9745 24.7236 70.2917 24.3315 72.6934C23.8414 75.6954 24.3315 74.6539 26.2308 77.5947C28.13 80.5355 36.3398 86.1107 37.32 86.5396C38.3003 86.9685 39.0355 86.8459 40.3221 86.5396C41.6087 86.2333 47.5515 81.4545 48.4093 80.7805C49.0955 80.2414 51.6768 77.37 52.8817 76.0018C53.0247 75.0215 53.3106 72.8772 53.3106 72.142V64.4836C54.5359 62.6661 57.1581 58.6511 57.8443 57.1317C58.5305 55.6122 58.5795 52.2916 58.5182 50.8212L54.9035 48.7381L56.3127 38.6904L51.9015 6.58675L44.4882 3.09456C42.5685 2.6657 38.6066 1.82022 38.1165 1.86923C37.5038 1.9305 31.1934 4.25863 28.8042 5.23889Z" fill="white"></path><path d="M38.7578 0.400391L39.1305 0.446989L40.7615 0.866375L42.5788 1.42556L43.8836 1.89154L45.0485 2.40412L46.0271 2.9167L46.6329 3.33609L46.9125 3.56908V3.89527L47.2853 3.66228L47.7047 3.75548L50.221 4.59425L52.0849 5.29322L52.4577 5.47962L52.7373 5.80581L53.0169 6.45818L53.2965 7.43675L53.6692 9.11429L54.042 11.2112L54.6012 14.8925L54.7876 16.337L55.1604 19.1795L55.3468 20.6707L55.673 23.42L55.9992 26.3091L56.5118 30.9689L56.7913 33.2989L56.9777 34.9764L57.1641 37.0267L57.2573 38.6577L57.3039 40.0556V41.7798L57.2107 44.2961L57.1175 46.16L56.9777 47.8842L56.9311 48.1638L57.3039 48.2104L57.9563 48.5365L58.4689 49.0025L58.7951 49.5151L59.0281 50.0277L59.2145 50.7267L59.3077 51.3324V53.1032L59.1213 55.0137L58.8883 56.5515L58.6087 57.8562L58.2359 59.0678L57.8631 59.9998L57.3039 61.1181L56.6981 62.0501L56.0924 62.8423L55.5332 63.4946L54.7876 64.2868L54.2284 64.7994L53.9022 65.079V67.9681L54.0886 70.2048L54.3682 72.1153L54.6478 73.5599L54.8342 74.3521L54.7876 74.5851L54.3216 75.284L53.6692 76.216L53.2033 76.8218L52.6441 77.5674L52.1315 78.2197L51.0131 79.5245L50.2676 80.3167L49.4288 81.1554L49.056 81.4816L48.5434 81.9476L48.0308 82.367L47.6115 82.7398L47.0057 83.2058L46.0271 83.9513L44.2098 85.1629L43.2312 85.7687L42.1128 86.421L40.9013 87.0734L39.6431 87.7258L38.7578 88.1452L38.5248 88.0986L37.3132 87.4928L34.7503 86.0949L33.8183 85.5357L32.2806 84.5105L31.4418 83.9047L30.603 83.2524L29.9973 82.7398L29.4847 82.3204L28.7391 81.6214L28.2731 81.202L27.1548 80.0837L26.8286 79.7109L26.2694 79.1051L25.7568 78.4993L25.384 78.0333L24.7782 77.2412L24.1725 76.4024L23.7531 75.75L23.0075 73.9793L23.0541 73.5599L23.3337 72.0687L23.5201 70.8572L23.6599 69.7854L23.7997 67.8749L23.8463 66.8497V65.1256L23.2405 64.5664L22.8677 64.2402L22.4017 63.7742L22.0755 63.4014L21.6561 62.9355L21.0038 62.0501L20.4912 61.2579L19.9786 60.3259L19.5126 59.2076L19.1864 58.229L18.8602 56.8311L18.6738 55.7127L18.534 54.6875L18.3477 52.4508L18.3943 51.2859L18.5806 50.3073L18.8136 49.7015L19.0932 49.1889L19.6058 48.6297L20.2582 48.257L20.7242 48.1172L20.6776 47.325L20.5844 46.2066L20.4446 43.5039L20.398 42.0594V39.8692L20.4912 37.7723L20.631 35.9084L20.864 33.6717L21.2368 30.4564L21.6561 26.6819L22.0289 23.4666L22.3085 21.0901L22.6813 18.0612L23.0075 15.5915L23.3803 12.982L23.7997 10.419L24.1259 8.64831L24.5452 6.87757L24.8714 5.9922L25.151 5.57281L25.384 5.38642L27.1082 4.73404L29.4381 3.94187L30.2768 3.66228L30.4632 3.70888L30.6496 3.84867H30.7428L30.836 3.52248L31.302 3.1497L32.001 2.73031L32.7466 2.35752L33.8183 1.89154L35.6823 1.23916L37.6394 0.679981L38.7578 0.400391ZM38.7112 2.87011L37.0336 3.33609L35.3095 3.89527L34.0047 4.40785L33.0262 4.87384L32.8864 5.80581L32.6068 8.04253H32.5136L31.768 7.52995L30.9292 6.92417L29.9973 6.27179L28.2731 6.83097L27.015 7.29695L26.8752 7.39015L26.6422 8.22892L26.2694 10.0463L25.8966 12.2364L25.3374 16.0109L25.0112 18.4806L24.7782 20.3911L24.452 23.0938L23.8929 28.0332L23.6133 30.736L23.3337 33.3455L23.1007 35.8152L23.0075 36.7471V37.6325L23.1473 38.2849L23.3337 38.5645L23.6133 38.7509H24.1725L24.8714 38.5179L25.6636 38.1451L26.7354 37.5393L27.9003 36.8869L28.9255 36.3278L30.0905 35.722L31.535 35.0696L32.7466 34.6036L34.1445 34.1376L35.8221 33.7183L37.4996 33.4387L38.4782 33.3455H39.2703L41.2741 33.4853L43.5574 33.7183L45.2815 33.9512L47.0057 34.2308L49.1026 34.6502L50.8267 35.0696L52.4111 35.5356L53.7624 36.0016L54.5546 36.3278L54.6478 36.2812L54.4148 33.8115L54.0886 30.7826L53.809 28.0798L53.3897 24.3986L53.0169 21.2299L52.6441 18.201L52.3179 15.7313L51.8985 12.8888L51.5257 10.6054L51.1063 8.46191L50.8267 7.39015L50.454 7.20376L49.1492 6.73777L47.7047 6.27179L46.8659 6.87757L46.1203 7.39015L45.2815 7.99593L45.0951 8.08913L44.769 5.47962L44.6758 4.87384L43.9768 4.50105L42.7186 3.98847L41.0411 3.42929L39.9227 3.1031L39.0373 2.87011H38.7112ZM38.5248 35.6288L35.6357 35.8152L33.4921 36.0482L31.8146 36.2812L30.0905 36.5608L28.2265 36.9335L27.6673 37.0733V37.5393L27.8537 40.242L27.9469 42.4322L27.5275 42.8981L26.9684 43.5505L26.549 44.0631L25.9432 44.8087L25.2908 45.694L24.7316 46.5328L24.452 47.0454L24.4054 47.6046V53.3362L24.452 55.1069L24.6384 58.1824L24.8248 60.1861L25.0578 62.0501L25.384 64.0538L25.7568 65.778L26.1296 67.1759L26.6422 68.6671L27.1548 69.8786L27.7139 71.0436L28.2265 72.0221L28.8789 73.0939L29.4847 73.9793L30.1371 74.8646L30.6496 75.4704L31.069 75.983L31.8146 76.7752L32.0942 77.0548H32.1874L32.2806 77.2412H32.3738L32.4204 77.381L32.7932 77.7072L33.5853 78.3595L34.4707 79.0119L35.4493 79.6177L36.521 80.1769L37.5928 80.5963L38.6646 80.8758H39.0373L39.9227 80.6429L40.8547 80.3167L42.0196 79.7575L42.9516 79.1983L43.7438 78.6391L44.2098 78.2663L44.7224 77.8469L45.2349 77.381L45.6077 77.0548L46.3067 76.3558L46.6329 75.983L47.1921 75.3306L47.7978 74.5385L48.2172 73.9793L48.8696 73.0007L49.4288 72.0687L49.988 71.0436L50.5938 69.7854L51.1063 68.5273L51.6655 66.8497L52.1315 64.9858L52.4111 63.4946L52.6441 62.0035L52.9237 59.7202L53.1101 57.53L53.2499 55.0137L53.2965 53.8488V47.1852L52.9237 46.4396L52.4111 45.694L51.6655 44.7155L51.0597 43.9699L50.6404 43.4573L50.0346 42.7583L49.755 42.4322L49.8948 39.4499L50.0346 37.4461V37.0733L48.0774 36.654L46.5397 36.3744L44.2564 36.0482L42.0662 35.8152L39.1771 35.6288H38.5248ZM56.2322 50.5869L56.0924 51.5654L55.7196 54.0818L55.3002 56.3185L54.9274 58.1358L54.3682 60.5123L54.0886 61.5841V61.8171L54.4614 61.5375L54.8808 61.1647L55.3002 60.6521L55.8128 59.9066L56.372 58.8348L56.7913 57.7164L57.0709 56.7379L57.2573 55.8525L57.4437 54.3147V52.777L57.3039 51.9848L57.0709 51.379L56.7913 50.9597L56.4652 50.6801L56.2322 50.5869ZM21.4232 50.5869L21.0038 50.8665L20.6776 51.2859L20.4446 51.845L20.3048 52.4042L20.2582 52.9168V54.0818L20.3514 55.2001L20.5378 56.3185L20.8174 57.4368L21.1902 58.5086L21.7959 59.7668L22.1687 60.3259L22.5881 60.8851L23.4269 61.7239L23.6133 61.8171L23.5667 61.3977L23.0541 59.3474L22.6347 57.4834L22.1687 55.1535L21.7959 52.9168L21.5163 50.8199L21.4697 50.5869H21.4232ZM25.7102 70.8572L25.4306 73.0939L25.2908 73.9793V74.2123L25.8034 74.9578L26.3626 75.75L26.8286 76.3558L27.4343 77.1014L27.8537 77.614L28.3663 78.1731L28.6925 78.5459L29.0187 78.8721L29.3449 79.2449L29.7177 79.6177L30.0905 79.9439L30.4166 80.2701L30.7894 80.5963L31.4418 81.1554L32.1874 81.7612L32.933 82.3204L33.7251 82.8796L34.7037 83.532L36.0085 84.3241L37.0802 84.8833L37.9656 85.3493L38.6646 85.7221L38.8976 85.6755L40.2023 85.0231L41.2741 84.4173L42.6254 83.6251L44.4428 82.4136L45.3281 81.7612L46.1669 81.1088L46.8193 80.5497L47.3319 80.1303L47.891 79.5711L48.2638 79.2449L49.056 78.4527L49.3822 78.0799L49.7084 77.7537L50.1278 77.2412L50.6869 76.5888L51.3859 75.6568L51.9917 74.818L52.4111 74.2123L52.3645 73.6531L52.1781 72.3949L51.9917 70.8572H51.8985L51.2927 72.1153L50.6404 73.2337L50.221 73.9327L49.755 74.6317L49.289 75.284L48.823 75.8898L48.4502 76.3558L47.891 77.0082L46.8659 78.1265L46.2601 78.6857L45.7941 79.1051L45.2815 79.5245L44.3496 80.2235L43.6506 80.6894L42.672 81.2486L41.4139 81.8544L40.0159 82.3204L38.9907 82.5534L38.4782 82.5068L37.4996 82.2738L36.288 81.8544L35.1231 81.2952L34.4241 80.9224L33.1659 80.0837L32.3738 79.4779L31.7214 78.9187L31.2554 78.4993L30.6962 77.9867L30.3234 77.614L29.9973 77.2412L29.3915 76.5422L28.7857 75.7966L28.1333 74.9112L27.4809 73.9327L26.782 72.7677L26.083 71.463L25.8034 70.8572H25.7102Z" fill="#232323"></path><path d="M35.6822 57.9028L35.7288 58.0892L35.3561 59.627L35.2163 60.1861V60.3725L35.9618 60.8385L36.5676 61.3977L36.987 61.8637L37.3598 62.5161L37.686 62.8423L38.1986 63.1218L38.5713 63.215H39.1305L39.5965 63.0753L40.0625 62.7957L40.4353 62.3763L40.7149 61.8637L41.2275 61.3045L41.74 60.8385L42.3924 60.4191L42.4856 60.3725L42.439 59.9998L42.0196 58.3222L41.973 57.9028L42.1594 58.1358L42.8584 59.2542L43.4642 60.2327L43.7904 60.7453L43.6972 61.0249L43.2778 61.7705L42.8584 62.6093H43.371L44.0234 62.7491L44.4893 62.9355L45.0485 63.3082L45.6077 63.8208L45.9339 64.147L46.5397 64.9392L47.0989 65.7314V65.8246L47.5182 65.8712L49.3356 66.2905L50.3607 66.5701H50.5937L50.7801 66.2905L50.8267 66.4303L50.7801 66.8497L50.6403 67.0827L50.4073 67.7817L49.988 68.6671L49.9414 68.8535L49.8482 69.0398L49.6618 69.133L49.289 69.599L49.1958 69.7388L49.4754 69.832L49.4288 70.065L48.823 70.0184L48.357 70.3446L47.9842 70.531L48.1706 70.6242L48.8696 70.8106L49.0094 70.9038L48.9162 71.0902L48.4036 70.997L47.4716 70.7174L46.6795 70.8572H45.8407L44.7223 70.6708L43.837 70.3912L42.905 70.0184L41.8798 69.5058L40.9479 68.9467L40.2023 68.4341L38.8975 67.4555L38.7111 67.5021L37.9656 68.1079L37.0802 68.7137L36.3812 69.1796L35.3561 69.7388L34.2843 70.2514L33.1659 70.6242L32.234 70.8106L31.8146 70.8572H31.0224L30.2302 70.7174L29.4847 70.4378L28.9255 70.065L28.4595 69.6456L28.0867 69.2262L27.6673 68.5739L27.2945 67.7817L26.9683 66.8031L26.8751 66.2905L27.0615 66.4769L27.4343 66.9895L27.8537 67.3623L28.1799 67.5487L28.3663 67.5953H28.7857L29.2051 67.4089L29.5779 67.0827L29.9506 66.6633L30.5564 65.8246L30.9292 65.2654L31.3952 64.613L31.9544 63.9606L32.467 63.448L33.1193 62.9821L33.6785 62.7491L33.9581 62.6559L34.3309 62.6093H34.8435L34.2843 61.4909L33.9115 60.8851L33.9581 60.6987L34.5173 59.7668L35.6822 57.9028ZM47.2853 66.011L47.3784 66.1973L47.7512 66.7099L48.1706 67.1759L49.0094 67.4089L49.4754 67.5487L49.7084 67.5021L50.1278 67.1759L50.3141 66.9895V66.8963L47.3784 66.011H47.2853Z" fill="#232323"></path><path d="M43.5108 45.694L44.07 45.7406L46.6329 46.3464L49.5686 47.0454L51.0132 47.4182L52.1315 47.791L52.3179 47.8842L52.3645 47.9774V48.257L51.8985 48.1638L50.221 47.7444L50.8734 48.1638L51.0598 48.4434L52.1781 48.7695L52.4577 48.9093V49.1423L52.2247 49.1889L51.1996 48.9093L51.3859 49.6083L51.4325 49.7015L52.4111 49.9811L52.5509 50.1209L52.5043 50.3539L52.0383 50.3073L51.5257 50.1675L51.6189 50.9131L52.1315 51.0529L52.5043 51.1927L52.5509 51.2393V51.5188L52.0849 51.4722L50.4074 51.0063L49.755 50.8199H49.6152L50.221 51.3325L50.8734 51.845L52.3179 52.2644L52.5975 52.4042V52.6372L52.5509 52.6838L52.0849 52.6372L50.7802 52.2644L50.5006 52.311L49.8482 52.6838H49.755V52.777L50.1744 52.8236L51.8053 53.243L52.4577 53.476L52.5975 53.5692V53.8022L52.2713 53.8488L51.2927 53.5692L49.7084 53.1032L49.289 53.01L48.4036 53.5226L49.1958 53.7556L51.3859 54.2682L52.2713 54.5477L52.5509 54.6875V54.9205L52.2713 54.9671L51.5257 54.7807L49.6618 54.2216L48.1707 53.8022L47.8911 53.8488L47.3319 54.2216L46.5863 54.2682H45.1884L44.6292 54.2216L44.9554 54.8739L45.1884 55.1535L45.7475 55.5729L46.2135 55.8525L46.6329 56.0389V56.0855L45.7475 56.0389L44.9088 55.8059L44.1166 55.3865L43.6506 55.0137L43.138 54.5011L42.7186 53.8488L42.439 53.1964V53.0566L41.5071 52.9168L41.4605 52.8236L43.138 52.2644L45.1418 51.6586L46.9591 51.1927L47.0057 51.1461L46.3999 50.9131V50.8665L46.9591 50.9131L47.3785 51.0063H47.7979L49.1492 50.7267L49.2424 50.6801L47.9843 50.3073L47.5183 50.3539L45.2816 50.8199L42.8118 51.379L41.0877 51.7984L40.8547 51.7518L40.4353 50.9597L40.1557 50.4005L39.5033 49.2821L39.2704 48.8627L39.317 48.7695L39.8761 49.2355L40.4819 49.7015L40.6683 49.8413L41.0877 49.7947L43.2312 49.2355L46.3067 48.3502L47.7047 47.9308L46.4931 47.5114L46.3999 47.4182H46.7727L48.0309 47.6978L48.3104 47.7444L49.1958 47.4648L46.5397 46.7192L43.8836 45.8804L43.5108 45.7406V45.694ZM49.8016 49.8879L48.7298 50.0743L48.5434 50.1675L51.153 50.8199L51.2461 50.7733L50.7802 50.4005L50.0346 49.8879H49.8016Z" fill="#232323"></path><path d="M28.0867 47.3716L28.5993 47.5114L31.535 48.3968L34.4707 49.2355L36.8006 49.8413H37.0336L37.4996 49.4685L38.3384 48.8161L38.4316 48.7695L38.3384 49.0491L37.8724 49.8413L37.1268 51.1927L36.8006 51.7984L36.4279 51.7518L33.2592 51.0063L30.6497 50.4471L28.5061 50.0277L27.9003 49.9345H27.6674L26.8752 50.4937L26.4092 50.8665L26.0364 51.1461L26.1762 50.2607L26.4558 49.0491L26.7354 48.2104L27.7605 47.558L28.0867 47.3716Z" fill="#232323"></path><path d="M28.2265 50.7267H28.5527L30.37 51.0995L31.8612 51.4722L33.8183 52.0314L35.7288 52.6372L36.2414 52.8236L36.1948 52.9168L35.2629 53.0566L35.1231 53.5692L34.7969 54.175L34.4241 54.6409L33.9115 55.1535L33.2125 55.6195L32.5136 55.8991L31.9544 56.0389L31.069 56.0855L31.2554 55.9457L32.0476 55.5263L32.6068 55.0137L32.8863 54.6409L33.0727 54.2216L32.5136 54.2681H31.1622L30.37 54.2216L29.6711 53.7556L27.2013 52.311L26.6888 52.0314V51.9382L27.1547 51.5654L27.8071 51.0529L28.2265 50.7267Z" fill="#232323"></path><path d="M35.1231 70.4378L36.8938 70.6708L37.6394 70.7174H40.0625L41.2275 70.6242L42.5788 70.4378L42.5322 70.8106L42.2992 71.5562L41.973 72.1619L41.5537 72.6745L41.0411 73.0939L40.3421 73.4667L39.7363 73.6531L39.4567 73.6997H38.2452L37.4996 73.5133L36.754 73.1405L36.3812 72.8609L35.8221 72.3017L35.4493 71.6494L35.2163 71.0436L35.1231 70.6242V70.4378Z" fill="#232323"></path><path d="M38.8044 4.45445H38.8976L38.9907 5.06023L39.0839 6.45818L39.1305 7.52995L39.2237 12.3762V23.3734L39.1305 28.2662L39.0373 30.1768L38.9442 31.2485L38.8976 31.3417H38.8044L38.7578 31.1553L38.6646 30.2234L38.5714 28.3594L38.5248 26.1693L38.4782 23.7462V12.05L38.5714 7.94933V7.39015L38.6646 5.57281L38.7578 4.59425L38.8044 4.45445Z" fill="#232323"></path><path d="M43.5108 44.5291L44.0234 44.5757L45.7009 44.9485L48.6832 45.694L50.5938 46.2066L51.6655 46.4862L51.8985 46.7192L51.9451 46.9522L51.5257 46.9056L50.1278 46.5794L48.7764 46.2066L46.6329 45.5542L44.536 44.9485L43.604 44.6223L43.5108 44.5291Z" fill="#232323"></path><path d="M43.5108 43.3641H43.837L45.0951 43.6437L47.1455 44.1097L49.1492 44.6223L50.5472 45.0883L50.9199 45.3213L51.1063 45.5542L51.0131 45.6008L50.1278 45.4145L48.2172 44.8553L45.7475 44.1563L43.9768 43.5971L43.5108 43.4107V43.3641Z" fill="#232323"></path><path d="M45.9805 32.7397L47.1455 32.9727L48.5434 33.2989L51.5257 34.0444L52.9703 34.4172L53.7159 34.6502L53.8557 34.8366L53.8091 35.023L53.7159 35.0696L52.4111 34.7434L49.0094 33.7648L46.8193 33.1125L45.9805 32.8329V32.7397Z" fill="#232323"></path><path d="M45.9805 31.6213H46.3533L47.7513 31.9475L50.7336 32.6931L52.5509 33.1591L53.4829 33.4387L53.6693 33.6251L53.6227 33.8115L53.1101 33.7648L51.8519 33.4387L49.6618 32.7863L47.7047 32.2271L46.0737 31.7145L45.9805 31.6213Z" fill="#232323"></path><path d="M45.9805 30.4564L46.5397 30.503L50.687 31.5281L52.8305 32.0873L53.3897 32.2737L53.5295 32.4135L53.4829 32.5999H53.1101L51.8053 32.2737L49.6152 31.6213L47.3785 30.9689L46.1669 30.5962L45.9805 30.4564Z" fill="#232323"></path><path d="M45.9805 29.2914L46.3999 29.338L47.6115 29.6176L51.9451 30.6894L53.2499 31.0621L53.3897 31.2019L53.3431 31.4349L52.8771 31.3883L51.8053 31.1087L48.2638 30.0836L46.2601 29.4778L45.9805 29.338V29.2914Z" fill="#232323"></path><path d="M45.9805 28.1264L46.7727 28.2662L48.2173 28.5924L50.9666 29.2914L52.7839 29.7574L53.2033 29.9438L53.2499 29.9904V30.2234L53.0635 30.27L51.7587 29.9438L48.8696 29.105L46.6795 28.4526L45.9805 28.2196V28.1264Z" fill="#232323"></path><path d="M45.9805 26.9615L47.1921 27.1945L50.1744 27.9401L52.5509 28.5458L53.0169 28.7322L53.1101 28.8254L53.0635 29.0584L52.5975 29.0118L51.3859 28.6856L47.5649 27.5673L46.2135 27.1479L45.9805 27.0547V26.9615Z" fill="#232323"></path><path d="M45.9805 25.8431L46.4931 25.8897L49.6152 26.6353L51.9917 27.2411L52.7839 27.4741L52.9237 27.6139L52.8771 27.8469L52.4111 27.8003L50.5472 27.2877L47.4717 26.4023L46.0737 25.9363L45.9805 25.8431Z" fill="#232323"></path><path d="M43.5108 42.1992L44.2098 42.2924L47.0989 42.9447L48.4036 43.2709L49.1026 43.5039L49.5686 43.7369L49.6152 43.9699H49.1958L48.0308 43.6903L44.07 42.4788L43.5108 42.2458V42.1992Z" fill="#232323"></path><path d="M45.9805 22.3948H46.3999L48.4036 22.8608L51.0598 23.5132L52.2247 23.8394L52.4577 23.9326L52.5043 24.2588H52.0849L49.6618 23.5598L47.0989 22.8142L45.9805 22.4414V22.3948Z" fill="#232323"></path><path d="M43.5108 38.7509H43.837L45.5611 39.1237L48.6832 39.9158L49.289 40.1488L49.4288 40.2886L49.3822 40.4284H48.823L47.4717 40.1022L45.1417 39.3567L43.7904 38.9373L43.5108 38.7975V38.7509Z" fill="#232323"></path><path d="M45.9805 20.0649H46.3067L49.4754 20.8105L51.5257 21.3231L52.0849 21.5095L52.2247 21.6959L52.1781 21.8823H51.8053L47.6115 20.6707L46.0271 20.1581L45.9805 20.0649Z" fill="#232323"></path><path d="M45.9805 21.2299L46.5397 21.2765L49.1492 21.8823L51.3393 22.4414L52.2713 22.721L52.3645 22.8142V23.0938L52.2247 23.1404L51.0132 22.8142L48.0309 21.9289L46.0737 21.3231L45.9805 21.2299Z" fill="#232323"></path><path d="M43.5108 36.421L43.9768 36.4676L46.2135 36.9801L48.59 37.5859L49.4288 37.8655L49.4754 38.0985L49.3822 38.1917L48.9162 38.1451L47.7978 37.8655L43.7904 36.6074L43.5108 36.4676V36.421Z" fill="#232323"></path><path d="M45.9805 24.6782L46.5863 24.7714L48.4036 25.1907L51.3859 25.9363L52.6907 26.3091L52.7839 26.4023V26.6353H52.4111L50.3608 26.0761L47.7979 25.3305L46.1669 24.818L45.9805 24.7248V24.6782Z" fill="#232323"></path><path d="M46.0271 23.5598L46.4931 23.6064L48.5435 24.0724L51.5258 24.818L52.5043 25.0975L52.6441 25.2373L52.5975 25.4703L52.1781 25.4237L50.92 25.0975L46.6795 23.8394L46.0271 23.6064V23.5598Z" fill="#232323"></path><path d="M43.5574 37.6325H43.9302L46.0271 38.0985L48.4502 38.7043L49.2424 38.9373L49.4288 39.0771V39.2635L49.289 39.3101H48.9628L48.0775 39.0771L46.1203 38.5179L44.8622 38.1451L43.6506 37.7257L43.5574 37.6325Z" fill="#232323"></path><path d="M43.5108 41.0342L43.9768 41.0808L45.2815 41.3604L47.2853 41.873L48.6366 42.1992L49.289 42.4322L49.4288 42.572L49.3822 42.7583L49.3356 42.8049L48.8696 42.7583L46.3067 42.0128L45.0485 41.64L43.5574 41.1274L43.5108 41.0342Z" fill="#232323"></path><path d="M43.5108 39.9158L44.0234 39.9624L45.5611 40.2886L47.891 40.8478L49.1026 41.2206L49.3822 41.407L49.3356 41.64L49.0094 41.5934L47.3319 41.174L45.1417 40.5216L43.604 40.009L43.5108 39.9158Z" fill="#232323"></path><path d="M45.9805 18.9L46.6329 18.9932L48.4968 19.4125L50.92 20.0183L51.8519 20.2979L52.0849 20.4843L52.0383 20.6707L51.8519 20.7173L50.454 20.3445L49.1492 19.9717L46.3999 19.133L45.9805 18.9466V18.9Z" fill="#232323"></path><path d="M46.3999 56.6447H46.7727L48.3105 56.9709L49.8948 57.3902L51.5724 57.8096L52.2713 58.0426L52.3179 58.0892V58.3222L52.1315 58.4154L50.8268 58.0426L48.823 57.4834L47.1455 56.9709L46.3999 56.6913V56.6447Z" fill="#232323"></path><path d="M46.3999 57.763L47.2387 57.9028L49.7084 58.462L51.2928 58.8814L51.9917 59.1144L52.1781 59.2076L52.2247 59.394L52.0849 59.4872L51.6189 59.4406L50.92 59.2542L48.7298 58.6018L46.6329 57.9494L46.3999 57.8562V57.763Z" fill="#232323"></path><path d="M46.3999 54.3148L47.0523 54.4079L51.0132 55.3399L52.2713 55.7127L52.5043 55.8525L52.4577 56.0855H51.9917L48.823 55.1535L47.0057 54.5943L46.3999 54.3613V54.3148Z" fill="#232323"></path><path d="M46.3999 55.4797L46.9125 55.5263L49.1026 56.0389L52.0383 56.7845L52.4111 56.9709V57.2504L52.3179 57.297L50.4074 56.7845L47.7513 55.9923L46.4931 55.5729L46.3999 55.4797Z" fill="#232323"></path><path d="M46.0271 16.57L47.1921 16.803L49.3822 17.3156L51.0132 17.735L51.5258 17.9214L51.6655 18.0612V18.201L51.386 18.2476L50.4074 18.0146L47.9843 17.3156L46.1203 16.7098L46.0271 16.6632V16.57Z" fill="#232323"></path><path d="M46.3999 58.928L47.0523 59.0212L48.6832 59.394L50.92 59.9532L51.8519 60.2327L52.0383 60.3259L51.9917 60.5589H51.5258L50.3142 60.2327L47.5649 59.394L46.4465 59.0212L46.3999 58.928Z" fill="#232323"></path><path d="M45.9805 17.735L46.4465 17.7816L48.2638 18.201L50.5006 18.7602L51.6189 19.0864L51.8519 19.2727L51.8053 19.4125H51.4325L50.2676 19.133L48.59 18.6204L46.7261 18.0612L46.0271 17.8282L45.9805 17.735Z" fill="#232323"></path><path d="M46.4465 60.093L47.0523 60.1861L50.0812 60.8851L51.4325 61.2579L51.8053 61.4443L51.8519 61.6307L51.8053 61.6773H51.3859L49.7084 61.2113L48.124 60.7453L46.7727 60.3259L46.4465 60.1861V60.093Z" fill="#232323"></path><path d="M45.9805 15.4517L46.5397 15.4983L48.7764 16.0109L50.7336 16.5234L51.2927 16.7098L51.5257 16.8496L51.4791 16.9894L51.153 17.036L50.1744 16.803L48.1241 16.1973L46.2135 15.5915L45.9805 15.4983V15.4517Z" fill="#232323"></path><path d="M46.3999 61.2579L46.8659 61.3045L49.1492 61.8171L50.8268 62.2365L51.5258 62.4695L51.6655 62.5627L51.6189 62.7957L51.153 62.7491L49.8016 62.3763L48.3571 61.9569L46.8193 61.4909L46.3999 61.3045V61.2579Z" fill="#232323"></path><path d="M45.9805 14.2867L46.4931 14.3333L49.056 14.9391L50.5472 15.3119L51.1064 15.4983L51.3393 15.6381L51.2927 15.8245H50.8734L47.6115 14.8925L46.0737 14.3799L45.9805 14.2867Z" fill="#232323"></path><path d="M45.9805 13.1218L46.3999 13.1684L48.0775 13.5411L50.687 14.1935L51.153 14.3799L51.2461 14.4731L51.1995 14.6595H50.8734L49.056 14.1469L47.4251 13.6809L46.0271 13.215L45.9805 13.1218Z" fill="#232323"></path><path d="M46.5397 62.2365L47.0523 62.2831L49.0094 62.7491L51.1995 63.3082L51.6655 63.4946L51.7121 63.681L51.6655 63.7276H51.3393L50.3608 63.4946L47.2853 62.5627L46.5397 62.2831V62.2365Z" fill="#232323"></path><path d="M45.9805 11.9568L46.5863 12.05L49.1492 12.6558L50.5938 13.0286L51.0132 13.215L51.1064 13.4013L51.0598 13.4945L50.7336 13.4479L48.1707 12.749L46.3999 12.1898L45.9805 12.05V11.9568Z" fill="#232323"></path><path d="M46.5397 63.4014L46.9591 63.448L48.6366 63.8208L51.0598 64.4266L51.4791 64.613L51.3859 64.7994L51.153 64.846L50.0812 64.5664L48.0775 63.9606L46.5397 63.448V63.4014Z" fill="#232323"></path><path d="M45.9805 10.7918L47.1455 11.0248L49.522 11.584L50.6404 11.9102L50.8734 12.05L50.92 12.2364L50.687 12.283L48.9628 11.817L46.8193 11.1646L45.9805 10.885V10.7918Z" fill="#232323"></path><path d="M45.9805 9.67347L46.4931 9.72007L49.1026 10.3259L50.2676 10.652L50.6404 10.8384L50.7336 10.9782L50.687 11.0248H50.2676L47.9843 10.3724L46.2135 9.81327L45.9805 9.72007V9.67347Z" fill="#232323"></path><path d="M46.5397 64.5664L47.1455 64.613L49.1492 65.079L50.92 65.545L51.1064 65.6848V65.8712L50.8734 65.9178L49.3822 65.4984L47.3785 64.8926L46.5397 64.613V64.5664Z" fill="#232323"></path><path d="M45.9805 8.50851L46.3999 8.55511L48.8696 9.11429L50.0346 9.44048L50.5006 9.67347V9.81327H50.1278L48.8696 9.48708L46.3067 8.69491L45.9805 8.55511V8.50851Z" fill="#232323"></path><path d="M46.5397 71.463H46.9125L48.3104 71.8358L48.4968 71.9289L48.4502 72.0687L47.9843 72.0221L46.6329 71.5562L46.5397 71.463Z" fill="#232323"></path><path d="M46.5863 72.6279L47.0522 72.6745L47.7512 72.8609L47.9376 73.0007L47.891 73.0473L47.425 73.0007L46.6329 72.7211L46.5863 72.6279Z" fill="#232323"></path><path d="M46.6329 73.8395H46.9591L47.1921 73.9327L47.1455 74.0259L46.7261 73.9327L46.6329 73.8395Z" fill="#232323"></path><path d="M93.2429 79.9004V37.2718H103.169C110.112 37.2718 113.096 40.4994 113.096 47.0763V49.695C113.096 54.0796 111.695 56.8809 108.711 58.0989V58.2207C112.06 59.256 113.157 62.4227 113.157 67.2336V74.7241C113.157 76.7946 113.217 78.317 113.887 79.9004H107.067C106.701 78.8042 106.458 78.1343 106.458 74.6632V66.8682C106.458 62.9098 105.301 61.631 102.256 61.631H99.9417V79.9004H93.2429ZM99.9417 55.5412H102.378C104.874 55.5412 106.397 54.445 106.397 51.0347V47.7462C106.397 44.7013 105.362 43.3616 102.987 43.3616H99.9417V55.5412ZM117.013 79.9004V37.2718H135.282V43.3616H123.711V54.6277H132.907V60.7175H123.711V73.8106H135.282V79.9004H117.013ZM147.171 80.5094C140.594 80.5094 137.306 76.6119 137.306 69.7913V67.3554H143.639V70.2785C143.639 73.3234 144.979 74.4196 147.111 74.4196C149.242 74.4196 150.582 73.3234 150.582 70.1567C150.582 66.6246 149.242 64.3714 144.857 60.5348C139.255 55.6021 137.428 52.1309 137.428 47.259C137.428 40.5603 140.899 36.6628 147.415 36.6628C153.931 36.6628 157.159 40.5603 157.159 47.3808V49.1469H150.825V46.9546C150.825 43.9097 149.607 42.7526 147.476 42.7526C145.345 42.7526 144.127 43.9097 144.127 46.8328C144.127 49.9386 145.527 52.1918 149.912 56.0284C155.514 60.9611 157.281 64.3714 157.281 69.6695C157.281 76.6119 153.748 80.5094 147.171 80.5094ZM165.567 79.9004V43.3616H158.564V37.2718H179.269V43.3616H172.266V79.9004H165.567ZM177.159 79.9004L184.102 37.2718H193.176L200.118 79.9004H193.419L192.201 71.4356V71.5574H184.589L183.371 79.9004H177.159ZM185.381 65.772H191.41L188.426 44.7013H188.304L185.381 65.772ZM212.201 80.5094C205.624 80.5094 202.214 76.6119 202.214 69.7913V37.2718H208.913V70.2785C208.913 73.3234 210.191 74.4196 212.323 74.4196C214.454 74.4196 215.733 73.3234 215.733 70.2785V37.2718H222.188V69.7913C222.188 76.6119 218.778 80.5094 212.201 80.5094ZM226.168 79.9004V37.2718H236.094C243.036 37.2718 246.02 40.4994 246.02 47.0763V49.695C246.02 54.0796 244.62 56.8809 241.636 58.0989V58.2207C244.985 59.256 246.081 62.4227 246.081 67.2336V74.7241C246.081 76.7946 246.142 78.317 246.812 79.9004H239.991C239.626 78.8042 239.383 78.1343 239.383 74.6632V66.8682C239.383 62.9098 238.225 61.631 235.181 61.631H232.866V79.9004H226.168ZM232.866 55.5412H235.302C237.799 55.5412 239.322 54.445 239.322 51.0347V47.7462C239.322 44.7013 238.286 43.3616 235.911 43.3616H232.866V55.5412ZM248.171 79.9004L255.114 37.2718H264.187L271.13 79.9004H264.431L263.213 71.4356V71.5574H255.601L254.383 79.9004H248.171ZM256.393 65.772H262.421L259.437 44.7013H259.316L256.393 65.772ZM273.588 79.9004V37.2718H281.992L288.508 62.788H288.63V37.2718H294.598V79.9004H287.717L279.678 48.7815H279.556V79.9004H273.588ZM304.022 79.9004V43.3616H297.019V37.2718H317.724V43.3616H310.721V79.9004H304.022Z" fill="white"></path></g><defs><clipPath id="clip0_5236_1225"><rect width="318" height="98" fill="white"></rect></clipPath></defs></svg>