<svg xmlns="http://www.w3.org/2000/svg" width="174" height="174" viewBox="0 0 174 174" fill="none"><g clip-path="url(#clip0_5169_1092)"><path fill-rule="evenodd" clip-rule="evenodd" d="M118.373 168.689V96.4928C118.373 89.641 117.898 83.6196 116.948 78.4286C116.068 73.2298 114.503 68.8885 112.255 65.4047C110.077 61.8668 107.068 59.2133 103.229 57.4444C99.39 55.6136 94.5195 54.6982 88.6179 54.6982C82.2373 54.6982 77.0115 55.6716 72.9406 57.6182C68.9237 59.5107 65.7952 62.1951 63.555 65.6712C61.3689 69.155 59.8317 73.3187 58.9434 78.1621C58.1168 82.9977 57.7036 88.3394 57.7036 94.187V98.0802H77.9925V92.8545C77.9925 87.8952 78.2281 83.8513 78.6993 80.7228C79.1705 77.5402 80.113 75.2112 81.5266 73.7358C83.002 72.1986 85.1881 71.43 88.0849 71.43C91.0357 71.43 93.1909 72.1677 94.5504 73.6431C95.91 75.1185 96.7636 77.4514 97.1112 80.6417C97.4665 83.7702 97.6442 87.9299 97.6442 93.121V103.932C91.503 106.288 85.8949 108.528 80.8198 110.652C75.7446 112.722 71.3454 115.086 67.6221 117.743C63.9065 120.401 61.0445 123.796 59.0361 127.929C57.0276 131.999 56.0234 137.221 56.0234 143.594V154.66C56.0541 160.119 56.5142 165.017 57.4035 169.352C23.8974 157.263 0 125.214 0 87.5L2.74092e-06 87.4779C0.0119198 39.3867 38.8823 0.511585 86.9785 0.500003L87 0.5C135.113 0.5 174 39.3915 174 87.5C174 124.543 150.944 156.122 118.373 168.689ZM93.5771 171.137C91.5069 173.199 88.9384 174.23 85.8717 174.23C82.3261 174.23 79.9044 172.697 78.6066 169.63C77.3089 166.556 76.66 161.597 76.66 154.753V141.288C76.66 137.75 76.9844 134.8 77.6333 132.436C78.2822 130.018 79.3752 127.952 80.9125 126.237C82.5038 124.53 84.6589 122.938 87.378 121.463C90.0894 119.926 93.5115 118.211 97.6442 116.318V164.845C97.0571 166.969 95.7014 169.066 93.5771 171.137Z" fill="url(#paint0_linear_5169_1092)"></path></g><defs><linearGradient id="paint0_linear_5169_1092" x1="52.6069" y1="6.7658" x2="117.831" y2="166.989" gradientUnits="userSpaceOnUse"><stop stop-color="#EBFF00"></stop><stop offset="0.571981" stop-color="#EBFF00"></stop><stop offset="0.575046" stop-color="white"></stop><stop offset="1" stop-color="white"></stop></linearGradient><clipPath id="clip0_5169_1092"><rect width="174" height="174" fill="white"></rect></clipPath></defs></svg>