<svg xmlns="http://www.w3.org/2000/svg" width="284" height="108" viewBox="0 0 284 108" fill="none"><path d="M100.923 75.4575H92.0586V24.5742H111.584C114.357 24.5742 116.856 25.2641 119.082 26.6439C121.321 28.0367 123.091 29.8916 124.393 32.2087C125.707 34.5127 126.365 37.0705 126.365 39.8822C126.365 42.1862 125.942 44.3079 125.096 46.2474C124.263 48.1609 123.098 49.8206 121.601 51.2264C120.117 52.6323 118.405 53.6931 116.465 54.4091L128.649 75.4575H118.437L106.644 55.2096H100.923V75.4575ZM100.923 32.2282V46.3646H110.569C111.831 46.3646 112.983 46.0457 114.025 45.4078C115.066 44.783 115.906 43.9369 116.543 42.8695C117.168 41.8022 117.481 40.6111 117.481 39.2964C117.481 37.9687 117.168 36.7711 116.543 35.7037C115.906 34.6363 115.066 33.7902 114.025 33.1654C112.983 32.5406 111.831 32.2282 110.569 32.2282H100.923ZM146.593 76.4142C143.248 76.4142 140.189 75.5551 137.416 73.8369C134.683 72.1056 132.489 69.7886 130.836 66.8858C129.209 63.983 128.395 60.7744 128.395 57.2598C128.395 54.6173 128.871 52.1441 129.821 49.8401C130.758 47.5231 132.053 45.4925 133.706 43.7482C135.386 41.9779 137.325 40.5916 139.525 39.5893C141.738 38.6 144.094 38.1053 146.593 38.1053C149.431 38.1053 152.028 38.7106 154.384 39.9212C156.753 41.1057 158.764 42.7394 160.417 44.8221C162.07 46.9048 163.274 49.2804 164.029 51.9489C164.771 54.6173 164.94 57.403 164.537 60.3057H137.924C138.262 61.6595 138.822 62.8831 139.603 63.9765C140.384 65.0439 141.367 65.903 142.551 66.5539C143.736 67.1917 145.083 67.5236 146.593 67.5497C148.142 67.5627 149.548 67.1982 150.811 66.4563C152.099 65.6752 153.167 64.6339 154.013 63.3322L163.073 65.4409C161.589 68.6561 159.382 71.2921 156.453 73.3487C153.512 75.3924 150.225 76.4142 146.593 76.4142ZM137.631 53.6671H155.536C155.275 52.2092 154.709 50.901 153.837 49.7425C152.991 48.5449 151.937 47.5947 150.674 46.8918C149.411 46.1889 148.051 45.8374 146.593 45.8374C145.135 45.8374 143.788 46.1889 142.551 46.8918C141.315 47.5817 140.26 48.5189 139.388 49.7034C138.542 50.8619 137.956 52.1832 137.631 53.6671ZM178.947 76.1213C177.046 76.0042 175.211 75.6267 173.441 74.9889C171.696 74.338 170.147 73.4529 168.794 72.3334C167.427 71.227 166.379 69.8992 165.65 68.3502L173.148 65.1481C173.447 65.6297 173.922 66.1504 174.573 66.7101C175.224 67.2438 175.998 67.6929 176.897 68.0573C177.821 68.4218 178.83 68.604 179.923 68.604C180.847 68.604 181.719 68.4804 182.539 68.2331C183.386 67.9597 184.069 67.5627 184.59 67.042C185.123 66.5083 185.39 65.8119 185.39 64.9528C185.39 64.0676 185.071 63.3777 184.433 62.8831C183.822 62.3754 183.047 62.0045 182.11 61.7701C181.186 61.4968 180.287 61.2495 179.415 61.0282C177.111 60.5726 174.964 59.8632 172.972 58.8999C171.006 57.9236 169.418 56.674 168.208 55.151C167.023 53.602 166.431 51.7341 166.431 49.5472C166.431 47.1521 167.056 45.0824 168.305 43.3382C169.594 41.5939 171.26 40.2466 173.304 39.2964C175.361 38.3592 177.58 37.8906 179.962 37.8906C182.852 37.8906 185.494 38.4958 187.889 39.7064C190.311 40.891 192.231 42.5767 193.649 44.7635L186.62 48.9029C186.282 48.3171 185.807 47.7834 185.195 47.3018C184.596 46.7942 183.906 46.3841 183.125 46.0717C182.344 45.7333 181.531 45.538 180.684 45.4859C179.591 45.4339 178.595 45.5315 177.697 45.7788C176.799 46.0131 176.07 46.4232 175.51 47.0089C174.977 47.5947 174.71 48.3692 174.71 49.3325C174.71 50.2567 175.074 50.9466 175.803 51.4021C176.532 51.8447 177.411 52.1832 178.439 52.4175C179.48 52.6648 180.47 52.9316 181.407 53.218C183.542 53.9209 185.546 54.78 187.421 55.7954C189.308 56.8237 190.825 58.0733 191.97 59.5443C193.103 61.0282 193.649 62.7985 193.61 64.8552C193.61 67.1982 192.907 69.2549 191.502 71.0252C190.083 72.7695 188.26 74.1037 186.034 75.0279C183.822 75.9521 181.459 76.3166 178.947 76.1213ZM212.238 76.4142C208.892 76.4142 205.833 75.5551 203.061 73.8369C200.327 72.1056 198.134 69.8016 196.481 66.9249C194.853 64.0221 194.04 60.8134 194.04 57.2988C194.04 54.6304 194.515 52.1441 195.465 49.8401C196.402 47.5231 197.698 45.4925 199.351 43.7482C201.03 41.9779 202.97 40.5916 205.169 39.5893C207.382 38.6 209.738 38.1053 212.238 38.1053C215.583 38.1053 218.629 38.9645 221.375 40.6827C224.135 42.4009 226.328 44.7179 227.956 47.6337C229.609 50.5365 230.435 53.7582 230.435 57.2988C230.435 59.9413 229.96 62.408 229.01 64.699C228.06 67.003 226.751 69.0401 225.085 70.8104C223.432 72.5547 221.499 73.9215 219.286 74.9108C217.112 75.9131 214.763 76.4142 212.238 76.4142ZM212.238 67.5497C214.008 67.5497 215.596 67.0746 217.002 66.1243C218.408 65.1741 219.514 63.9245 220.321 62.3754C221.141 60.8264 221.551 59.1342 221.551 57.2988C221.551 55.4114 221.128 53.6866 220.282 52.1246C219.449 50.5495 218.316 49.3064 216.885 48.3952C215.479 47.445 213.93 46.9699 212.238 46.9699C210.493 46.9699 208.918 47.445 207.512 48.3952C206.094 49.3325 204.974 50.5886 204.154 52.1636C203.334 53.7387 202.924 55.4504 202.924 57.2988C202.924 59.2123 203.347 60.9436 204.193 62.4926C205.039 64.0416 206.165 65.2782 207.571 66.2024C209.003 67.1006 210.558 67.5497 212.238 67.5497ZM241.701 75.4575H232.837L232.798 39.1207H241.662L241.701 42.3619C242.938 41.0472 244.422 40.0188 246.153 39.2769C247.871 38.4958 249.726 38.1053 251.718 38.1053C253.046 38.1053 254.38 38.3006 255.721 38.6911L252.226 47.6337C251.301 47.2693 250.377 47.087 249.453 47.087C248.021 47.087 246.713 47.4385 245.528 48.1414C244.37 48.8183 243.439 49.749 242.736 50.9335C242.046 52.092 241.701 53.3872 241.701 54.8191V75.4575ZM279.581 39.1207V47.9852H272.532V75.4575H263.648V47.9852H258.259V39.1207H263.648V27.7178H272.532V39.1207H279.581Z" fill="#232323"></path><path fill-rule="evenodd" clip-rule="evenodd" d="M72.1445 30.8668V72.5241L36.083 93.3634L0 72.5241V30.8668L36.083 10.0488L72.1445 30.8668ZM36.0615 15.2158L6.71062 32.1531L13.1211 35.8622L36.0615 22.6125L61.2532 37.1486V63.648L67.6636 67.3357V33.461L36.0615 15.2158ZM4.45945 57.1947L47.1887 81.7431L54.5211 77.4981L4.45945 48.1471V57.1947ZM58.9806 74.9468L65.4125 71.2377L4.45945 36.0552V42.9587L58.9806 74.9468ZM56.7508 39.7642L36.0615 27.8009L17.5805 38.4778L23.991 42.1655L36.0615 35.1976L50.3618 43.4519V57.3876L56.7508 61.0753V39.7642ZM45.8809 46.0461L36.0615 40.386L28.4719 44.7597L45.8809 54.8149V46.0461ZM36.0615 88.1965L42.7078 84.3588L4.45945 62.3831V69.9513L36.0615 88.1965Z" fill="#B28C4C"></path></svg>