<svg xmlns="http://www.w3.org/2000/svg" width="322" height="72" viewBox="0 0 322 72" fill="none"><g clip-path="url(#clip0_5195_1046)"><path d="M86.6 63.0001H77V12.6001H98.3C98.7667 12.6001 99.4333 12.6334 100.3 12.7001C101.1 12.7001 101.833 12.7668 102.5 12.9001C105.5 13.3668 107.967 14.3334 109.9 15.8001C111.833 17.3334 113.267 19.2668 114.2 21.6001C115.067 23.8668 115.5 26.4001 115.5 29.2001C115.5 32.0668 115.033 34.6668 114.1 37.0001C113.233 39.2668 111.833 41.1668 109.9 42.7001C107.967 44.1668 105.5 45.1334 102.5 45.6001C101.833 45.7334 101.1 45.8001 100.3 45.8001C99.4333 45.8668 98.7667 45.9001 98.3 45.9001H86.6V63.0001ZM86.6 21.5001V37.0001H97.9C98.3667 37.0001 98.9 37.0001 99.5 37.0001C100.1 36.9334 100.633 36.8334 101.1 36.7001C102.367 36.3668 103.367 35.7668 104.1 34.9001C104.767 34.1001 105.233 33.2001 105.5 32.2001C105.767 31.1334 105.9 30.1668 105.9 29.3001C105.9 28.3668 105.767 27.4001 105.5 26.4001C105.233 25.4001 104.767 24.4668 104.1 23.6001C103.367 22.8001 102.367 22.2001 101.1 21.8001C100.633 21.6668 100.1 21.6001 99.5 21.6001C98.9 21.5334 98.3667 21.5001 97.9 21.5001H86.6ZM130.4 63.0001H120.8V25.2001H129.2V34.4001L128.3 33.3001C128.767 31.9668 129.4 30.7668 130.2 29.7001C131.067 28.6334 132.1 27.7334 133.3 27.0001C134.167 26.4668 135.133 26.0334 136.2 25.7001C137.267 25.3668 138.367 25.1668 139.5 25.1001C140.7 25.0334 141.867 25.0668 143 25.2001V34.1001C141.933 33.7668 140.7 33.6668 139.3 33.8001C137.9 33.8668 136.667 34.1668 135.6 34.7001C134.467 35.2334 133.5 35.9334 132.7 36.8001C131.967 37.6668 131.4 38.6668 131 39.8001C130.6 40.9334 130.4 42.2334 130.4 43.7001V63.0001ZM164.2 64.0001C160.4 64.0001 157.067 63.1668 154.2 61.5001C151.333 59.7668 149.1 57.4001 147.5 54.4001C145.9 51.4001 145.1 47.9668 145.1 44.1001C145.1 40.1668 145.9 36.7001 147.5 33.7001C149.167 30.7001 151.433 28.3334 154.3 26.6001C157.167 24.9334 160.467 24.1001 164.2 24.1001C168 24.1001 171.333 24.9668 174.2 26.7001C177.067 28.3668 179.3 30.7334 180.9 33.8001C182.5 36.7334 183.3 40.1668 183.3 44.1001C183.3 48.0334 182.5 51.5001 180.9 54.5001C179.3 57.5001 177.033 59.8334 174.1 61.5001C171.233 63.1668 167.933 64.0001 164.2 64.0001ZM164.2 55.1001C167.267 55.1001 169.533 54.1001 171 52.1001C172.533 49.9668 173.3 47.3001 173.3 44.1001C173.3 40.7001 172.533 38.0001 171 36.0001C169.467 34.0001 167.2 33.0001 164.2 33.0001C162.133 33.0001 160.433 33.4668 159.1 34.4001C157.767 35.3334 156.767 36.6334 156.1 38.3001C155.433 39.9668 155.1 41.9001 155.1 44.1001C155.1 47.5001 155.867 50.2001 157.4 52.2001C158.933 54.1334 161.2 55.1001 164.2 55.1001ZM217.1 63.0001H189.7V15.5001H194.5V58.3001H217.1V63.0001ZM231.2 64.0001C228.533 64.0001 226.267 63.5334 224.4 62.6001C222.6 61.6001 221.267 60.3001 220.4 58.7001C219.467 57.1001 219 55.3668 219 53.5001C219 51.5668 219.4 49.9001 220.2 48.5001C221 47.1001 222.067 45.9668 223.4 45.1001C224.733 44.2334 226.3 43.5668 228.1 43.1001C229.9 42.6334 231.9 42.2334 234.1 41.9001C236.3 41.5668 238.433 41.3001 240.5 41.1001C242.633 40.8334 244.467 40.5668 246 40.3001L244.3 41.4001C244.367 37.8668 243.7 35.2334 242.3 33.5001C240.833 31.8334 238.333 31.0001 234.8 31.0001C232.4 31.0001 230.333 31.5334 228.6 32.6001C226.933 33.7334 225.767 35.5001 225.1 37.9001L220.4 36.5001C221.2 33.3001 222.833 30.8001 225.3 29.0001C227.767 27.2668 230.967 26.4001 234.9 26.4001C238.167 26.4001 240.933 27.0334 243.2 28.3001C245.467 29.5001 247.067 31.2334 248 33.5001C248.467 34.5668 248.767 35.7334 248.9 37.0001C249.033 38.2668 249.1 39.5668 249.1 40.9001V63.0001H244.7V54.1001L246 54.6001C244.8 57.6668 242.933 60.0001 240.4 61.6001C237.8 63.2001 234.733 64.0001 231.2 64.0001ZM231.8 59.8001C234.067 59.8001 236.033 59.4001 237.7 58.6001C239.367 57.8001 240.733 56.7001 241.8 55.3001C242.8 53.8334 243.467 52.2334 243.8 50.5001C244.067 49.3001 244.2 48.0334 244.2 46.7001C244.267 45.3001 244.3 44.2668 244.3 43.6001L246.1 44.6001C244.433 44.8001 242.633 45.0001 240.7 45.2001C238.833 45.4001 236.967 45.6668 235.1 46.0001C233.233 46.2668 231.533 46.6001 230 47.0001C229 47.2668 228.033 47.6668 227.1 48.2001C226.167 48.7334 225.4 49.4334 224.8 50.3001C224.2 51.1668 223.9 52.2334 223.9 53.5001C223.9 54.5001 224.133 55.5001 224.6 56.5001C225.133 57.4334 225.967 58.2334 227.1 58.9001C228.3 59.5001 229.867 59.8001 231.8 59.8001ZM285.3 63.0001H280.4V44.9001C280.4 42.9001 280.2 41.0668 279.8 39.4001C279.467 37.7334 278.867 36.3001 278 35.1001C277.2 33.8334 276.133 32.8334 274.8 32.1001C273.533 31.4334 271.967 31.1001 270.1 31.1001C268.367 31.1001 266.833 31.4001 265.5 32.0001C264.233 32.6001 263.133 33.4668 262.2 34.6001C261.333 35.6668 260.667 37.0001 260.2 38.6001C259.733 40.2001 259.5 42.0001 259.5 44.0001L256.1 43.3001C256.1 39.6334 256.733 36.5668 258 34.1001C259.267 31.5668 261.033 29.6668 263.3 28.4001C265.5 27.1334 268.067 26.5001 271 26.5001C273.133 26.5001 275 26.8334 276.6 27.5001C278.2 28.1668 279.533 29.0668 280.6 30.2001C281.733 31.2668 282.633 32.5334 283.3 34.0001C283.967 35.4668 284.467 37.0001 284.8 38.6001C285.133 40.2001 285.3 41.8001 285.3 43.4001V63.0001ZM259.5 63.0001H254.6V27.4001H259V36.2001H259.5V63.0001ZM303.8 64.0001C300.467 64.0001 297.633 63.1668 295.3 61.5001C292.967 59.8334 291.167 57.5668 289.9 54.7001C288.633 51.9001 288 48.7001 288 45.1001C288 41.5668 288.6 38.3668 289.8 35.5001C291.067 32.7001 292.867 30.4668 295.2 28.8001C297.533 27.1334 300.333 26.3001 303.6 26.3001C306.933 26.3001 309.733 27.1334 312 28.8001C314.333 30.4001 316.067 32.6334 317.2 35.5001C318.4 38.3001 319 41.5001 319 45.1001C319 48.6334 318.4 51.8334 317.2 54.7001C316.067 57.5668 314.367 59.8334 312.1 61.5001C309.833 63.1668 307.067 64.0001 303.8 64.0001ZM304.3 59.4001C306.833 59.4001 308.9 58.8001 310.5 57.6001C312.167 56.3334 313.4 54.6334 314.2 52.5001C315.067 50.3001 315.5 47.8334 315.5 45.1001C315.5 42.3001 315.067 39.8334 314.2 37.7001C313.4 35.5668 312.167 33.9001 310.5 32.7001C308.9 31.5001 306.867 30.9001 304.4 30.9001C301.867 30.9001 299.767 31.5001 298.1 32.7001C296.367 33.9668 295.1 35.7001 294.3 37.9001C293.5 40.0334 293.1 42.4334 293.1 45.1001C293.1 47.8334 293.533 50.2668 294.4 52.4001C295.2 54.6001 296.433 56.3334 298.1 57.6001C299.767 58.8001 301.833 59.4001 304.3 59.4001ZM319.8 63.0001H315.5V36.1001H314.9V15.5001H319.8V63.0001Z" fill="#232323"></path><path d="M12.0673 5.57568C11.8039 5.57568 11.5405 5.59032 11.2771 5.61959C11.0137 5.64885 10.7576 5.69276 10.5088 5.75129C10.26 5.82446 10.0112 5.90495 9.76244 5.99276C9.51366 6.0952 9.2722 6.21227 9.03805 6.34398C6.75513 7.66105 5.50391 10.6684 5.50391 14.7732V50.1367C5.50391 53.7586 6.51366 56.5684 8.31366 58.083C8.53317 58.244 8.76 58.3976 8.99415 58.544C9.2283 58.6757 9.46976 58.7928 9.71854 58.8952C9.96732 59.0123 10.2234 59.1001 10.4868 59.1586C10.7649 59.2171 11.0356 59.2611 11.299 59.2903V31.5879C11.299 26.4513 13.1868 22.544 16.6112 20.5903C20.0137 18.6147 24.3381 18.922 28.7722 21.4903L31.1868 22.8732C33.1185 23.9928 34.5015 26.4074 34.5015 28.6464V43.1342C34.5015 44.6269 34.9185 45.7464 35.5771 46.1415C36.2576 46.5367 37.4429 46.3172 38.7381 45.5708L48.7478 39.7537C49.0112 39.6074 49.2746 39.4464 49.5381 39.2708C49.8015 39.1098 50.0576 38.9342 50.3063 38.744C50.5551 38.5684 50.8039 38.3781 51.0527 38.1732C51.2868 37.9684 51.521 37.7635 51.7551 37.5586C51.7698 37.544 51.7844 37.522 51.799 37.4928C51.8283 37.4781 51.8503 37.4562 51.8649 37.4269C51.8795 37.4123 51.9015 37.3976 51.9307 37.383C51.9454 37.3537 51.9673 37.3318 51.9966 37.3171C53.4893 35.8025 54.2795 34.1342 54.2795 32.4659C54.2795 29.8318 52.3259 27.2415 48.7478 25.1781L18.1259 7.48544C15.9307 6.21227 13.8673 5.57568 12.0673 5.57568Z" fill="#FCC4E8"></path><path fill-rule="evenodd" clip-rule="evenodd" d="M57.5697 39.3148C59.2599 41.466 60.0502 43.9026 59.8307 46.3831C59.5014 49.9831 57.0648 53.2977 52.9819 55.6465L28.7697 69.6294C26.2453 71.0782 23.7648 71.8026 21.4599 71.8026C21.0355 71.8172 20.6185 71.7953 20.2087 71.7367C19.7843 71.6928 19.3672 71.6124 18.9575 71.4953C18.5331 71.3928 18.1307 71.2611 17.7502 71.1002C17.355 70.9392 16.9672 70.7489 16.5868 70.5294C14.5014 69.3221 12.9868 67.3904 12.1307 64.9099H12.0868C9.3209 64.9099 6.79651 64.0319 4.777 62.3855C1.63798 59.7953 -0.0742188 55.4489 -0.0742188 50.1367V14.7733C-0.0742188 8.58309 2.16481 3.86358 6.24773 1.51479C10.3307 -0.833986 15.555 -0.438864 20.9111 2.65626L51.5331 20.3489C56.9111 23.4441 59.8526 27.7465 59.8526 32.466C59.8526 34.9026 59.0843 37.2075 57.5697 39.3148ZM54.2551 45.1977C54.2404 44.9636 54.2038 44.7367 54.1453 44.5172C54.0721 44.2977 53.9916 44.0782 53.9038 43.8587C53.8014 43.6538 53.6843 43.4563 53.5526 43.266C53.3916 43.3831 53.2307 43.5002 53.0697 43.6172C52.8941 43.7343 52.7258 43.8441 52.5648 43.9465C52.3892 44.0636 52.2209 44.1733 52.0599 44.2758C51.8843 44.3782 51.7087 44.4807 51.5331 44.5831L41.5233 50.3782C38.4282 52.1782 35.2453 52.3758 32.7868 50.9709C30.3502 49.5441 28.9233 46.6904 28.9233 43.1343V28.6465C28.9087 28.5587 28.8868 28.4709 28.8575 28.3831C28.8282 28.2953 28.7916 28.2148 28.7477 28.1416C28.6892 28.0538 28.6307 27.9733 28.5721 27.9002C28.5136 27.827 28.455 27.7611 28.3965 27.7026L25.9819 26.3197C24.3575 25.3758 22.799 24.8928 21.4819 24.8928C21.2916 24.8928 21.1087 24.9002 20.9331 24.9148C20.7429 24.9441 20.5599 24.9806 20.3843 25.0246C20.2087 25.0538 20.0404 25.105 19.8794 25.1782C19.7038 25.2514 19.5355 25.3319 19.3746 25.4197C17.7941 26.3197 16.8721 28.5806 16.8721 31.588V59.5319C16.8721 62.5392 17.7941 64.7782 19.3746 65.7002C20.977 66.6221 23.3916 66.2928 25.9819 64.8002L50.1941 50.8172C52.6746 49.3904 54.1233 47.6343 54.277 45.8782C54.2916 45.6441 54.2843 45.4172 54.2551 45.1977ZM54.299 32.466C54.299 29.8319 52.3233 27.2416 48.7453 25.1782L18.1233 7.48553C15.9282 6.21236 13.8648 5.57577 12.0648 5.57577C11.8014 5.57577 11.538 5.5904 11.2746 5.61967C11.0111 5.64894 10.755 5.69284 10.5063 5.75138C10.2575 5.82455 10.0087 5.90504 9.75993 5.99284C9.51115 6.09528 9.26968 6.21236 9.03554 6.34406C6.75261 7.66114 5.50139 10.6685 5.50139 14.7733V50.1367C5.50139 53.7587 6.51115 56.5685 8.31115 58.0831C8.53066 58.2441 8.75749 58.3977 8.99163 58.5441C9.22578 58.6758 9.46724 58.7928 9.71602 58.8953C9.96481 59.0124 10.2282 59.1002 10.5063 59.1587C10.7697 59.2172 11.0331 59.2611 11.2965 59.2904V31.588C11.2965 26.4514 13.1843 22.5441 16.6087 20.5904C20.0111 18.6148 24.3355 18.9221 28.7697 21.4904L31.1843 22.8733C33.116 23.9928 34.499 26.4075 34.499 28.6465V43.1343C34.499 44.627 34.916 45.7465 35.5746 46.1416C36.255 46.5367 37.4404 46.3172 38.7355 45.5709L48.7453 39.7538C49.0087 39.6075 49.2721 39.4465 49.5355 39.2709C49.799 39.1099 50.055 38.9343 50.3038 38.7441C50.5526 38.5685 50.8014 38.3782 51.0502 38.1733C51.2843 37.9685 51.5185 37.7636 51.7526 37.5587C51.7672 37.5441 51.7819 37.5221 51.7965 37.4928C51.8258 37.4782 51.8477 37.4563 51.8624 37.427C51.877 37.4124 51.8989 37.3977 51.9282 37.3831C51.9429 37.3538 51.9648 37.3319 51.9941 37.3172C53.4868 35.8026 54.277 34.1343 54.299 32.466Z" fill="url(#paint0_linear_5195_1046)"></path></g><defs><linearGradient id="paint0_linear_5195_1046" x1="38.7526" y1="12.9691" x2="3.54886" y2="61.0482" gradientUnits="userSpaceOnUse"><stop stop-color="#EB0093"></stop><stop offset="1" stop-color="#8900E0"></stop></linearGradient><clipPath id="clip0_5195_1046"><rect width="322" height="72" fill="white"></rect></clipPath></defs></svg>