<svg xmlns="http://www.w3.org/2000/svg" width="384" height="80" viewBox="0 0 384 80" fill="none"><path d="M151.001 62H159.901V41.1C159.901 31.3 153.901 25.9 145.401 25.9C140.201 25.9 135.501 28.7 133.201 32.7C130.801 28.3 126.201 25.9 120.701 25.9C116.301 25.9 112.501 27.8 110.301 30.7V26.4H101.301V62H110.301V42.3C110.301 36.7 113.401 33.7 118.301 33.7C123.001 33.7 126.201 36.7 126.201 42.3V62H135.201V42.3C135.201 36.7 138.301 33.7 143.101 33.7C147.801 33.7 151.001 36.7 151.001 42.3V62ZM182.401 33.3C187.001 33.3 190.801 36.2 190.901 40.9H174.001C174.701 36 178.101 33.3 182.401 33.3ZM199.301 50.9H189.601C188.501 53.2 186.301 55.2 182.501 55.2C178.001 55.2 174.401 52.2 174.001 46.9H199.901C200.101 45.8 200.201 44.6 200.201 43.5C200.201 32.9 192.901 25.9 182.701 25.9C172.201 25.9 164.901 33 164.901 44.2C164.901 55.4 172.401 62.6 182.701 62.6C191.501 62.6 197.401 57.4 199.301 50.9ZM203.101 44.1C203.101 55.2 210.301 62.6 219.301 62.6C224.901 62.6 228.901 60 231.001 56.8V62H240.101V14.5H231.001V31.4C228.601 28.1 224.101 25.9 219.401 25.9C210.301 25.9 203.101 33 203.101 44.1ZM231.101 44.2C231.101 51 226.601 54.7 221.601 54.7C216.801 54.7 212.301 50.9 212.301 44.1C212.301 37.4 216.801 33.8 221.601 33.8C226.601 33.8 231.101 37.5 231.101 44.2ZM245.901 44.4C245.901 55.5 253.001 62.6 263.001 62.6C271.701 62.6 277.401 57.7 279.201 50.7H273.001C271.701 55.2 268.201 57.7 263.001 57.7C256.601 57.7 251.901 53.1 251.901 44.4C251.901 35.8 256.601 31.2 263.001 31.2C268.201 31.2 271.701 33.9 273.001 38.1H279.201C277.401 30.7 271.701 26.3 263.001 26.3C253.001 26.3 245.901 33.3 245.901 44.4ZM283.501 44.3C283.501 55.2 290.801 62.6 300.101 62.6C306.601 62.6 311.101 59.3 313.301 55.5V62H319.201V26.8H313.301V33.3C311.201 29.6 306.701 26.3 300.201 26.3C290.801 26.3 283.501 33.3 283.501 44.3ZM313.301 44.4C313.301 52.7 307.801 57.5 301.301 57.5C294.901 57.5 289.501 52.6 289.501 44.3C289.501 36 294.901 31.3 301.301 31.3C307.801 31.3 313.301 36.2 313.301 44.4ZM333.601 42.9C333.601 34.7 337.801 32.2 343.401 32.2H344.901V26.2C339.301 26.2 335.601 28.6 333.601 32.5V26.8H327.701V62H333.601V42.9ZM365.301 31.2C371.301 31.2 376.401 35 376.401 41.9H354.201C354.801 35 359.601 31.2 365.301 31.2ZM381.701 51.2H375.401C374.101 55 370.801 57.7 365.501 57.7C359.601 57.7 354.601 53.8 354.101 46.7H382.201C382.301 45.4 382.401 44.4 382.401 43.1C382.401 33.5 375.701 26.3 365.501 26.3C355.301 26.3 348.201 33.3 348.201 44.4C348.201 55.6 355.501 62.7 365.501 62.7C374.301 62.7 379.901 57.7 381.701 51.2Z" fill="#303334"></path><path d="M40 0C62.1 0 80 17.9 80 40C80 62.1 62.1 80 40 80C17.9 80 0 62.1 0 40C0 17.9 17.9 0 40 0Z" fill="#18BCC7"></path><path fill-rule="evenodd" clip-rule="evenodd" d="M46.3586 21.1087C46.3586 20.2827 46.179 19.4566 45.8917 18.6664C45.5685 17.9121 45.1016 17.1938 44.491 16.6191C43.9164 16.0445 43.1981 15.5776 42.4438 15.2543C41.6537 14.931 40.8276 14.7515 40.0016 14.7515C39.9537 14.7515 39.9058 14.7515 39.8579 14.7515H33.6445V21.0728C33.6445 21.0968 33.6445 21.1087 33.6445 21.1087V33.7515C42.3361 33.4641 45.8558 28.6154 46.3227 21.0728L46.3586 21.1087Z" fill="white"></path><path fill-rule="evenodd" clip-rule="evenodd" d="M46.3586 58.8913V46.249C37.703 46.5363 34.1833 51.3849 33.6804 58.9272L33.6445 58.8913C33.6445 59.7533 33.8241 60.5793 34.1473 61.3335C34.4706 62.1237 34.9375 62.8061 35.5121 63.3807C36.1227 63.9913 36.8051 64.4582 37.5952 64.7814C38.3495 65.1047 39.1755 65.2483 40.0016 65.2483C40.0495 65.2483 40.0973 65.2483 40.1452 65.2483H46.3586V58.9272C46.3586 58.9272 46.3586 58.9152 46.3586 58.8913Z" fill="white"></path><path fill-rule="evenodd" clip-rule="evenodd" d="M46.322 21.0723C45.8551 28.6145 42.3354 33.4631 33.6438 33.7504H21.0016C20.1755 33.7504 19.3495 33.93 18.5593 34.2533C17.8051 34.5765 17.0868 35.0434 16.5121 35.618C15.9375 36.2286 15.4706 36.911 15.1473 37.7011C14.8241 38.4554 14.6445 39.2814 14.6445 40.1075C14.6445 40.1314 14.6445 40.1434 14.6445 40.1434V46.4645H20.8579C20.9058 46.4645 20.9537 46.4645 21.0016 46.4645H23.1565C26.2093 46.4645 29.2262 45.854 32.0276 44.7047C34.829 43.5195 37.415 41.8314 39.5699 39.6765C41.7248 37.5216 43.4128 34.9716 44.5981 32.1342C45.7473 29.3328 46.3579 26.3159 46.3579 23.2631V21.1082L46.322 21.0723Z" fill="white"></path><path fill-rule="evenodd" clip-rule="evenodd" d="M65.3579 33.5352H59.1804C59.1086 33.5352 59.0488 33.5352 59.0009 33.5352H56.8819C53.829 33.5352 50.8121 34.1457 47.9748 35.295C45.1734 36.4802 42.6234 38.1683 40.4685 40.3591C38.3135 42.514 36.5896 45.064 35.4044 47.8654C34.2551 50.7028 33.6445 53.7197 33.6445 56.7725V58.8915L33.6804 58.9274C34.1833 51.3852 37.703 46.5366 46.3586 46.2492H59.0009C59.8628 46.2492 60.6889 46.0697 61.4431 45.7823C62.2333 45.4591 62.9157 44.9922 63.4903 44.3816C64.1009 43.807 64.5678 43.0887 64.891 42.3345C65.2142 41.5443 65.3579 40.7183 65.3579 39.8922C65.3579 39.8922 65.3579 39.8802 65.3579 39.8563V33.5352Z" fill="white"></path></svg>