<svg xmlns="http://www.w3.org/2000/svg" width="120" height="120" viewBox="0 0 120 120" fill="none"><path fill-rule="evenodd" clip-rule="evenodd" d="M81.5 117.045V65.8238C81.5 61.0984 81.1724 56.9457 80.5171 53.3657C79.9098 49.7804 78.831 46.7864 77.2807 44.3838C75.7784 41.9438 73.7034 40.1139 71.0557 38.8939C68.408 37.6313 65.049 37 60.9789 37C56.5785 37 52.9745 37.6713 50.167 39.0138C47.3967 40.319 45.2391 42.1702 43.6942 44.5676C42.1866 46.9702 41.1264 49.8417 40.5138 53.1819C39.9437 56.5169 39.6587 60.2008 39.6587 64.2336V66.9186H53.6511V63.3146C53.6511 59.8944 53.8136 57.1056 54.1385 54.948C54.4635 52.7531 55.1135 51.1469 56.0884 50.1293C57.1059 49.0692 58.6135 48.5391 60.6113 48.5391C62.6464 48.5391 64.1327 49.0479 65.0703 50.0654C66.008 51.0829 66.5966 52.6918 66.8364 54.892C67.0814 57.0496 67.204 59.9184 67.204 63.4984V70.9541C62.9687 72.579 59.101 74.1239 55.6009 75.5889C52.1008 77.0167 49.0669 78.6469 46.4991 80.4795C43.9366 82.3121 41.9628 84.6535 40.5777 87.5036C39.1926 90.3112 38.5 93.9125 38.5 98.3076V105.939C38.5247 110.325 38.951 114.184 39.7791 117.518C16.5716 109.234 0 87.0808 0 61C0 27.8217 26.8183 1 60 1C93.1817 1 120 27.8217 120 61C120 86.599 104.035 108.414 81.5 117.045ZM64.3991 117.302C62.9714 118.725 61.2 119.436 59.085 119.436C56.6398 119.436 54.9696 118.379 54.0746 116.264C53.1796 114.143 52.7321 110.723 52.7321 106.003V96.7174C52.7321 94.2774 52.9559 92.2423 53.4034 90.6122C53.8509 88.9447 54.6047 87.5196 55.6648 86.3369C56.7623 85.1596 58.2486 84.0621 60.1239 83.0446C61.9938 81.9845 64.3538 80.8018 67.204 79.4966V112.963C66.7991 114.428 65.8641 115.875 64.3991 117.302Z" fill="#191919"></path></svg>