<svg xmlns="http://www.w3.org/2000/svg" width="332" height="68" viewBox="0 0 332 68" fill="none"><path d="M44.4328 44.8484C45.9291 44.0725 47.467 43.3659 49.0465 42.7286C50.6259 42.119 52.2331 41.5925 53.868 41.1491C55.5306 40.7335 57.1932 40.3871 58.8557 40.11C60.5461 39.8606 62.2364 39.7082 63.9267 39.6528C62.846 35.2885 60.3521 31.3814 56.8191 28.5966C53.2861 25.8533 48.9218 24.3154 44.4328 24.3154C39.9438 24.3154 35.5379 25.8533 32.0049 28.5966C28.4719 31.3814 25.978 35.2885 24.9389 39.6528C26.6292 39.7082 28.3056 39.8606 29.9682 40.11C31.6585 40.3871 33.3211 40.7335 34.956 41.1491C36.5909 41.5925 38.198 42.119 39.7775 42.7286C41.3847 43.3659 42.9364 44.0725 44.4328 44.8484ZM5.98533 65.0489C6.59495 66.0464 7.23227 67.0302 7.89731 68C9.22738 66.6699 10.7653 65.5477 12.3863 64.6332C14.0489 63.7188 15.7946 63.0538 17.6235 62.555C19.4108 62.0978 21.2812 61.8484 23.1932 61.8484C25.0636 61.8484 26.934 62.0978 28.7628 62.5966C29.3447 61.5436 29.9821 60.5322 30.6748 59.5623C28.555 58.8973 26.3936 58.5232 24.1907 58.4401C21.9878 58.357 19.7848 58.5648 17.6235 59.022C15.4621 59.5208 13.3839 60.2689 11.4303 61.2665C9.47677 62.2641 7.64792 63.5526 5.98533 65.0489ZM1.78729 55.1565C4.32274 53.2445 7.14914 51.7066 10.1418 50.5428C13.0929 49.379 16.2518 48.6308 19.4108 48.2983C22.6112 47.9658 25.8117 48.0489 28.9707 48.5892C32.1296 49.088 35.2054 50.044 38.1149 51.3741C39.0848 50.5428 40.0823 49.7669 41.1076 49.0465C37.9902 47.4254 34.6235 46.22 31.1736 45.5134C27.7237 44.7653 24.1907 44.5159 20.6577 44.7237C17.1247 44.9731 13.6333 45.6797 10.3081 46.802C6.98288 47.9658 3.7824 49.5868 0.872861 51.5819C1.12225 52.8011 1.42706 53.9927 1.78729 55.1565ZM35.3301 53.9511C32.6699 52.8704 29.8851 52.1222 27.0587 51.7897C24.2323 51.4156 21.3227 51.4572 18.4963 51.8729C15.6699 52.2885 12.8851 53.0782 10.2665 54.2005C7.64792 55.3643 5.15403 56.8191 2.9511 58.6064C3.36675 59.7425 3.83782 60.8509 4.3643 61.9315C6.27628 60.2689 8.39609 58.8973 10.6822 57.7751C13.0098 56.6944 15.4205 55.9046 17.9144 55.4474C20.4083 54.9902 22.9438 54.8655 25.4792 55.0733C27.9731 55.2812 30.467 55.8215 32.8778 56.6528C33.6536 55.7107 34.4711 54.8101 35.3301 53.9511ZM41.2323 62.7628C42.2852 62.7351 43.3521 62.7213 44.4328 62.7213C44.9593 62.7213 45.4857 62.7213 46.0122 62.7213C48.5892 60.3521 51.5819 58.4401 54.8655 57.11C58.1076 55.7799 61.599 55.0733 65.0905 54.9902C68.6235 54.9071 72.1149 55.489 75.4401 56.6528C78.7653 57.8582 81.7995 59.6455 84.5012 61.9315C85 60.8509 85.4711 59.7425 85.9144 58.6064C82.6724 56.0293 78.9731 54.0758 74.9829 52.912C71.0342 51.7066 66.8777 51.291 62.7213 51.665C58.6064 52.0807 54.6161 53.2445 50.9169 55.1149C47.2176 57.0269 43.934 59.6039 41.2323 62.7628ZM32.2958 63.3447C33.7368 63.1785 35.2054 63.0538 36.7017 62.9707C39.445 59.1051 42.978 55.8631 47.0098 53.3692C51.0416 50.9169 55.5721 49.2543 60.2689 48.5061C64.9242 47.7995 69.7457 48.0073 74.3178 49.1711C78.9315 50.2934 83.2543 52.3301 87.0782 55.1565C87.4108 53.9927 87.7017 52.8011 87.9511 51.5819C83.5868 48.5477 78.6406 46.4694 73.4034 45.4303C68.2078 44.3912 62.8044 44.3912 57.6088 45.5134C52.4132 46.5941 47.467 48.7555 43.1443 51.8313C38.78 54.9071 35.0807 58.8142 32.2958 63.3447ZM51.291 62.9291C53.3969 63.0399 55.4751 63.2062 57.5257 63.4279C59.4792 62.6797 61.5159 62.1809 63.6357 61.9731C65.7139 61.7653 67.8337 61.8484 69.912 62.2641C71.9902 62.6797 73.9853 63.3447 75.8557 64.3423C77.7262 65.2983 79.4303 66.5452 80.9682 68C81.6333 67.0302 82.2567 66.0464 82.8386 65.0489C80.7188 63.0954 78.3081 61.5574 75.6895 60.4352C73.0709 59.3545 70.2861 58.6895 67.4181 58.4817C64.5917 58.2738 61.7237 58.5648 58.9804 59.313C56.2372 60.1027 53.6186 61.3081 51.291 62.9291ZM55.489 21.6137C59.5623 15.2543 63.1369 10.0171 65.6308 6.44254C65.6862 6.3317 65.7278 6.22086 65.7555 6.11002C65.7832 5.97147 65.7832 5.84678 65.7555 5.73594C65.7278 5.6251 65.6724 5.52812 65.5892 5.44499C65.5338 5.33415 65.4507 5.25102 65.3399 5.1956C64.7025 4.86308 64.0513 4.54442 63.3863 4.23961C62.749 3.90709 62.0978 3.60228 61.4328 3.32518C60.7677 3.07579 60.0888 2.82641 59.3961 2.57702C58.731 2.32763 58.0522 2.09209 57.3594 1.87042C57.2486 1.84271 57.1239 1.84271 56.9853 1.87042C56.8745 1.87042 56.7637 1.91198 56.6528 1.99511C56.5697 2.05053 56.4866 2.1198 56.4034 2.20293C56.348 2.31377 56.3064 2.42461 56.2787 2.53545C55.489 6.85819 54.3252 13.0929 52.7042 20.4914C52.6764 20.6577 52.6764 20.824 52.7042 20.9902C52.7319 21.1565 52.7873 21.3227 52.8704 21.489C52.9535 21.6553 53.0505 21.7938 53.1614 21.9046C53.2999 22.0155 53.4523 22.0986 53.6186 22.154L53.6601 22.1956C53.7987 22.251 53.965 22.2787 54.1589 22.2787C54.3252 22.3064 54.4914 22.2926 54.6577 22.2372C54.824 22.1817 54.9764 22.0986 55.1149 21.9878C55.2535 21.8769 55.3782 21.7522 55.489 21.6137ZM60.9755 25.2714C66.5868 20.2005 71.3668 16.044 74.7335 13.2176C74.8166 13.1345 74.8859 13.0375 74.9413 12.9266C74.9967 12.8158 75.0245 12.705 75.0245 12.5941C75.0245 12.4556 74.9967 12.3309 74.9413 12.22C74.9136 12.1092 74.8582 12.0122 74.7751 11.9291C74.2486 11.458 73.7082 10.987 73.154 10.5159C72.5998 10.0448 72.0318 9.58761 71.4499 9.14425C70.8957 8.7009 70.3138 8.28525 69.7042 7.89731C69.1222 7.48166 68.5265 7.07987 67.9169 6.69193C67.806 6.63651 67.6952 6.59495 67.5844 6.56724C67.4735 6.56724 67.3488 6.58109 67.2103 6.6088C67.0994 6.63651 67.0024 6.69193 66.9193 6.77506C66.8362 6.85819 66.7669 6.95517 66.7115 7.06601C64.8411 11.0147 62.0978 16.709 58.6064 23.4425C58.5232 23.6088 58.4817 23.7751 58.4817 23.9413C58.454 24.1076 58.454 24.2738 58.4817 24.4401C58.5371 24.6064 58.6064 24.7726 58.6895 24.9389C58.8003 25.0774 58.925 25.2021 59.0636 25.313C59.2021 25.4238 59.3545 25.5069 59.5208 25.5623C59.687 25.6178 59.8672 25.6455 60.0611 25.6455C60.2274 25.6455 60.3936 25.6039 60.5599 25.5208C60.7262 25.4654 60.8647 25.3822 60.9755 25.2714ZM65.3814 30.2176C72.1149 26.7262 77.8093 23.9829 81.7579 22.1125C81.8688 22.057 81.9658 21.9878 82.0489 21.9046C82.132 21.8215 82.1875 21.7107 82.2152 21.5721C82.2429 21.4613 82.2567 21.3504 82.2567 21.2396C82.229 21.1288 82.1875 21.0179 82.132 20.9071C81.7441 20.2975 81.3423 19.6879 80.9267 19.0782C80.5387 18.4963 80.1231 17.9144 79.6797 17.3325C79.2364 16.7783 78.7791 16.2241 78.3081 15.6699C77.837 15.1157 77.3521 14.5754 76.8533 14.0489C76.7702 13.9658 76.6732 13.8965 76.5623 13.8411C76.4515 13.8134 76.3407 13.7995 76.2298 13.7995C76.119 13.7995 76.0082 13.8272 75.8973 13.8826C75.7865 13.9381 75.6895 14.0073 75.6064 14.0905C72.7799 17.4572 68.6235 22.2372 63.5526 27.8068C63.4417 27.9454 63.3586 28.0978 63.3032 28.2641C63.2201 28.4303 63.1785 28.5966 63.1785 28.7628C63.1785 28.9568 63.2062 29.1369 63.2616 29.3032C63.317 29.4694 63.4002 29.6218 63.511 29.7604C63.6218 29.8989 63.7465 30.0236 63.8851 30.1345C64.0236 30.2176 64.1899 30.2869 64.3839 30.3423C64.5501 30.37 64.7164 30.37 64.8826 30.3423C65.0489 30.3146 65.2152 30.273 65.3814 30.2176ZM49.2127 19.5355C51.4988 12.3447 53.577 6.35941 55.0733 2.2445C55.1288 2.13366 55.1426 2.00896 55.1149 1.87042C55.1149 1.75958 55.0872 1.64874 55.0318 1.5379C54.9764 1.42706 54.8932 1.33007 54.7824 1.24694C54.6993 1.19152 54.6023 1.14996 54.4914 1.12225C53.771 0.95599 53.0644 0.803586 52.3716 0.665037C51.6512 0.554197 50.9307 0.443358 50.2103 0.332518C49.5175 0.249389 48.8109 0.180114 48.0905 0.124694C47.37 0.0692746 46.6496 0.0277099 45.9291 0C45.7905 0 45.6659 0.0277099 45.555 0.0831296C45.4442 0.110839 45.3472 0.166259 45.2641 0.249389C45.1809 0.360228 45.1255 0.471068 45.0978 0.581907C45.0424 0.692747 45.0285 0.803586 45.0562 0.914425C45.4303 5.32029 45.8875 11.5966 46.22 19.1614C46.2478 19.3276 46.2893 19.4939 46.3447 19.6601C46.4279 19.8264 46.5249 19.965 46.6357 20.0758C46.7465 20.2143 46.8851 20.3252 47.0513 20.4083C47.1899 20.4914 47.3562 20.533 47.5501 20.533L47.5917 20.5746C47.7579 20.6023 47.9242 20.5884 48.0905 20.533C48.2844 20.5053 48.4507 20.436 48.5892 20.3252C48.7278 20.2421 48.8525 20.1312 48.9633 19.9927C49.0742 19.8541 49.1573 19.7017 49.2127 19.5355ZM68.3325 36.1198C75.731 34.4988 81.9242 33.335 86.2885 32.5452C86.3994 32.5175 86.4963 32.476 86.5795 32.4205C86.6903 32.3374 86.7734 32.2404 86.8288 32.1296C86.912 32.0465 86.9535 31.9356 86.9535 31.7971C86.9813 31.6862 86.9813 31.5754 86.9535 31.4645C86.7319 30.7718 86.4963 30.0929 86.2469 29.4279C85.9976 28.7351 85.7343 28.0562 85.4572 27.3912C85.1801 26.7262 84.8892 26.0611 84.5844 25.3961C84.2795 24.7588 83.9609 24.1214 83.6284 23.4841C83.5729 23.3733 83.4898 23.2901 83.379 23.2347C83.2958 23.1516 83.1989 23.0962 83.088 23.0685C82.9495 23.0407 82.8248 23.0407 82.7139 23.0685C82.6031 23.0962 82.4923 23.1377 82.3814 23.1932C78.7653 25.687 73.5697 29.2616 67.2103 33.335C67.044 33.4458 66.9193 33.5705 66.8362 33.709C66.7253 33.8476 66.6422 34 66.5868 34.1663C66.5314 34.3325 66.5037 34.4988 66.5037 34.665C66.5314 34.8313 66.5729 34.9976 66.6284 35.1638V35.2054C66.7115 35.3716 66.8085 35.524 66.9193 35.6626C67.0302 35.7734 67.1687 35.8704 67.335 35.9535C67.5012 36.0367 67.6675 36.0921 67.8337 36.1198C68 36.1475 68.1663 36.1475 68.3325 36.1198ZM87.577 45.1394C87.7156 45.2225 87.8541 45.2641 87.9927 45.2641C88.1589 45.2641 88.2975 45.2225 88.4083 45.1394C88.5469 45.0562 88.6577 44.9592 88.7408 44.8484C88.7962 44.7099 88.8378 44.5575 88.8655 44.3912C88.8655 43.5599 88.8378 42.7147 88.7824 41.8557C88.727 41.0244 88.6577 40.1793 88.5746 39.3203C88.4637 38.489 88.339 37.6577 88.2005 36.8264C88.0619 35.9951 87.8957 35.1638 87.7017 34.3325C87.674 34.2217 87.6186 34.1247 87.5355 34.0416C87.48 33.9307 87.3969 33.8476 87.2861 33.7922C87.1752 33.7368 87.0644 33.709 86.9535 33.709C86.815 33.6813 86.6903 33.6952 86.5795 33.7506C82.3814 35.2469 76.2714 37.3667 68.9144 39.7359C70.5493 39.8468 72.1703 40.0407 73.7775 40.3178C75.3847 40.5949 76.978 40.969 78.5575 41.4401C80.1092 41.8835 81.6471 42.4238 83.1712 43.0611C84.6952 43.6707 86.1638 44.3635 87.577 45.1394ZM21.6553 33.335C15.2958 29.2616 10.0587 25.687 6.44254 23.1932C6.35941 23.1377 6.24857 23.0962 6.11002 23.0685C5.99919 23.0407 5.88835 23.0407 5.77751 23.0685C5.66667 23.0962 5.55583 23.1516 5.44499 23.2347C5.36186 23.2901 5.29258 23.3733 5.23716 23.4841C4.87694 24.1214 4.54442 24.7588 4.23961 25.3961C3.9348 26.0611 3.64385 26.7262 3.36675 27.3912C3.08965 28.0562 2.82641 28.7213 2.57702 29.3863C2.35534 30.0791 2.13366 30.7718 1.91198 31.4645C1.88427 31.5754 1.87042 31.6862 1.87042 31.7971C1.89813 31.9356 1.93969 32.0465 1.99511 32.1296C2.07824 32.2404 2.16137 32.3374 2.2445 32.4205C2.35534 32.476 2.46618 32.5175 2.57702 32.5452C6.89976 33.335 13.0929 34.4988 20.4914 36.1198C20.6577 36.1475 20.8378 36.1475 21.0318 36.1198C21.198 36.0921 21.3643 36.0367 21.5306 35.9535C21.6691 35.8704 21.7938 35.7596 21.9046 35.621C22.0432 35.5102 22.1402 35.3716 22.1956 35.2054V35.1638C22.2787 34.9976 22.3203 34.8313 22.3203 34.665C22.3203 34.4988 22.3064 34.3325 22.2787 34.1663C22.2233 34 22.1402 33.8476 22.0293 33.709C21.9185 33.5705 21.7938 33.4458 21.6553 33.335ZM25.2714 27.8068C20.2005 22.2372 16.0856 17.4572 13.2592 14.0905C13.176 14.0073 13.0791 13.9381 12.9682 13.8826C12.8574 13.8272 12.7465 13.7995 12.6357 13.7995C12.4971 13.7995 12.3725 13.8134 12.2616 13.8411C12.1508 13.8965 12.0538 13.9658 11.9707 14.0489C11.4719 14.5754 11.0008 15.1157 10.5575 15.6699C10.0864 16.2241 9.62918 16.7783 9.18582 17.3325C8.74246 17.9144 8.31296 18.4963 7.89731 19.0782C7.48166 19.6879 7.09372 20.2975 6.7335 20.9071C6.65037 21.0179 6.6088 21.1288 6.6088 21.2396C6.58109 21.3504 6.58109 21.4613 6.6088 21.5721C6.66422 21.7107 6.7335 21.8215 6.81663 21.9046C6.87205 21.9878 6.95518 22.057 7.06601 22.1125C11.0562 23.9829 16.7506 26.7262 23.4841 30.2176C23.6227 30.273 23.7751 30.3146 23.9413 30.3423C24.1353 30.37 24.3154 30.37 24.4817 30.3423C24.6479 30.2869 24.8003 30.2176 24.9389 30.1345C25.1051 30.0236 25.2437 29.8989 25.3545 29.7604C25.4654 29.6218 25.5485 29.4694 25.6039 29.3032C25.6593 29.1369 25.687 28.9568 25.687 28.7628C25.6593 28.5966 25.6178 28.4303 25.5623 28.2641C25.5069 28.0978 25.4099 27.9454 25.2714 27.8068ZM19.9511 39.7359C12.5526 37.3667 6.48411 35.2469 2.2445 33.7506C2.13366 33.6952 2.02282 33.6813 1.91198 33.709C1.80114 33.709 1.6903 33.7368 1.57946 33.7922C1.46862 33.8476 1.37164 33.9307 1.28851 34.0416C1.23309 34.1247 1.19152 34.2217 1.16381 34.3325C0.969845 35.1638 0.789731 35.9951 0.623472 36.8264C0.484923 37.6577 0.374083 38.489 0.290954 39.3203C0.180114 40.1793 0.110839 41.0244 0.0831296 41.8557C0.0277099 42.7147 0 43.5599 0 44.3912C0 44.5575 0.0415648 44.7099 0.124694 44.8484C0.180114 44.9592 0.277099 45.0562 0.415648 45.1394C0.554197 45.2225 0.692747 45.2641 0.831296 45.2641C0.969845 45.2641 1.10839 45.2225 1.24694 45.1394C2.68786 44.3635 4.17033 43.6707 5.69438 43.0611C7.19071 42.4238 8.72861 41.8835 10.3081 41.4401C11.8598 40.969 13.4531 40.5949 15.088 40.3178C16.6952 40.0407 18.3162 39.8468 19.9511 39.7359ZM30.2176 23.4425C26.7677 16.709 24.0245 11.0147 22.154 7.06601C22.0986 6.95517 22.0293 6.85819 21.9462 6.77506C21.8354 6.69193 21.7245 6.63651 21.6137 6.6088C21.5029 6.58109 21.392 6.56724 21.2812 6.56724C21.1426 6.59495 21.0318 6.63651 20.9487 6.69193C20.3113 7.07987 19.7017 7.48166 19.1198 7.89731C18.5379 8.28525 17.956 8.7009 17.3741 9.14425C16.8199 9.58761 16.2657 10.0448 15.7115 10.5159C15.1573 10.987 14.617 11.458 14.0905 11.9291C14.0073 12.0122 13.9381 12.1092 13.8826 12.22C13.8272 12.3586 13.8134 12.4833 13.8411 12.5941C13.8411 12.705 13.8688 12.8158 13.9242 12.9266C13.9519 13.0375 14.0212 13.1345 14.132 13.2176C17.4988 16.044 22.2372 20.2005 27.8484 25.2714C27.987 25.3822 28.1394 25.4654 28.3056 25.5208C28.4719 25.6039 28.6381 25.6455 28.8044 25.6455C28.9707 25.6455 29.1369 25.6178 29.3032 25.5623C29.4694 25.5069 29.6218 25.4238 29.7604 25.313H29.802C29.9405 25.2021 30.0513 25.0774 30.1345 24.9389C30.2453 24.7726 30.3146 24.6064 30.3423 24.4401C30.3977 24.2738 30.4116 24.1076 30.3839 23.9413C30.3562 23.7751 30.3007 23.6088 30.2176 23.4425ZM36.1198 20.4914C34.5403 13.0929 33.335 6.85819 32.5868 2.53545C32.5591 2.42461 32.5037 2.31377 32.4205 2.20293C32.3651 2.1198 32.282 2.05053 32.1712 1.99511C32.0603 1.91198 31.9495 1.87042 31.8386 1.87042C31.7278 1.84271 31.617 1.84271 31.5061 1.87042C30.8134 2.09209 30.1206 2.32763 29.4279 2.57702C28.7628 2.7987 28.0978 3.04808 27.4328 3.32518C26.7677 3.60228 26.1027 3.90709 25.4377 4.23961C24.8003 4.54442 24.163 4.86308 23.5257 5.1956C23.4148 5.25102 23.3179 5.32029 23.2347 5.40342C23.1793 5.51426 23.1377 5.6251 23.11 5.73594C23.0823 5.84678 23.0685 5.97147 23.0685 6.11002C23.0962 6.22086 23.1516 6.3317 23.2347 6.44254C25.7286 10.0171 29.2616 15.2543 33.3765 21.6137C33.4597 21.7522 33.5705 21.8769 33.709 21.9878C33.8476 22.0986 34 22.1817 34.1663 22.2372C34.3602 22.2926 34.5403 22.3064 34.7066 22.2787C34.8729 22.2787 35.0391 22.251 35.2054 22.1956L35.2469 22.154C35.3855 22.0986 35.524 22.0155 35.6626 21.9046C35.8011 21.7661 35.912 21.6275 35.9951 21.489C36.0782 21.3227 36.1337 21.1565 36.1614 20.9902C36.1891 20.824 36.1752 20.6577 36.1198 20.4914ZM42.6039 19.1614C42.978 11.5966 43.4352 5.32029 43.8093 0.914425C43.8093 0.803586 43.7954 0.692747 43.7677 0.581907C43.7123 0.471068 43.643 0.360228 43.5599 0.249389C43.4768 0.166259 43.3798 0.110839 43.2689 0.0831296C43.1581 0.0277099 43.0473 0 42.9364 0C42.216 0.0277099 41.4955 0.0692746 40.7751 0.124694C40.0546 0.180114 39.3341 0.249389 38.6137 0.332518C37.8932 0.443358 37.1866 0.554197 36.4939 0.665037C35.7734 0.803586 35.0668 0.95599 34.3741 1.12225C34.2632 1.14996 34.1524 1.19152 34.0416 1.24694C33.9584 1.33007 33.8892 1.42706 33.8337 1.5379C33.7783 1.64874 33.7368 1.75958 33.709 1.87042C33.709 2.00896 33.7229 2.13366 33.7506 2.2445C35.2469 6.35941 37.3252 12.3447 39.6528 19.5355C39.7082 19.7017 39.7914 19.8541 39.9022 19.9927C39.9853 20.1312 40.11 20.2421 40.2763 20.3252C40.4148 20.436 40.5672 20.5053 40.7335 20.533C40.8998 20.5884 41.066 20.6023 41.2323 20.5746H41.3154C41.4817 20.5469 41.6479 20.4914 41.8142 20.4083C41.9527 20.3252 42.0913 20.2143 42.2298 20.0758C42.3407 19.965 42.4238 19.8264 42.4792 19.6601C42.5623 19.4939 42.6039 19.3276 42.6039 19.1614Z" fill="#C19052"></path><path d="M133.362 13.0652C133.561 13.0652 133.723 13.1488 133.848 13.3161C134.005 13.4311 134.083 13.5879 134.083 13.7866V18.397C134.083 18.5957 134.005 18.7734 133.848 18.9302C133.723 19.0452 133.561 19.1027 133.362 19.1027H124.063C123.854 19.1027 123.749 19.202 123.749 19.4007V54.1832C123.749 54.3818 123.671 54.5648 123.514 54.7321C123.399 54.8471 123.237 54.9046 123.028 54.9046H117.508C117.309 54.9046 117.131 54.8471 116.974 54.7321C116.849 54.5648 116.786 54.3818 116.786 54.1832V19.4007C116.786 19.202 116.687 19.1027 116.488 19.1027H107.534C107.335 19.1027 107.158 19.0452 107.001 18.9302C106.875 18.7734 106.812 18.5957 106.812 18.397V13.7866C106.812 13.5879 106.875 13.4311 107.001 13.3161C107.158 13.1488 107.335 13.0652 107.534 13.0652H133.362ZM159.253 54.9046C158.814 54.9046 158.532 54.7059 158.406 54.3087L151.929 37.1526C151.846 36.9958 151.746 36.9174 151.631 36.9174H146.456C146.258 36.9174 146.158 37.0167 146.158 37.2154V54.1832C146.158 54.3818 146.08 54.5648 145.923 54.7321C145.798 54.8471 145.636 54.9046 145.437 54.9046H139.917C139.718 54.9046 139.535 54.8471 139.368 54.7321C139.253 54.5648 139.196 54.3818 139.196 54.1832V13.7866C139.196 13.5879 139.253 13.4311 139.368 13.3161C139.535 13.1488 139.718 13.0652 139.917 13.0652H153.78C156.069 13.0652 158.092 13.5879 159.849 14.6334C161.616 15.6266 162.98 17.0589 163.942 18.9302C164.904 20.7598 165.385 22.8716 165.385 25.2657C165.385 27.8585 164.783 30.1062 163.581 32.009C162.379 33.9221 160.737 35.2813 158.657 36.0863C158.458 36.1594 158.396 36.2953 158.469 36.494L165.557 54.0734C165.599 54.1466 165.62 54.2668 165.62 54.4341C165.62 54.7478 165.421 54.9046 165.024 54.9046H159.253ZM146.456 19.0557C146.258 19.0557 146.158 19.155 146.158 19.3536V31.2405C146.158 31.4392 146.258 31.5385 146.456 31.5385H152.761C154.444 31.5385 155.803 30.9792 156.838 29.8605C157.883 28.7105 158.406 27.1998 158.406 25.3285C158.406 23.4153 157.883 21.8993 156.838 20.7807C155.803 19.6307 154.444 19.0557 152.761 19.0557H146.456ZM193.298 54.9046C192.859 54.9046 192.582 54.7059 192.467 54.3087L190.899 47.9104C190.857 47.7536 190.758 47.6752 190.601 47.6752H178.228C178.071 47.6752 177.972 47.7536 177.93 47.9104L176.425 54.3087C176.31 54.7059 176.027 54.9046 175.578 54.9046H169.885C169.362 54.9046 169.159 54.6432 169.274 54.1205L180.204 13.6768C180.329 13.269 180.612 13.0652 181.051 13.0652H187.904C188.343 13.0652 188.62 13.269 188.735 13.6768L199.665 54.1205L199.728 54.3714C199.728 54.7268 199.508 54.9046 199.069 54.9046H193.298ZM179.357 41.8729C179.326 41.9983 179.347 42.0977 179.42 42.1708C179.503 42.2127 179.587 42.2336 179.671 42.2336H189.158C189.231 42.2336 189.31 42.2127 189.394 42.1708C189.477 42.0977 189.498 41.9983 189.456 41.8729L184.532 22.2705C184.49 22.1555 184.428 22.098 184.344 22.098C184.271 22.098 184.213 22.1555 184.171 22.2705L179.357 41.8729ZM210.705 54.9046C210.266 54.9046 209.984 54.7059 209.858 54.3087L199.226 13.8493V13.6141C199.226 13.2481 199.451 13.0652 199.9 13.0652H205.844C206.241 13.0652 206.497 13.269 206.612 13.6768L213.701 43.7234C213.742 43.8906 213.805 43.9743 213.889 43.9743C213.962 43.9743 214.019 43.8906 214.061 43.7234L220.977 13.7238C221.092 13.2847 221.353 13.0652 221.761 13.0652H227.579C228.102 13.0652 228.3 13.3265 228.175 13.8493L217.543 54.3087C217.428 54.7059 217.151 54.9046 216.711 54.9046H210.705ZM257.61 18.3343C257.61 18.533 257.532 18.7107 257.375 18.8675C257.249 18.993 257.087 19.0557 256.889 19.0557H240.187C239.989 19.0557 239.889 19.155 239.889 19.3536V30.5819C239.889 30.7805 239.989 30.8799 240.187 30.8799H250.882C251.081 30.8799 251.243 30.9583 251.369 31.1151C251.525 31.2405 251.604 31.4026 251.604 31.6012V36.1333C251.604 36.3424 251.525 36.5254 251.369 36.6822C251.243 36.7972 251.081 36.8547 250.882 36.8547H240.187C239.989 36.8547 239.889 36.954 239.889 37.1526V48.6318C239.889 48.8304 239.989 48.9298 240.187 48.9298H256.889C257.087 48.9298 257.249 49.0082 257.375 49.165C257.532 49.2904 257.61 49.4525 257.61 49.6511V54.1832C257.61 54.3818 257.532 54.5648 257.375 54.7321C257.249 54.8471 257.087 54.9046 256.889 54.9046H233.648C233.449 54.9046 233.266 54.8471 233.099 54.7321C232.984 54.5648 232.927 54.3818 232.927 54.1832V13.7866C232.927 13.5879 232.984 13.4311 233.099 13.3161C233.266 13.1488 233.449 13.0652 233.648 13.0652H256.889C257.087 13.0652 257.249 13.1488 257.375 13.3161C257.532 13.4311 257.61 13.5879 257.61 13.7866V18.3343ZM263.851 54.9046C263.653 54.9046 263.475 54.8471 263.318 54.7321C263.193 54.5753 263.13 54.3975 263.13 54.1989V13.8022C263.13 13.6036 263.193 13.4416 263.318 13.3161C263.475 13.1593 263.653 13.0809 263.851 13.0809H269.371C269.58 13.0809 269.743 13.1593 269.858 13.3161C270.014 13.4416 270.093 13.6036 270.093 13.8022V48.6318C270.093 48.8304 270.197 48.9298 270.406 48.9298H286.919C287.118 48.9298 287.275 49.0134 287.39 49.1807C287.557 49.2957 287.641 49.4525 287.641 49.6511V54.1989C287.641 54.3975 287.557 54.5753 287.39 54.7321C287.275 54.8471 287.118 54.9046 286.919 54.9046H263.851ZM293.882 54.9046C293.475 54.9046 293.271 54.7059 293.271 54.3087V13.6768C293.271 13.2795 293.475 13.0809 293.882 13.0809H296.94C297.337 13.0809 297.536 13.2795 297.536 13.6768V54.3087C297.536 54.7059 297.337 54.9046 296.94 54.9046H293.882ZM318.079 55.3907C315.644 55.3907 313.485 54.8941 311.603 53.9009C309.763 52.8659 308.32 51.4284 307.275 49.5884C306.271 47.7588 305.769 45.647 305.769 43.2529V24.7953C305.769 22.4012 306.271 20.2893 307.275 18.4598C308.32 16.5884 309.763 15.1509 311.603 14.1472C313.485 13.1122 315.644 12.5947 318.079 12.5947C320.526 12.5947 322.669 13.1122 324.509 14.1472C326.391 15.1509 327.855 16.5884 328.9 18.4598C329.935 20.2893 330.452 22.4012 330.452 24.7953V43.2529C330.452 45.647 329.935 47.7588 328.9 49.5884C327.855 51.4284 326.391 52.8659 324.509 53.9009C322.669 54.8941 320.526 55.3907 318.079 55.3907ZM318.079 51.6898C320.526 51.6898 322.491 50.9318 323.976 49.4159C325.45 47.9 326.187 45.9084 326.187 43.4411V24.6698C326.187 22.1607 325.45 20.1482 323.976 18.6323C322.491 17.085 320.526 16.3113 318.079 16.3113C315.685 16.3113 313.746 17.085 312.261 18.6323C310.777 20.1482 310.035 22.1607 310.035 24.6698V43.4411C310.035 45.9084 310.777 47.9 312.261 49.4159C313.746 50.9318 315.685 51.6898 318.079 51.6898Z" fill="#232323"></path></svg>