<svg width="214" height="55" viewBox="0 0 214 55" fill="none" xmlns="http://www.w3.org/2000/svg">
<g clip-path="url(#clip0_2877_1029)">
<path d="M162.082 12.9272H149.831C149.425 12.927 149.033 13.0716 148.724 13.3351C148.416 13.5986 148.212 13.9636 148.149 14.3644L143.188 45.7671C143.165 45.913 143.174 46.062 143.214 46.2041C143.254 46.3462 143.324 46.4779 143.42 46.5901C143.516 46.7023 143.635 46.7924 143.769 46.8541C143.904 46.9158 144.049 46.9477 144.197 46.9476H150.486C150.77 46.9477 151.044 46.8465 151.26 46.6622C151.476 46.4778 151.619 46.2225 151.663 45.9422L153.069 37.0394C153.132 36.6387 153.336 36.2736 153.644 36.0101C153.953 35.7466 154.345 35.602 154.751 35.6023H158.629C166.701 35.6023 171.36 31.6973 172.578 23.9614C172.919 22.6106 172.956 21.2011 172.687 19.8342C172.418 18.4673 171.849 17.1771 171.022 16.0562C169.272 14.0104 166.182 12.9272 162.082 12.9272ZM163.496 24.4009C162.827 28.7978 159.467 28.7978 156.217 28.7978H154.368L155.665 20.5893C155.703 20.3492 155.826 20.1306 156.011 19.9727C156.196 19.8148 156.431 19.728 156.674 19.7278H157.526C159.739 19.7278 161.828 19.7278 162.905 20.988C163.247 21.4783 163.477 22.0377 163.579 22.6268C163.682 23.2158 163.653 23.8201 163.496 24.397V24.4009Z" fill="#232323"/>
<path d="M74.6708 12.9272H62.4192C62.0137 12.9273 61.6215 13.0721 61.3131 13.3356C61.0048 13.599 60.8005 13.9638 60.7371 14.3644L55.7762 45.7671C55.7531 45.913 55.762 46.062 55.8021 46.2041C55.8422 46.3462 55.9127 46.4779 56.0086 46.5901C56.1046 46.7023 56.2237 46.7924 56.3578 46.8541C56.492 46.9158 56.6379 46.9477 56.7855 46.9476H62.639C63.0443 46.9475 63.4363 46.803 63.7446 46.54C64.0529 46.2769 64.2573 45.9126 64.3211 45.5124L65.6591 37.0394C65.7221 36.6387 65.9263 36.2736 66.2347 36.0101C66.5432 35.7466 66.9356 35.602 67.3412 35.6023H71.217C79.2894 35.6023 83.9488 31.6973 85.1662 23.9614C85.5071 22.6106 85.5443 21.2011 85.2753 19.8343C85.0063 18.4674 84.4377 17.1771 83.6105 16.0562C81.8603 14.0104 78.7663 12.9272 74.6708 12.9272ZM76.0845 24.4009C75.4156 28.7978 72.0552 28.7978 68.8056 28.7978H66.9581L68.2552 20.5893C68.2932 20.349 68.4158 20.1302 68.6008 19.9722C68.7859 19.8143 69.0212 19.7276 69.2645 19.7278H70.1124C72.3235 19.7278 74.4141 19.7278 75.4914 20.988C75.8341 21.478 76.0651 22.0373 76.1679 22.6263C76.2707 23.2154 76.2429 23.8199 76.0865 24.397L76.0845 24.4009Z" fill="#232323"/>
<path d="M111.3 24.2642H105.433C105.19 24.2644 104.955 24.3512 104.77 24.5091C104.585 24.667 104.462 24.8856 104.424 25.1257L104.165 26.7651L103.755 26.1719C102.483 24.3284 99.6516 23.7119 96.8221 23.7119C93.5869 23.7806 90.4841 25.0096 88.0795 27.1751C85.6749 29.3405 84.1286 32.298 83.7227 35.5084C83.4134 37.0787 83.4485 38.6975 83.8256 40.253C84.2026 41.8084 84.9126 43.2636 85.9065 44.5181C86.8355 45.5378 87.9822 46.3353 89.2615 46.8514C90.5407 47.3675 91.9198 47.5889 93.2963 47.4993C94.8065 47.5147 96.3043 47.2255 97.7003 46.6492C99.0963 46.0728 100.362 45.221 101.421 44.1447L101.159 45.7744C101.136 45.9202 101.144 46.0693 101.185 46.2113C101.225 46.3534 101.295 46.4851 101.391 46.5973C101.487 46.7095 101.606 46.7996 101.74 46.8613C101.874 46.923 102.02 46.9549 102.168 46.9548H107.454C107.859 46.9551 108.251 46.8108 108.56 46.5477C108.868 46.2846 109.072 45.92 109.136 45.5196L112.31 25.431C112.33 25.2862 112.32 25.1386 112.279 24.9982C112.238 24.8578 112.167 24.7279 112.071 24.6172C111.975 24.5066 111.857 24.4178 111.724 24.3569C111.591 24.296 111.447 24.2644 111.3 24.2642ZM103.121 35.6795C102.891 37.2609 102.091 38.7037 100.871 39.7354C99.6506 40.7672 98.0949 41.3167 96.4973 41.2802C95.7643 41.3248 95.0306 41.2059 94.3492 40.9321C93.6678 40.6583 93.0558 40.2365 92.5574 39.6972C92.1117 39.12 91.7984 38.4518 91.6394 37.7401C91.4805 37.0284 91.4798 36.2904 91.6375 35.5784C91.8595 33.9981 92.6493 32.5527 93.8594 31.5124C95.0694 30.472 96.6168 29.9078 98.2125 29.9252C98.9423 29.886 99.6717 30.009 100.348 30.2854C101.025 30.5618 101.632 30.9847 102.125 31.5237C102.583 32.1004 102.91 32.7703 103.083 33.4864C103.255 34.2026 103.269 34.9477 103.123 35.6698L103.121 35.6795Z" fill="#232323"/>
<path d="M198.712 24.2647H192.845C192.601 24.2645 192.366 24.3511 192.181 24.5091C191.996 24.667 191.873 24.8859 191.835 25.1262L191.577 26.7655L191.168 26.1646C189.897 24.3211 187.065 23.7046 184.236 23.7046C181.001 23.7733 177.898 25.0025 175.494 27.1679C173.09 29.3334 171.544 32.2909 171.138 35.501C170.829 37.0714 170.864 38.6902 171.241 40.2456C171.618 41.8011 172.328 43.2563 173.322 44.5108C174.251 45.5306 175.398 46.3282 176.677 46.8443C177.956 47.3604 179.335 47.5818 180.712 47.492C182.222 47.5071 183.719 47.2178 185.115 46.6415C186.51 46.0651 187.776 45.2135 188.835 44.1374L188.572 45.767C188.549 45.9129 188.558 46.0619 188.598 46.204C188.638 46.3461 188.709 46.4778 188.805 46.59C188.901 46.7022 189.02 46.7923 189.154 46.854C189.288 46.9157 189.434 46.9476 189.582 46.9475H194.863C195.269 46.9478 195.661 46.8035 195.969 46.5403C196.278 46.2772 196.482 45.9127 196.546 45.5123L199.725 25.4315C199.746 25.2863 199.735 25.1384 199.694 24.9977C199.653 24.8571 199.582 24.7269 199.485 24.6162C199.389 24.5055 199.27 24.4168 199.137 24.3561C199.003 24.2955 198.859 24.2643 198.712 24.2647ZM190.534 35.68C190.305 37.2614 189.505 38.7041 188.284 39.7359C187.064 40.7677 185.508 41.3172 183.911 41.2806C183.178 41.3255 182.443 41.2068 181.762 40.933C181.08 40.6592 180.468 40.2373 179.969 39.6977C179.523 39.1203 179.21 38.4522 179.051 37.7405C178.892 37.0288 178.892 36.2909 179.049 35.5788C179.274 34.0005 180.065 32.5579 181.275 31.5202C182.486 30.4824 184.032 29.9205 185.626 29.9392C186.356 29.9002 187.085 30.0232 187.762 30.2996C188.438 30.576 189.045 30.9989 189.539 31.5378C189.995 32.113 190.32 32.7807 190.492 33.4943C190.664 34.2079 190.678 34.9504 190.534 35.6702V35.68Z" fill="#232323"/>
<path d="M142.552 24.2646H136.659C136.382 24.2651 136.108 24.3333 135.863 24.4634C135.617 24.5936 135.408 24.7817 135.251 25.0114L127.115 36.9868L123.665 25.4703C123.56 25.1195 123.344 24.8121 123.05 24.5935C122.756 24.3749 122.4 24.2568 122.033 24.2569H116.236C116.073 24.2558 115.912 24.2939 115.767 24.3677C115.622 24.4416 115.496 24.5492 115.401 24.6816C115.306 24.8139 115.244 24.9671 115.22 25.1283C115.196 25.2896 115.211 25.4542 115.264 25.6084L121.759 44.6663L115.651 53.2793C115.542 53.4322 115.478 53.612 115.465 53.7991C115.452 53.9861 115.49 54.1732 115.577 54.3397C115.663 54.5063 115.793 54.6459 115.953 54.7432C116.114 54.8405 116.298 54.8918 116.485 54.8915H122.378C122.653 54.8915 122.924 54.8248 123.168 54.6971C123.412 54.5694 123.621 54.3846 123.778 54.1583L143.398 25.8593C143.502 25.7057 143.563 25.5266 143.573 25.3412C143.583 25.1558 143.542 24.9712 143.455 24.8071C143.368 24.6431 143.238 24.5059 143.079 24.4103C142.92 24.3148 142.737 24.2644 142.552 24.2646Z" fill="#232323"/>
<path d="M205.63 13.7907L200.601 45.7671C200.578 45.913 200.587 46.062 200.627 46.2041C200.667 46.3462 200.737 46.4779 200.833 46.5901C200.929 46.7023 201.048 46.7924 201.183 46.8541C201.317 46.9158 201.463 46.9477 201.61 46.9476H206.666C207.072 46.9475 207.464 46.803 207.772 46.54C208.08 46.2769 208.285 45.9126 208.349 45.5124L213.309 14.1077C213.332 13.9619 213.324 13.8128 213.284 13.6707C213.243 13.5286 213.173 13.3969 213.077 13.2847C212.981 13.1725 212.862 13.0824 212.728 13.0207C212.594 12.959 212.448 12.9271 212.3 12.9272H206.641C206.397 12.9267 206.161 13.0134 205.976 13.1718C205.79 13.3302 205.667 13.5497 205.63 13.7907Z" fill="#232323"/>
<path opacity="0.68" d="M41.3648 14.6035C41.7883 12.9313 41.8032 11.1818 41.4082 9.50262C41.0132 7.82346 40.2199 6.26401 39.0953 4.95596C36.6003 2.10506 32.0945 0.883794 26.3304 0.883794H9.60615C9.03356 0.882594 8.47948 1.0865 8.04426 1.45857C7.60905 1.83065 7.32147 2.34629 7.23363 2.9121L0.263885 47.2256C0.231292 47.431 0.243584 47.6409 0.299915 47.8411C0.356247 48.0412 0.455279 48.2268 0.590195 48.385C0.725112 48.5432 0.892708 48.6703 1.08145 48.7575C1.27019 48.8447 1.47558 48.89 1.6835 48.8903H12.0137L11.3 53.4253C11.2713 53.6049 11.2819 53.7885 11.331 53.9636C11.3802 54.1387 11.4667 54.3011 11.5846 54.4395C11.7025 54.578 11.8491 54.6892 12.0141 54.7656C12.1792 54.8419 12.3588 54.8816 12.5407 54.8818H21.249C21.7486 54.8813 22.2317 54.7023 22.6111 54.3772C22.9904 54.052 23.2412 53.602 23.3181 53.1083L23.4037 52.663L25.0431 42.2297L25.1481 41.6463C25.225 41.1526 25.4758 40.7026 25.8551 40.3775C26.2345 40.0523 26.7176 39.8733 27.2172 39.8728H28.5202C36.9562 39.8728 43.5603 36.4365 45.4914 26.4953C46.2985 22.3414 45.8803 18.8741 43.7412 16.4374C43.0654 15.6833 42.2574 15.0591 41.357 14.5958" fill="#232323"/>
<path opacity="0.7" d="M41.3648 14.6035C41.7883 12.9313 41.8032 11.1818 41.4082 9.50262C41.0132 7.82346 40.2199 6.26401 39.0953 4.95596C36.6003 2.10506 32.0945 0.883794 26.3304 0.883794H9.60615C9.03357 0.882594 8.47948 1.0865 8.04426 1.45857C7.60905 1.83065 7.32147 2.34629 7.23363 2.9121L0.263885 47.2256C0.231292 47.431 0.243584 47.6409 0.299915 47.8411C0.356247 48.0412 0.455279 48.2268 0.590195 48.385C0.725112 48.5432 0.892708 48.6703 1.08145 48.7575C1.27019 48.8447 1.47558 48.89 1.6835 48.8903H12.0137L14.6079 32.3877L14.5281 32.905C14.6145 32.3415 14.8996 31.8275 15.3318 31.4558C15.7641 31.0842 16.315 30.8795 16.8851 30.8786H21.7935C31.4352 30.8786 38.9864 26.9484 41.1917 15.5856C41.2578 15.2492 41.3123 14.9244 41.3628 14.6133" fill="#232323"/>
<path d="M17.3966 14.658C17.4731 14.1641 17.7238 13.7139 18.1032 13.3887C18.4827 13.0634 18.9659 12.8846 19.4657 12.8844H32.5826C34.031 12.875 35.4779 12.981 36.9095 13.2014C37.2881 13.2624 37.6563 13.333 38.0141 13.4134C38.3719 13.4938 38.7187 13.5826 39.0545 13.6798C39.2237 13.7284 39.3871 13.7809 39.5504 13.8354C40.1759 14.0435 40.7828 14.3037 41.3648 14.6133C41.7883 12.9411 41.8032 11.1915 41.4082 9.51235C41.0132 7.83318 40.2199 6.27373 39.0953 4.96569C36.6003 2.10506 32.0945 0.883794 26.3304 0.883794H9.60615C9.03357 0.882594 8.47948 1.0865 8.04426 1.45857C7.60905 1.83065 7.32147 2.34629 7.23363 2.9121L0.263885 47.2256C0.231292 47.431 0.243584 47.6409 0.299915 47.8411C0.356247 48.0412 0.455279 48.2268 0.590195 48.385C0.725112 48.5432 0.892708 48.6703 1.08145 48.7575C1.27019 48.8447 1.47558 48.89 1.6835 48.8903H12.0137L14.6079 32.3877L17.3966 14.658Z" fill="#232323"/>
</g>
<defs>
<clipPath id="clip0_2877_1029">
<rect width="213.077" height="54" fill="white" transform="translate(0.246094 0.883789)"/>
</clipPath>
</defs>
</svg>
