<svg width="219" height="56" viewBox="0 0 219 56" fill="none" xmlns="http://www.w3.org/2000/svg">
<g clip-path="url(#clip0_2874_812)">
<path d="M166.36 12.5815H153.825C153.41 12.5812 153.009 12.7292 152.693 12.9988C152.378 13.2684 152.169 13.6419 152.104 14.0519L147.029 46.1802C147.005 46.3293 147.014 46.4819 147.055 46.6272C147.097 46.7726 147.169 46.9073 147.267 47.0221C147.365 47.1369 147.487 47.2291 147.624 47.2922C147.761 47.3553 147.911 47.388 148.062 47.3878H154.496C154.786 47.388 155.067 47.2845 155.288 47.0959C155.509 46.9073 155.655 46.646 155.7 46.3592L157.138 37.2508C157.203 36.8408 157.412 36.4673 157.727 36.1977C158.043 35.9281 158.444 35.7801 158.859 35.7804H162.826C171.085 35.7804 175.852 31.7853 177.098 23.8706C177.447 22.4887 177.485 21.0466 177.21 19.6481C176.935 18.2496 176.353 16.9295 175.506 15.7828C173.716 13.6898 170.554 12.5815 166.36 12.5815ZM167.806 24.3203C167.122 28.8188 163.684 28.8188 160.359 28.8188H158.467L159.794 20.4206C159.834 20.1749 159.959 19.9513 160.148 19.7898C160.338 19.6282 160.578 19.5394 160.827 19.5392H161.698C163.963 19.5392 166.099 19.5392 167.202 20.8285C167.552 21.3301 167.787 21.9025 167.892 22.5052C167.996 23.1078 167.967 23.7261 167.806 24.3163V24.3203Z" fill="#353642"/>
<path d="M76.9289 12.5815H64.3943C63.9794 12.5816 63.5781 12.7298 63.2626 12.9993C62.9471 13.2688 62.7382 13.642 62.6733 14.0519L57.5978 46.1802C57.5742 46.3293 57.5832 46.4819 57.6243 46.6272C57.6653 46.7726 57.7374 46.9073 57.8356 47.0221C57.9338 47.1369 58.0556 47.2291 58.1929 47.2922C58.3301 47.3553 58.4793 47.388 58.6304 47.3878H64.6191C65.0338 47.3878 65.4348 47.24 65.7502 46.9708C66.0657 46.7017 66.2748 46.329 66.3401 45.9195L67.709 37.2508C67.7735 36.8408 67.9824 36.4673 68.2979 36.1977C68.6135 35.9281 69.015 35.7801 69.43 35.7804H73.3953C81.6542 35.7804 86.4213 31.7853 87.6668 23.8706C88.0155 22.4887 88.0536 21.0466 87.7784 19.6481C87.5032 18.2497 86.9215 16.9296 86.0751 15.7828C84.2845 13.6898 81.119 12.5815 76.9289 12.5815ZM78.3753 24.3203C77.6909 28.8188 74.2528 28.8188 70.9282 28.8188H69.0381L70.3651 20.4206C70.404 20.1748 70.5294 19.9509 70.7187 19.7893C70.908 19.6277 71.1488 19.539 71.3977 19.5392H72.2652C74.5274 19.5392 76.6662 19.5392 77.7685 20.8285C78.1191 21.3298 78.3554 21.902 78.4606 22.5047C78.5658 23.1074 78.5374 23.7258 78.3773 24.3163L78.3753 24.3203Z" fill="#353642"/>
<path d="M114.405 24.1808H108.402C108.153 24.181 107.913 24.2698 107.723 24.4313C107.534 24.5928 107.409 24.8165 107.369 25.0622L107.105 26.7394L106.685 26.1326C105.384 24.2464 102.487 23.6157 99.5919 23.6157C96.282 23.686 93.1075 24.9434 90.6474 27.1589C88.1872 29.3743 86.6052 32.4002 86.1899 35.6847C85.8735 37.2914 85.9094 38.9475 86.2952 40.5389C86.6809 42.1303 87.4073 43.6191 88.4242 44.9026C89.3747 45.9459 90.5478 46.7618 91.8567 47.2898C93.1655 47.8179 94.5764 48.0444 95.9848 47.9527C97.5298 47.9684 99.0622 47.6726 100.49 47.0829C101.919 46.4932 103.213 45.6218 104.297 44.5206L104.029 46.1879C104.005 46.3371 104.014 46.4896 104.055 46.635C104.096 46.7803 104.168 46.9151 104.267 47.0299C104.365 47.1447 104.487 47.2368 104.624 47.2999C104.761 47.3631 104.91 47.3957 105.061 47.3956H110.469C110.884 47.396 111.285 47.2483 111.601 46.9791C111.916 46.7099 112.125 46.3369 112.19 45.9273L115.437 25.3745C115.459 25.2264 115.448 25.0754 115.406 24.9317C115.364 24.7881 115.291 24.6552 115.193 24.542C115.095 24.4288 114.974 24.3379 114.838 24.2756C114.702 24.2133 114.554 24.1809 114.405 24.1808ZM106.036 35.8598C105.801 37.4778 104.983 38.9538 103.734 40.0095C102.486 41.0651 100.894 41.6273 99.2597 41.5899C98.5097 41.6355 97.7591 41.5139 97.0619 41.2338C96.3648 40.9537 95.7386 40.5221 95.2287 39.9703C94.7728 39.3797 94.4521 38.6962 94.2895 37.968C94.1269 37.2398 94.1263 36.4848 94.2876 35.7563C94.5147 34.1396 95.3228 32.6608 96.5608 31.5964C97.7987 30.532 99.3819 29.9547 101.014 29.9725C101.761 29.9324 102.507 30.0583 103.2 30.3411C103.892 30.6238 104.513 31.0565 105.018 31.608C105.486 32.198 105.821 32.8834 105.997 33.6161C106.173 34.3488 106.187 35.1111 106.038 35.8499L106.036 35.8598Z" fill="#353642"/>
<path d="M203.836 24.1809H197.833C197.584 24.1807 197.343 24.2694 197.154 24.431C196.965 24.5926 196.839 24.8165 196.8 25.0623L196.536 26.7396L196.118 26.1248C194.817 24.2386 191.92 23.6079 189.025 23.6079C185.715 23.6782 182.541 24.9358 180.081 27.1512C177.621 29.3667 176.04 32.3926 175.625 35.6769C175.309 37.2836 175.344 38.9397 175.73 40.5311C176.116 42.1225 176.842 43.6113 177.859 44.8948C178.81 45.9382 179.983 46.7542 181.292 47.2822C182.6 47.8103 184.011 48.0367 185.42 47.9449C186.965 47.9603 188.497 47.6644 189.924 47.0747C191.352 46.485 192.647 45.6137 193.73 44.5128L193.462 46.1801C193.438 46.3293 193.447 46.4818 193.488 46.6272C193.529 46.7725 193.601 46.9072 193.7 47.022C193.798 47.1368 193.92 47.229 194.057 47.2921C194.194 47.3553 194.343 47.3879 194.494 47.3878H199.898C200.313 47.3881 200.714 47.2404 201.03 46.9713C201.345 46.7021 201.554 46.3291 201.619 45.9194L204.872 25.3747C204.894 25.2262 204.883 25.0749 204.841 24.9309C204.798 24.787 204.725 24.6539 204.627 24.5406C204.529 24.4273 204.407 24.3366 204.271 24.2745C204.134 24.2124 203.986 24.1805 203.836 24.1809ZM195.469 35.86C195.235 37.4779 194.416 38.954 193.167 40.0096C191.919 41.0652 190.327 41.6274 188.693 41.59C187.942 41.636 187.191 41.5145 186.494 41.2343C185.796 40.9542 185.17 40.5225 184.66 39.9705C184.204 39.3798 183.883 38.6963 183.721 37.9681C183.558 37.2399 183.557 36.485 183.719 35.7565C183.949 34.1417 184.758 32.6658 185.996 31.6041C187.234 30.5423 188.817 29.9674 190.448 29.9866C191.194 29.9466 191.94 30.0725 192.633 30.3553C193.325 30.6381 193.946 31.0707 194.451 31.6221C194.917 32.2106 195.25 32.8937 195.426 33.6238C195.602 34.3539 195.617 35.1136 195.469 35.85V35.86Z" fill="#353642"/>
<path d="M146.378 24.1808H140.35C140.066 24.1813 139.786 24.2511 139.535 24.3842C139.284 24.5174 139.069 24.7098 138.909 24.9448L130.585 37.1969L127.055 25.4144C126.947 25.0555 126.727 24.7409 126.426 24.5173C126.125 24.2936 125.761 24.1729 125.386 24.1729H119.455C119.288 24.1718 119.124 24.2107 118.975 24.2863C118.826 24.3619 118.698 24.472 118.6 24.6074C118.503 24.7428 118.439 24.8995 118.415 25.0645C118.391 25.2294 118.406 25.3979 118.46 25.5557L125.105 45.0539L118.856 53.8659C118.745 54.0223 118.679 54.2063 118.666 54.3976C118.652 54.589 118.692 54.7804 118.78 54.9508C118.868 55.1212 119.002 55.264 119.165 55.3636C119.329 55.4631 119.518 55.5156 119.71 55.5153H125.738C126.02 55.5153 126.297 55.447 126.547 55.3164C126.796 55.1858 127.01 54.9966 127.171 54.7652L147.244 25.8123C147.351 25.6552 147.412 25.4719 147.423 25.2822C147.433 25.0926 147.392 24.9037 147.303 24.7359C147.214 24.5681 147.08 24.4277 146.918 24.3299C146.755 24.2321 146.568 24.1806 146.378 24.1808Z" fill="#353642"/>
<path d="M210.913 13.4649L205.768 46.1802C205.745 46.3293 205.754 46.4819 205.795 46.6272C205.836 46.7726 205.908 46.9073 206.006 47.0221C206.104 47.1369 206.226 47.2291 206.363 47.2922C206.5 47.3553 206.65 47.388 206.801 47.3879H211.974C212.388 47.3878 212.789 47.24 213.105 46.9709C213.42 46.7017 213.629 46.329 213.695 45.9195L218.77 13.7892C218.794 13.6401 218.785 13.4875 218.744 13.3422C218.703 13.1968 218.631 13.0621 218.532 12.9473C218.434 12.8325 218.312 12.7403 218.175 12.6772C218.038 12.6141 217.889 12.5814 217.738 12.5815H211.948C211.698 12.5809 211.457 12.6697 211.267 12.8317C211.077 12.9938 210.952 13.2184 210.913 13.4649Z" fill="#353642"/>
<path opacity="0.68" d="M42.8534 14.297C43.2866 12.5862 43.3019 10.7962 42.8977 9.07821C42.4936 7.36025 41.682 5.76477 40.5315 4.42651C37.9788 1.50974 33.3689 0.260259 27.4717 0.260259H10.361C9.77516 0.259031 9.20828 0.467646 8.763 0.848318C8.31773 1.22899 8.02351 1.75655 7.93365 2.33543L0.80287 47.6728C0.769524 47.8829 0.7821 48.0977 0.839733 48.3024C0.897366 48.5072 0.998686 48.6971 1.13672 48.8589C1.27475 49.0208 1.44622 49.1508 1.63932 49.24C1.83242 49.3293 2.04256 49.3756 2.25529 49.3759H12.8241L12.0939 54.0156C12.0646 54.1994 12.0754 54.3873 12.1257 54.5664C12.176 54.7456 12.2645 54.9117 12.3852 55.0533C12.5058 55.195 12.6557 55.3088 12.8246 55.3869C12.9934 55.465 13.1772 55.5056 13.3633 55.5059H22.2728C22.784 55.5053 23.2782 55.3222 23.6663 54.9895C24.0545 54.6568 24.311 54.1964 24.3897 53.6913L24.4773 53.2357L26.1545 42.5614L26.262 41.9646C26.3407 41.4594 26.5972 40.9991 26.9854 40.6664C27.3735 40.3337 27.8677 40.1506 28.3789 40.15H29.712C38.3429 40.15 45.0996 36.6344 47.0753 26.4635C47.901 22.2137 47.4732 18.6662 45.2847 16.1732C44.5933 15.4017 43.7666 14.7631 42.8454 14.289" fill="#353642"/>
<path opacity="0.7" d="M42.8534 14.297C43.2866 12.5861 43.3019 10.7962 42.8978 9.07821C42.4936 7.36025 41.682 5.76477 40.5315 4.42651C37.9788 1.50974 33.3689 0.260259 27.4717 0.260259H10.361C9.77516 0.259031 9.20828 0.467646 8.763 0.848318C8.31773 1.22899 8.02351 1.75655 7.93365 2.33543L0.80287 47.6728C0.769524 47.8828 0.7821 48.0977 0.839733 48.3024C0.897366 48.5072 0.998686 48.6971 1.13672 48.8589C1.27475 49.0208 1.44622 49.1508 1.63932 49.24C1.83242 49.3293 2.04256 49.3756 2.25529 49.3759H12.8241L15.4783 32.492L15.3967 33.0212C15.485 32.4447 15.7767 31.9189 16.2189 31.5386C16.6612 31.1584 17.2249 30.9489 17.8081 30.9481H22.8299C32.6944 30.9481 40.4201 26.9271 42.6763 15.3017C42.7439 14.9575 42.7996 14.6253 42.8514 14.3069" fill="#353642"/>
<path d="M18.3314 14.3527C18.4097 13.8474 18.6661 13.3868 19.0544 13.054C19.4426 12.7213 19.937 12.5383 20.4483 12.5382H33.8683C35.3502 12.5285 36.8305 12.637 38.2952 12.8625C38.6825 12.9248 39.0592 12.9971 39.4253 13.0793C39.7913 13.1616 40.1462 13.2524 40.4897 13.3519C40.6628 13.4017 40.8299 13.4554 40.9971 13.5111C41.637 13.724 42.2579 13.9902 42.8534 14.3069C43.2866 12.5961 43.3019 10.8061 42.8978 9.08816C42.4936 7.3702 41.682 5.77472 40.5315 4.43646C37.9788 1.50974 33.3689 0.260259 27.4717 0.260259H10.361C9.77516 0.259031 9.20828 0.467646 8.763 0.848318C8.31773 1.22899 8.02351 1.75655 7.93365 2.33543L0.80287 47.6728C0.769524 47.8828 0.7821 48.0977 0.839733 48.3024C0.897366 48.5072 0.998686 48.6971 1.13672 48.8589C1.27475 49.0208 1.44622 49.1508 1.63932 49.24C1.83242 49.3293 2.04256 49.3756 2.25529 49.3759H12.8241L15.4783 32.492L18.3314 14.3527Z" fill="#353642"/>
</g>
<defs>
<clipPath id="clip0_2874_812">
<rect width="218" height="55.2476" fill="white" transform="translate(0.784668 0.260254)"/>
</clipPath>
</defs>
</svg>
