<svg width="22" height="22" viewBox="0 0 22 22" fill="none" xmlns="http://www.w3.org/2000/svg">
<path fill-rule="evenodd" clip-rule="evenodd" d="M14.9251 7.0757C14.9891 7.13956 15.0399 7.21543 15.0746 7.29895C15.1093 7.38248 15.1271 7.47202 15.1271 7.56245C15.1271 7.65288 15.1093 7.74242 15.0746 7.82594C15.0399 7.90947 14.9891 7.98533 14.9251 8.0492L10.8001 12.1742C10.7363 12.2382 10.6604 12.289 10.5769 12.3237C10.4933 12.3583 10.4038 12.3762 10.3134 12.3762C10.2229 12.3762 10.1334 12.3583 10.0499 12.3237C9.96635 12.289 9.89048 12.2382 9.82662 12.1742L7.76412 10.1117C7.7002 10.0478 7.64949 9.97189 7.6149 9.88837C7.58031 9.80486 7.5625 9.71534 7.5625 9.62495C7.5625 9.53455 7.58031 9.44504 7.6149 9.36152C7.64949 9.278 7.7002 9.20212 7.76412 9.1382C7.82804 9.07428 7.90392 9.02357 7.98744 8.98898C8.07096 8.95438 8.16047 8.93658 8.25087 8.93658C8.34127 8.93658 8.43078 8.95438 8.5143 8.98898C8.59781 9.02357 8.6737 9.07428 8.73762 9.1382L10.3134 10.7153L13.9516 7.0757C14.0155 7.01167 14.0913 6.96088 14.1749 6.92622C14.2584 6.89156 14.3479 6.87372 14.4384 6.87372C14.5288 6.87372 14.6183 6.89156 14.7019 6.92622C14.7854 6.96088 14.8613 7.01167 14.9251 7.0757Z" fill="#1D2327"/>
<path d="M2.75 2.75C2.75 2.02065 3.03973 1.32118 3.55546 0.805456C4.07118 0.289731 4.77065 0 5.5 0L16.5 0C17.2293 0 17.9288 0.289731 18.4445 0.805456C18.9603 1.32118 19.25 2.02065 19.25 2.75V21.3125C19.2499 21.4369 19.2161 21.5589 19.1522 21.6655C19.0883 21.7722 18.9966 21.8595 18.887 21.9182C18.7774 21.9769 18.6539 22.0048 18.5296 21.9989C18.4054 21.9929 18.2852 21.9534 18.1816 21.8845L11 18.0139L3.81837 21.8845C3.71484 21.9534 3.59457 21.9929 3.47035 21.9989C3.34613 22.0048 3.22263 21.9769 3.113 21.9182C3.00337 21.8595 2.91171 21.7722 2.84778 21.6655C2.78386 21.5589 2.75006 21.4369 2.75 21.3125V2.75ZM5.5 1.375C5.13533 1.375 4.78559 1.51987 4.52773 1.77773C4.26987 2.03559 4.125 2.38533 4.125 2.75V20.0282L10.6191 16.6155C10.732 16.5404 10.8645 16.5004 11 16.5004C11.1355 16.5004 11.268 16.5404 11.3809 16.6155L17.875 20.0282V2.75C17.875 2.38533 17.7301 2.03559 17.4723 1.77773C17.2144 1.51987 16.8647 1.375 16.5 1.375H5.5Z" fill="#1D2327"/>
</svg>
