<svg width="22" height="22" viewBox="0 0 22 22" fill="none" xmlns="http://www.w3.org/2000/svg">
<path d="M11.2558 1.53031C11.0916 1.46453 10.9084 1.46453 10.7443 1.53031L2.53825 4.81244L11 8.19631L19.4618 4.81244L11.2558 1.53031ZM20.625 5.82856L11.6875 9.40356V20.2963L20.625 16.7213V5.82856ZM10.3125 20.2977V9.40219L1.375 5.82856V16.7227L10.3125 20.2977ZM10.2341 0.252938C10.7258 0.0563122 11.2742 0.0563122 11.7659 0.252938L21.5683 4.17444C21.6957 4.22551 21.8049 4.31358 21.8819 4.42729C21.9588 4.541 22 4.67514 22 4.81244V16.7227C21.9998 16.9974 21.9173 17.2658 21.7632 17.4933C21.609 17.7207 21.3903 17.8968 21.1351 17.9987L11.2558 21.9504C11.0916 22.0162 10.9084 22.0162 10.7443 21.9504L0.86625 17.9987C0.610845 17.897 0.391796 17.721 0.237383 17.4936C0.0829699 17.2661 0.000283703 16.9976 0 16.7227L0 4.81244C3.19549e-05 4.67514 0.0411727 4.541 0.118122 4.42729C0.195072 4.31358 0.304305 4.22551 0.43175 4.17444L10.2341 0.252938Z" fill="#1D2327"/>
</svg>
