<svg width="270" height="38" viewBox="0 0 270 38" fill="none" xmlns="http://www.w3.org/2000/svg">
<circle cx="18.6288" cy="18.6295" r="18.6288" fill="url(#paint0_linear_1499_610)"/>
<mask id="mask0_1499_610" style="mask-type:alpha" maskUnits="userSpaceOnUse" x="0" y="0" width="38" height="38">
<circle cx="18.6308" cy="18.6288" r="18.6288" fill="url(#paint1_linear_1499_610)"/>
</mask>
<g mask="url(#mask0_1499_610)">
<g filter="url(#filter0_f_1499_610)">
<circle cx="18.6308" cy="18.6288" r="18.6288" fill="url(#paint2_radial_1499_610)"/>
</g>
<ellipse cx="18.6319" cy="18.6314" rx="18.63" ry="18.63" fill="url(#paint3_linear_1499_610)"/>
<ellipse cx="18.6319" cy="18.6314" rx="18.63" ry="18.63" fill="url(#paint4_linear_1499_610)"/>
</g>
<path d="M19.4636 25.7619C18.0668 25.7619 16.8654 25.4659 15.8592 24.8741C14.859 24.2763 14.0895 23.4477 13.551 22.3883C13.0183 21.3289 12.752 20.1096 12.752 18.7306C12.752 17.3338 13.0212 16.1087 13.5598 15.0552C14.1043 13.9958 14.8767 13.1701 15.877 12.5783C16.8772 11.9805 18.0668 11.6816 19.4458 11.6816C20.6355 11.6816 21.6771 11.8976 22.5708 12.3297C23.4645 12.7617 24.1718 13.3684 24.6926 14.1496C25.2135 14.9309 25.5005 15.8483 25.5538 16.9018H21.9849C21.8843 16.2211 21.618 15.6737 21.1859 15.2594C20.7598 14.8391 20.2005 14.629 19.508 14.629C18.9221 14.629 18.4101 14.7888 17.9721 15.1084C17.5401 15.4221 17.2027 15.8808 16.96 16.4845C16.7174 17.0882 16.5961 17.8191 16.5961 18.6773C16.5961 19.5474 16.7144 20.2872 16.9512 20.8968C17.1938 21.5064 17.5342 21.971 17.9721 22.2906C18.4101 22.6102 18.9221 22.77 19.508 22.77C19.94 22.77 20.3277 22.6812 20.671 22.5037C21.0202 22.3261 21.3072 22.0687 21.5321 21.7313C21.763 21.388 21.9139 20.9767 21.9849 20.4973H25.5538C25.4946 21.539 25.2105 22.4563 24.7015 23.2494C24.1984 24.0366 23.503 24.6521 22.6152 25.096C21.7275 25.5399 20.6769 25.7619 19.4636 25.7619Z" fill="#1D2327"/>
<path d="M27.0502 25.4955V11.8592H30.7168V14.2384H30.8588C31.1074 13.3921 31.5247 12.7529 32.1106 12.3208C32.6965 11.8828 33.3713 11.6638 34.1347 11.6638C34.3241 11.6638 34.5283 11.6757 34.7473 11.6994C34.9663 11.723 35.1587 11.7556 35.3244 11.797V15.1528C35.1468 15.0996 34.9012 15.0522 34.5875 15.0108C34.2738 14.9694 33.9868 14.9486 33.7264 14.9486C33.17 14.9486 32.6729 15.07 32.2349 15.3126C31.8028 15.5494 31.4596 15.8808 31.2051 16.307C30.9565 16.7331 30.8322 17.2243 30.8322 17.7807V25.4955H27.0502Z" fill="#1D2327"/>
<path d="M39.8526 25.753C38.9826 25.753 38.2072 25.6021 37.5266 25.3002C36.846 24.9924 36.3074 24.5397 35.9108 23.9419C35.5202 23.3382 35.3249 22.5865 35.3249 21.6869C35.3249 20.9293 35.464 20.2931 35.7422 19.7782C36.0203 19.2633 36.3991 18.849 36.8785 18.5353C37.3579 18.2216 37.9024 17.9849 38.512 17.8251C39.1276 17.6653 39.7727 17.5528 40.4474 17.4877C41.2405 17.4048 41.8797 17.3279 42.365 17.2569C42.8503 17.1799 43.2025 17.0675 43.4215 16.9195C43.6405 16.7716 43.75 16.5526 43.75 16.2626V16.2093C43.75 15.647 43.5724 15.212 43.2173 14.9043C42.8681 14.5965 42.3709 14.4426 41.7258 14.4426C41.0452 14.4426 40.5036 14.5935 40.1012 14.8954C39.6987 15.1913 39.4324 15.5642 39.3022 16.014L35.8043 15.7299C35.9819 14.9013 36.331 14.1851 36.8519 13.5815C37.3727 12.9718 38.0445 12.5043 38.8672 12.1788C39.6957 11.8473 40.6546 11.6816 41.7436 11.6816C42.5011 11.6816 43.2262 11.7704 43.9186 11.9479C44.617 12.1255 45.2355 12.4007 45.7741 12.7736C46.3186 13.1464 46.7477 13.6258 47.0614 14.2118C47.3751 14.7918 47.5319 15.4872 47.5319 16.2981V25.4955H43.9453V23.6045H43.8387C43.6198 24.0307 43.3268 24.4065 42.9598 24.732C42.5929 25.0516 42.152 25.3032 41.637 25.4866C41.1221 25.6642 40.5273 25.753 39.8526 25.753ZM40.9357 23.1429C41.492 23.1429 41.9833 23.0334 42.4094 22.8144C42.8355 22.5895 43.1699 22.2877 43.4126 21.9089C43.6553 21.5301 43.7766 21.101 43.7766 20.6216V19.1745C43.6582 19.2514 43.4955 19.3225 43.2883 19.3876C43.0871 19.4467 42.8592 19.503 42.6047 19.5562C42.3502 19.6036 42.0957 19.648 41.8412 19.6894C41.5867 19.7249 41.3559 19.7575 41.1488 19.7871C40.7049 19.8522 40.3172 19.9557 39.9858 20.0978C39.6543 20.2398 39.3969 20.4322 39.2134 20.6749C39.0299 20.9116 38.9382 21.2075 38.9382 21.5626C38.9382 22.0775 39.1246 22.4711 39.4975 22.7434C39.8763 23.0097 40.3557 23.1429 40.9357 23.1429Z" fill="#1D2327"/>
<path d="M56.8741 11.8592V14.7001H48.458V11.8592H56.8741ZM50.3844 25.4955V10.8737C50.3844 9.88531 50.5768 9.06559 50.9615 8.41455C51.3521 7.76351 51.8848 7.27523 52.5595 6.94971C53.2342 6.62419 54.0007 6.46143 54.8589 6.46143C55.4389 6.46143 55.9686 6.50582 56.448 6.59459C56.9333 6.68337 57.2944 6.76327 57.5311 6.8343L56.8564 9.67521C56.7084 9.62786 56.525 9.58347 56.306 9.54204C56.0929 9.50061 55.8739 9.47989 55.649 9.47989C55.0927 9.47989 54.705 9.6101 54.486 9.87052C54.267 10.125 54.1575 10.4831 54.1575 10.9447V25.4955H50.3844Z" fill="#1D2327"/>
<path d="M65.5128 11.8592V14.7001H57.3008V11.8592H65.5128ZM59.1651 8.59211H62.9471V21.3052C62.9471 21.6544 63.0004 21.9266 63.1069 22.1219C63.2134 22.3113 63.3614 22.4445 63.5508 22.5214C63.7461 22.5984 63.971 22.6369 64.2255 22.6369C64.4031 22.6369 64.5806 22.6221 64.7582 22.5925C64.9357 22.557 65.0719 22.5303 65.1666 22.5126L65.7614 25.3268C65.572 25.386 65.3057 25.4541 64.9624 25.531C64.6191 25.6139 64.2018 25.6642 63.7106 25.682C62.7991 25.7175 62.0001 25.5961 61.3136 25.318C60.6329 25.0398 60.1032 24.6077 59.7244 24.0218C59.3457 23.4359 59.1592 22.696 59.1651 21.8023V8.59211Z" fill="#1D2327"/>
<path d="M73.0661 25.7619C71.6871 25.7619 70.4945 25.4689 69.4884 24.8829C68.4881 24.2911 67.7158 23.4684 67.1713 22.4149C66.6267 21.3555 66.3545 20.1274 66.3545 18.7306C66.3545 17.322 66.6267 16.0909 67.1713 15.0374C67.7158 13.978 68.4881 13.1553 69.4884 12.5694C70.4945 11.9775 71.6871 11.6816 73.0661 11.6816C74.4452 11.6816 75.6348 11.9775 76.635 12.5694C77.6412 13.1553 78.4165 13.978 78.961 15.0374C79.5055 16.0909 79.7778 17.322 79.7778 18.7306C79.7778 20.1274 79.5055 21.3555 78.961 22.4149C78.4165 23.4684 77.6412 24.2911 76.635 24.8829C75.6348 25.4689 74.4452 25.7619 73.0661 25.7619ZM73.0839 22.8322C73.7113 22.8322 74.2351 22.6546 74.6553 22.2995C75.0755 21.9385 75.3921 21.4472 75.6052 20.8258C75.8242 20.2043 75.9337 19.4971 75.9337 18.704C75.9337 17.9109 75.8242 17.2036 75.6052 16.5822C75.3921 15.9607 75.0755 15.4695 74.6553 15.1084C74.2351 14.7474 73.7113 14.5669 73.0839 14.5669C72.4506 14.5669 71.9179 14.7474 71.4859 15.1084C71.0597 15.4695 70.7372 15.9607 70.5182 16.5822C70.3051 17.2036 70.1986 17.9109 70.1986 18.704C70.1986 19.4971 70.3051 20.2043 70.5182 20.8258C70.7372 21.4472 71.0597 21.9385 71.4859 22.2995C71.9179 22.6546 72.4506 22.8322 73.0839 22.8322Z" fill="#1D2327"/>
<ellipse cx="81.7641" cy="10.7573" rx="2.76219" ry="2.76214" fill="#1D2327"/>
<path d="M109.584 11.6046H112.486L116.372 21.0904H116.526L120.412 11.6046H123.314V24.6955H121.039V15.7019H120.917L117.299 24.6572H115.599L111.981 15.6827H111.86V24.6955H109.584V11.6046Z" fill="#1D2327"/>
<path d="M129.781 24.8873C128.796 24.8873 127.946 24.6827 127.23 24.2736C126.519 23.8603 125.971 23.2765 125.588 22.5222C125.204 21.7637 125.012 20.871 125.012 19.844C125.012 18.834 125.204 17.9477 125.588 17.1849C125.975 16.4178 126.517 15.8212 127.211 15.3951C127.906 14.9647 128.722 14.7495 129.659 14.7495C130.264 14.7495 130.835 14.8475 131.372 15.0435C131.914 15.2353 132.391 15.5336 132.804 15.9384C133.222 16.3433 133.55 16.8589 133.789 17.4853C134.027 18.1075 134.147 18.8489 134.147 19.7097V20.4192H126.099V18.8596H131.929C131.924 18.4164 131.828 18.0222 131.641 17.6771C131.453 17.3276 131.191 17.0528 130.855 16.8525C130.522 16.6522 130.134 16.5521 129.691 16.5521C129.218 16.5521 128.803 16.6671 128.445 16.8972C128.087 17.1231 127.808 17.4214 127.608 17.7921C127.411 18.1586 127.311 18.5613 127.307 19.0002V20.3617C127.307 20.9327 127.411 21.4228 127.62 21.8319C127.829 22.2367 128.121 22.5478 128.496 22.7651C128.871 22.9782 129.31 23.0847 129.813 23.0847C130.149 23.0847 130.454 23.0379 130.727 22.9441C131 22.8461 131.236 22.7033 131.436 22.5158C131.637 22.3283 131.788 22.0961 131.89 21.8191L134.051 22.062C133.914 22.633 133.654 23.1316 133.271 23.5577C132.892 23.9796 132.406 24.3077 131.813 24.5421C131.221 24.7722 130.544 24.8873 129.781 24.8873Z" fill="#1D2327"/>
<path d="M140.014 28.5819C139.183 28.5819 138.469 28.469 137.873 28.2431C137.276 28.0215 136.797 27.7232 136.434 27.3482C136.072 26.9732 135.821 26.5577 135.68 26.1018L137.764 25.5968C137.858 25.7886 137.994 25.9782 138.173 26.1657C138.352 26.3575 138.593 26.5151 138.895 26.6387C139.202 26.7665 139.588 26.8305 140.052 26.8305C140.709 26.8305 141.252 26.6707 141.682 26.3511C142.113 26.0357 142.328 25.5158 142.328 24.7914V22.9313H142.213C142.094 23.17 141.919 23.415 141.689 23.6664C141.463 23.9178 141.162 24.1288 140.787 24.2992C140.417 24.4697 139.95 24.5549 139.388 24.5549C138.633 24.5549 137.949 24.3781 137.336 24.0244C136.726 23.6664 136.241 23.1337 135.878 22.4263C135.52 21.7147 135.341 20.8241 135.341 19.7545C135.341 18.6763 135.52 17.7665 135.878 17.0251C136.241 16.2793 136.729 15.7147 137.342 15.3312C137.956 14.9434 138.64 14.7495 139.394 14.7495C139.969 14.7495 140.442 14.8475 140.813 15.0435C141.188 15.2353 141.486 15.4675 141.708 15.7403C141.93 16.0087 142.098 16.2623 142.213 16.5009H142.341V14.8773H144.623V24.8553C144.623 25.6948 144.422 26.3894 144.022 26.9391C143.621 27.4888 143.074 27.9001 142.379 28.1728C141.684 28.4455 140.896 28.5819 140.014 28.5819ZM140.033 22.7396C140.523 22.7396 140.941 22.6202 141.286 22.3816C141.631 22.143 141.893 21.7999 142.072 21.3525C142.251 20.905 142.341 20.3681 142.341 19.7417C142.341 19.1238 142.251 18.5826 142.072 18.1181C141.898 17.6536 141.638 17.2935 141.292 17.0379C140.952 16.7779 140.532 16.6479 140.033 16.6479C139.518 16.6479 139.087 16.7822 138.742 17.0506C138.397 17.3191 138.137 17.6877 137.962 18.1565C137.787 18.6209 137.7 19.1494 137.7 19.7417C137.7 20.3425 137.787 20.8688 137.962 21.3205C138.141 21.768 138.403 22.1174 138.748 22.3688C139.098 22.616 139.526 22.7396 140.033 22.7396Z" fill="#1D2327"/>
<path d="M149.459 24.8937C148.837 24.8937 148.277 24.7829 147.778 24.5613C147.284 24.3354 146.892 24.0031 146.602 23.5641C146.317 23.1252 146.174 22.584 146.174 21.9406C146.174 21.3866 146.276 20.9285 146.481 20.5663C146.685 20.204 146.964 19.9143 147.318 19.6969C147.672 19.4796 148.07 19.3156 148.513 19.2048C148.961 19.0897 149.423 19.0066 149.9 18.9555C150.476 18.8958 150.942 18.8425 151.3 18.7957C151.658 18.7445 151.918 18.6678 152.08 18.5656C152.246 18.459 152.329 18.295 152.329 18.0734V18.035C152.329 17.5535 152.187 17.1806 151.901 16.9164C151.616 16.6522 151.204 16.5201 150.668 16.5201C150.101 16.5201 149.651 16.6437 149.319 16.8908C148.991 17.138 148.769 17.4299 148.654 17.7665L146.494 17.4597C146.664 16.8631 146.945 16.3646 147.337 15.964C147.729 15.5592 148.209 15.2566 148.775 15.0563C149.342 14.8518 149.969 14.7495 150.655 14.7495C151.128 14.7495 151.599 14.8049 152.067 14.9157C152.536 15.0265 152.964 15.2097 153.352 15.4654C153.74 15.7168 154.051 16.0599 154.285 16.4945C154.524 16.9292 154.643 17.4725 154.643 18.1245V24.6955H152.419V23.3468H152.342C152.202 23.6195 152.003 23.8752 151.748 24.1138C151.496 24.3482 151.179 24.5379 150.795 24.6827C150.416 24.8234 149.971 24.8937 149.459 24.8937ZM150.06 23.1934C150.525 23.1934 150.927 23.1018 151.268 22.9185C151.609 22.731 151.871 22.4839 152.055 22.1771C152.242 21.8702 152.336 21.5357 152.336 21.1735V20.0165C152.263 20.0762 152.14 20.1316 151.965 20.1827C151.795 20.2339 151.603 20.2786 151.39 20.317C151.177 20.3553 150.966 20.3894 150.757 20.4192C150.548 20.4491 150.367 20.4746 150.214 20.4959C149.869 20.5428 149.56 20.6195 149.287 20.7261C149.014 20.8326 148.799 20.9817 148.641 21.1735C148.484 21.361 148.405 21.6039 148.405 21.9022C148.405 22.3283 148.56 22.6501 148.871 22.8674C149.182 23.0847 149.579 23.1934 150.06 23.1934Z" fill="#1D2327"/>
<path d="M160.817 11.6046H163.719L167.606 21.0904H167.759L171.645 11.6046H174.547V24.6955H172.272V15.7019H172.15L168.532 24.6572H166.832L163.214 15.6827H163.093V24.6955H160.817V11.6046Z" fill="#1D2327"/>
<path d="M181.014 24.8873C180.03 24.8873 179.179 24.6827 178.464 24.2736C177.752 23.8603 177.204 23.2765 176.821 22.5222C176.437 21.7637 176.246 20.871 176.246 19.844C176.246 18.834 176.437 17.9477 176.821 17.1849C177.209 16.4178 177.75 15.8212 178.444 15.3951C179.139 14.9647 179.955 14.7495 180.893 14.7495C181.498 14.7495 182.069 14.8475 182.606 15.0435C183.147 15.2353 183.624 15.5336 184.037 15.9384C184.455 16.3433 184.783 16.8589 185.022 17.4853C185.26 18.1075 185.38 18.8489 185.38 19.7097V20.4192H177.332V18.8596H183.162C183.157 18.4164 183.062 18.0222 182.874 17.6771C182.687 17.3276 182.425 17.0528 182.088 16.8525C181.755 16.6522 181.368 16.5521 180.925 16.5521C180.452 16.5521 180.036 16.6671 179.678 16.8972C179.32 17.1231 179.041 17.4214 178.841 17.7921C178.645 18.1586 178.545 18.5613 178.54 19.0002V20.3617C178.54 20.9327 178.645 21.4228 178.853 21.8319C179.062 22.2367 179.354 22.5478 179.729 22.7651C180.104 22.9782 180.543 23.0847 181.046 23.0847C181.383 23.0847 181.687 23.0379 181.96 22.9441C182.233 22.8461 182.469 22.7033 182.67 22.5158C182.87 22.3283 183.021 22.0961 183.123 21.8191L185.284 22.062C185.148 22.633 184.888 23.1316 184.504 23.5577C184.125 23.9796 183.639 24.3077 183.047 24.5421C182.454 24.7722 181.777 24.8873 181.014 24.8873Z" fill="#1D2327"/>
<path d="M189.291 18.9427V24.6955H186.977V14.8773H189.189V16.5457H189.304C189.53 15.9959 189.89 15.5592 190.384 15.2353C190.883 14.9114 191.499 14.7495 192.232 14.7495C192.909 14.7495 193.499 14.8944 194.002 15.1842C194.509 15.4739 194.901 15.8937 195.178 16.4434C195.46 16.9931 195.598 17.66 195.594 18.4441V24.6955H193.28V18.8021C193.28 18.1458 193.109 17.6323 192.769 17.2616C192.432 16.8908 191.965 16.7055 191.369 16.7055C190.964 16.7055 190.604 16.795 190.288 16.9739C189.977 17.1486 189.732 17.4022 189.553 17.7346C189.379 18.067 189.291 18.4697 189.291 18.9427Z" fill="#1D2327"/>
<path d="M203.844 20.5663V14.8773H206.158V24.6955H203.914V22.9505H203.812C203.59 23.5002 203.226 23.9498 202.719 24.2992C202.216 24.6486 201.596 24.8234 200.859 24.8234C200.215 24.8234 199.646 24.6806 199.152 24.3951C198.662 24.1053 198.279 23.6856 198.002 23.1359C197.725 22.5819 197.586 21.9129 197.586 21.1288V14.8773H199.9V20.7708C199.9 21.393 200.07 21.8873 200.411 22.2538C200.752 22.6202 201.2 22.8035 201.754 22.8035C202.095 22.8035 202.425 22.7204 202.744 22.5542C203.064 22.388 203.326 22.1408 203.531 21.8127C203.739 21.4803 203.844 21.0648 203.844 20.5663Z" fill="#1D2327"/>
<path d="M212.384 24.6955V11.6046H217.396C218.342 11.6046 219.128 11.7538 219.754 12.0521C220.385 12.3461 220.856 12.7488 221.167 13.2602C221.482 13.7715 221.64 14.3511 221.64 14.9988C221.64 15.5315 221.538 15.9874 221.333 16.3667C221.129 16.7417 220.854 17.0464 220.509 17.2808C220.163 17.5151 219.778 17.6834 219.352 17.7857V17.9136C219.816 17.9391 220.262 18.0819 220.688 18.3418C221.118 18.5975 221.47 18.9597 221.742 19.4285C222.015 19.8972 222.151 20.464 222.151 21.1288C222.151 21.8063 221.987 22.4157 221.659 22.9569C221.331 23.4938 220.837 23.9178 220.176 24.2289C219.516 24.54 218.685 24.6955 217.683 24.6955H212.384ZM214.756 22.714H217.306C218.167 22.714 218.787 22.5499 219.166 22.2218C219.55 21.8894 219.742 21.4633 219.742 20.9434C219.742 20.5556 219.646 20.2062 219.454 19.8951C219.262 19.5798 218.989 19.3326 218.636 19.1536C218.282 18.9704 217.86 18.8788 217.37 18.8788H214.756V22.714ZM214.756 17.1721H217.102C217.511 17.1721 217.879 17.0975 218.208 16.9484C218.536 16.795 218.793 16.5798 218.981 16.3028C219.173 16.0215 219.269 15.6891 219.269 15.3056C219.269 14.7985 219.09 14.3809 218.732 14.0528C218.378 13.7246 217.852 13.5606 217.153 13.5606H214.756V17.1721Z" fill="#1D2327"/>
<path d="M230.01 20.5663V14.8773H232.324V24.6955H230.08V22.9505H229.978C229.756 23.5002 229.392 23.9498 228.885 24.2992C228.382 24.6486 227.762 24.8234 227.025 24.8234C226.381 24.8234 225.813 24.6806 225.318 24.3951C224.828 24.1053 224.445 23.6856 224.168 23.1359C223.891 22.5819 223.752 21.9129 223.752 21.1288V14.8773H226.066V20.7708C226.066 21.393 226.237 21.8873 226.577 22.2538C226.918 22.6202 227.366 22.8035 227.92 22.8035C228.261 22.8035 228.591 22.7204 228.911 22.5542C229.23 22.388 229.492 22.1408 229.697 21.8127C229.906 21.4803 230.01 21.0648 230.01 20.5663Z" fill="#1D2327"/>
<path d="M234.343 24.6955V14.8773H236.657V24.6955H234.343ZM235.507 13.4839C235.14 13.4839 234.825 13.3624 234.561 13.1195C234.296 12.8724 234.164 12.5762 234.164 12.231C234.164 11.8816 234.296 11.5854 234.561 11.3425C234.825 11.0954 235.14 10.9718 235.507 10.9718C235.877 10.9718 236.193 11.0954 236.453 11.3425C236.717 11.5854 236.849 11.8816 236.849 12.231C236.849 12.5762 236.717 12.8724 236.453 13.1195C236.193 13.3624 235.877 13.4839 235.507 13.4839Z" fill="#1D2327"/>
<path d="M240.991 11.6046V24.6955H238.677V11.6046H240.991Z" fill="#1D2327"/>
<path d="M246.654 24.8681C245.882 24.8681 245.192 24.67 244.583 24.2736C243.973 23.8773 243.492 23.3021 243.138 22.5478C242.784 21.7935 242.607 20.8773 242.607 19.7992C242.607 18.7083 242.786 17.7879 243.144 17.0379C243.507 16.2836 243.994 15.7147 244.608 15.3312C245.222 14.9434 245.906 14.7495 246.66 14.7495C247.235 14.7495 247.708 14.8475 248.079 15.0435C248.45 15.2353 248.744 15.4675 248.961 15.7403C249.178 16.0087 249.347 16.2623 249.466 16.5009H249.562V11.6046H251.882V24.6955H249.607V23.1486H249.466C249.347 23.3873 249.174 23.6408 248.948 23.9093C248.722 24.1735 248.424 24.3994 248.053 24.5869C247.683 24.7744 247.216 24.8681 246.654 24.8681ZM247.299 22.9697C247.789 22.9697 248.207 22.8376 248.552 22.5734C248.897 22.3049 249.159 21.932 249.338 21.4548C249.517 20.9775 249.607 20.4214 249.607 19.7864C249.607 19.1515 249.517 18.5996 249.338 18.1309C249.163 17.6621 248.904 17.2978 248.558 17.0379C248.217 16.7779 247.798 16.6479 247.299 16.6479C246.784 16.6479 246.353 16.7822 246.008 17.0506C245.663 17.3191 245.403 17.6898 245.228 18.1629C245.053 18.6359 244.966 19.1771 244.966 19.7864C244.966 20.4001 245.053 20.9477 245.228 21.4292C245.407 21.9065 245.669 22.2836 246.014 22.5606C246.364 22.8333 246.792 22.9697 247.299 22.9697Z" fill="#1D2327"/>
<path d="M258.335 24.8873C257.35 24.8873 256.5 24.6827 255.784 24.2736C255.072 23.8603 254.525 23.2765 254.141 22.5222C253.758 21.7637 253.566 20.871 253.566 19.844C253.566 18.834 253.758 17.9477 254.141 17.1849C254.529 16.4178 255.07 15.8212 255.765 15.3951C256.46 14.9647 257.276 14.7495 258.213 14.7495C258.818 14.7495 259.389 14.8475 259.926 15.0435C260.467 15.2353 260.945 15.5336 261.358 15.9384C261.776 16.3433 262.104 16.8589 262.342 17.4853C262.581 18.1075 262.7 18.8489 262.7 19.7097V20.4192H254.653V18.8596H260.482C260.478 18.4164 260.382 18.0222 260.195 17.6771C260.007 17.3276 259.745 17.0528 259.408 16.8525C259.076 16.6522 258.688 16.5521 258.245 16.5521C257.772 16.5521 257.357 16.6671 256.999 16.8972C256.641 17.1231 256.362 17.4214 256.161 17.7921C255.965 18.1586 255.865 18.5613 255.861 19.0002V20.3617C255.861 20.9327 255.965 21.4228 256.174 21.8319C256.383 22.2367 256.675 22.5478 257.05 22.7651C257.425 22.9782 257.864 23.0847 258.367 23.0847C258.703 23.0847 259.008 23.0379 259.281 22.9441C259.553 22.8461 259.79 22.7033 259.99 22.5158C260.19 22.3283 260.342 22.0961 260.444 21.8191L262.604 22.062C262.468 22.633 262.208 23.1316 261.825 23.5577C261.445 23.9796 260.96 24.3077 260.367 24.5421C259.775 24.7722 259.097 24.8873 258.335 24.8873Z" fill="#1D2327"/>
<path d="M264.298 24.6955V14.8773H266.542V16.5137H266.644C266.823 15.9469 267.13 15.5102 267.564 15.2033C268.003 14.8923 268.504 14.7367 269.066 14.7367C269.194 14.7367 269.337 14.7431 269.495 14.7559C269.657 14.7644 269.791 14.7793 269.897 14.8006V16.9292C269.799 16.8951 269.644 16.8653 269.431 16.8397C269.222 16.8099 269.019 16.795 268.823 16.795C268.402 16.795 268.022 16.8866 267.686 17.0698C267.353 17.2488 267.091 17.4981 266.899 17.8177C266.708 18.1373 266.612 18.5059 266.612 18.9235V24.6955H264.298Z" fill="#1D2327"/>
<line opacity="0.25" x1="95.793" y1="10.6956" x2="95.793" y2="25.6956" stroke="#1D2327"/>
<defs>
<filter id="filter0_f_1499_610" x="-9.73096" y="-9.73292" width="56.7236" height="56.7234" filterUnits="userSpaceOnUse" color-interpolation-filters="sRGB">
<feFlood flood-opacity="0" result="BackgroundImageFix"/>
<feBlend mode="normal" in="SourceGraphic" in2="BackgroundImageFix" result="shape"/>
<feGaussianBlur stdDeviation="4.86646" result="effect1_foregroundBlur_1499_610"/>
</filter>
<linearGradient id="paint0_linear_1499_610" x1="34.2599" y1="8.5657" x2="6.85197" y2="31.6911" gradientUnits="userSpaceOnUse">
<stop stop-color="#41D593"/>
<stop offset="1" stop-color="#8583FD"/>
</linearGradient>
<linearGradient id="paint1_linear_1499_610" x1="34.2618" y1="8.56497" x2="6.85392" y2="31.6904" gradientUnits="userSpaceOnUse">
<stop stop-color="#2FC77E"/>
<stop offset="1" stop-color="#7554EB"/>
</linearGradient>
<radialGradient id="paint2_radial_1499_610" cx="0" cy="0" r="1" gradientUnits="userSpaceOnUse" gradientTransform="translate(25.2686 14.5604) rotate(138.311) scale(18.3511)">
<stop offset="0.377972" stop-color="white"/>
<stop offset="1" stop-color="white" stop-opacity="0"/>
</radialGradient>
<linearGradient id="paint3_linear_1499_610" x1="25.8554" y1="0.0598943" x2="18.4969" y2="28.7933" gradientUnits="userSpaceOnUse">
<stop stop-color="#33CBA3"/>
<stop offset="0.403356" stop-color="#33CBA3" stop-opacity="0.1"/>
<stop offset="1" stop-color="#33CBA3" stop-opacity="0"/>
</linearGradient>
<linearGradient id="paint4_linear_1499_610" x1="10.9631" y1="35.8014" x2="23.4026" y2="15.8282" gradientUnits="userSpaceOnUse">
<stop stop-color="#6162F2"/>
<stop offset="0.413685" stop-color="#6162F2" stop-opacity="0.1"/>
<stop offset="0.892811" stop-color="#6162F2" stop-opacity="0"/>
</linearGradient>
</defs>
</svg>
