<svg width="18" height="18" viewBox="0 0 18 18" fill="none" xmlns="http://www.w3.org/2000/svg">
<g clip-path="url(#clip0_594_667)">
<mask id="mask0_594_667" style="mask-type:luminance" maskUnits="userSpaceOnUse" x="0" y="0" width="18" height="18">
<path d="M18 0H0V18H18V0Z" fill="white"/>
</mask>
<g mask="url(#mask0_594_667)">
<path d="M9 0C4.02894 0 0 4.02894 0 9C0 13.9694 4.02894 18 9 18C13.9711 18 18 13.9711 18 9C17.9984 4.02894 13.9694 0 9 0ZM6.75041 12.7488H5.25123V5.24961H6.75041V12.7488ZM12.7488 12.7488H8.24958V11.2496H12.7488V12.7488ZM12.7488 9.74876H8.24958V8.24958H12.7488V9.74876ZM12.7488 6.74879H8.24958V5.24961H12.7488V6.74879Z" fill="white"/>
</g>
</g>
<defs>
<clipPath id="clip0_594_667">
<rect width="18" height="18" fill="white"/>
</clipPath>
</defs>
</svg>
