<svg width="18" height="18" viewBox="0 0 18 18" fill="none" xmlns="http://www.w3.org/2000/svg">
<g clip-path="url(#clip0_594_681)">
<path d="M17.4349 4.99448L13.905 0.76704V5.2904C13.905 6.16593 13.1952 6.87569 12.3197 6.87569H5.68263C4.8071 6.87569 4.09734 6.16593 4.09734 5.2904V0.449982H3.25185C1.70628 0.45289 0.45408 1.7051 0.451172 3.25066V14.7493C0.45408 16.2949 1.70629 17.5471 3.25185 17.55H14.7505C16.2961 17.5471 17.5483 16.2949 17.5512 14.7493V5.33268C17.5515 5.21009 17.5105 5.09098 17.4349 4.99448ZM12.14 14.7387H5.8623C5.57045 14.7387 5.33387 14.5021 5.33387 14.2103C5.33387 13.9185 5.57045 13.6819 5.8623 13.6819H12.14C12.4319 13.6819 12.6685 13.9185 12.6685 14.2103C12.6685 14.5021 12.4319 14.7387 12.14 14.7387ZM12.14 12.5088H5.8623C5.57045 12.5088 5.33387 12.2722 5.33387 11.9803C5.33387 11.6885 5.57045 11.4519 5.8623 11.4519H12.14C12.4319 11.4519 12.6685 11.6885 12.6685 11.9803C12.6685 12.2722 12.4319 12.5088 12.14 12.5088ZM5.1542 5.2904V0.449982H6.04196V4.30752C6.04196 4.59937 6.27855 4.83595 6.57039 4.83595C6.86224 4.83595 7.09882 4.59937 7.09882 4.30752V0.449982H12.8481V5.2904C12.8481 5.58224 12.6116 5.81883 12.3197 5.81883H5.68263C5.39079 5.81883 5.1542 5.58224 5.1542 5.2904Z" fill="white"/>
</g>
<defs>
<clipPath id="clip0_594_681">
<rect width="18" height="18" fill="white"/>
</clipPath>
</defs>
</svg>
