<svg xmlns="http://www.w3.org/2000/svg" width="36" height="36" viewBox="0 0 36 36"><rect width="100%" height="100%" fill="#cccccc"/><path fill="#999999" d="m6.98 16.96-.45-.08q.05-.36.2-.64.15-.27.38-.46.22-.18.51-.27.3-.1.63-.1.35 0 .63.1.29.1.49.28.19.18.3.41.11.24.11.52 0 .24-.06.42-.05.19-.15.32-.1.14-.25.24-.15.09-.34.15.45.15.68.44.22.29.22.74 0 .38-.14.67t-.38.49q-.24.19-.55.29-.31.11-.66.11-.38 0-.67-.09-.28-.09-.49-.26t-.36-.42-.25-.57l.38-.16q.15-.07.28-.04t.19.15l.14.24q.08.12.18.21.11.09.25.15t.34.06q.22 0 .38-.07.17-.08.28-.19.11-.12.16-.26.06-.14.06-.28 0-.19-.04-.33-.04-.15-.16-.26-.13-.1-.36-.16t-.61-.06v-.62q.32 0 .53-.06.21-.05.33-.15.13-.1.18-.24.04-.14.04-.31 0-.36-.19-.54-.2-.19-.54-.19-.15 0-.28.04-.13.05-.23.13-.11.08-.18.18-.07.11-.1.23-.06.16-.16.22-.09.05-.27.02m6.56-1.49-1.5 1.84-.18.21q.15-.07.32-.11t.36-.04q.29 0 .56.09.27.1.48.29t.33.47q.13.29.13.66 0 .36-.13.67t-.37.54q-.23.23-.56.36-.33.14-.73.14-.41 0-.73-.13t-.55-.37q-.23-.23-.35-.56-.12-.32-.12-.72 0-.36.15-.74.14-.37.45-.78l1.21-1.62q.06-.08.18-.14t.28-.06zm-1.31 4.41q.21 0 .38-.07t.3-.2q.12-.12.19-.29t.07-.37q0-.22-.06-.39-.07-.18-.19-.3t-.3-.18q-.17-.06-.37-.06-.21 0-.38.07t-.29.19q-.11.13-.18.3-.07.16-.07.36 0 .21.06.38.06.18.17.3.12.12.28.19.17.07.39.07m7.42-.51-.46.45-1.18-1.18-1.2 1.19-.46-.45 1.2-1.2-1.14-1.14.45-.46L18 17.72l1.14-1.13.46.45-1.14 1.14zm2.91-2.41-.45-.08q.05-.36.2-.64.15-.27.38-.46.22-.18.52-.27.29-.1.62-.1.35 0 .64.1.28.1.48.28t.3.41q.11.24.11.52 0 .24-.05.42-.06.19-.16.32-.1.14-.25.24-.15.09-.34.15.45.15.68.44.22.29.22.74 0 .38-.14.67t-.38.49q-.23.19-.55.29-.31.11-.66.11-.38 0-.67-.09-.28-.09-.49-.26t-.36-.42q-.14-.25-.25-.57l.38-.16q.15-.07.29-.04.13.03.19.15t.13.24q.08.12.18.21.11.09.25.15t.34.06q.22 0 .38-.07.17-.08.28-.19.11-.12.16-.26.06-.14.06-.28 0-.19-.04-.33-.04-.15-.16-.26-.12-.1-.35-.16t-.62-.06v-.62q.32 0 .53-.06.21-.05.33-.15.13-.1.18-.24t.05-.31q0-.36-.2-.54-.2-.19-.53-.19-.16 0-.29.04-.13.05-.23.13t-.17.18q-.07.11-.11.23-.06.16-.15.22-.1.05-.28.02m6.56-1.49-1.5 1.84-.18.21q.15-.07.32-.11t.37-.04q.28 0 .55.09.28.1.48.29.21.19.33.47.13.29.13.66 0 .36-.13.67t-.36.54q-.24.23-.57.36-.33.14-.73.14t-.73-.13q-.32-.13-.55-.37-.22-.23-.34-.56-.13-.32-.13-.72 0-.36.15-.74.15-.37.45-.78l1.21-1.62q.06-.08.18-.14t.28-.06zm-1.31 4.41q.21 0 .38-.07.18-.07.3-.2.13-.12.2-.29t.07-.37q0-.22-.07-.39-.07-.18-.19-.3t-.29-.18q-.18-.06-.38-.06-.21 0-.38.07-.16.07-.28.19-.12.13-.19.3-.07.16-.07.36 0 .21.06.38.06.18.17.3.12.12.29.19.16.07.38.07"/></svg>