<svg width="388" height="70" viewBox="0 0 388 70" fill="none" xmlns="http://www.w3.org/2000/svg">
<path d="M16.9464 14.5425L11.4082 9.00519C13.8194 6.82014 16.5239 4.9824 19.4434 3.54522L22.5367 10.737C20.5184 11.7617 18.6397 13.0406 16.9464 14.5425Z" fill="#97E14D"/>
<path d="M25.7182 9.35989L22.6323 2.17533C26.5183 0.732913 30.6308 -0.00376505 34.7759 1.44694e-05V7.80009C31.6897 7.79896 28.6262 8.32652 25.7182 9.35989Z" fill="#97E14D"/>
<path d="M9.08583 26.4418C8.38441 28.595 7.95919 30.8286 7.82035 33.0889H0C0.156717 29.8388 0.769138 26.6269 1.81931 23.5471L9.08583 26.4418Z" fill="#97E14D"/>
<path d="M10.3762 23.2264L3.1123 20.3232C4.59146 17.0848 6.56208 14.0942 8.95443 11.4574L14.4926 16.9947C12.8333 18.8673 11.4474 20.9654 10.3762 23.2264Z" fill="#97E14D"/>
<path d="M46.2005 34.8223H69.6045C69.6064 43.9077 66.0564 52.634 59.7122 59.1385C53.3679 65.6429 44.7321 69.4104 35.6481 69.6366C26.564 69.8628 17.7513 66.5298 11.0912 60.3491C4.43098 54.1684 0.450905 45.6297 0.000488281 36.5555H7.81949C8.22377 42.8761 10.8365 48.8537 15.2012 53.4439C19.5659 58.034 25.405 60.9448 31.6982 61.6676C37.9914 62.3904 44.3385 60.8792 49.6305 57.3982C54.9225 53.9171 58.8228 48.6875 60.65 42.6232H52.3374C50.7407 46.2226 48.0772 49.2451 44.707 51.2822C41.3368 53.3193 37.4224 54.2727 33.4927 54.0137C29.5631 53.7547 25.8077 52.2956 22.7341 49.8338C19.6606 47.372 17.4171 44.026 16.3068 40.2482C15.1965 36.4704 15.273 32.4428 16.526 28.7099C17.7789 24.9769 20.1479 21.7186 23.3127 19.3752C26.4775 17.0318 30.2856 15.7164 34.2223 15.6068C38.1589 15.4971 42.0344 16.5985 45.3248 18.7621L56.4894 7.59947C53.965 5.57667 51.17 3.91689 48.1856 2.66835H48.1683C47.5007 2.39095 46.8158 2.13094 46.1223 1.89688L69.6473 0.042284L67.7745 23.6846C67.5404 22.9827 67.2801 22.2893 67.0029 21.6048V21.5976C65.7484 18.5475 64.0674 15.6909 62.01 13.1132L45.1247 29.9955C43.9337 27.4501 41.8449 25.4338 39.2588 24.3331C36.6727 23.2324 33.7713 23.1248 31.1107 24.031C28.4502 24.9372 26.2178 26.7933 24.8416 29.2436C23.4653 31.6939 23.0421 34.5658 23.6529 37.3088C24.2638 40.0518 25.8657 42.4729 28.1517 44.1079C30.4377 45.7429 33.2469 46.4767 36.0406 46.1687C38.8343 45.8606 41.416 44.5324 43.2907 42.4387C45.1655 40.345 46.2021 37.6325 46.2005 34.8223Z" fill="#97E14D"/>
<path d="M110.456 58.672C107.469 58.672 104.706 58.1307 102.168 57.048C99.6664 55.9653 97.4638 54.4533 95.5598 52.512C93.6931 50.5707 92.2371 48.2933 91.1918 45.68C90.1464 43.0667 89.6238 40.2107 89.6238 37.112C89.6238 34.0133 90.1278 31.1573 91.1358 28.544C92.1811 25.8933 93.6371 23.616 95.5038 21.712C97.4078 19.7707 99.6291 18.2773 102.168 17.232C104.706 16.1493 107.469 15.608 110.456 15.608C113.442 15.608 116.112 16.112 118.464 17.12C120.853 18.128 122.869 19.472 124.512 21.152C126.154 22.7947 127.33 24.6053 128.04 26.584L121.208 29.776C120.424 27.6853 119.098 25.968 117.232 24.624C115.365 23.2427 113.106 22.552 110.456 22.552C107.842 22.552 105.528 23.168 103.512 24.4C101.533 25.632 99.9838 27.3307 98.8638 29.496C97.7811 31.6613 97.2398 34.2 97.2398 37.112C97.2398 40.024 97.7811 42.5813 98.8638 44.784C99.9838 46.9493 101.533 48.648 103.512 49.88C105.528 51.112 107.842 51.728 110.456 51.728C113.106 51.728 115.365 51.056 117.232 49.712C119.098 48.3307 120.424 46.5947 121.208 44.504L128.04 47.696C127.33 49.6747 126.154 51.504 124.512 53.184C122.869 54.8267 120.853 56.152 118.464 57.16C116.112 58.168 113.442 58.672 110.456 58.672Z" fill="white"/>
<path d="M134.223 58V16.28H149.735C152.572 16.28 155.074 16.8027 157.239 17.848C159.442 18.856 161.159 20.3493 162.391 22.328C163.623 24.2693 164.239 26.64 164.239 29.44C164.239 32.3147 163.548 34.76 162.167 36.776C160.823 38.792 158.994 40.2853 156.679 41.256L166.255 58H157.631L147.383 39.688L152.311 42.6H141.839V58H134.223ZM141.839 35.88H149.847C151.228 35.88 152.423 35.6187 153.431 35.096C154.439 34.536 155.223 33.7707 155.783 32.8C156.343 31.8293 156.623 30.7093 156.623 29.44C156.623 28.1333 156.343 27.0133 155.783 26.08C155.223 25.1093 154.439 24.3627 153.431 23.84C152.423 23.28 151.228 23 149.847 23H141.839V35.88Z" fill="white"/>
<path d="M181.34 58V39.52L167.284 16.28H175.964L186.716 34.424H183.636L194.332 16.28H203.012L189.012 39.464V58H181.34Z" fill="white"/>
<path d="M207.668 58V16.28H223.236C226.074 16.28 228.575 16.8027 230.74 17.848C232.943 18.856 234.66 20.3493 235.892 22.328C237.124 24.2693 237.74 26.64 237.74 29.44C237.74 32.2027 237.106 34.5733 235.836 36.552C234.604 38.4933 232.906 39.9867 230.74 41.032C228.575 42.0773 226.074 42.6 223.236 42.6H215.284V58H207.668ZM215.284 35.88H223.348C224.73 35.88 225.924 35.6187 226.932 35.096C227.94 34.536 228.724 33.7707 229.284 32.8C229.844 31.8293 230.124 30.7093 230.124 29.44C230.124 28.1333 229.844 27.0133 229.284 26.08C228.724 25.1093 227.94 24.3627 226.932 23.84C225.924 23.28 224.73 23 223.348 23H215.284V35.88Z" fill="white"/>
<path d="M263.581 58.672C260.594 58.672 257.831 58.1307 255.293 57.048C252.791 55.9653 250.589 54.4533 248.685 52.512C246.818 50.5707 245.362 48.2933 244.317 45.68C243.271 43.0667 242.749 40.2107 242.749 37.112C242.749 34.0133 243.253 31.1573 244.261 28.544C245.306 25.8933 246.762 23.616 248.629 21.712C250.533 19.7707 252.754 18.2773 255.293 17.232C257.831 16.1493 260.594 15.608 263.581 15.608C266.567 15.608 269.237 16.112 271.589 17.12C273.978 18.128 275.994 19.472 277.637 21.152C279.279 22.7947 280.455 24.6053 281.165 26.584L274.333 29.776C273.549 27.6853 272.223 25.968 270.357 24.624C268.49 23.2427 266.231 22.552 263.581 22.552C260.967 22.552 258.653 23.168 256.637 24.4C254.658 25.632 253.109 27.3307 251.989 29.496C250.906 31.6613 250.365 34.2 250.365 37.112C250.365 40.024 250.906 42.5813 251.989 44.784C253.109 46.9493 254.658 48.648 256.637 49.88C258.653 51.112 260.967 51.728 263.581 51.728C266.231 51.728 268.49 51.056 270.357 49.712C272.223 48.3307 273.549 46.5947 274.333 44.504L281.165 47.696C280.455 49.6747 279.279 51.504 277.637 53.184C275.994 54.8267 273.978 56.152 271.589 57.16C269.237 58.168 266.567 58.672 263.581 58.672Z" fill="white"/>
<path d="M307.9 58.672C304.839 58.672 301.983 58.1307 299.332 57.048C296.681 55.9653 294.367 54.4533 292.388 52.512C290.409 50.5707 288.86 48.2933 287.74 45.68C286.657 43.0293 286.116 40.1733 286.116 37.112C286.116 34.0133 286.657 31.1573 287.74 28.544C288.823 25.9307 290.353 23.6533 292.332 21.712C294.311 19.7707 296.625 18.2773 299.276 17.232C301.927 16.1493 304.801 15.608 307.9 15.608C310.999 15.608 313.873 16.1493 316.524 17.232C319.175 18.3147 321.489 19.8267 323.468 21.768C325.447 23.672 326.977 25.9307 328.06 28.544C329.18 31.1573 329.74 34.0133 329.74 37.112C329.74 40.1733 329.18 43.0293 328.06 45.68C326.94 48.2933 325.391 50.5707 323.412 52.512C321.433 54.4533 319.119 55.9653 316.468 57.048C313.855 58.1307 310.999 58.672 307.9 58.672ZM307.9 51.728C309.953 51.728 311.839 51.3733 313.556 50.664C315.273 49.9173 316.767 48.8907 318.036 47.584C319.343 46.2773 320.332 44.728 321.004 42.936C321.713 41.144 322.068 39.2027 322.068 37.112C322.068 35.0213 321.713 33.0987 321.004 31.344C320.332 29.552 319.343 28.0027 318.036 26.696C316.767 25.352 315.273 24.3253 313.556 23.616C311.839 22.9067 309.953 22.552 307.9 22.552C305.884 22.552 304.017 22.9067 302.3 23.616C300.583 24.3253 299.071 25.352 297.764 26.696C296.495 28.0027 295.505 29.552 294.796 31.344C294.087 33.0987 293.732 35.0213 293.732 37.112C293.732 39.2027 294.087 41.144 294.796 42.936C295.505 44.728 296.495 46.2773 297.764 47.584C299.071 48.8907 300.583 49.9173 302.3 50.664C304.017 51.3733 305.884 51.728 307.9 51.728Z" fill="white"/>
<path d="M336.512 58V16.28H344.128V58H336.512Z" fill="white"/>
<path d="M352.153 58V16.28H358.089L381.049 47.192L377.969 47.808V16.28H385.585V58H379.593L356.969 26.864L359.769 26.248V58H352.153Z" fill="white"/>
</svg>
