<svg xmlns="http://www.w3.org/2000/svg" width="538" height="86" viewBox="0 0 538 86" fill="none"><path d="M278.743 2C272.798 30.7045 291.159 59.8133 250.492 76.6777L263.987 46.6143L253.61 47.4775L265.163 18.2256L237.644 58.4492L248.02 57.5869L238.036 73.9258C212.849 51.346 226.855 18.9651 278.743 2Z" fill="url(#paint0_linear_1137_881)"></path><path d="M27.3422 12.3127C39.0488 12.3127 48.3541 18.2411 51.7311 28.7471H39.6492C37.2478 24.3196 32.8953 21.9933 27.3422 21.9933C17.9618 21.9933 11.4331 28.6721 11.4331 39.103C11.4331 49.7591 18.0369 56.3628 27.7924 56.3628C35.897 56.3628 41.075 51.7102 42.6509 44.281H24.6406V36.2514H53.0068V45.4066C50.9056 56.0627 41.3752 65.8182 27.4172 65.8182C12.1835 65.8182 0.626953 54.7869 0.626953 39.103C0.626953 23.4191 12.1835 12.3127 27.3422 12.3127Z" fill="#F7F7F7"></path><path d="M68.2838 44.6562V65.368H57.7779V23.7943H68.2838V30.248C70.9103 25.9705 75.2628 23.1939 81.0411 23.1939V34.2252H78.2645C72.036 34.2252 68.2838 36.6266 68.2838 44.6562Z" fill="#F7F7F7"></path><path d="M102.976 31.7488C97.948 31.7488 93.9707 34.9757 93.1453 40.6789H112.882C112.731 35.2008 108.379 31.7488 102.976 31.7488ZM122.712 52.3105C120.461 59.9649 113.557 66.0433 103.276 66.0433C91.1942 66.0433 82.4142 57.6386 82.4142 44.5811C82.4142 31.4486 90.969 23.1189 103.276 23.1189C115.283 23.1189 123.763 31.2986 123.763 43.6806C123.763 45.0314 123.688 46.3821 123.463 47.7329H93.0702C93.5955 53.8864 97.7979 57.3384 103.051 57.3384C107.553 57.3384 110.03 55.0871 111.381 52.3105H122.712Z" fill="#F7F7F7"></path><path d="M146.29 31.7488C141.262 31.7488 137.284 34.9757 136.459 40.6789H156.195C156.045 35.2008 151.693 31.7488 146.29 31.7488ZM166.026 52.3105C163.775 59.9649 156.871 66.0433 146.59 66.0433C134.508 66.0433 125.728 57.6386 125.728 44.5811C125.728 31.4486 134.283 23.1189 146.59 23.1189C158.597 23.1189 167.076 31.2986 167.076 43.6806C167.076 45.0314 167.001 46.3821 166.776 47.7329H136.384C136.909 53.8864 141.112 57.3384 146.365 57.3384C150.867 57.3384 153.344 55.0871 154.694 52.3105H166.026Z" fill="#F7F7F7"></path><path d="M200.86 65.368V42.4049C200.86 35.7261 197.183 32.124 191.629 32.124C185.926 32.124 182.249 35.7261 182.249 42.4049V65.368H171.743V23.7943H182.249V28.9722C184.951 25.4452 189.453 23.1939 194.781 23.1939C204.462 23.1939 211.366 29.4975 211.366 40.9791V65.368H200.86Z" fill="#F7F7F7"></path><path d="M333.626 43.2304C333.626 44.5311 333.551 45.9069 333.401 47.3577H300.532C300.782 51.41 302.158 54.5868 304.66 56.8881C307.211 59.1394 310.288 60.2651 313.89 60.2651C316.842 60.2651 319.293 59.5897 321.244 58.2389C323.245 56.8381 324.646 54.987 325.446 52.6857H332.801C331.7 56.638 329.499 59.8648 326.197 62.3663C322.895 64.8176 318.793 66.0433 313.89 66.0433C309.988 66.0433 306.486 65.1678 303.384 63.4169C300.332 61.6659 297.931 59.1894 296.18 55.9876C294.429 52.7358 293.553 48.9836 293.553 44.7312C293.553 40.4788 294.404 36.7517 296.105 33.5498C297.806 30.348 300.182 27.8966 303.234 26.1957C306.336 24.4447 309.888 23.5692 313.89 23.5692C317.792 23.5692 321.244 24.4196 324.246 26.1206C327.247 27.8216 329.549 30.1729 331.15 33.1746C332.801 36.1263 333.626 39.4782 333.626 43.2304ZM326.572 41.8045C326.572 39.2031 325.997 36.9768 324.846 35.1257C323.695 33.2247 322.12 31.7988 320.118 30.8483C318.167 29.8477 315.991 29.3474 313.59 29.3474C310.138 29.3474 307.186 30.4481 304.735 32.6493C302.333 34.8506 300.958 37.9023 300.607 41.8045H326.572Z" fill="#F7F7F7"></path><path d="M359.675 23.4941C364.678 23.4941 368.73 25.02 371.832 28.0717C374.933 31.0734 376.484 35.4259 376.484 41.1292V65.368H369.73V42.1047C369.73 38.0024 368.705 34.8756 366.654 32.7244C364.603 30.5231 361.801 29.4225 358.249 29.4225C354.647 29.4225 351.77 30.5481 349.619 32.7994C347.518 35.0507 346.467 38.3276 346.467 42.63V65.368H339.638V24.2445H346.467V30.0979C347.818 27.9967 349.644 26.3708 351.945 25.2201C354.297 24.0694 356.873 23.4941 359.675 23.4941Z" fill="#F7F7F7"></path><path d="M422.159 43.2304C422.159 44.5311 422.084 45.9069 421.934 47.3577H389.065C389.315 51.41 390.691 54.5868 393.192 56.8881C395.744 59.1394 398.821 60.2651 402.423 60.2651C405.374 60.2651 407.826 59.5897 409.777 58.2389C411.778 56.8381 413.179 54.987 413.979 52.6857H421.334C420.233 56.638 418.032 59.8648 414.73 62.3663C411.428 64.8176 407.326 66.0433 402.423 66.0433C398.521 66.0433 395.019 65.1678 391.917 63.4169C388.865 61.6659 386.464 59.1894 384.713 55.9876C382.962 52.7358 382.086 48.9836 382.086 44.7312C382.086 40.4788 382.937 36.7517 384.638 33.5498C386.339 30.348 388.715 27.8966 391.767 26.1957C394.868 24.4447 398.42 23.5692 402.423 23.5692C406.325 23.5692 409.777 24.4196 412.779 26.1206C415.78 27.8216 418.082 30.1729 419.683 33.1746C421.334 36.1263 422.159 39.4782 422.159 43.2304ZM415.105 41.8045C415.105 39.2031 414.53 36.9768 413.379 35.1257C412.228 33.2247 410.652 31.7988 408.651 30.8483C406.7 29.8477 404.524 29.3474 402.123 29.3474C398.671 29.3474 395.719 30.4481 393.268 32.6493C390.866 34.8506 389.49 37.9023 389.14 41.8045H415.105Z" fill="#F7F7F7"></path><path d="M435 30.9233C436.201 28.572 437.902 26.746 440.103 25.4452C442.354 24.1445 445.081 23.4941 448.283 23.4941V30.5481H446.482C438.827 30.5481 435 34.7005 435 43.0052V65.368H428.171V24.2445H435V30.9233Z" fill="#F7F7F7"></path><path d="M470.124 23.5692C473.676 23.5692 476.777 24.3446 479.429 25.8955C482.13 27.4464 484.132 29.3975 485.432 31.7488V24.2445H492.336V66.2685C492.336 70.0206 491.536 73.3475 489.935 76.2492C488.334 79.2008 486.033 81.5022 483.031 83.1531C480.079 84.804 476.627 85.6295 472.675 85.6295C467.272 85.6295 462.769 84.3538 459.167 81.8023C455.565 79.2509 453.439 75.7739 452.789 71.3714H459.543C460.293 73.8728 461.844 75.8739 464.195 77.3748C466.547 78.9257 469.373 79.7011 472.675 79.7011C476.427 79.7011 479.479 78.5255 481.83 76.1741C484.232 73.8228 485.432 70.5209 485.432 66.2685V57.6386C484.082 60.0399 482.08 62.0411 479.429 63.642C476.777 65.2429 473.676 66.0433 470.124 66.0433C466.472 66.0433 463.145 65.1428 460.143 63.3418C457.191 61.5408 454.865 59.0143 453.164 55.7625C451.463 52.5106 450.612 48.8085 450.612 44.6562C450.612 40.4538 451.463 36.7767 453.164 33.6249C454.865 30.4231 457.191 27.9466 460.143 26.1957C463.145 24.4447 466.472 23.5692 470.124 23.5692ZM485.432 44.7312C485.432 41.6294 484.807 38.9279 483.556 36.6266C482.306 34.3253 480.605 32.5743 478.453 31.3736C476.352 30.1229 474.026 29.4975 471.474 29.4975C468.923 29.4975 466.597 30.0979 464.495 31.2986C462.394 32.4992 460.718 34.2502 459.468 36.5515C458.217 38.8529 457.591 41.5544 457.591 44.6562C457.591 47.808 458.217 50.5595 459.468 52.9109C460.718 55.2122 462.394 56.9882 464.495 58.2389C466.597 59.4396 468.923 60.0399 471.474 60.0399C474.026 60.0399 476.352 59.4396 478.453 58.2389C480.605 56.9882 482.306 55.2122 483.556 52.9109C484.807 50.5595 485.432 47.833 485.432 44.7312Z" fill="#F7F7F7"></path><path d="M536.295 24.2445L511.531 84.729H504.477L512.581 64.9177L495.997 24.2445H503.576L516.484 57.5635L529.241 24.2445H536.295Z" fill="#F7F7F7"></path><defs><linearGradient id="paint0_linear_1137_881" x1="249.405" y1="6.0937" x2="259.205" y2="76.327" gradientUnits="userSpaceOnUse"><stop stop-color="#00913F"></stop><stop offset="1" stop-color="#A1CC38"></stop></linearGradient></defs></svg>