<svg width="334" height="60" viewBox="0 0 334 60" fill="none" xmlns="http://www.w3.org/2000/svg">
<path d="M0.21582 5.86359H11.8438V44.6236H27.0758V53.5996H0.21582V5.86359Z" fill="white"/>
<path d="M77.5701 29.5956C77.5701 43.9436 66.6901 54.0756 53.1581 54.0756C39.6261 54.0756 28.6101 43.9436 28.6101 29.5956C28.6101 15.2476 39.6261 5.18359 53.1581 5.18359C66.7581 5.18359 77.5701 15.2476 77.5701 29.5956ZM40.5101 29.5956C40.5101 37.9596 45.4061 43.4676 53.1581 43.4676C60.7741 43.4676 65.7381 37.9596 65.7381 29.5956C65.7381 21.0956 60.7741 15.7236 53.1581 15.7236C45.4061 15.7236 40.5101 21.0956 40.5101 29.5956Z" fill="white"/>
<path d="M104.303 5.31959C115.727 5.31959 124.023 11.1676 126.539 20.9596H113.687C111.919 17.7636 108.655 16.0636 104.303 16.0636C96.8231 16.0636 91.8591 21.3676 91.8591 29.6636C91.8591 38.5036 96.8911 43.6716 105.255 43.6716C111.035 43.6716 115.047 40.6116 116.815 35.2396H102.059V26.6716H127.355V37.4836C124.907 45.7116 116.951 53.9396 104.371 53.9396C90.0911 53.9396 80.0271 43.9436 80.0271 29.6636C80.0271 15.3836 90.0231 5.31959 104.303 5.31959Z" fill="white"/>
<path d="M131.756 53.5996V5.86359H143.384V53.5996H131.756Z" fill="white"/>
<path d="M184.451 39.3876C184.451 47.4116 178.195 54.0756 167.043 54.0756C156.775 54.0756 148.751 48.9756 148.411 39.3196H160.787C161.127 42.9916 163.439 44.7596 166.703 44.7596C170.103 44.7596 172.279 43.0596 172.279 40.2716C172.279 31.4316 148.411 36.1916 148.547 19.2596C148.547 10.2156 155.959 5.18359 165.955 5.18359C176.359 5.18359 183.363 10.3516 183.839 19.4636H171.259C171.055 16.4036 168.879 14.5676 165.751 14.4996C162.963 14.4316 160.855 15.8596 160.855 18.8516C160.855 27.1476 184.451 23.4076 184.451 39.3876Z" fill="white"/>
<path d="M186.983 15.1796V5.86359H223.907V15.1796H211.259V53.5996H199.631V15.1796H186.983Z" fill="white"/>
<path d="M227.702 53.5996V5.86359H239.33V53.5996H227.702Z" fill="white"/>
<path d="M302.302 29.9351L289.577 42.6831L289.561 42.6974L273.165 59.1108H273.179L273.165 59.1251H247.781L247.795 59.1108H247.781L276.918 29.9354L247.768 0.758559H247.795L247.781 0.745117H273.165L273.179 0.758559H273.151L302.302 29.9351Z" fill="#FFC700"/>
<path d="M332.706 29.9351L319.981 42.6831L319.966 42.6974L303.568 59.1108H303.583L303.568 59.1251H278.185L278.2 59.1108H278.185L307.323 29.9354L278.172 0.758559H278.2L278.185 0.745117H303.569L303.583 0.758559H303.555L332.706 29.9351Z" fill="#FFC700"/>
<g style="mix-blend-mode:multiply" opacity="0.3">
<path d="M289.576 42.6828L289.561 42.6971L273.426 33.433L276.873 29.9795L289.576 42.6828Z" fill="black"/>
<path d="M319.981 42.6828L319.966 42.6971L303.83 33.433L307.277 29.9795L319.981 42.6828Z" fill="black"/>
</g>
</svg>
