<svg xmlns="http://www.w3.org/2000/svg" width="454" height="72" viewBox="0 0 454 72" fill="none"><g clip-path="url(#clip0_1137_875)"><path d="M233.155 -0.000244141C228.176 24.0437 243.556 48.4266 209.49 62.5525L220.794 37.3699L212.103 38.0925L221.779 13.5906L198.73 47.283L207.421 46.5603L199.058 60.2458C177.962 41.3326 189.693 14.2099 233.155 -0.000244141Z" fill="url(#paint0_linear_1137_875)"></path><path d="M22.5773 8.08374C32.3831 8.08374 40.1773 13.0495 43.0059 21.8495H32.8859C30.8745 18.1409 27.2288 16.1923 22.5773 16.1923C14.7202 16.1923 9.25162 21.7866 9.25162 30.5237C9.25162 39.4495 14.7831 44.9809 22.9545 44.9809C29.7431 44.9809 34.0802 41.0837 35.4002 34.8609H20.3145V28.1352H44.0745V35.8037C42.3145 44.7295 34.3316 52.9009 22.6402 52.9009C9.8802 52.9009 0.200195 43.6609 0.200195 30.5237C0.200195 17.3866 9.8802 8.08374 22.5773 8.08374Z" fill="#282828"></path><path d="M56.8708 35.1752V52.5237H48.0708V17.7009H56.8708V23.1066C59.0708 19.5237 62.7165 17.198 67.5565 17.198V26.438H65.2308C60.0137 26.438 56.8708 28.4495 56.8708 35.1752Z" fill="#282828"></path><path d="M85.9295 24.3637C81.7181 24.3637 78.3866 27.0666 77.6952 31.8437H94.2266C94.1009 27.2552 90.4552 24.3637 85.9295 24.3637ZM102.461 41.5866C100.575 47.998 94.7923 53.0895 86.1809 53.0895C76.0609 53.0895 68.7066 46.0495 68.7066 35.1123C68.7066 24.1123 75.8723 17.1352 86.1809 17.1352C96.2381 17.1352 103.341 23.9866 103.341 34.358C103.341 35.4895 103.278 36.6209 103.089 37.7523H77.6323C78.0723 42.9066 81.5923 45.798 85.9923 45.798C89.7638 45.798 91.8381 43.9123 92.9695 41.5866H102.461Z" fill="#282828"></path><path d="M122.21 24.3637C117.998 24.3637 114.667 27.0666 113.976 31.8437H130.507C130.381 27.2552 126.736 24.3637 122.21 24.3637ZM138.741 41.5866C136.856 47.998 131.073 53.0895 122.461 53.0895C112.341 53.0895 104.987 46.0495 104.987 35.1123C104.987 24.1123 112.153 17.1352 122.461 17.1352C132.518 17.1352 139.621 23.9866 139.621 34.358C139.621 35.4895 139.558 36.6209 139.37 37.7523H113.913C114.353 42.9066 117.873 45.798 122.273 45.798C126.044 45.798 128.118 43.9123 129.25 41.5866H138.741Z" fill="#282828"></path><path d="M167.919 52.5237V33.2895C167.919 27.6952 164.839 24.678 160.187 24.678C155.41 24.678 152.33 27.6952 152.33 33.2895V52.5237H143.53V17.7009H152.33V22.038C154.593 19.0837 158.364 17.198 162.827 17.198C170.936 17.198 176.719 22.478 176.719 32.0952V52.5237H167.919Z" fill="#282828"></path><path d="M279.126 33.9809C279.126 35.0704 279.063 36.2228 278.937 37.438H251.406C251.615 40.8323 252.768 43.4933 254.863 45.4209C257 47.3066 259.577 48.2495 262.594 48.2495C265.067 48.2495 267.12 47.6837 268.754 46.5523C270.431 45.379 271.604 43.8285 272.274 41.9009H278.434C277.513 45.2114 275.669 47.9142 272.903 50.0095C270.137 52.0628 266.701 53.0895 262.594 53.0895C259.326 53.0895 256.393 52.3561 253.794 50.8895C251.238 49.4228 249.227 47.3485 247.76 44.6666C246.293 41.9428 245.56 38.7999 245.56 35.238C245.56 31.6761 246.273 28.5542 247.697 25.8723C249.122 23.1904 251.113 21.1371 253.669 19.7123C256.267 18.2456 259.242 17.5123 262.594 17.5123C265.863 17.5123 268.754 18.2247 271.269 19.6495C273.783 21.0742 275.711 23.0437 277.052 25.558C278.434 28.0304 279.126 30.838 279.126 33.9809ZM273.217 32.7866C273.217 30.6075 272.735 28.7428 271.772 27.1923C270.808 25.5999 269.488 24.4056 267.812 23.6095C266.177 22.7714 264.354 22.3523 262.343 22.3523C259.452 22.3523 256.979 23.2742 254.926 25.118C252.914 26.9618 251.762 29.518 251.469 32.7866H273.217Z" fill="#282828"></path><path d="M300.945 17.4495C305.135 17.4495 308.529 18.7275 311.128 21.2837C313.726 23.798 315.025 27.4437 315.025 32.2209V52.5237H309.368V33.038C309.368 29.6018 308.509 26.9828 306.79 25.1809C305.072 23.3371 302.726 22.4152 299.75 22.4152C296.733 22.4152 294.324 23.358 292.522 25.2437C290.762 27.1295 289.882 29.8742 289.882 33.478V52.5237H284.162V18.078H289.882V22.9809C291.013 21.2209 292.543 19.859 294.47 18.8952C296.44 17.9314 298.598 17.4495 300.945 17.4495Z" fill="#282828"></path><path d="M353.283 33.9809C353.283 35.0704 353.22 36.2228 353.094 37.438H325.563C325.772 40.8323 326.924 43.4933 329.02 45.4209C331.157 47.3066 333.734 48.2495 336.751 48.2495C339.224 48.2495 341.277 47.6837 342.911 46.5523C344.587 45.379 345.761 43.8285 346.431 41.9009H352.591C351.669 45.2114 349.825 47.9142 347.06 50.0095C344.294 52.0628 340.858 53.0895 336.751 53.0895C333.483 53.0895 330.549 52.3561 327.951 50.8895C325.395 49.4228 323.384 47.3485 321.917 44.6666C320.45 41.9428 319.717 38.7999 319.717 35.238C319.717 31.6761 320.429 28.5542 321.854 25.8723C323.279 23.1904 325.269 21.1371 327.825 19.7123C330.424 18.2456 333.399 17.5123 336.751 17.5123C340.02 17.5123 342.911 18.2247 345.425 19.6495C347.94 21.0742 349.867 23.0437 351.208 25.558C352.591 28.0304 353.283 30.838 353.283 33.9809ZM347.374 32.7866C347.374 30.6075 346.892 28.7428 345.928 27.1923C344.964 25.5999 343.644 24.4056 341.968 23.6095C340.334 22.7714 338.511 22.3523 336.5 22.3523C333.608 22.3523 331.136 23.2742 329.083 25.118C327.071 26.9618 325.919 29.518 325.625 32.7866H347.374Z" fill="#282828"></path><path d="M364.039 23.6723C365.044 21.7028 366.469 20.1733 368.313 19.0837C370.199 17.9942 372.482 17.4495 375.164 17.4495V23.358H373.656C367.244 23.358 364.039 26.8361 364.039 33.7923V52.5237H358.319V18.078H364.039V23.6723Z" fill="#282828"></path><path d="M393.459 17.5123C396.434 17.5123 399.032 18.1618 401.253 19.4609C403.516 20.7599 405.192 22.3942 406.281 24.3637V18.078H412.064V53.278C412.064 56.4209 411.394 59.2075 410.053 61.638C408.712 64.1104 406.784 66.038 404.27 67.4209C401.798 68.8037 398.906 69.4952 395.596 69.4952C391.07 69.4952 387.299 68.4266 384.281 66.2895C381.264 64.1523 379.483 61.2399 378.939 57.5523H384.596C385.224 59.6475 386.523 61.3237 388.493 62.5809C390.462 63.8799 392.83 64.5295 395.596 64.5295C398.739 64.5295 401.295 63.5447 403.264 61.5752C405.276 59.6056 406.281 56.8399 406.281 53.278V46.0495C405.15 48.0609 403.474 49.7371 401.253 51.078C399.032 52.419 396.434 53.0895 393.459 53.0895C390.4 53.0895 387.613 52.3352 385.099 50.8266C382.626 49.318 380.678 47.2018 379.253 44.478C377.828 41.7542 377.116 38.6533 377.116 35.1752C377.116 31.6552 377.828 28.5752 379.253 25.9352C380.678 23.2533 382.626 21.179 385.099 19.7123C387.613 18.2456 390.4 17.5123 393.459 17.5123ZM406.281 35.238C406.281 32.6399 405.758 30.3771 404.71 28.4495C403.662 26.5218 402.238 25.0552 400.436 24.0495C398.676 23.0018 396.727 22.478 394.59 22.478C392.453 22.478 390.504 22.9809 388.744 23.9866C386.984 24.9923 385.581 26.459 384.533 28.3866C383.485 30.3142 382.961 32.5771 382.961 35.1752C382.961 37.8152 383.485 40.1199 384.533 42.0895C385.581 44.0171 386.984 45.5047 388.744 46.5523C390.504 47.558 392.453 48.0609 394.59 48.0609C396.727 48.0609 398.676 47.558 400.436 46.5523C402.238 45.5047 403.662 44.0171 404.71 42.0895C405.758 40.1199 406.281 37.8361 406.281 35.238Z" fill="#282828"></path><path d="M448.885 18.078L428.142 68.7409H422.233L429.022 52.1466L415.131 18.078H421.479L432.291 45.9866L442.976 18.078H448.885Z" fill="#282828"></path></g><defs><linearGradient id="paint0_linear_1137_875" x1="208.579" y1="3.42866" x2="216.788" y2="62.2581" gradientUnits="userSpaceOnUse"><stop stop-color="#00913F"></stop><stop offset="1" stop-color="#A1CC38"></stop></linearGradient><clipPath id="clip0_1137_875"><rect width="454" height="72" fill="white"></rect></clipPath></defs></svg>