<svg width="148" height="148" viewBox="0 0 148 148" fill="none" xmlns="http://www.w3.org/2000/svg">
<g clip-path="url(#clip0_1118_216)">
<path d="M36.0103 30.8934L24.2418 19.13C29.3655 14.488 35.1125 10.584 41.3164 7.53082L47.8898 22.809C43.6009 24.9858 39.6086 27.7027 36.0103 30.8934Z" fill="#97E14D"/>
<path d="M54.6511 19.8841L48.0937 4.62127C56.3514 1.557 65.0903 -0.00799844 73.8987 3.07387e-05V16.5705C67.3406 16.5681 60.8305 17.6888 54.6511 19.8841Z" fill="#97E14D"/>
<path d="M19.3073 56.1733C17.8168 60.7476 16.9132 65.4926 16.6182 70.2944H0C0.333023 63.39 1.63441 56.5665 3.86602 50.0239L19.3073 56.1733Z" fill="#97E14D"/>
<path d="M22.0484 49.3423L6.6128 43.1748C9.75599 36.2951 13.9435 29.942 19.0273 24.3403L30.7958 36.1037C27.2698 40.0819 24.3247 44.539 22.0484 49.3423Z" fill="#97E14D"/>
<path d="M98.1753 73.9764H147.909C147.913 93.2774 140.369 111.815 126.888 125.634C113.406 139.452 95.0551 147.455 75.7516 147.936C56.4481 148.416 37.7212 141.336 23.5684 128.205C9.41562 115.075 0.957996 96.9356 0.000864419 77.6583H16.6162C17.4753 91.0858 23.0273 103.785 32.3023 113.536C41.5772 123.287 53.9852 129.471 67.3582 131.006C80.7311 132.542 94.2187 129.332 105.464 121.937C116.71 114.541 124.998 103.432 128.881 90.5486H111.216C107.823 98.1951 102.163 104.616 95.0018 108.944C87.8402 113.271 79.522 115.297 71.1715 114.746C62.821 114.196 54.8409 111.097 48.3096 105.867C41.7784 100.637 37.0109 93.5287 34.6516 85.5031C32.2922 77.4775 32.4548 68.9214 35.1173 60.9911C37.7798 53.0609 42.8139 46.1389 49.5391 41.1606C56.2643 36.1824 64.3565 33.3879 72.7218 33.155C81.0872 32.922 89.3224 35.2618 96.3145 39.8581L120.039 16.1444C114.675 11.8471 108.736 8.32108 102.394 5.66871H102.357C100.938 5.0794 99.4829 4.52703 98.0093 4.02979L148 0.0898995L144.02 50.3156C143.522 48.8244 142.969 47.3514 142.38 45.8972V45.8819C139.715 39.4023 136.142 33.3338 131.77 27.8577L95.8893 63.7224C93.3584 58.3149 88.9198 54.0314 83.4243 51.6932C77.9289 49.3549 71.7634 49.1264 66.1098 51.0515C60.4563 52.9765 55.7125 56.9197 52.788 62.125C49.8634 67.3303 48.964 73.4315 50.262 79.2588C51.5601 85.086 54.9642 90.2294 59.8219 93.7027C64.6797 97.176 70.649 98.7349 76.5857 98.0806C82.5223 97.4262 88.0084 94.6046 91.9922 90.1566C95.976 85.7087 98.1771 79.9475 98.1736 73.9776L98.1753 73.9764Z" fill="#97E14D"/>
</g>
<defs>
<clipPath id="clip0_1118_216">
<rect width="148" height="148" fill="white"/>
</clipPath>
</defs>
</svg>
