<svg width="362" height="84" viewBox="0 0 362 84" fill="none" xmlns="http://www.w3.org/2000/svg">
<g clip-path="url(#clip0_1353_652)">
<path d="M190.415 83.9706C203.375 68.8678 205.665 70.7508 211.883 44.8784C212.478 42.4047 208.696 36.7267 205.334 33.4445C201.483 29.6853 181.958 8.75955 163.143 8.24806C144.328 7.73656 140.735 22.7849 140.732 32.8754C140.723 61.847 173.776 83.9706 190.415 83.9706Z" fill="url(#paint0_radial_1353_652)"/>
<path style="mix-blend-mode:multiply" d="M178.226 12.393H178.225C162.428 7.50799 157.592 19.1867 162.854 27.7506C168.116 36.3145 177.921 39.6447 187.877 37.0866C194.917 35.2772 195.897 31.9786 201.44 29.0988C199.44 27.1173 198.08 26.3255 194.571 23.3781C189.969 19.5119 184.31 15.3669 178.226 12.393Z" fill="url(#paint1_linear_1353_652)"/>
<path d="M240.224 32.8754C239.655 22.8006 236.629 7.73642 217.813 8.24805C198.998 8.75968 185.256 26.5613 179.197 25.6097C174.544 24.8788 172.958 24.8366 172.23 26.4893C170.399 30.6379 179.476 41.3695 191.078 35.9729C201.959 30.9124 207.76 36.2834 202.002 52.5822C196.077 69.3529 179.914 86.9841 192.43 83.5728C195.487 82.7397 198.224 81.2862 200.743 79.3235C209.442 80.0381 213.365 74.5709 217.117 71.1255C232.97 69.3803 240.922 45.2277 240.224 32.8754Z" fill="url(#paint2_radial_1353_652)"/>
<path d="M200.699 79.3435C202.042 79.4609 203.393 79.4166 204.725 79.2117C210.311 72.0467 214.032 64.9994 216.902 53.7C214.151 61.0743 207.322 74.4026 200.699 79.3435Z" fill="url(#paint3_linear_1353_652)"/>
<path d="M217.121 71.1247C218.57 70.9644 219.991 70.6131 221.346 70.0803C225.564 64.228 227.075 59.1734 230.081 49.77C227.332 57.1425 221.574 66.2281 217.121 71.1247Z" fill="url(#paint4_linear_1353_652)"/>
<path d="M27.24 59.9998H3L8.46 20.9998H31.86L31.26 25.3198H16.14L14.34 38.1598H27.72L27.06 42.3598H13.8L11.94 55.6798H27.84L27.24 59.9998Z" fill="#0E2A62"/>
<path d="M41.3048 59.9998H33.3248L39.6248 15.2398L47.6648 14.7598L41.3048 59.9998Z" fill="#0E2A62"/>
<path d="M67.2848 59.9998L66.7448 57.2998H66.6848C66.6848 57.4198 66.4048 57.7598 65.8448 58.3198C65.2848 58.8798 64.4248 59.4198 63.2648 59.9398C62.1448 60.4198 60.7248 60.6598 59.0048 60.6598C55.7248 60.6598 53.1248 59.4998 51.2048 57.1798C49.3248 54.8598 48.3848 51.7998 48.3848 47.9998C48.3848 44.4798 49.0048 41.3198 50.2448 38.5198C51.4848 35.6798 53.2248 33.4598 55.4648 31.8598C57.7048 30.2198 60.2248 29.3998 63.0248 29.3998C64.5848 29.3998 65.8648 29.5798 66.8648 29.9398C67.8648 30.2598 68.5848 30.6198 69.0248 31.0198C69.5048 31.3798 69.7448 31.5998 69.7448 31.6798H69.9248L72.2048 15.2398L80.3048 14.7598L73.9448 59.9998H67.2848ZM61.4648 55.9798C62.8248 55.9798 63.9848 55.6398 64.9448 54.9598C65.9448 54.2798 66.5848 53.7198 66.8648 53.2798L69.3248 35.9398C69.2448 35.8198 69.0448 35.6198 68.7248 35.3398C68.4048 35.0198 67.9048 34.7198 67.2248 34.4398C66.5848 34.1198 65.8048 33.9598 64.8848 33.9598C62.2048 33.9598 60.1648 35.2598 58.7648 37.8598C57.4048 40.4198 56.7248 44.2598 56.7248 49.3798C56.7248 51.7398 57.1048 53.4398 57.8648 54.4798C58.6648 55.4798 59.8648 55.9798 61.4648 55.9798Z" fill="#0E2A62"/>
<path d="M105.023 55.4998C105.023 55.6598 104.583 56.1798 103.703 57.0598C102.823 57.9398 101.563 58.7598 99.923 59.5198C98.283 60.2798 96.283 60.6598 93.923 60.6598C90.043 60.6598 86.903 59.6398 84.503 57.5998C82.143 55.5198 80.963 52.4198 80.963 48.2998C80.963 44.3398 81.643 40.9398 83.003 38.0998C84.403 35.2598 86.323 33.0998 88.763 31.6198C91.203 30.1398 93.963 29.3998 97.043 29.3998C100.163 29.3998 102.623 30.1998 104.423 31.7998C106.223 33.3998 107.123 35.3998 107.123 37.7998C107.123 41.7598 105.363 44.3398 101.843 45.5398C98.323 46.7398 94.123 47.3398 89.243 47.3398C89.203 47.8998 89.183 48.7798 89.183 49.9798C89.183 52.3798 89.723 54.0998 90.803 55.1398C91.923 56.1398 93.483 56.6398 95.483 56.6398C96.843 56.6398 98.043 56.3998 99.083 55.9198C100.163 55.4398 101.023 54.9198 101.663 54.3598C102.303 53.7598 102.623 53.4198 102.623 53.3398L105.023 55.4998ZM96.083 33.2398C94.403 33.2398 92.983 34.1398 91.823 35.9398C90.663 37.7398 89.883 40.3998 89.483 43.9198C91.563 43.9198 93.343 43.7798 94.823 43.4998C96.303 43.1798 97.523 42.5198 98.483 41.5198C99.483 40.5198 99.983 39.0198 99.983 37.0198C99.983 34.4998 98.683 33.2398 96.083 33.2398Z" fill="#0E2A62"/>
<path d="M129.661 35.7598C129.301 35.6798 128.561 35.5198 127.441 35.2798C126.321 35.0398 125.321 34.9198 124.441 34.9198C122.761 34.9198 121.401 36.0798 120.361 38.3998L117.301 59.9998H109.321L113.521 29.9998H119.161L119.821 35.0398H120.001C120.001 34.8398 120.221 34.2598 120.661 33.2998C121.101 32.3398 121.741 31.4398 122.581 30.5998C123.461 29.7598 124.561 29.3398 125.881 29.3398C126.721 29.3398 127.681 29.4598 128.761 29.6998C129.881 29.9398 130.621 30.0998 130.981 30.1798L129.661 35.7598Z" fill="#0E2A62"/>
<path d="M277.177 35.9998C276.977 35.8798 276.497 35.6198 275.737 35.2198C275.017 34.7798 274.157 34.3598 273.157 33.9598C272.157 33.5598 271.257 33.3598 270.457 33.3598C267.457 33.3598 265.197 34.7398 263.677 37.4998C262.197 40.2598 261.457 44.3198 261.457 49.6798C261.457 52.1198 261.997 53.8998 263.077 55.0198C264.197 56.0998 265.597 56.6398 267.277 56.6398C268.677 56.6398 269.877 56.3598 270.877 55.7998C271.917 55.2398 272.717 54.6398 273.277 53.9998C273.837 53.3598 274.117 52.9998 274.117 52.9198L276.697 54.7198C276.697 54.9198 276.297 55.5198 275.497 56.5198C274.737 57.5198 273.557 58.4598 271.957 59.3398C270.357 60.2198 268.317 60.6598 265.837 60.6598C261.797 60.6598 258.637 59.5598 256.357 57.3598C254.077 55.1198 252.937 51.9598 252.937 47.8798C252.937 44.1998 253.597 40.9598 254.917 38.1598C256.277 35.3598 258.197 33.1998 260.677 31.6798C263.197 30.1198 266.157 29.3398 269.557 29.3398C270.877 29.3398 272.177 29.5598 273.457 29.9998C274.777 30.3998 275.857 30.8198 276.697 31.2598C277.537 31.6998 278.077 31.9998 278.317 32.1598L277.177 35.9998Z" fill="#0E2A62"/>
<path d="M299.034 59.9998L298.074 57.3598H298.014C298.014 57.4798 297.734 57.8198 297.174 58.3798C296.654 58.9398 295.794 59.4598 294.594 59.9398C293.434 60.4198 291.954 60.6598 290.154 60.6598C286.994 60.6598 284.454 59.5598 282.534 57.3598C280.614 55.1198 279.654 52.0998 279.654 48.2998C279.654 44.7398 280.294 41.5198 281.574 38.6398C282.894 35.7598 284.734 33.4998 287.094 31.8598C289.454 30.1798 292.134 29.3398 295.134 29.3398C296.774 29.3398 298.074 29.5198 299.034 29.8798C300.034 30.2398 300.734 30.6398 301.134 31.0798C301.574 31.4798 301.794 31.7198 301.794 31.7998H302.034L303.474 29.9998H309.354L305.154 59.9998H299.034ZM292.734 55.9798C294.094 55.9798 295.214 55.6798 296.094 55.0798C297.014 54.4398 297.654 53.8398 298.014 53.2798L300.474 36.2998C299.674 34.6998 298.254 33.8998 296.214 33.8998C293.654 33.8998 291.654 35.1998 290.214 37.7998C288.774 40.3998 288.054 44.2998 288.054 49.4998C288.054 53.8198 289.614 55.9798 292.734 55.9798Z" fill="#0E2A62"/>
<path d="M332.454 35.7598C332.094 35.6798 331.354 35.5198 330.234 35.2798C329.114 35.0398 328.114 34.9198 327.234 34.9198C325.554 34.9198 324.194 36.0798 323.154 38.3998L320.094 59.9998H312.114L316.314 29.9998H321.954L322.614 35.0398H322.794C322.794 34.8398 323.014 34.2598 323.454 33.2998C323.894 32.3398 324.534 31.4398 325.374 30.5998C326.254 29.7598 327.354 29.3398 328.674 29.3398C329.514 29.3398 330.474 29.4598 331.554 29.6998C332.674 29.9398 333.414 30.0998 333.774 30.1798L332.454 35.7598Z" fill="#0E2A62"/>
<path d="M356.507 55.4998C356.507 55.6598 356.067 56.1798 355.187 57.0598C354.307 57.9398 353.047 58.7598 351.407 59.5198C349.767 60.2798 347.767 60.6598 345.407 60.6598C341.527 60.6598 338.387 59.6398 335.987 57.5998C333.627 55.5198 332.447 52.4198 332.447 48.2998C332.447 44.3398 333.127 40.9398 334.487 38.0998C335.887 35.2598 337.807 33.0998 340.247 31.6198C342.687 30.1398 345.447 29.3998 348.527 29.3998C351.647 29.3998 354.107 30.1998 355.907 31.7998C357.707 33.3998 358.607 35.3998 358.607 37.7998C358.607 41.7598 356.847 44.3398 353.327 45.5398C349.807 46.7398 345.607 47.3398 340.727 47.3398C340.687 47.8998 340.667 48.7798 340.667 49.9798C340.667 52.3798 341.207 54.0998 342.287 55.1398C343.407 56.1398 344.967 56.6398 346.967 56.6398C348.327 56.6398 349.527 56.3998 350.567 55.9198C351.647 55.4398 352.507 54.9198 353.147 54.3598C353.787 53.7598 354.107 53.4198 354.107 53.3398L356.507 55.4998ZM347.567 33.2398C345.887 33.2398 344.467 34.1398 343.307 35.9398C342.147 37.7398 341.367 40.3998 340.967 43.9198C343.047 43.9198 344.827 43.7798 346.307 43.4998C347.787 43.1798 349.007 42.5198 349.967 41.5198C350.967 40.5198 351.467 39.0198 351.467 37.0198C351.467 34.4998 350.167 33.2398 347.567 33.2398Z" fill="#0E2A62"/>
</g>
<defs>
<radialGradient id="paint0_radial_1353_652" cx="0" cy="0" r="1" gradientUnits="userSpaceOnUse" gradientTransform="translate(164.515 24.2155) scale(60.9774 60.6639)">
<stop stop-color="#FF6EA0"/>
<stop offset="1" stop-color="#F9487D"/>
</radialGradient>
<linearGradient id="paint1_linear_1353_652" x1="161.747" y1="18.9787" x2="189.36" y2="43.933" gradientUnits="userSpaceOnUse">
<stop stop-color="#F9FFFF"/>
<stop offset="0.088" stop-color="#F5F6F8"/>
<stop offset="0.226" stop-color="#EBDFE6"/>
<stop offset="0.399" stop-color="#DCBACA"/>
<stop offset="0.598" stop-color="#C687A2"/>
<stop offset="0.817" stop-color="#AA466F"/>
<stop offset="1" stop-color="#910A41"/>
</linearGradient>
<radialGradient id="paint2_radial_1353_652" cx="0" cy="0" r="1" gradientUnits="userSpaceOnUse" gradientTransform="translate(224.329 17.0241) scale(57.0677 56.7478)">
<stop stop-color="#E60050"/>
<stop offset="1" stop-color="#AB1D48"/>
</radialGradient>
<linearGradient id="paint3_linear_1353_652" x1="215.39" y1="49.77" x2="215.39" y2="79.4075" gradientUnits="userSpaceOnUse">
<stop stop-color="#9B0B33"/>
<stop offset="1" stop-color="#8B1131"/>
</linearGradient>
<linearGradient id="paint4_linear_1353_652" x1="223.601" y1="49.77" x2="223.601" y2="71.1247" gradientUnits="userSpaceOnUse">
<stop stop-color="#9E0B33"/>
<stop offset="1" stop-color="#8D1132"/>
</linearGradient>
<clipPath id="clip0_1353_652">
<rect width="362" height="84" fill="white"/>
</clipPath>
</defs>
</svg>
