<svg width="424" height="94" viewBox="0 0 424 94" fill="none" xmlns="http://www.w3.org/2000/svg">
<path d="M224.175 93.9106C239.44 76.1227 242.136 78.3405 249.46 47.8682C250.161 44.9547 245.706 38.2673 241.746 34.4016C237.211 29.9739 214.215 5.32785 192.055 4.72541C169.895 4.12297 165.664 21.8468 165.66 33.7312C165.65 67.8536 204.579 93.9106 224.175 93.9106Z" fill="url(#paint0_radial_1354_640)"/>
<path style="mix-blend-mode:multiply" d="M209.82 9.60791H209.819C191.213 3.85437 185.518 17.6095 191.715 27.6959C197.912 37.7823 209.461 41.7047 221.186 38.6917C229.478 36.5606 230.632 32.6756 237.16 29.2838C234.805 26.9501 233.203 26.0174 229.07 22.546C223.65 17.9925 216.985 13.1105 209.82 9.60791Z" fill="url(#paint1_linear_1354_640)"/>
<path d="M282.838 33.7312C282.168 21.8653 278.604 4.12281 256.443 4.7254C234.283 5.32799 218.098 26.2946 210.962 25.1737C205.481 24.313 203.614 24.2633 202.756 26.2098C200.6 31.0959 211.29 43.7354 224.956 37.3795C237.771 31.4192 244.603 37.7452 237.822 56.9416C230.843 76.694 211.807 97.4598 226.548 93.4422C230.147 92.4608 233.371 90.749 236.338 88.4373C246.584 89.279 251.205 82.8397 255.623 78.7818C274.294 76.7263 283.66 48.2797 282.838 33.7312Z" fill="url(#paint2_radial_1354_640)"/>
<path d="M236.338 88.4385C237.919 88.5767 239.511 88.5246 241.079 88.2832C247.659 79.8444 252.041 71.5441 255.421 58.2358C252.182 66.9212 244.138 82.6192 236.338 88.4385Z" fill="url(#paint3_linear_1354_640)"/>
<path d="M255.625 78.7847C257.331 78.5958 259.005 78.1821 260.602 77.5545C265.569 70.6618 267.349 64.7086 270.889 53.6333C267.651 62.3166 260.87 73.0175 255.625 78.7847Z" fill="url(#paint4_linear_1354_640)"/>
<path d="M31.9926 71H3.44141L9.87249 25.0637H37.4343L36.7276 30.152H18.9184L16.7983 45.2756H32.5579L31.7806 50.2226H16.1622L13.9714 65.9116H32.6993L31.9926 71Z" fill="white"/>
<path d="M48.5589 71H39.1596L46.5801 18.2792L56.0501 17.7139L48.5589 71Z" fill="white"/>
<path d="M79.1595 71L78.5235 67.8198H78.4528C78.4528 67.9611 78.123 68.3616 77.4634 69.0212C76.8038 69.6808 75.7909 70.3168 74.4246 70.9293C73.1054 71.4947 71.4328 71.7773 69.4069 71.7773C65.5436 71.7773 62.4811 70.411 60.2197 67.6784C58.0053 64.9458 56.8981 61.3416 56.8981 56.8657C56.8981 52.7197 57.6284 48.9977 59.0889 45.6997C60.5494 42.3546 62.5989 39.7397 65.2373 37.8552C67.8757 35.9235 70.8439 34.9576 74.1419 34.9576C75.9793 34.9576 77.487 35.1697 78.6648 35.5937C79.8427 35.9706 80.6908 36.3946 81.209 36.8658C81.7744 37.2898 82.0571 37.5489 82.0571 37.6431H82.2691L84.9546 18.2792L94.4952 17.7139L87.004 71H79.1595ZM72.3044 66.265C73.9063 66.265 75.2726 65.8645 76.4034 65.0636C77.5812 64.2626 78.335 63.603 78.6648 63.0848L81.5624 42.6608C81.4681 42.5195 81.2326 42.2839 80.8557 41.9541C80.4787 41.5772 79.8898 41.2238 79.0889 40.894C78.335 40.5171 77.4163 40.3287 76.3327 40.3287C73.176 40.3287 70.7732 41.8599 69.1242 44.9223C67.5223 47.9376 66.7214 52.4605 66.7214 58.4912C66.7214 61.2709 67.169 63.2732 68.0642 64.4982C69.0064 65.6761 70.4199 66.265 72.3044 66.265Z" fill="white"/>
<path d="M123.61 65.6996C123.61 65.8881 123.091 66.5006 122.055 67.5371C121.018 68.5736 119.534 69.5394 117.602 70.4346C115.671 71.3298 113.315 71.7773 110.535 71.7773C105.965 71.7773 102.267 70.5759 99.44 68.1731C96.6602 65.7232 95.2704 62.0718 95.2704 57.2191C95.2704 52.5548 96.0713 48.5501 97.6732 45.205C99.3222 41.8599 101.584 39.3157 104.458 37.5725C107.332 35.8293 110.582 34.9576 114.21 34.9576C117.885 34.9576 120.783 35.8999 122.903 37.7845C125.023 39.6691 126.083 42.0248 126.083 44.8516C126.083 49.5159 124.01 52.5548 119.864 53.9682C115.718 55.3816 110.771 56.0883 105.023 56.0883C104.976 56.7479 104.952 57.7844 104.952 59.1979C104.952 62.0247 105.588 64.0506 106.86 65.2756C108.18 66.4534 110.017 67.0424 112.373 67.0424C113.975 67.0424 115.388 66.7597 116.613 66.1943C117.885 65.6289 118.898 65.0165 119.652 64.3569C120.406 63.6502 120.783 63.2497 120.783 63.1555L123.61 65.6996ZM113.08 39.4806C111.101 39.4806 109.428 40.5407 108.062 42.6608C106.696 44.7809 105.777 47.914 105.306 52.0601C107.756 52.0601 109.852 51.8952 111.595 51.5654C113.339 51.1885 114.776 50.4111 115.906 49.2332C117.084 48.0554 117.673 46.2886 117.673 43.9329C117.673 40.9647 116.142 39.4806 113.08 39.4806Z" fill="white"/>
<path d="M152.629 42.4488C152.205 42.3546 151.334 42.1661 150.015 41.8834C148.695 41.6007 147.518 41.4594 146.481 41.4594C144.502 41.4594 142.9 42.8257 141.675 45.5583L138.071 71H128.672L133.619 35.6644H140.262L141.039 41.6007H141.251C141.251 41.3652 141.511 40.682 142.029 39.5513C142.547 38.4205 143.301 37.3605 144.29 36.3711C145.327 35.3817 146.622 34.887 148.177 34.887C149.167 34.887 150.297 35.0283 151.569 35.311C152.889 35.5937 153.76 35.7821 154.184 35.8764L152.629 42.4488Z" fill="white"/>
<path d="M326.382 42.7315C326.146 42.5901 325.581 42.2839 324.686 41.8127C323.838 41.2945 322.825 40.7998 321.647 40.3287C320.469 39.8575 319.409 39.6219 318.467 39.6219C314.933 39.6219 312.271 41.2474 310.481 44.4983C308.738 47.7491 307.866 52.5312 307.866 58.8445C307.866 61.7185 308.502 63.8151 309.774 65.1343C311.093 66.4063 312.742 67.0424 314.721 67.0424C316.37 67.0424 317.783 66.7126 318.961 66.053C320.186 65.3934 321.129 64.6867 321.788 63.9328C322.448 63.179 322.778 62.755 322.778 62.6608L325.816 64.7809C325.816 65.0165 325.345 65.7232 324.403 66.901C323.508 68.0789 322.118 69.1861 320.233 70.2226C318.349 71.2591 315.946 71.7773 313.025 71.7773C308.266 71.7773 304.544 70.4817 301.859 67.8904C299.173 65.252 297.831 61.53 297.831 56.7244C297.831 52.3899 298.608 48.5736 300.163 45.2756C301.765 41.9776 304.026 39.4335 306.947 37.6431C309.915 35.8057 313.402 34.887 317.407 34.887C318.961 34.887 320.493 35.1461 322 35.6644C323.555 36.1355 324.827 36.6302 325.816 37.1484C326.806 37.6667 327.442 38.0201 327.725 38.2085L326.382 42.7315Z" fill="white"/>
<path d="M352.127 71L350.996 67.8904H350.925C350.925 68.0318 350.595 68.4322 349.936 69.0918C349.323 69.7514 348.31 70.3639 346.897 70.9293C345.531 71.4947 343.787 71.7773 341.667 71.7773C337.945 71.7773 334.953 70.4817 332.692 67.8904C330.43 65.252 329.3 61.6949 329.3 57.2191C329.3 53.0259 330.054 49.2332 331.561 45.841C333.116 42.4488 335.283 39.7868 338.063 37.8552C340.843 35.8764 343.999 34.887 347.533 34.887C349.465 34.887 350.996 35.099 352.127 35.523C353.304 35.947 354.129 36.4182 354.6 36.9364C355.118 37.4076 355.377 37.6903 355.377 37.7845H355.66L357.356 35.6644H364.282L359.335 71H352.127ZM344.706 66.265C346.308 66.265 347.627 65.9116 348.664 65.2049C349.747 64.4511 350.501 63.7444 350.925 63.0848L353.823 43.0848C352.88 41.2003 351.208 40.258 348.805 40.258C345.79 40.258 343.434 41.7892 341.738 44.8516C340.042 47.914 339.194 52.5077 339.194 58.6325C339.194 63.7208 341.031 66.265 344.706 66.265Z" fill="white"/>
<path d="M391.49 42.4488C391.066 42.3546 390.194 42.1661 388.875 41.8834C387.556 41.6007 386.378 41.4594 385.341 41.4594C383.363 41.4594 381.761 42.8257 380.536 45.5583L376.932 71H367.532L372.479 35.6644H379.122L379.9 41.6007H380.112C380.112 41.3652 380.371 40.682 380.889 39.5513C381.407 38.4205 382.161 37.3605 383.151 36.3711C384.187 35.3817 385.483 34.887 387.038 34.887C388.027 34.887 389.158 35.0283 390.43 35.311C391.749 35.5937 392.621 35.7821 393.045 35.8764L391.49 42.4488Z" fill="white"/>
<path d="M419.821 65.6996C419.821 65.8881 419.303 66.5006 418.267 67.5371C417.23 68.5736 415.746 69.5394 413.814 70.4346C411.883 71.3298 409.527 71.7773 406.747 71.7773C402.177 71.7773 398.479 70.5759 395.652 68.1731C392.872 65.7232 391.482 62.0718 391.482 57.2191C391.482 52.5548 392.283 48.5501 393.885 45.205C395.534 41.8599 397.795 39.3157 400.669 37.5725C403.543 35.8293 406.794 34.9576 410.422 34.9576C414.097 34.9576 416.994 35.8999 419.115 37.7845C421.235 39.6691 422.295 42.0248 422.295 44.8516C422.295 49.5159 420.222 52.5548 416.076 53.9682C411.93 55.3816 406.983 56.0883 401.235 56.0883C401.188 56.7479 401.164 57.7844 401.164 59.1979C401.164 62.0247 401.8 64.0506 403.072 65.2756C404.391 66.4534 406.229 67.0424 408.585 67.0424C410.186 67.0424 411.6 66.7597 412.825 66.1943C414.097 65.6289 415.11 65.0165 415.864 64.3569C416.618 63.6502 416.994 63.2497 416.994 63.1555L419.821 65.6996ZM409.291 39.4806C407.312 39.4806 405.64 40.5407 404.274 42.6608C402.907 44.7809 401.989 47.914 401.517 52.0601C403.967 52.0601 406.064 51.8952 407.807 51.5654C409.55 51.1885 410.987 50.4111 412.118 49.2332C413.296 48.0554 413.885 46.2886 413.885 43.9329C413.885 40.9647 412.354 39.4806 409.291 39.4806Z" fill="white"/>
<defs>
<radialGradient id="paint0_radial_1354_640" cx="0" cy="0" r="1" gradientUnits="userSpaceOnUse" gradientTransform="translate(193.67 23.5317) scale(71.8179 71.4493)">
<stop stop-color="#FF6EA0"/>
<stop offset="1" stop-color="#F9487D"/>
</radialGradient>
<linearGradient id="paint1_linear_1354_640" x1="190.411" y1="17.3644" x2="222.933" y2="46.755" gradientUnits="userSpaceOnUse">
<stop stop-color="#F9FFFF"/>
<stop offset="0.088" stop-color="#F5F6F8"/>
<stop offset="0.226" stop-color="#EBDFE6"/>
<stop offset="0.399" stop-color="#DCBACA"/>
<stop offset="0.598" stop-color="#C687A2"/>
<stop offset="0.817" stop-color="#AA466F"/>
<stop offset="1" stop-color="#910A41"/>
</linearGradient>
<radialGradient id="paint2_radial_1354_640" cx="0" cy="0" r="1" gradientUnits="userSpaceOnUse" gradientTransform="translate(264.117 15.0617) scale(67.2131 66.8369)">
<stop stop-color="#E60050"/>
<stop offset="1" stop-color="#AB1D48"/>
</radialGradient>
<linearGradient id="paint3_linear_1354_640" x1="255" y1="58" x2="238.5" y2="88.5" gradientUnits="userSpaceOnUse">
<stop stop-color="#990C33"/>
<stop offset="1" stop-color="#8B1131"/>
</linearGradient>
<linearGradient id="paint4_linear_1354_640" x1="270.5" y1="54" x2="257" y2="78.5" gradientUnits="userSpaceOnUse">
<stop stop-color="#9E0B33"/>
<stop offset="1" stop-color="#8D1132"/>
</linearGradient>
</defs>
</svg>
