<svg xmlns="http://www.w3.org/2000/svg" width="160" height="160" viewBox="0 0 160 160" fill="none"><path fill-rule="evenodd" clip-rule="evenodd" d="M84.9492 76.801L147.188 36.573C132.934 14.5664 108.172 0 80 0C35.8164 0 0 35.8171 0 80C0 96.5686 5.03906 111.961 13.6641 124.729L12.9922 123.711L12.3438 122.694L61.0508 91.9585C61.0508 91.5461 61.0508 91.1267 61.0508 90.7H63.043H63.1484L76.4297 82.2522C73.8984 80.6626 71.5039 79.0452 69.25 77.3999C66.7852 75.6001 64.8164 73.5334 63.3516 71.2C61.8828 68.8 61.1484 65.9333 61.1484 62.6001C61.1484 59.0667 61.9492 56.1333 63.5508 53.8C65.1484 51.4668 67.25 49.7666 69.8516 48.7C71.1367 48.125 72.4727 47.6958 73.8594 47.4126C75.207 47.1375 76.6055 47 78.0508 47C81.0508 47 83.3516 47.3667 84.9492 48.1001C86.4844 48.7666 87.8516 49.5 89.0508 50.3C89.7852 50.7 90.3516 51.0334 90.75 51.3C90.8789 51.356 91.0117 51.4043 91.1406 51.4446C91.4766 51.5483 91.8125 51.6001 92.1484 51.6001C92.75 51.6001 93.1484 51.2666 93.3516 50.6001C93.6836 49.9333 93.9492 48.9333 94.1484 47.6001H96.1484L96.0664 48.9683L95.9492 51.3C95.8828 52.7 95.8164 54.5667 95.75 56.8999V66H93.6484C93.5508 64.5791 93.3438 63.1826 93.0312 61.811C92.7148 60.4153 92.2891 59.0449 91.75 57.7C90.6836 55.0334 89.1172 52.8667 87.0508 51.2C84.9844 49.5334 82.25 48.7 78.8516 48.7C75.7148 48.7 73.082 49.6667 70.9492 51.6001C68.9492 53.5334 67.9492 56.0334 67.9492 59.1001C67.9492 61.8333 68.6172 64.1333 69.9492 66C71.3516 67.8 73.1836 69.4333 75.4492 70.8999C77.7852 72.3667 80.3164 73.9333 83.0508 75.6001C83.6992 76.0005 84.332 76.4006 84.9492 76.801ZM159.988 81.292C159.727 97.8198 154.453 113.13 145.621 125.77L145.648 125.722C151.672 117.071 155.93 107.314 158.172 97.0132C159.297 91.8325 159.902 86.5676 159.988 81.292ZM159.984 78.3213C159.895 74.0952 159.473 69.8752 158.711 65.6968C159.453 69.8054 159.895 74.0203 159.984 78.3213ZM80 160C62.8359 160 46.9492 154.597 33.9219 145.397C42.5391 151.469 52.2734 155.778 62.5625 158.076C72.8516 160.374 83.4922 160.616 93.875 158.788C104.258 156.959 114.176 153.097 123.062 147.422L123.773 146.968L124.73 146.337C111.961 154.963 96.5703 160 80 160Z" fill="#FF7F67"></path><path fill-rule="evenodd" clip-rule="evenodd" d="M158.71 65.697C156.825 55.3245 152.909 45.4268 147.186 36.573L84.948 76.8011C87.3122 78.3341 89.4457 79.8671 91.3488 81.4001C93.8155 83.2668 95.7155 85.3335 97.0488 87.6001C98.5155 89.8668 99.2488 92.6335 99.2488 95.9001C99.2488 99.7001 98.3821 102.867 96.6488 105.4C94.9155 107.933 92.6155 109.833 89.7488 111.1C86.8155 112.367 83.6155 113 80.1488 113C76.9488 113 74.4155 112.633 72.5488 111.9C70.7488 111.167 69.1821 110.4 67.8488 109.6C66.5155 108.8 65.4821 108.4 64.7488 108.4C64.1488 108.4 63.7155 108.733 63.4488 109.4C63.1821 110 62.9488 110.967 62.7488 112.3H60.7488C60.8155 111.033 60.8488 109.567 60.8488 107.9C60.9155 106.167 60.9488 103.933 60.9488 101.2C61.0087 98.6848 61.0417 95.6045 61.0478 91.9593L12.3438 122.694C17.97 131.61 25.3028 139.325 33.9209 145.398C42.5389 151.47 52.2721 155.779 62.5609 158.076C72.8498 160.374 83.4914 160.616 93.8739 158.788C104.256 156.959 114.175 153.097 123.06 147.422C131.945 141.748 139.621 134.373 145.646 125.722C151.671 117.071 155.927 107.315 158.169 97.0133C160.411 86.7122 160.595 76.0694 158.71 65.697ZM63.0431 90.7001H63.1488C63.4155 94.3001 64.0821 97.6668 65.1488 100.8C66.2821 103.933 67.9821 106.467 70.2488 108.4C72.5821 110.267 75.6821 111.2 79.5488 111.2C81.5488 111.2 83.4155 110.8 85.1488 110C86.9488 109.133 88.4155 107.833 89.5488 106.1C90.6821 104.3 91.2488 102 91.2488 99.2001C91.2488 96.7335 90.6488 94.6001 89.4488 92.8001C88.3155 90.9335 86.6821 89.2335 84.5488 87.7001C82.4821 86.0335 80.0155 84.3668 77.1488 82.7001C76.908 82.5511 76.6684 82.4017 76.4301 82.2522L63.0431 90.7001Z" fill="white"></path></svg>