<svg xmlns="http://www.w3.org/2000/svg" width="292" height="85" viewBox="0 0 292 85" fill="none"><path d="M90.5969 50.7929V28.9806C90.5969 27.0849 90.5789 25.4352 90.5429 24.0314C90.4949 22.6037 90.429 21.3739 90.345 20.3421C90.249 19.2982 90.135 18.4284 90.003 17.7325C89.895 17.0366 89.769 16.4547 89.625 15.9868V15.8608C90.081 15.8728 90.5549 15.8788 91.0469 15.8788C91.4669 15.9028 91.9349 15.9148 92.4508 15.9148C92.9788 15.9148 93.5248 15.9148 94.0887 15.9148C94.8927 15.9148 95.9786 15.8368 97.3465 15.6809C98.7265 15.5249 100.496 15.4469 102.656 15.4469C104.672 15.4469 106.526 15.7169 108.218 16.2568C109.922 16.7727 111.386 17.5225 112.61 18.5064C113.87 19.4902 114.842 20.708 115.525 22.1598C116.245 23.5875 116.605 25.2132 116.605 27.0369C116.605 28.5847 116.389 29.9704 115.957 31.1942C115.537 32.406 114.938 33.4678 114.158 34.3797C113.402 35.2675 112.472 36.0294 111.368 36.6653C110.3 37.2652 109.118 37.7451 107.822 38.1051C109.718 38.393 111.452 38.8849 113.024 39.5808C114.584 40.2407 115.921 41.0866 117.037 42.1184C118.177 43.1502 119.047 44.356 119.647 45.7358C120.271 47.1035 120.583 48.6213 120.583 50.289C120.583 55.0042 119.035 58.5436 115.939 60.9072C112.832 63.2588 108.182 64.4346 101.99 64.4346C101.318 64.4346 100.538 64.4106 99.6504 64.3626C98.7625 64.2906 97.8445 64.2246 96.8966 64.1646C95.9846 64.0927 95.0847 64.0387 94.1967 64.0027C93.2968 63.9307 92.5108 63.8947 91.8389 63.8947H89.625V63.7687C89.769 63.2888 89.895 62.7069 90.003 62.023C90.135 61.3271 90.249 60.4633 90.345 59.4314C90.429 58.4116 90.4949 57.1998 90.5429 55.7961C90.5789 54.3563 90.5969 52.6886 90.5969 50.7929ZM102.908 40.1387C101.384 40.1387 100.106 40.1987 99.0745 40.3187C98.0545 40.4267 97.2626 40.5346 96.6986 40.6426V50.7929C96.6986 53.4085 96.7466 55.5621 96.8426 57.2538C96.9266 58.9575 97.0466 60.3433 97.2026 61.4111C98.0545 61.5311 98.9065 61.6331 99.7584 61.7171C100.598 61.801 101.276 61.843 101.792 61.843C105.968 61.843 109.016 60.9192 110.936 59.0715C112.88 57.1998 113.852 54.3323 113.852 50.469C113.852 48.9452 113.618 47.5595 113.15 46.3117C112.706 45.0399 112.028 43.9421 111.116 43.0182C110.216 42.1064 109.076 41.4045 107.696 40.9126C106.328 40.3967 104.732 40.1387 102.908 40.1387ZM96.6986 18.3984V37.6371C97.3226 37.6971 97.8805 37.7391 98.3725 37.7631C98.8645 37.7631 99.3924 37.7631 99.9564 37.7631C101.468 37.7631 102.854 37.5532 104.114 37.1332C105.362 36.6773 106.418 36.0174 107.282 35.1536C108.182 34.2777 108.878 33.1919 109.37 31.8961C109.862 30.5763 110.108 29.0466 110.108 27.3069C110.108 25.8551 109.928 24.5414 109.568 23.3656C109.208 22.1778 108.674 21.1699 107.966 20.3421C107.27 19.4902 106.406 18.8423 105.374 18.3984C104.354 17.9545 103.184 17.7325 101.864 17.7325C101.012 17.7325 100.262 17.7625 99.6144 17.8225C98.9905 17.8945 98.4565 17.9725 98.0125 18.0565C97.4965 18.1524 97.0586 18.2664 96.6986 18.3984ZM142.47 64.5066C139.998 64.5066 137.676 64.1107 135.504 63.3188C133.344 62.5389 131.461 61.3991 129.853 59.8994C128.245 58.3876 126.967 56.5279 126.019 54.3203C125.107 52.0767 124.651 49.5271 124.651 46.6716C124.651 44.152 125.077 41.8184 125.929 39.6708C126.781 37.5112 127.951 35.6335 129.439 34.0378C130.939 32.454 132.684 31.2182 134.676 30.3304C136.68 29.4305 138.846 28.9806 141.174 28.9806C143.466 28.9806 145.596 29.3825 147.564 30.1864C149.532 30.9663 151.229 32.1181 152.657 33.6418C154.109 35.1416 155.249 37.0072 156.077 39.2389C156.929 41.4465 157.385 43.9721 157.445 46.8156C154.925 46.7676 152.405 46.7316 149.885 46.7076C147.354 46.6836 144.726 46.6716 142.002 46.6716C140.058 46.6716 138.162 46.6836 136.314 46.7076C134.478 46.7316 132.822 46.7676 131.347 46.8156C131.479 49.1312 131.839 51.2308 132.427 53.1145C133.026 54.9862 133.842 56.5939 134.874 57.9377C135.918 59.2455 137.178 60.2593 138.654 60.9792C140.154 61.6991 141.84 62.059 143.712 62.059C145.008 62.059 146.226 61.909 147.366 61.6091C148.53 61.2971 149.58 60.8772 150.515 60.3493C151.451 59.8094 152.291 59.1795 153.035 58.4596C153.767 57.7277 154.391 56.9359 154.907 56.084L155.303 56.282L152.819 62.257C151.619 62.8809 150.179 63.4148 148.5 63.8587C146.832 64.2906 144.822 64.5066 142.47 64.5066ZM138.024 44.062C140.256 44.062 142.488 44.062 144.72 44.062C146.976 44.0381 149.022 43.9961 150.857 43.9361C150.653 41.9924 150.269 40.2467 149.706 38.699C149.154 37.1632 148.44 35.8554 147.564 34.7756C146.7 33.7078 145.674 32.8859 144.486 32.31C143.298 31.7221 141.99 31.4282 140.562 31.4282C139.266 31.4282 138.072 31.7221 136.98 32.31C135.912 32.8619 134.976 33.6718 134.172 34.7396C133.368 35.8194 132.72 37.1392 132.229 38.699C131.737 40.2467 131.443 42.0104 131.347 43.9901C132.355 44.0381 133.416 44.062 134.532 44.062C135.648 44.062 136.812 44.062 138.024 44.062ZM160.937 54.0144C160.937 52.2507 161.297 50.7209 162.017 49.4251C162.749 48.1294 163.721 47.0256 164.933 46.1137C166.133 45.1899 167.506 44.452 169.054 43.9001C170.59 43.3122 172.186 42.8623 173.842 42.5503C175.498 42.2144 177.13 41.9924 178.738 41.8844C180.346 41.7524 181.816 41.6745 183.148 41.6505V39.9408C183.148 38.465 182.962 37.1932 182.59 36.1254C182.206 35.0456 181.666 34.1637 180.97 33.4798C180.286 32.76 179.452 32.2321 178.468 31.8961C177.508 31.5362 176.446 31.3562 175.282 31.3562C174.478 31.3562 173.686 31.4282 172.906 31.5722C172.126 31.7041 171.31 31.9261 170.458 32.2381C169.63 32.55 168.748 32.9759 167.812 33.5158C166.901 34.0437 165.905 34.7216 164.825 35.5495L164.501 35.3515L166.769 30.6363C167.512 30.3004 168.238 30.0304 168.946 29.8265C169.666 29.5985 170.392 29.4185 171.124 29.2866C171.868 29.1546 172.618 29.0646 173.374 29.0166C174.154 28.9566 174.97 28.9266 175.822 28.9266C178.162 28.9266 180.16 29.2146 181.816 29.7905C183.496 30.3544 184.857 31.1342 185.901 32.1301C186.969 33.1139 187.749 34.2777 188.241 35.6215C188.733 36.9413 188.979 38.357 188.979 39.8688V50.7929C188.979 52.6886 189.003 54.3563 189.051 55.7961C189.123 57.1998 189.189 58.4116 189.249 59.4314C189.345 60.4633 189.447 61.3271 189.555 62.023C189.687 62.7069 189.819 63.2888 189.951 63.7687V63.8947H182.554V63.7687C182.662 63.4088 182.74 63.0068 182.788 62.5629C182.86 62.107 182.914 61.5671 182.95 60.9432C182.482 61.3511 181.924 61.7651 181.276 62.185C180.652 62.6049 179.926 62.9949 179.098 63.3548C178.294 63.6907 177.388 63.9727 176.38 64.2006C175.408 64.4046 174.328 64.5066 173.14 64.5066C169.252 64.5066 166.247 63.6007 164.123 61.7891C161.999 59.9534 160.937 57.3618 160.937 54.0144ZM183.148 50.7929V44.26C181.12 44.284 179.17 44.41 177.298 44.638C175.414 44.8299 173.746 45.2619 172.294 45.9337C170.866 46.6056 169.72 47.5655 168.856 48.8133C168.004 50.049 167.578 51.6928 167.578 53.7444C167.578 56.384 168.238 58.3936 169.558 59.7734C170.878 61.1532 172.696 61.843 175.012 61.843C176.08 61.843 177.052 61.6991 177.928 61.4111C178.828 61.0992 179.608 60.7212 180.268 60.2773C180.964 59.8094 181.546 59.3055 182.014 58.7656C182.482 58.2137 182.842 57.6797 183.094 57.1638C183.13 56.312 183.148 55.3701 183.148 54.3383C183.148 53.2945 183.148 52.1127 183.148 50.7929ZM203.702 42.6943V52.1607C203.702 55.1122 204.284 57.2838 205.448 58.6756C206.624 60.0553 208.208 60.7452 210.2 60.7452C210.92 60.7452 211.724 60.6013 212.612 60.3133C213.512 60.0014 214.43 59.5994 215.366 59.1075C216.326 58.5916 217.274 57.9977 218.21 57.3258C219.169 56.6539 220.051 55.94 220.855 55.1842C220.903 54.5363 220.927 53.8524 220.927 53.1325C220.927 52.4006 220.927 51.6208 220.927 50.7929V42.6943C220.927 40.7866 220.891 39.1309 220.819 37.7271C220.771 36.2994 220.705 35.0696 220.621 34.0378C220.549 33.0179 220.447 32.1601 220.315 31.4642C220.207 30.7683 220.087 30.1864 219.955 29.7185V29.5925H227.695V29.7185C227.551 30.1864 227.425 30.7683 227.317 31.4642C227.209 32.1601 227.107 33.0179 227.011 34.0378C226.927 35.0696 226.861 36.2994 226.813 37.7271C226.777 39.1309 226.759 40.7866 226.759 42.6943V50.7929C226.759 52.6886 226.777 54.3563 226.813 55.7961C226.861 57.1998 226.927 58.4116 227.011 59.4314C227.107 60.4633 227.209 61.3271 227.317 62.023C227.425 62.7069 227.551 63.2888 227.695 63.7687V63.8947H219.955V63.7687C220.087 63.2048 220.219 62.4849 220.351 61.6091C220.507 60.7452 220.621 59.6114 220.693 58.2077C219.769 58.9875 218.773 59.7554 217.706 60.5113C216.65 61.2671 215.546 61.951 214.394 62.5629C213.254 63.1628 212.09 63.6487 210.902 64.0207C209.738 64.3806 208.586 64.5606 207.446 64.5606C205.706 64.5606 204.224 64.2606 203 63.6607C201.788 63.0608 200.793 62.269 200.013 61.2851C199.257 60.3013 198.699 59.1855 198.339 57.9377C198.003 56.6779 197.835 55.3941 197.835 54.0864V42.6943C197.835 40.7866 197.811 39.1309 197.763 37.7271C197.727 36.2994 197.661 35.0696 197.565 34.0378C197.481 33.0179 197.385 32.1601 197.277 31.4642C197.157 30.7683 197.031 30.1864 196.899 29.7185V29.5925H204.638V29.7185C204.506 30.1864 204.386 30.7683 204.278 31.4642C204.158 32.1601 204.056 33.0179 203.972 34.0378C203.876 35.0696 203.81 36.2994 203.774 37.7271C203.726 39.1309 203.702 40.7866 203.702 42.6943ZM248.142 61.915C248.802 61.915 249.456 61.7951 250.104 61.5551C250.776 61.3031 251.412 60.9672 252.012 60.5473C252.648 60.1153 253.241 59.6354 253.793 59.1075C254.381 58.5436 254.915 57.9617 255.395 57.3618L255.737 57.5238L253.559 62.9229C253.295 63.0548 252.96 63.2228 252.552 63.4268C252.18 63.6067 251.712 63.7867 251.148 63.9667C250.608 64.1227 249.972 64.2666 249.24 64.3986C248.508 64.5066 247.638 64.5606 246.63 64.5606C243.63 64.5606 241.296 63.7567 239.628 62.149C237.972 60.5173 237.144 57.9857 237.144 54.5543V32.2021L231.511 32.4V29.4485C232.207 29.4965 233.035 29.5325 233.995 29.5565C234.955 29.5805 236.005 29.5925 237.144 29.5925C237.12 28.0088 237.078 26.611 237.018 25.3992C236.97 24.1754 236.898 23.1136 236.802 22.2138C236.742 21.3019 236.658 20.534 236.55 19.9101C236.43 19.2862 236.316 18.7583 236.208 18.3264V18.2004H243.948V18.3264C243.816 18.7583 243.69 19.2862 243.57 19.9101C243.462 20.534 243.366 21.2899 243.282 22.1778C243.21 23.0776 243.144 24.1394 243.084 25.3632C243.036 26.575 243 27.9848 242.976 29.5925C244.38 29.5685 245.754 29.5445 247.098 29.5205C248.454 29.4725 249.684 29.4305 250.788 29.3945C251.904 29.3225 252.84 29.2626 253.595 29.2146C254.375 29.1546 254.891 29.1006 255.143 29.0526L254.531 32.472C253.391 32.448 252.198 32.412 250.95 32.364C249.882 32.328 248.652 32.298 247.26 32.274C245.88 32.2501 244.452 32.2261 242.976 32.2021V55.2562C242.976 56.6359 243.12 57.7637 243.408 58.6396C243.72 59.4794 244.11 60.1453 244.578 60.6372C245.07 61.1292 245.616 61.4651 246.216 61.6451C246.852 61.825 247.494 61.915 248.142 61.915ZM267.347 74.6749L272.062 63.4988L260.273 37.6911C259.853 36.7073 259.397 35.7715 258.905 34.8836C258.413 33.9718 257.939 33.1559 257.483 32.436C257.063 31.7161 256.685 31.1222 256.349 30.6543C256.013 30.1624 255.791 29.8505 255.683 29.7185V29.5925H264.467V29.7185C264.419 29.8385 264.383 30.0064 264.359 30.2224C264.335 30.4504 264.323 30.6543 264.323 30.8343C264.323 31.5182 264.425 32.286 264.629 33.1379C264.845 33.9658 265.247 35.0036 265.835 36.2514L275.086 56.354L283.528 36.5213C283.876 35.6935 284.23 34.7876 284.59 33.8038C284.974 32.82 285.166 31.8301 285.166 30.8343C285.166 30.5463 285.142 30.3124 285.094 30.1324C285.046 29.9284 285.004 29.7905 284.968 29.7185V29.5925H290.997V29.7185C290.589 30.1504 290.073 30.9123 289.449 32.0041C288.849 33.0719 288.201 34.4217 287.506 36.0534L271.522 74.117C271.174 74.9448 270.808 75.8507 270.424 76.8345C270.065 77.8063 269.885 78.7962 269.885 79.804C269.885 80.0919 269.909 80.3379 269.957 80.5419C270.005 80.7218 270.047 80.8478 270.083 80.9198V81.0458H263.819V80.9198C264.251 80.4879 264.767 79.75 265.367 78.7062C265.991 77.6264 266.651 76.2826 267.347 74.6749Z" fill="white"></path><path fill-rule="evenodd" clip-rule="evenodd" d="M58.9001 18.3151C62.6788 30.5959 61.557 37.6219 70.4134 44.0575C71.9485 45.1793 70.2363 47.7772 67.5793 48.6038C65.4538 49.3123 66.6937 50.9064 67.5203 51.4378C68.3469 51.9692 67.166 54.1538 65.749 54.508C64.5091 54.8032 67.7565 56.3383 66.2804 57.5192C65.2177 58.4048 63.9778 57.8734 63.3283 58.5819C62.7379 59.1724 65.69 63.3644 62.3836 65.1356C59.0182 66.9659 50.0438 63.8367 48.2725 65.0175C46.5603 66.1393 40.9513 78.0068 42.1321 83.734C21.6444 48.2495 60.0219 37.8581 58.9001 18.3151Z" fill="url(#paint0_linear_5169_1070)"></path><path fill-rule="evenodd" clip-rule="evenodd" d="M35.3414 82.6712C18.101 49.7256 51.519 37.74 57.4823 25.105C63.4456 12.5289 54.6482 2.31462 45.1424 2.01941C64.6264 19.9683 30.559 28.9427 23.8872 46.3602C18.6324 60.058 22.175 77.8298 35.3414 82.6712Z" fill="url(#paint1_linear_5169_1070)"></path><path fill-rule="evenodd" clip-rule="evenodd" d="M16.6904 74.3463C7.00749 35.2602 40.9568 30.8911 49.2228 18.2561C52.352 13.5917 53.0015 7.39226 45.1488 2.01941C55.186 18.9055 24.6611 20.4406 13.1479 33.7842C2.81548 45.7698 6.53515 65.9032 16.6904 74.3463Z" fill="url(#paint2_linear_5169_1070)"></path><path fill-rule="evenodd" clip-rule="evenodd" d="M1.69537 47.0097C5.17887 17.8427 28.9139 25.2821 43.3793 14.4773C48.5159 10.6396 48.1617 6.44758 45.3867 2.01941C44.7963 17.0162 -5.44875 0.897604 1.69537 47.0097Z" fill="url(#paint3_linear_5169_1070)"></path><defs><linearGradient id="paint0_linear_5169_1070" x1="60.6639" y1="18.1161" x2="31.7794" y2="73.5221" gradientUnits="userSpaceOnUse"><stop stop-color="#F8B4A1"></stop><stop offset="0.596373" stop-color="#EFA38D"></stop></linearGradient><linearGradient id="paint1_linear_5169_1070" x1="48.2149" y1="1.77414" x2="10.1287" y2="66.0936" gradientUnits="userSpaceOnUse"><stop stop-color="#F8B4A1"></stop><stop offset="0.596373" stop-color="#EFA38D"></stop></linearGradient><linearGradient id="paint2_linear_5169_1070" x1="38.2614" y1="1.79945" x2="8.98529" y2="66.4463" gradientUnits="userSpaceOnUse"><stop stop-color="#F8B4A1"></stop><stop offset="0.596373" stop-color="#EFA38D"></stop></linearGradient><linearGradient id="paint3_linear_5169_1070" x1="33.6521" y1="1.88259" x2="21.4686" y2="47.0567" gradientUnits="userSpaceOnUse"><stop stop-color="#F8B4A1"></stop><stop offset="0.596373" stop-color="#EFA38D"></stop></linearGradient></defs></svg>