<svg xmlns="http://www.w3.org/2000/svg" width="100" height="100" viewBox="0 0 100 100" fill="none"><g clip-path="url(#clip0_5175_1277)"><path fill-rule="evenodd" clip-rule="evenodd" d="M50 100C77.6142 100 100 77.6142 100 50C100 22.3858 77.6142 0 50 0C22.3858 0 0 22.3858 0 50C0 77.6142 22.3858 100 50 100ZM53.7969 30.552C52.7969 30.0937 51.3594 29.8645 49.4844 29.8645C47.651 29.8645 45.9427 30.2187 44.3594 30.927C42.7344 31.5937 41.4219 32.6562 40.4219 34.1145C39.4219 35.5728 38.9219 37.4062 38.9219 39.6145C38.9219 41.6978 39.3802 43.4895 40.2969 44.9895C41.2135 46.4478 42.4427 47.7395 43.9844 48.8645C45.526 49.9895 47.1719 51.0937 48.9219 52.177C50.7135 53.2187 52.2552 54.2603 53.5469 55.302C54.8802 56.2603 55.901 57.3228 56.6094 58.4895C57.3594 59.6145 57.7344 60.9478 57.7344 62.4895C57.7344 64.2395 57.3802 65.677 56.6719 66.802C55.9635 67.8853 55.0469 68.6978 53.9219 69.2395C52.8385 69.7395 51.6719 69.9895 50.4219 69.9895C48.0052 69.9895 46.0677 69.4062 44.6094 68.2395C43.1927 67.0312 42.1302 65.4478 41.4219 63.4895C40.7552 61.5312 40.3385 59.427 40.1719 57.177H38.8594C38.8594 59.802 38.8385 61.9895 38.7969 63.7395C38.7969 65.4478 38.776 66.8437 38.7344 67.927C38.7344 68.9687 38.7135 69.8853 38.6719 70.677H39.9219C40.0469 69.8437 40.1927 69.2395 40.3594 68.8645C40.526 68.4479 40.7969 68.2395 41.1719 68.2395C41.6302 68.2395 42.276 68.4895 43.1094 68.9895C43.9427 69.4895 44.9219 69.9687 46.0469 70.427C47.2135 70.8854 48.7969 71.1145 50.7969 71.1145C52.9635 71.1145 54.9635 70.7187 56.7969 69.927C58.5885 69.1353 60.026 67.9479 61.1094 66.3645C62.1927 64.7812 62.7344 62.802 62.7344 60.427C62.7344 58.3853 62.276 56.6562 61.3594 55.2395C60.526 53.8228 59.3385 52.5312 57.7969 51.3645C56.2969 50.1562 54.5677 48.9478 52.6094 47.7395C50.901 46.6978 49.3177 45.7187 47.8594 44.802C46.4427 43.8853 45.2969 42.8645 44.4219 41.7395C43.5885 40.5728 43.1719 39.1353 43.1719 37.427C43.1719 35.5103 43.7969 33.9478 45.0469 32.7395C46.3802 31.5312 48.026 30.927 49.9844 30.927C52.1094 30.927 53.8177 31.4478 55.1094 32.4895C56.401 33.5312 57.3802 34.8853 58.0469 36.552C58.7135 38.2187 59.1094 39.9478 59.2344 41.7395H60.5469V36.052C60.5885 34.5937 60.6302 33.427 60.6719 32.552C60.7135 31.6353 60.7552 30.8645 60.7969 30.2395H59.5469C59.4219 31.0728 59.2552 31.6978 59.0469 32.1145C58.9219 32.5312 58.6719 32.7395 58.2969 32.7395C58.0052 32.7395 57.7135 32.677 57.4219 32.552C57.1719 32.3853 56.8177 32.177 56.3594 31.927C55.6094 31.427 54.7552 30.9687 53.7969 30.552Z" fill="#FF7F67"></path></g><defs><clipPath id="clip0_5175_1277"><rect width="100" height="100" fill="white"></rect></clipPath></defs></svg>