<svg xmlns="http://www.w3.org/2000/svg" width="292" height="85" viewBox="0 0 292 85" fill="none"><path d="M90.5969 50.9705V29.1582C90.5969 27.2625 90.5789 25.6128 90.5429 24.2091C90.4949 22.7813 90.429 21.5515 90.345 20.5197C90.249 19.4759 90.135 18.606 90.003 17.9101C89.895 17.2142 89.769 16.6323 89.625 16.1644V16.0384C90.081 16.0504 90.5549 16.0564 91.0469 16.0564C91.4669 16.0804 91.9349 16.0924 92.4508 16.0924C92.9788 16.0924 93.5248 16.0924 94.0887 16.0924C94.8927 16.0924 95.9786 16.0144 97.3465 15.8585C98.7265 15.7025 100.496 15.6245 102.656 15.6245C104.672 15.6245 106.526 15.8945 108.218 16.4344C109.922 16.9503 111.386 17.7002 112.61 18.684C113.87 19.6678 114.842 20.8856 115.525 22.3374C116.245 23.7651 116.605 25.3909 116.605 27.2145C116.605 28.7623 116.389 30.1481 115.957 31.3718C115.537 32.5836 114.938 33.6455 114.158 34.5573C113.402 35.4452 112.472 36.207 111.368 36.8429C110.3 37.4428 109.118 37.9227 107.822 38.2827C109.718 38.5706 111.452 39.0625 113.024 39.7584C114.584 40.4183 115.921 41.2642 117.037 42.296C118.177 43.3278 119.047 44.5336 119.647 45.9134C120.271 47.2812 120.583 48.7989 120.583 50.4666C120.583 55.1818 119.035 58.7212 115.939 61.0848C112.832 63.4364 108.182 64.6122 101.99 64.6122C101.318 64.6122 100.538 64.5882 99.6504 64.5402C98.7625 64.4682 97.8445 64.4023 96.8966 64.3423C95.9846 64.2703 95.0847 64.2163 94.1967 64.1803C93.2968 64.1083 92.5108 64.0723 91.8389 64.0723H89.625V63.9463C89.769 63.4664 89.895 62.8845 90.003 62.2006C90.135 61.5047 90.249 60.6409 90.345 59.6091C90.429 58.5892 90.4949 57.3774 90.5429 55.9737C90.5789 54.5339 90.5969 52.8662 90.5969 50.9705ZM102.908 40.3163C101.384 40.3163 100.106 40.3763 99.0745 40.4963C98.0545 40.6043 97.2626 40.7123 96.6986 40.8202V50.9705C96.6986 53.5861 96.7466 55.7397 96.8426 57.4314C96.9266 59.1351 97.0466 60.5209 97.2026 61.5887C98.0545 61.7087 98.9065 61.8107 99.7584 61.8947C100.598 61.9787 101.276 62.0207 101.792 62.0207C105.968 62.0207 109.016 61.0968 110.936 59.2491C112.88 57.3774 113.852 54.5099 113.852 50.6466C113.852 49.1228 113.618 47.7371 113.15 46.4893C112.706 45.2175 112.028 44.1197 111.116 43.1958C110.216 42.284 109.076 41.5821 107.696 41.0902C106.328 40.5743 104.732 40.3163 102.908 40.3163ZM96.6986 18.576V37.8148C97.3226 37.8747 97.8805 37.9167 98.3725 37.9407C98.8645 37.9407 99.3924 37.9407 99.9564 37.9407C101.468 37.9407 102.854 37.7308 104.114 37.3108C105.362 36.8549 106.418 36.195 107.282 35.3312C108.182 34.4553 108.878 33.3695 109.37 32.0737C109.862 30.7539 110.108 29.2242 110.108 27.4845C110.108 26.0327 109.928 24.719 109.568 23.5432C109.208 22.3554 108.674 21.3475 107.966 20.5197C107.27 19.6678 106.406 19.0199 105.374 18.576C104.354 18.1321 103.184 17.9101 101.864 17.9101C101.012 17.9101 100.262 17.9401 99.6144 18.0001C98.9905 18.0721 98.4565 18.1501 98.0125 18.2341C97.4965 18.3301 97.0586 18.444 96.6986 18.576ZM142.47 64.6842C139.998 64.6842 137.676 64.2883 135.504 63.4964C133.344 62.7165 131.461 61.5767 129.853 60.077C128.245 58.5652 126.967 56.7056 126.019 54.4979C125.107 52.2543 124.651 49.7047 124.651 46.8492C124.651 44.3296 125.077 41.996 125.929 39.8484C126.781 37.6888 127.951 35.8111 129.439 34.2154C130.939 32.6316 132.684 31.3958 134.676 30.508C136.68 29.6081 138.846 29.1582 141.174 29.1582C143.466 29.1582 145.596 29.5602 147.564 30.364C149.532 31.1439 151.229 32.2957 152.657 33.8194C154.109 35.3192 155.249 37.1849 156.077 39.4165C156.929 41.6241 157.385 44.1497 157.445 46.9932C154.925 46.9452 152.405 46.9092 149.885 46.8852C147.354 46.8612 144.726 46.8492 142.002 46.8492C140.058 46.8492 138.162 46.8612 136.314 46.8852C134.478 46.9092 132.822 46.9452 131.347 46.9932C131.479 49.3088 131.839 51.4085 132.427 53.2921C133.026 55.1638 133.842 56.7715 134.874 58.1153C135.918 59.4231 137.178 60.4369 138.654 61.1568C140.154 61.8767 141.84 62.2366 143.712 62.2366C145.008 62.2366 146.226 62.0866 147.366 61.7867C148.53 61.4747 149.58 61.0548 150.515 60.5269C151.451 59.987 152.291 59.3571 153.035 58.6372C153.767 57.9053 154.391 57.1135 154.907 56.2616L155.303 56.4596L152.819 62.4346C151.619 63.0585 150.179 63.5924 148.5 64.0363C146.832 64.4682 144.822 64.6842 142.47 64.6842ZM138.024 44.2397C140.256 44.2397 142.488 44.2397 144.72 44.2397C146.976 44.2157 149.022 44.1737 150.857 44.1137C150.653 42.17 150.269 40.4243 149.706 38.8766C149.154 37.3408 148.44 36.0331 147.564 34.9532C146.7 33.8854 145.674 33.0636 144.486 32.4877C143.298 31.8998 141.99 31.6058 140.562 31.6058C139.266 31.6058 138.072 31.8998 136.98 32.4877C135.912 33.0396 134.976 33.8494 134.172 34.9172C133.368 35.9971 132.72 37.3168 132.229 38.8766C131.737 40.4243 131.443 42.188 131.347 44.1677C132.355 44.2157 133.416 44.2397 134.532 44.2397C135.648 44.2397 136.812 44.2397 138.024 44.2397ZM160.937 54.192C160.937 52.4283 161.297 50.8985 162.017 49.6028C162.749 48.307 163.721 47.2032 164.933 46.2913C166.133 45.3675 167.506 44.6296 169.054 44.0777C170.59 43.4898 172.186 43.0399 173.842 42.7279C175.498 42.392 177.13 42.17 178.738 42.062C180.346 41.9301 181.816 41.8521 183.148 41.8281V40.1184C183.148 38.6426 182.962 37.3708 182.59 36.303C182.206 35.2232 181.666 34.3413 180.97 33.6575C180.286 32.9376 179.452 32.4097 178.468 32.0737C177.508 31.7138 176.446 31.5338 175.282 31.5338C174.478 31.5338 173.686 31.6058 172.906 31.7498C172.126 31.8818 171.31 32.1037 170.458 32.4157C169.63 32.7276 168.748 33.1535 167.812 33.6935C166.901 34.2214 165.905 34.8992 164.825 35.7271L164.501 35.5291L166.769 30.8139C167.512 30.478 168.238 30.208 168.946 30.0041C169.666 29.7761 170.392 29.5961 171.124 29.4642C171.868 29.3322 172.618 29.2422 173.374 29.1942C174.154 29.1342 174.97 29.1042 175.822 29.1042C178.162 29.1042 180.16 29.3922 181.816 29.9681C183.496 30.532 184.857 31.3119 185.901 32.3077C186.969 33.2915 187.749 34.4553 188.241 35.7991C188.733 37.1189 188.979 38.5346 188.979 40.0464V50.9705C188.979 52.8662 189.003 54.5339 189.051 55.9737C189.123 57.3774 189.189 58.5892 189.249 59.6091C189.345 60.6409 189.447 61.5047 189.555 62.2006C189.687 62.8845 189.819 63.4664 189.951 63.9463V64.0723H182.554V63.9463C182.662 63.5864 182.74 63.1845 182.788 62.7405C182.86 62.2846 182.914 61.7447 182.95 61.1208C182.482 61.5287 181.924 61.9427 181.276 62.3626C180.652 62.7825 179.926 63.1725 179.098 63.5324C178.294 63.8683 177.388 64.1503 176.38 64.3783C175.408 64.5822 174.328 64.6842 173.14 64.6842C169.252 64.6842 166.247 63.7784 164.123 61.9667C161.999 60.131 160.937 57.5394 160.937 54.192ZM183.148 50.9705V44.4376C181.12 44.4616 179.17 44.5876 177.298 44.8156C175.414 45.0075 173.746 45.4395 172.294 46.1113C170.866 46.7832 169.72 47.7431 168.856 48.9909C168.004 50.2267 167.578 51.8704 167.578 53.922C167.578 56.5616 168.238 58.5712 169.558 59.951C170.878 61.3308 172.696 62.0207 175.012 62.0207C176.08 62.0207 177.052 61.8767 177.928 61.5887C178.828 61.2768 179.608 60.8988 180.268 60.4549C180.964 59.987 181.546 59.4831 182.014 58.9432C182.482 58.3913 182.842 57.8574 183.094 57.3414C183.13 56.4896 183.148 55.5477 183.148 54.5159C183.148 53.4721 183.148 52.2903 183.148 50.9705ZM203.702 42.8719V52.3383C203.702 55.2898 204.284 57.4614 205.448 58.8532C206.624 60.233 208.208 60.9228 210.2 60.9228C210.92 60.9228 211.724 60.7789 212.612 60.4909C213.512 60.179 214.43 59.777 215.366 59.2851C216.326 58.7692 217.274 58.1753 218.21 57.5034C219.169 56.8315 220.051 56.1177 220.855 55.3618C220.903 54.7139 220.927 54.03 220.927 53.3101C220.927 52.5783 220.927 51.7984 220.927 50.9705V42.8719C220.927 40.9642 220.891 39.3085 220.819 37.9047C220.771 36.477 220.705 35.2472 220.621 34.2154C220.549 33.1955 220.447 32.3377 220.315 31.6418C220.207 30.9459 220.087 30.364 219.955 29.8961V29.7701H227.695V29.8961C227.551 30.364 227.425 30.9459 227.317 31.6418C227.209 32.3377 227.107 33.1955 227.011 34.2154C226.927 35.2472 226.861 36.477 226.813 37.9047C226.777 39.3085 226.759 40.9642 226.759 42.8719V50.9705C226.759 52.8662 226.777 54.5339 226.813 55.9737C226.861 57.3774 226.927 58.5892 227.011 59.6091C227.107 60.6409 227.209 61.5047 227.317 62.2006C227.425 62.8845 227.551 63.4664 227.695 63.9463V64.0723H219.955V63.9463C220.087 63.3824 220.219 62.6625 220.351 61.7867C220.507 60.9228 220.621 59.789 220.693 58.3853C219.769 59.1651 218.773 59.933 217.706 60.6889C216.65 61.4448 215.546 62.1286 214.394 62.7405C213.254 63.3404 212.09 63.8264 210.902 64.1983C209.738 64.5582 208.586 64.7382 207.446 64.7382C205.706 64.7382 204.224 64.4382 203 63.8384C201.788 63.2385 200.793 62.4466 200.013 61.4627C199.257 60.4789 198.699 59.3631 198.339 58.1153C198.003 56.8555 197.835 55.5717 197.835 54.264V42.8719C197.835 40.9642 197.811 39.3085 197.763 37.9047C197.727 36.477 197.661 35.2472 197.565 34.2154C197.481 33.1955 197.385 32.3377 197.277 31.6418C197.157 30.9459 197.031 30.364 196.899 29.8961V29.7701H204.638V29.8961C204.506 30.364 204.386 30.9459 204.278 31.6418C204.158 32.3377 204.056 33.1955 203.972 34.2154C203.876 35.2472 203.81 36.477 203.774 37.9047C203.726 39.3085 203.702 40.9642 203.702 42.8719ZM248.142 62.0926C248.802 62.0926 249.456 61.9727 250.104 61.7327C250.776 61.4807 251.412 61.1448 252.012 60.7249C252.648 60.2929 253.241 59.813 253.793 59.2851C254.381 58.7212 254.915 58.1393 255.395 57.5394L255.737 57.7014L253.559 63.1005C253.295 63.2324 252.96 63.4004 252.552 63.6044C252.18 63.7844 251.712 63.9643 251.148 64.1443C250.608 64.3003 249.972 64.4442 249.24 64.5762C248.508 64.6842 247.638 64.7382 246.63 64.7382C243.63 64.7382 241.296 63.9343 239.628 62.3266C237.972 60.6949 237.144 58.1633 237.144 54.7319V32.3797L231.511 32.5776V29.6261C232.207 29.6741 233.035 29.7101 233.995 29.7341C234.955 29.7581 236.005 29.7701 237.144 29.7701C237.12 28.1864 237.078 26.7886 237.018 25.5768C236.97 24.353 236.898 23.2912 236.802 22.3914C236.742 21.4795 236.658 20.7117 236.55 20.0878C236.43 19.4639 236.316 18.936 236.208 18.504V18.378H243.948V18.504C243.816 18.936 243.69 19.4639 243.57 20.0878C243.462 20.7117 243.366 21.4675 243.282 22.3554C243.21 23.2552 243.144 24.317 243.084 25.5408C243.036 26.7526 243 28.1624 242.976 29.7701C244.38 29.7461 245.754 29.7221 247.098 29.6981C248.454 29.6501 249.684 29.6081 250.788 29.5721C251.904 29.5002 252.84 29.4402 253.595 29.3922C254.375 29.3322 254.891 29.2782 255.143 29.2302L254.531 32.6496C253.391 32.6256 252.198 32.5896 250.95 32.5416C249.882 32.5057 248.652 32.4757 247.26 32.4517C245.88 32.4277 244.452 32.4037 242.976 32.3797V55.4338C242.976 56.8135 243.12 57.9413 243.408 58.8172C243.72 59.6571 244.11 60.3229 244.578 60.8149C245.07 61.3068 245.616 61.6427 246.216 61.8227C246.852 62.0027 247.494 62.0926 248.142 62.0926ZM267.347 74.8525L272.062 63.6764L260.273 37.8687C259.853 36.8849 259.397 35.9491 258.905 35.0612C258.413 34.1494 257.939 33.3335 257.483 32.6136C257.063 31.8938 256.685 31.2999 256.349 30.8319C256.013 30.34 255.791 30.0281 255.683 29.8961V29.7701H264.467V29.8961C264.419 30.0161 264.383 30.184 264.359 30.4C264.335 30.628 264.323 30.8319 264.323 31.0119C264.323 31.6958 264.425 32.4637 264.629 33.3155C264.845 34.1434 265.247 35.1812 265.835 36.429L275.086 56.5316L283.528 36.6989C283.876 35.8711 284.23 34.9652 284.59 33.9814C284.974 32.9976 285.166 32.0077 285.166 31.0119C285.166 30.724 285.142 30.49 285.094 30.31C285.046 30.1061 285.004 29.9681 284.968 29.8961V29.7701H290.997V29.8961C290.589 30.328 290.073 31.0899 289.449 32.1817C288.849 33.2495 288.201 34.5993 287.506 36.231L271.522 74.2946C271.174 75.1224 270.808 76.0283 270.424 77.0121C270.065 77.9839 269.885 78.9738 269.885 79.9816C269.885 80.2696 269.909 80.5155 269.957 80.7195C270.005 80.8995 270.047 81.0254 270.083 81.0974V81.2234H263.819V81.0974C264.251 80.6655 264.767 79.9276 265.367 78.8838C265.991 77.804 266.651 76.4602 267.347 74.8525Z" fill="#2E3844"></path><path fill-rule="evenodd" clip-rule="evenodd" d="M58.9001 18.4927C62.6788 30.7735 61.557 37.7995 70.4134 44.2351C71.9485 45.3569 70.2363 47.9548 67.5793 48.7814C65.4538 49.4899 66.6937 51.084 67.5203 51.6154C68.3469 52.1468 67.166 54.3314 65.749 54.6856C64.5091 54.9808 67.7565 56.5159 66.2804 57.6968C65.2177 58.5824 63.9778 58.051 63.3283 58.7595C62.7379 59.35 65.69 63.542 62.3836 65.3132C59.0182 67.1436 50.0438 64.0143 48.2725 65.1952C46.5603 66.317 40.9513 78.1845 42.1321 83.9116C21.6444 48.4271 60.0219 38.0357 58.9001 18.4927Z" fill="url(#paint0_linear_5169_1077)"></path><path fill-rule="evenodd" clip-rule="evenodd" d="M35.3414 82.8489C18.101 49.9032 51.519 37.9176 57.4823 25.2826C63.4456 12.7066 54.6482 2.49223 45.1424 2.19702C64.6264 20.1459 30.559 29.1203 23.8872 46.5378C18.6324 60.2356 22.175 78.0074 35.3414 82.8489Z" fill="url(#paint1_linear_5169_1077)"></path><path fill-rule="evenodd" clip-rule="evenodd" d="M16.6904 74.5239C7.00749 35.4379 40.9568 31.0687 49.2228 18.4337C52.352 13.7693 53.0015 7.56987 45.1488 2.19702C55.186 19.0831 24.6611 20.6182 13.1479 33.9618C2.81548 45.9474 6.53515 66.0808 16.6904 74.5239Z" fill="url(#paint2_linear_5169_1077)"></path><path fill-rule="evenodd" clip-rule="evenodd" d="M1.69537 47.1873C5.17887 18.0204 28.9139 25.4597 43.3793 14.655C48.5159 10.8172 48.1617 6.6252 45.3867 2.19702C44.7963 17.1938 -5.44875 1.07522 1.69537 47.1873Z" fill="url(#paint3_linear_5169_1077)"></path><defs><linearGradient id="paint0_linear_5169_1077" x1="60.6639" y1="18.2937" x2="31.7794" y2="73.6997" gradientUnits="userSpaceOnUse"><stop stop-color="#F8B4A1"></stop><stop offset="0.596373" stop-color="#EFA38D"></stop></linearGradient><linearGradient id="paint1_linear_5169_1077" x1="48.2149" y1="1.95175" x2="10.1287" y2="66.2712" gradientUnits="userSpaceOnUse"><stop stop-color="#F8B4A1"></stop><stop offset="0.596373" stop-color="#EFA38D"></stop></linearGradient><linearGradient id="paint2_linear_5169_1077" x1="38.2614" y1="1.97707" x2="8.98529" y2="66.6239" gradientUnits="userSpaceOnUse"><stop stop-color="#F8B4A1"></stop><stop offset="0.596373" stop-color="#EFA38D"></stop></linearGradient><linearGradient id="paint3_linear_5169_1077" x1="33.6521" y1="2.0602" x2="21.4686" y2="47.2343" gradientUnits="userSpaceOnUse"><stop stop-color="#F8B4A1"></stop><stop offset="0.596373" stop-color="#EFA38D"></stop></linearGradient></defs></svg>