<svg xmlns="http://www.w3.org/2000/svg" width="160" height="216" viewBox="0 0 160 216" fill="none"><circle cx="80" cy="80" r="80" fill="#D29950"></circle><path d="M75.5944 34.0837H79.069L82.6326 34.2619L86.1071 34.6183L89.4035 35.1528L92.6999 35.8656L95.8181 36.7565L98.4017 37.6474L100.985 38.7165L103.213 39.7856L105.084 40.7656L106.865 41.8346L108.825 43.171L110.251 44.2401L111.231 45.0419L112.122 45.8437L112.834 46.4674L114.527 48.1601L115.329 49.1401L115.685 49.6747L116.042 51.1001L116.22 52.6147V55.1092L115.953 57.4256L115.685 58.7619V59.2074L116.665 59.831L117.913 60.811L118.982 61.791L119.784 62.5928L120.942 64.1074L121.833 65.6219L122.545 67.2256L123.169 69.1856L123.614 71.3237L123.971 74.1747L124.327 78.7183L124.773 84.0637L125.04 88.6074L125.129 90.8347V99.7437L124.862 103.486L124.505 106.069L124.238 107.406L124.149 107.584L125.307 106.782L126.465 106.336H127.891L128.782 106.782L129.316 107.495L129.673 108.386L129.851 109.276V111.415L129.584 113.286L129.138 115.246L129.227 116.226V118.275L128.96 120.591L128.336 123.62L127.445 126.649L126.554 129.055L125.307 131.638L125.218 131.727L125.307 132.529L126.198 136.093L127.178 140.815L127.891 145.18L128.336 148.833L128.604 152.04L128.693 153.644V160.415L128.425 163.889L128.069 166.562L127.534 169.324L127.089 170.927H127L126.822 168.967L126.465 167.364L126.02 166.206L125.842 165.938L125.753 169.858L125.396 173.422L124.862 176.54L123.971 180.104L123.258 182.42L122.278 185.004L121.298 187.231L120.051 189.726L118.982 191.507L118.804 191.596L119.16 189.191L119.249 188.122V185.716L119.071 184.024L118.804 182.687L118.091 184.915L117.111 187.498L116.131 189.636L115.24 191.329L114.082 193.2L112.924 194.804L111.765 196.229L110.785 197.298L108.914 199.169L107.667 200.149L106.42 201.04H106.242L106.331 200.595L107.044 198.367L107.578 196.051L107.845 194.447L107.934 193.556V191.418L106.598 193.735L104.816 196.407L104.014 197.476L103.034 198.724L102.322 199.704L101.431 201.575L100.629 203.713L100.005 205.762L99.4708 208.346L99.2035 210.484L99.1144 211.731L98.1344 211.196L97.2435 210.484L95.9071 209.147L95.1944 208.167L95.0162 208.435L94.4817 210.573L94.2144 212.266L94.0362 213.869L93.3235 213.78L91.4526 213.156L89.9381 212.444L88.6017 211.553L87.889 210.929L87.9781 211.909L88.4235 213.246L88.9581 214.315L89.0471 214.582L87.889 214.493L84.6817 213.958L81.8308 213.246L78.7126 212.176L76.129 211.018L74.4362 210.127L72.5653 208.969L71.0508 207.9L69.8035 206.92L68.5562 205.851L67.2199 204.604L66.5071 203.891L65.8835 203.178L64.7253 201.842L63.389 200.06L62.0526 198.011L60.8944 195.962L59.9144 193.913L59.5581 193.022V194.626L59.8253 196.318L60.3599 198.1L60.9835 199.615L61.6962 200.862V201.04L61.2508 200.862L59.7362 199.704L58.489 198.635L56.7071 196.853L55.9053 195.873L54.7471 194.447L53.4999 192.576L52.609 191.062L51.5399 189.013L50.7381 187.231L49.7581 184.558L49.2235 182.687L49.0453 183.222L48.7781 184.915L48.689 186.34V187.409L48.8671 189.726L49.1344 191.24L49.0453 191.596L47.8871 189.636L46.8181 187.587L45.5708 184.736L44.5017 181.796L43.6108 178.678L42.9871 175.916L42.5417 173.155L42.2744 170.66L42.1853 169.324L42.0962 165.938L41.5617 167.186L41.2053 168.611L40.9381 170.838L40.7599 170.571L40.1362 167.898L39.6908 165.136L39.4235 162.731L39.2453 159.702V154.446L39.4235 151.149L39.7799 147.496L40.3144 143.576L41.1162 139.122L42.0071 135.113L42.809 131.995L42.6308 131.549L41.9181 130.213L40.9381 127.807L40.0471 125.135L39.2453 121.927L38.889 119.789L38.7108 117.384L38.7999 115.156L38.2653 112.662L38.0871 111.058V109.544L38.3544 108.118L38.7999 107.227L39.6017 106.515L40.0471 106.336H41.4726L42.4526 106.693L43.3435 107.227L43.6999 107.495L43.1653 104.02L42.8981 100.902L42.809 98.9419V91.7256L42.9871 87.4492L43.3435 82.1037L43.5217 79.9656L43.6108 79.6983L42.2744 80.1437L40.2253 80.5892L38.7108 80.7674H35.949L33.8108 80.5001L31.5835 79.9656L29.7126 79.3419L30.069 79.1637L31.4944 78.8965L32.9199 78.2728L34.0781 77.471L34.7908 76.7583L35.5926 75.6001L36.3053 74.1747L34.4344 74.531L32.3853 74.7092H30.2471L28.0199 74.531L25.3471 74.0856L22.6744 73.3728L22.0508 73.1056V73.0165L24.0999 72.6601L26.2381 72.0365L27.9308 71.3237L29.6235 70.4328L31.1381 69.3637L32.1181 68.5619L33.2762 67.4928L34.5235 66.1565L35.6817 64.6419L36.8399 63.0383L38.1762 60.9001L39.6908 58.3165L41.0271 56.0892L42.1853 54.3965L42.5417 53.951L40.849 54.7528L39.4235 55.6437L37.909 56.8019L37.0181 57.6037L36.3053 58.2274L35.2362 59.2965L34.4344 60.2765L33.5435 61.3456L33.1871 61.7019L33.4544 60.9001L34.5235 58.6728L35.7708 56.4456L36.8399 54.7528L38.0871 52.971L39.2453 51.4565L40.4035 50.031L41.2944 49.051L41.9181 48.3383L44.5017 45.7546L45.4817 44.9528L46.3726 44.151L47.5308 43.2601L49.1344 42.1019L50.4708 41.211L52.2526 40.1419L54.3908 38.9837L56.8853 37.8256L59.2017 36.9346L61.6071 36.1328L64.2799 35.4201L67.3981 34.7965L69.9817 34.4401L73.189 34.1728L75.5944 34.0837Z" fill="black"></path><path d="M111.849 64.2856H112.027L112.74 65.7111L113.453 67.4929L113.898 69.0075L114.344 71.4129L114.611 73.8184L114.7 75.422V80.9456L114.433 84.5984L113.987 87.9838L113.364 91.1911L114.967 97.3384L115.858 100.546V100.902H116.036L116.126 99.922L117.016 94.8438L117.373 92.7056L117.551 92.9729L118.442 96.1802L119.244 99.5656L119.6 101.437L119.689 102.149V104.377L119.333 106.871L118.62 110.167L118.353 111.237L118.442 112.395L118.887 116.137L119.066 118.542V120.858L118.798 122.106L118.086 123.887L116.749 126.56L115.591 128.609L114.344 130.837L112.829 133.331L111.582 135.38L111.404 135.113L110.958 132.975L110.424 131.549L109.978 130.747L109.8 132.44L109.266 134.667L108.464 136.895L107.662 138.677L107.306 138.231L106.058 136.538L105.078 135.38L104.276 134.489L103.653 133.777L102.495 132.618L101.782 131.995L100.624 131.015L99.0201 129.857L97.4165 128.877L96.971 128.609L96.1692 126.293L95.1892 123.887L94.3874 122.195L93.2292 120.235L92.2492 118.987L92.071 118.809L92.2492 120.057L92.5165 122.195V123.531L92.3383 124.066L91.091 124.867L89.3092 125.58L87.5274 126.115L84.8546 126.649L83.7855 126.738L81.2019 126.293L78.8855 125.669L77.1037 124.957L75.9455 124.333L75.5001 123.977V121.571L75.8565 119.255L75.9455 118.809L75.5001 119.255L74.7874 120.146L73.9855 121.482L72.9165 123.531L71.7583 126.382L70.9565 128.609L69.3528 129.589L67.8383 130.658L66.9474 131.371L65.7001 132.44L65.0765 133.064L64.3637 133.687L63.5619 134.578L62.671 135.558L61.691 136.806L60.711 138.142L60.4437 138.587H60.2656L59.5528 137.073L58.6619 134.578L58.2165 132.707L57.9492 130.747L57.3256 131.995L56.791 133.866L56.5237 135.291L56.2565 135.202L54.831 132.797L53.3165 130.302L52.0692 128.075L51.0001 126.115L49.6637 123.442L49.0401 121.749L48.951 121.393L48.8619 119.433L49.0401 116.404L49.5746 111.949V111.058L48.951 108.475L48.4165 105.624L48.2383 104.02V102.417L48.5946 100.1L49.4856 96.2693L50.4656 92.7056L50.6437 92.9729L51.6237 98.7638L51.9801 100.724L52.2474 100.011L53.4946 95.3784L54.5637 91.2802L54.4746 90.5675L53.9401 87.8056L53.4946 84.242L53.3165 82.0147L53.2274 80.0547V76.2238L53.4056 73.1056H55.0092L57.8601 73.3729L61.0674 73.9075L63.2946 74.442L65.611 75.1547L67.4819 75.8675L69.4419 76.7584L71.1346 77.7384L72.5601 78.7184L73.6292 79.6093L72.9165 78.1838L71.7583 76.3129L70.9565 75.2438L69.9765 74.0856L68.9965 73.1056L69.7983 73.1947L72.1146 73.8184L73.8965 74.442L75.6783 75.2438L77.371 76.1347L79.0637 77.2038L80.2219 78.0947L81.2019 78.8966L82.271 79.8766L83.4292 81.0347L83.8746 81.5693V81.7475L85.3001 81.0347L87.5274 79.8766L91.6255 77.5602L94.031 76.1347L96.5255 74.6202L98.2183 73.5511L98.7528 73.1947H98.931L98.8419 73.6402L97.951 75.1547L96.7928 76.7584L95.6346 78.1838L94.5655 79.4311L94.3874 79.6093L95.1892 79.342L97.4165 78.362L99.6437 77.2038L101.782 75.8675L103.296 74.7093L104.187 73.9966L105.078 73.1947L105.791 72.5711L106.771 71.5911L107.395 70.8784L108.642 69.3638L109.8 67.7602L110.958 65.8893L111.849 64.2856Z" fill="#FDFDFD"></path><path d="M63.2091 99.031H69.8018L74.6127 99.2983L78.5327 99.6546L78.8891 100.011L79.78 101.704L80.3145 103.129V103.842L79.3345 108.742L78.9782 110.078L78.0873 112.395L76.6618 116.582L76.4836 116.76L76.0382 113.375L75.5036 110.613L75.3254 109.722L74.88 110.167L73.8109 111.326L73.1873 112.038L72.2963 113.018L71.6727 113.731L71.2273 114.266H71.0491L71.2273 112.038L71.5836 110.256L71.6727 110.078L65.3473 111.415H63.7436L60.6254 110.88L56.1709 109.9L54.6563 109.544L54.8345 109.187L56.1709 107.762L57.24 106.693L53.7654 106.426L51.8945 106.336L52.5182 105.356L53.4982 104.198L54.3 103.218L55.6363 101.882L56.6163 101.08L57.5073 100.456L58.8436 99.7437L60.0909 99.3874L61.9618 99.1201L63.2091 99.031Z" fill="black"></path><path d="M97.9525 99.031H105.08L107.04 99.2092L108.465 99.4765L109.623 99.9219L110.871 100.635L112.296 101.793L114.256 103.753L115.236 105L116.127 106.158V106.336L112.652 106.515L111.583 106.604H110.692L111.138 107.049L112.207 108.029L112.831 108.742L113.365 109.366V109.544L108.643 110.613L104.902 111.326L104.278 111.415H102.763L96.4379 110.078L96.7943 111.771L96.9725 113.375V114.266L96.3488 113.731L95.7252 113.018L94.7452 111.949L94.1216 111.236L93.0525 109.989L92.0725 108.92L91.2707 107.94L90.3798 106.96L89.5779 105.98L88.3307 104.466L87.707 103.486L87.9743 102.416L89.0434 100.189L89.3998 99.6546L93.3198 99.2983L97.9525 99.031Z" fill="black"></path><path d="M73.1854 149.902L73.4526 150.258L73.9872 151.684L74.3435 153.109L74.5217 154.624V155.604L74.3435 157.029L73.809 158.633L73.2744 159.613L73.8981 159.078L74.8781 157.831L75.769 156.316L76.6599 154.089L76.749 153.109L76.5708 150.793L76.8381 151.149L77.5508 152.664L78.3526 155.069L78.709 156.762L78.7981 157.564V160.058L78.5308 161.662L78.0854 163.176L77.3726 164.78L76.4817 166.205L76.3035 166.295L76.3926 165.493L76.9272 162.731L77.2835 160.058L77.3726 158.9L76.6599 160.504L75.6799 162.375L74.6108 164.335L73.5417 166.562L72.9181 168.433L72.4726 170.571L72.2944 172.442V173.867L72.4726 175.827L73.0072 178.411L73.809 180.995L74.789 183.489L76.4817 187.498L77.6399 190.527L78.3526 192.755L78.7981 194.536V195.16L78.6199 195.071L77.8181 193.289L76.6599 191.062L75.2344 188.656L73.8981 186.429L72.829 184.558L71.7599 182.509L70.869 180.46L70.3344 178.767L70.1563 179.658L69.9781 182.331V188.211L70.2454 191.329L70.6908 194.18L71.2254 196.585L71.1363 196.764L70.7799 196.051L69.889 193.645L69.0872 191.062L68.3744 188.211L67.7508 184.825L67.3944 181.885L67.3054 180.638V176.005L67.5726 173.6L68.0181 171.373L68.5526 169.591L67.929 170.482L67.1272 171.907L66.5035 173.333L66.0581 174.669L65.7017 176.362L65.5235 177.965H65.4344V174.135L65.7017 172.085L66.2363 170.036L66.949 168.344L67.5726 167.185L67.8399 166.74L66.8599 167.453L65.969 168.255L65.2563 169.145L64.5435 170.393L64.0981 171.462L63.7417 173.244L63.5635 173.422V172.085L63.8308 170.393L64.2763 168.789L64.989 167.185L65.8799 165.76V165.671L64.8999 166.562L64.009 167.72L63.9199 167.898H63.7417L63.8308 167.364L64.6326 165.849L65.4344 164.691L66.1472 163.8L67.2163 162.553L68.6417 161.038L69.2654 160.415L69.7108 159.88L68.909 160.415L67.6617 161.216L65.7908 162.285L64.7217 162.998L63.7417 163.8L62.9399 164.691H62.7617L62.9399 164.245L63.7417 162.909L64.8999 161.484L65.8799 160.415L67.5726 158.722L68.3744 157.742L69.2654 156.495L70.0672 154.802L70.4235 153.465L70.6017 152.129V150.08H70.869L71.5817 151.595L72.0272 153.02L72.2054 154.178V155.425L71.9381 156.762V157.029L72.6508 155.693L73.0963 154.356L73.2744 153.465L73.3635 152.575L73.2744 150.704L73.1854 149.902Z" fill="#FDFDFD"></path><path d="M69.4444 42.1021L70.4244 42.3693L72.0281 43.0821L73.6317 43.973L75.2353 45.1311L76.4826 46.2002L77.3735 47.0021L77.9971 47.7148L78.9771 48.7839L80.1353 50.2984L81.0262 51.6348L81.8281 52.9711L82.8971 55.0202L83.699 56.713L84.5899 59.0293L85.3917 61.4348L86.1044 64.1075L86.5499 66.1566V66.6021L86.3717 66.2457L85.4808 63.7511L84.5008 61.613L83.4317 59.4748L82.1844 57.3366L81.2044 55.733L81.0262 55.4657L81.2935 56.4457L81.9171 58.4948L82.5408 61.3457L82.8971 63.6621L83.1644 66.3348L83.2535 68.0275V71.5021L83.0753 74.353L82.9862 75.2439L82.8081 74.9766L82.1844 72.393L81.3826 69.7202L80.5808 67.4039L79.4226 64.553L78.1753 61.8802L76.839 59.3857L75.5917 57.3366L74.6117 55.9111L73.3644 54.2184L72.3844 53.0602L71.7608 52.3475L70.959 51.4566L69.4444 49.9421L68.4644 49.1402L67.3953 48.2493L65.8808 47.1802L64.0099 46.1111L62.3171 45.3984L60.8026 44.953L59.199 44.6857H56.4371L54.8335 44.953L52.9626 45.4875L51.359 46.2002L49.6662 47.0911L48.1517 48.1602L47.2608 48.873L46.3699 49.6748L45.6571 50.2984L45.3008 50.5657L45.479 50.1202L46.459 48.873L47.5281 47.6257L49.4881 45.6657L51.0026 44.5075L52.339 43.7057L54.0317 42.9039L55.4571 42.4584L56.9717 42.1911H59.6444L61.2481 42.4584L63.0299 42.993L64.6335 43.7057L66.3262 44.5966L67.9299 45.6657L68.999 46.4675L69.979 47.2693L70.8699 48.0711L71.5826 48.6948L74.1662 51.2784L74.7899 51.9911L75.859 53.2384L77.1062 54.753L78.4426 56.5348L78.799 56.8911L78.0862 54.5748L77.1953 52.3475L76.4826 50.833L75.4135 48.9621L74.5226 47.6257L73.4535 46.2002L72.4735 45.0421L71.4935 43.973L70.7808 43.2602L69.8008 42.4584L69.4444 42.1021Z" fill="#FDFDFD"></path><path d="M94.1255 151.773L94.3037 151.862L94.7492 154.089L95.7292 157.653L96.1746 159.256L96.8873 157.296L97.4219 155.247L97.6001 153.822V152.485H97.7783L98.3128 154.089L98.491 154.98L98.5801 155.871V157.385L98.3128 159.613L97.6001 162.82L96.8873 166.116L96.7092 167.72L97.511 169.591L98.0455 171.284L98.4019 173.155L98.5801 172.085L98.6692 171.105V167.542L98.4019 165.582L98.2237 164.78L98.3128 164.424L99.1146 165.938L99.9164 167.987L100.362 169.591L100.629 171.105L100.718 171.907V174.402L100.451 176.451L100.006 178.233L99.2928 180.282L98.491 182.064L97.511 183.935L96.3528 185.805L95.0164 187.765L93.7692 189.458L93.4128 189.904H93.2346L93.4128 189.102L94.2146 187.053L94.9273 184.202L95.4619 180.995L95.6401 178.945V176.273L95.3728 173.689L94.8383 171.105L93.8583 168.165L92.2546 164.424L91.2746 161.929L90.5619 159.613L90.1164 157.385L90.0273 156.584V154.98L90.2055 155.247L90.9183 157.385L91.8092 159.345L92.9673 161.395L93.5019 162.285L93.4128 160.236V158.811L93.591 155.515L93.9473 152.396L94.1255 151.773Z" fill="#FEFEFE"></path><path d="M75.7694 131.193L76.1258 131.282L75.324 132.351L74.344 134.044L73.6312 135.469L73.0076 137.073L72.5622 138.855L72.4731 139.478L72.384 141.527L71.7603 140.993L71.2258 140.102L70.7803 139.033L70.5131 137.607L69.6222 138.944L68.8203 140.637L68.3749 141.973L68.1967 142.775L68.1076 143.577V145.18L67.5731 144.735L66.8603 143.577L66.3258 142.151L66.2367 141.795L65.9694 142.418L65.1676 144.824L64.3658 146.606L63.3858 148.477L62.3167 149.991L61.2476 151.149L60.4458 151.862L59.1985 152.575L58.0403 152.931H56.8822L55.8131 152.575L55.0112 152.04L54.2985 151.417L54.0312 150.971L55.1894 151.06L55.9912 150.793L56.5258 150.437L57.3276 149.635L58.2185 148.298L59.2876 146.427L60.7131 143.844L61.7822 142.062L62.6731 140.726L63.6531 139.389L64.8112 137.964L66.1476 136.538L67.2167 135.558L68.7312 134.4L70.424 133.331L71.8494 132.618L73.2749 131.995L75.1458 131.371L75.7694 131.193Z" fill="#FEFEFE"></path><path d="M91.8945 131.193L92.7854 131.371L94.9236 132.084L96.7054 132.886L98.3091 133.777L99.8236 134.846L100.804 135.647L101.873 136.627L102.942 137.697L103.744 138.677L104.813 140.013L105.882 141.617L107.218 143.844L108.465 146.071L109.624 148.12L110.336 149.189L111.049 150.08L111.762 150.704L112.742 151.06L113.9 150.971L113.633 151.417L113.009 152.04L112.118 152.575L111.495 152.842L111.049 152.931H109.98L108.911 152.664L107.664 151.951L106.684 151.149L105.704 150.08L104.635 148.566L103.565 146.606L102.675 144.467L101.873 142.062L101.784 141.706L101.249 143.22L100.536 144.557L99.9127 145.269L99.8236 144.913V143.22L99.5563 141.884L99.0218 140.369L98.3091 138.944L97.4182 137.518L97.24 138.766L96.8836 139.835L96.26 140.904L95.7254 141.527H95.5473V140.102L95.3691 138.677L94.8345 136.717L94.0327 134.846L93.1418 133.153L92.0727 131.549L91.8945 131.193Z" fill="#FEFEFE"></path><path d="M81.3805 163.889L81.5587 164.067L82.0932 165.938L82.4496 167.809V170.126L82.0932 172.086L81.5587 173.867L80.8459 176.184L80.4005 178.322L80.2223 179.747V180.371L81.4696 177.342L82.5387 174.847L83.4296 172.353L83.875 170.482L84.0532 169.146V167.007L83.7859 165.404L83.6077 164.78V164.335L83.9641 164.78L84.6768 166.295L85.3005 168.166L85.5677 169.413L85.6568 170.126V173.066L85.3005 175.026L84.5877 177.342L82.9841 181.707L82.0041 184.647L81.3805 187.142L81.0241 189.369V192.666L81.4696 194.893L82.0041 196.318L82.6277 197.566L82.5387 197.744L81.5587 196.407L80.4896 194.536L79.7768 192.844L79.2423 191.062L78.975 189.726L78.8859 188.924L78.7968 186.518L78.3514 184.647L78.0841 182.687V179.48L78.3514 177.609L78.7077 176.095L77.8168 177.698L77.1932 179.302L76.8368 181.084H76.5696L76.4805 179.569L76.6587 178.055L77.015 176.718L77.7277 174.936L78.975 172.531L80.0441 170.571L80.7568 168.878L81.2023 167.453L81.3805 166.384V163.889Z" fill="#FEFEFE"></path><path d="M79.6016 38.271L80.047 38.3601L82.2743 39.4292L84.0561 40.4983L85.5707 41.5674L86.8179 42.5474L87.887 43.5274L88.5997 44.151L89.7579 45.3983L90.9161 46.9128L91.8961 48.4274L92.6979 49.9419L93.4107 51.7237L93.9452 53.5055L94.3016 55.4655L94.3907 56.2674V60.0092L94.1234 62.0583L93.5888 64.4637L92.8761 66.7801L92.1634 68.651L91.3616 70.4328L90.0252 73.1055L88.5997 75.511L87.6197 77.0255L87.5307 76.7583L88.4216 74.6201L89.3125 72.1255L90.1143 69.3637L90.7379 66.4237L91.0943 63.751L91.1834 62.5928V58.851L90.9161 56.2674L90.4707 53.951L89.847 51.8128L89.0452 49.6746L87.9761 47.4474L86.907 45.6655L85.7488 44.0619L84.7688 42.9037L84.1452 42.191L82.3634 40.4092L81.1161 39.4292L79.7797 38.4492L79.6016 38.271Z" fill="#FEFEFE"></path><path d="M52.6074 53.8621H55.8147L57.9529 54.2184L60.0911 54.8421L61.8729 55.5548L63.7438 56.4457L65.2583 57.3366L66.5947 58.2275L68.2874 59.4748L69.5347 60.5439L70.4256 61.3457L71.5838 62.4148L72.4747 63.3057L73.0983 64.0184L74.0783 65.0875L74.8801 66.0675L76.1274 67.6712L77.2856 69.2748L78.3547 70.8784L79.4238 72.5712L79.3347 72.7493L77.731 70.9675L76.3056 69.453L74.3456 67.493L73.6329 66.8693L72.2965 65.6221L71.3165 64.8202L70.1583 63.8402L68.3765 62.5039L67.1292 61.613L65.6147 60.633L63.7438 59.5639L62.3183 58.8512L60.5365 58.0493L58.3983 57.3366L56.4383 56.8912L55.1911 56.713L53.9438 56.6239H52.9638L51.0929 56.8021L49.222 57.2475L47.7965 57.7821L46.1038 58.673L44.9456 59.5639L44.1438 60.2766L44.0547 60.0984L44.7674 58.5839L45.6583 57.3366L46.8165 56.1784L47.9747 55.3766L49.4001 54.6639L51.0038 54.1293L52.6074 53.8621Z" fill="#FEFEFE"></path><path d="M87.6191 167.007H87.7973L89.0445 168.7L90.0245 170.304L90.8263 171.818L91.5391 173.778L91.8954 175.56V177.787L91.6282 179.213L91.0936 180.549L90.1136 182.42L88.9554 184.291L87.8863 186.34L87.1736 188.122L86.6391 189.904L86.3718 191.418L86.2827 192.309V195.249L86.55 197.566L86.6391 198.278H86.3718L85.57 196.407L84.9463 194.715L84.4118 192.666L84.1445 190.973V188.567L84.4118 187.142L84.9463 185.716L85.8373 184.024L87.0845 182.064L87.9754 180.638L88.7773 178.946L89.2227 177.52L89.49 175.916V173.244L89.1336 171.106L88.5991 169.324L87.8863 167.631L87.6191 167.007Z" fill="#FEFEFE"></path><path d="M88.7773 41.6565L89.2228 41.7456L91.1828 42.8147L92.6083 43.7947L93.8555 44.7747L94.9246 45.7547L96.261 47.091L97.4192 48.6056L98.3992 50.2092L99.2901 52.0801L99.8246 53.7729L100.181 55.4656L100.359 57.5147V58.4947L100.181 60.6329L99.7355 62.9492L99.1119 65.0874L98.1319 67.5819L97.3301 69.2747L96.261 71.2347L95.1028 73.1056L94.3901 74.1747L94.301 73.9965L95.1919 71.9474L96.1719 69.1856L96.7955 66.9583L97.3301 64.1965L97.5973 61.8801V57.9601L97.3301 55.8219L96.8846 53.6838L95.9937 51.011L94.7464 48.4274L93.6773 46.7347L92.7864 45.5765L91.7173 44.3292L90.381 42.9929L89.1337 42.0129L88.7773 41.6565Z" fill="#FEFEFE"></path><path d="M91.6289 186.073H91.718L91.6289 187.765L91.5398 189.28V192.844L91.718 195.16L91.807 195.427L92.3416 193.378L92.9652 191.953L93.8561 190.082H94.0343L93.9452 192.309L94.1234 194.002L94.5689 195.784L95.1034 197.209L95.8161 198.635L96.618 199.882L97.4198 200.862L97.3307 201.218L96.8852 201.129L95.5489 200.327L94.3907 199.258L93.678 198.367L93.4998 198.011L93.767 199.347L94.3016 201.129L95.1925 203.356L96.0834 205.049L97.0634 206.564L96.9743 206.742L95.9052 206.029L94.8361 205.049L93.4107 203.624L92.787 202.911L91.807 201.753L90.9161 200.416L90.1143 198.902L89.5798 197.298L89.3125 195.516V194.002L89.5798 192.042L90.1143 190.082L91.0052 187.498L91.5398 186.162L91.6289 186.073Z" fill="#FEFEFE"></path><path d="M83.1693 139.835H84.7729L86.4657 140.013L88.2475 140.458L89.5838 140.993L91.0093 141.795L92.2566 142.775L92.9693 143.487L93.7711 144.557L93.9493 144.913L93.1475 144.646L90.9202 143.933L88.6038 143.398L86.1093 143.042L84.5057 142.953H83.5257L81.0311 143.131L78.8929 143.487L76.7548 144.022L74.082 144.913L74.2602 144.467L74.9729 143.577L75.5075 142.953L76.4875 142.151L77.3784 141.527L78.8038 140.815L80.0511 140.369L81.5657 140.013L83.1693 139.835Z" fill="#FEFEFE"></path><path d="M96.7969 44.9531L97.2423 45.1313L98.3114 45.7549L99.7369 46.824L100.806 47.804L101.875 48.8731L102.766 50.0313L103.746 51.6349L104.459 53.2386L104.904 54.7531L105.171 56.2677L105.261 58.1386L105.082 60.2768L104.637 62.3259L103.835 64.7313L102.855 66.8695L102.053 68.384L100.895 70.2549L100.271 71.1459L100.182 70.9677L101.162 68.7404L102.142 65.8004L102.677 63.484L102.944 61.7913L103.033 60.9004V57.3368L102.766 55.3768L102.321 53.5059L101.697 51.724L100.806 49.8531L99.7369 48.1604L98.9351 47.1804L98.1332 46.2895L97.2423 45.3986L96.7969 44.9531Z" fill="#FEFEFE"></path><path d="M109.09 161.929L109.357 162.018L109.803 163.087L110.426 164.156L111.228 165.226L112.297 166.473L113.188 167.453L114.168 168.7L115.059 170.036L115.593 171.284L115.95 172.709L116.128 174.669L116.039 176.986L115.683 179.569L115.415 179.658L115.237 178.589L114.881 176.006L114.524 174.669L113.99 173.333L113.099 171.907L111.941 170.482L110.961 169.056L110.248 167.631L109.713 166.027L109.357 164.335L109.09 162.375V161.929Z" fill="#FEFEFE"></path><path d="M103.3 170.215L103.478 170.304L104.28 172.709L104.636 174.58L104.725 175.56V176.54L104.547 178.055L104.191 179.391L103.567 180.817L102.943 181.886L102.231 182.777L101.429 183.668L100.449 184.469L99.2905 185.36L97.5978 186.429L97.1523 186.608L97.2414 186.162L98.3996 184.38L99.6469 182.42L100.716 180.638L101.785 178.589L102.409 177.164L102.943 175.56L103.3 173.868L103.389 173.155V171.106L103.3 170.215Z" fill="#FEFEFE"></path><path d="M62.9425 154.089L63.2097 154.178L63.0315 154.535L61.6061 155.96L60.6261 157.207L59.7352 158.455L58.7552 160.147L57.9534 161.84L57.0625 164.513L56.617 166.651L56.4388 168.076L56.3497 169.413V171.907L56.0825 171.64L55.2806 169.056L54.9243 167.364L54.7461 165.582L54.8352 163.978L55.1915 162.464L55.637 161.395L56.4388 159.969L57.4188 158.722L59.2897 156.851L60.537 155.871L61.9625 154.802L62.9425 154.089Z" fill="#FEFEFE"></path><path d="M77.5508 43.9727L78.3526 44.1508L79.9562 44.8636L81.2926 45.6654L82.2726 46.4672L83.1635 47.269L84.0544 48.249L85.1235 49.7636L86.0144 51.4563L86.8162 53.6836L87.2617 55.6436L87.529 58.049V60.989L87.4399 62.0581H87.3508L86.9053 59.5636L86.3708 57.5145L85.7471 55.6436L84.8562 53.5945L83.6981 51.3672L82.5399 49.5854L81.2926 47.8927L80.2235 46.6454L79.1544 45.4872L78.4417 44.7745L77.5508 44.0617V43.9727Z" fill="#FEFEFE"></path><path d="M55.2798 48.1602H56.3489L58.398 48.3383L60.5362 48.7838L62.1398 49.3183L63.7435 50.0311L65.258 50.922L66.3271 51.7238L67.3071 52.5256L69.0889 54.3074L70.0689 55.5547L71.138 57.0692L71.4944 57.6929L71.4053 57.8711L70.7817 57.2474L69.8017 56.4456L68.4653 55.3765L66.8617 54.2183L65.5253 53.3274L64.1889 52.5256L62.2289 51.4565L60.0908 50.4765L57.5962 49.5856L55.458 49.0511L53.8544 48.7838L52.3398 48.6056V48.5165L53.9435 48.2492L55.2798 48.1602Z" fill="#FEFEFE"></path><path d="M64.9028 181.975L64.9919 182.242V185.538L65.3482 187.855L65.9719 190.171L66.6846 192.131L67.7537 194.358L68.8228 195.962L69.6246 196.942L70.3373 197.655L69.981 197.744L68.4664 196.942L66.9519 195.873L65.7937 194.804L64.9028 193.735L64.2791 192.666L63.7446 191.062L63.5664 190.082V187.498L63.8337 185.806L64.5464 183.044L64.9028 181.975Z" fill="#FEFEFE"></path><path d="M104.547 151.862L105.349 152.04L106.863 152.753L108.021 153.555L108.912 154.356L109.536 154.98L110.16 155.871L110.961 157.385L111.496 159.167L111.941 161.484L112.476 163.087L113.367 164.78L113.634 165.136V165.493L113.278 165.404L112.476 164.78L111.496 163.8L110.872 162.909L110.071 161.484L109.18 159.435L108.2 156.94L107.309 155.069L106.418 153.733L105.438 152.664L104.547 152.04V151.862Z" fill="#FEFEFE"></path><path d="M87.1755 152.129H87.3536L87.2645 152.931V155.693L87.6209 157.474L88.6009 160.414L89.67 163.354L90.5609 165.225L91.1845 166.205V166.383L90.7391 166.294L89.2245 165.225L88.0664 164.156L87.2645 163.265L86.4627 161.929L86.0173 160.771L85.75 159.256V157.474L86.0173 155.693L86.5518 153.733L87.1755 152.129Z" fill="#FEFEFE"></path><path d="M103.75 48.2493L104.106 48.4274L105.086 49.1402L106.512 50.5656L107.492 51.902L108.383 53.5947L108.917 55.2874L109.095 56.3565V59.1184L108.65 61.3456L108.026 63.1274L106.957 65.3547L105.799 67.2256L105.086 68.2056L104.997 68.0274L105.888 66.1565L106.69 63.9293L107.225 61.7911L107.492 60.0093L107.581 57.8711L107.403 55.822L106.957 53.7729L106.423 52.3474L105.71 50.922L104.908 49.6747L104.106 48.6947L103.75 48.2493Z" fill="#FEFEFE"></path><path d="M61.6999 159.435H61.9672L61.789 159.88L61.1653 160.771L60.4526 162.286L59.9181 163.978L59.5617 166.028L59.4726 167.008V170.571L59.6508 172.62L59.2944 172.709L58.6708 172.086L58.0472 171.195L57.5126 170.126L57.1562 168.7V167.275L57.4235 165.938L58.1363 164.246L59.0272 162.731L60.1853 161.217L61.2544 159.969L61.6999 159.435Z" fill="#FEFEFE"></path><path d="M106.331 171.729L106.598 171.997L107.311 173.511L107.934 175.382L108.113 176.273L108.202 177.698L108.023 178.946L107.578 180.193L106.954 181.173L106.153 182.064L105.529 182.687L104.371 183.489L103.123 184.113L102.945 184.024L103.123 183.578L103.747 182.866L104.549 181.618L105.44 179.747L105.974 177.966L106.331 176.095L106.42 175.204V172.887L106.331 171.729Z" fill="#FEFEFE"></path><path d="M62.4124 179.748H62.5906L62.2342 181.529L62.056 183.489V184.469L62.2342 186.608L62.5906 188.657L63.2142 191.151L63.7487 192.844L63.6596 193.111L63.3033 192.933L62.5906 192.309L61.8778 191.418L61.1651 190.26L60.6306 188.835L60.3633 187.409V185.271L60.6306 183.757L61.2542 181.886L62.2342 180.015L62.4124 179.748Z" fill="#FEFEFE"></path><path d="M50.8264 162.286L50.9155 162.642L50.4701 164.869L50.381 165.671V169.146L50.7373 171.373L51.2719 173.155L51.9846 174.758L52.6973 176.006L52.9646 176.362V176.54L52.5192 176.451L51.5392 175.738L50.8264 175.115L50.1137 174.224L49.401 172.977L48.9555 171.551L48.7773 169.769L48.8664 168.255L49.2228 166.473L49.7573 164.691L50.6483 162.553L50.8264 162.286Z" fill="#FEFEFE"></path><path d="M110.961 112.306L111.05 112.573L110.248 113.998L109.179 115.246L108.11 116.226L107.219 116.849H106.15L104.457 116.404L102.854 115.691L101.428 114.889L100.805 114.444V114.355H102.408L104.457 114.444H106.239L107.754 113.998L109.803 113.018L110.961 112.306Z" fill="black"></path><path d="M56.6172 112.306L57.5972 112.84L59.4681 113.82L61.339 114.444H63.5663L65.5263 114.355H66.9517L66.5954 114.711L64.7245 115.78L63.0317 116.493L61.6063 116.849H60.5372L59.379 116.047L58.4881 115.246L57.6863 114.266L57.0626 113.375L56.6172 112.484V112.306Z" fill="black"></path><path d="M100.359 103.307H102.141L103.567 103.486L104.279 103.753L105.527 104.644L106.329 105.446L106.952 106.426L107.13 106.782L107.041 107.049L106.15 106.515L104.814 105.98L103.121 105.535L101.339 105.267L100.092 105.178L97.5977 105.089L97.8649 104.198L98.3104 103.575L99.2904 103.396L100.359 103.307Z" fill="#FEFEFE"></path><path d="M66.1509 103.307H67.3982L69.3582 103.486L69.8927 103.664L70.4273 104.822V105.178H68.2891L66.0618 105.356L63.8345 105.802L62.32 106.336L60.8945 107.049L61.0727 106.515L61.6963 105.535L62.7654 104.466L64.0127 103.664L65.0818 103.396L66.1509 103.307Z" fill="#FEFEFE"></path><path d="M58.2262 176.005H58.3153L58.2262 177.253V179.925L58.4935 182.064L59.0281 184.647L59.6517 187.142V187.587L59.2062 187.498L58.3153 186.518L57.6026 185.271L57.1571 184.202L56.8899 183.133L56.8008 182.509V180.549L57.0681 179.034L57.6026 177.253L58.2262 176.005Z" fill="#FEFEFE"></path><path d="M79.6942 162.196H79.7833L80.1396 164.156L80.2287 164.958V165.76L79.9615 167.185L79.516 168.254L78.8033 169.502L77.556 171.194L76.576 172.798L76.1306 173.956L76.0415 174.402H75.8633V173.244L76.0415 171.907L76.3978 170.571L77.1996 168.878L78.4469 166.74L79.1596 165.225L79.516 163.889L79.6942 162.196Z" fill="#FEFEFE"></path><path d="M108.738 173.511L109.094 173.689L109.985 175.026L110.609 176.451L110.876 177.609V178.767L110.609 179.836L110.074 180.906L109.184 181.975L107.936 182.955L107.134 183.4L106.867 183.311L107.58 182.331L108.293 180.906L108.827 179.302L109.094 177.876V175.293L108.738 173.956L108.649 173.6L108.738 173.511Z" fill="#FEFEFE"></path><path d="M112.299 173.689L112.744 174.134L113.635 175.471L114.348 176.985L114.704 178.411V180.104L114.259 181.796L113.457 183.489L112.833 184.469L112.209 185.36H112.031L112.12 184.914L112.655 183.4L113.011 181.618L113.1 180.816V177.787L112.833 175.916L112.477 174.58L112.299 174.045V173.689Z" fill="#FEFEFE"></path><path d="M60.173 154.089L60.4402 154.178L59.6384 154.98L58.8366 155.96L57.7675 157.207L56.9657 158.187L56.0748 159.345L54.9166 161.127L54.4712 161.84H54.293V160.504L54.5602 159.078L55.0057 158.009L55.5402 157.207L56.5202 156.227L57.8566 155.336L60.0839 154.178L60.173 154.089Z" fill="#FEFEFE"></path><path d="M60.3537 96.0908H61.601L62.9374 96.3581L63.7392 96.6254L63.3828 96.8035L61.2446 97.3381L59.1956 98.0508L56.9683 99.0308L56.1665 99.4763L55.9883 99.3872L56.6119 98.3181L57.5919 97.249L58.5719 96.6254L59.4628 96.269L60.3537 96.0908Z" fill="black"></path><path d="M106.158 96.0908H107.316L108.741 96.4472L109.721 96.9817L110.612 97.7835L111.236 98.4963L111.681 99.2981V99.4763L111.236 99.2981L109.187 98.3181L106.781 97.4272L104.02 96.7145L104.198 96.5363L105.534 96.1799L106.158 96.0908Z" fill="black"></path><path d="M51.3594 114.444L51.983 114.978L53.1412 115.958L54.6557 117.027L56.0812 117.829L57.5957 118.542L59.3776 119.077V119.166L58.9321 119.255H56.9721L55.6357 118.987L54.5666 118.542L53.5866 117.918L52.5176 116.849L51.8048 115.691L51.3594 114.711V114.444Z" fill="black"></path><path d="M116.222 114.533L116.311 114.8L115.598 116.225L114.886 117.205L113.906 118.096L113.015 118.631L111.768 119.076L110.698 119.255H108.738L108.293 119.165V119.076L109.897 118.631L111.5 117.918L112.926 117.116L114.173 116.225L115.064 115.513L115.955 114.711L116.222 114.533Z" fill="black"></path><path d="M87.7969 105.357L88.2423 105.802L88.9551 106.782L89.9351 108.029L90.9151 109.188L91.7169 110.079L92.3405 110.791L93.0532 111.504L93.8551 112.128L93.5878 112.217L92.5187 111.86L91.3605 111.237L90.4696 110.524L89.846 109.9L88.9551 108.653L88.1532 106.96L87.7969 105.802V105.357Z" fill="black"></path><path d="M106.953 93.9531H108.2L109.269 94.2204L110.249 94.7549L111.14 95.5568L111.764 96.4477L111.942 96.9822L111.497 96.804L109.804 96.0022L107.577 95.2004L105.082 94.5768L105.171 94.3986L106.418 94.0422L106.953 93.9531Z" fill="black"></path><path d="M59.5536 93.9531H60.7117L61.959 94.2204L62.6717 94.4877L62.3154 94.6659L60.4445 95.1113L58.5736 95.7349L56.9699 96.4477L55.9008 96.9822L55.7227 96.8931L56.3463 95.824L57.3263 94.844L58.2172 94.3095L59.019 94.0422L59.5536 93.9531Z" fill="black"></path><path d="M51.0898 117.206L51.8026 117.74L53.0498 118.631L54.5644 119.522L56.0789 120.235L57.6826 120.769L58.5735 120.947L58.6626 121.126L57.0589 121.304L55.7226 121.215L54.6535 120.947L53.4062 120.324L52.3371 119.344L51.7135 118.542L51.0898 117.384V117.206Z" fill="black"></path><path d="M116.395 117.295H116.573L116.395 117.829L115.772 118.898L114.881 119.878L113.99 120.502L113.01 120.947L111.941 121.215L110.693 121.304L109.09 121.126V120.947L110.604 120.591L112.03 120.056L113.455 119.344L114.792 118.542L116.217 117.473L116.395 117.295Z" fill="black"></path><path d="M116.667 120.056L116.845 120.145L116.222 121.125L115.42 122.016L114.529 122.64L113.46 123.085L112.658 123.264H110.876L109.629 122.996L109.896 122.818L111.411 122.551L112.836 122.105L114.262 121.482L115.776 120.68L116.667 120.056Z" fill="black"></path><path d="M50.918 120.056L51.7198 120.502L53.2343 121.393L55.1052 122.195L56.6198 122.64L58.0452 122.907L57.778 123.085L56.798 123.264H55.0162L53.9471 122.996L52.878 122.462L51.9871 121.66L51.2743 120.858L50.918 120.235V120.056Z" fill="black"></path><path d="M58.6643 91.8147H59.9116L61.2479 92.1711L61.6043 92.4383L59.2879 92.9729L57.3279 93.6856L55.6352 94.4874H55.457L55.6352 94.042L56.1698 93.2402L56.7934 92.6165L57.6843 92.082L58.6643 91.8147Z" fill="black"></path><path d="M107.845 91.8147H109.003L110.161 92.1711L110.963 92.7056L111.765 93.5074L112.3 94.3983L112.211 94.5765L110.785 93.8638L109.449 93.3292L107.756 92.7947L106.152 92.4383L106.42 92.1711L107.845 91.8147Z" fill="black"></path><path d="M116.486 122.729L116.664 122.818L115.862 123.798L115.149 124.422L114.437 124.867L113.368 125.224L112.833 125.313H111.853L110.428 125.046L109.715 124.778V124.689L111.764 124.511L113.813 123.977L115.684 123.175L116.486 122.729Z" fill="black"></path><path d="M51.1797 122.818L51.7142 122.996L53.407 123.798L55.0997 124.333L56.5251 124.6L57.9506 124.689L57.7724 124.867L56.5251 125.224L55.9015 125.313H54.9215L54.0306 125.134L52.9615 124.689L52.1597 124.065L51.3579 123.264L51.1797 122.818Z" fill="black"></path><path d="M88.1523 108.653L88.5977 109.098L89.4885 110.078L90.112 110.791L90.9137 111.681L92.0717 112.839L93.2297 113.73L92.8734 113.819L91.6263 113.374L90.6465 112.75L89.7557 111.949L89.0431 110.969L88.4196 109.722L88.1523 108.92V108.653Z" fill="black"></path><path d="M58.309 89.5874H59.6451L60.9813 90.0328V90.2109L59.0216 90.6563L57.4182 91.1908L55.6367 91.9924L55.8149 91.458L56.5275 90.5672L57.3292 89.9437L58.309 89.5874Z" fill="black"></path><path d="M108.113 89.5874H109.449L110.34 89.9437L110.874 90.3L111.587 91.0126L112.032 91.7252V91.9034L111.498 91.7252L109.805 91.0126L108.024 90.4782L106.688 90.2109L106.955 89.9437L108.113 89.5874Z" fill="black"></path><path d="M52.1602 125.402L53.0511 125.669L54.922 126.204L55.902 126.382L57.6838 126.471H58.4856L58.1292 126.738L56.882 127.184L56.3474 127.273H55.1892L54.1202 127.006L53.0511 126.382L52.2492 125.669L52.1602 125.402Z" fill="black"></path><path d="M115.323 125.402L115.59 125.491L114.789 126.293L113.541 127.006L112.561 127.273H111.314L109.978 126.917L109.176 126.56V126.471H110.779L112.294 126.293L114.165 125.848L115.323 125.402Z" fill="black"></path><path d="M114.26 127.986L114.528 128.075L113.726 128.698L112.746 129.144L111.41 129.322L110.34 129.144L109.271 128.698L108.559 128.253L108.826 128.164L109.895 128.342H112.122L114.26 127.986Z" fill="black"></path><path d="M58.5746 87.271L59.7326 87.4491L60.5343 87.8055L60.3561 87.9836L58.6637 88.3399L57.0603 88.8744L55.9023 89.4088L56.0805 88.8744L56.8822 87.9836L57.6839 87.4491L58.5746 87.271Z" fill="black"></path><path d="M53.1445 127.985L53.8573 128.074L55.55 128.342H57.8663L59.1136 128.164L58.7573 128.52L57.4209 129.144L56.0845 129.322L55.0154 129.144L54.1245 128.787L53.1445 128.074V127.985Z" fill="black"></path><path d="M108.915 87.271L109.984 87.4491L110.875 87.9836L111.498 88.6962L111.766 89.1416V89.3197L111.231 89.1416L109.36 88.429L107.223 87.8945L107.579 87.6273L108.292 87.3601L108.915 87.271Z" fill="black"></path><path d="M88.957 111.771L89.4915 112.127L90.115 112.751L91.0948 113.552L92.3419 114.532L93.4999 115.245V115.334L92.6091 115.245L91.4512 114.799L90.5604 114.176L89.7587 113.374L89.0461 112.216L88.957 111.771Z" fill="black"></path></svg>