<svg xmlns="http://www.w3.org/2000/svg" width="324" height="76" viewBox="0 0 324 76" fill="none"><path opacity="0.2" d="M60.9236 68.3441C64.1221 66.0293 51.7204 55.591 55.0095 47.9122C60.1628 41.3337 75.2773 47.1952 75.7689 43.2768C76.281 39.2121 69.8167 39.414 64.959 38.5741C60.6398 37.8308 54.8993 36.8105 47.7376 35.5131C42.956 34.403 39.7605 35.2068 38.151 37.9244C36.5415 40.644 37.3726 43.8328 40.6442 47.4908C45.223 53.1504 48.877 57.694 51.6062 61.1218C54.673 64.9788 57.6052 70.7466 60.9236 68.3441ZM62.1966 59.3074C59.2791 57.578 56.3001 52.6178 58.0295 49.7002C59.759 46.7796 65.5385 47.0079 68.456 48.7374C71.3765 50.4669 72.3392 54.2331 70.6127 57.1507C68.8832 60.0712 65.1171 61.034 62.1966 59.3074ZM53.1045 2.99527C49.5022 1.38284 46.6637 17.3433 38.3676 18.3324C30.0978 17.1589 27.6133 1.13996 23.9759 2.67045C20.198 4.25947 23.6072 9.75812 25.3103 14.3847C26.8242 18.4953 28.8102 23.9774 31.2683 30.8309C32.6983 35.5248 34.9925 37.8893 38.151 37.9244C41.3095 37.9596 43.6554 35.6458 45.1888 30.9831C47.7991 24.1881 49.907 18.7518 51.5126 14.6744C53.3181 10.0888 56.8444 4.66623 53.1045 2.99527ZM44.6416 6.41035C44.6065 9.80202 41.8001 14.8588 38.4085 14.8237C35.0169 14.7856 32.3218 9.66448 32.3598 6.27281C32.3979 2.88115 35.1779 0.162547 38.5695 0.20059C41.9611 0.238633 44.6796 3.01869 44.6416 6.41035ZM0.421952 42.4398C0.82871 46.367 16.069 40.845 21.073 47.5347C24.1925 55.2837 11.5625 65.444 14.7053 67.829C17.9711 70.3047 21.0291 64.6042 24.1837 60.8175C26.9871 57.4502 30.7416 52.9884 35.4471 47.4322C38.7987 43.8464 39.7 40.6772 38.151 37.9244C36.602 35.1717 33.425 34.2977 28.62 35.3024C21.429 36.4379 15.6671 37.3304 11.3342 37.98C6.45895 38.7087 0.000561535 38.3634 0.421952 42.4398ZM7.61192 48.0614C10.5675 46.3963 16.3499 46.2997 18.015 49.2554C19.6771 52.211 16.5899 57.1039 13.6343 58.7661C10.6787 60.4282 6.93302 59.3806 5.27087 56.425C3.60579 53.4693 4.65634 49.7236 7.61192 48.0614Z" fill="white"></path><path d="M23.1966 72.8565C26.8018 74.4689 29.6403 58.5085 37.9335 57.5194C46.2062 58.6929 48.6878 74.7118 52.3281 73.1813C56.1031 71.5923 52.6968 66.0937 50.9937 61.4671C49.4798 57.3545 47.4928 51.8725 45.0328 45.0209C43.6047 40.325 41.3115 37.9595 38.153 37.9244C34.9945 37.8893 32.6486 40.2031 31.1152 44.8658C28.5049 51.6628 26.397 57.099 24.7914 61.1744C22.9859 65.763 19.4567 71.1826 23.1966 72.8565ZM31.6595 69.4414C31.6975 66.0498 34.5039 60.9901 37.8955 61.0281C41.2871 61.0662 43.9793 66.1873 43.9413 69.579C43.9062 72.9706 41.1261 75.6892 37.7345 75.6512C34.34 75.6132 31.6215 72.8331 31.6595 69.4414ZM75.8821 33.4119C75.4753 29.4848 60.235 35.0068 55.231 28.3171C52.1116 20.5681 64.7416 10.4077 61.5958 8.02274C58.3329 5.54703 55.272 11.2476 52.1203 15.0343C49.315 18.4016 45.5605 22.8624 40.8569 28.4166C37.5053 32.0024 36.604 35.1717 38.153 37.9244C39.702 40.6791 42.879 41.5541 47.684 40.5494C54.873 39.412 60.634 38.5194 64.9669 37.8717C69.8421 37.1431 76.3035 37.4855 75.8821 33.4119ZM68.6921 27.7904C65.7365 29.4526 59.9512 29.5521 58.289 26.5964C56.6239 23.6408 59.7112 18.7479 62.6697 17.0857C65.6253 15.4206 69.371 16.4683 71.0331 19.4268C72.6953 22.3825 71.6477 26.1282 68.6921 27.7904ZM15.3774 7.5077C12.1819 9.82246 24.5837 20.2608 21.2915 27.9396C16.1412 34.5152 1.02677 28.6566 0.532223 32.575C0.0230428 36.6397 6.48729 36.4378 11.345 37.2748C15.6623 38.02 21.4027 39.0413 28.5664 40.3387C33.348 41.4487 36.5435 40.644 38.153 37.9244C39.7625 35.2068 38.9314 32.019 35.6598 28.361C31.0811 22.7014 27.4271 18.1577 24.6978 14.73C21.6281 10.873 18.6988 5.10515 15.3774 7.5077ZM14.1045 16.5443C17.025 18.2738 20.001 23.234 18.2745 26.1516C16.5451 29.0692 10.7656 28.841 7.8451 27.1144C4.92756 25.3849 3.96187 21.6187 5.69133 18.6981C7.42078 15.7806 11.187 14.8178 14.1045 16.5443Z" fill="#FFDA41"></path><path d="M109.077 61.9019C104.802 61.9019 101.03 60.9742 97.7635 59.1189C94.5368 57.2636 91.9958 54.6822 90.1405 51.3749C88.3255 48.0676 87.418 44.2359 87.418 39.8799C87.418 36.4112 88.0028 33.1846 89.1725 30.1999C90.3421 27.2152 91.9555 24.6137 94.0125 22.3954C96.1098 20.1771 98.5701 18.4427 101.393 17.1924C104.217 15.9421 107.262 15.3169 110.529 15.3169C113.957 15.3169 117.164 16.0026 120.148 17.3739C123.173 18.7049 125.573 20.5199 127.348 22.8189C124.404 26.2472 121.661 28.6471 119.12 30.0184C116.014 23.9281 112.283 20.8829 107.927 20.8829C104.983 20.8829 102.603 22.1131 100.788 24.5734C99.0138 27.0337 98.1265 30.3411 98.1265 34.4954C98.1265 37.1977 98.4895 39.8597 99.2155 42.4814C99.9818 45.0627 100.99 47.4021 102.24 49.4994C103.531 51.5967 104.963 53.2706 106.536 54.5209C108.149 55.7309 109.783 56.3359 111.436 56.3359C112.646 56.3359 113.897 56.0334 115.187 55.4284C116.478 54.7831 117.688 53.9159 118.817 52.8269C119.987 51.6976 120.955 50.4472 121.721 49.0759L127.348 53.4924C122.427 59.0987 116.337 61.9019 109.077 61.9019Z" fill="white"></path><path d="M141.107 61.7204C139.615 61.7204 137.921 61.6801 136.025 61.5994C134.17 61.5591 132.597 61.5187 131.306 61.4784C131.266 60.5507 131.226 59.0987 131.185 57.1224C131.185 55.1057 131.165 52.7462 131.125 50.0439C131.125 47.3416 131.105 44.4779 131.064 41.4529C131.064 38.3876 131.044 35.3222 131.004 32.2569C131.004 29.1512 131.004 26.2069 131.004 23.4239C131.004 20.6006 131.004 18.1402 131.004 16.0429C131.891 16.0026 132.96 15.9622 134.21 15.9219C135.461 15.8816 136.731 15.8614 138.022 15.8614C139.353 15.8211 140.482 15.8009 141.41 15.8009C141.41 17.6966 141.41 19.9149 141.41 22.4559C141.41 24.9566 141.39 27.5984 141.349 30.3814C142.761 29.4537 144.233 28.7277 145.766 28.2034C147.339 27.6791 148.872 27.4169 150.364 27.4169C155.123 27.4169 158.632 30.1797 160.891 35.7054C163.15 41.2311 164.279 49.8221 164.279 61.4784C163.271 61.5591 161.98 61.6196 160.407 61.6599C158.834 61.7002 156.656 61.7204 153.873 61.7204C153.873 42.0781 151.755 32.2569 147.52 32.2569C146.472 32.2569 145.383 32.7812 144.253 33.8299C143.164 34.8786 142.196 36.2297 141.349 37.8834C141.309 40.6664 141.269 43.3687 141.228 45.9904C141.228 48.5717 141.208 50.9514 141.168 53.1294C141.168 55.3074 141.148 57.1627 141.107 58.6954C141.107 60.1877 141.107 61.1961 141.107 61.7204Z" fill="white"></path><path d="M180.7 61.9019C177.271 61.9019 174.468 61.0751 172.29 59.4214C170.152 57.7274 169.084 55.5292 169.084 52.8269C169.084 50.3666 169.971 48.0877 171.746 45.9904C173.561 43.8931 176.061 42.1184 179.248 40.6664C182.434 39.1741 186.084 38.1456 190.198 37.5809C188.746 34.0316 186.75 32.2569 184.209 32.2569C182.676 32.2569 180.7 32.8417 178.28 34.0114C175.86 35.1811 173.399 36.7137 170.899 38.6094L169.084 32.5594C175.093 29.1311 180.78 27.4169 186.145 27.4169C190.339 27.4169 193.707 28.5664 196.248 30.8654C198.789 33.1241 200.644 36.7541 201.814 41.7554C202.984 46.7164 203.569 53.2907 203.569 61.4784C202.802 61.5187 201.431 61.5591 199.455 61.5994C197.519 61.6801 195.421 61.7204 193.163 61.7204C193.163 60.4297 193.142 59.1592 193.102 57.9089C188.948 60.5709 184.814 61.9019 180.7 61.9019ZM179.066 52.4034C179.066 53.6537 179.55 54.6419 180.518 55.3679C181.526 56.0939 182.857 56.4569 184.511 56.4569C187.415 56.4569 190.218 55.2066 192.921 52.7059C192.679 48.4306 192.215 44.8207 191.529 41.8764C189.956 42.1991 188.423 42.7234 186.931 43.4494C185.479 44.1754 184.148 45.0426 182.938 46.0509C181.768 47.0189 180.821 48.0676 180.095 49.1969C179.409 50.2859 179.066 51.3547 179.066 52.4034Z" fill="white"></path><path d="M219.126 61.7204C217.715 61.7204 216.101 61.6801 214.286 61.5994C212.512 61.5591 210.858 61.5187 209.325 61.4784C209.285 60.2684 209.245 58.5341 209.204 56.2754C209.164 54.0167 209.124 51.3951 209.083 48.4104C209.083 45.3854 209.063 42.1587 209.023 38.7304C209.023 35.2617 209.023 31.7326 209.023 28.1429C209.91 28.1026 210.999 28.0622 212.29 28.0219C213.581 27.9816 214.871 27.9614 216.162 27.9614C217.453 27.9211 218.542 27.9009 219.429 27.9009C219.429 29.0706 219.429 30.2402 219.429 31.4099C221.002 30.1596 222.615 29.1916 224.269 28.5059C225.963 27.7799 227.596 27.4169 229.169 27.4169C231.226 27.4169 233.102 27.9816 234.796 29.1109C236.49 30.1999 237.861 31.6922 238.91 33.5879C239.999 35.4836 240.624 37.6212 240.785 40.0009C239.172 40.5252 237.559 40.9891 235.945 41.3924C234.332 41.7957 232.799 42.1184 231.347 42.3604C231.347 40.5454 231.105 38.8716 230.621 37.3389C230.178 35.8062 229.573 34.5761 228.806 33.6484C228.04 32.7207 227.193 32.2569 226.265 32.2569C225.176 32.2569 223.966 32.9224 222.635 34.2534C221.304 35.5844 220.236 37.2179 219.429 39.1539C219.389 44.2762 219.348 48.8541 219.308 52.8874C219.268 56.8804 219.207 59.8247 219.126 61.7204Z" fill="white"></path><path d="M244.502 23.7869V15.6194H254.787V23.7869H244.502ZM244.744 61.7204C244.704 60.3894 244.663 58.5946 244.623 56.3359C244.583 54.0369 244.542 51.4152 244.502 48.4709C244.502 45.4862 244.482 42.2999 244.441 38.9119C244.441 35.5239 244.441 32.0552 244.441 28.5059C246.256 28.5059 248.152 28.5261 250.128 28.5664C252.145 28.6067 253.718 28.6672 254.847 28.7479C254.847 31.6922 254.827 34.7777 254.787 38.0044C254.787 41.2311 254.767 44.3771 254.726 47.4424C254.726 50.4674 254.706 53.2101 254.666 55.6704C254.626 58.1307 254.585 60.0667 254.545 61.4784C252.69 61.5591 250.915 61.6196 249.221 61.6599C247.527 61.7002 246.035 61.7204 244.744 61.7204Z" fill="white"></path><path d="M266.915 61.7204C266.875 60.8734 266.834 59.5222 266.794 57.6669C266.794 55.7712 266.774 53.5126 266.733 50.8909C266.733 48.2692 266.713 45.4257 266.673 42.3604C266.673 39.2951 266.673 36.1491 266.673 32.9224H260.078L259.715 27.3564H266.612C266.612 23.2827 266.612 19.4309 266.612 15.8009C268.105 15.8009 269.839 15.8211 271.815 15.8614C273.832 15.9017 275.566 15.9622 277.018 16.0429C277.018 19.5116 277.018 23.2827 277.018 27.3564H283.915L283.552 32.9224H276.958C276.958 36.0684 276.938 39.1741 276.897 42.2394C276.897 45.2644 276.877 48.0676 276.837 50.6489C276.837 53.2302 276.817 55.4687 276.776 57.3644C276.776 59.2601 276.756 60.6314 276.716 61.4784C275.345 61.5591 273.832 61.6196 272.178 61.6599C270.525 61.7002 268.77 61.7204 266.915 61.7204Z" fill="white"></path><path d="M290.568 69.5854L289.963 63.8984C292.101 63.7774 294.016 63.4951 295.71 63.0514C297.445 62.6481 299.018 62.0027 300.429 61.1154C298.735 57.7274 297.021 54.1176 295.287 50.2859C293.553 46.4542 291.899 42.6831 290.326 38.9724C288.793 35.2214 287.462 31.7931 286.333 28.6874C287.785 28.4454 289.6 28.2034 291.778 27.9614C293.956 27.7194 296.094 27.5177 298.191 27.3564C299.199 30.4621 300.53 34.1929 302.184 38.5489C303.838 42.9049 305.632 47.4827 307.568 52.2824C308.899 49.5801 310.17 46.2122 311.38 42.1789C312.59 38.1456 313.901 33.2854 315.312 27.5984L322.633 28.4454C320.657 35.7054 318.579 41.9167 316.401 47.0794C314.264 52.2017 311.924 56.3964 309.383 59.6634C306.883 62.9304 304.08 65.3504 300.974 66.9234C297.868 68.4964 294.4 69.3837 290.568 69.5854Z" fill="white"></path></svg>