<svg xmlns="http://www.w3.org/2000/svg" width="314" height="78" viewBox="0 0 314 78" fill="none"><g clip-path="url(#clip0_5178_1327)"><path d="M102.598 58.8803H95.6016V16.3388H102.598V58.8803ZM121.977 59.7277C118.979 59.7277 116.321 59.0976 114.003 57.8374C111.744 56.5483 109.962 54.745 108.659 52.4274C107.413 50.0809 106.79 47.3433 106.79 44.2146V43.4976C106.79 40.34 107.413 37.6023 108.659 35.2848C109.919 32.9817 111.686 31.2001 113.96 29.94C116.22 28.6363 118.827 27.9845 121.782 27.9845C124.693 27.9845 127.242 28.6363 129.43 29.94C131.617 31.2001 133.319 32.9817 134.536 35.2848C135.752 37.6023 136.361 40.2965 136.361 43.3673V45.8659H113.83C113.917 48.2124 114.749 50.0954 116.328 51.5149C117.907 52.9344 119.848 53.6441 122.151 53.6441C124.411 53.6441 126.091 53.1589 127.192 52.1884C128.278 51.1745 129.111 50.0374 129.69 48.7773L135.448 51.7539C134.883 52.8547 134.05 54.0352 132.949 55.2954C131.907 56.4976 130.494 57.5478 128.713 58.4458C126.931 59.3004 124.686 59.7277 121.977 59.7277ZM113.895 40.5862H129.256C129.097 38.5873 128.329 37.0012 126.953 35.828C125.62 34.6547 123.875 34.0681 121.717 34.0681C119.5 34.0681 117.719 34.6547 116.372 35.828C115.039 37.0012 114.214 38.5873 113.895 40.5862ZM151.613 59.7277C149.498 59.7277 147.593 59.3583 145.899 58.6196C144.19 57.8519 142.835 56.7583 141.836 55.3388C140.851 53.9193 140.358 52.1812 140.358 50.1244C140.358 48.0965 140.851 46.3945 141.836 45.0185C142.835 43.6425 144.211 42.6068 145.964 41.9115C147.702 41.1873 149.686 40.8252 151.917 40.8252H160.586V39.0001C160.586 37.4213 160.101 36.1466 159.13 35.1762C158.16 34.1622 156.639 33.6553 154.568 33.6553C152.554 33.6553 151.019 34.1405 149.962 35.111C148.948 36.038 148.281 37.2547 147.963 38.7611L141.532 36.6319C142.01 35.053 142.777 33.6118 143.835 32.3082C144.921 31.0191 146.355 29.9834 148.137 29.2012C149.918 28.3901 152.105 27.9845 154.698 27.9845C158.624 27.9845 161.702 28.9767 163.932 30.9611C166.192 32.9166 167.322 35.7556 167.322 39.4781V51.2759C167.322 52.4926 167.894 53.101 169.038 53.101H171.58V58.8803H166.67C165.207 58.8803 164.012 58.511 163.085 57.7723C162.158 57.048 161.694 56.0558 161.694 54.7957V54.687H160.651C160.405 55.2519 159.978 55.94 159.369 56.7511C158.761 57.5622 157.834 58.272 156.588 58.8803C155.372 59.4452 153.713 59.7277 151.613 59.7277ZM152.764 54.0135C155.068 54.0135 156.951 53.3617 158.414 52.0581C159.862 50.7255 160.586 48.9439 160.586 46.7132V46.1049H152.33C150.838 46.1049 149.621 46.4308 148.68 47.0826C147.753 47.7344 147.289 48.6831 147.289 49.9288C147.289 51.1455 147.775 52.1377 148.745 52.9054C149.715 53.6441 151.055 54.0135 152.764 54.0135ZM183.117 58.8803H176.143V28.8536H183.008V32.3082H184.03C184.479 31.048 185.232 30.1355 186.289 29.5706C187.332 29.0057 188.585 28.7232 190.048 28.7232H193.676V34.9154H189.918C187.89 34.9154 186.253 35.4659 185.007 36.5667C183.747 37.6241 183.117 39.2608 183.117 41.477V58.8803ZM205.648 58.8803H198.674V28.8536H205.539V33.0469H206.561C207.082 31.9171 208.031 30.8452 209.407 29.8313C210.783 28.8174 212.869 28.3104 215.664 28.3104C217.982 28.3104 220.031 28.8391 221.813 29.8965C223.595 30.9539 224.971 32.4096 225.941 34.2636C226.955 36.1322 227.462 38.3411 227.462 40.8904V58.8803H220.466V41.4553C220.466 39.0218 219.857 37.2185 218.641 36.0452C217.468 34.8285 215.787 34.2202 213.6 34.2202C211.138 34.2202 209.197 35.0458 207.777 36.6971C206.358 38.3193 205.648 40.6514 205.648 43.6932V58.8803ZM239.78 58.8803H232.806V28.8536H239.78V58.8803ZM236.261 25.0296C235 25.0296 233.907 24.6241 232.98 23.8129C232.096 22.9583 231.654 21.843 231.654 20.467C231.654 19.0909 232.096 17.9973 232.98 17.1862C233.907 16.3316 235 15.9043 236.261 15.9043C237.593 15.9043 238.687 16.3316 239.541 17.1862C240.425 17.9973 240.867 19.0909 240.867 20.467C240.867 21.843 240.425 22.9583 239.541 23.8129C238.687 24.6241 237.593 25.0296 236.261 25.0296ZM252.425 58.8803H245.428V28.8536H252.294V33.0469H253.337C253.859 31.9171 254.807 30.8452 256.183 29.8313C257.559 28.8174 259.645 28.3104 262.441 28.3104C264.744 28.3104 266.786 28.8391 268.568 29.8965C270.349 30.9394 271.725 32.3951 272.696 34.2636C273.71 36.1322 274.217 38.3411 274.217 40.8904V58.8803H267.242V41.4335C267.242 39.0001 266.634 37.1968 265.417 36.0235C264.244 34.8068 262.564 34.1984 260.377 34.1984C257.9 34.1984 255.959 35.0313 254.554 36.6971C253.134 38.3193 252.425 40.6514 252.425 43.6932V58.8803ZM280.105 43.9756V43.0631C280.105 39.9054 280.735 37.2113 281.995 34.9806C283.255 32.7065 284.935 30.9828 287.036 29.8096C289.136 28.5929 291.446 27.9845 293.967 27.9845C296.791 27.9845 298.935 28.4915 300.398 29.5054C301.89 30.5193 302.983 31.6129 303.679 32.7862H304.7V28.8536H311.5V64.5945C311.5 66.5789 310.935 68.1578 309.806 69.331C308.676 70.4608 307.14 71.0257 305.199 71.0257H285.037V64.9422H302.831C304.005 64.9422 304.591 64.3338 304.591 63.1171V54.4263H303.548C303.099 55.1216 302.491 55.8313 301.723 56.5555C300.955 57.2508 299.949 57.8374 298.703 58.3154C297.443 58.8079 295.864 59.0542 293.967 59.0542C291.446 59.0542 289.136 58.4675 287.036 57.2943C284.935 56.0776 283.255 54.3539 281.995 52.1232C280.735 49.8491 280.105 47.1333 280.105 43.9756ZM295.9 52.9054C298.406 52.9054 300.492 52.116 302.158 50.5372C303.809 48.9149 304.635 46.6698 304.635 43.8018V43.1934C304.635 40.2675 303.809 38.0152 302.158 36.4363C300.535 34.8575 298.45 34.0681 295.9 34.0681C293.394 34.0681 291.287 34.8575 289.578 36.4363C287.927 38.0152 287.101 40.2675 287.101 43.1934V43.8018C287.101 46.6698 287.927 48.9149 289.578 50.5372C291.287 52.116 293.394 52.9054 295.9 52.9054Z" fill="#2E3E3B"></path><path d="M38.5737 78C17.0205 78 -0.382812 60.5749 -0.382812 39C-0.382812 17.4251 17.0205 0 38.5737 0C60.1269 0 77.552 17.4251 77.552 39C77.552 60.5749 60.1269 78 38.5737 78Z" fill="#D0D22B"></path><path d="M25.9683 77.2487C21.2346 77.2487 17.082 76.0297 13.5105 73.5918C9.98152 71.1539 7.33832 67.8726 5.5809 63.748C3.86601 59.6234 3.35579 55.0664 4.05025 50.0772C4.56047 46.3353 5.70846 42.8343 7.49422 39.5743C9.30832 36.2718 11.5759 33.3803 14.2971 30.8999C17.0041 28.3911 20.0016 26.4351 23.2897 25.0319C26.6203 23.6145 30.0571 22.9058 33.6003 22.9058C37.6112 22.9058 41.1614 23.7704 44.2511 25.4996C47.3832 27.1721 49.906 29.4896 51.8193 32.4519C53.7468 35.4143 54.9656 38.7806 55.4758 42.5508C56.0286 46.3353 55.7239 50.2898 54.5617 54.4144H16.9757C17.1458 56.3421 17.6773 58.0784 18.5702 59.6234C19.463 61.1258 20.6819 62.3448 22.2267 63.2802C23.7715 64.1732 25.6069 64.6339 27.7328 64.6622C29.9296 64.7047 32.0059 64.1945 33.9617 63.1314C35.9175 62.0258 37.6183 60.5447 39.0639 58.6879L51.4791 61.6857C48.758 66.2497 45.1156 69.9916 40.552 72.9114C35.9884 75.8029 31.1272 77.2487 25.9683 77.2487ZM17.8474 44.9746H43.1881C43.0747 42.9194 42.522 41.0626 41.5299 39.4042C40.5662 37.7317 39.2623 36.3923 37.6183 35.3859C36.0026 34.3937 34.1672 33.8977 32.1122 33.8977C30.0146 33.8977 28.0233 34.3937 26.1384 35.3859C24.2392 36.3497 22.574 37.675 21.1425 39.3617C19.6969 41.0059 18.5985 42.8768 17.8474 44.9746Z" fill="url(#paint0_linear_5178_1327)"></path></g><defs><linearGradient id="paint0_linear_5178_1327" x1="52.8194" y1="34.9144" x2="12.3337" y2="69.8712" gradientUnits="userSpaceOnUse"><stop stop-color="#0D2D26"></stop><stop offset="1" stop-color="#19493F"></stop></linearGradient><clipPath id="clip0_5178_1327"><rect width="314" height="78" fill="white"></rect></clipPath></defs></svg>