<svg xmlns="http://www.w3.org/2000/svg" width="252" height="90" viewBox="0 0 252 90" fill="none"><g clip-path="url(#clip0_5215_1081)"><path d="M116.3 73.2998L121.3 61.5998L108.9 34.4998C108.433 33.4998 107.933 32.5331 107.4 31.5998C106.867 30.5998 106.367 29.7331 105.9 28.9998C105.433 28.2665 105.033 27.6331 104.7 27.0998C104.367 26.6331 104.133 26.2998 104 26.0998V25.9998H113.3V26.0998C113.233 26.2331 113.2 26.4331 113.2 26.6998C113.133 26.8998 113.1 27.0998 113.1 27.2998C113.1 28.0331 113.233 28.8331 113.5 29.6998C113.7 30.5665 114.1 31.6665 114.7 32.9998L124.5 54.0998L133.5 33.2998C133.833 32.4331 134.2 31.4665 134.6 30.3998C135 29.3998 135.2 28.3665 135.2 27.2998C135.2 26.9665 135.167 26.7331 135.1 26.5998C135.1 26.3331 135.067 26.1665 135 26.0998V25.9998H141.4V26.0998C140.933 26.5665 140.367 27.3665 139.7 28.4998C139.1 29.6331 138.433 31.0665 137.7 32.7998L120.8 72.6998C120.4 73.5665 120 74.5331 119.6 75.5998C119.2 76.5998 119 77.6331 119 78.6998C119 79.0331 119.033 79.2998 119.1 79.4998C119.167 79.6998 119.2 79.8331 119.2 79.8998V79.9998H112.6V79.8998C113.067 79.4331 113.6 78.6331 114.2 77.4998C114.867 76.4331 115.567 75.0331 116.3 73.2998ZM140.5 43.8998C140.5 41.2998 140.967 38.8665 141.9 36.5998C142.9 34.3331 144.267 32.3665 146 30.6998C147.733 29.0331 149.8 27.7331 152.2 26.7998C154.533 25.8665 157.067 25.3998 159.8 25.3998C162.467 25.3998 164.967 25.8331 167.3 26.6998C169.7 27.5665 171.767 28.7998 173.5 30.3998C175.233 32.0665 176.6 34.0331 177.6 36.2998C178.6 38.6331 179.1 41.2331 179.1 44.0998C179.1 46.5665 178.7 48.8998 177.9 51.0998C177.033 53.2998 175.767 55.2665 174.1 56.9998C172.433 58.7331 170.4 60.0998 168 61.0998C165.6 62.0998 162.833 62.5998 159.7 62.5998C157.1 62.5998 154.633 62.1665 152.3 61.2998C149.967 60.4331 147.9 59.1998 146.1 57.5998C144.367 55.9998 143 54.0331 142 51.6998C141 49.4331 140.5 46.8331 140.5 43.8998ZM160.6 60.0998C162.267 60.0998 163.8 59.7665 165.2 59.0998C166.6 58.4331 167.8 57.4665 168.8 56.1998C169.8 54.9998 170.6 53.4998 171.2 51.6998C171.733 49.8998 172 47.8998 172 45.6998C172 43.1665 171.733 40.7998 171.2 38.5998C170.667 36.4665 169.867 34.5998 168.8 32.9998C167.733 31.3998 166.367 30.1665 164.7 29.2998C163.1 28.3665 161.2 27.8998 159 27.8998C157.333 27.8998 155.8 28.2331 154.4 28.8998C153 29.5665 151.8 30.4998 150.8 31.6998C149.733 32.8998 148.933 34.3998 148.4 36.1998C147.8 37.9331 147.5 39.9331 147.5 42.1998C147.5 44.7331 147.8 47.0998 148.4 49.2998C148.933 51.4331 149.733 53.3331 150.8 54.9998C151.933 56.5998 153.3 57.8331 154.9 58.6998C156.5 59.6331 158.4 60.0998 160.6 60.0998ZM197.9 78.0998C199.833 78.0998 201.467 77.8998 202.8 77.4998C204.067 77.0331 205.133 76.4331 206 75.6998C206.867 75.0331 207.533 74.1665 208 73.0998C208.467 72.0998 208.8 70.9998 209 69.7998C209.267 68.5331 209.4 67.2331 209.4 65.8998C209.467 64.4998 209.5 63.0665 209.5 61.5998V60.3998C208.367 60.9998 206.967 61.5331 205.3 61.9998C203.7 62.3998 201.867 62.5998 199.8 62.5998C197 62.5998 194.433 62.1665 192.1 61.2998C189.833 60.4331 187.867 59.1998 186.2 57.5998C184.6 55.9998 183.367 54.0331 182.5 51.6998C181.633 49.4331 181.2 46.8331 181.2 43.8998C181.2 41.2998 181.633 38.8331 182.5 36.4998C183.367 34.2331 184.567 32.2665 186.1 30.5998C187.7 28.9331 189.6 27.6331 191.8 26.6998C194 25.7665 196.4 25.2998 199 25.2998C200.133 25.2998 201.2 25.3998 202.2 25.5998C203.133 25.7998 204 26.0665 204.8 26.3998C205.6 26.6665 206.367 26.9998 207.1 27.3998C207.833 27.7998 208.533 28.2331 209.2 28.6998L208.9 26.0998V25.9998H216.7V26.0998C216.567 26.6331 216.433 27.2665 216.3 27.9998C216.167 28.7331 216.067 29.6331 216 30.6998C215.867 31.7665 215.767 33.0331 215.7 34.4998C215.7 36.0331 215.7 37.7665 215.7 39.6998V63.6998C215.7 65.8331 215.4 67.9331 214.8 69.9998C214.2 71.9998 213.2 73.7998 211.8 75.3998C210.467 76.9998 208.667 78.2998 206.4 79.2998C204.133 80.2331 201.3 80.6998 197.9 80.6998C196.7 80.6998 195.5 80.5998 194.3 80.3998C193.1 80.1331 191.967 79.8665 190.9 79.5998C189.767 79.2665 188.767 78.8998 187.9 78.4998C187.033 78.1665 186.333 77.8331 185.8 77.4998L184.7 70.7998L185.3 70.5998C185.9 71.8665 186.667 72.9665 187.6 73.8998C188.6 74.8331 189.667 75.5998 190.8 76.1998C192 76.7998 193.2 77.2665 194.4 77.5998C195.667 77.9331 196.833 78.0998 197.9 78.0998ZM201.4 60.0998C203.067 60.0998 204.6 59.7998 206 59.1998C207.4 58.6665 208.567 58.0331 209.5 57.2998V39.6998C209.5 38.4331 209.5 37.2665 209.5 36.1998C209.433 35.1331 209.4 34.1665 209.4 33.2998C208.867 32.4331 208.2 31.6665 207.4 30.9998C206.667 30.3331 205.9 29.7665 205.1 29.2998C204.233 28.8331 203.367 28.4998 202.5 28.2998C201.633 28.0331 200.767 27.8998 199.9 27.8998C198.1 27.8998 196.5 28.1998 195.1 28.7998C193.633 29.4665 192.4 30.4331 191.4 31.6998C190.4 32.8998 189.633 34.3998 189.1 36.1998C188.567 37.9331 188.3 39.9331 188.3 42.1998C188.3 44.7331 188.567 47.0998 189.1 49.2998C189.7 51.4331 190.533 53.3331 191.6 54.9998C192.733 56.5998 194.1 57.8331 195.7 58.6998C197.367 59.6331 199.267 60.0998 201.4 60.0998ZM220.8 51.5998C220.8 49.7998 221.2 48.1998 222 46.7998C222.8 45.4665 223.833 44.2998 225.1 43.2998C226.367 42.3665 227.8 41.5998 229.4 40.9998C231.067 40.3998 232.767 39.9331 234.5 39.5998C236.233 39.2665 237.967 39.0331 239.7 38.8998C241.367 38.7665 242.933 38.6998 244.4 38.6998V36.8998C244.4 35.2998 244.2 33.9665 243.8 32.8998C243.4 31.7665 242.833 30.8331 242.1 30.0998C241.367 29.3665 240.467 28.7998 239.4 28.3998C238.4 28.0665 237.267 27.8998 236 27.8998C235.133 27.8998 234.3 27.9665 233.5 28.0998C232.7 28.2331 231.833 28.4665 230.9 28.7998C230.033 29.1331 229.1 29.5665 228.1 30.0998C227.167 30.6998 226.133 31.4331 225 32.2998L224.6 31.9998L227 27.0998C227.8 26.7665 228.567 26.4665 229.3 26.1998C230.1 25.9998 230.867 25.8331 231.6 25.6998C232.4 25.5665 233.2 25.4665 234 25.3998C234.8 25.3331 235.667 25.2998 236.6 25.2998C239.067 25.2998 241.167 25.5998 242.9 26.1998C244.7 26.7998 246.167 27.6331 247.3 28.6998C248.433 29.6998 249.233 30.8998 249.7 32.2998C250.233 33.6998 250.5 35.1998 250.5 36.7998V48.2998C250.5 50.2331 250.533 51.9665 250.6 53.4998C250.667 54.9665 250.733 56.2331 250.8 57.2998C250.933 58.3665 251.033 59.2665 251.1 59.9998C251.233 60.7331 251.4 61.3665 251.6 61.8998V61.9998H243.7V61.8998C243.833 61.4998 243.933 61.0665 244 60.5998C244.067 60.1331 244.1 59.5665 244.1 58.8998C243.633 59.2998 243.067 59.7331 242.4 60.1998C241.733 60.6665 240.967 61.0665 240.1 61.3998C239.233 61.7998 238.267 62.0998 237.2 62.2998C236.133 62.4998 235 62.5998 233.8 62.5998C229.667 62.5998 226.467 61.6665 224.2 59.7998C221.933 57.8665 220.8 55.1331 220.8 51.5998ZM244.4 48.2998V41.3998C242.2 41.3998 240.133 41.5331 238.2 41.7998C236.2 41.9998 234.433 42.4665 232.9 43.1998C231.367 43.8665 230.133 44.8665 229.2 46.1998C228.333 47.4665 227.9 49.1665 227.9 51.2998C227.9 54.0998 228.6 56.2331 230 57.6998C231.4 59.1665 233.3 59.8998 235.7 59.8998C236.833 59.8998 237.867 59.7331 238.8 59.3998C239.733 59.0665 240.567 58.6665 241.3 58.1998C242.033 57.7331 242.667 57.1998 243.2 56.5998C243.667 55.9998 244.033 55.4331 244.3 54.8998C244.367 54.0331 244.4 53.0665 244.4 51.9998C244.4 50.8665 244.4 49.6331 244.4 48.2998Z" fill="white"></path><path d="M44.8438 36.8584C49.3438 36.8584 52.8438 40.4584 52.8438 44.8584C52.8438 49.2584 49.3438 52.8584 44.8438 52.8584C40.4437 52.8584 36.8438 49.2584 36.8438 44.8584C36.8438 40.4584 40.4437 36.8584 44.8438 36.8584Z" fill="white"></path><path d="M41.8747 84.1488C42.3446 87.1097 44.577 88.5196 46.2454 89.718C43.4021 85.3003 46.7154 80.3655 48.5953 76.8642C49.6762 74.8903 51.0862 72.3995 50.6162 69.6031C50.1462 66.6423 47.8903 65.2089 46.2454 64.0339C49.0888 68.4517 45.7755 73.3864 43.8956 76.8642C42.8381 78.8381 41.4282 81.376 41.8747 84.1488ZM41.3342 87.1097C38.4909 82.7154 41.8042 77.7572 43.6841 74.2794C44.765 72.282 46.1749 69.7911 45.7285 66.9948C45.235 64.0574 43.0026 62.6005 41.3577 61.4256C44.201 65.8433 40.8877 70.7781 39.0078 74.2794C37.9269 76.2533 36.517 78.7676 36.9634 81.5405C37.4569 84.5248 39.6658 85.9347 41.3342 87.1097ZM43.4256 25.6841C40.5822 21.2663 43.9191 16.3316 45.7755 12.8538C46.8564 10.8799 48.2663 8.34204 47.8198 5.56919C47.3264 2.60836 45.1175 1.19843 43.4491 0C46.2924 4.41775 42.9791 9.35248 41.0992 12.8538C40.0183 14.8277 38.6084 17.3185 39.0548 20.1149C39.5483 23.0757 41.7807 24.5091 43.4256 25.6841ZM45.9869 15.4386C44.9295 17.436 43.5196 19.9269 43.9661 22.7232C44.436 25.6606 46.6919 27.1175 48.3368 28.2924C45.4935 23.8747 48.8068 18.9164 50.6867 15.4386C51.7441 13.4648 53.154 10.9504 52.7076 8.17755C52.2376 5.19321 50.0052 3.78329 48.3603 2.60836C51.1802 7.00261 47.8668 11.9608 45.9869 15.4386ZM77.5457 75.5953C72.423 74.4674 71.2715 68.6397 70.1436 64.8329C69.4856 62.671 68.7102 59.9217 66.4308 58.2533C64.0104 56.5144 61.3786 57.0783 59.4047 57.4073C64.5274 58.5352 65.6788 64.3629 66.8068 68.1697C67.4648 70.3081 68.2402 73.0809 70.5196 74.7494C72.9634 76.4883 75.5248 75.9243 77.5457 75.5953ZM61.5196 69.7911C62.154 71.9295 62.9295 74.7258 65.2089 76.3708C67.6527 78.1332 70.2376 77.5457 72.235 77.2167C67.1123 76.1123 65.9608 70.2611 64.8329 66.4778C64.1749 64.3159 63.423 61.5431 61.1201 59.8982C58.6997 58.1358 56.0914 58.7232 54.094 59.0522C59.2167 60.1567 60.3681 66.0078 61.5196 69.7911ZM19.5509 24.8616C20.2089 27.047 20.9608 29.7963 23.2637 31.4413C25.6841 33.2037 28.2924 32.6397 30.2898 32.3107C25.1671 31.1828 24.0157 25.3551 22.8642 21.5483C22.2298 19.4099 21.4543 16.6136 19.1749 14.9687C16.7311 13.2063 14.1462 13.7937 12.1488 14.1227C17.2715 15.2507 18.423 21.0783 19.5509 24.8616ZM24.8616 23.2402C25.4961 25.4021 26.2715 28.1514 28.5744 29.8198C30.9948 31.5587 33.6031 30.9948 35.577 30.6658C30.4543 29.5614 29.3029 23.7102 28.1749 19.9269C27.5405 17.765 26.7415 14.9922 24.4621 13.3473C22.0183 11.5849 19.4569 12.1488 17.436 12.5013C22.5587 13.6057 23.7102 19.4569 24.8616 23.2402ZM69.5796 39.0783C66.6423 39.5483 65.1854 41.8042 64.0104 43.4491C68.4282 40.6057 73.3629 43.9191 76.8642 45.799C78.8381 46.8564 81.3525 48.2898 84.1253 47.8198C87.1097 47.3499 88.5196 45.1175 89.6945 43.4726C85.2768 46.2924 80.342 42.9791 76.8642 41.0992C74.8668 40.0418 72.376 38.6319 69.5796 39.0783ZM87.1097 48.3603C82.6919 51.2037 77.7572 47.8903 74.2559 46.0104C72.282 44.9295 69.7911 43.5196 66.9948 43.9896C64.0339 44.4595 62.6005 46.7154 61.4256 48.3368C65.8433 45.517 70.7781 48.8303 74.2559 50.7102C76.2298 51.7676 78.7676 53.1775 81.5405 52.7311C84.5013 52.2611 85.9112 50.0287 87.1097 48.3603ZM12.8303 48.6188C14.8277 49.6762 17.3185 51.0862 20.1149 50.6397C23.0522 50.1697 24.5091 47.9138 25.6606 46.2689C21.2663 49.1123 16.3081 45.799 12.8303 43.9191C10.8564 42.8616 8.34204 41.4282 5.54569 41.8747C2.58486 42.3681 1.17493 44.6005 0 46.2454C4.39426 43.4256 9.35248 46.7389 12.8303 48.6188ZM15.4151 43.7076C17.4125 44.7885 19.9034 46.1984 22.6997 45.7285C25.6371 45.2585 27.094 43.0026 28.2689 41.3812C23.8512 44.201 18.9165 40.8877 15.4151 39.0078C13.4413 37.9504 10.9269 36.5405 8.15405 36.9869C5.19321 37.4569 3.75979 39.6893 2.58486 41.3577C7.00261 38.5144 11.9373 41.8277 15.4151 43.7076ZM68.1462 22.8877C70.2846 22.2533 73.0809 21.4543 74.7258 19.1749C76.4883 16.7311 75.9008 14.1697 75.5718 12.1488C74.4674 17.2715 68.6162 18.423 64.8329 19.5744C62.671 20.2089 59.8982 20.9843 58.2533 23.2872C56.4909 25.7076 57.0783 28.3159 57.4073 30.3133C58.5117 25.1671 64.3629 24.0157 68.1462 22.8877ZM66.4543 24.8616C64.2924 25.5196 61.5431 26.2715 59.8747 28.5744C58.1358 30.9948 58.6997 33.6031 59.0287 35.6005C60.1567 30.4778 65.9843 29.3264 69.7676 28.1984C71.9295 27.5405 74.7023 26.765 76.3473 24.4856C78.1097 22.0418 77.5457 19.4804 77.2167 17.4595C76.0888 22.5822 70.2611 23.7337 66.4543 24.8616ZM21.5483 66.8303C19.3864 67.4648 16.6136 68.2637 14.9687 70.5431C13.2063 72.9634 13.7702 75.5483 14.1227 77.5692C15.2272 72.423 21.0548 71.295 24.8616 70.1436C27.0235 69.5091 29.7728 68.7337 31.4413 66.4308C33.1802 64.0104 32.6162 61.4021 32.2872 59.4047C31.1828 64.5509 25.3316 65.6789 21.5483 66.8303ZM19.9034 61.5196C17.765 62.1776 14.9687 62.953 13.3238 65.2324C11.5614 67.6762 12.1488 70.2376 12.4778 72.2585C13.6057 67.1358 19.4334 65.9843 23.2167 64.8564C25.4021 64.1984 28.1514 63.4465 29.7963 61.1436C31.5587 58.7232 30.9948 56.0914 30.6658 54.1175C29.5379 59.2402 23.7102 60.3917 19.9034 61.5196Z" fill="white"></path></g><defs><clipPath id="clip0_5215_1081"><rect width="252" height="90" fill="white"></rect></clipPath></defs></svg>