<svg xmlns="http://www.w3.org/2000/svg" width="109" height="46" viewBox="0 0 109 46" fill="none"><mask id="mask0_5490_942" style="mask-type:luminance" maskUnits="userSpaceOnUse" x="0" y="0" width="109" height="46"><path d="M108.363 0H0.363281V46H108.363V0Z" fill="white"></path></mask><g mask="url(#mask0_5490_942)"><ellipse cx="22.9413" cy="23.1483" rx="22.3749" ry="22.3744" fill="url(#paint0_linear_5490_942)"></ellipse><mask id="mask1_5490_942" style="mask-type:alpha" maskUnits="userSpaceOnUse" x="0" y="0" width="46" height="46"><ellipse cx="22.9452" cy="23.1471" rx="22.3749" ry="22.3744" fill="url(#paint1_linear_5490_942)"></ellipse></mask><g mask="url(#mask1_5490_942)"><g filter="url(#filter0_f_5490_942)"><ellipse cx="22.9452" cy="23.1471" rx="22.3749" ry="22.3744" fill="url(#paint2_radial_5490_942)"></ellipse></g><ellipse cx="22.9466" cy="23.1502" rx="22.3763" ry="22.3758" fill="url(#paint3_linear_5490_942)"></ellipse><ellipse cx="22.9466" cy="23.1502" rx="22.3763" ry="22.3758" fill="url(#paint4_linear_5490_942)"></ellipse></g><path d="M23.3918 31.4348C21.7672 31.4348 20.372 31.0781 19.2066 30.3647C18.0482 29.6513 17.1548 28.6659 16.5261 27.4086C15.9045 26.1443 15.5938 24.6892 15.5938 23.0434C15.5938 21.3906 15.9116 19.932 16.5473 18.6677C17.183 17.3962 18.0801 16.4074 19.2385 15.701C20.4039 14.9876 21.7813 14.6309 23.3706 14.6309C24.6914 14.6309 25.8604 14.8746 26.8776 15.362C27.9017 15.8423 28.7176 16.5239 29.325 17.4068C29.9325 18.2827 30.2786 19.3069 30.3633 20.4794H26.6973C26.549 19.6954 26.1958 19.042 25.6378 18.5193C25.0869 17.9896 24.3489 17.7247 23.4235 17.7247C22.6395 17.7247 21.9508 17.9366 21.3575 18.3604C20.7642 18.7771 20.3014 19.3775 19.9694 20.1616C19.6445 20.9456 19.4822 21.885 19.4822 22.9799C19.4822 24.0888 19.6445 25.0424 19.9694 25.8405C20.2944 26.6316 20.75 27.2426 21.3363 27.6735C21.9296 28.0973 22.6254 28.3092 23.4235 28.3092C23.9886 28.3092 24.4937 28.2033 24.9386 27.9914C25.3907 27.7724 25.7686 27.4581 26.0723 27.0484C26.376 26.6387 26.5843 26.1407 26.6973 25.5545H30.3633C30.2715 26.7058 29.9325 27.7265 29.3462 28.6165C28.76 29.4994 27.9618 30.1916 26.9517 30.6931C25.9417 31.1875 24.755 31.4348 23.3918 31.4348Z" fill="#1D2327"></path><path d="M32.6172 31.1168V14.8427H36.3361V17.5551H36.5056C36.8022 16.6156 37.3108 15.8916 38.0313 15.3831C38.7588 14.8674 39.5888 14.6096 40.5211 14.6096C40.733 14.6096 40.9697 14.6202 41.231 14.6414C41.4994 14.6555 41.7219 14.6803 41.8985 14.7156V18.2437C41.736 18.1872 41.4782 18.1378 41.1251 18.0954C40.7789 18.046 40.4434 18.0212 40.1185 18.0212C39.4192 18.0212 38.7906 18.1731 38.2326 18.4768C37.6816 18.7735 37.2472 19.1867 36.9294 19.7165C36.6115 20.2462 36.4526 20.8572 36.4526 21.5494V31.1168H32.6172Z" fill="#1D2327"></path><path d="M47.942 31.4454C46.9108 31.4454 45.9819 31.2617 45.1555 30.8944C44.3361 30.5201 43.6863 29.9691 43.206 29.2416C42.7328 28.514 42.4961 27.617 42.4961 26.5504C42.4961 25.6322 42.6657 24.8729 43.0047 24.2725C43.3437 23.6721 43.8064 23.1918 44.3927 22.8315C44.9789 22.4713 45.6393 22.1994 46.3739 22.0157C47.1156 21.825 47.882 21.6873 48.6731 21.6025C49.6266 21.5036 50.4001 21.4153 50.9934 21.3376C51.5867 21.2529 52.0176 21.1257 52.286 20.9562C52.5615 20.7796 52.6992 20.5077 52.6992 20.1404V20.0768C52.6992 19.2786 52.4626 18.6606 51.9894 18.2227C51.5161 17.7847 50.8345 17.5658 49.9445 17.5658C49.0051 17.5658 48.2599 17.7706 47.7089 18.1803C47.165 18.59 46.7977 19.0738 46.607 19.6318L43.0259 19.1232C43.3084 18.1344 43.7746 17.3079 44.4244 16.644C45.0743 15.973 45.8689 15.4715 46.8083 15.1395C47.7478 14.8004 48.7861 14.6309 49.9233 14.6309C50.7073 14.6309 51.4879 14.7227 52.2648 14.9064C53.0418 15.09 53.7517 15.3938 54.3944 15.8176C55.0372 16.2343 55.5529 16.8029 55.9413 17.5234C56.3369 18.2438 56.5347 19.1444 56.5347 20.2251V31.1169H52.8476V28.8813H52.7204C52.4873 29.3334 52.1589 29.7572 51.7351 30.1528C51.3183 30.5412 50.7921 30.8556 50.1564 31.0957C49.5278 31.3288 48.7896 31.4454 47.942 31.4454ZM48.938 28.6271C49.7079 28.6271 50.3754 28.4752 50.9404 28.1715C51.5055 27.8607 51.9399 27.451 52.2436 26.9424C52.5544 26.4339 52.7098 25.8794 52.7098 25.279V23.3613C52.5897 23.4602 52.3849 23.552 52.0953 23.6368C51.8128 23.7215 51.4949 23.7957 51.1417 23.8593C50.7886 23.9228 50.4389 23.9793 50.0928 24.0288C49.7467 24.0782 49.4465 24.1206 49.1922 24.1559C48.6201 24.2336 48.108 24.3608 47.656 24.5373C47.2039 24.7139 46.8472 24.9612 46.5858 25.279C46.3245 25.5898 46.1938 25.9924 46.1938 26.4868C46.1938 27.1932 46.4516 27.7265 46.9673 28.0867C47.4829 28.4469 48.1398 28.6271 48.938 28.6271Z" fill="#1D2327"></path><path d="M67.7415 14.8427V17.8093H58.1211V14.8427H67.7415ZM60.5262 31.1168V13.3064C60.5262 12.2116 60.7523 11.3004 61.2043 10.5729C61.6634 9.84535 62.278 9.30146 63.0479 8.94123C63.8178 8.581 64.6725 8.40088 65.6119 8.40088C66.2759 8.40088 66.8657 8.45385 67.3813 8.55981C67.8969 8.66576 68.2783 8.76111 68.5256 8.84588L67.7627 11.8125C67.6002 11.7631 67.3954 11.7136 67.1482 11.6642C66.901 11.6077 66.6255 11.5794 66.3218 11.5794C65.6084 11.5794 65.1033 11.7525 64.8067 12.0986C64.5171 12.4376 64.3723 12.925 64.3723 13.5607V31.1168H60.5262Z" fill="#1D2327"></path><path d="M77.9766 14.8426V17.8092H68.6211V14.8426H77.9766ZM70.9309 10.9436H74.7663V26.2218C74.7663 26.7374 74.844 27.133 74.9994 27.4084C75.1618 27.6768 75.3737 27.8605 75.6351 27.9594C75.8964 28.0583 76.186 28.1077 76.5039 28.1077C76.744 28.1077 76.963 28.09 77.1608 28.0547C77.3656 28.0194 77.521 27.9876 77.627 27.9594L78.2733 30.9578C78.0684 31.0284 77.7753 31.1061 77.3939 31.1909C77.0195 31.2756 76.5604 31.3251 76.0165 31.3392C75.0559 31.3675 74.1906 31.2227 73.4207 30.9048C72.6508 30.5799 72.0398 30.0784 71.5878 29.4003C71.1428 28.7222 70.9238 27.8746 70.9309 26.8575V10.9436Z" fill="#1D2327"></path><path d="M87.2121 31.4348C85.6228 31.4348 84.2455 31.0851 83.08 30.3859C81.9146 29.6866 81.0104 28.7083 80.3677 27.451C79.732 26.1937 79.4141 24.7245 79.4141 23.0434C79.4141 21.3623 79.732 19.8896 80.3677 18.6253C81.0104 17.3609 81.9146 16.3791 83.08 15.6798C84.2455 14.9805 85.6228 14.6309 87.2121 14.6309C88.8014 14.6309 90.1787 14.9805 91.3442 15.6798C92.5097 16.3791 93.4103 17.3609 94.046 18.6253C94.6887 19.8896 95.0101 21.3623 95.0101 23.0434C95.0101 24.7245 94.6887 26.1937 94.046 27.451C93.4103 28.7083 92.5097 29.6866 91.3442 30.3859C90.1787 31.0851 88.8014 31.4348 87.2121 31.4348ZM87.2333 28.3622C88.095 28.3622 88.8155 28.1256 89.3947 27.6523C89.9739 27.172 90.4048 26.5292 90.6873 25.724C90.9769 24.9188 91.1217 24.0217 91.1217 23.0328C91.1217 22.0369 90.9769 21.1363 90.6873 20.3311C90.4048 19.5188 89.9739 18.8725 89.3947 18.3922C88.8155 17.9119 88.095 17.6717 87.2333 17.6717C86.3504 17.6717 85.6158 17.9119 85.0295 18.3922C84.4503 18.8725 84.0159 19.5188 83.7263 20.3311C83.4438 21.1363 83.3025 22.0369 83.3025 23.0328C83.3025 24.0217 83.4438 24.9188 83.7263 25.724C84.0159 26.5292 84.4503 27.172 85.0295 27.6523C85.6158 28.1256 86.3504 28.3622 87.2333 28.3622Z" fill="#1D2327"></path><path d="M99.0507 17.2337C100.897 17.2337 102.394 15.7367 102.394 13.89C102.394 12.0434 100.897 10.5464 99.0507 10.5464C97.2041 10.5464 95.707 12.0434 95.707 13.89C95.707 15.7367 97.2041 17.2337 99.0507 17.2337Z" fill="#1D2327"></path></g><defs><filter id="filter0_f_5490_942" x="-11.1197" y="-10.9173" width="68.13" height="68.1288" filterUnits="userSpaceOnUse" color-interpolation-filters="sRGB"><feGaussianBlur stdDeviation="5.845"></feGaussianBlur></filter><linearGradient id="paint0_linear_5490_942" x1="41.7157" y1="11.061" x2="8.7969" y2="38.8369" gradientUnits="userSpaceOnUse"><stop stop-color="#41D593"></stop><stop offset="1" stop-color="#8583FD"></stop></linearGradient><linearGradient id="paint1_linear_5490_942" x1="41.7196" y1="11.0598" x2="8.80081" y2="38.8357" gradientUnits="userSpaceOnUse"><stop stop-color="#2FC77E"></stop><stop offset="1" stop-color="#7554EB"></stop></linearGradient><radialGradient id="paint2_radial_5490_942" cx="0" cy="0" r="1" gradientUnits="userSpaceOnUse" gradientTransform="translate(30.9179 18.2607) rotate(138.312) scale(22.0411 22.0411)"><stop offset="0.377972" stop-color="white"></stop><stop offset="1" stop-color="white" stop-opacity="0"></stop></radialGradient><linearGradient id="paint3_linear_5490_942" x1="31.6227" y1="0.844592" x2="22.7848" y2="35.3553" gradientUnits="userSpaceOnUse"><stop stop-color="#33CBA3"></stop><stop offset="0.403356" stop-color="#33CBA3" stop-opacity="0.1"></stop><stop offset="1" stop-color="#33CBA3" stop-opacity="0"></stop></linearGradient><linearGradient id="paint4_linear_5490_942" x1="13.7357" y1="43.7725" x2="28.6761" y2="19.7831" gradientUnits="userSpaceOnUse"><stop stop-color="#6162F2"></stop><stop offset="0.413685" stop-color="#6162F2" stop-opacity="0.1"></stop><stop offset="0.892811" stop-color="#6162F2" stop-opacity="0"></stop></linearGradient></defs></svg>