<svg xmlns="http://www.w3.org/2000/svg" width="54" height="54" viewBox="0 0 54 54" fill="none"><path d="M14.4336 20.8043H8.88281V24L23.7993 40.6208V43.1974" stroke="#7F828C" stroke-width="1.3" stroke-miterlimit="10" stroke-linecap="round" stroke-linejoin="round"></path><path d="M14.125 20.8043H45.1071V24L30.1906 40.6208V49.1438L23.7992 50.209V42.8889" stroke="#7F828C" stroke-width="1.3" stroke-miterlimit="10" stroke-linecap="round" stroke-linejoin="round"></path><path d="M8.88281 24H45.1067" stroke="#7F828C" stroke-width="1.3" stroke-miterlimit="10" stroke-linecap="round" stroke-linejoin="round"></path><path d="M37.1181 4.82275V8.28804C37.1181 8.62838 36.7387 8.83141 36.4556 8.64262L35.7564 8.17656C35.6133 8.08111 35.4268 8.08111 35.2836 8.17656L34.5844 8.64262C34.3012 8.83141 33.9219 8.62838 33.9219 8.28804V4.82275" stroke="white" stroke-width="1.3" stroke-miterlimit="10" stroke-linecap="round" stroke-linejoin="round"></path><path d="M41.9099 7.30263V16.7554C41.9099 17.2258 41.5281 17.6076 41.0577 17.6076H29.9772C29.5068 17.6076 29.125 17.2258 29.125 16.7554V5.67482C29.125 5.20443 29.5068 4.82263 29.9772 4.82263H41.0577C41.5281 4.82263 41.9099 5.20443 41.9099 5.67482V7.61123" stroke="white" stroke-width="1.3" stroke-miterlimit="10" stroke-linecap="round" stroke-linejoin="round"></path><path d="M20.8488 3.43774V7.78865C20.8488 8.21601 20.3725 8.47092 20.017 8.23383L19.1392 7.64858C18.9594 7.52877 18.7253 7.52877 18.5456 7.64858L17.6678 8.23383C17.3122 8.47092 16.8359 8.21601 16.8359 7.78865V3.43774" stroke="white" stroke-width="1.3" stroke-miterlimit="10" stroke-linecap="round" stroke-linejoin="round"></path><path d="M24.0647 15.4768H13.6307C13.1875 15.4768 12.8281 15.1175 12.8281 14.6742V4.24036C12.8281 3.79708 13.1875 3.43774 13.6307 3.43774H24.0647C24.5079 3.43774 24.8673 3.79708 24.8673 4.24036V14.6743C24.8673 15.1175 24.5079 15.4768 24.0647 15.4768Z" stroke="white" stroke-width="1.3" stroke-miterlimit="10" stroke-linecap="round" stroke-linejoin="round"></path></svg>