<svg xmlns="http://www.w3.org/2000/svg" width="54" height="54" viewBox="0 0 54 54" fill="none"><path fill-rule="evenodd" clip-rule="evenodd" d="M9.2689 45.54H7.8289C6.7489 45.54 5.7589 45.09 4.9489 44.28C4.2289 43.47 3.8689 42.39 3.9589 41.31L5.7589 22.95C5.9389 20.97 7.6489 19.44 9.6289 19.44H29.4289C31.4989 19.44 33.1189 20.97 33.2989 22.95L33.4789 24.57C33.4789 24.84 33.3889 25.02 33.2989 25.2C33.1189 25.29 32.9389 25.38 32.7589 25.38H14.1289C12.8689 25.38 11.8789 26.37 11.6989 27.63L9.9889 44.91C9.9889 45.27 9.6289 45.54 9.2689 45.54ZM9.6289 20.88C8.3689 20.88 7.3789 21.87 7.1989 23.13L5.3989 41.4C5.3089 42.12 5.5789 42.75 6.0289 43.29C6.4789 43.83 7.1089 44.1 7.8289 44.1H8.6389L10.2589 27.45C10.4389 25.47 12.1489 23.94 14.1289 23.94H31.9489L31.8589 23.13C31.7689 21.87 30.6889 20.88 29.4289 20.88H9.6289Z" fill="#7F828C"></path><path fill-rule="evenodd" clip-rule="evenodd" d="M35.7289 50.04H12.3289C11.2489 50.04 10.2589 49.59 9.4489 48.78C8.7289 47.97 8.3689 46.89 8.4589 45.81L10.2589 27.45C10.4389 25.47 12.1489 23.94 14.1289 23.94H33.9289C35.9989 23.94 37.6189 25.47 37.7989 27.45L39.5989 45.81C39.6889 46.89 39.4189 47.97 38.6089 48.78C37.8889 49.59 36.8989 50.04 35.7289 50.04ZM29.7889 41.67C30.1489 41.67 30.4189 41.4 30.4189 41.04C30.4189 40.77 30.1489 40.41 29.7889 40.41H18.3589C17.9989 40.41 17.7289 40.77 17.7289 41.04C17.7289 41.4 17.9989 41.67 18.3589 41.67H29.7889ZM33.5689 45.18C33.9289 45.18 34.1989 44.82 34.1989 44.55C34.1989 44.19 33.9289 43.92 33.5689 43.92H14.5789C14.2189 43.92 13.9489 44.19 13.9489 44.55C13.9489 44.82 14.2189 45.18 14.5789 45.18H33.5689ZM24.0289 37.89C27.5389 37.89 30.4189 35.01 30.4189 31.5V28.26C30.4189 27.9 30.1489 27.63 29.7889 27.63C29.4289 27.63 29.1589 27.9 29.1589 28.26V31.5C29.1589 34.29 26.9089 36.63 24.0289 36.63C21.2389 36.63 18.8989 34.29 18.8989 31.5V28.26C18.8989 27.9 18.6289 27.63 18.2689 27.63C17.9989 27.63 17.6389 27.9 17.6389 28.26V31.5C17.6389 35.01 20.5189 37.89 24.0289 37.89Z" fill="white"></path><path fill-rule="evenodd" clip-rule="evenodd" d="M24.4822 19.4095C24.0322 19.4095 23.7622 19.1395 23.7622 18.6895V15.4495C23.7622 12.6595 21.5122 10.4095 18.7222 10.4095C15.9322 10.4095 13.6822 12.6595 13.6822 15.4495V18.6895C13.6822 19.1395 13.3598 19.4095 12.9622 19.4095C12.5645 19.4095 12.2422 19.1395 12.2422 18.6895V15.4495C12.2422 11.8495 15.1222 8.96948 18.7222 8.96948C22.3222 8.96948 25.2022 11.8495 25.2022 15.4495V18.6895C25.2022 19.1395 24.8422 19.4095 24.4822 19.4095Z" fill="#7F828C"></path><path fill-rule="evenodd" clip-rule="evenodd" d="M46.1688 27.27H42.8388C41.6688 27.27 40.6788 26.28 40.6788 25.02V21.78C39.9588 21.6 39.4188 21.15 39.1488 20.43C38.7887 19.62 38.9688 18.63 39.6888 18L42.9288 14.76C43.3788 14.31 43.9188 14.13 44.5488 14.13C45.0888 14.13 45.7188 14.31 46.0788 14.76L49.4088 18C50.0388 18.63 50.2188 19.62 49.8588 20.43C49.5888 21.15 49.0488 21.6 48.4188 21.78V25.02C48.4188 26.28 47.4288 27.27 46.1688 27.27ZM44.5488 15.57C44.2788 15.57 44.0988 15.57 43.9188 15.75L40.6788 18.99C40.4088 19.26 40.4088 19.62 40.4988 19.89C40.6788 20.25 40.9488 20.43 41.2188 20.43H41.3988C41.7588 20.43 42.1188 20.7 42.1188 21.15V25.02C42.1188 25.47 42.4788 25.83 42.8388 25.83H46.1688C46.6188 25.83 46.9788 25.47 46.9788 25.02V21.15C46.9788 20.7 47.2488 20.43 47.6988 20.43H47.7888C48.1488 20.43 48.4188 20.25 48.5088 19.89C48.6888 19.62 48.5988 19.26 48.3288 18.99L45.0888 15.75C44.9088 15.57 44.7288 15.57 44.5488 15.57Z" fill="#7F828C"></path><path fill-rule="evenodd" clip-rule="evenodd" d="M35.4597 18.36C34.8297 18.36 34.1997 18.18 33.7497 17.73L30.1497 14.04C29.4297 13.41 29.2497 12.42 29.6097 11.43C29.8797 10.71 30.5097 10.26 31.2297 10.08V6.38996C31.2297 5.03996 32.3097 3.95996 33.6597 3.95996H37.2597C38.6097 3.95996 39.5997 5.03996 39.5997 6.38996V10.08C40.4097 10.26 40.9497 10.71 41.3097 11.43C41.6697 12.42 41.4897 13.41 40.7697 14.04L37.1697 17.73C36.7197 18.18 36.0897 18.36 35.4597 18.36ZM31.8597 11.43C31.4097 11.43 31.0497 11.61 30.9597 12.06C30.7797 12.42 30.8697 12.78 31.1397 13.05L34.7397 16.65C35.0997 17.01 35.7297 17.01 36.0897 16.65L39.6897 13.05C40.0497 12.78 40.0497 12.42 39.9597 12.06C39.7797 11.61 39.4197 11.43 39.0597 11.43H38.8797C38.5197 11.43 38.1597 11.07 38.1597 10.71V6.38996C38.1597 5.84996 37.7997 5.39996 37.2597 5.39996H33.6597C33.1197 5.39996 32.6697 5.84996 32.6697 6.38996V10.71C32.6697 11.07 32.3097 11.43 31.9497 11.43H31.8597Z" fill="white"></path></svg>