<svg xmlns="http://www.w3.org/2000/svg" width="54" height="54" viewBox="0 0 54 54" fill="none"><g clip-path="url(#clip0_6010_1132)"><path d="M42.5418 43.041H42.5" stroke="white" stroke-width="1.59448" stroke-miterlimit="10" stroke-linecap="round" stroke-linejoin="round"></path><path d="M46.1277 43.041H46.0859" stroke="white" stroke-width="1.59448" stroke-miterlimit="10" stroke-linecap="round" stroke-linejoin="round"></path><mask id="mask0_6010_1132" style="mask-type:luminance" maskUnits="userSpaceOnUse" x="-1" y="-1" width="55" height="55"><path d="M-0.015625 -0.000118256H53.9844V53.9999H-0.015625V-0.000118256Z" fill="white"></path></mask><g mask="url(#mask0_6010_1132)"><path d="M18.8579 11.5751H42.4222C42.7362 11.5751 42.9903 11.8414 42.9903 12.1675V35.9645C42.9903 36.2906 42.7362 36.554 42.4222 36.554H7.99003C7.67605 36.554 7.42188 36.2906 7.42188 35.9645V12.1675C7.42188 11.8414 7.67605 11.5751 7.99003 11.5751H25.0849" stroke="white" stroke-width="1.3" stroke-miterlimit="10" stroke-linecap="round" stroke-linejoin="round"></path><path d="M3.69531 40.1476V10.2615C3.69531 9.05265 4.67891 8.06821 5.88379 8.06821H27.6037H44.346C45.5509 8.06821 46.5376 9.05561 46.5376 10.2615V40.1476" stroke="#7F828C" stroke-width="1.3" stroke-miterlimit="10" stroke-linecap="round" stroke-linejoin="round"></path><path d="M24.4966 40.1476H47.275C48.3304 40.1476 49.1914 41.0094 49.1914 42.0626V44.0165C49.1914 45.0697 48.3304 45.9315 47.275 45.9315H2.68675C1.63438 45.9315 0.773438 45.0697 0.773438 44.0165V42.0626C0.773438 41.0094 1.63438 40.1476 2.68675 40.1476H24.8433" stroke="#7F828C" stroke-width="1.3" stroke-miterlimit="10" stroke-linecap="round" stroke-linejoin="round"></path><path d="M18.1748 21.7696C20.8087 21.7696 22.9433 23.906 22.9433 26.5421C22.9433 29.1782 20.8087 31.3147 18.1748 31.3147C15.5408 31.3147 13.4062 29.1782 13.4062 26.5421C13.4062 23.906 15.5408 21.7696 18.1748 21.7696Z" stroke="white" stroke-width="1.3" stroke-miterlimit="10" stroke-linecap="round" stroke-linejoin="round"></path><path d="M32.5732 21.7545C35.2071 21.7545 37.3418 23.8909 37.3418 26.5241C37.3418 29.1602 35.2071 31.2966 32.5732 31.2966C29.9393 31.2966 27.8047 29.1602 27.8047 26.5241C27.8047 23.8909 29.9393 21.7545 32.5732 21.7545Z" stroke="white" stroke-width="1.3" stroke-miterlimit="10" stroke-linecap="round" stroke-linejoin="round"></path><path d="M22.9453 26.524C23.8751 25.4438 26.6915 25.399 27.8066 26.524" stroke="white" stroke-width="1.3" stroke-miterlimit="10" stroke-linecap="round" stroke-linejoin="round"></path><path d="M18.4887 18.0531C18.8534 15.3153 14.9669 14.7857 14.5573 17.8795L13.4062 26.542" stroke="white" stroke-width="1.3" stroke-miterlimit="10" stroke-linecap="round" stroke-linejoin="round"></path><path d="M32.2663 18.0531C31.9016 15.3153 35.7882 14.7857 36.1976 17.8795L37.3487 26.542" stroke="white" stroke-width="1.3" stroke-miterlimit="10" stroke-linecap="round" stroke-linejoin="round"></path></g></g><defs><clipPath id="clip0_6010_1132"><rect width="54" height="54" fill="white"></rect></clipPath></defs></svg>