<svg xmlns="http://www.w3.org/2000/svg" width="54" height="54" viewBox="0 0 54 54" fill="none"><path d="M40.0601 41.4161L38.801 41.5451L39.1579 45.0287C39.1857 45.3 39.1563 45.574 39.0715 45.8332C38.9868 46.0924 38.8485 46.3309 38.6658 46.5333C38.4831 46.7357 38.2599 46.8975 38.0107 47.0083C37.7615 47.119 37.4919 47.1762 37.2192 47.1762H36.6889L32.7974 43.5312C31.8991 42.6874 30.7124 42.2185 29.4799 42.2202H13.5796C12.3471 42.2184 11.1604 42.6874 10.2621 43.5312L6.37052 47.1762H5.8161C5.54342 47.1762 5.27377 47.1189 5.02459 47.0082C4.77541 46.8974 4.55224 46.7356 4.36952 46.5332C4.18679 46.3308 4.04857 46.0924 3.96379 45.8332C3.87901 45.574 3.84956 45.2999 3.87734 45.0287L6.72597 17.2238C6.77401 16.7434 6.99914 16.298 7.35751 15.9745C7.71589 15.6509 8.18187 15.4724 8.66469 15.4735H14.9114V18.2776C14.387 18.43 13.9353 18.7664 13.6391 19.2252C13.3429 19.6839 13.2222 20.2342 13.2992 20.7748C13.3761 21.3154 13.6456 21.81 14.058 22.1679C14.4704 22.5258 14.9982 22.7228 15.5442 22.7228C16.0902 22.7228 16.618 22.5258 17.0304 22.1679C17.4428 21.81 17.7123 21.3154 17.7892 20.7748C17.8662 20.2342 17.7455 19.6839 17.4493 19.2252C17.1531 18.7664 16.7014 18.43 16.177 18.2776V15.4735H26.8583V18.2776C26.3339 18.43 25.8822 18.7664 25.586 19.2252C25.2898 19.6839 25.1691 20.2342 25.2461 20.7748C25.3231 21.3154 25.5925 21.81 26.0049 22.1679C26.4173 22.5258 26.9451 22.7228 27.4911 22.7228C28.0372 22.7228 28.5649 22.5258 28.9773 22.1679C29.3897 21.81 29.6592 21.3154 29.7361 20.7748C29.8131 20.2342 29.6924 19.6839 29.3962 19.2252C29.1 18.7664 28.6483 18.43 28.1239 18.2776V15.4735H34.3706C34.8541 15.4726 35.3206 15.6518 35.6791 15.9762C36.0376 16.3006 36.2625 16.7469 36.3098 17.228L36.491 18.8875L37.7491 18.7501L37.5684 17.0949C37.4891 16.3024 37.1178 15.5679 36.5267 15.0342C35.9355 14.5005 35.1669 14.206 34.3706 14.2079H28.1239V12.2321C28.1239 10.48 27.4279 8.7997 26.189 7.56079C24.9501 6.32187 23.2697 5.62585 21.5177 5.62585C19.7656 5.62585 18.0852 6.32187 16.8463 7.56079C15.6074 8.7997 14.9114 10.48 14.9114 12.2321V14.2079H8.66469C7.86832 14.206 7.09974 14.5005 6.50862 15.0342C5.91751 15.5679 5.54618 16.3024 5.46694 17.0949L2.61831 44.8997C2.57246 45.3471 2.62101 45.7992 2.76084 46.2267C2.90067 46.6542 3.12865 47.0475 3.43004 47.3814C3.73144 47.7153 4.09955 47.9821 4.51056 48.1648C4.92157 48.3475 5.36635 48.4418 5.81612 48.4418H37.2192C37.669 48.4418 38.1138 48.3475 38.5248 48.1648C38.9358 47.9821 39.3039 47.7152 39.6052 47.3814C39.9066 47.0476 40.1346 46.6542 40.2744 46.2267C40.4143 45.7992 40.4628 45.3472 40.417 44.8997L40.0601 41.4161ZM16.5462 20.4536C16.5462 20.6518 16.4874 20.8456 16.3773 21.0103C16.2672 21.1751 16.1107 21.3036 15.9276 21.3794C15.7445 21.4553 15.5431 21.4751 15.3487 21.4364C15.1543 21.3978 14.9758 21.3024 14.8356 21.1622C14.6955 21.0221 14.6 20.8435 14.5614 20.6491C14.5227 20.4548 14.5426 20.2533 14.6184 20.0702C14.6943 19.8871 14.8227 19.7306 14.9875 19.6205C15.1523 19.5104 15.346 19.4516 15.5442 19.4516C15.8099 19.4519 16.0645 19.5576 16.2524 19.7454C16.4402 19.9333 16.5459 20.188 16.5462 20.4536ZM28.4931 20.4536C28.4931 20.6518 28.4344 20.8456 28.3243 21.0103C28.2142 21.1751 28.0577 21.3036 27.8746 21.3794C27.6915 21.4553 27.49 21.4751 27.2956 21.4364C27.1012 21.3978 26.9227 21.3024 26.7825 21.1622C26.6424 21.0221 26.547 20.8435 26.5083 20.6491C26.4696 20.4548 26.4895 20.2533 26.5653 20.0702C26.6412 19.8871 26.7696 19.7306 26.9344 19.6205C27.0992 19.5104 27.2929 19.4516 27.4911 19.4516C27.7568 19.4519 28.0115 19.5576 28.1993 19.7454C28.3871 19.9333 28.4928 20.188 28.4931 20.4536ZM16.177 12.2321C16.177 10.8157 16.7397 9.45728 17.7413 8.45572C18.7428 7.45415 20.1012 6.89148 21.5177 6.89148C22.9341 6.89148 24.2925 7.45415 25.2941 8.45572C26.2956 9.45728 26.8583 10.8157 26.8583 12.2321V14.2079H16.177V12.2321Z" fill="#7F828C"></path><path d="M50.5979 41.5443L45.3292 36.2756C46.877 34.5264 47.6911 32.2479 47.6021 29.9139C47.513 27.58 46.5278 25.3701 44.8513 23.7439C43.1748 22.1177 40.9359 21.2003 38.6003 21.1824C36.2647 21.1645 34.0121 22.0476 32.3109 23.648C30.6097 25.2484 29.5908 27.4429 29.4661 29.7752C29.3414 32.1076 30.1205 34.3982 31.6413 36.1709C33.1622 37.9435 35.3078 39.0618 37.632 39.293C39.9562 39.5243 42.2801 38.8508 44.1205 37.4127L49.4002 42.6924L50.5979 41.5443ZM33.2293 35.5588C32.0036 34.333 31.2407 32.7201 31.0708 30.995C30.9009 29.2698 31.3344 27.5391 32.2975 26.0977C33.2606 24.6564 34.6937 23.5935 36.3525 23.0903C38.0114 22.5871 39.7934 22.6746 41.395 23.338C42.9966 24.0014 44.3185 25.1996 45.1357 26.7284C45.9529 28.2572 46.2147 30.0221 45.8765 31.7223C45.5383 33.4225 44.6211 34.9529 43.281 36.0526C41.941 37.1523 40.2611 37.7534 38.5276 37.7534C37.5432 37.7561 36.5681 37.5635 35.6586 37.1868C34.7492 36.8101 33.9235 36.2568 33.2293 35.5588Z" fill="white"></path><path d="M42.8495 29.0742C41.4146 27.3022 39.898 26.4175 38.3402 26.4367C37.4611 26.4491 35.7304 26.8044 34.0178 29.0452C33.7722 29.3666 33.6421 29.7615 33.6487 30.166C33.6552 30.5705 33.7981 30.961 34.054 31.2742C35.4717 33.0249 36.9696 33.9121 38.5071 33.9121C38.5258 33.9121 38.5445 33.912 38.5633 33.9117C39.4425 33.8994 41.1731 33.5441 42.8858 31.3032C43.1314 30.9818 43.2614 30.5869 43.2548 30.1824C43.2483 29.7779 43.1055 29.3875 42.8495 29.0742ZM38.4518 31.8947C38.1016 31.8947 37.7593 31.7908 37.4681 31.5963C37.1769 31.4017 36.95 31.1252 36.816 30.8017C36.682 30.4782 36.6469 30.1222 36.7152 29.7787C36.7836 29.4353 36.9522 29.1198 37.1998 28.8722C37.4474 28.6245 37.7629 28.4559 38.1064 28.3876C38.4498 28.3193 38.8058 28.3544 39.1293 28.4884C39.4529 28.6224 39.7294 28.8493 39.9239 29.1405C40.1185 29.4316 40.2223 29.774 40.2223 30.1241C40.2223 30.3566 40.1765 30.5869 40.0875 30.8017C39.9985 31.0165 39.8681 31.2117 39.7037 31.3761C39.5393 31.5405 39.3441 31.6709 39.1293 31.7599C38.9145 31.8489 38.6843 31.8947 38.4518 31.8947Z" fill="white"></path><path d="M36.7856 47.156H37.3159L37.316 48.4216H5.91285C5.72309 48.4216 5.79779 47.1559 5.91283 47.1559H6.46725L10.3588 43.5109C11.2572 42.6671 12.4438 42.1982 13.6763 42.2H29.5767C30.8092 42.1983 31.9958 42.6672 32.8941 43.511L36.7856 47.156Z" fill="white"></path></svg>