<svg xmlns="http://www.w3.org/2000/svg" width="190" height="65" viewBox="0 0 190 65" fill="none"><mask id="mask0_1343_624" style="mask-type:alpha" maskUnits="userSpaceOnUse" x="0" y="0" width="190" height="65"><rect width="189.868" height="65" fill="#D9D9D9"></rect></mask><g mask="url(#mask0_1343_624)"><circle cx="33.9295" cy="32.387" r="31.8651" fill="url(#paint0_linear_1343_624)"></circle><mask id="mask1_1343_624" style="mask-type:alpha" maskUnits="userSpaceOnUse" x="2" y="0" width="64" height="65"><circle cx="33.9334" cy="32.3858" r="31.8651" fill="url(#paint1_linear_1343_624)"></circle></mask><g mask="url(#mask1_1343_624)"><g filter="url(#filter0_f_1343_624)"><circle cx="33.9334" cy="32.3858" r="31.8651" fill="url(#paint2_radial_1343_624)"></circle></g><ellipse cx="33.9354" cy="32.3903" rx="31.867" ry="31.8671" fill="url(#paint3_linear_1343_624)"></ellipse><ellipse cx="33.9354" cy="32.3903" rx="31.867" ry="31.8671" fill="url(#paint4_linear_1343_624)"></ellipse></g><path d="M35.3568 43.9556C32.9676 43.9556 30.9125 43.4494 29.1914 42.437C27.4805 41.4145 26.1644 39.9971 25.2431 38.185C24.332 36.3728 23.8764 34.2873 23.8764 31.9284C23.8764 29.5392 24.337 27.4436 25.2583 25.6415C26.1897 23.8294 27.5109 22.4171 29.2218 21.4047C30.9327 20.3822 32.9676 19.8709 35.3265 19.8709C37.3614 19.8709 39.1432 20.2404 40.6719 20.9795C42.2006 21.7185 43.4104 22.7562 44.3013 24.0926C45.1922 25.4289 45.6832 26.9981 45.7743 28.8002H39.6696C39.4975 27.6359 39.0419 26.6995 38.3029 25.9908C37.574 25.272 36.6173 24.9126 35.4328 24.9126C34.4305 24.9126 33.5548 25.1859 32.8056 25.7326C32.0666 26.2692 31.4895 27.0538 31.0745 28.0864C30.6594 29.1191 30.4518 30.3694 30.4518 31.8373C30.4518 33.3255 30.6543 34.591 31.0593 35.6338C31.4743 36.6765 32.0565 37.4712 32.8056 38.0179C33.5548 38.5646 34.4305 38.838 35.4328 38.838C36.1718 38.838 36.8349 38.6861 37.4221 38.3824C38.0194 38.0787 38.5104 37.6383 38.8951 37.0612C39.29 36.474 39.5481 35.7704 39.6696 34.9504H45.7743C45.673 36.7322 45.1871 38.3014 44.3165 39.658C43.4559 41.0045 42.2664 42.0574 40.7478 42.8166C39.2292 43.5759 37.4322 43.9556 35.3568 43.9556ZM48.334 43.5V20.1746H54.6057V24.2444H54.8487C55.2739 22.7967 55.9876 21.7033 56.9899 20.9643C57.9921 20.2151 59.1462 19.8406 60.4522 19.8406C60.7762 19.8406 61.1255 19.8608 61.5 19.9013C61.8746 19.9418 62.2037 19.9975 62.4871 20.0683V25.8086C62.1834 25.7175 61.7633 25.6365 61.2267 25.5656C60.6901 25.4947 60.1991 25.4593 59.7537 25.4593C58.802 25.4593 57.9516 25.6668 57.2025 26.0819C56.4634 26.4869 55.8762 27.0538 55.4409 27.7827C55.0157 28.5116 54.8031 29.3519 54.8031 30.3036V43.5H48.334ZM70.2327 43.9404C68.7445 43.9404 67.4183 43.6822 66.2541 43.1659C65.0898 42.6395 64.1686 41.865 63.4903 40.8425C62.8221 39.8099 62.488 38.5241 62.488 36.9853C62.488 35.6894 62.7259 34.6011 63.2017 33.7204C63.6776 32.8396 64.3255 32.1309 65.1455 31.5943C65.9655 31.0578 66.8969 30.6528 67.9397 30.3795C68.9926 30.1061 70.0961 29.9138 71.2502 29.8024C72.6068 29.6607 73.7002 29.5291 74.5303 29.4076C75.3605 29.276 75.9629 29.0836 76.3374 28.8305C76.712 28.5774 76.8993 28.2029 76.8993 27.7068V27.6157C76.8993 26.6539 76.5956 25.9098 75.9882 25.3834C75.3909 24.8569 74.5404 24.5937 73.4369 24.5937C72.2727 24.5937 71.3464 24.8519 70.658 25.3682C69.9695 25.8744 69.514 26.5122 69.2912 27.2816L63.308 26.7956C63.6117 25.3783 64.2091 24.1533 65.1 23.1207C65.9909 22.0779 67.1399 21.2781 68.5471 20.7213C69.9645 20.1544 71.6045 19.8709 73.4673 19.8709C74.7632 19.8709 76.0033 20.0228 77.1878 20.3265C78.3825 20.6302 79.4404 21.101 80.3617 21.7388C81.2931 22.3766 82.027 23.1966 82.5636 24.1989C83.1002 25.191 83.3684 26.3806 83.3684 27.7675V43.5H77.2334V40.2654H77.0512C76.6766 40.9943 76.1755 41.6372 75.5478 42.194C74.9201 42.7407 74.1659 43.171 73.2851 43.4848C72.4043 43.7885 71.3869 43.9404 70.2327 43.9404ZM72.0854 39.4758C73.0371 39.4758 73.8773 39.2885 74.6063 38.9139C75.3352 38.5292 75.9072 38.0129 76.3222 37.3649C76.7373 36.717 76.9449 35.983 76.9449 35.163V32.6877C76.7424 32.8193 76.464 32.9408 76.1096 33.0522C75.7654 33.1534 75.3757 33.2496 74.9403 33.3407C74.505 33.4217 74.0697 33.4976 73.6344 33.5685C73.199 33.6292 72.8042 33.6849 72.4499 33.7355C71.6906 33.8469 71.0275 34.0241 70.4605 34.267C69.8936 34.51 69.4532 34.839 69.1394 35.2541C68.8255 35.6591 68.6686 36.1653 68.6686 36.7727C68.6686 37.6535 68.9875 38.3267 69.6253 38.7924C70.2732 39.248 71.0933 39.4758 72.0854 39.4758ZM99.3486 20.1746V25.0341H84.9524V20.1746H99.3486ZM88.2478 43.5V18.489C88.2478 16.7983 88.5768 15.3962 89.2348 14.2826C89.903 13.1689 90.8142 12.3337 91.9683 11.7769C93.1224 11.2201 94.4334 10.9417 95.9014 10.9417C96.8935 10.9417 97.7996 11.0176 98.6197 11.1695C99.4498 11.3213 100.067 11.458 100.472 11.5795L99.3182 16.4389C99.0651 16.3579 98.7513 16.282 98.3767 16.2112C98.0122 16.1403 97.6376 16.1049 97.2529 16.1049C96.3013 16.1049 95.6382 16.3276 95.2636 16.773C94.889 17.2084 94.7017 17.8208 94.7017 18.6105V43.5H88.2478ZM114.125 20.1746V25.0341H100.078V20.1746H114.125ZM103.267 14.5863H109.737V36.3323C109.737 36.9296 109.828 37.3953 110.01 37.7294C110.192 38.0534 110.445 38.2812 110.769 38.4128C111.103 38.5444 111.488 38.6102 111.923 38.6102C112.227 38.6102 112.531 38.5849 112.834 38.5342C113.138 38.4735 113.371 38.4279 113.533 38.3976L114.55 43.2115C114.226 43.3127 113.771 43.4291 113.184 43.5607C112.597 43.7025 111.883 43.7885 111.043 43.8189C109.483 43.8796 108.117 43.6721 106.942 43.1963C105.778 42.7205 104.872 41.9814 104.224 40.9792C103.576 39.9769 103.257 38.7114 103.267 37.1827V14.5863ZM127.045 43.9556C124.687 43.9556 122.647 43.4544 120.926 42.4522C119.215 41.4398 117.893 40.0326 116.962 38.2305C116.031 36.4184 115.565 34.3177 115.565 31.9284C115.565 29.519 116.031 27.4132 116.962 25.6112C117.893 23.799 119.215 22.3918 120.926 21.3895C122.647 20.3771 124.687 19.8709 127.045 19.8709C129.404 19.8709 131.439 20.3771 133.15 21.3895C134.871 22.3918 136.197 23.799 137.129 25.6112C138.06 27.4132 138.526 29.519 138.526 31.9284C138.526 34.3177 138.06 36.4184 137.129 38.2305C136.197 40.0326 134.871 41.4398 133.15 42.4522C131.439 43.4544 129.404 43.9556 127.045 43.9556ZM127.076 38.9443C128.149 38.9443 129.045 38.6406 129.764 38.0331C130.482 37.4156 131.024 36.5753 131.389 35.5123C131.763 34.4493 131.95 33.2395 131.95 31.8829C131.95 30.5263 131.763 29.3165 131.389 28.2535C131.024 27.1905 130.482 26.3502 129.764 25.7326C129.045 25.1151 128.149 24.8063 127.076 24.8063C125.993 24.8063 125.081 25.1151 124.342 25.7326C123.613 26.3502 123.062 27.1905 122.687 28.2535C122.323 29.3165 122.14 30.5263 122.14 31.8829C122.14 33.2395 122.323 34.4493 122.687 35.5123C123.062 36.5753 123.613 37.4156 124.342 38.0331C125.081 38.6406 125.993 38.9443 127.076 38.9443Z" fill="#1D2327"></path><path d="M149.222 42.8289H144.652L152.973 19.1925H158.259L166.592 42.8289H162.021L155.708 24.0398H155.524L149.222 42.8289ZM149.372 33.5613H161.837V37.0006H149.372V33.5613ZM173.012 19.1925V42.8289H168.73V19.1925H173.012Z" fill="url(#paint5_linear_1343_624)"></path><path d="M179.443 5.36105C179.725 4.59905 180.803 4.59905 181.085 5.36105C181.085 5.36105 181.517 8.60855 182.826 10.0664C183.017 10.2789 183.131 10.3927 183.343 10.5835C184.801 11.8926 188.049 12.3246 188.049 12.3246C188.811 12.6066 188.811 13.6844 188.049 13.9663C188.049 13.9663 184.801 14.3984 183.343 15.7074C183.131 15.8983 183.017 16.0121 182.826 16.2246C181.517 17.6824 181.085 20.9299 181.085 20.9299C180.803 21.6919 179.725 21.6919 179.443 20.9299C179.443 20.9299 179.011 17.6824 177.702 16.2246C177.511 16.0121 177.398 15.8983 177.185 15.7074C175.727 14.3984 172.48 13.9663 172.48 13.9663C171.718 13.6844 171.718 12.6066 172.48 12.3246C172.48 12.3246 175.727 11.8926 177.185 10.5835C177.398 10.3927 177.511 10.2789 177.702 10.0664C179.011 8.60855 179.443 5.36105 179.443 5.36105Z" fill="url(#paint6_linear_1343_624)"></path></g><defs><filter id="filter0_f_1343_624" x="-14.5801" y="-16.1277" width="97.0273" height="97.027" filterUnits="userSpaceOnUse" color-interpolation-filters="sRGB"><feGaussianBlur stdDeviation="8.32421"></feGaussianBlur></filter><linearGradient id="paint0_linear_1343_624" x1="60.6669" y1="15.1726" x2="13.7849" y2="54.7292" gradientUnits="userSpaceOnUse"><stop stop-color="#41D593"></stop><stop offset="1" stop-color="#8583FD"></stop></linearGradient><linearGradient id="paint1_linear_1343_624" x1="60.6708" y1="15.1714" x2="13.7888" y2="54.728" gradientUnits="userSpaceOnUse"><stop stop-color="#2FC77E"></stop><stop offset="1" stop-color="#7554EB"></stop></linearGradient><radialGradient id="paint2_radial_1343_624" cx="0" cy="0" r="1" gradientUnits="userSpaceOnUse" gradientTransform="translate(45.2876 25.4268) rotate(138.311) scale(31.39)"><stop offset="0.377972" stop-color="white"></stop><stop offset="1" stop-color="white" stop-opacity="0"></stop></radialGradient><linearGradient id="paint3_linear_1343_624" x1="46.2914" y1="0.62314" x2="33.7044" y2="49.7723" gradientUnits="userSpaceOnUse"><stop stop-color="#33CBA3"></stop><stop offset="0.403356" stop-color="#33CBA3" stop-opacity="0.1"></stop><stop offset="1" stop-color="#33CBA3" stop-opacity="0"></stop></linearGradient><linearGradient id="paint4_linear_1343_624" x1="20.8177" y1="61.76" x2="42.0957" y2="27.5953" gradientUnits="userSpaceOnUse"><stop stop-color="#6162F2"></stop><stop offset="0.413685" stop-color="#6162F2" stop-opacity="0.1"></stop><stop offset="0.892811" stop-color="#6162F2" stop-opacity="0"></stop></linearGradient><linearGradient id="paint5_linear_1343_624" x1="179.254" y1="16.9865" x2="143.005" y2="37.7594" gradientUnits="userSpaceOnUse"><stop stop-color="#14DA7D"></stop><stop offset="0.444661" stop-color="#4093B9"></stop><stop offset="1" stop-color="#6E4AF8"></stop></linearGradient><linearGradient id="paint6_linear_1343_624" x1="184.26" y1="8.62312" x2="174.321" y2="19.2721" gradientUnits="userSpaceOnUse"><stop stop-color="#14DA7D"></stop><stop offset="1" stop-color="#6E4AF8"></stop></linearGradient></defs></svg>