<svg xmlns="http://www.w3.org/2000/svg" width="154" height="36" viewBox="0 0 154 36" fill="none"><g clip-path="url(#clip0_7598_1269)"><path d="M42.2495 7.34668C47.494 7.34668 52.6237 10.4365 52.6237 17.3271C52.6237 17.874 52.5963 18.7217 52.5362 19.3178C52.5198 19.4545 52.4049 19.5584 52.2682 19.5584H37.5573C37.9893 22.0248 39.712 23.6271 42.4135 23.6271C44.2073 23.6271 45.3502 22.6373 45.9682 21.4561C46.0448 21.3084 46.2143 21.2318 46.3784 21.2646L51.8799 22.4623C52.0495 22.5006 52.137 22.6811 52.0659 22.8396C50.7807 25.7545 47.8549 28.642 42.3698 28.642C35.1674 28.642 31.3284 23.9443 31.3284 17.9943C31.3284 12.0443 35.3206 7.34668 42.2495 7.34668ZM46.4768 15.8014C46.2034 13.4553 44.6393 12.1975 42.3643 12.1975C39.3893 12.1975 38.137 13.7232 37.6667 15.8014H46.4768Z" fill="#191919"></path><path d="M54.5049 27.7451V8.24355C54.5049 8.0959 54.6252 7.97559 54.7729 7.97559H60.4986C60.6463 7.97559 60.7666 8.0959 60.7666 8.24355V10.5568C62.1393 8.40215 64.1736 7.34668 66.7932 7.34668C70.6268 7.34668 73.9189 9.97168 73.9189 15.8396V27.7451C73.9189 27.8928 73.7986 28.0131 73.651 28.0131H67.9252C67.7775 28.0131 67.6572 27.8928 67.6572 27.7451V16.742C67.6572 14.117 66.2846 12.6732 64.2885 12.6732C62.1338 12.6732 60.7666 14.0842 60.7666 17.2943V27.7506C60.7666 27.8982 60.6463 28.0186 60.4986 28.0186H54.7729C54.6252 28.0186 54.5049 27.8982 54.5049 27.7506V27.7451Z" fill="#191919"></path><path d="M74.3018 7.97021H80.3722C80.4925 7.97021 80.5964 8.04678 80.6292 8.16162L85.1901 23.2772L89.7511 8.16162C89.7839 8.04678 89.8878 7.97021 90.0081 7.97021H96.0784C96.2644 7.97021 96.3956 8.15615 96.33 8.33115L89.3464 27.7616C89.2917 27.9093 89.1495 28.0132 88.9909 28.0132H81.3784C81.2198 28.0132 81.0776 27.9147 81.0229 27.7616L74.0393 8.33115C73.9737 8.15615 74.105 7.97021 74.2909 7.97021H74.3018Z" fill="#191919"></path><path d="M109.619 27.745V24.688C108.64 26.7224 106.447 28.6419 103.04 28.6419C99.0861 28.6419 96.1494 26.1372 96.1494 22.6153C96.1494 18.8966 98.6158 16.1185 104.019 16.1185H107.153C108.875 16.1185 109.346 14.8661 109.187 14.0458C108.952 12.6349 107.699 11.8911 105.938 11.8911C103.713 11.8911 102.367 13.1216 102.198 14.8114C102.181 14.9646 102.039 15.0739 101.886 15.0521L96.576 14.1661C96.4283 14.1442 96.3244 14.0021 96.3518 13.8544C97.2158 9.2333 101.596 7.35205 106.092 7.35205C110.587 7.35205 115.563 8.4458 115.563 16.7474V27.7505C115.563 27.8981 115.443 28.0185 115.296 28.0185H109.881C109.734 28.0185 109.613 27.8981 109.613 27.7505L109.619 27.745ZM104.883 24.1028C107.388 24.1028 109.11 22.2216 109.307 19.8755H105.512C103.204 19.8755 102.378 20.8161 102.422 22.1067C102.46 23.4794 103.56 24.1028 104.888 24.1028H104.883Z" fill="#191919"></path><path d="M116.51 12.7116V8.23818C116.51 8.09053 116.63 7.97021 116.777 7.97021H119.014C120.053 7.97021 120.895 7.12803 120.895 6.08897V2.60537C120.895 2.45771 121.016 2.3374 121.163 2.3374H126.26C126.408 2.3374 126.528 2.45771 126.528 2.60537V7.97021H130.641C130.788 7.97021 130.909 8.09053 130.909 8.23818V12.7116C130.909 12.8593 130.788 12.9796 130.641 12.9796H126.528V20.2202C126.528 22.5772 128.535 23.5397 130.63 22.796C130.767 22.7468 130.914 22.8507 130.914 22.9983V27.7179C130.914 27.8929 130.799 28.046 130.63 28.0843C130.088 28.2101 129.339 28.3249 128.448 28.3249C123.592 28.3249 120.267 26.6788 120.267 19.6351V12.9796H116.777C116.63 12.9796 116.51 12.8593 116.51 12.7116Z" fill="#191919"></path><path d="M153.779 17.9943C153.779 23.8678 149.628 28.642 142.82 28.642C136.011 28.642 131.86 23.8678 131.86 17.9943C131.86 12.1209 136.011 7.34668 142.82 7.34668C149.628 7.34668 153.779 12.1209 153.779 17.9943ZM147.512 17.9943C147.512 15.0959 145.91 12.6732 142.814 12.6732C139.719 12.6732 138.117 15.1014 138.117 17.9943C138.117 20.8873 139.719 23.3154 142.814 23.3154C145.91 23.3154 147.512 20.8873 147.512 17.9943Z" fill="#191919"></path><path d="M14.4791 35.5002C15.3429 35.5002 16.0432 34.7999 16.0432 33.9361C16.0432 33.0723 15.3429 32.3721 14.4791 32.3721C13.6153 32.3721 12.915 33.0723 12.915 33.9361C12.915 34.7999 13.6153 35.5002 14.4791 35.5002Z" fill="#81CE52"></path><path d="M23.4698 23.2719L14.6487 24.218C14.4847 24.2344 14.4026 24.032 14.5339 23.9281L23.1636 17.207C23.7214 16.7477 24.0823 16.0367 23.9292 15.2711C23.7761 14.1008 22.8081 13.3352 21.5831 13.4883L12.2042 14.8609C12.0401 14.8828 11.9526 14.675 12.0839 14.5711L21.3808 7.47266C23.2128 6.04532 23.3659 3.24532 21.687 1.61563C20.1612 0.0898484 17.7112 0.139067 16.1855 1.66485L1.20655 16.9063C0.648741 17.5188 0.39171 18.3336 0.544835 19.1977C0.801866 20.5758 2.17452 21.4891 3.55265 21.2375L11.63 19.5914C11.805 19.5531 11.898 19.7883 11.7503 19.8867L2.79249 25.6234C1.6714 26.3344 1.1628 27.6086 1.51827 28.8828C1.87374 30.5617 3.55812 31.5297 5.1878 31.125L18.5808 27.8273C18.7339 27.7891 18.8433 27.9641 18.7448 28.0844L16.6558 30.6656C16.098 31.3766 17.0112 32.3445 17.7769 31.7867L24.6566 26.132C25.8816 25.1148 25.0667 23.1242 23.4862 23.2773L23.4698 23.2719Z" fill="#81CE52"></path></g><defs><clipPath id="clip0_7598_1269"><rect width="153.278" height="35" fill="white" transform="translate(0.500977 0.5)"></rect></clipPath></defs></svg>