<svg xmlns="http://www.w3.org/2000/svg" width="109" height="46" viewBox="0 0 109 46" fill="none"><g clip-path="url(#clip0_5403_937)"><ellipse cx="23.3068" cy="23.1494" rx="22.3771" ry="22.3767" fill="url(#paint0_linear_5403_937)"></ellipse><g filter="url(#filter0_d_5403_937)"><path d="M23.3918 31.4347C21.7672 31.4347 20.3721 31.078 19.2067 30.3646C18.0483 29.6512 17.1548 28.6658 16.5261 27.4085C15.9045 26.1442 15.5938 24.6891 15.5938 23.0433C15.5938 21.3905 15.9116 19.9319 16.5473 18.6676C17.183 17.3961 18.0801 16.4073 19.2385 15.7009C20.4039 14.9875 21.7813 14.6308 23.3706 14.6308C24.6914 14.6308 25.8604 14.8745 26.8776 15.3619C27.9017 15.8422 28.7176 16.5238 29.325 17.4067C29.9325 18.2826 30.2786 19.3068 30.3633 20.4793H26.6974C26.5491 19.6953 26.1959 19.0419 25.6379 18.5192C25.087 17.9895 24.3489 17.7246 23.4235 17.7246C22.6395 17.7246 21.9508 17.9365 21.3575 18.3603C20.7642 18.777 20.3015 19.3774 19.9695 20.1615C19.6446 20.9455 19.4822 21.8849 19.4822 22.9798C19.4822 24.0887 19.6446 25.0423 19.9695 25.8404C20.2945 26.6315 20.75 27.2425 21.3363 27.6734C21.9296 28.0972 22.6254 28.3091 23.4235 28.3091C23.9886 28.3091 24.4937 28.2032 24.9386 27.9913C25.3907 27.7723 25.7686 27.458 26.0723 27.0483C26.376 26.6386 26.5844 26.1406 26.6974 25.5544H30.3633C30.2715 26.7057 29.9325 27.7264 29.3462 28.6164C28.76 29.4993 27.9618 30.1915 26.9517 30.693C25.9417 31.1874 24.755 31.4347 23.3918 31.4347Z" fill="#131419"></path><path d="M32.6177 31.1168V14.8427H36.3366V17.5551H36.5061C36.8027 16.6156 37.3113 15.8916 38.0318 15.3831C38.7593 14.8674 39.5893 14.6096 40.5216 14.6096C40.7335 14.6096 40.9702 14.6202 41.2315 14.6414C41.4999 14.6555 41.7224 14.6803 41.899 14.7156V18.2437C41.7365 18.1872 41.4787 18.1378 41.1256 18.0954C40.7794 18.046 40.4439 18.0212 40.119 18.0212C39.4197 18.0212 38.7911 18.1731 38.2331 18.4768C37.6821 18.7735 37.2477 19.1867 36.9299 19.7165C36.612 20.2462 36.4531 20.8572 36.4531 21.5494V31.1168H32.6177Z" fill="#131419"></path><path d="M47.9437 31.4453C46.9125 31.4453 45.9836 31.2616 45.1572 30.8943C44.3378 30.52 43.688 29.969 43.2077 29.2415C42.7345 28.5139 42.4978 27.6169 42.4978 26.5503C42.4978 25.6321 42.6674 24.8728 43.0064 24.2724C43.3454 23.672 43.8081 23.1917 44.3944 22.8314C44.9806 22.4712 45.641 22.1993 46.3756 22.0156C47.1173 21.8249 47.8837 21.6872 48.6748 21.6024C49.6283 21.5035 50.4018 21.4152 50.9951 21.3375C51.5884 21.2528 52.0193 21.1256 52.2877 20.9561C52.5632 20.7795 52.7009 20.5076 52.7009 20.1403V20.0767C52.7009 19.2785 52.4643 18.6605 51.9911 18.2226C51.5178 17.7846 50.8362 17.5657 49.9462 17.5657C49.0068 17.5657 48.2616 17.7705 47.7106 18.1802C47.1667 18.5899 46.7994 19.0737 46.6087 19.6317L43.0276 19.1231C43.3101 18.1343 43.7763 17.3078 44.4261 16.6439C45.076 15.9729 45.8706 15.4714 46.81 15.1394C47.7495 14.8003 48.7878 14.6308 49.925 14.6308C50.709 14.6308 51.4896 14.7226 52.2665 14.9063C53.0435 15.0899 53.7534 15.3937 54.3961 15.8175C55.0389 16.2342 55.5546 16.8028 55.943 17.5233C56.3386 18.2437 56.5364 19.1443 56.5364 20.225V31.1168H52.8493V28.8812H52.7221C52.489 29.3333 52.1606 29.7571 51.7368 30.1527C51.32 30.5411 50.7938 30.8555 50.1581 31.0956C49.5295 31.3287 48.7913 31.4453 47.9437 31.4453ZM48.9397 28.627C49.7096 28.627 50.3771 28.4751 50.9421 28.1714C51.5072 27.8606 51.9416 27.4509 52.2453 26.9423C52.5561 26.4338 52.7115 25.8793 52.7115 25.2789V23.3612C52.5914 23.4601 52.3866 23.5519 52.097 23.6367C51.8145 23.7214 51.4966 23.7956 51.1434 23.8592C50.7903 23.9227 50.4406 23.9792 50.0945 24.0287C49.7484 24.0781 49.4482 24.1205 49.1939 24.1558C48.6218 24.2335 48.1097 24.3607 47.6577 24.5372C47.2056 24.7138 46.8489 24.9611 46.5875 25.2789C46.3262 25.5897 46.1955 25.9923 46.1955 26.4867C46.1955 27.1931 46.4533 27.7264 46.969 28.0866C47.4846 28.4468 48.1415 28.627 48.9397 28.627Z" fill="#131419"></path><path d="M67.7409 14.8427V17.8093H58.1205V14.8427H67.7409ZM60.5256 31.1168V13.3064C60.5256 12.2116 60.7517 11.3004 61.2037 10.5729C61.6628 9.84535 62.2774 9.30146 63.0473 8.94123C63.8172 8.581 64.6719 8.40088 65.6113 8.40088C66.2753 8.40088 66.8651 8.45385 67.3807 8.55981C67.8963 8.66576 68.2777 8.76111 68.525 8.84588L67.7621 11.8125C67.5996 11.7631 67.3948 11.7136 67.1476 11.6642C66.9004 11.6077 66.6249 11.5794 66.3212 11.5794C65.6078 11.5794 65.1027 11.7525 64.8061 12.0986C64.5165 12.4376 64.3717 12.925 64.3717 13.5607V31.1168H60.5256Z" fill="#131419"></path><path d="M77.976 14.8427V17.8093H68.6205V14.8427H77.976ZM70.9303 10.9437H74.7657V26.2219C74.7657 26.7375 74.8434 27.1331 74.9988 27.4085C75.1612 27.6769 75.3731 27.8606 75.6345 27.9595C75.8958 28.0584 76.1854 28.1078 76.5033 28.1078C76.7434 28.1078 76.9624 28.0901 77.1602 28.0548C77.365 28.0195 77.5204 27.9877 77.6264 27.9595L78.2727 30.9579C78.0678 31.0285 77.7747 31.1062 77.3933 31.191C77.0189 31.2757 76.5598 31.3252 76.0159 31.3393C75.0553 31.3676 74.19 31.2228 73.4201 30.9049C72.6502 30.58 72.0392 30.0785 71.5872 29.4004C71.1422 28.7223 70.9232 27.8747 70.9303 26.8576V10.9437Z" fill="#131419"></path><path d="M87.2125 31.4347C85.6232 31.4347 84.2459 31.085 83.0804 30.3858C81.915 29.6865 81.0108 28.7082 80.3681 27.4509C79.7324 26.1936 79.4145 24.7244 79.4145 23.0433C79.4145 21.3622 79.7324 19.8895 80.3681 18.6252C81.0108 17.3608 81.915 16.379 83.0804 15.6797C84.2459 14.9804 85.6232 14.6308 87.2125 14.6308C88.8018 14.6308 90.1791 14.9804 91.3446 15.6797C92.5101 16.379 93.4107 17.3608 94.0464 18.6252C94.6891 19.8895 95.0105 21.3622 95.0105 23.0433C95.0105 24.7244 94.6891 26.1936 94.0464 27.4509C93.4107 28.7082 92.5101 29.6865 91.3446 30.3858C90.1791 31.085 88.8018 31.4347 87.2125 31.4347ZM87.2337 28.3621C88.0954 28.3621 88.8159 28.1255 89.3951 27.6522C89.9743 27.1719 90.4052 26.5291 90.6877 25.7239C90.9773 24.9187 91.1221 24.0216 91.1221 23.0327C91.1221 22.0368 90.9773 21.1362 90.6877 20.331C90.4052 19.5187 89.9743 18.8724 89.3951 18.3921C88.8159 17.9118 88.0954 17.6716 87.2337 17.6716C86.3508 17.6716 85.6162 17.9118 85.0299 18.3921C84.4507 18.8724 84.0163 19.5187 83.7267 20.331C83.4442 21.1362 83.3029 22.0368 83.3029 23.0327C83.3029 24.0216 83.4442 24.9187 83.7267 25.7239C84.0163 26.5291 84.4507 27.1719 85.0299 27.6522C85.6162 28.1255 86.3508 28.3621 87.2337 28.3621Z" fill="#131419"></path></g><path d="M23.3918 31.4347C21.7672 31.4347 20.3721 31.078 19.2067 30.3646C18.0483 29.6512 17.1548 28.6658 16.5261 27.4085C15.9045 26.1442 15.5938 24.6891 15.5938 23.0433C15.5938 21.3905 15.9116 19.9319 16.5473 18.6676C17.183 17.3961 18.0801 16.4073 19.2385 15.7009C20.4039 14.9875 21.7813 14.6308 23.3706 14.6308C24.6914 14.6308 25.8604 14.8745 26.8776 15.3619C27.9017 15.8422 28.7176 16.5238 29.325 17.4067C29.9325 18.2826 30.2786 19.3068 30.3633 20.4793H26.6974C26.5491 19.6953 26.1959 19.0419 25.6379 18.5192C25.087 17.9895 24.3489 17.7246 23.4235 17.7246C22.6395 17.7246 21.9508 17.9365 21.3575 18.3603C20.7642 18.777 20.3015 19.3774 19.9695 20.1615C19.6446 20.9455 19.4822 21.8849 19.4822 22.9798C19.4822 24.0887 19.6446 25.0423 19.9695 25.8404C20.2945 26.6315 20.75 27.2425 21.3363 27.6734C21.9296 28.0972 22.6254 28.3091 23.4235 28.3091C23.9886 28.3091 24.4937 28.2032 24.9386 27.9913C25.3907 27.7723 25.7686 27.458 26.0723 27.0483C26.376 26.6386 26.5844 26.1406 26.6974 25.5544H30.3633C30.2715 26.7057 29.9325 27.7264 29.3462 28.6164C28.76 29.4993 27.9618 30.1915 26.9517 30.693C25.9417 31.1874 24.755 31.4347 23.3918 31.4347Z" fill="white"></path><path d="M32.6177 31.1168V14.8427H36.3366V17.5551H36.5061C36.8027 16.6156 37.3113 15.8916 38.0318 15.3831C38.7593 14.8674 39.5893 14.6096 40.5216 14.6096C40.7335 14.6096 40.9702 14.6202 41.2315 14.6414C41.4999 14.6555 41.7224 14.6803 41.899 14.7156V18.2437C41.7365 18.1872 41.4787 18.1378 41.1256 18.0954C40.7794 18.046 40.4439 18.0212 40.119 18.0212C39.4197 18.0212 38.7911 18.1731 38.2331 18.4768C37.6821 18.7735 37.2477 19.1867 36.9299 19.7165C36.612 20.2462 36.4531 20.8572 36.4531 21.5494V31.1168H32.6177Z" fill="white"></path><path d="M47.9437 31.4453C46.9125 31.4453 45.9836 31.2616 45.1572 30.8943C44.3378 30.52 43.688 29.969 43.2077 29.2415C42.7345 28.5139 42.4978 27.6169 42.4978 26.5503C42.4978 25.6321 42.6674 24.8728 43.0064 24.2724C43.3454 23.672 43.8081 23.1917 44.3944 22.8314C44.9806 22.4712 45.641 22.1993 46.3756 22.0156C47.1173 21.8249 47.8837 21.6872 48.6748 21.6024C49.6283 21.5035 50.4018 21.4152 50.9951 21.3375C51.5884 21.2528 52.0193 21.1256 52.2877 20.9561C52.5632 20.7795 52.7009 20.5076 52.7009 20.1403V20.0767C52.7009 19.2785 52.4643 18.6605 51.9911 18.2226C51.5178 17.7846 50.8362 17.5657 49.9462 17.5657C49.0068 17.5657 48.2616 17.7705 47.7106 18.1802C47.1667 18.5899 46.7994 19.0737 46.6087 19.6317L43.0276 19.1231C43.3101 18.1343 43.7763 17.3078 44.4261 16.6439C45.076 15.9729 45.8706 15.4714 46.81 15.1394C47.7495 14.8003 48.7878 14.6308 49.925 14.6308C50.709 14.6308 51.4896 14.7226 52.2665 14.9063C53.0435 15.0899 53.7534 15.3937 54.3961 15.8175C55.0389 16.2342 55.5546 16.8028 55.943 17.5233C56.3386 18.2437 56.5364 19.1443 56.5364 20.225V31.1168H52.8493V28.8812H52.7221C52.489 29.3333 52.1606 29.7571 51.7368 30.1527C51.32 30.5411 50.7938 30.8555 50.1581 31.0956C49.5295 31.3287 48.7913 31.4453 47.9437 31.4453ZM48.9397 28.627C49.7096 28.627 50.3771 28.4751 50.9421 28.1714C51.5072 27.8606 51.9416 27.4509 52.2453 26.9423C52.5561 26.4338 52.7115 25.8793 52.7115 25.2789V23.3612C52.5914 23.4601 52.3866 23.5519 52.097 23.6367C51.8145 23.7214 51.4966 23.7956 51.1434 23.8592C50.7903 23.9227 50.4406 23.9792 50.0945 24.0287C49.7484 24.0781 49.4482 24.1205 49.1939 24.1558C48.6218 24.2335 48.1097 24.3607 47.6577 24.5372C47.2056 24.7138 46.8489 24.9611 46.5875 25.2789C46.3262 25.5897 46.1955 25.9923 46.1955 26.4867C46.1955 27.1931 46.4533 27.7264 46.969 28.0866C47.4846 28.4468 48.1415 28.627 48.9397 28.627Z" fill="white"></path><path d="M67.7409 14.8427V17.8093H58.1205V14.8427H67.7409ZM60.5256 31.1168V13.3064C60.5256 12.2116 60.7517 11.3004 61.2037 10.5729C61.6628 9.84535 62.2774 9.30146 63.0473 8.94123C63.8172 8.581 64.6719 8.40088 65.6113 8.40088C66.2753 8.40088 66.8651 8.45385 67.3807 8.55981C67.8963 8.66576 68.2777 8.76111 68.525 8.84588L67.7621 11.8125C67.5996 11.7631 67.3948 11.7136 67.1476 11.6642C66.9004 11.6077 66.6249 11.5794 66.3212 11.5794C65.6078 11.5794 65.1027 11.7525 64.8061 12.0986C64.5165 12.4376 64.3717 12.925 64.3717 13.5607V31.1168H60.5256Z" fill="white"></path><path d="M77.976 14.8427V17.8093H68.6205V14.8427H77.976ZM70.9303 10.9437H74.7657V26.2219C74.7657 26.7375 74.8434 27.1331 74.9988 27.4085C75.1612 27.6769 75.3731 27.8606 75.6345 27.9595C75.8958 28.0584 76.1854 28.1078 76.5033 28.1078C76.7434 28.1078 76.9624 28.0901 77.1602 28.0548C77.365 28.0195 77.5204 27.9877 77.6264 27.9595L78.2727 30.9579C78.0678 31.0285 77.7747 31.1062 77.3933 31.191C77.0189 31.2757 76.5598 31.3252 76.0159 31.3393C75.0553 31.3676 74.19 31.2228 73.4201 30.9049C72.6502 30.58 72.0392 30.0785 71.5872 29.4004C71.1422 28.7223 70.9232 27.8747 70.9303 26.8576V10.9437Z" fill="white"></path><path d="M87.2125 31.4347C85.6232 31.4347 84.2459 31.085 83.0804 30.3858C81.915 29.6865 81.0108 28.7082 80.3681 27.4509C79.7324 26.1936 79.4145 24.7244 79.4145 23.0433C79.4145 21.3622 79.7324 19.8895 80.3681 18.6252C81.0108 17.3608 81.915 16.379 83.0804 15.6797C84.2459 14.9804 85.6232 14.6308 87.2125 14.6308C88.8018 14.6308 90.1791 14.9804 91.3446 15.6797C92.5101 16.379 93.4107 17.3608 94.0464 18.6252C94.6891 19.8895 95.0105 21.3622 95.0105 23.0433C95.0105 24.7244 94.6891 26.1936 94.0464 27.4509C93.4107 28.7082 92.5101 29.6865 91.3446 30.3858C90.1791 31.085 88.8018 31.4347 87.2125 31.4347ZM87.2337 28.3621C88.0954 28.3621 88.8159 28.1255 89.3951 27.6522C89.9743 27.1719 90.4052 26.5291 90.6877 25.7239C90.9773 24.9187 91.1221 24.0216 91.1221 23.0327C91.1221 22.0368 90.9773 21.1362 90.6877 20.331C90.4052 19.5187 89.9743 18.8724 89.3951 18.3921C88.8159 17.9118 88.0954 17.6716 87.2337 17.6716C86.3508 17.6716 85.6162 17.9118 85.0299 18.3921C84.4507 18.8724 84.0163 19.5187 83.7267 20.331C83.4442 21.1362 83.3029 22.0368 83.3029 23.0327C83.3029 24.0216 83.4442 24.9187 83.7267 25.7239C84.0163 26.5291 84.4507 27.1719 85.0299 27.6522C85.6162 28.1255 86.3508 28.3621 87.2337 28.3621Z" fill="white"></path><ellipse cx="99.0507" cy="13.89" rx="3.3437" ry="3.34364" fill="white"></ellipse></g><defs><filter id="filter0_d_5403_937" x="0.59375" y="-3.59912" width="109.418" height="53.0444" filterUnits="userSpaceOnUse" color-interpolation-filters="sRGB"><feGaussianBlur stdDeviation="7.5"></feGaussianBlur></filter><linearGradient id="paint0_linear_5403_937" x1="40.226" y1="8.41353" x2="6.93381" y2="37.8859" gradientUnits="userSpaceOnUse"><stop stop-color="#14DA7D"></stop><stop offset="1" stop-color="#6E4AF8"></stop></linearGradient><clipPath id="clip0_5403_937"><rect width="108" height="46" fill="white" transform="translate(0.363281)"></rect></clipPath></defs></svg>