<svg xmlns="http://www.w3.org/2000/svg" width="155" height="40" viewBox="0 0 155 40" fill="none"><path d="M116.852 9.19983H108.005C107.712 9.19962 107.429 9.30407 107.206 9.49435C106.984 9.68463 106.836 9.94822 106.791 10.2376L103.208 32.914C103.192 33.0193 103.198 33.1269 103.227 33.2295C103.256 33.3321 103.307 33.4272 103.376 33.5082C103.445 33.5893 103.531 33.6543 103.628 33.6989C103.725 33.7434 103.83 33.7665 103.937 33.7664H108.479C108.683 33.7665 108.882 33.6934 109.037 33.5603C109.193 33.4272 109.296 33.2428 109.328 33.0404L110.343 26.6116C110.389 26.3222 110.536 26.0586 110.759 25.8683C110.982 25.678 111.265 25.5736 111.558 25.5738H114.358C120.187 25.5738 123.552 22.754 124.431 17.1677C124.677 16.1923 124.704 15.1745 124.51 14.1875C124.316 13.2004 123.905 12.2687 123.308 11.4593C122.044 9.98202 119.813 9.19983 116.852 9.19983ZM117.873 17.4851C117.39 20.6602 114.964 20.6602 112.617 20.6602H111.281L112.218 14.7327C112.246 14.5593 112.334 14.4015 112.468 14.2874C112.602 14.1734 112.771 14.1107 112.947 14.1106H113.562C115.16 14.1106 116.668 14.1106 117.446 15.0206C117.693 15.3747 117.86 15.7786 117.933 16.204C118.007 16.6294 117.987 17.0657 117.873 17.4823V17.4851Z" fill="#232323"></path><path d="M53.7312 9.19983H44.8842C44.5914 9.1999 44.3081 9.30445 44.0855 9.49468C43.8628 9.68491 43.7153 9.94834 43.6695 10.2376L40.0872 32.914C40.0705 33.0193 40.0769 33.1269 40.1059 33.2295C40.1349 33.3321 40.1857 33.4272 40.255 33.5082C40.3243 33.5893 40.4103 33.6543 40.5072 33.6989C40.604 33.7434 40.7094 33.7665 40.816 33.7664H45.0429C45.3355 33.7664 45.6186 33.662 45.8412 33.4721C46.0639 33.2821 46.2115 33.019 46.2576 32.73L47.2237 26.6116C47.2693 26.3222 47.4167 26.0586 47.6394 25.8683C47.8621 25.678 48.1455 25.5736 48.4385 25.5738H51.2372C57.0664 25.5738 60.431 22.754 61.3101 17.1677C61.5563 16.1923 61.5832 15.1745 61.3889 14.1875C61.1947 13.2004 60.7841 12.2687 60.1867 11.4593C58.9228 9.98202 56.6886 9.19983 53.7312 9.19983ZM54.7521 17.4851C54.269 20.6602 51.8424 20.6602 49.4959 20.6602H48.1618L49.0985 14.7327C49.1259 14.5592 49.2144 14.4012 49.348 14.2871C49.4817 14.1731 49.6516 14.1105 49.8273 14.1106H50.4396C52.0362 14.1106 53.5458 14.1106 54.3238 15.0206C54.5713 15.3744 54.7381 15.7783 54.8123 16.2037C54.8866 16.629 54.8665 17.0655 54.7535 17.4823L54.7521 17.4851Z" fill="#232323"></path><path d="M80.1819 17.3867H75.9452C75.7696 17.3869 75.5998 17.4496 75.4662 17.5636C75.3326 17.6776 75.2441 17.8354 75.2164 18.0088L75.0296 19.1926L74.7333 18.7643C73.8149 17.4331 71.7702 16.9879 69.727 16.9879C67.3908 17.0375 65.1503 17.925 63.4139 19.4887C61.6775 21.0524 60.5609 23.1881 60.2678 25.5063C60.0444 26.6403 60.0698 27.8092 60.3421 28.9324C60.6143 30.0557 61.127 31.1065 61.8448 32.0124C62.5156 32.7487 63.3436 33.3246 64.2674 33.6973C65.1912 34.07 66.187 34.2299 67.181 34.1651C68.2716 34.1762 69.3532 33.9674 70.3612 33.5512C71.3693 33.135 72.2831 32.52 73.0481 31.7427L72.8586 32.9195C72.8419 33.0248 72.8483 33.1325 72.8773 33.2351C72.9063 33.3377 72.9571 33.4328 73.0264 33.5138C73.0957 33.5948 73.1817 33.6599 73.2786 33.7044C73.3754 33.749 73.4808 33.772 73.5874 33.7719H77.4042C77.697 33.7722 77.9802 33.6679 78.2029 33.4779C78.4256 33.2879 78.5731 33.0247 78.6189 32.7356L80.9107 18.2293C80.9258 18.1247 80.9183 18.0182 80.8886 17.9168C80.8589 17.8154 80.8078 17.7216 80.7386 17.6417C80.6695 17.5618 80.584 17.4977 80.488 17.4537C80.3919 17.4097 80.2876 17.3869 80.1819 17.3867ZM74.2755 25.6299C74.1098 26.7718 73.5318 27.8137 72.6507 28.5587C71.7695 29.3038 70.6461 29.7006 69.4925 29.6742C68.9632 29.7064 68.4334 29.6206 67.9413 29.4229C67.4493 29.2252 67.0073 28.9206 66.6474 28.5311C66.3256 28.1143 66.0993 27.6318 65.9845 27.1179C65.8698 26.6039 65.8693 26.071 65.9832 25.5569C66.1435 24.4157 66.7138 23.372 67.5876 22.6207C68.4614 21.8695 69.5788 21.462 70.7311 21.4746C71.2581 21.4463 71.7848 21.5351 72.2733 21.7347C72.7619 21.9343 73.2001 22.2397 73.5565 22.6289C73.8874 23.0454 74.1233 23.5291 74.2478 24.0462C74.3722 24.5634 74.3821 25.1015 74.2769 25.6229L74.2755 25.6299Z" fill="#232323"></path><path d="M143.304 17.3867H139.067C138.892 17.3866 138.722 17.4492 138.588 17.5632C138.454 17.6773 138.366 17.8353 138.339 18.0088L138.152 19.1926L137.857 18.7587C136.938 17.4275 134.894 16.9823 132.851 16.9823C130.515 17.0319 128.274 17.9195 126.538 19.4832C124.802 21.0469 123.686 23.1826 123.393 25.5007C123.169 26.6347 123.195 27.8036 123.467 28.9268C123.739 30.0501 124.252 31.1009 124.97 32.0067C125.641 32.7432 126.469 33.3191 127.392 33.6918C128.316 34.0645 129.312 34.2244 130.306 34.1595C131.396 34.1704 132.478 33.9615 133.485 33.5453C134.493 33.1291 135.407 32.5142 136.172 31.7371L135.982 32.9139C135.966 33.0192 135.972 33.1269 136.001 33.2295C136.03 33.3321 136.081 33.4271 136.15 33.5082C136.219 33.5892 136.305 33.6542 136.402 33.6988C136.499 33.7434 136.604 33.7664 136.711 33.7663H140.525C140.818 33.7666 141.101 33.6623 141.324 33.4723C141.546 33.2823 141.694 33.0191 141.74 32.7299L144.036 18.2293C144.051 18.1245 144.043 18.0177 144.013 17.9161C143.984 17.8145 143.932 17.7206 143.863 17.6406C143.793 17.5607 143.707 17.4966 143.611 17.4528C143.515 17.409 143.41 17.3865 143.304 17.3867ZM137.399 25.6299C137.233 26.7719 136.655 27.8137 135.774 28.5587C134.893 29.3038 133.77 29.7006 132.616 29.6742C132.087 29.7066 131.556 29.6209 131.064 29.4232C130.572 29.2255 130.13 28.9208 129.77 28.5311C129.448 28.1142 129.222 27.6318 129.107 27.1178C128.992 26.6039 128.992 26.071 129.105 25.5569C129.268 24.4171 129.839 23.3754 130.713 22.626C131.587 21.8767 132.704 21.4709 133.855 21.4844C134.382 21.4562 134.908 21.5451 135.397 21.7447C135.885 21.9443 136.324 22.2496 136.68 22.6388C137.009 23.0542 137.244 23.5363 137.368 24.0516C137.493 24.5669 137.503 25.1031 137.399 25.6229V25.6299Z" fill="#232323"></path><path d="M102.749 17.3869H98.4936C98.293 17.3872 98.0955 17.4364 97.9184 17.5304C97.7412 17.6244 97.5896 17.7602 97.4769 17.9261L91.6013 26.5737L89.1101 18.2575C89.0341 18.0042 88.8784 17.7822 88.6661 17.6243C88.4539 17.4665 88.1964 17.3812 87.9319 17.3812H83.7458C83.6281 17.3805 83.5119 17.408 83.407 17.4613C83.3021 17.5147 83.2114 17.5924 83.1427 17.6879C83.0739 17.7835 83.0291 17.8941 83.0119 18.0105C82.9946 18.127 83.0055 18.2459 83.0436 18.3572L87.7339 32.1192L83.3231 38.3388C83.2447 38.4492 83.1982 38.579 83.1887 38.7141C83.1792 38.8492 83.2072 38.9843 83.2694 39.1045C83.3316 39.2248 83.4258 39.3256 83.5415 39.3959C83.6573 39.4661 83.7901 39.5032 83.9255 39.5029H88.1805C88.3793 39.5029 88.5751 39.4548 88.7512 39.3626C88.9272 39.2704 89.0784 39.1369 89.1916 38.9735L103.359 18.5384C103.435 18.4275 103.478 18.2981 103.486 18.1642C103.493 18.0304 103.464 17.897 103.401 17.7786C103.338 17.6602 103.244 17.5611 103.129 17.4921C103.014 17.4231 102.883 17.3867 102.749 17.3869Z" fill="#232323"></path><path d="M148.301 9.82333L144.669 32.914C144.653 33.0193 144.659 33.1269 144.688 33.2295C144.717 33.3321 144.768 33.4272 144.837 33.5082C144.906 33.5893 144.992 33.6543 145.089 33.6989C145.186 33.7434 145.291 33.7665 145.398 33.7664H149.049C149.342 33.7664 149.625 33.662 149.848 33.4721C150.07 33.2821 150.218 33.019 150.264 32.73L153.846 10.0522C153.863 9.94693 153.856 9.83927 153.827 9.73668C153.799 9.63409 153.748 9.539 153.678 9.45797C153.609 9.37694 153.523 9.3119 153.426 9.26734C153.329 9.22277 153.224 9.19974 153.117 9.19983H149.031C148.855 9.1994 148.684 9.26204 148.55 9.3764C148.416 9.49077 148.328 9.64931 148.301 9.82333Z" fill="#232323"></path><path opacity="0.68" d="M30.6612 10.4103C30.967 9.20276 30.9777 7.93938 30.6925 6.72683C30.4073 5.51429 29.8344 4.38818 29.0224 3.44363C27.2207 1.38495 23.9669 0.503056 19.8046 0.503056H7.72778C7.31431 0.502189 6.9142 0.649431 6.59992 0.918112C6.28564 1.18679 6.07798 1.55915 6.01455 1.96772L0.981597 33.9672C0.958061 34.1154 0.966938 34.2671 1.00762 34.4116C1.04829 34.5561 1.11981 34.6901 1.21723 34.8044C1.31466 34.9186 1.43568 35.0104 1.57197 35.0734C1.70826 35.1363 1.85658 35.1691 2.00672 35.1692H9.46629L8.95091 38.444C8.93021 38.5737 8.93786 38.7063 8.97335 38.8328C9.00883 38.9592 9.07131 39.0764 9.15646 39.1764C9.24162 39.2764 9.34743 39.3567 9.46662 39.4118C9.5858 39.467 9.71552 39.4956 9.84685 39.4958H16.1352C16.496 39.4954 16.8449 39.3662 17.1188 39.1314C17.3928 38.8966 17.5738 38.5716 17.6294 38.2151L17.6912 37.8935L18.875 30.3595L18.9508 29.9383C19.0064 29.5818 19.1875 29.2568 19.4614 29.022C19.7354 28.7872 20.0842 28.6579 20.445 28.6576H21.3859C27.4776 28.6576 32.2466 26.1762 33.641 18.9975C34.2238 15.9979 33.9219 13.4941 32.3772 11.7345C31.8892 11.19 31.3057 10.7393 30.6555 10.4047" fill="#232323"></path><path opacity="0.7" d="M30.6612 10.4103C30.967 9.20276 30.9777 7.93938 30.6925 6.72683C30.4073 5.51429 29.8344 4.38818 29.0224 3.44363C27.2207 1.38495 23.9669 0.503056 19.8046 0.503056H7.72778C7.31431 0.502189 6.9142 0.649431 6.59992 0.918112C6.28564 1.18679 6.07798 1.55915 6.01455 1.96772L0.981597 33.9672C0.958061 34.1154 0.966938 34.2671 1.00762 34.4116C1.04829 34.5561 1.11981 34.6901 1.21723 34.8044C1.31466 34.9186 1.43568 35.0104 1.57197 35.0734C1.70826 35.1363 1.85658 35.1691 2.00672 35.1692H9.46629L11.3396 23.2525L11.282 23.626C11.3444 23.2191 11.5502 22.8479 11.8624 22.5796C12.1745 22.3112 12.5724 22.1634 12.984 22.1627H16.5284C23.4909 22.1627 28.9437 19.3247 30.5362 11.1194C30.5839 10.8765 30.6232 10.642 30.6597 10.4173" fill="#232323"></path><path d="M13.3533 10.4496C13.4086 10.093 13.5896 9.76787 13.8636 9.533C14.1376 9.29813 14.4866 9.16899 14.8475 9.1689H24.3194C25.3653 9.1621 26.4102 9.23864 27.4439 9.3978C27.7173 9.4418 27.9832 9.49282 28.2416 9.55086C28.5 9.60891 28.7504 9.67303 28.9929 9.74325C29.115 9.77836 29.233 9.81627 29.351 9.85559C29.8026 10.0059 30.2409 10.1938 30.6612 10.4173C30.967 9.20979 30.9777 7.9464 30.6925 6.73386C30.4073 5.52131 29.8344 4.3952 29.0224 3.45065C27.2207 1.38495 23.9669 0.503056 19.8046 0.503056H7.72778C7.31431 0.502189 6.9142 0.649431 6.59992 0.918112C6.28564 1.18679 6.07798 1.55915 6.01455 1.96772L0.981597 33.9672C0.958061 34.1154 0.966938 34.2671 1.00762 34.4116C1.04829 34.5561 1.11981 34.6901 1.21723 34.8044C1.31466 34.9186 1.43568 35.0104 1.57197 35.0734C1.70826 35.1363 1.85658 35.1691 2.00672 35.1692H9.46629L11.3396 23.2525L13.3533 10.4496Z" fill="#232323"></path></svg>