<svg width="25" height="25" viewBox="0 0 25 25" fill="none" xmlns="http://www.w3.org/2000/svg">
<path fill-rule="evenodd" clip-rule="evenodd" d="M17.1571 6.24988C17.2141 6.29448 17.5684 6.629 17.9476 6.9982C18.3267 7.36492 18.681 7.72917 18.7355 7.80351C19.2113 8.42793 19.1493 8.80705 18.8024 9.29519C18.7405 9.39431 18.1384 10.0138 16.8028 11.3518C15.7522 12.4049 13.9012 14.2584 10.4892 17.6679L9.60951 17.9653C9.12632 18.1288 8.32845 18.3964 7.83783 18.5624C7.34721 18.726 6.75747 18.9267 6.52455 19.006C6.29411 19.0828 6.04137 19.172 5.96703 19.1993C5.8927 19.229 5.82827 19.2513 5.82579 19.2513C5.82084 19.2513 5.81836 19.2315 5.81836 19.2067C5.81836 19.1844 5.86792 19.0134 5.92986 18.8301C5.99181 18.6467 6.0711 18.4063 6.10579 18.2973C6.13801 18.1883 6.18756 18.0421 6.21482 17.9752C6.2396 17.9058 6.32137 17.663 6.39818 17.4301C6.47252 17.1971 6.54438 16.9741 6.55924 16.9345C6.57163 16.8948 6.62119 16.7437 6.66827 16.6C6.71535 16.4563 6.83429 16.0895 6.9334 15.7823C7.03004 15.475 7.15146 15.1033 7.19854 14.9522C7.24809 14.801 7.30013 14.6449 7.315 14.6053C7.32986 14.5582 8.81163 13.0591 11.4431 10.4276C13.698 8.17271 15.5936 6.292 15.6555 6.2474C16.2254 5.79643 16.7582 5.90793 17.1571 6.24988ZM15.7968 7.30546C15.6109 7.4913 15.4573 7.65979 15.4573 7.67961C15.4573 7.69944 15.8736 8.12563 16.3791 8.62616C16.887 9.12422 17.3132 9.54298 17.3231 9.55537C17.333 9.56528 17.4892 9.429 17.6651 9.25307C17.8881 9.03254 18.0095 8.8913 18.0492 8.80705C18.0814 8.73767 18.1086 8.64599 18.1086 8.60138C18.1086 8.55926 18.0913 8.47997 18.0715 8.42793C18.0442 8.36846 17.8113 8.11572 17.3826 7.68209C17.0258 7.3228 16.6888 6.9982 16.6343 6.95855C16.5525 6.89661 16.5129 6.88669 16.3989 6.88669C16.3196 6.88917 16.2378 6.90652 16.2007 6.92882C16.166 6.95112 15.9851 7.12209 15.7968 7.30546ZM14.1713 8.96068C14.1762 8.97802 14.3472 9.16138 14.5504 9.36953C14.7561 9.57767 15.1674 9.99643 15.4672 10.3012C15.7695 10.6035 16.0247 10.8538 16.0396 10.8513C16.0545 10.8513 16.2007 10.715 16.3692 10.549C16.5624 10.3557 16.6715 10.2293 16.6665 10.2021C16.6615 10.1798 16.2502 9.74864 15.7472 9.24315C15.2467 8.73767 14.823 8.32386 14.8056 8.32386C14.7883 8.32386 14.6371 8.46015 14.4686 8.62616C14.3001 8.79466 14.1688 8.94333 14.1713 8.96068ZM8.60101 14.5186C8.59606 14.5309 8.65305 14.6028 8.72491 14.6747C8.79429 14.7465 9.21305 15.1578 9.65411 15.5915C10.0927 16.0226 10.4718 16.377 10.4941 16.377C10.5164 16.377 11.6315 15.2817 12.972 13.9412C14.31 12.6032 15.4077 11.503 15.4077 11.4955C15.4077 11.4881 15.2888 11.3593 15.1426 11.2106C14.9964 11.0594 14.5752 10.6332 14.206 10.2616C13.8368 9.88988 13.532 9.58758 13.5246 9.58758C13.5171 9.58758 12.4095 10.6902 11.0591 12.0407C9.70862 13.3886 8.60349 14.5037 8.60101 14.5186ZM7.79323 15.9681C7.6842 16.2952 7.55783 16.6619 7.51818 16.7809L7.44137 16.9989C7.84526 17.4028 7.97907 17.5292 7.99889 17.5416C8.02367 17.5564 8.21942 17.4994 8.58119 17.378C8.88101 17.2764 9.21057 17.1649 9.31216 17.1327C9.41376 17.1005 9.55747 17.0534 9.62685 17.0286C9.69871 17.0039 9.75818 16.9716 9.75818 16.9593C9.75818 16.9444 9.37659 16.5529 8.91075 16.0846C8.44243 15.6187 8.0534 15.2371 8.04349 15.2371C8.03358 15.2371 8.01871 15.2669 8.0088 15.304C8.00137 15.3437 7.90473 15.641 7.79323 15.9681Z" fill="white" stroke="white" stroke-width="0.2"/>
</svg>
